<?xml version="1.0" encoding="UTF-8" standalone="no"?>
<svg width="142px" height="55px" viewBox="0 0 142 55" version="1.1" xmlns="http://www.w3.org/2000/svg" xmlns:xlink="http://www.w3.org/1999/xlink" xmlns:sketch="http://www.bohemiancoding.com/sketch/ns">
    <!-- Generator: Sketch 3.3.3 (12081) - http://www.bohemiancoding.com/sketch -->
    <title>Slice 1</title>
    <desc>Created with Sketch.</desc>
    <defs></defs>
    <g id="Page-1" stroke="none" stroke-width="1" fill="none" fill-rule="evenodd" sketch:type="MSPage">
        <g id="cambria_orig_logo_2" sketch:type="MSLayerGroup">
            <path d="M0,0 L142,0 L142,55 L0,55 L0,0 L0,0 Z" id="Shape" fill="#FFFFFF" sketch:type="MSShapeGroup"></path>
            <path d="M88.6265849,6.06447368 C89.8694479,6.22947368 90.8015951,7.07184211 91.84409,7.67105263 C92.8865849,7.425 93.847771,6.84894737 94.9454397,6.83736842 C95.900818,6.73315789 96.8184458,7.04578947 97.6925153,7.39315789 C98.7262986,7.80421053 99.8733333,7.55236842 100.930348,7.85342105 C102.527485,8.21236842 103.587403,9.81605263 105.312311,9.77842105 C105.434274,10.2126316 105.553333,10.6468421 105.675297,11.0839474 C106.119591,11.3357895 106.563885,11.5905263 107.00818,11.8423684 C106.572597,12.7889474 106.319959,13.8107895 106.308344,14.8528947 C107.057546,14.5402632 107.513456,13.8976316 107.693497,13.1247368 C109.360327,13.5965789 111.12589,13.3939474 112.795624,13.75 C112.874029,13.8744737 113.027935,14.1234211 113.106339,14.2478947 C111.297219,14.3173684 109.488098,14.2971053 107.678978,14.2826316 C107.612188,17.1773684 107.623804,20.0721053 107.908384,22.9552632 C107.798037,24.9439474 107.885153,26.9384211 107.861922,28.93 C107.713824,28.82 107.420532,28.6 107.275337,28.49 C106.790389,26.3305263 107.315992,24.09 106.900736,21.9189474 C105.959877,22.7381579 104.969652,23.6297368 104.580532,24.8542105 C104.998691,25.41 105.550429,25.8528947 105.962781,26.4173684 C106.183476,27.0281579 105.832106,27.6765789 105.742086,28.2873684 C105.167117,27.0744737 104.426626,25.9513158 103.770348,24.7847368 C103.180859,23.6094737 102.571043,22.4457895 102.039632,21.2415789 C103.34638,20.3615789 104.708303,19.3310526 105.22229,17.7794737 C105.73047,16.2278947 105.718855,14.5171053 105.405235,12.9278947 C104.87092,10.56 102.617505,8.96789474 100.291493,8.64078947 C98.9121472,8.40921053 97.5153783,8.28763158 96.1186094,8.31078947 C93.5312474,8.33973684 90.9409816,8.26736842 88.3536196,8.37447368 C88.3361963,15.2610526 88.3507157,22.1476316 88.3478119,29.0342105 C90.2295297,29.1094737 92.1141513,28.9878947 93.9958691,29.1413158 L94.3065849,29.1673684 C93.9842536,29.3989474 93.6996728,29.7694737 93.2611861,29.7260526 C91.3388139,29.7086842 89.3525562,29.865 87.5376278,29.1036842 C87.2995092,27.1815789 87.6944376,25.2739474 87.8454397,23.3605263 C85.9927607,24.7326316 86.2337832,27.5926316 84.2475256,28.8605263 C82.7810634,29.3815789 81.2245808,29.9286842 79.6419632,29.7839474 C75.9830675,29.3121053 72.2719018,29.8823684 68.6217178,29.4771053 C67.7476483,28.5768421 67.8841309,27.2076316 67.8434765,26.0555263 C67.9596319,20.57 67.8144376,15.0815789 67.9654397,9.59894737 C68.058364,8.82605263 68.0351329,7.50315789 69.1182822,7.50605263 C72.0163599,7.22236842 74.9144376,7.73763158 77.8125153,7.83026316 C79.9323517,8.14578947 82.2786912,7.70289474 84.1633129,8.94473684 C86.0188957,9.80157895 86.7013088,12.0102632 86.6693661,13.9034211 C86.6780777,15.3334211 85.7633538,16.5289474 85.5252352,17.8981579 C85.7256033,18.8707895 86.468998,19.6031579 87.0846217,20.3413158 C87.4098569,19.5163158 87.6450716,18.6421053 87.5260123,17.7505263 C87.2966053,15.9789474 87.9499796,14.2305263 87.6508793,12.4589474 C87.2646626,10.2560526 88.2055215,8.18052632 88.6265849,6.06447368 L88.6265849,6.06447368 Z" id="Shape" fill="#FDFCEE" sketch:type="MSShapeGroup"></path>
            <path d="M109.28773,7.05447368 C110.510266,6.875 111.962209,6.95315789 112.859509,7.91710526 C113.797464,8.82026316 113.890389,10.4268421 113.100532,11.4515789 C111.962209,12.8178947 109.804622,12.9452632 108.297505,12.1723684 C106.897832,11.4921053 106.511616,9.52947368 107.339223,8.27894737 C107.798037,7.64210526 108.506585,7.17605263 109.28773,7.05447368 L109.28773,7.05447368 Z" id="Shape" fill="#5D666F" sketch:type="MSShapeGroup"></path>
            <path d="M44.3800818,8.99684211 C44.2929652,8.45842105 44.9143967,8.20657895 45.3470757,8.12552632 C47.1213497,7.83315789 48.9333742,7.98368421 50.7076483,8.20368421 C50.765726,8.54236842 50.8267076,8.88105263 50.890593,9.21973684 C50.5450307,8.86078947 50.1762372,8.44684211 49.6390184,8.41789474 C48.1696524,8.21526316 46.6799591,8.34552632 45.2047853,8.44684211 C45.1583231,15.3073684 45.1321881,22.1736842 45.210593,29.0342105 C46.9848671,29.0718421 48.7591411,29.0255263 50.5334151,29.0805263 C48.4861759,29.5871053 46.3721472,29.1992105 44.2929652,29.3265789 C44.1274438,29.7318421 43.9590184,30.1371053 43.7934969,30.5423684 C42.829407,30.0560526 41.813047,29.5205263 40.6950511,29.6305263 C39.5044581,29.7086842 38.2848262,29.6913158 37.1842536,29.1673684 L37.4717382,29.1442105 C39.5160736,29.0023684 41.5662168,29.1239474 43.6105521,29.0197368 C43.1894888,27.2828947 42.4693252,25.6415789 41.8072393,23.9886842 C41.4529652,22.9378947 41.0609407,21.8986842 40.6921472,20.8536842 C40.7676483,20.6915789 40.9186503,20.3615789 40.9941513,20.1994737 C42.2370143,21.5571053 42.068589,23.5602632 43.1401227,25.0076316 C43.56409,25.6531579 44.0141922,26.2813158 44.4526789,26.9152632 C44.9056851,22.4978947 44.5485072,18.04 44.6762781,13.6052632 C44.7721063,12.0594737 44.5572188,10.5281579 44.3800818,8.99684211 L44.3800818,8.99684211 Z" id="Shape" fill="#FDF9E1" sketch:type="MSShapeGroup"></path>
            <path d="M60.6505521,8.74210526 C60.807362,8.20368421 61.3939468,8.29342105 61.8382413,8.26736842 C63.240818,8.25868421 64.6462986,8.29052632 66.054683,8.25868421 C65.9762781,15.1944737 66.0024131,22.1331579 66.0401636,29.0718421 C64.1845808,29.1239474 62.328998,29.1181579 60.476319,29.095 C60.60409,25.7284211 60.3543558,22.3473684 60.6505521,18.9865789 C61.7278937,21.6902632 60.6853988,24.6457895 61.3068303,27.4160526 C61.7337014,29.1152632 64.1206953,28.8431579 65.0847853,27.8126316 C65.6655624,26.8602632 65.4680982,25.6676316 65.5116564,24.6023684 C65.471002,20.3586842 65.4535787,16.1121053 65.5087526,11.8684211 C65.4739059,10.9594737 65.6132924,9.97526316 65.1980368,9.13578947 C63.8709611,8.25868421 62.1431493,8.73631579 60.6505521,8.74210526 L60.6505521,8.74210526 Z" id="Shape" fill="#C1995D" sketch:type="MSShapeGroup"></path>
            <path d="M10.2652352,8.83763158 C12.0424131,7.98657895 14.0635174,8.18052632 15.974274,8.19210526 C19.1627403,8.29052632 21.9243354,10.8697368 22.592229,13.915 C22.4760736,14.3260526 21.9882209,14.4186842 21.6687935,14.6213158 C20.3271984,15.2031579 18.9449489,15.6836842 17.5656033,16.1613158 C17.0835583,15.2234211 16.7438037,14.1031579 15.8000409,13.5126316 C14.4555419,12.6934211 12.4663804,13.1305263 11.6910429,14.5286842 C10.7240491,16.28 10.8082618,18.3439474 10.9128016,20.2776316 C11.0986503,21.7742105 11.6561963,23.5342105 13.1836401,24.1478947 C14.0344785,24.2897368 14.9404908,24.3244737 15.7739059,24.0871053 C16.761227,23.4763158 17.2955419,22.3994737 17.9169734,21.4644737 C19.6215542,22.165 21.1867485,23.1405263 22.7984049,24.0234211 C21.7268712,26.4289474 19.6070348,28.5015789 16.9732106,29.0689474 C14.4003681,29.6826316 11.5458487,29.4886842 9.24306748,28.1107895 C7.0593456,26.7734211 5.65096115,24.4228947 5.09341513,21.9681579 C4.58233129,19.3686842 4.65492843,16.6215789 5.51157464,14.1002632 C6.35660532,11.8365789 7.98278119,9.77842105 10.2652352,8.83763158 L10.2652352,8.83763158 Z" id="Shape" fill="#D08909" sketch:type="MSShapeGroup"></path>
            <path d="M30.3078528,8.46131579 C32.2650716,8.23263158 34.2687526,8.20078947 36.2259714,8.46710526 C37.7156646,12.595 39.2866667,16.6968421 40.6921472,20.8536842 C41.0609407,21.8986842 41.4529652,22.9378947 41.8072393,23.9886842 C42.1237628,25.4968421 42.4083436,27.0107895 42.6609816,28.5305263 C40.7850716,28.8344737 38.8133333,28.8286842 37.0826176,27.9544737 C36.844499,27.0976316 36.5889571,26.2494737 36.3537423,25.3926316 C34.5997955,25.1378947 32.8197137,25.0278947 31.0483436,25.1523684 C30.5866258,25.2131579 30.0610225,25.2218421 29.6835174,25.5315789 C29.1259714,26.4260526 29.0504703,27.5289474 28.4987321,28.4263158 C27.4039673,28.7331579 26.2307975,28.6810526 25.1186094,28.4957895 C24.3752147,28.4263158 23.9570552,27.7547368 23.4924335,27.2626316 C25.8532924,21.0273684 28.0079755,14.7197368 30.3078528,8.46131579 L30.3078528,8.46131579 Z" id="Shape" fill="#D08908" sketch:type="MSShapeGroup"></path>
            <path d="M45.2047853,8.44684211 C46.6799591,8.34552632 48.1696524,8.21526316 49.6390184,8.41789474 C50.1762372,8.44684211 50.5450307,8.86078947 50.890593,9.21973684 C52.3686708,12.76 54.087771,16.1960526 55.5397137,19.7478947 C57.1513701,16.0744737 58.8443354,12.4328947 60.4530879,8.75947368 L60.6505521,8.74210526 C62.1431493,8.73631579 63.8709611,8.25868421 65.1980368,9.13578947 C65.6132924,9.97526316 65.4739059,10.9594737 65.5087526,11.8684211 C65.4535787,16.1121053 65.471002,20.3586842 65.5116564,24.6023684 C65.4680982,25.6676316 65.6655624,26.8602632 65.0847853,27.8126316 C64.1206953,28.8431579 61.7337014,29.1152632 61.3068303,27.4160526 C60.6853988,24.6457895 61.7278937,21.6902632 60.6505521,18.9865789 C59.9565235,20.2660526 59.3525153,21.5918421 58.751411,22.9176316 C57.7205317,25.1176316 56.7419223,27.3436842 55.6471575,29.5118421 C55.1128425,29.1673684 54.9269939,28.5218421 54.6511247,27.9863158 C54.111002,26.7473684 53.4343967,25.5692105 52.9058896,24.3273684 C52.2438037,22.5731579 51.4916973,20.8478947 50.5130879,19.2442105 C50.3737014,22.5181579 50.3475665,25.8094737 50.5334151,29.0805263 C48.7591411,29.0255263 46.9848671,29.0718421 45.210593,29.0342105 C45.1321881,22.1736842 45.1583231,15.3073684 45.2047853,8.44684211 L45.2047853,8.44684211 Z" id="Shape" fill="#CF8906" sketch:type="MSShapeGroup"></path>
            <path d="M68.6362372,8.35131579 C70.4395501,8.28473684 72.2457669,8.32236842 74.0490798,8.31657895 C76.5057669,8.34552632 78.9914928,8.16605263 81.4162372,8.68710526 L81.1606953,8.70157895 C77.2607771,8.90421053 73.357955,8.66684211 69.4580368,8.82315789 C69.1937832,10.3052632 69.1211861,11.8134211 69.173456,13.3157895 C69.2605726,16.3871053 69.0689162,19.4613158 69.2402454,22.5297368 C69.3418814,24.4807895 69.3796319,26.4318421 69.4377096,28.3857895 C72.3154601,28.8460526 75.2193456,28.3742105 78.1116155,28.4552632 C79.697137,28.5015789 81.3726789,28.3597368 82.7258896,27.4478947 C83.8932515,26.6576316 85.0606135,25.6878947 85.6442945,24.3736842 C86.010184,22.9957895 85.8766053,21.5455263 85.8911247,20.1357895 L85.8882209,19.8955263 C86.6374233,22.0405263 86.5067485,24.5705263 85.1912883,26.4723684 C83.7858078,28.3828947 81.2594274,29.0457895 78.988589,29.0718421 C75.5358691,29.04 72.0831493,29.1355263 68.6304294,29.0197368 C68.6246217,22.1302632 68.6304294,15.2407895 68.6362372,8.35131579 L68.6362372,8.35131579 Z" id="Shape" fill="#BD8A26" sketch:type="MSShapeGroup"></path>
            <path d="M88.3536196,8.37447368 C90.9409816,8.26736842 93.5312474,8.33973684 96.1186094,8.31078947 C97.5153783,8.28763158 98.9121472,8.40921053 100.291493,8.64078947 C97.7389775,8.82605263 95.1777505,8.80289474 92.6223313,8.75657895 C91.5304703,8.81736842 90.246953,8.69289474 89.3670757,9.46289474 C89.0679755,10.6265789 89.181227,11.8423684 89.1725153,13.0292105 C89.1957464,17.2786842 89.2160736,21.5310526 89.1579959,25.7834211 C89.230593,26.5794737 89.0912065,27.7142105 89.9565644,28.1310526 C91.007771,28.5131579 92.1548057,28.3481579 93.2495706,28.3568421 C93.644499,26.5389474 93.2147239,24.6747368 93.4818814,22.8568421 C93.7606544,21.5860526 95.2503476,21.8986842 96.1912065,22.0463158 C95.5233129,22.1157895 94.8554192,22.1534211 94.1875256,22.1968421 C93.9435992,24.5039474 94.0132924,26.8255263 93.9958691,29.1413158 C92.1141513,28.9878947 90.2295297,29.1094737 88.3478119,29.0342105 C88.3507157,22.1476316 88.3361963,15.2610526 88.3536196,8.37447368 L88.3536196,8.37447368 Z" id="Shape" fill="#C3891E" sketch:type="MSShapeGroup"></path>
            <path d="M120.900368,10.6121053 C121.231411,9.85947368 121.306912,8.89263158 121.983517,8.35710526 C123.621309,8.24710526 125.27362,8.305 126.917219,8.31947368 C127.698364,8.29052632 127.794192,9.185 128.041022,9.72921053 C129.452311,13.7239474 130.857791,17.7186842 132.376524,21.6757895 C132.565276,22.2113158 132.788875,22.7526316 132.823722,23.3286842 C132.765644,25.1321053 133.72683,26.6981579 134.388916,28.3076316 C132.396851,28.4928947 130.201513,29.0255263 128.380777,27.8994737 C128.168793,27.1236842 127.948098,26.3507895 127.721595,25.5778947 C125.601759,25.19 123.461595,25.5344737 121.335951,25.6068421 C121.089121,26.7907895 120.737751,27.9544737 120.29636,29.0805263 C118.272352,28.9502632 116.196074,29.3323684 114.215624,28.8228947 C115.327812,26.1597368 116.155419,23.3952632 117.180491,20.7002632 C118.475624,17.3568421 119.616851,13.9584211 120.900368,10.6121053 L120.900368,10.6121053 Z" id="Shape" fill="#D08907" sketch:type="MSShapeGroup"></path>
            <path d="M69.4580368,8.82315789 C73.357955,8.66684211 77.2607771,8.90421053 81.1606953,8.70157895 C82.8013906,8.75368421 84.4362781,9.625 85.2551738,11.0665789 C85.885317,12.1868421 85.934683,13.5242105 85.7807771,14.7718421 C85.5775051,16.0484211 84.6105112,16.9776316 83.7770961,17.8894737 C84.6017996,18.5002632 85.5629857,19.1023684 85.8911247,20.1357895 C85.8766053,21.5455263 86.010184,22.9957895 85.6442945,24.3736842 C85.0606135,25.6878947 83.8932515,26.6576316 82.7258896,27.4478947 C81.3726789,28.3597368 79.697137,28.5015789 78.1116155,28.4552632 C75.2193456,28.3742105 72.3154601,28.8460526 69.4377096,28.3857895 C69.3796319,26.4318421 69.3418814,24.4807895 69.2402454,22.5297368 C69.0689162,19.4613158 69.2605726,16.3871053 69.173456,13.3157895 C69.1211861,11.8134211 69.1937832,10.3052632 69.4580368,8.82315789 L69.4580368,8.82315789 Z" id="Shape" fill="#D08907" sketch:type="MSShapeGroup"></path>
            <path d="M89.3670757,9.46289474 C90.246953,8.69289474 91.5304703,8.81736842 92.6223313,8.75657895 C95.1777505,8.80289474 97.7389775,8.82605263 100.291493,8.64078947 C102.617505,8.96789474 104.87092,10.56 105.405235,12.9278947 C105.718855,14.5171053 105.73047,16.2278947 105.22229,17.7794737 C104.708303,19.3310526 103.34638,20.3615789 102.039632,21.2415789 C102.571043,22.4457895 103.180859,23.6094737 103.770348,24.7847368 C104.234969,26.0121053 104.568916,27.2828947 104.859305,28.5594737 C102.867239,28.6868421 100.732883,28.7418421 98.9469939,27.6997368 C98.0148466,25.8239474 97.169816,23.9018421 96.1912065,22.0463158 C95.2503476,21.8986842 93.7606544,21.5860526 93.4818814,22.8568421 C93.2147239,24.6747368 93.644499,26.5389474 93.2495706,28.3568421 C92.1548057,28.3481579 91.007771,28.5131579 89.9565644,28.1310526 C89.0912065,27.7142105 89.230593,26.5794737 89.1579959,25.7834211 C89.2160736,21.5310526 89.1957464,17.2786842 89.1725153,13.0292105 C89.181227,11.8423684 89.0679755,10.6265789 89.3670757,9.46289474 L89.3670757,9.46289474 Z" id="Shape" fill="#D08906" sketch:type="MSShapeGroup"></path>
            <path d="M74.1623313,12.9481579 C75.76818,12.9221053 77.3827403,12.8265789 78.9856851,12.9597368 C80.4753783,13.1363158 80.6089571,15.3565789 79.4212679,16.0165789 C77.6789366,16.2278947 75.9133742,16.0368421 74.1623313,16.0976316 C74.1652352,15.0497368 74.1652352,13.9989474 74.1623313,12.9481579 L74.1623313,12.9481579 Z" id="Shape" fill="#FCFDEE" sketch:type="MSShapeGroup"></path>
            <path d="M94.1846217,13.1536842 C95.6075256,13.1334211 97.0391411,13.0147368 98.4562372,13.1971053 C100.407648,13.64 100.488957,17.0789474 98.4330061,17.4321053 C96.9636401,17.6492105 95.4710429,17.5189474 93.9958691,17.5189474 C93.9842536,16.0628947 93.8797137,14.5894737 94.1846217,13.1536842 L94.1846217,13.1536842 Z" id="Shape" fill="#FCFCF2" sketch:type="MSShapeGroup"></path>
            <path d="M107.678978,14.2826316 C109.488098,14.2971053 111.297219,14.3173684 113.106339,14.2478947 C112.917587,18.3063158 113.23411,22.385 112.821759,26.4318421 C112.743354,25.5113158 112.627198,24.5936842 112.574928,23.6702632 C112.537178,21.4673684 112.580736,19.2644737 112.603967,17.0615789 C112.580736,16.3205263 112.627198,15.5360526 112.299059,14.85 C110.974888,14.3318421 109.514233,14.5952632 108.131984,14.5778947 C108.007117,17.2815789 108.198773,19.9968421 107.928712,22.6947368 L107.908384,22.9552632 C107.623804,20.0721053 107.612188,17.1773684 107.678978,14.2826316 L107.678978,14.2826316 Z" id="Shape" fill="#B28B33" sketch:type="MSShapeGroup"></path>
            <path d="M108.131984,14.5778947 C109.514233,14.5952632 110.974888,14.3318421 112.299059,14.85 C112.627198,15.5360526 112.580736,16.3205263 112.603967,17.0615789 C112.580736,19.2644737 112.537178,21.4673684 112.574928,23.6702632 C112.580736,25.2536842 112.394888,26.8284211 112.110307,28.3828947 C110.945849,28.4089474 109.784294,28.4089474 108.62274,28.3828947 C108.521104,26.4723684 108.433988,24.5502632 107.928712,22.6947368 C108.198773,19.9968421 108.007117,17.2815789 108.131984,14.5778947 L108.131984,14.5778947 Z" id="Shape" fill="#D08906" sketch:type="MSShapeGroup"></path>
            <path d="M33.2756237,14.7718421 C33.775092,16.7721053 34.4081391,18.7376316 34.8524335,20.7494737 C33.7954192,20.9028947 32.7238855,20.9289474 31.6697751,20.7668421 C32.000818,18.7202632 32.7500204,16.7721053 33.2756237,14.7718421 L33.2756237,14.7718421 Z" id="Shape" fill="#FAFCE3" sketch:type="MSShapeGroup"></path>
            <path d="M122.947607,20.8305263 C123.444172,18.7810526 123.929121,16.7228947 124.597014,14.7197368 C124.919346,15.9992105 125.305562,17.2613158 125.616278,18.5436842 C125.775992,19.2702632 125.915378,19.9997368 126.048957,20.7321053 C125.015174,20.7581579 123.981391,20.7697368 122.947607,20.8305263 L122.947607,20.8305263 Z" id="Shape" fill="#FCFBE8" sketch:type="MSShapeGroup"></path>
            <path d="M125.616278,18.5436842 C127.021759,18.6363158 126.809775,20.2197368 126.316115,21.0968421 C125.186503,21.2126316 124.001718,21.3573684 122.947607,20.8305263 C123.981391,20.7697368 125.015174,20.7581579 126.048957,20.7321053 C125.915378,19.9997368 125.775992,19.2702632 125.616278,18.5436842 L125.616278,18.5436842 Z" id="Shape" fill="#C1963F" sketch:type="MSShapeGroup"></path>
            <path d="M58.751411,22.9176316 C59.3525153,21.5918421 59.9565235,20.2660526 60.6505521,18.9865789 C60.3543558,22.3473684 60.60409,25.7284211 60.476319,29.095 C60.1743149,28.8084211 59.5906339,28.6463158 59.666135,28.1368421 C59.7096933,26.4318421 59.8984458,24.7268421 59.7706748,23.0218421 C59.4309202,22.9871053 59.0911656,22.9523684 58.751411,22.9176316 L58.751411,22.9176316 Z" id="Shape" fill="#FEF9DE" sketch:type="MSShapeGroup"></path>
            <path d="M50.5130879,19.2442105 C51.4916973,20.8478947 52.2438037,22.5731579 52.9058896,24.3273684 C52.0869939,23.4357895 51.6891616,22.2605263 50.9138241,21.3371053 C50.4637219,23.9047368 51.0880573,26.5331579 50.5334151,29.0805263 C50.3475665,25.8094737 50.3737014,22.5181579 50.5130879,19.2442105 L50.5130879,19.2442105 Z" id="Shape" fill="#F6E3AD" sketch:type="MSShapeGroup"></path>
            <path d="M74.2146012,20.4744737 C76.020818,20.5671053 77.922863,20.1328947 79.6564826,20.7639474 C80.7977096,21.1894737 80.7686708,22.5586842 80.4986094,23.54 C80.2024131,24.2144737 79.4038446,24.4721053 78.7185276,24.4807895 C77.2085072,24.5213158 75.6984867,24.4836842 74.1884663,24.4721053 C74.1565235,23.1405263 74.144908,21.8060526 74.2146012,20.4744737 L74.2146012,20.4744737 Z" id="Shape" fill="#FDFEF4" sketch:type="MSShapeGroup"></path>
            <path d="M107.908384,22.9552632 L107.928712,22.6947368 C108.433988,24.5502632 108.521104,26.4723684 108.62274,28.3828947 C109.784294,28.4089474 110.945849,28.4089474 112.110307,28.3828947 C112.394888,26.8284211 112.580736,25.2536842 112.574928,23.6702632 C112.627198,24.5936842 112.743354,25.5113158 112.821759,26.4318421 C112.88274,27.3205263 112.84499,28.2121053 112.833374,29.1007895 C111.175256,29.0892105 109.517137,29.0371053 107.861922,29.1239474 L107.861922,28.93 C107.885153,26.9384211 107.798037,24.9439474 107.908384,22.9552632 L107.908384,22.9552632 Z" id="Shape" fill="#BA8835" sketch:type="MSShapeGroup"></path>
            <path d="M134.388916,28.3076316 C133.72683,26.6981579 132.765644,25.1321053 132.823722,23.3286842 C133.805235,25.135 134.377301,27.1236842 135.00454,29.0718421 C132.875992,29.0689474 130.74454,29.1413158 128.618896,29.04 C128.540491,28.6578947 128.462086,28.2786842 128.380777,27.8994737 C130.201513,29.0255263 132.396851,28.4928947 134.388916,28.3076316 L134.388916,28.3076316 Z" id="Shape" fill="#B2863C" sketch:type="MSShapeGroup"></path>
            <path d="M41.8072393,23.9886842 C42.4693252,25.6415789 43.1894888,27.2828947 43.6105521,29.0197368 C41.5662168,29.1239474 39.5160736,29.0023684 37.4717382,29.1442105 C37.3410634,28.7476316 37.2103885,28.3510526 37.0826176,27.9544737 C38.8133333,28.8286842 40.7850716,28.8344737 42.6609816,28.5305263 C42.4083436,27.0107895 42.1237628,25.4968421 41.8072393,23.9886842 L41.8072393,23.9886842 Z" id="Shape" fill="#B18B40" sketch:type="MSShapeGroup"></path>
            <path d="M103.770348,24.7847368 C104.426626,25.9513158 105.167117,27.0744737 105.742086,28.2873684 C105.846626,28.545 105.945358,28.8084211 106.038282,29.0718421 C104.014274,29.0978947 101.987362,29.1123684 99.9633538,29.0660526 C99.2838446,29.0457895 99.2519018,28.1513158 98.9469939,27.6997368 C100.732883,28.7418421 102.867239,28.6868421 104.859305,28.5594737 C104.568916,27.2828947 104.234969,26.0121053 103.770348,24.7847368 L103.770348,24.7847368 Z" id="Shape" fill="#B18B40" sketch:type="MSShapeGroup"></path>
            <path d="M29.6835174,25.5315789 C30.0610225,25.2218421 30.5866258,25.2131579 31.0483436,25.1523684 C32.8197137,25.0278947 34.5997955,25.1378947 36.3537423,25.3926316 C34.309407,25.6676316 32.2418405,25.4968421 30.1887935,25.5518421 C29.8229039,26.7415789 29.4628221,27.9313158 29.0185276,29.095 C26.9364417,29.0602632 24.8572597,29.095 22.7780777,29.0486842 C23.024908,28.4552632 23.2601227,27.8589474 23.4924335,27.2626316 C23.9570552,27.7547368 24.3752147,28.4263158 25.1186094,28.4957895 C26.2307975,28.6810526 27.4039673,28.7331579 28.4987321,28.4263158 C29.0504703,27.5289474 29.1259714,26.4260526 29.6835174,25.5315789 L29.6835174,25.5315789 Z" id="Shape" fill="#B28B33" sketch:type="MSShapeGroup"></path>
            <path d="M27.8627812,36.3289474 C28.2577096,36.3289474 28.652638,36.3289474 29.0446626,36.3260526 C29.1404908,37.6402632 29.1201636,38.9602632 29.0766053,40.2744737 C29.8577505,39.8373684 30.6737423,39.1918421 31.6291207,39.3655263 C32.6774233,39.4726316 33.5514928,40.3671053 33.6589366,41.4092105 C33.8796319,43.0765789 33.7053988,44.7671053 33.7605726,46.4460526 C33.3278937,46.4576316 32.8923108,46.4692105 32.4596319,46.4778947 C32.4189775,44.9784211 32.5060941,43.4789474 32.4160736,41.9852632 C32.4131697,41.2326316 31.8759509,40.4134211 31.0686708,40.3844737 C30.1278119,40.2310526 29.160818,41.0444737 29.134683,41.9852632 C29.0562781,43.4702632 29.1288753,44.9581579 29.1114519,46.4460526 C28.678773,46.4547368 28.2460941,46.4634211 27.8134151,46.4721053 C27.8250307,43.0910526 27.7437219,39.7071053 27.8627812,36.3289474 L27.8627812,36.3289474 Z" id="Shape" fill="#6A6D70" sketch:type="MSShapeGroup"></path>
            <path d="M54.7121063,36.3521053 C55.1157464,36.3405263 55.5193865,36.3260526 55.9259305,36.3115789 C55.9085072,39.6984211 55.9346421,43.0823684 55.9026994,46.4692105 C55.5019632,46.4807895 55.1041309,46.4894737 54.7033947,46.5039474 C54.6859714,43.12 54.6772597,39.7360526 54.7121063,36.3521053 L54.7121063,36.3521053 Z" id="Shape" fill="#6B696E" sketch:type="MSShapeGroup"></path>
            <path d="M67.297546,38.1092105 C67.9247853,36.6878947 70.0213906,36.2478947 71.1480982,37.3421053 C71.7433947,38.0310526 71.8072802,39.105 71.406544,39.9068421 C70.973865,40.5581579 70.2769325,40.9576316 69.6700204,41.4265789 C70.390184,42.3471053 71.1742331,43.2213158 72.0192638,44.0318421 C72.3415951,43.1257895 72.6348875,42.2081579 72.8613906,41.2702632 C73.1488753,41.2760526 73.7267485,41.2876316 74.017137,41.2934211 C73.7470757,42.5323684 73.3231084,43.7365789 72.7161963,44.8510526 C73.1982413,45.3894737 73.6773824,45.9307895 74.1071575,46.5126316 C73.2447035,46.5647368 72.4316155,46.3215789 71.7666258,45.7744737 C70.6341104,46.3910526 69.3099387,46.9960526 68.0060941,46.5415789 C66.7458078,46.2839474 65.8223722,44.9928947 66.0372597,43.7192105 C66.005317,42.5381579 66.9839264,41.7623684 67.8347648,41.1168421 C67.2859305,40.2252632 66.9055215,39.1368421 67.297546,38.1092105 L67.297546,38.1092105 Z" id="Shape" fill="#6A6A6C" sketch:type="MSShapeGroup"></path>
            <path d="M91.513047,36.9252632 C91.8702249,36.9802632 92.2303067,37.0352632 92.5874847,37.0989474 C92.578773,37.5331579 92.5671575,37.9673684 92.5468303,38.4015789 C92.148998,38.4015789 91.7540695,38.4073684 91.3591411,38.4073684 C91.2836401,38.2192105 91.132638,37.84 91.057137,37.6489474 C91.1703885,37.4694737 91.3997955,37.1076316 91.513047,36.9252632 L91.513047,36.9252632 Z" id="Shape" fill="#666467" sketch:type="MSShapeGroup"></path>
            <path d="M43.5321472,37.7647368 C43.8980368,37.7328947 44.2639264,37.7010526 44.629816,37.6692105 C44.629816,38.2771053 44.6269121,38.885 44.629816,39.4928947 C45.2280164,39.5131579 45.8262168,39.5218421 46.4273211,39.5363158 C46.4650716,39.8315789 46.4912065,40.1268421 46.5028221,40.425 C45.8871984,40.4423684 45.2715746,40.4568421 44.6559509,40.4771053 C44.6820859,42.1763158 44.426544,43.9189474 44.9347239,45.5718421 C45.4080573,45.5834211 45.8813906,45.5921053 46.3547239,45.6007895 C46.3634356,45.9423684 46.3663395,46.2868421 46.3663395,46.6313158 C45.2948057,46.805 43.8080164,46.7152632 43.5205317,45.4213158 C43.3375869,43.8494737 43.4711656,42.2602632 43.4653579,40.6797368 C42.9833129,40.4452632 41.8943558,40.4539474 42.3851125,39.6694737 C42.7248671,39.5797368 43.0675256,39.5044737 43.4130879,39.4465789 C43.4450307,38.885 43.4856851,38.3234211 43.5321472,37.7647368 L43.5321472,37.7647368 Z" id="Shape" fill="#696A6C" sketch:type="MSShapeGroup"></path>
            <path d="M68.4794274,38.1844737 C68.7262577,37.5389474 69.5625767,37.6460526 70.111411,37.7502632 C70.5557055,38.115 70.5847444,38.7489474 70.5005317,39.2757895 C70.2043354,39.93 69.5741922,40.3468421 69.0602045,40.8215789 C68.5084663,40.0834211 68.0002863,39.0876316 68.4794274,38.1844737 L68.4794274,38.1844737 Z" id="Shape" fill="#F6F9FA" sketch:type="MSShapeGroup"></path>
            <path d="M94.8263804,37.7821053 C95.2038855,37.7415789 95.5842945,37.7039474 95.9676074,37.6634211 C95.9676074,38.2771053 95.9676074,38.8907895 95.9792229,39.5073684 C96.5658078,39.5189474 97.1552965,39.5305263 97.7447853,39.5363158 C97.7941513,39.8228947 97.8144785,40.1123684 97.8115746,40.4018421 C97.1901431,40.4568421 96.5716155,40.4915789 95.9559918,40.5668421 C95.9966462,42.0315789 95.8456442,43.5078947 96.0460123,44.9639474 C96.2173415,45.7484211 97.1262577,45.5747368 97.7302658,45.6586842 C97.7331697,45.9597368 97.7186503,46.2607895 97.6867076,46.5589474 C96.6790593,46.805 95.2096933,46.7760526 94.8931697,45.5515789 C94.6114928,43.9942105 94.8786503,42.4021053 94.7741104,40.8331579 C94.3704703,40.5321053 93.9145603,40.3092105 93.4876892,40.0515789 C93.9000409,39.7707895 94.3327198,39.5218421 94.7653988,39.27 C94.7828221,38.775 94.8031493,38.2771053 94.8263804,37.7821053 L94.8263804,37.7821053 Z" id="Shape" fill="#68686A" sketch:type="MSShapeGroup"></path>
            <path d="M37.5472393,39.4639474 C38.6391002,39.1773684 39.8964826,39.3886842 40.773456,40.1152632 C42.1324744,41.4613158 42.2631493,43.8176316 41.1625767,45.3634211 C40.3146421,46.5357895 38.6274847,47.0076316 37.2829857,46.4865789 C34.2658487,45.4763158 34.4429857,40.2484211 37.5472393,39.4639474 L37.5472393,39.4639474 Z" id="Shape" fill="#6C6C6D" sketch:type="MSShapeGroup"></path>
            <path d="M47.8589366,40.7607895 C48.7910838,39.1021053 51.5555828,38.7634211 52.691002,40.3757895 C53.3066258,41.1689474 53.3240491,42.2081579 53.3734151,43.1634211 C51.7152965,43.2531579 50.0571779,43.1894737 48.4019632,43.2242105 C48.532638,44.1592105 48.8782004,45.1636842 49.827771,45.5544737 C50.8063804,45.7976316 51.8343558,45.5805263 52.8245808,45.5168421 C52.8303885,45.7281579 52.8361963,46.145 52.8391002,46.3563158 C51.3581186,46.7557895 49.5838446,46.9786842 48.3322699,45.8960526 C46.935501,44.605 46.9645399,42.3268421 47.8589366,40.7607895 L47.8589366,40.7607895 Z" id="Shape" fill="#696969" sketch:type="MSShapeGroup"></path>
            <path d="M58.626544,39.6202632 C59.6080573,39.2092105 60.8741513,39.2063158 61.7278937,39.9010526 C61.6785276,40.0255263 61.5826994,40.2773684 61.5362372,40.4018421 C60.7521881,40.4597368 59.944908,40.1992105 59.1869939,40.4568421 C58.8646626,40.7839474 58.8414315,41.2586842 58.7252761,41.6755263 C59.6196728,42.2081579 60.6418405,42.5526316 61.4316973,43.2415789 C62.4393456,44.1997368 61.9021268,46.0957895 60.5866667,46.4721053 C59.564499,46.8947368 58.4610225,46.5878947 57.4359509,46.3447368 C57.4707975,46.1247368 57.5404908,45.6818421 57.5753374,45.4589474 C58.5481391,45.4936842 60.0697751,46.1768421 60.6244172,45.0507895 C61.0396728,43.7365789 59.3438037,43.5136842 58.5626585,42.9376316 C57.2239673,42.3326316 57.3517382,40.2136842 58.626544,39.6202632 L58.626544,39.6202632 Z" id="Shape" fill="#6B6B6A" sketch:type="MSShapeGroup"></path>
            <path d="M78.7678937,39.7418421 C79.6884254,39.1310526 80.8238446,39.3973684 81.828589,39.5971053 C81.8256851,39.8142105 81.8198773,40.2513158 81.8140695,40.4713158 C81.0503476,40.4163158 80.2430675,40.1876316 79.5025767,40.4713158 C79.1541104,40.7318421 79.0147239,41.14 79.1076483,41.5626316 C79.7958691,42.3876316 80.9864622,42.515 81.7443763,43.2589474 C82.5429448,44.1389474 82.36,45.7310526 81.2623313,46.2839474 C80.153047,46.9584211 78.8259714,46.6486842 77.6615133,46.3186842 C77.7747648,46.0060526 77.8851125,45.6934211 77.9925562,45.3778947 C78.8143558,45.5863158 79.7029448,45.8468421 80.5392638,45.5573684 C81.0213088,45.2621053 80.9893661,44.6310526 80.8935378,44.1476316 C80.0368916,43.3255263 78.6197955,43.2039474 78.0186912,42.1010526 C77.7253988,41.2731579 77.9344785,40.1789474 78.7678937,39.7418421 L78.7678937,39.7418421 Z" id="Shape" fill="#68696A" sketch:type="MSShapeGroup"></path>
            <path d="M83.4838037,39.5160526 C83.8903476,39.5131579 84.2939877,39.5073684 84.7034356,39.5015789 C84.8137832,41.2934211 84.4217587,43.175 85.0344785,44.9002632 C85.6762372,46.2376316 87.7902658,45.5892105 88.0022495,44.2576316 C88.191002,42.6771053 88.0341922,41.0734211 88.0835583,39.4842105 C88.4842945,39.5015789 88.8850307,39.5160526 89.2886708,39.5276316 C89.2857669,41.9013158 89.3293252,44.275 89.2857669,46.6486842 C88.7862986,46.4807895 88.3245808,46.2260526 87.9528834,45.8468421 C87.1339877,46.3910526 86.1466667,46.97 85.1390184,46.5792105 C84.0732924,46.3302632 83.5796319,45.2215789 83.5186503,44.2257895 C83.4286299,42.6568421 83.5157464,41.085 83.4838037,39.5160526 L83.4838037,39.5160526 Z" id="Shape" fill="#696A6E" sketch:type="MSShapeGroup"></path>
            <path d="M91.3039673,39.5073684 C91.7017996,39.5102632 92.0996319,39.5073684 92.4974642,39.5044737 C92.4945603,41.8231579 92.5206953,44.1447368 92.4974642,46.4634211 C92.096728,46.4807895 91.6988957,46.5010526 91.2981595,46.5213158 C91.2749284,44.1823684 91.2952556,41.8463158 91.3039673,39.5073684 L91.3039673,39.5073684 Z" id="Shape" fill="#696A6F" sketch:type="MSShapeGroup"></path>
            <path d="M98.842454,40.9084211 C99.7136196,39.1339474 102.614601,38.7315789 103.811002,40.37 C104.432434,41.1631579 104.426626,42.2110526 104.4818,43.1692105 C102.817873,43.2473684 101.153947,43.1663158 99.4929243,43.23 C99.6090798,44.2373684 100.096933,45.3171053 101.153947,45.6152632 C102.132556,45.7513158 103.119877,45.5805263 104.098487,45.5515789 C103.993947,46.6573684 102.797546,46.6747368 101.923476,46.6978947 C100.776442,46.7297368 99.5451943,46.2723684 98.917955,45.2707895 C98.1164826,43.9681579 98.1774642,42.2544737 98.842454,40.9084211 L98.842454,40.9084211 Z" id="Shape" fill="#6A6B6C" sketch:type="MSShapeGroup"></path>
            <path d="M106.816524,39.6144737 C107.734151,39.1889474 108.756319,39.4465789 109.702986,39.6260526 C109.694274,39.8373684 109.679755,40.26 109.671043,40.4742105 C108.747607,40.3439474 107.798037,40.2455263 106.906544,40.5813158 C106.953006,40.9721053 106.979141,41.3686842 107.080777,41.7507895 C107.940327,42.4686842 109.229652,42.6192105 109.871411,43.6034211 C110.167607,44.5181579 110.103722,45.7744737 109.157055,46.2897368 C108.007117,46.9613158 106.651002,46.64 105.454601,46.2984211 C105.533006,46.1102632 105.695624,45.7310526 105.774029,45.5428947 C106.584213,45.5197368 107.388589,45.7310526 108.198773,45.6297368 C108.828916,45.4126316 108.767935,44.6773684 108.863763,44.1447368 C108.050675,43.6468421 107.15047,43.2994737 106.380941,42.735 C105.332638,41.9678947 105.620123,40.0892105 106.816524,39.6144737 L106.816524,39.6144737 Z" id="Shape" fill="#6A6A69" sketch:type="MSShapeGroup"></path>
            <path d="M37.8753783,40.3642105 C38.9846626,40.0052632 40.1346012,40.755 40.4307975,41.8347368 C40.6689162,42.9521053 40.7066667,44.3184211 39.7977505,45.1607895 C38.9672393,46.0523684 37.274274,45.8323684 36.7893252,44.6802632 C36.0488344,43.2907895 36.2521063,41.0213158 37.8753783,40.3642105 L37.8753783,40.3642105 Z" id="Shape" fill="#FBFCF9" sketch:type="MSShapeGroup"></path>
            <path d="M49.5519018,40.4134211 C50.080409,40.2426316 50.6844172,40.205 51.2100204,40.4076316 C51.8895297,40.7926316 52.0173006,41.6407895 52.2699387,42.3094737 C50.9806135,42.3528947 49.6912883,42.3557895 48.4019632,42.3123684 C48.6923517,41.6436842 48.8462577,40.7897368 49.5519018,40.4134211 L49.5519018,40.4134211 Z" id="Shape" fill="#FAFAF8" sketch:type="MSShapeGroup"></path>
            <path d="M100.666094,40.4221053 C101.191697,40.2339474 101.78409,40.2310526 102.312597,40.4221053 C102.992106,40.7665789 103.122781,41.5944737 103.387035,42.2371053 C102.09771,42.3702632 100.799673,42.3471053 99.5074438,42.3094737 C99.780409,41.6292105 99.957546,40.7926316 100.666094,40.4221053 L100.666094,40.4221053 Z" id="Shape" fill="#F7FBFB" sketch:type="MSShapeGroup"></path>
            <path d="M67.1988139,43.7192105 C67.1930061,42.9 67.8667076,42.3471053 68.4068303,41.8289474 C69.376728,42.8710526 70.3640491,43.9044737 71.2003681,45.0594737 C70.4802045,45.4242105 69.7106748,45.815 68.8743558,45.6789474 C67.8928425,45.6528947 67.1146012,44.6686842 67.1988139,43.7192105 L67.1988139,43.7192105 Z" id="Shape" fill="#FBFBFA" sketch:type="MSShapeGroup"></path>
        </g>
    </g>
</svg>