<?xml version="1.0" encoding="UTF-8" standalone="no"?>
<svg width="132px" height="80px" viewBox="0 0 132 80" version="1.1" xmlns="http://www.w3.org/2000/svg" xmlns:xlink="http://www.w3.org/1999/xlink" xmlns:sketch="http://www.bohemiancoding.com/sketch/ns">
    <!-- Generator: Sketch 3.1.1 (8761) - http://www.bohemiancoding.com/sketch -->
    <title>dcl_default</title>
    <desc>Created with Sketch.</desc>
    <defs></defs>
    <g id="Clients" stroke="none" stroke-width="1" fill="none" fill-rule="evenodd" sketch:type="MSPage">
        <g sketch:type="MSArtboardGroup" transform="translate(-239.000000, -997.000000)" id="Group">
            <g sketch:type="MSLayerGroup" transform="translate(235.000000, 972.000000)">
                <g id="DC_Lottery" transform="translate(4.000000, 25.000000)" sketch:type="MSShapeGroup">
                    <g id="dcl_default">
                        <path d="M6.22,63.3979 C2.94425926,63.7229 -0.253055556,66.5348 0.0139814815,69.2349 C0.121574074,70.3165 1.02703704,72.36205 3.88472222,72.07735 C5.00212963,71.96555 6.32888889,71.5125 6.33472222,71.1784 C6.33990741,70.8443 6.41638889,70.44975 6.48703704,70.13515 C6.60175926,69.59695 6.60824074,69.52935 6.59981481,69.4546 C6.59203704,69.37855 6.55898148,69.2921 6.4312963,69.3038 C6.32888889,69.3142 6.26018519,69.3987 6.2012037,69.5703 C5.98083333,70.19755 5.42601852,71.58985 3.96638889,71.7348 C2.55731481,71.87585 1.76009259,70.5518 1.63305556,69.26805 C1.34138889,66.3125 3.93657407,64.0349 6.07027778,63.8243 C6.64064815,63.7671 6.67564815,64.11095 6.6925,64.29035 C6.70740741,64.44115 6.67564815,65.15355 6.68990741,65.292 C6.70351852,65.4454 6.7637963,65.52925 6.9037963,65.5156 C7.06842593,65.49935 7.0762037,65.44735 7.1462037,64.99105 C7.17601852,64.76745 7.39638889,63.75735 7.37888889,63.57925 C7.34907407,63.2848 6.51166667,63.36995 6.22,63.3979 M12.9244444,65.36545 C11.8031481,65.42655 10.712963,66.76555 9.60851852,68.55565 L9.5812963,68.5199 L10.3201852,65.6612 C10.4796296,65.05085 10.9890741,63.13725 10.9864815,63.08655 C10.9838889,63.03715 10.967037,62.97215 10.852963,62.97865 C10.7894444,62.98255 10.665,63.0534 10.5405556,63.1236 C10.3571296,63.2367 9.71546296,63.4382 9.24296296,63.4512 L8.9487037,63.4538 C8.83462963,63.4603 8.56759259,63.47525 8.57990741,63.70535 C8.5837963,63.7827 8.62462963,63.8438 8.80416667,63.8334 C9.19953704,63.81325 9.36416667,63.80415 9.38101852,64.0973 C9.41925926,64.7993 7.60833333,70.99705 7.62324074,71.2915 C7.63555556,71.5086 7.77490741,71.5008 8.18194444,71.47805 C8.73027778,71.4488 8.75490741,71.42215 8.88453704,70.99185 C9.50287037,68.9476 11.4097222,66.16365 12.3009259,66.11555 C12.4927778,66.10515 12.8259259,66.11295 12.8589815,66.7519 C12.9160185,67.79905 12.1071296,71.0354 11.4058333,71.0731 C10.9599074,71.09715 11.0396296,70.414 10.4407407,70.44585 C10.1983333,70.4595 9.86712963,70.72145 9.88333333,71.0146 C9.90018519,71.3344 10.2294444,71.52095 10.6377778,71.4995 C12.6502778,71.389 14.305,69.14585 14.2116667,66.9482 C14.1481481,65.5546 13.3444444,65.3427 12.9244444,65.36545 M21.5953704,69.1296 C21.5448148,69.1296 21.4942593,69.16795 21.4424074,69.244 C21.3037037,69.5131 20.6186111,70.4244 20.312037,70.4257 C20.2096296,70.4257 20.1837037,70.31 20.1837037,70.2086 C20.1811111,69.6587 21.6848148,65.45515 21.6848148,65.35245 C21.6835185,65.2127 21.5046296,65.2127 21.4164815,65.214 L20.9958333,65.2023 C20.6250926,65.2036 20.5486111,65.2543 20.4863889,65.43435 C20.4727778,65.48505 20.4222222,65.60075 20.3703704,65.60075 C20.3327778,65.60075 20.1675,65.5104 20.1675,65.5104 C20.0391667,65.43565 19.7708333,65.3466 19.4007407,65.3479 C17.6786111,65.3544 14.9563889,67.50135 14.9635185,69.9447 C14.9661111,70.661 15.3135185,71.27395 16.0284259,71.27265 C17.2015741,71.26615 18.3319444,69.7913 19.2335185,68.61025 C19.3475926,68.4692 19.4746296,68.29045 19.5251852,68.2001 L19.5511111,68.22545 C19.5381481,68.27745 19.4759259,68.4822 19.45,68.54655 L19.1972222,69.31355 C19.0844444,69.64895 18.8562963,70.38995 18.8575926,70.71105 C18.8601852,71.24795 19.2296296,71.24665 19.3696296,71.24535 C20.5064815,71.24145 21.712037,69.56185 21.7107407,69.24205 C21.7107407,69.179 21.6588889,69.1296 21.5953704,69.1296 M16.79,70.375 C16.2915741,70.3763 16.2902778,69.8771 16.2896296,69.71135 C16.2857407,68.5329 17.7933333,65.66185 19.4785185,65.65665 C19.6314815,65.65535 20.1934259,65.6937 20.1940741,66.20395 C20.197963,67.1887 17.7466667,70.3711 16.79,70.375 M27.3885185,65.53445 C26.3825926,65.47725 25.1783333,67.5618 25.0927778,67.7243 L24.6805556,68.4692 C24.6092593,68.60505 24.4809259,68.82865 24.3940741,69.0165 L24.3694444,68.98855 C24.5178704,68.65185 25.2768519,66.735 25.3118519,66.0954 C25.3416667,65.58515 25.185463,65.40835 24.9048148,65.3934 C23.9494444,65.3388 22.6298148,66.99565 22.612963,67.2758 C22.6077778,67.3785 22.6946296,67.42075 22.7341667,67.42205 C22.8352778,67.42985 23.0025,67.1822 23.1139815,67.03465 C23.4315741,66.60435 23.9176852,66.1448 24.0836111,66.1539 C24.2106481,66.1604 24.2015741,66.3268 24.1989815,66.3658 C24.1652778,66.9534 22.6097222,70.7624 22.5993519,70.95415 C22.5883333,71.1316 22.639537,71.1355 23.1373148,71.16345 C23.4302778,71.1797 23.6078704,71.1888 23.6778704,71.0913 C23.8288889,70.882 25.8997222,66.3333 26.7034259,66.3788 C26.7539815,66.3814 26.8272222,66.4243 26.8200926,66.57835 L26.7941667,66.79545 C26.7766667,67.12695 27.0897222,67.22185 27.2426852,67.23095 C27.7521296,67.2589 27.9906481,66.64465 28.0113889,66.2878 C28.037963,65.80095 27.732037,65.5533 27.3885185,65.53445 M32.3727778,64.5822 C32.3863889,64.4678 32.4518519,63.9348 31.9313889,63.8711 C31.4757407,63.8165 31.0563889,64.3079 31.004537,64.7395 C30.9734259,64.99365 31.0414815,65.4012 31.4582407,65.4519 C31.9022222,65.5052 32.3183333,65.04045 32.3727778,64.5822 M31.0635185,65.95695 C29.9240741,65.8198 28.4437037,67.1224 28.4138889,67.36355 C28.4048148,67.4409 28.4605556,67.5124 28.5240741,67.51825 C28.55,67.52215 29.7153704,66.59395 29.9811111,66.6258 C30.0822222,66.6375 30.0712037,66.7389 30.0666667,66.76425 C30.0517593,66.9053 29.9402778,67.0717 29.7944444,67.3252 C29.2610185,68.2391 28.1183333,70.2541 28.0230556,71.0549 C27.9763889,71.4358 28.0775,71.66525 28.4949074,71.7179 C29.4321296,71.831 31.0427778,70.4153 31.0810185,70.0968 C31.0900926,70.02075 31.0213889,69.9473 30.9578704,69.9408 C30.8943519,69.933 30.8353704,70.0019 30.8055556,70.0383 C30.6707407,70.2021 29.8022222,71.012 29.4969444,70.97365 C29.4224074,70.96455 29.3919444,70.8846 29.4016667,70.80855 C29.482037,70.14685 31.3266667,67.2004 31.4096296,66.5153 C31.4316667,66.3242 31.4446296,66.00375 31.0635185,65.95695 M33.6742593,70.34315 C34.6257407,68.5784 34.6477778,68.5303 35.3361111,67.29855 L36.5248148,67.5371 C36.6499074,67.56245 36.8715741,67.55335 36.919537,67.3161 C36.9247222,67.29205 36.9441667,67.19065 36.8443519,67.17115 L35.5428704,66.90855 C35.5785185,66.86435 35.6232407,66.7675 35.6439815,66.73435 L35.8967593,66.31445 C35.974537,66.1864 36.2519444,65.70735 36.2726852,65.60725 C36.3025,65.45645 36.1897222,65.43435 36.0263889,65.40055 C35.8513889,65.3661 35.3484259,65.27835 35.2012963,65.30045 C35.0392593,65.3336 34.4876852,66.4633 34.3431481,66.6687 L33.742963,66.5465 C33.4046296,66.4789 33.1667593,66.4308 33.1038889,66.74475 C33.0844444,66.84615 33.2218519,66.8728 33.3475926,66.89815 L34.1357407,67.05675 C33.4811111,68.178 32.6657407,69.59305 32.2794444,70.41595 C32.1692593,70.64215 31.9897222,71.02305 31.914537,71.40005 C31.809537,71.9272 32.019537,72.1768 32.282037,72.2301 C33.3074074,72.4355 34.9880556,71.12965 35.0625926,70.75265 C35.0749074,70.69025 35.0275926,70.60315 34.9524074,70.58755 C34.8901852,70.57585 34.815,70.6259 34.7618519,70.69285 C34.2692593,71.2057 33.5284259,71.5918 33.3281481,71.55345 C33.252963,71.5372 33.1907407,71.4592 33.2231481,71.2967 C33.2607407,71.11015 33.5537037,70.55505 33.6742593,70.34315 M42.2466667,72.6071 C42.1980556,72.5941 42.1377778,72.6188 42.0697222,72.68055 C41.8662037,72.90285 40.9665741,73.60355 40.6710185,73.5249 C40.5725,73.49955 40.5776852,73.37995 40.6036111,73.28245 C40.7436111,72.75075 43.2856481,69.0841 43.3115741,68.9853 C43.3478704,68.84945 43.1741667,68.80395 43.0886111,68.7812 L42.6841667,68.6603 C42.327037,68.5654 42.2388889,68.594 42.1325926,68.75195 C42.1066667,68.79745 42.0275926,68.8969 41.9783333,68.8826 C41.9407407,68.8722 41.8033333,68.74415 41.8033333,68.74415 C41.6996296,68.63625 41.4637037,68.48025 41.1059259,68.3847 C39.4421296,67.9427 36.2571296,69.3051 35.6316667,71.66785 C35.4482407,72.36075 35.6238889,73.0426 36.315463,73.22655 C37.4497222,73.5275 38.922963,72.3978 40.1006481,71.49365 C40.2471296,71.38705 40.4156481,71.246 40.4882407,71.17385 L40.5063889,71.2044 C40.480463,71.2499 40.3676852,71.4332 40.3262037,71.4891 L39.8828704,72.16445 C39.6871296,72.455 39.2749074,73.1154 39.1932407,73.42285 C39.0558333,73.9435 39.4136111,74.0384 39.5503704,74.07415 C40.6463889,74.3673 42.2473148,73.0582 42.3289815,72.7488 C42.3451852,72.68705 42.3088889,72.62465 42.2466667,72.6071 M37.2831481,72.55705 C36.8022222,72.4303 36.9305556,71.9467 36.972037,71.78485 C37.2740741,70.64735 39.4738889,68.26835 41.102037,68.70125 C41.250463,68.7409 41.7825926,68.92225 41.6516667,69.41625 C41.4001852,70.3698 38.2087037,72.8034 37.2831481,72.55705 M48.7501852,69.9954 C47.7131481,69.7757 46.4557407,70.856 45.1892593,71.97465 L45.170463,71.9428 C45.4686111,71.4566 47.7669444,67.5501 47.7928704,67.42595 C47.8136111,67.32585 47.7747222,67.26475 47.6878704,67.2459 C47.6373148,67.2355 47.5699074,67.2472 47.4986111,67.27255 C46.9865741,67.4123 46.4317593,67.45 45.8931481,67.33625 C45.520463,67.2576 45.245,67.1978 45.1976852,67.4253 C45.1691667,67.56245 45.3065741,67.5917 45.3798148,67.60665 C45.3934259,67.61055 45.722037,67.65345 45.7855556,67.66775 C45.9599074,67.7048 46.0389815,67.82505 46.0052778,67.98885 C45.967037,68.16305 45.7324074,68.59725 45.625463,68.79615 L44.1762037,71.34155 C43.8339815,71.9753 43.3997222,72.7332 43.2700926,73.34485 C42.9875,74.6858 44.1087963,75.18435 44.6837037,75.30655 C46.754537,75.74595 49.422963,74.4167 49.8714815,72.2873 C50.1151852,71.1225 49.5733333,70.1696 48.7501852,69.9954 M48.6711111,71.6659 C48.3839815,73.0309 46.3662963,75.2968 44.6312037,74.9289 C44.5313889,74.90745 43.9402778,74.74365 44.0776852,74.09235 C44.339537,72.85215 46.920463,70.3269 48.2050926,70.5999 C48.7164815,70.7078 48.7605556,71.2408 48.6711111,71.6659 M52.7207407,74.7651 C52.6714815,74.756 52.6390741,74.78785 52.5930556,74.8327 C52.3655556,75.07645 51.4886111,75.82395 51.1749074,75.7674 C51.0737963,75.74855 51.0530556,75.6517 51.0699074,75.56525 C51.120463,75.28835 51.7575926,74.15735 51.9526852,73.8031 L54.655463,68.94435 C54.7163889,68.82475 54.7306481,68.8137 54.7397222,68.7643 C54.7591667,68.6629 54.6528704,68.6044 54.6023148,68.5953 C54.5647222,68.5888 54.5375,68.5966 54.2834259,68.6395 C53.5672222,68.7929 53.0156481,68.6902 52.8393519,68.65705 C52.4880556,68.59205 52.275463,68.55175 52.2346296,68.76625 C52.2112963,68.893 52.2618519,68.9021 52.6857407,68.99505 C52.7362963,69.00415 53.0694444,69.08995 53.0188889,69.36815 C52.9955556,69.4936 52.932037,69.6249 52.7959259,69.8732 L50.5753704,73.80635 C50.3478704,74.19245 49.8416667,75.1798 49.76,75.6205 C49.6796296,76.0599 49.842963,76.36475 50.2318519,76.4369 C51.1107407,76.5994 52.7661111,75.2942 52.8367593,74.9172 C52.8503704,74.84115 52.7842593,74.77615 52.7207407,74.7651 M58.0757407,71.6763 C56.7288889,71.4553 54.1090741,72.45045 53.7046296,74.9263 C53.4771296,76.31535 54.3197222,77.16555 55.2647222,77.3222 C56.6375,77.5471 58.1288889,76.2497 58.1638889,76.0339 C58.1742593,75.9715 58.16,75.90585 58.0848148,75.89285 C58.0212963,75.88245 57.9921296,75.90325 57.67,76.134 C56.7502778,76.7749 56.1267593,76.71185 55.9005556,76.6748 C55.662037,76.63515 54.8622222,76.38815 55.0644444,75.1486 C55.0761111,75.07515 55.0916667,74.9848 55.1525926,74.7612 L56.7094444,74.73195 C57.2396296,74.72805 59.21,74.62405 59.432963,73.26035 C59.5768519,72.377 58.7796296,71.792 58.0757407,71.6763 M58.3155556,72.74165 C58.0381481,74.43295 56.1442593,74.47195 55.2588889,74.43035 C55.7968519,73.04 56.8948148,71.78095 57.8255556,71.93435 C58.4309259,72.03445 58.3337037,72.62725 58.3155556,72.74165 M72.7005556,71.25835 C72.2436111,71.09585 71.6077778,71.03085 71.4943519,71.0198 C68.5368519,70.71365 64.2201852,72.03315 63.8805556,75.3553 C63.7736111,76.39855 64.1015741,78.7093 67.6028704,79.07005 C68.2127778,79.13245 68.8939815,79.11165 69.4792593,79.05705 C69.9297222,79.0265 69.9323148,79.01285 70.0716667,78.6547 C70.0865741,78.63065 70.0891667,78.6053 70.1034259,78.5936 L70.9907407,76.4343 C71.1819444,75.952 71.4049074,75.8974 71.8112963,75.9403 C71.9253704,75.952 72.2442593,75.97085 72.2682407,75.74205 C72.2818519,75.58995 72.0569444,75.5542 71.9785185,75.5451 C71.867037,75.5321 70.9797222,75.5451 70.3711111,75.4814 C69.5200926,75.39495 69.1253704,75.2513 68.9989815,75.23765 C68.9594444,75.23375 68.6548148,75.2019 68.6353704,75.40665 C68.6165741,75.57175 68.9199074,75.61595 68.9834259,75.62245 C69.5278704,75.7037 69.617963,75.8155 69.5985185,75.99425 C69.5855556,76.134 69.5375926,76.3472 69.487037,76.459 L68.7351852,78.28615 C68.5653704,78.6924 68.5148148,78.81525 67.7415741,78.7353 C66.1678704,78.5728 65.2980556,77.0427 65.4516667,75.55355 C65.7057407,73.07185 68.5381481,71.0861 71.2798148,71.36885 C71.6466667,71.4072 71.9940741,71.53265 71.9558333,71.90055 C71.9409259,72.05395 71.7711111,72.70525 71.7581481,72.81965 C71.735463,73.04975 71.7237963,73.1635 71.915,73.183 C72.1165741,73.20445 72.2176852,72.9711 72.3531481,72.66235 C72.3531481,72.64935 72.9053704,71.52225 72.9086111,71.4865 C72.9157407,71.4111 72.8969444,71.33245 72.7005556,71.25835 M80.2009259,76.46095 C80.1503704,76.47005 80.1062963,76.51425 80.0693519,76.5994 C79.9734259,76.88735 79.44,77.8955 79.1366667,77.9449 C79.0368519,77.96115 78.9934259,77.85065 78.9759259,77.74925 C78.8871296,77.20715 79.7115741,72.81965 79.6947222,72.71825 C79.672037,72.5811 79.4957407,72.60775 79.4075926,72.624 L78.9908333,72.6786 C78.6239815,72.7384 78.5578704,72.8008 78.5235185,72.98865 C78.5196296,73.04065 78.4865741,73.16155 78.4360185,73.1713 C78.3977778,73.1778 78.2208333,73.1167 78.2208333,73.1167 C78.0814815,73.0608 77.8027778,73.0166 77.4385185,73.0751 C75.7397222,73.3559 73.3875926,75.9052 73.7810185,78.3167 C73.8950926,79.0239 74.334537,79.5751 75.0403704,79.4594 C76.1973148,79.26765 77.0807407,77.63225 77.7859259,76.3251 C77.8773148,76.1678 77.974537,75.96955 78.0101852,75.87205 L78.0393519,75.8935 C78.035463,75.9468 78.005,76.16 77.9900926,76.2276 L77.8611111,77.02645 C77.8027778,77.3729 77.6938889,78.1425 77.747037,78.4584 C77.8332407,78.9875 78.1987963,78.92965 78.3368519,78.9056 C79.4575,78.72295 80.385,76.87175 80.3318519,76.55715 C80.3227778,76.4928 80.2644444,76.4512 80.2009259,76.46095 M75.6515741,78.4519 C75.1602778,78.53185 75.0805556,78.04045 75.0539815,77.87405 C74.8640741,76.7125 75.9024074,73.63865 77.5642593,73.36565 C77.7146296,73.3416 78.2746296,73.2883 78.3582407,73.79335 C78.5150926,74.7664 76.5959259,78.2959 75.6515741,78.4519 M91.5636111,74.2282 C91.5130556,74.2399 91.4748148,74.30035 91.4508333,74.37315 C91.1961111,74.97115 90.6976852,75.7037 90.4876852,75.7531 C90.3865741,75.77585 90.3055556,75.7024 90.2802778,75.5906 C90.1875926,75.19345 90.8649074,71.94735 90.7106481,71.27525 C90.5803704,70.713 90.1156481,70.51995 89.5938889,70.6402 C88.2269444,70.9587 87.6293519,72.61945 87.1782407,73.90775 C87.0972222,74.12225 86.9578704,74.4843 86.9539815,74.5766 L86.9222222,74.55775 C87.0259259,73.63995 87.1186111,72.7397 86.9701852,72.104 C86.802963,71.38185 86.2118519,71.42475 85.9525926,71.48845 C84.7839815,71.75885 83.9271296,74.0059 83.4941667,75.25 L83.4637037,75.23115 L83.4384259,75.23635 C83.5168519,74.4427 83.6575,73.00685 83.5499074,72.5447 C83.522037,72.42055 83.4157407,72.07605 83.0437037,72.1625 C81.9625926,72.41535 81.0597222,74.29125 81.0992593,74.46675 C81.1141667,74.52915 81.1815741,74.5922 81.2690741,74.57205 C81.3928704,74.5428 82.1019444,73.131 82.3884259,73.06405 C82.4746296,73.0439 82.4947222,73.1323 82.4999074,73.157 C82.6275926,73.7043 82.0364815,78.00665 82.1,78.28095 C82.1278704,78.4051 82.1661111,78.39665 82.5757407,78.2998 C83.172037,78.16265 83.1908333,78.1308 83.2822222,77.50615 C83.7281481,74.4999 84.9939815,72.3796 85.552037,72.25025 C85.7886111,72.19565 85.8573148,72.442 85.8722222,72.5031 C86.0478704,73.2636 85.4859259,77.34885 85.5086111,77.44895 C85.5403704,77.5848 85.5468519,77.61015 86.1684259,77.4652 C86.5897222,77.3677 86.6519444,77.3521 86.7277778,76.94065 L86.8567593,76.3082 C87.2313889,74.3023 88.2087963,71.56515 89.1427778,71.34935 C89.3527778,71.29995 89.4668519,71.45725 89.5050926,71.61975 C89.5861111,71.9675 89.4389815,72.80405 89.3508333,73.2194 C89.2302778,73.94155 88.9126852,75.68485 89.0624074,76.33225 C89.1965741,76.9075 89.5232407,76.8568 89.7235185,76.81065 C90.8428704,76.54935 91.799537,74.63315 91.7314815,74.3322 C91.7107407,74.24575 91.624537,74.2139 91.5636111,74.2282 M97.5589815,71.41825 C97.5032407,71.4488 97.4915741,71.48325 97.3755556,71.86285 C97.0275,72.9295 96.4934259,73.2571 96.2905556,73.365 C96.0753704,73.4781 95.290463,73.76475 94.7058333,72.6565 C94.6688889,72.58825 94.6274074,72.50765 94.5437963,72.29185 L95.7655556,71.32725 C96.1868519,71.00355 97.6950926,69.7276 97.0501852,68.50495 C96.6321296,67.7139 95.6462963,67.7295 95.0143519,68.06425 C93.8068519,68.70255 92.3180556,71.0835 93.4866667,73.3 C94.1412963,74.5454 95.3274074,74.7144 96.1719444,74.2659 C97.4047222,73.6146 97.8111111,71.6763 97.71,71.48325 C97.6808333,71.42735 97.6276852,71.38315 97.5589815,71.41825 M94.9715741,68.4198 C95.5134259,68.13315 95.7921296,68.66485 95.8452778,68.76625 C96.6450926,70.28335 95.1575926,71.4605 94.4271296,71.96295 C94.0194444,70.5297 94.1361111,68.8618 94.9715741,68.4198 M102.630741,67.1744 C102.268426,66.81365 101.828333,66.76945 101.18537,66.76295 C99.7153704,66.75905 99.1015741,66.6908 98.8131481,66.4009 C98.4787037,66.0668 98.7917593,65.67745 98.8559259,65.61375 C99.2687963,65.1958 99.8812963,65.19385 100.16,65.2023 C100.430926,65.1997 100.747222,65.2101 100.927407,65.0268 C101.152963,64.7993 100.815926,64.33975 100.664259,64.18635 C100.337593,63.86135 99.6719444,64.1532 99.0587963,64.77135 C97.9712037,65.8692 98.1837963,67.2355 98.6906481,67.73925 C98.9998148,68.0467 99.5325926,68.12665 100.560556,68.1403 C101.51787,68.1364 101.878241,68.17085 102.158241,68.45165 C102.402593,68.6941 102.586019,69.2362 102.25287,69.5729 C102.090833,69.7354 101.81213,69.87255 101.036296,69.76725 C100.385556,69.6795 100.11463,69.64505 99.9260185,69.83485 C99.7108333,70.05325 99.9726852,70.49525 100.117222,70.63955 C100.896944,71.4137 102.029907,70.30675 102.201019,70.1345 C103.126574,69.19915 103.291204,67.8322 102.630741,67.1744" id="Shape" fill="#F3F1EF"></path>
                        <path d="M64.2396296,24.37385 C64.0516667,25.6901 64.2772222,27.19615 65.627963,27.9105 C67.3163889,28.70155 69.417037,28.1744 70.7677778,27.00635 C72.5326852,25.4652 73.6209259,23.05565 72.8703704,20.7605 C72.2338889,19.2551 70.4689815,19.0302 69.0437037,19.2928 C66.7155556,19.81995 64.5766667,22.002 64.2396296,24.37385 L64.2396296,24.37385 Z M83.3392593,29.0402 C90.3574074,29.94435 96.7008333,26.29265 100.37713,20.45955 C99.5137963,19.6321 98.5389815,18.99055 97.5998148,18.24045 L97.4494444,18.2021 C96.060463,19.8947 94.3746296,21.664 92.4956481,22.71765 C90.5460185,23.80835 87.7674074,24.5994 85.6291667,23.46905 C83.4533333,22.1528 83.6769444,19.3305 83.9407407,17.1101 C84.8773148,13.11975 86.4549074,9.2438 89.7196296,6.34675 C90.1687963,6.0445 90.5816667,5.63175 91.1086111,5.48095 C92.0834259,4.803 93.6227778,4.5404 94.7862037,5.0656 C95.0117593,5.25475 95.3118519,5.51865 95.237963,5.85665 C94.2605556,7.36205 93.1716667,8.8668 93.3972222,10.7492 C93.4730556,11.7268 94.3363889,12.7057 95.237963,13.04565 C95.9496296,13.19515 96.7014815,13.3453 97.4876852,13.15745 C97.7877778,12.9696 98.2382407,13.0814 98.4255556,12.7057 C98.6511111,12.8565 98.9142593,12.5926 99.1398148,12.4795 C101.428426,11.20095 102.590556,8.6796 102.141389,6.12055 C101.765463,3.711 99.3271296,1.90595 97.15,1.30405 C96.7753704,1.15325 96.4007407,1.1149 96.0248148,0.92705 C88.8569444,-0.4659 82.3287963,2.8088 78.2007407,8.6055 C75.4992593,12.70635 73.6222222,17.8251 75.0850926,22.98025 C76.0210185,26.63065 79.9630556,28.5514 83.3392593,29.0402 L83.3392593,29.0402 Z M99.0250926,24.8256 C98.725,26.14185 98.9136111,27.6479 100.0025,28.47535 C101.503611,29.45425 103.716389,29.0025 105.10537,28.0236 C107.169074,26.5182 108.221019,24.03455 107.543704,21.43845 C106.832037,19.96945 105.10537,19.70815 103.641852,20.0455 C101.427778,20.5356 99.5137963,22.6429 99.0250926,24.8256 L99.0250926,24.8256 Z M73.0589815,46.7644 C76.2096296,46.31395 79.4380556,45.93825 82.0267593,44.12995 C84.1280556,42.8137 85.3284259,40.5179 84.8040741,38.07325 C84.6912963,37.394 84.0911111,36.9052 83.6024074,36.3787 C80.1503704,34.08355 75.0837963,35.09885 71.8203704,37.16975 C67.6164815,39.99205 64.6512037,44.54595 65.1762037,49.7011 C65.3265741,51.73235 66.9035185,53.4269 68.7034259,54.17895 C73.5075,56.02365 78.6862037,54.1055 82.2134259,50.7918 C82.7021296,50.303 83.3386111,49.77585 83.714537,49.2123 C83.0767593,48.4973 82.6269444,47.66855 81.9496296,46.9906 L81.8005556,46.95355 C80.7116667,47.93245 79.5877778,48.94775 78.3472222,49.588 C76.959537,50.1899 75.0837963,51.01865 73.6202778,50.03975 C72.4950926,49.3618 72.7187037,47.96885 72.9442593,46.8775 L73.0589815,46.7644 L73.0589815,46.7644 Z M77.6362037,38.8617 C77.8993519,38.82465 78.0490741,38.9748 78.1994444,39.1256 C78.5740741,39.7275 78.3478704,40.55495 77.9725926,41.0821 C76.9219444,42.3249 75.5712037,42.9645 74.0707407,43.3025 C74.7461111,41.6099 75.7222222,39.53965 77.6362037,38.8617 L77.6362037,38.8617 Z M35.5318519,34.8356 C30.3900926,33.55575 25.6242593,35.39915 22.285,39.31475 C19.9212037,42.4367 18.3442593,46.5395 19.5459259,50.4915 C20.2212963,52.26015 22.097037,53.4269 23.7861111,53.87735 C29.0024074,55.2703 34.1428704,53.23905 37.3330556,48.9861 C39.4343519,45.7868 41.2725,41.53515 39.3974074,37.69625 C38.6092593,36.1902 37.032963,35.2867 35.5318519,34.8356 L35.5318519,34.8356 Z M32.492037,42.4367 C31.8549074,44.35745 31.3662037,46.42705 30.0524074,48.04555 C29.6777778,48.76055 29.0393519,49.4372 28.327037,49.8506 C27.8383333,50.0768 27.2757407,50.03975 26.8259259,49.81355 C26.1505556,49.21165 26.4882407,48.158 26.6003704,47.4053 C27.3885185,44.39385 28.2518519,41.3837 30.6525926,39.08725 C31.179537,38.71155 32.3040741,38.48535 32.7551852,39.1633 C33.1674074,40.254 32.7175926,41.3837 32.492037,42.4367 L32.492037,42.4367 Z M130.584722,22.07675 L129.797222,20.94965 C127.695926,17.97655 123.792778,17.4104 120.491759,18.2775 C118.127315,18.84235 115.688981,20.94965 115.313056,23.432 C115.088796,24.4109 115.011667,25.57765 115.388889,26.48115 C115.763519,28.09965 117.301574,29.6044 118.990648,29.79355 C120.717315,30.05745 122.25537,29.3782 123.230185,27.9859 C124.319074,26.6313 124.769537,24.60005 123.867963,23.01925 C123.793426,22.79305 123.829722,22.64355 124.018333,22.4921 C124.581574,22.2659 125.22,22.41735 125.745,22.56555 C127.695926,23.8844 128.070556,26.25495 127.81,28.5514 C127.508611,32.57685 124.731296,35.8145 121.616944,38.4106 C118.689907,40.81885 115.499722,42.88975 112.798889,45.63535 C112.535741,45.3357 112.573333,44.88265 112.348426,44.54465 C111.824074,42.69995 111.485093,40.74345 111.260833,38.7876 C111.672407,38.33455 112.235648,37.99655 112.798889,37.8087 C112.986204,37.39335 113.211759,37.01765 113.249352,36.5672 C113.249352,36.26495 113.211111,36.00105 112.947963,35.8145 C110.360556,35.8145 107.770556,35.6637 105.180556,35.62535 C104.618611,35.73975 103.942593,35.4375 103.529722,35.88925 C103.079259,36.37805 102.779167,37.01765 103.004074,37.6956 C103.453241,37.77035 103.941944,38.10835 104.1675,38.52305 C104.767685,40.63035 105.369167,42.73765 105.932407,44.8456 C106.305741,46.3133 106.269444,48.11965 105.818333,49.5126 C105.555185,51.39435 103.228333,51.9592 102.666389,53.65245 C102.554907,54.02815 102.479074,54.51695 102.70463,54.8192 L112.761296,54.931 L112.874074,54.89395 C113.09963,54.4435 113.324537,53.9911 113.399722,53.4646 C113.625278,52.8614 113.212407,52.3726 112.761944,51.92085 C112.461852,50.5292 113.437963,49.5126 114.113981,48.4206 C118.166204,41.94725 126.008796,39.916 130.024074,33.44265 C132.124074,30.32005 132.385926,25.4275 130.584722,22.07675 L130.584722,22.07675 Z M52.4562963,52.37325 C52.6812037,53.3138 53.4330556,54.0665 54.3326852,54.36615 C55.9841667,54.7061 57.8223148,54.7815 59.4737963,54.36615 C61.6502778,53.8026 63.7152778,52.6729 65.2909259,50.94195 C64.8411111,50.0014 64.4275926,49.05955 63.9019444,48.1957 C62.9640741,48.75925 62.0637963,49.4359 60.9373148,49.58735 C60.6378704,49.5503 60.3001852,49.5126 60.1122222,49.21165 C59.9631481,48.7599 60.1122222,48.3088 60.225,47.8941 L63.002963,39.2387 L63.1144444,39.1256 C64.4275926,39.1256 65.8535185,39.16395 67.1686111,39.08725 L68.1816667,35.4375 L68.1058333,35.39915 C66.905463,35.39915 65.5540741,35.4375 64.3543519,35.28605 C64.8041667,33.5187 65.3291667,31.7871 65.8535185,30.0178 L65.8535185,29.82995 L61.5005556,29.71685 L61.2393519,29.7929 C60.8251852,31.33535 60.0000926,32.7283 58.7990741,33.89505 C56.8481481,35.73975 53.8459259,35.09885 51.3317593,35.09885 L51.2565741,35.0241 C51.7452778,33.21775 52.2702778,31.41205 52.7576852,29.6044 C51.2565741,29.52965 49.83,29.52965 48.2925926,29.52965 L48.1428704,29.6044 C47.8797222,30.39545 47.6159259,31.1852 47.1667593,31.90085 C46.19,33.89505 44.0511111,34.98705 41.9880556,35.32505 C41.6497222,36.4918 41.1999074,37.6202 41.0119444,38.78825 C41.6134259,38.8617 42.2887963,38.8253 42.8889815,38.90005 L42.9641667,38.9748 C42.1760185,41.53515 41.2750926,44.09355 40.4493519,46.6149 C39.9619444,48.27045 39.1737963,49.8142 39.2483333,51.6953 C39.2107407,52.7873 40.1116667,53.7649 41.0864815,54.1419 C45.2534259,55.08245 49.3056481,53.7649 52.1568519,50.8308 C52.1192593,50.64295 52.0071296,50.49215 51.9312963,50.30235 C51.5190741,49.55095 51.1807407,48.68515 50.6933333,48.0072 L49.492963,48.83465 C48.7793519,49.1746 47.8414815,49.6621 47.0909259,49.1369 C46.9405556,48.94775 46.902963,48.72155 46.9405556,48.4973 C47.9166667,45.298 48.8538889,42.13705 49.9064815,39.0125 L51.7822222,38.93775 C53.2081481,39.0125 54.7099074,38.8994 56.0606481,39.1256 C55.460463,41.346 54.6716667,43.49165 53.9593519,45.6737 C53.3935185,47.8941 52.0803704,49.92535 52.4562963,52.37325 L52.4562963,52.37325 Z M102.554259,36.9052 C102.065556,35.7768 100.90213,35.24965 99.7011111,35.3244 C97.862963,35.39915 96.3994444,36.341 95.0111111,37.4317 C95.0493519,36.90455 95.237963,36.37805 95.3857407,35.8145 L95.3112037,35.73975 L93.6986111,35.73975 C91.4462963,36.71735 89.0073148,37.0183 86.4549074,37.2822 C86.0044444,38.5237 85.5546296,39.7275 85.254537,41.008 C85.9292593,41.1575 86.7180556,41.08145 87.2041667,41.6463 C87.3927778,41.94725 87.2041667,42.32425 87.2041667,42.66225 C85.892963,46.5772 84.4657407,50.4915 83.1532407,54.4435 L83.1901852,54.48055 C85.5546296,54.59365 87.8814815,54.59365 90.207037,54.5553 C90.3943519,54.1783 90.5084259,53.76425 90.6212037,53.3502 C91.9337037,49.47425 93.1723148,45.5606 94.2605556,41.60925 C94.5606481,40.85655 94.7862037,40.0655 95.2736111,39.38885 C95.6112963,39.0866 95.9865741,38.78695 96.4000926,38.8604 C96.4000926,39.68915 95.9859259,40.592 96.3618519,41.38305 C97.1124074,42.51275 98.764537,42.3236 99.8884259,42.0597 C100.077037,41.76005 100.526204,41.9466 100.751759,41.6827 C102.215278,40.631 103.041667,38.71155 102.554259,36.9052 L102.554259,36.9052 Z M97.6380556,48.873 C97.3010185,49.0979 96.8492593,49.28705 96.625,49.6257 C96.962037,52.3349 95.272963,54.74315 92.9474074,56.09775 C84.4657407,60.2376 73.5826852,59.2223 63.8637037,58.6191 C58.6474074,58.1303 53.5438889,57.3776 48.3651852,56.8888 L39.5088889,55.8722 C31.2540741,55.19555 22.4353704,54.85755 14.292037,55.91055 C14.1423148,55.9489 13.8785185,55.9489 13.8046296,55.79745 C14.7049074,54.8946 15.4172222,53.80325 15.6051852,52.5234 L18.6443519,42.62585 L21.3464815,33.7813 L21.4962037,33.52 C21.834537,32.051 22.359537,30.6964 22.9221296,29.3054 C23.6350926,27.87475 25.1737963,27.3476 26.6749074,27.27155 L35.4184259,27.3476 L42.8105556,27.42235 L52.0414815,27.4607 C58.3842593,27.1968 64.2383333,23.2461 67.2775,17.63725 C68.9659259,14.17535 70.0548148,9.84895 69.0787037,5.8586 C67.9152778,2.021 63.7872222,0.6651 60.1848148,0.40185 C54.707963,0.24975 49.8662963,0.175 44.3881481,0.175 C44.0874074,0.85295 43.7860185,1.56795 43.5624074,2.32065 C44.5009259,3.2235 45.1393519,4.465 44.9131481,5.8196 L40.0727778,19.06725 C39.772037,19.78355 39.5840741,20.53625 39.2094444,21.2129 C37.9701852,22.86845 36.32,24.22305 34.2938889,24.2978 L13.1655556,24.14895 L13.0164815,24.1847 C12.6405556,25.08885 12.3787037,26.0294 12.1155556,26.97125 C12.6781481,27.2709 13.5414815,27.12075 13.8785185,27.83575 C13.9912963,29.04085 13.5414815,30.1309 13.2407407,31.2229 L9.93907407,40.631 C9.48796296,41.9856 9.00055556,43.3402 8.47555556,44.65775 C7.76259259,46.9152 6.89925926,49.0589 6.1862963,51.27995 C5.21018519,53.65245 4.68583333,57.33925 1.41981481,57.6038 C0.97,58.4696 0.594074074,59.37375 0.143611111,60.23825 L0.143611111,60.4274 C2.62083333,60.2779 4.98592593,59.86255 7.42361111,59.6734 C16.0543519,58.8089 24.9106481,59.4121 33.2043519,60.5392 C40.1849074,61.93215 47.2387037,63.06185 54.2186111,64.3781 C59.5476852,65.31995 64.6881481,66.8247 70.1287037,67.463 C73.0933333,67.80295 76.0962037,67.6138 79.1749074,67.6892 C80.8257407,67.61445 82.3637963,67.38955 83.9400926,67.0873 C86.7543519,66.56145 89.4188889,65.5832 91.8948148,64.19025 C95.4596296,62.3085 98.6128704,58.99675 99.3990741,55.04475 C99.849537,52.93745 99.849537,50.5669 99.062037,48.60975 C98.5759259,48.6091 98.0872222,48.68515 97.6380556,48.873 L97.6380556,48.873 Z M48.477963,20.94965 L52.7933333,7.85345 C53.2068519,6.6477 53.4324074,5.14295 54.7455556,4.54105 C56.4709259,4.2024 58.4607407,4.465 59.5859259,5.9327 C60.9366667,8.22915 59.9987963,11.20225 59.4731481,13.5728 C58.4218519,17.59955 55.2712037,22.53045 50.5792593,22.9432 C49.7911111,22.9432 48.6283333,23.2071 48.1785185,22.3413 L48.477963,20.94965 L48.477963,20.94965 Z" id="Shape" fill="#F3F1EF"></path>
                        <path d="M39.8848148,3.33595 C40.3722222,3.44905 40.9348148,3.56215 41.2355556,4.08865 C41.7605556,4.9915 41.1603704,5.9704 40.8978704,6.8362 L37.8962963,15.26735 L36.32,19.7439 C35.7561111,20.8359 34.5933333,21.5886 33.4305556,21.7017 L20.3716667,21.7017 C18.982037,21.62695 17.5943519,21.8525 16.2805556,21.4755 C15.8683333,21.2493 15.5675926,20.91195 15.4548148,20.45955 C15.2305556,19.7829 15.6051852,19.25445 15.7555556,18.6909 L20.5965741,5.17935 C21.309537,3.82475 22.735463,3.18645 24.2741667,3.2612 L25.0992593,3.2612 L39.8848148,3.33595 L39.8848148,3.33595 Z" id="Shape" fill="#F3F1EF"></path>
                        <path d="M34.6685185,5.8196 C34.8940741,6.4605 34.9316667,7.13845 34.7812963,7.8151 L34.8188889,7.88985 C35.9816667,7.9282 37.1081481,8.3039 37.8217593,9.3205 C38.7965741,11.1639 37.9701852,13.2712 36.7322222,14.7389 C35.4942593,16.13185 33.917963,16.88325 32.1161111,16.9593 C31.8549074,17.5989 31.5535185,18.24045 31.0661111,18.76565 C29.2649074,20.7982 26.2639815,21.287 23.7109259,20.572 C22.81,20.1963 21.9842593,19.3305 21.9090741,18.3516 C21.9090741,17.89985 21.9842593,17.374 22.0594444,16.95865 C21.1961111,16.80915 20.3716667,16.62065 19.6962963,16.0558 C18.645,15.15295 18.4576852,13.7223 18.8712037,12.3677 C19.6593519,9.9211 22.1352778,8.04 24.7628704,7.9269 C25.0623148,7.4368 25.2502778,6.9103 25.6249074,6.4592 C27.5019444,4.3506 30.5793519,3.5238 33.2808333,4.5014 C33.8427778,4.7289 34.442963,5.29245 34.6685185,5.8196" id="Shape" fill="#FFFFFF"></path>
                        <path d="M30.4283333,9.96075 C30.5780556,10.22465 30.615,10.56265 30.615,10.8636 C31.1037037,10.93835 31.7038889,11.1262 31.8542593,11.69105 C32.0422222,12.32935 31.7408333,12.93385 31.3286111,13.3843 C30.8399074,13.83475 30.3155556,14.0993 29.6771296,14.137 C29.3387963,14.96445 28.4767593,15.56635 27.6510185,15.67945 C27.2375,15.67945 26.7876852,15.67945 26.4493519,15.3798 C26.0753704,15.07755 26.0001852,14.54975 26.0753704,14.09865 C25.6994444,14.0239 25.2865741,13.87375 25.0616667,13.5351 C24.8367593,13.19645 24.8737037,12.6693 25.0240741,12.2936 C25.3617593,11.46485 26.2257407,11.01245 27.0501852,10.89935 C27.4261111,10.18565 28.1390741,9.43295 29.0393519,9.3582 C29.6025926,9.3205 30.1275926,9.4336 30.4283333,9.96075" id="Shape" fill="#F3F1EF"></path>
                    </g>
                </g>
            </g>
        </g>
    </g>
</svg>