<?xml version="1.0" encoding="UTF-8" standalone="no"?>
<svg width="143px" height="69px" viewBox="0 0 143 69" version="1.1" xmlns="http://www.w3.org/2000/svg" xmlns:xlink="http://www.w3.org/1999/xlink" xmlns:sketch="http://www.bohemiancoding.com/sketch/ns">
    <!-- Generator: Sketch 3.1.1 (8761) - http://www.bohemiancoding.com/sketch -->
    <title>ifc_default</title>
    <desc>Created with Sketch.</desc>
    <defs></defs>
    <g id="Clients" stroke="none" stroke-width="1" fill="none" fill-rule="evenodd" sketch:type="MSPage">
        <g sketch:type="MSArtboardGroup" transform="translate(-648.000000, -1814.000000)" id="Group" fill="#F3F1EF">
            <g sketch:type="MSLayerGroup" transform="translate(235.000000, 972.000000)">
                <g id="IFC" transform="translate(414.000000, 841.000000)" sketch:type="MSShapeGroup">
                    <g id="ifc_default" transform="translate(0.000000, 2.000000)">
                        <g id="layer1" transform="translate(0.000000, -0.023015)">
                            <g id="g18201" transform="translate(0.163595, 0.210290)">
                                <g id="g9891" transform="translate(11.821492, 34.100387) scale(1, -1) translate(-11.821492, -34.100387) translate(-0.178508, 1.600387)">
                                    <path d="M24.3127815,61.8935608 C24.3127815,60.058073 24.3419225,6.14352474 24.3419225,0.747423113 C24.3419225,0.462806342 23.881495,0.317593704 23.2520499,0.317593704 C22.6925432,0.317593704 4.13556911,0.276934165 0.323929337,0.276934165 C-0.264718396,0.276934165 -0.357969522,0.706763574 -0.357969522,1.50833734 C-0.357969522,5.38261052 -0.264718396,62.5731559 -0.264718396,62.9855598 C-0.264718396,64.0136653 0.160739866,64.803622 0.656136473,64.803622 C1.15153308,64.803622 22.8207635,64.9778772 23.4268958,64.9778772 C24.5051119,64.9778772 24.3127815,63.8161761 24.3127815,61.8935608" id="path9893"></path>
                                </g>
                                <g id="g9895" transform="translate(53.479084, 34.059765) scale(1, -1) translate(-53.479084, -34.059765) translate(30.479084, 1.559765)">
                                    <path d="M42.7973676,14.617011 C42.7973676,17.0565834 42.7973676,27.7732761 42.8148522,32.4084635 C42.8206804,33.6979517 42.779883,34.5343765 42.779883,34.586653 C42.779883,34.8770783 42.6225217,35.068759 42.3544248,35.068759 C39.6443139,35.068759 24.5026623,35.1558866 24.374442,35.033908 C24.374442,35.033908 24.2986755,35.0513335 24.2986755,35.1442696 L24.2986755,43.0496456 C24.2986755,43.1890497 24.3686138,43.3052198 24.5026623,43.3052198 L44.7090157,43.3052198 C45.5016503,43.3052198 45.6473551,43.6943897 45.6473551,44.3623678 C45.6473551,47.2259611 45.7464345,55.1081031 45.8105446,59.8420351 C45.8338574,61.851778 45.7988882,63.2748618 45.7988882,63.4549255 C45.7988882,64.1577547 45.822201,64.5933926 44.8838616,64.5933926 C40.6467635,64.5933926 22.8591112,64.7676477 11.3833946,64.7908818 C5.82329616,64.8024988 1.56288535,64.7908818 1.21319362,64.7908818 C0.0533827455,64.7908818 0.169946653,64.2448822 0.169946653,62.2932244 C0.169946653,61.9563311 0.0883519177,59.9698222 0.0708673316,56.8099952 C0.0417263547,47.4466843 0.263197779,28.3018501 0.216572216,14.8958193 C0.193259434,8.0475913 0.379761686,2.69795771 0.379761686,0.914746517 C0.379761686,0.351321481 0.82853273,0.275810909 1.25981919,0.275810909 C5.08894355,0.275810909 23.4943845,0.409406536 23.7508251,0.409406536 C24.0422349,0.409406536 24.2986755,0.490725614 24.2986755,1.09481019 L24.2986755,13.7399267 C24.2986755,13.9374159 24.432724,14.0129265 24.6833364,14.0129265 C27.2710551,14.0129265 41.9464511,14.1058626 42.2262045,14.1058626 C42.5350988,14.1058626 42.7973676,14.2859262 42.7973676,14.617011" id="path9897"></path>
                                </g>
                                <g id="g9899" transform="translate(109.858638, 33.712181) scale(1, -1) translate(-109.858638, -33.712181) translate(78.358638, -0.287819)">
                                    <path d="M-1.07643061e-13,32.8510331 L-0.00582819537,33.0369053 C-0.448771044,54.830418 13.0726422,67.434875 32.515502,67.9924916 C44.9295581,68.3468104 54.8491467,62.4163263 60.3742759,54.2263335 C61.0736593,53.198228 60.9920646,52.692888 60.4558706,52.3385692 C59.9138484,51.9900588 43.8455138,41.5754084 43.1869277,41.1746216 C42.5283416,40.7796432 41.9746631,41.2094726 41.7473635,41.4534298 C39.5326492,43.8233001 37.1372609,44.9385331 33.6053745,44.8397885 C27.9053994,44.6829589 22.9980589,39.3681763 23.1729048,33.3157136 L23.178733,33.1995435 C23.3535789,26.967017 28.5406727,23.1334034 34.2406478,23.2960416 C38.1979925,23.4064032 40.599209,25.1082953 42.8255796,27.8150589 C42.9829409,28.0067395 43.2510379,28.4365689 44.0436724,28.0532076 C44.8421352,27.6756547 61.8896067,19.9793849 62.7288668,19.543747 C63.5681269,19.1081091 62.9969638,18.0741951 62.6938976,17.5340041 C57.5417729,8.35656535 47.3307746,0.683529552 33.9026125,0.276934165 C14.9784621,-0.286490871 0.472083825,12.248264 -1.07643061e-13,32.8510331" id="path9901"></path>
                                </g>
                                <g id="g9903" transform="translate(139.171694, 65.298139) scale(-1, 1) translate(-139.171694, -65.298139) translate(136.671694, 62.798139)">
                                    <path id="path9905"></path>
                                </g>
                            </g>
                        </g>
                    </g>
                </g>
            </g>
        </g>
    </g>
</svg>