<?xml version="1.0" encoding="UTF-8" standalone="no"?>
<svg width="116px" height="140px" viewBox="0 0 116 140" version="1.1" xmlns="http://www.w3.org/2000/svg" xmlns:xlink="http://www.w3.org/1999/xlink" xmlns:sketch="http://www.bohemiancoding.com/sketch/ns">
    <!-- Generator: Sketch 3.1.1 (8761) - http://www.bohemiancoding.com/sketch -->
    <title>lv_default</title>
    <desc>Created with Sketch.</desc>
    <defs></defs>
    <g id="Clients" stroke="none" stroke-width="1" fill="none" fill-rule="evenodd" sketch:type="MSPage">
        <g sketch:type="MSArtboardGroup" transform="translate(-1076.000000, -1296.000000)" id="Group" fill="#F3F1EF">
            <g sketch:type="MSLayerGroup" transform="translate(235.000000, 972.000000)">
                <g id="Louis-Vuitton" transform="translate(841.000000, 324.000000)" sketch:type="MSShapeGroup">
                    <g id="lv_default">
                        <path d="M85.667234,0.0289855072 C95.6208761,0.0289855072 105.57597,0.0275362319 115.529612,0.0304347826 C115.535419,2.26811594 115.517997,4.50724638 115.539775,6.74637681 C113.010713,6.85652174 110.425031,7.13913043 108.09632,8.19565217 C105.734218,9.25507246 103.753942,11.1826087 102.734768,13.5695652 C90.6309887,41.9724638 78.5359199,70.3782609 66.4452065,98.7869565 C66.2361452,99.2536232 66.0677347,99.7362319 65.8238298,100.186957 C61.4945181,100.136232 57.1637547,100.17971 52.8344431,100.163768 C50.9238548,96.373913 49.0437547,92.5681159 47.1171965,88.7869565 C44.9089862,94.6942029 42.6877096,100.595652 40.4794994,106.501449 C54.7610013,106.502899 69.0425031,106.501449 83.324005,106.502899 C85.9387234,106.537681 88.6318398,106.428986 91.0781477,105.408696 C95.143229,103.778261 98.3793242,100.627536 101.012916,97.2115942 C104.19239,93.0724638 106.605307,88.4130435 108.755444,83.6782609 C111.166909,83.657971 113.576921,83.6855072 115.986934,83.6811594 C111.416621,93.426087 106.823079,103.162319 102.212115,112.888406 C69.302378,112.889855 36.3940926,112.888406 3.48435544,112.888406 C4.2857572,110.8 5.04795995,108.694203 5.90743429,106.627536 C5.95969962,106.414493 6.22538173,106.468116 6.38653317,106.447826 C10.495169,106.417391 14.6313892,106.257971 18.6630788,105.404348 C20.7609512,104.913043 22.9314143,104.257971 24.5458323,102.762319 C25.3994994,101.949275 25.6651815,100.762319 25.9482854,99.6666667 C29.8347935,89.284058 33.7271089,78.9028986 37.6165207,68.5217391 C29.3963454,51.0376812 21.1485857,33.5637681 12.9240551,16.0811594 C12.2620275,14.5521739 11.388035,13.0376812 10.0131665,12.042029 C7.16760951,9.91449275 3.4698373,9.64492754 0.0435544431,9.50869565 C0.0406508135,7.00289855 0.0435544431,4.49855072 0.0421026283,1.99275362 C11.5970964,1.9884058 23.1506383,1.98985507 34.705632,1.99130435 C34.7070839,4.49710145 34.7085357,7.00289855 34.7041802,9.50869565 C33.1986483,9.60434783 31.6002003,9.57971014 30.2369462,10.3231884 C29.5604005,10.642029 29.1626033,11.4449275 29.336821,12.1753623 C29.5502378,13.3710145 30.496821,14.2246377 30.9759199,15.3043478 C35.8554693,25.7956522 40.7350188,36.2884058 45.6290864,46.7753623 C48.0812015,39.9304348 50.5333166,33.0869565 52.9955945,26.2463768 C53.3570964,25.2956522 53.4848561,24.1971014 53.0725407,23.2405797 C52.748786,22.4855072 52.0141677,22.0188406 51.2897121,21.7043478 C49.8814518,21.1246377 48.3338173,21.1304348 46.8413517,21.0231884 C47.6035544,18.9086957 48.3701126,16.7942029 49.1598999,14.6913043 C49.3428285,14.573913 49.5968961,14.6637681 49.8074093,14.6347826 C61.5308135,14.642029 73.2556696,14.6347826 84.9805257,14.6391304 C84.170413,16.7637681 83.3646558,18.8884058 82.5632541,21.015942 C79.7394743,21.1463768 76.8285857,21.2173913 74.1804756,22.3188406 C72.9667584,22.826087 71.818373,23.6014493 71.1011765,24.7231884 C70.603204,25.5449275 70.2939675,26.4623188 69.9600501,27.357971 C65.061627,40.6942029 60.1181977,54.0130435 55.2749437,67.3695652 C57.9578974,73.4231884 60.7540926,79.4246377 63.4907635,85.4536232 C73.4284355,62.0275362 83.363204,38.5985507 93.3124906,15.1768116 C93.983229,13.7681159 95.0749937,12.4826087 95.1606508,10.8623188 C95.2434043,9.5942029 94.3011765,8.5 93.2094118,7.97971014 C90.85602,6.89565217 88.2108135,6.84202899 85.667234,6.75072464 C85.6643304,4.51014493 85.6643304,2.26956522 85.667234,0.0289855072 L85.667234,0.0289855072 Z" id="path5"></path>
                        <path d="M103.737972,126.165217 C106.875344,129.408696 109.988035,132.673913 113.094919,135.944928 C113.090563,132.904348 113.107985,129.862319 113.105081,126.821739 C113.642253,126.823188 114.179424,126.817391 114.718048,126.810145 C114.719499,131.150725 114.719499,135.492754 114.718048,139.833333 C111.577772,136.605797 108.483955,133.334783 105.35965,130.091304 C105.364005,133.150725 105.35239,136.211594 105.350939,139.272464 C104.812315,139.276812 104.275144,139.275362 103.737972,139.275362 C103.736521,134.904348 103.735069,130.534783 103.737972,126.165217 L103.737972,126.165217 Z" id="path7"></path>
                        <path d="M12.4057572,126.611594 C15.8625282,126.081159 19.5196496,128.782609 19.8274343,132.301449 C20.1177972,134.314493 19.3352691,136.413043 17.8587735,137.8 C15.4313392,140.171014 11.0657322,140.127536 8.7094368,137.672464 C7.43619524,136.44058 6.71028786,134.665217 6.78723404,132.892754 C6.8220776,129.808696 9.37581977,127.053623 12.4057572,126.611594 L12.4057572,126.611594 Z M12.407209,128.205797 C10.3949937,128.533333 8.75734668,130.297101 8.47569462,132.295652 C8.09241552,134.566667 9.4963204,137.010145 11.6929161,137.752174 C13.6151189,138.476812 15.9539925,137.794203 17.188035,136.156522 C18.7835795,134.157971 18.5135419,130.933333 16.5506884,129.273913 C15.4473091,128.272464 13.8517647,127.942029 12.407209,128.205797 L12.407209,128.205797 Z" id="path9"></path>
                        <path d="M37.3682603,127.282609 C39.1394743,125.955072 42.0329412,126.504348 43.0550188,128.510145 C42.6281852,128.750725 42.2013517,128.992754 41.7745181,129.233333 C41.0065081,128.034783 39.1351189,127.742029 38.1028786,128.75942 C37.6658824,129.078261 37.7137922,129.662319 37.7602503,130.142029 C37.8851064,130.768116 38.5529412,131.033333 39.0451064,131.327536 C40.3139925,131.994203 41.838398,132.378261 42.7298123,133.586957 C43.7243054,134.936232 43.5602503,136.944928 42.4757447,138.194203 C41.3418773,139.563768 39.2686859,139.897101 37.6833041,139.17971 C36.4666834,138.57971 35.7146433,137.311594 35.4707384,136.011594 C36.015169,135.882609 36.5625031,135.763768 37.1083855,135.642029 C37.1635544,136.827536 38.0854568,138.026087 39.3398248,138.047826 C41.0326408,138.231884 42.3784731,136.034783 41.3926909,134.633333 C40.3401252,133.202899 38.3104881,133.182609 37.0996746,131.946377 C35.6739925,130.782609 35.8177222,128.273913 37.3682603,127.282609 L37.3682603,127.282609 Z" id="path11"></path>
                        <path d="M95.1606508,126.602899 C97.4254819,126.32029 99.7658073,127.363768 101.156646,129.152174 C103.161602,131.656522 102.840751,135.652174 100.461227,137.805797 C99.1023279,139.146377 97.1046308,139.698551 95.2288861,139.5 C93.3749186,139.378261 91.64,138.34058 90.5700125,136.83913 C89.4172716,135.237681 89.1181977,133.097101 89.6640801,131.214493 C90.3769212,128.775362 92.6504631,126.921739 95.1606508,126.602899 L95.1606508,126.602899 Z M94.8833542,128.227536 C92.3862328,128.652174 90.6005006,131.307246 91.0389487,133.776812 C91.3162453,136.152174 93.5738173,138.085507 95.9620526,138.04058 C97.5909887,138.068116 99.1444305,137.146377 100.022778,135.798551 C101.356996,133.868116 101.005657,131.015942 99.2867084,129.427536 C98.1615519,128.289855 96.4237297,127.905797 94.8833542,128.227536 L94.8833542,128.227536 Z" id="path13"></path>
                        <path d="M1.34002503,126.813043 C1.85541927,126.810145 2.37081352,126.810145 2.88620776,126.813043 C2.88765957,130.492754 2.88475594,134.173913 2.88765957,137.853623 C4.1681602,137.856522 5.44720901,137.853623 6.72770964,137.855072 C6.73061327,138.327536 6.73061327,138.8 6.72916145,139.273913 C4.93181477,139.275362 3.1359199,139.276812 1.34002503,139.273913 C1.34147685,135.12029 1.34147685,130.966667 1.34002503,126.813043 L1.34002503,126.813043 Z" id="path15"></path>
                        <path d="M21.0774468,126.823188 C21.6233292,126.818841 22.1692115,126.82029 22.7165457,126.821739 C22.7209011,129.273913 22.7092866,131.727536 22.7223529,134.17971 C22.7470338,135.257971 22.8806008,136.443478 23.6442553,137.273913 C24.8594243,138.463768 27.2462078,138.294203 28.0940676,136.752174 C28.5223529,136.027536 28.647209,135.169565 28.6355945,134.34058 C28.6254318,131.834783 28.6254318,129.328986 28.6268836,126.821739 C29.172766,126.818841 29.7186483,126.82029 30.2645307,126.821739 C30.2645307,129.37971 30.2703379,131.937681 30.2630788,134.495652 C30.2659825,135.656522 30.0641802,136.884058 29.3208511,137.817391 C27.722403,140.027536 24.0173717,140.153623 22.2664831,138.065217 C21.4345932,137.195652 21.091965,135.969565 21.0803504,134.789855 C21.0730914,132.134783 21.0788986,129.478261 21.0774468,126.823188 L21.0774468,126.823188 Z" id="path17"></path>
                        <path d="M32.2811014,126.814493 C32.8182728,126.808696 33.3568961,126.810145 33.8955194,126.813043 C33.8955194,130.966667 33.8969712,135.12029 33.8940676,139.275362 C33.3568961,139.275362 32.8182728,139.276812 32.2796496,139.272464 C32.2825532,135.12029 32.2825532,130.966667 32.2811014,126.814493 L32.2811014,126.814493 Z" id="path19"></path>
                        <path d="M48.4470588,126.824638 C49.0379474,126.808696 49.6317397,126.808696 50.2240801,126.811594 C51.4639299,129.84058 52.6849061,132.876812 53.9029787,135.914493 C55.1181477,132.886957 56.3681602,129.873913 57.5557447,126.836232 C58.1640551,126.785507 58.7738173,126.82029 59.3835795,126.811594 C57.5702628,131.218841 55.7496871,135.623188 53.9204005,140.023188 C52.059174,135.63913 50.2647309,131.226087 48.4470588,126.824638 L48.4470588,126.824638 Z" id="path21"></path>
                        <path d="M60.1225532,126.810145 C60.6597247,126.817391 61.1968961,126.823188 61.7355194,126.821739 C61.754393,129.236232 61.7326158,131.652174 61.7529412,134.066667 C61.7906884,135.213043 61.8792491,136.513043 62.7561452,137.362319 C63.7680601,138.227536 65.3795745,138.281159 66.4597247,137.511594 C67.0883605,137.065217 67.4338924,136.323188 67.570363,135.584058 C67.7852315,134.311594 67.7082854,133.017391 67.7228035,131.733333 C67.7315144,130.097101 67.7329662,128.46087 67.7300626,126.824638 C68.2469086,126.818841 68.7652065,126.82029 69.2835044,126.821739 C69.3067334,129.091304 69.2878598,131.35942 69.2936671,133.628986 C69.3299625,135.036232 69.2849562,136.563768 68.4269337,137.752174 C66.9243054,139.915942 63.4660826,140.149275 61.5642053,138.391304 C60.6132666,137.513043 60.1356195,136.217391 60.1283605,134.93913 C60.1138423,132.228986 60.1254568,129.52029 60.1225532,126.810145 L60.1225532,126.810145 Z" id="path23"></path>
                        <path d="M71.3102378,126.821739 C71.8706383,126.823188 72.4310388,126.817391 72.9928911,126.811594 C72.9928911,130.965217 72.9914393,135.118841 72.9928911,139.273913 C72.4281352,139.275362 71.864831,139.275362 71.3015269,139.273913 C71.2957196,135.123188 71.3145932,130.972464 71.3102378,126.821739 L71.3102378,126.821739 Z" id="path25"></path>
                        <path d="M74.0004506,126.821739 C79.0338924,126.826087 84.0658824,126.813043 89.0993242,126.814493 C89.0978723,127.311594 89.0978723,127.808696 89.0993242,128.307246 C88.1338673,128.311594 87.1698623,128.307246 86.2058573,128.308696 C86.2015019,131.963768 86.2044055,135.618841 86.2044055,139.273913 C85.6425532,139.275362 85.0821527,139.275362 84.5203004,139.273913 C84.5173967,135.618841 84.5304631,131.963768 84.5144931,128.308696 C82.5385732,128.311594 80.5626533,128.307246 78.5867334,128.310145 C78.5838298,131.965217 78.5867334,135.618841 78.5852816,139.273913 C78.0698874,139.275362 77.5544931,139.275362 77.0405507,139.273913 C77.0390989,135.618841 77.0420025,131.965217 77.0390989,128.310145 C76.0257322,128.307246 75.0138173,128.311594 74.0004506,128.307246 C73.9989987,127.811594 73.9989987,127.315942 74.0004506,126.821739 L74.0004506,126.821739 Z" id="path27"></path>
                    </g>
                </g>
            </g>
        </g>
    </g>
</svg>