<?xml version="1.0" encoding="UTF-8" standalone="no"?>
<svg width="182px" height="66px" viewBox="0 0 182 66" version="1.1" xmlns="http://www.w3.org/2000/svg" xmlns:xlink="http://www.w3.org/1999/xlink" xmlns:sketch="http://www.bohemiancoding.com/sketch/ns">
    <!-- Generator: Sketch 3.3.3 (12081) - http://www.bohemiancoding.com/sketch -->
    <title>nordstrom_orig_logo</title>
    <desc>Created with Sketch.</desc>
    <defs></defs>
    <g id="Page-1" stroke="none" stroke-width="1" fill="none" fill-rule="evenodd" sketch:type="MSPage">
        <g id="nordstrom_orig_logo" sketch:type="MSLayerGroup">
            <path d="M0,0 L182,0 L182,66 L0,66 L0,0 L0,0 Z" id="Shape" fill="#FEFEFE" sketch:type="MSShapeGroup"></path>
            <path d="M25.0733694,25.2362 C25.4231592,25.2208 25.774042,25.2153 26.1249249,25.2395 C28.5034955,28.7848 30.94,32.2949 33.4486486,35.7489 C33.6661742,36.036 33.8738619,36.3319 34.0607808,36.641 C34.168997,35.9832 34.1023183,35.3144 34.1209009,34.6511 C34.1012252,31.5106 34.1974174,28.3613 33.9088408,25.2296 C34.4368048,25.2175 34.9658619,25.2263 35.4949189,25.2208 C35.4697778,26.7773 35.4708709,28.336 35.3845165,29.8903 C35.332048,33.5027 35.3222102,37.1151 35.3473514,40.7275 C34.9625826,40.7253 34.5789069,40.7264 34.1941381,40.7231 C32.9228709,38.8135 31.6264625,36.9204 30.3158438,35.0372 C28.9746186,33.1177 27.6432312,31.1894 26.2254895,29.3271 C26.1970691,31.7614 26.2233033,34.1957 26.2123724,36.63 C26.2648408,37.9995 26.2888889,39.3734 26.3347988,40.7407 C25.9150511,40.7187 25.4953033,40.7231 25.0755556,40.7286 C25.0635315,35.5641 25.0700901,30.4007 25.0733694,25.2362 L25.0733694,25.2362 Z" id="Shape" fill="#F3F1EF" sketch:type="MSShapeGroup"></path>
            <path d="M57.8825586,25.2208 C59.5407808,25.2285 61.199003,25.2153 62.8572252,25.2274 C63.2649489,25.2219 63.6661141,25.3 64.064,25.3891 C64.920985,25.6718 65.7036396,26.2603 66.0643604,27.1128 C66.6218378,28.4504 66.495039,30.1081 65.6107267,31.2785 C64.9876637,32.1046 64.0257417,32.5886 63.0550751,32.8768 C64.3755315,35.5608 65.9320961,38.1205 67.3968408,40.7264 C66.5628108,40.7264 65.7287808,40.7198 64.8958438,40.7319 C63.4168889,37.8587 61.9193514,34.9943 60.3431111,32.1728 C61.3673393,32.1684 62.4986907,32.175 63.3502102,31.515 C63.9065946,31.0816 64.2071952,30.3996 64.2760601,29.7066 C64.3864625,28.9289 64.2837117,28.116 63.9426667,27.4076 C63.6464384,26.9621 63.2693213,26.5518 62.7632192,26.3549 C61.8865586,25.9732 60.8874715,26.059 59.9714595,26.2273 C59.9386667,29.6593 59.9550631,33.0902 59.95397,36.5222 C59.9561562,37.9258 60.0304865,39.3261 60.0851411,40.7286 C59.3473033,40.7231 58.6105586,40.7198 57.8727207,40.7297 C57.9874955,36.2098 58.0935255,31.6866 57.9557958,27.1656 C57.8945826,26.5188 57.898955,25.8687 57.8825586,25.2208 L57.8825586,25.2208 Z" id="Shape" fill="#F3F1EF" sketch:type="MSShapeGroup"></path>
            <path d="M71.0958679,25.2208 C73.047039,25.2252 74.9982102,25.2197 76.9504745,25.2241 C79.0612372,25.1317 81.3294054,26.037 82.4301502,27.929 C83.3308589,29.4074 83.556036,31.1872 83.544012,32.8911 C83.5013814,34.9074 82.9668589,37.0194 81.5698859,38.5286 C80.2461502,40.007 78.2348589,40.6846 76.2957117,40.7231 C74.5620661,40.7308 72.8273273,40.7187 71.0936817,40.7286 C71.1111712,39.9872 71.1046126,39.2447 71.1701982,38.5066 C71.2248529,37.2911 71.2237598,36.0734 71.2565526,34.8579 C71.3297898,33.8371 71.296997,32.8119 71.296997,31.79 C71.2062703,30.3215 71.2401562,28.8486 71.1712913,27.379 C71.0947748,26.6629 71.1231952,25.9402 71.0958679,25.2208 L71.0958679,25.2208 Z" id="Shape" fill="#F3F1EF" sketch:type="MSShapeGroup"></path>
            <path d="M92.8003243,25.223 C93.4485285,25.234 94.1098498,25.1636 94.7416577,25.3517 C94.7285405,25.9633 94.74603,26.5749 94.7318198,27.1865 C94.0617538,26.6343 93.3293814,26.1173 92.4614655,25.9512 C91.7706306,25.8137 91.0491892,25.839 90.3736577,26.0359 C89.4423423,26.3461 88.7165285,27.2602 88.7832072,28.2711 C88.746042,29.0169 89.2193514,29.6703 89.7822943,30.1026 C91.376024,31.3203 93.3676396,32.0441 94.6356276,33.6666 C95.5068228,34.8073 95.6664144,36.3957 95.2160601,37.7399 C94.734006,39.2744 93.3752913,40.5207 91.7968649,40.8089 C90.5791592,40.8672 89.3548949,40.8705 88.1404685,40.7583 C87.8136336,40.7319 87.5021021,40.6296 87.1916637,40.535 C87.2025946,39.9421 87.2015015,39.3492 87.1927568,38.7563 C87.2342943,38.7629 87.3184625,38.7739 87.36,38.7794 C88.2978739,39.6363 89.5756997,40.0664 90.8338498,40.0554 C91.4547267,40.0345 92.0526486,39.8222 92.5685886,39.4768 C92.9894294,39.0929 93.3610811,38.6298 93.4955315,38.0611 C93.8114354,36.9435 93.3796637,35.6884 92.5347027,34.9184 C91.1267988,33.6061 89.1515796,33.0473 87.8912432,31.5535 C86.9249489,30.4095 86.7467748,28.7298 87.2966006,27.3559 C87.7491411,26.4187 88.5372613,25.6498 89.509021,25.278 C89.685009,25.2164 89.8752072,25.2252 90.0599399,25.2219 C90.9737658,25.2252 91.8864985,25.2208 92.8003243,25.223 L92.8003243,25.223 Z" id="Shape" fill="#F3F1EF" sketch:type="MSShapeGroup"></path>
            <path d="M98.6702342,25.2384 C102.008541,25.2098 105.349033,25.2175 108.688432,25.234 C108.680781,25.6982 108.681874,26.1624 108.686246,26.6266 C108.232613,26.565 107.786631,26.4693 107.335183,26.4044 C106.484757,26.2757 105.622306,26.3274 104.767508,26.3142 C104.74018,28.1017 104.677874,29.8892 104.693177,31.6789 C104.739087,34.694 104.799207,37.7091 104.90633,40.7242 C104.091976,40.733 103.277622,40.7132 102.463267,40.7297 C102.502619,38.8124 102.620673,36.8973 102.614114,34.9778 C102.726703,32.78 102.6797,30.5778 102.673141,28.3778 C102.674234,28.05 102.672048,27.7222 102.628324,27.3977 C102.617393,27.0369 102.614114,26.6772 102.609742,26.3164 C101.780084,26.3186 100.949333,26.2911 100.124048,26.3857 C99.6365285,26.4605 99.149009,26.5375 98.6756997,26.6794 C98.6746066,26.1987 98.6800721,25.718 98.6702342,25.2384 L98.6702342,25.2384 Z" id="Shape" fill="#F3F1EF" sketch:type="MSShapeGroup"></path>
            <path d="M112.503327,25.2274 C114.168108,25.2197 115.833982,25.2186 117.499856,25.2274 C118.664,25.2318 119.90794,25.7587 120.502583,26.8103 C120.888444,27.4417 121.006498,28.1985 120.981357,28.9289 C120.986823,30.0355 120.518979,31.1619 119.645598,31.8538 C119.068444,32.3543 118.359027,32.6733 117.631027,32.8768 C118.446474,34.5169 119.371231,36.0987 120.261009,37.6981 C120.813021,38.6617 121.359568,39.6286 121.935628,40.5779 C121.934535,40.6153 121.934535,40.6912 121.934535,40.7286 C121.111435,40.722 120.289429,40.7253 119.467423,40.7286 C118.234414,38.2184 116.905213,35.7577 115.566174,33.3047 C115.35958,32.9318 115.146426,32.5611 114.970438,32.1728 C115.410955,32.1596 115.856937,32.186 116.29636,32.1189 C116.874607,32.0562 117.430991,31.8626 117.929441,31.5612 C118.596228,30.9947 118.918691,30.118 118.899015,29.2523 C118.959135,28.2777 118.646511,27.2129 117.827784,26.6244 C116.898655,25.9237 115.671111,26.0656 114.590042,26.1855 C114.50806,29.5196 114.558342,32.8548 114.543039,36.1889 C114.607532,37.7036 114.552877,39.2238 114.707003,40.733 C113.993213,40.7088 113.279423,40.7429 112.566727,40.7198 C112.53612,40.7 112.473814,40.6593 112.443207,40.6395 C112.560168,39.1435 112.529562,37.6398 112.560168,36.1405 C112.648709,33.4081 112.690246,30.6691 112.554703,27.9378 C112.548144,27.0347 112.508793,26.1316 112.503327,25.2274 L112.503327,25.2274 Z" id="Shape" fill="#F3F1EF" sketch:type="MSShapeGroup"></path>
            <path d="M130.949273,25.223 C131.968036,25.2406 132.992264,25.1834 134.009934,25.2527 C136.005922,25.7917 137.570138,27.4428 138.298138,29.3557 C139.003183,31.2741 139.088444,33.4059 138.624973,35.3925 C138.194294,37.1547 137.194114,38.8267 135.672529,39.8398 C135.201405,40.1555 134.690931,40.4096 134.160781,40.6032 C133.413105,40.8837 132.603123,40.7473 131.825934,40.777 C131.074979,40.7473 130.313093,40.8507 129.571976,40.7044 C128.572889,40.4283 127.649225,39.8838 126.897177,39.1699 C125.186486,37.5848 124.471604,35.178 124.475976,32.8911 C124.493465,31.1762 124.860745,29.4151 125.80955,27.9664 C126.536456,26.7982 127.652505,25.8819 128.932517,25.3924 C129.573069,25.1284 130.275928,25.2483 130.949273,25.223 L130.949273,25.223 Z" id="Shape" fill="#F3F1EF" sketch:type="MSShapeGroup"></path>
            <path d="M143.576685,25.2241 C144.041249,25.2208 144.505814,25.2175 144.971471,25.234 C144.999892,25.3022 145.05564,25.4386 145.08406,25.5079 C146.765237,29.3018 148.467183,33.088 150.203015,36.8566 C150.996601,35.1934 151.649177,33.4642 152.360781,31.7647 C153.244,29.5922 154.163291,27.4318 154.994042,25.2384 C155.452048,25.2142 155.911147,25.2219 156.371339,25.223 C156.513441,28.259 156.653357,31.2939 156.827159,34.3288 C156.973634,36.4595 156.927724,38.5968 156.923351,40.7297 C156.312312,40.7231 155.702366,40.7242 155.09242,40.7264 C154.941574,40.7748 154.848661,40.6087 154.871616,40.4844 C154.850847,38.9389 154.855219,37.3923 154.804937,35.8468 C154.724048,35.035 154.753562,34.2188 154.718583,33.4048 C154.634414,32.197 154.591784,30.9859 154.47373,29.7792 C153.649538,31.6591 152.886559,33.5654 152.073297,35.4497 C151.351856,37.2207 150.571387,38.9686 149.868529,40.7473 C149.78436,40.7561 149.61821,40.7737 149.535135,40.7825 C147.952336,37.1294 146.348769,33.484 144.67415,29.8727 C144.487231,31.3467 144.456625,32.835 144.348408,34.3167 C144.350595,35.3793 144.228168,36.4364 144.229261,37.5001 C144.229261,38.577 144.128697,39.6495 144.12979,40.7264 C143.638991,40.7198 143.150378,40.7253 142.660673,40.7264 C142.701117,39.4669 142.866174,38.2151 142.939411,36.9567 C143.238919,33.0506 143.458631,29.1401 143.576685,25.2241 L143.576685,25.2241 Z" id="Shape" fill="#F3F1EF" sketch:type="MSShapeGroup"></path>
            <path d="M42.8011532,25.9952 C43.2515075,25.6828 43.7652613,25.4881 44.2648048,25.2714 C45.5021862,25.168 46.7472192,25.2483 47.988973,25.2219 C48.5081922,25.2076 49.0372492,25.2021 49.5324204,25.3869 C51.0277718,25.9864 52.2892012,27.1513 53.002991,28.6044 C53.8359279,30.2203 54.0490811,32.0903 53.9299339,33.8877 C53.7648769,35.5179 53.2576817,37.1624 52.2094054,38.4428 C51.6442763,39.2139 50.8638078,39.8002 50.0330571,40.2523 C49.4296697,40.5493 48.7792793,40.8144 48.0939099,40.7781 C47.0008168,40.755 45.9022583,40.8232 44.8113514,40.7429 C42.9159279,40.3106 41.3298498,38.8982 40.463027,37.1723 C40.3384144,36.8874 40.2116156,36.6047 40.0891892,36.3209 C39.4169369,34.3332 39.3393273,32.1431 39.9088288,30.1202 C40.3493453,28.4636 41.3473393,26.9214 42.8011532,25.9952 L42.8011532,25.9952 Z" id="Shape" fill="#F3F1EF" sketch:type="MSShapeGroup"></path>
            <path d="M42.8131772,28.3316 C43.3881441,27.1425 44.4812372,26.1745 45.7962282,25.938 C46.9614655,25.7554 48.2458498,25.8742 49.2241682,26.5925 C50.2953994,27.3339 50.9173694,28.5615 51.2278078,29.8034 C51.6333453,31.3159 51.5972733,32.8999 51.5174775,34.4509 C51.3458619,35.9073 50.9971652,37.422 50.0396156,38.5726 C48.4874234,40.5075 45.1720721,40.5702 43.5575736,38.6804 C42.4207568,37.4121 42.0884565,35.6466 41.9441682,33.9977 C41.8567207,32.0859 41.9452613,30.074 42.8131772,28.3316 L42.8131772,28.3316 Z" id="Shape" fill="#FEFEFE" sketch:type="MSShapeGroup"></path>
            <path d="M130.279207,26.0645 C131.369021,25.7488 132.586727,25.7829 133.626258,26.2647 C134.589273,26.7377 135.331483,27.5957 135.749045,28.5813 C136.625706,30.5976 136.644288,32.879 136.389598,35.0295 C136.179724,36.4265 135.717345,37.8565 134.709514,38.8828 C133.396709,40.1874 131.267363,40.3755 129.639748,39.5934 C128.635195,39.0412 127.907195,38.0787 127.510402,37.0117 C126.968228,35.5608 126.831592,33.9933 126.865477,32.4544 C126.913574,31.1608 127.109237,29.8562 127.604408,28.6539 C128.106138,27.4835 129.03636,26.4363 130.279207,26.0645 L130.279207,26.0645 Z" id="Shape" fill="#FEFEFE" sketch:type="MSShapeGroup"></path>
            <path d="M73.3651291,26.235 C74.9949309,26.0755 76.7416937,25.9611 78.2632793,26.6882 C79.3388829,27.1843 80.1597958,28.1369 80.5959399,29.2336 C81.1873033,30.6636 81.2572613,32.2498 81.1588829,33.7766 C81.0211532,35.3815 80.5937538,37.0788 79.4175856,38.2426 C78.6174414,39.0797 77.4959279,39.5483 76.3645766,39.699 C75.382979,39.8453 74.384985,39.7749 73.4077598,39.6286 C73.3607568,38.2239 73.4012012,36.8181 73.3246847,35.4156 C73.3257778,32.9241 73.2820541,30.4304 73.3684084,27.9411 C73.3629429,27.3724 73.3793393,26.8037 73.3651291,26.235 L73.3651291,26.235 Z" id="Shape" fill="#FEFEFE" sketch:type="MSShapeGroup"></path>
        </g>
    </g>
</svg>
