<?xml version="1.0" encoding="UTF-8" standalone="no"?>
<svg width="140px" height="42px" viewBox="0 0 140 42" version="1.1" xmlns="http://www.w3.org/2000/svg" xmlns:xlink="http://www.w3.org/1999/xlink" xmlns:sketch="http://www.bohemiancoding.com/sketch/ns">
    <!-- Generator: Sketch 3.1.1 (8761) - http://www.bohemiancoding.com/sketch -->
    <title>qatar_default</title>
    <desc>Created with Sketch.</desc>
    <defs></defs>
    <g id="Clients" stroke="none" stroke-width="1" fill="none" fill-rule="evenodd" sketch:type="MSPage">
        <g sketch:type="MSArtboardGroup" transform="translate(-442.000000, -1687.000000)" id="Group" fill="#F3F1EF">
            <g sketch:type="MSLayerGroup" transform="translate(235.000000, 972.000000)">
                <g id="Qatar-Airways" transform="translate(207.000000, 716.000000)" sketch:type="MSShapeGroup">
                    <g id="qatar_default">
                        <path d="M65.6722134,34.5025014 L64.485553,34.5025014 C64.485553,34.5025014 64.3256621,35.2400558 64.7552485,35.5222336 C65.1867614,35.8083035 65.6722134,36.0282076 65.6722134,36.0282076 L65.6722134,34.5025014 L65.6722134,34.5025014 Z M71.3030709,37.2639517 C71.3030709,37.2639517 70.5816354,36.8455502 70.1250793,36.4349328 C69.6714129,36.0282076 70.2185096,35.8734963 70.2185096,35.8734963 L70.2185096,34.5025014 L66.7750755,34.5025014 L66.7750755,39.3004971 C66.7750755,39.3004971 65.520028,38.1348108 65.4025178,37.9800995 C65.2811548,37.814685 65.7011093,37.6648388 65.7011093,37.6648388 L65.6298326,37.2104353 C65.6298326,37.2104353 65.1299327,36.948691 64.5231177,36.5341816 C63.9201556,36.1245372 63.4732315,35.6020218 63.4732315,35.2400558 C63.4732315,34.8771168 63.3210462,33.4526054 63.3210462,33.4526054 L71.3030709,33.4526054 L71.3030709,37.2639517 L71.3030709,37.2639517 Z M64.1744399,39.0183193 C64.5674249,39.0183193 64.844826,39.1749766 64.844826,39.4912103 C64.844826,39.8084171 64.6608551,40.0292942 64.1744399,40.0292942 C63.7419639,40.0292942 63.6263801,39.8385809 63.6263801,39.4912103 C63.6263801,39.1409206 63.776639,39.0183193 64.1744399,39.0183193 L64.1744399,39.0183193 Z M65.6423542,39.0183193 C66.0391919,39.0183193 66.3079243,39.1749766 66.3079243,39.4912103 C66.3079243,39.8084171 66.1258798,40.0292942 65.6423542,40.0292942 C65.2079518,40.0292942 65.0942944,39.8385809 65.0942944,39.4912103 C65.0942944,39.1409206 65.2435901,39.0183193 65.6423542,39.0183193 L65.6423542,39.0183193 Z M67.8663792,33.040042 C67.4367927,33.040042 67.3183193,32.8541938 67.3183193,32.5048772 C67.3183193,32.1584796 67.4705047,32.0319861 67.8663792,32.0319861 C68.2593641,32.0319861 68.5377285,32.1896164 68.5377285,32.5048772 C68.5377285,32.823057 68.3566472,33.040042 67.8663792,33.040042 L67.8663792,33.040042 Z M69.3920854,33.040042 C68.9624989,33.040042 68.8449887,32.8541938 68.8449887,32.5048772 C68.8449887,32.1584796 69.0010269,32.0319861 69.3920854,32.0319861 C69.7908495,32.0319861 70.0643978,32.1896164 70.0643978,32.5048772 C70.0643978,32.823057 69.8842797,33.040042 69.3920854,33.040042 L69.3920854,33.040042 Z M86.5919183,39.1127029 C86.9877929,39.1127029 87.265194,39.2654681 87.265194,39.5817018 C87.265194,39.8959895 87.0821863,40.1207587 86.5919183,40.1207587 C86.1632951,40.1207587 86.0467481,39.9300455 86.0467481,39.5817018 C86.0467481,39.2333582 86.1998966,39.1127029 86.5919183,39.1127029 L86.5919183,39.1127029 Z M88.1166613,39.1127029 C88.5096462,39.1127029 88.785121,39.2654681 88.785121,39.5817018 C88.785121,39.8959895 88.6021133,40.1207587 88.1166613,40.1207587 C87.6851485,40.1207587 87.5705279,39.9300455 87.5705279,39.5817018 C87.5705279,39.2333582 87.7178972,39.1127029 88.1166613,39.1127029 L88.1166613,39.1127029 Z M92.3258381,38.9823173 C92.1110449,38.7945231 92.1736528,38.5697539 92.4462379,38.6008907 L92.4462379,33.4457942 L93.5770328,33.4457942 L93.5770328,39.8629066 C93.5770328,39.8629066 92.5367785,39.1691384 92.3258381,38.9823173 L92.3258381,38.9823173 Z M87.7814683,36.0914543 L87.0494375,36.0914543 C87.0494375,36.4972065 87.7814683,36.7219758 87.7814683,36.7219758 L87.7814683,36.0914543 L87.7814683,36.0914543 Z M82.9625869,35.2400558 C82.9625869,35.0532346 82.9539182,34.7486772 82.9452494,34.5025014 L76.5563547,34.5025014 L76.5563547,35.6370508 C76.722988,36.0739398 77.004242,36.1245372 77.4396076,36.1245372 L82.1101564,36.1245372 C83.1186251,36.1245372 82.9625869,35.5883994 82.9625869,35.2400558 L82.9625869,35.2400558 Z M90.4341166,38.6067289 L90.4341166,34.5025014 L88.9132264,34.5025014 L88.9132264,38.2291944 C88.9132264,38.2291944 88.6021133,38.1085391 88.1754164,37.9178258 C87.7525723,37.7241935 86.2230134,37.0965911 86.2230134,36.2481117 L86.2230134,35.2673005 L87.7814683,35.2673005 L87.7814683,34.5025014 L84.084713,34.5025014 C84.0876026,34.6825114 84.0914554,34.9471747 84.0914554,35.3354124 C84.0914554,36.5585072 83.05987,37.2240576 82.141942,37.2240576 L77.8682309,37.2240576 C77.1198258,37.2240576 76.7586264,37.0411286 76.5563547,36.8319278 L76.5563547,39.9913462 C76.5563547,39.9913462 75.8888583,39.5174821 75.3985903,39.1409206 C74.9092855,38.7643592 75.3985903,38.5113722 75.3985903,38.5113722 L75.3985903,34.5025014 L73.9980999,34.5025014 L73.9682408,37.9431245 C73.9682408,37.9431245 72.993484,37.2240576 72.7141565,37.0051266 C72.4415714,36.7871686 72.5927935,36.5925632 72.8981274,36.5925632 C72.8981274,36.5925632 72.8422619,34.0519899 72.8422619,33.4526054 C72.8422619,32.8493287 72.3481411,32.1604256 71.3107765,32.4737403 C71.3107765,32.4737403 70.9813627,32.4095205 71.254911,32.1584796 C71.5274961,31.9084117 71.85691,31.7176984 72.2258149,31.7176984 C72.5927935,31.7176984 73.9374184,31.9736045 73.9374184,33.4526054 L91.5610586,33.4526054 L91.5610586,39.8667987 C91.5610586,39.8667987 90.523694,39.1749766 90.309864,38.9871824 C90.0950707,38.7993882 90.1576786,38.573646 90.4341166,38.6067289 L90.4341166,38.6067289 Z" id="path213" transform="translate(78.449039, 35.919229) scale(1, -1) translate(-78.449039, -35.919229) "></path>
                        <path d="M129.851179,14.5488501 C129.870443,14.0438491 129.867553,13.5427403 129.84251,13.0513617 C124.982211,12.8567563 120.373307,12.5609561 120.373307,12.2281809 C120.373307,11.9012439 124.879149,11.6083628 129.683582,11.4147304 C129.598821,10.8542669 129.48998,10.3045067 129.357058,9.76544981 C124.621012,9.56987141 120.225938,9.28185544 120.225938,8.95783748 C120.225938,8.64549585 124.329163,8.36429107 128.872569,8.16871266 C128.664519,7.58295047 128.428535,7.01372973 128.163655,6.46883466 C124.261739,6.27909441 121.036951,6.02610742 121.036951,5.74976778 C121.036951,5.49191565 123.854306,5.25352406 127.405618,5.06962197 C127.206236,4.74171191 126.998185,4.42061303 126.780503,4.11702863 C126.549335,3.78619948 126.29794,3.45828942 126.032097,3.13621751 C123.811925,2.9659378 122.288146,2.77230545 122.288146,2.56505072 C122.288146,2.3869868 123.379449,2.22059919 125.061194,2.07172608 C124.143266,1.15416171 123.058704,0.296925004 121.78054,-0.451332686 C121.78054,-0.451332686 120.275061,0.858361528 119.032535,2.38795982 C117.924857,3.75214354 115.574653,7.34845098 115.021777,8.15314423 C114.467938,8.95783748 114.103849,9.19330999 113.45658,8.95978354 C112.588738,8.64938795 111.580269,8.49370365 111.27012,8.49370365 C110.95997,8.49370365 110.789484,8.61533201 111.309611,8.82355977 C111.827811,9.03470661 113.876534,10.0116256 114.885003,12.0306564 C116.017724,14.3046203 115.021777,17.4445781 115.021777,17.4445781 C114.641314,15.7661067 113.776362,15.1394774 113.776362,15.1394774 C114.055689,16.6982665 113.751319,18.1111016 112.989429,19.102616 L112.564658,17.1293174 C112.564658,17.1293174 112.298815,17.1429398 111.640951,16.5844224 C110.98405,16.0249319 110.802968,15.2095353 110.802968,15.2095353 C111.320206,14.9993615 111.942432,15.523823 111.942432,15.523823 C111.147793,12.520089 110.00833,10.0748724 109.17709,8.78171961 C108.346813,7.48856686 107.661979,7.00108038 106.829775,6.65954793 C106.127604,6.37542408 105.896436,6.70917231 105.896436,6.70917231 C105.282879,7.2443371 104.824396,7.73474266 104.34665,8.31758578 C104.34665,8.31758578 104.308122,8.38569766 104.43719,8.38375161 C104.779126,8.37888648 105.387867,8.96951381 105.520789,9.21471659 C105.672974,9.49592136 105.6566,9.71096031 105.580507,9.72555571 C105.505377,9.73820506 105.375346,9.5153819 104.715555,9.09503428 C104.059617,8.67565968 103.758136,8.96659473 103.53949,9.20012118 C103.369967,9.38596932 103.5366,9.61560367 103.642552,9.75961165 C103.742724,9.8880512 107.213128,16.425819 116.396261,23.2944159 C128.430461,32.2958878 136.115821,34.726509 136.556003,34.9016538 C136.846889,35.017444 137.321745,35.1702093 137.429624,35.0583112 C137.54906,34.9318177 137.607815,34.8306229 137.591441,34.6836958 C137.57603,34.5377418 137.498974,34.4628187 136.942245,34.2146969 C132.322746,32.158691 126.929798,28.7316902 123.865864,26.7369851 C120.097832,24.8823958 116.500287,22.2338166 116.369292,22.1705698 C116.079369,21.9886138 116.293199,21.7239505 116.468501,21.8348755 C122.831389,26.1103558 130.291361,29.0226253 138.535375,31.4084873 C138.929323,31.5213584 139.14508,31.5213584 139.210577,31.433786 C139.284744,31.3364833 139.316529,31.2255582 139.328088,31.1029568 C139.338683,30.9501916 139.213467,30.8694304 138.875384,30.7361257 C130.018775,27.4122658 123.49118,24.3248514 119.292599,21.4709635 C119.292599,21.4709635 118.858196,21.2063002 118.852417,20.8997967 C118.850491,20.7830335 119.085511,20.7694111 119.085511,20.7694111 C121.18721,20.731463 123.996859,20.6069156 125.333779,20.5281004 C125.333779,20.5281004 125.143065,19.8440625 123.862975,19.2933293 C122.874733,18.8671435 121.959695,18.9352554 121.054288,18.9274711 C120.85298,18.9313633 120.682494,18.7260546 120.843348,18.5071235 C120.924257,18.3981445 122.850653,15.2649979 129.851179,14.5488501" id="path209" transform="translate(121.397813, 17.323000) scale(1, -1) translate(-121.397813, -17.323000) "></path>
                        <path id="path205" d="M107.39866,6.04418346 C107.39866,5.78827739 106.966184,5.58102266 106.431609,5.58102266 C103.68842,5.58102266 95.3336376,5.78827739 95.3336376,6.04418346 C95.3336376,6.29814349 103.687457,6.50637124 106.431609,6.50637124 C106.966184,6.50637124 107.39866,6.29814349 107.39866,6.04418346"></path>
                        <path d="M99.5847898,20.3117066 C98.1303603,20.3117066 96.9494792,20.7641641 96.9494792,21.3256006 C96.9494792,21.8831451 98.1303603,22.3375486 99.5847898,22.3375486 C101.408124,22.3375486 104.136865,22.3103039 107.222953,22.2626255 C106.643107,21.5737225 106.139355,20.9354169 105.707842,20.363277 C103.250723,20.3301941 101.10279,20.3117066 99.5847898,20.3117066" id="path201" transform="translate(102.086216, 21.324628) scale(1, -1) translate(-102.086216, -21.324628) "></path>
                        <path d="M104.524167,8.23169513 C103.588902,8.23169513 102.828938,8.52263018 102.828938,8.88362316 C102.828938,9.24364312 103.588902,9.53652421 104.524167,9.53652421 C108.052363,9.53652421 116.852143,9.37889386 121.321383,9.15412464 C121.036277,8.96535742 120.75117,8.76977901 120.463174,8.57322758 C115.805146,8.36986496 107.840459,8.23169513 104.524167,8.23169513" id="path197" transform="translate(112.075161, 8.884110) scale(1, -1) translate(-112.075161, -8.884110) "></path>
                        <path d="M115.640343,10.8007578 C110.510349,10.6693992 104.952694,10.588638 102.101627,10.588638 C100.909188,10.588638 99.9440628,10.9593612 99.9440628,11.4176569 C99.9440628,11.8759526 100.909188,12.2486219 102.101627,12.2486219 C105.248396,12.2486219 111.699899,12.1493731 117.230584,11.9917428 C116.955109,11.7893532 116.677708,11.5869636 116.396454,11.3748437 C116.140243,11.1821844 115.887885,10.9924441 115.640343,10.8007578" id="path193" transform="translate(108.587323, 11.418630) scale(1, -1) translate(-108.587323, -11.418630) "></path>
                        <path d="M100.645368,13.8686143 C99.3007426,13.8686143 98.2104021,14.2870159 98.2104021,14.8046662 C98.2104021,15.3213435 99.3007426,15.7416911 100.645368,15.7416911 C103.403004,15.7416911 108.404893,15.6735793 113.422194,15.5616812 C112.80671,15.0372197 112.223012,14.5185963 111.672062,14.0097033 C107.268319,13.9201848 103.082259,13.8686143 100.645368,13.8686143" id="path189" transform="translate(105.816298, 14.805153) scale(1, -1) translate(-105.816298, -14.805153) "></path>
                        <path d="M125.333586,15.0745068 C127.357266,14.9635818 128.630614,14.8419534 128.630614,14.7154599 C128.630614,14.5763171 127.089497,14.4430124 124.704618,14.3243031 C125.214149,14.7115678 125.32588,15.0492081 125.333586,15.0745068" id="path185" transform="translate(126.667616, 14.699405) scale(1, -1) translate(-126.667616, -14.699405) "></path>
                        <path d="M108.391987,17.2093076 C104.937957,17.149953 101.843201,17.1168701 99.8513068,17.1168701 C98.4228837,17.1168701 97.2641561,17.5615434 97.2641561,18.1122766 C97.2641561,18.6620368 98.4228837,19.1086561 99.8513068,19.1086561 C102.164909,19.1086561 105.966653,19.0638969 110.088179,18.9850817 C109.475585,18.3730478 108.909224,17.7775553 108.391987,17.2093076" id="path181" transform="translate(103.676167, 18.112763) scale(1, -1) translate(-103.676167, -18.112763) "></path>
                        <path d="M108.361646,36.9406594 C111.105798,36.9406594 119.459617,36.7314586 119.459617,36.4784716 C119.459617,36.2215925 111.104835,36.0143377 108.361646,36.0143377 C107.827071,36.0143377 107.394595,36.2215925 107.394595,36.4784716 C107.394595,36.7314586 107.827071,36.9406594 108.361646,36.9406594" id="path177" transform="translate(113.427106, 36.477499) scale(1, -1) translate(-113.427106, -36.477499) "></path>
                        <path d="M120.496308,34.0145728 C115.845023,33.8082911 107.847587,33.6701213 104.524553,33.6701213 C103.589287,33.6701213 102.829323,33.9649485 102.829323,34.3220493 C102.829323,34.6820693 103.589287,34.9749504 104.524553,34.9749504 C107.703107,34.9749504 115.167894,34.8484569 119.878897,34.6587167 C120.091764,34.4281093 120.299815,34.2111243 120.496308,34.0145728" id="path173" transform="translate(111.662816, 34.322536) scale(1, -1) translate(-111.662816, -34.322536) "></path>
                        <path d="M102.101916,30.6675549 C100.909477,30.6675549 99.9433886,31.0382782 99.9433886,31.4956008 C99.9433886,31.9538965 100.909477,32.3255927 102.101916,32.3255927 C105.256391,32.3255927 111.723304,32.2282901 117.261695,32.0696867 C117.528501,31.683395 117.795307,31.2990494 118.048628,30.9458406 C112.346494,30.7765339 105.405686,30.6675549 102.101916,30.6675549" id="path169" transform="translate(108.996008, 31.496574) scale(1, -1) translate(-108.996008, -31.496574) "></path>
                        <path d="M104.346457,28.4262645 C104.824204,27.8434214 105.282686,27.3530158 105.896243,26.816878 C105.896243,26.816878 106.127411,26.4831297 106.829583,26.7691997 C107.544276,27.0630538 108.150127,27.4629678 108.833035,28.3883164 C110.826856,28.3542605 112.941076,28.3095012 115.022548,28.2618229 C115.193997,28.009809 115.541712,27.4882665 115.970335,26.8450958 C110.168028,26.6933036 103.870637,26.6028121 100.644886,26.6028121 C99.3012242,26.6028121 98.2108837,27.0241327 98.2108837,27.539837 C98.2108837,28.0584603 99.3012242,28.4768619 100.644886,28.4768619 C101.627348,28.4768619 102.892991,28.4700507 104.341641,28.4535092 C104.340678,28.4398869 104.346457,28.4262645 104.346457,28.4262645" id="path165" transform="translate(107.090609, 27.539837) scale(1, -1) translate(-107.090609, -27.539837) "></path>
                        <path d="M103.565592,23.4954506 C102.115979,23.4779362 100.844557,23.471125 99.8514995,23.471125 C98.4221131,23.471125 97.2643487,23.9157983 97.2643487,24.4675045 C97.2643487,25.0162917 98.4221131,25.460965 99.8514995,25.460965 C101.117142,25.460965 102.831635,25.4473426 104.798486,25.4220439 C104.037559,24.3127932 103.67636,23.6462698 103.642648,23.6044297 C103.620495,23.5723198 103.592562,23.5343717 103.565592,23.4954506" id="path161" transform="translate(101.031417, 24.466045) scale(1, -1) translate(-101.031417, -24.466045) "></path>
                        <path id="path157" d="M116.257966,11.7565325 C116.257966,11.9131898 118.448279,12.0601169 121.579637,12.1866104 C121.130786,11.9219471 120.668451,11.6553377 120.182999,11.3877553 C117.817384,11.4977074 116.257966,11.6251739 116.257966,11.7565325"></path>
                        <path d="M129.577438,18.1451851 C129.577438,17.957391 126.964281,17.7812731 123.233814,17.633373 C122.574986,18.0109074 122.075086,18.3903879 121.709071,18.717325 C126.233213,18.5558025 129.577438,18.356332 129.577438,18.1451851" id="path153" transform="translate(125.643254, 18.175349) scale(1, -1) translate(-125.643254, -18.175349) "></path>
                        <path d="M86.4223954,17.8945379 C89.0490373,18.3907816 91.4454748,20.0527116 91.4454748,23.2909451 C91.4454748,24.515986 90.9831396,25.711836 90.1162611,26.5564234 C88.8756616,27.7522735 87.4607232,27.9857999 85.5844129,27.9857999 C84.919806,27.9857999 81.5717285,27.8408189 80.8204338,27.8408189 C79.3477035,27.8408189 78.597372,27.9283913 77.9346916,27.9857999 C78.136,24.2240779 78.136,23.8163796 78.136,19.996276 C78.136,14.3663423 78.1071041,13.7260906 77.8768997,7.98036675 C78.5116474,8.06696614 79.204187,8.15551159 79.8678306,8.15551159 C80.5892662,8.15551159 81.2249771,8.03777533 81.8019329,7.98036675 C81.8019329,8.73932773 81.6873123,12.5000767 81.6873123,13.3466101 L81.6873123,17.4878126 L82.3808151,17.4878126 C83.9392701,15.2712573 85.7298558,12.7044124 87.2016229,10.4002847 C87.6340989,9.72889609 88.2688467,8.64980926 88.7013227,7.98036675 C89.5682012,8.09615695 89.9149526,8.15551159 91.0399683,8.15551159 C92.0792593,8.15551159 92.8016581,8.06696614 93.6097815,7.98036675 C91.791263,10.2835214 91.0129988,11.3042267 88.7311819,14.5414872 C88.2977426,15.1544941 87.6629949,16.1168177 87.2295556,16.7288516 L86.4223954,17.8945379 L86.4223954,17.8945379 Z M81.6873123,26.4114424 C82.1197884,26.4396602 83.1879754,26.5564234 83.7369984,26.5564234 C84.6896016,26.5564234 85.6412416,26.4114424 86.4223954,25.8285993 C87.4318273,25.0696383 87.6340989,24.0207153 87.6340989,22.7947014 C87.6340989,20.899245 86.565912,18.7702621 83.6792065,18.7702621 C82.9279118,18.7702621 82.2353722,18.8296167 81.6873123,18.8568615 L81.6873123,26.4114424 L81.6873123,26.4114424 Z" id="path149" transform="translate(85.743341, 17.983083) scale(1, -1) translate(-85.743341, -17.983083) "></path>
                        <path d="M67.1449436,16.116915 C66.2501324,16.0575604 65.3842171,15.9991788 64.4894058,15.9991788 C63.4780475,15.9991788 62.4975116,16.0877242 61.4861533,16.116915 L64.4316139,23.2910424 L67.1449436,16.116915 L67.1449436,16.116915 Z M70.4072965,7.98046405 C70.9264604,8.00965486 71.735547,8.15560889 72.5436704,8.15560889 C73.3517938,8.15560889 74.3621889,8.00965486 74.7956281,7.98046405 C73.4962736,10.8090533 71.5910672,15.212973 70.4939843,17.7506272 C69.4546933,20.1997359 67.7218995,24.2835298 66.3368202,28.2787783 C66.0189648,28.1902329 65.7300053,28.1318512 65.413113,28.1318512 C65.0663616,28.1318512 64.7774021,28.1902329 64.4595466,28.2787783 C63.7679702,25.8861052 62.0929683,22.0951923 59.1764037,15.5048811 L55.8283262,7.98046405 C56.2319063,8.03787264 56.6374128,8.15560889 57.1276808,8.15560889 C57.5890528,8.15560889 58.1371127,8.03787264 58.5137232,7.98046405 C58.9760584,9.64336703 59.8988025,12.0632849 60.8225097,14.309031 C61.9764213,14.3664396 63.1312961,14.4248212 64.2871341,14.4248212 C65.5286968,14.4248212 66.7413635,14.3664396 67.981963,14.309031 L69.1946297,11.2167515 L70.4072965,7.98046405 L70.4072965,7.98046405 Z" id="path145" transform="translate(65.311977, 18.129621) scale(1, -1) translate(-65.311977, -18.129621) "></path>
                        <path d="M51.0764835,22.7654133 C51.0764835,23.8736909 51.1044162,24.9819686 51.1333122,26.0328376 C53.1252064,26.0328376 55.1758557,26.0026738 56.8787903,25.828502 C56.7921025,26.2945818 56.7343106,26.5563261 56.7343106,26.877425 C56.7343106,27.1109514 56.7921025,27.4914049 56.8787903,27.9857026 C54.1076687,27.8407216 51.5667514,27.8115308 49.170314,27.8115308 C46.9472522,27.8115308 43.7426912,27.8407216 41.4618376,27.9857026 C41.5494886,27.6354129 41.6063173,27.2569055 41.6063173,26.9066158 C41.6063173,26.5563261 41.5494886,26.1778186 41.4618376,25.828502 C42.935531,25.973483 45.7066527,26.0328376 45.965753,26.0328376 L47.4095874,26.0328376 C47.4384833,24.8943961 47.4673793,23.8736909 47.4673793,22.7946041 L47.4962752,14.6591261 C47.4962752,12.4415978 47.3238627,10.1958517 47.2073157,7.98026944 C48.2466067,8.09605965 48.680046,8.15444126 49.170314,8.15444126 C49.5170654,8.15444126 50.4407726,8.06686884 51.2787551,7.98026944 C51.1911041,8.79566599 51.0764835,9.75896263 51.0764835,11.9745449 L51.0764835,22.7654133 L51.0764835,22.7654133 Z" id="path141" transform="translate(49.170314, 17.982986) scale(1, -1) translate(-49.170314, -17.982986) "></path>
                        <path d="M35.0037853,16.116915 C34.1080108,16.0575604 33.2430587,15.9991788 32.346321,15.9991788 C31.3368891,15.9991788 30.35539,16.0877242 29.3459581,16.116915 L32.2904555,23.2910424 L35.0037853,16.116915 L35.0037853,16.116915 Z M38.2661381,7.98046405 C38.785302,8.00965486 39.5943886,8.15560889 40.4015488,8.15560889 C41.2115986,8.15560889 42.2200673,8.00965486 42.6544698,7.98046405 C41.3551152,10.8090533 39.4499088,15.212973 38.3518627,17.7506272 C37.3125717,20.1997359 35.5807411,24.2835298 34.1956618,28.2787783 C33.8778064,28.1902329 33.5888469,28.1318512 33.2719546,28.1318512 C32.9252032,28.1318512 32.6362437,28.1902329 32.3193515,28.2787783 C31.6258486,25.8861052 29.9518099,22.0951923 27.0362085,15.5048811 L23.6862046,7.98046405 C24.0907479,8.03787264 24.4952913,8.15560889 24.9855592,8.15560889 C25.4469312,8.15560889 25.9969175,8.03787264 26.3716016,7.98046405 C26.8329737,9.64336703 27.7586073,12.0632849 28.6813513,14.309031 C29.8352629,14.3664396 30.9901377,14.4248212 32.1450126,14.4248212 C33.3865752,14.4248212 34.5992419,14.3664396 35.8417678,14.309031 L37.0525081,11.2167515 L38.2661381,7.98046405 L38.2661381,7.98046405 Z" id="path137" transform="translate(33.170337, 18.129621) scale(1, -1) translate(-33.170337, -18.129621) "></path>
                        <path d="M3.9548938,22.6015313 C3.9548938,29.9498305 7.85199432,31.9338324 10.7974549,31.9338324 C15.5315748,31.9338324 17.5812609,27.9668017 17.5812609,23.7380268 C17.5812609,21.3181088 17.2923014,19.0431719 16.1085306,17.2051241 C14.9247598,15.3690224 12.9627248,14.2597717 10.8253876,14.2597717 C5.48541598,14.2597717 3.9548938,19.3934616 3.9548938,22.6015313 L3.9548938,22.6015313 Z M18.3315924,7.580915 C19.1975077,8.19392195 20.5546542,8.95190991 21.5361533,9.38977202 L15.0124109,13.4735659 C19.024132,14.9019694 21.5361533,18.5187104 21.5361533,23.4470917 C21.5361533,30.4451012 16.2530103,33.4206175 10.8542836,33.4206175 C5.02404397,33.4206175 1.37249481e-06,30.1541662 1.37249481e-06,22.7465123 C1.37249481e-06,21.1731278 0.346752779,18.1976116 2.77112303,15.718339 C5.28314432,13.151494 8.25653763,12.7729866 10.7685589,12.7729866 C11.0854512,12.7729866 11.4023434,12.7729866 11.7211621,12.8012043 L18.3315924,7.580915 L18.3315924,7.580915 Z" id="path133" transform="translate(10.768077, 20.500766) scale(1, -1) translate(-10.768077, -20.500766) "></path>
                        <path d="M57.414136,32.7135144 C57.3669393,32.2474345 57.3563441,32.120941 57.1926004,31.61594 C57.5393518,31.4407952 58.1654307,31.1196963 58.9918549,31.1196963 C60.7535447,31.1196963 61.4364523,32.2561917 61.4364523,33.2486792 C61.4364523,33.5211267 61.3690284,34.0952126 60.9654483,34.5321017 C60.6861208,34.8434703 60.3971613,34.9495302 59.6564617,35.2414383 C58.8107736,35.5722674 58.3185792,35.7668728 58.3185792,36.4762094 C58.3185792,37.0493223 58.6942266,37.5261054 59.4541901,37.5261054 C60.0600419,37.5261054 60.5715002,37.2341974 60.7150167,36.6805451 L60.8498645,36.6805451 C60.9365524,37.0493223 60.9558163,37.1271644 61.148456,37.6039476 C60.6764888,37.8170405 60.2526815,38.0019156 59.5505099,38.0019156 C57.8080841,38.0019156 57.3081842,36.9130985 57.3081842,36.0587809 C57.3081842,35.2511685 57.5884749,34.7549248 58.5208509,34.3374963 C58.7895832,34.2207331 59.2432497,34.0465612 59.511982,33.928825 C59.6949897,33.8519559 60.3018046,33.5804813 60.3018046,32.8117901 C60.3018046,32.1112107 59.7999783,31.5955065 59.040978,31.5955065 C58.472691,31.5955065 57.9910918,31.7414605 57.5489838,32.7135144 L57.414136,32.7135144 L57.414136,32.7135144 Z" id="path129" transform="translate(59.314526, 34.560806) scale(1, -1) translate(-59.314526, -34.560806) "></path>
                        <path d="M54.5298385,33.587779 C54.5298385,33.6743784 54.5876304,33.7814114 54.6550543,33.8991477 C55.0595976,34.598754 55.4342818,35.3285242 55.867721,36.0281305 C56.0112376,36.261657 56.7143724,37.3884221 56.8598153,37.6511394 C56.7529003,37.6122183 56.6469485,37.5917848 56.455272,37.5917848 C56.2424052,37.5917848 56.0497655,37.6219486 55.8956538,37.6511394 C55.2031142,36.1147299 55.0490024,35.7848738 54.2322102,34.3652275 C53.4144548,35.8130916 53.0484395,36.5808098 52.5475763,37.6511394 C52.269212,37.6024881 51.9889213,37.5917848 51.7587169,37.5917848 C51.5468132,37.5917848 51.3252776,37.6122183 50.9698574,37.6511394 C51.4697574,36.805579 52.288476,35.4637749 52.7787439,34.6084843 L53.3460678,33.6169699 C53.3460678,33.0136932 53.3171718,31.740974 53.2892391,30.982986 C53.4712835,31.0024466 53.7409791,31.0403946 53.9326556,31.0403946 C54.1541912,31.0403946 54.37669,31.0024466 54.5982256,30.982986 C54.5587345,31.886928 54.5298385,32.4113895 54.5298385,33.2287321 L54.5298385,33.587779 L54.5298385,33.587779 Z" id="path125" transform="translate(53.914836, 34.317063) scale(1, -1) translate(-53.914836, -34.317063) "></path>
                        <path d="M49.4037932,33.6949093 C49.1052017,33.6744757 48.8172054,33.6559882 48.5176507,33.6559882 C48.1814945,33.6559882 47.8540071,33.685179 47.5178509,33.6949093 L48.4983868,36.0856364 L49.4037932,33.6949093 L49.4037932,33.6949093 Z M50.490281,30.9830833 C50.6646199,30.9928136 50.9343154,31.0404919 51.2030477,31.0404919 C51.4727433,31.0404919 51.8098627,30.9928136 51.9533793,30.9830833 C51.5209032,31.9259464 50.8851923,33.394244 50.5191769,34.2398044 C50.1724255,35.0552009 49.5954697,36.4164656 49.1340977,37.7485394 C49.0281459,37.7193486 48.931826,37.698915 48.8258742,37.698915 C48.7112536,37.698915 48.6139706,37.7193486 48.5080188,37.7485394 C48.2778144,36.9516304 47.7191593,35.6876684 46.7472922,33.4896006 L45.6309453,30.9830833 C45.7667563,31.0025439 45.9006408,31.0404919 46.0643846,31.0404919 C46.2184963,31.0404919 46.4005408,31.0025439 46.5267198,30.9830833 C46.6798683,31.5367356 46.989055,32.344348 47.2963152,33.0916326 C47.6806314,33.1120662 48.0659107,33.1305537 48.4502269,33.1305537 C48.8644022,33.1305537 49.2679823,33.1120662 49.6821576,33.0916326 L50.0867009,32.0611971 L50.490281,30.9830833 L50.490281,30.9830833 Z" id="path121" transform="translate(48.792162, 34.365811) scale(1, -1) translate(-48.792162, -34.365811) "></path>
                        <path d="M39.6937907,33.2571445 C39.2430138,34.6086789 38.6169349,36.5041353 38.3183434,37.651334 C38.0775438,37.6124129 37.8666034,37.5929524 37.6450678,37.5929524 C37.4139002,37.5929524 37.0864127,37.6309004 36.8937731,37.651334 C37.2886844,36.601438 37.6248406,35.6692782 37.8858674,34.9297778 C38.3289386,33.6658158 38.6169349,32.7900916 38.9636863,31.7226811 L39.2035227,30.9831806 C39.3383705,31.0113984 39.491519,31.0405892 39.598434,31.0405892 C39.7043858,31.0405892 39.8007057,31.0221017 39.9634862,30.9831806 C40.1175979,31.4881816 40.3006056,32.1099458 40.4364166,32.5088868 C40.8101376,33.6171645 40.8592607,33.7728488 41.3504918,35.1526009 L41.6384881,35.9592402 C41.7444399,35.6488446 41.9274476,35.1526009 42.0324363,34.8422053 C42.1383881,34.540567 42.6296192,33.0528089 42.745203,32.7219797 C42.8993148,32.2850906 42.9368795,32.1595702 43.2932629,30.9831806 C43.3799507,30.9929109 43.5619952,31.0405892 43.7074382,31.0405892 C43.842286,31.0405892 43.9472746,31.0113984 44.0917543,30.9831806 C44.4577697,32.1391366 44.4962976,32.2558998 45.0347255,33.8117698 C45.5644846,35.3287188 45.8910088,36.1927667 46.4679647,37.651334 C46.3234849,37.6124129 46.1809316,37.5929524 46.0354886,37.5929524 C45.8524809,37.5929524 45.6993324,37.6221432 45.5933806,37.651334 C45.2466292,36.3873721 45.0742166,35.7743651 44.7948891,34.939508 C44.3421859,33.5792164 44.284394,33.4235321 44.0060297,32.6840317 C43.6978062,33.5198618 43.3992147,34.3663952 43.1198872,35.2207128 C42.9667387,35.6877657 42.3782245,37.6309004 42.3695557,37.651334 C42.2356711,37.6221432 42.1383881,37.5929524 41.9457484,37.5929524 C41.7742991,37.5929524 41.6471569,37.6309004 41.5229043,37.651334 C41.2339448,36.4652142 40.2139178,33.6074342 40.1175979,33.3447169 L39.8767983,32.7132225 L39.6937907,33.2571445 L39.6937907,33.2571445 Z" id="path117" transform="translate(41.680869, 34.317257) scale(1, -1) translate(-41.680869, -34.317257) "></path>
                        <path d="M34.6816917,34.2872881 C35.5582022,34.4527027 36.3566937,35.007328 36.3566937,36.0854418 C36.3566937,36.4941131 36.2025819,36.8930541 35.9145856,37.1752319 C35.5013735,37.5731999 35.0284431,37.6510421 34.4033274,37.6510421 C34.1817918,37.6510421 33.0654449,37.6023908 32.8159765,37.6023908 C32.3247454,37.6023908 32.0743138,37.6306085 31.8537414,37.6510421 C31.9202021,36.3968104 31.9202021,36.2605867 31.9202021,34.9868944 C31.9202021,33.1118716 31.9105701,32.8978057 31.8344774,30.9828887 C32.046381,31.0111065 32.2775486,31.0402973 32.4971579,31.0402973 C32.7389207,31.0402973 32.9498611,31.0023493 33.1425008,30.9828887 C33.1425008,31.2349027 33.1039728,32.4891344 33.1039728,32.7713122 L33.1039728,34.1510643 L33.3351404,34.1510643 C33.8552675,33.4125369 34.4505241,32.5572463 34.9417553,31.788555 C35.086235,31.5657318 35.2981387,31.2057119 35.4426184,30.9828887 C35.7315779,31.0218098 35.8471617,31.0402973 36.2228091,31.0402973 C36.5685973,31.0402973 36.8093969,31.0111065 37.0781292,30.9828887 C36.4722775,31.7496339 36.2112507,32.0901933 35.4522504,33.1692802 C35.3077707,33.3736158 35.095867,33.6947147 34.9513873,33.8980773 L34.6816917,34.2872881 L34.6816917,34.2872881 Z M33.1039728,37.1256076 C33.2484526,37.1363109 33.604836,37.1752319 33.7878437,37.1752319 C34.1047359,37.1752319 34.4235546,37.1256076 34.6816917,36.9310022 C35.0188111,36.6789882 35.086235,36.3286985 35.086235,35.9200272 C35.086235,35.2895058 34.7308148,34.5782231 33.7685797,34.5782231 C33.5181481,34.5782231 33.2869805,34.5986567 33.1039728,34.608387 L33.1039728,37.1256076 L33.1039728,37.1256076 Z" id="path113" transform="translate(34.456303, 34.316965) scale(1, -1) translate(-34.456303, -34.316965) "></path>
                        <path d="M28.9588487,35.4053933 C28.9588487,33.7434634 28.9588487,32.138942 28.8528969,30.982986 C29.0657637,30.9917433 29.3344961,31.0403946 29.5454365,31.0403946 C29.7669721,31.0403946 29.9981397,30.9917433 30.2196754,30.982986 C30.1426195,31.7701648 30.1233555,32.8200608 30.1233555,34.2679249 C30.1233555,35.250682 30.1233555,36.9310995 30.2293074,37.6511394 C29.9981397,37.6219486 29.7583034,37.5917848 29.5454365,37.5917848 C29.40192,37.5917848 29.0445734,37.6307058 28.8625289,37.6511394 C28.9588487,36.7092494 28.9588487,36.0184003 28.9588487,35.4053933" id="path109" transform="translate(29.541102, 34.317063) scale(1, -1) translate(-29.541102, -34.317063) "></path>
                        <path d="M25.5647304,33.6949093 C25.2671021,33.6744757 24.9781426,33.6559882 24.6795511,33.6559882 C24.3424317,33.6559882 24.0159074,33.685179 23.678788,33.6949093 L24.6602871,36.0856364 L25.5647304,33.6949093 L25.5647304,33.6949093 Z M26.6521813,30.9830833 C26.825557,30.9928136 27.0952526,31.0404919 27.3639849,31.0404919 C27.6336804,31.0404919 27.9707999,30.9928136 28.1152796,30.9830833 C27.6818404,31.9259464 27.0461294,33.394244 26.6810773,34.2398044 C26.3343259,35.0552009 25.7573701,36.4164656 25.295998,37.7485394 C25.1900462,37.7193486 25.0927632,37.698915 24.9877746,37.698915 C24.8721908,37.698915 24.7758709,37.7193486 24.6699191,37.7485394 C24.4397147,36.9516304 23.8800965,35.6876684 22.9091925,33.4896006 L21.7928456,30.9830833 C21.9267302,31.0025439 22.0625412,31.0404919 22.2253217,31.0404919 C22.3794334,31.0404919 22.5634043,31.0025439 22.6876569,30.9830833 C22.8408054,31.5367356 23.1490289,32.344348 23.4562892,33.0916326 C23.8415685,33.1120662 24.2268479,33.1305537 24.611164,33.1305537 C25.0253393,33.1305537 25.4298826,33.1120662 25.8450211,33.0916326 L26.247638,32.0611971 L26.6521813,30.9830833 L26.6521813,30.9830833 Z" id="path105" transform="translate(24.954063, 34.365811) scale(1, -1) translate(-24.954063, -34.365811) "></path>
                    </g>
                </g>
            </g>
        </g>
    </g>
</svg>