<?xml version="1.0" encoding="UTF-8" standalone="no"?>
<svg width="140px" height="48px" viewBox="0 0 140 48" version="1.1" xmlns="http://www.w3.org/2000/svg" xmlns:xlink="http://www.w3.org/1999/xlink" xmlns:sketch="http://www.bohemiancoding.com/sketch/ns">
    <!-- Generator: Sketch 3.1.1 (8761) - http://www.bohemiancoding.com/sketch -->
    <title>redcross_default</title>
    <desc>Created with Sketch.</desc>
    <defs></defs>
    <g id="Clients" stroke="none" stroke-width="1" fill="none" fill-rule="evenodd" sketch:type="MSPage">
        <g sketch:type="MSArtboardGroup" transform="translate(-442.000000, -1174.000000)" id="Group" fill="#F3F1EF">
            <g sketch:type="MSLayerGroup" transform="translate(235.000000, 972.000000)">
                <g id="Red-Cross" transform="translate(207.000000, 202.000000)" sketch:type="MSShapeGroup">
                    <g id="redcross_default">
                        <path d="M110.84352,45.0815739 L108,45.0815739 L108,37 L110.9521,37 L110.9521,40.7922324 L110.9521,40.7985449 C110.966262,41.3051228 111.005602,42.6512627 112.974193,42.6512627 C113.155159,42.6512627 113.447851,42.6386377 113.625669,42.6260127 L113.625669,45.2062457 C112.517845,45.1999332 111.850633,44.9979333 111.022912,44.256215 L110.84352,44.0984026 L110.84352,45.0815739 L110.84352,45.0815739 Z" id="path6003" transform="translate(110.812835, 41.103123) scale(1, -1) translate(-110.812835, -41.103123) "></path>
                        <path d="M138.717757,42.0089661 C138.341664,42.2046535 138.006484,42.2819816 136.594952,42.603919 L136.533581,42.6197002 C135.482407,42.8800907 135.230629,42.935325 135.230629,43.2683092 C135.230629,43.4671529 135.334488,43.7954027 136.020583,43.7954027 C136.86404,43.7954027 137.617801,43.3361686 138.154404,43.0016063 C138.259836,43.0978718 139.583245,44.3098712 139.748474,44.4566367 C139.362939,44.7485897 138.761819,45.2062457 137.754706,45.4476987 C137.131555,45.591308 136.549318,45.6623236 135.971801,45.6623236 C134.771134,45.6623236 133.845849,45.3324957 133.219551,44.7359647 C132.730157,44.2593712 132.450054,43.5350122 132.450054,42.9006063 C132.450054,41.270404 133.837981,40.8222168 134.580727,40.6044356 C135.298295,40.3913889 135.954492,40.2824983 136.234595,40.2367327 C136.547744,40.1909671 137.128407,40.1152171 137.128407,39.6449361 C137.128407,39.2298895 136.656323,39.0420927 136.18896,39.0420927 C135.759363,39.0420927 135.33134,39.1304676 134.87814,39.31353 C134.295903,39.5628737 133.918235,39.8800766 133.638132,40.1546702 C133.507522,40.0331547 132.157361,38.7880147 132,38.6444054 C132.659344,38.106265 133.985901,37 136.218859,37 C138.77126,37 139.910557,38.448718 139.910557,39.9700297 C139.910557,40.8411543 139.487255,41.5939195 138.717757,42.0089661" id="path5999" transform="translate(135.955278, 41.331162) scale(1, -1) translate(-135.955278, -41.331162) "></path>
                        <path d="M129.717757,42.0089661 C129.34009,42.2046535 129.00491,42.2819816 127.596526,42.603919 L127.533581,42.6197002 C126.480834,42.8800907 126.230629,42.935325 126.230629,43.2683092 C126.230629,43.4671529 126.332914,43.7954027 127.020583,43.7954027 C127.86404,43.7954027 128.617801,43.3361686 129.15283,43.0016063 C129.259836,43.0978718 130.583245,44.3098712 130.746901,44.4566367 C130.362939,44.7485897 129.761819,45.2062457 128.753132,45.4476987 C128.131555,45.591308 127.547744,45.6623236 126.971801,45.6623236 C125.771134,45.6623236 124.845849,45.3324957 124.219551,44.7359647 C123.730157,44.2593712 123.44848,43.5350122 123.44848,42.9006063 C123.44848,41.270404 124.834834,40.8222168 125.5823,40.6044356 C126.298295,40.3913889 126.954492,40.2824983 127.234595,40.2367327 C127.54617,40.1909671 128.129981,40.1152171 128.129981,39.6449361 C128.129981,39.2298895 127.656323,39.0420927 127.18896,39.0420927 C126.759363,39.0420927 126.33134,39.1304676 125.879713,39.31353 C125.295903,39.5628737 124.916662,39.8800766 124.638132,40.1546702 C124.507522,40.0331547 123.157361,38.7880147 123,38.6444054 C123.659344,38.106265 124.987474,37 127.218859,37 C129.769687,37 130.91213,38.448718 130.91213,39.9700297 C130.91213,40.8411543 130.487255,41.5939195 129.717757,42.0089661" id="path5995" transform="translate(126.956065, 41.331162) scale(1, -1) translate(-126.956065, -41.331162) "></path>
                        <path d="M118.543023,39.1209989 C117.159817,39.1209989 116.950526,40.5192169 116.950526,41.3524665 C116.950526,42.1525754 117.156669,43.5002935 118.522566,43.5350122 C118.952163,43.5492153 119.301505,43.4261217 119.565872,43.1704655 C119.93095,42.8153876 120.116637,42.2141223 120.116637,41.384029 C120.116637,39.5139518 119.260591,39.1209989 118.543023,39.1209989 M121.896394,44.5213398 C121.545478,44.854324 120.522629,45.6560111 118.618557,45.6733705 C117.181847,45.6812611 115.987474,45.2314957 115.167621,44.4124493 C114.402845,43.6517934 114,42.5060753 114,41.2593572 C114,40.1373109 114.369799,39.0326239 115.040159,38.3098431 C115.817524,37.4671248 116.996161,37 118.45018,37 C119.880595,37 121.073394,37.4276717 121.896394,38.1962181 C122.692643,38.9410927 123.112798,40.0726078 123.112798,41.3067009 C123.112798,42.5123878 122.648582,43.798559 121.896394,44.5213398" id="path5991" transform="translate(118.556399, 41.336736) scale(1, -1) translate(-118.556399, -41.336736) "></path>
                        <path d="M99.8207344,38.7022793 C99.4745393,39.2625134 99.2904265,40.0389505 99.2904265,40.94795 C99.2904265,41.3724654 99.2904265,42.6665273 100.141752,43.48873 C100.373073,43.7191361 100.879776,44.1089328 101.683893,44.1089328 C103.156796,44.1089328 103.762637,42.8748397 104.036446,42.2341212 C104.220559,42.3272306 106.5857,43.5092456 106.765092,43.5991987 C106.554228,43.9858391 106.259962,44.4908388 105.838234,44.924823 C104.755587,46.043713 103.229182,46.6812752 101.545415,46.6812752 C99.8632219,46.6812752 98.4359542,46.0279318 97.4178261,44.8348699 C96.5177189,43.7791048 96,42.2341212 96,40.7475283 C96,39.2751384 96.476805,37.8185298 97.340719,36.8069522 C98.3368165,35.6375622 99.7924093,35 101.545415,35 C103.194562,35 104.672186,35.5823278 105.702903,36.601796 C106.186002,37.084702 106.527476,37.7096392 106.782402,38.1909671 C106.60301,38.2777639 104.201675,39.4439977 104.011268,39.5355289 C103.485681,38.0899671 102.451817,37.6796549 101.701203,37.6796549 C100.873482,37.6796549 100.239316,38.0236859 99.8207344,38.7022793" id="path5987" transform="translate(101.391201, 40.840638) scale(1, -1) translate(-101.391201, -40.840638) "></path>
                        <path d="M136.314094,25.396654 L136.314094,21 L139.28193,21 L139.28193,26.0784036 C139.28193,26.5092315 139.28193,27.7685746 138.510859,28.5244961 C138.016744,28.9916208 137.338516,29.2393863 136.466734,29.2393863 C134.790836,29.2393863 134.280985,28.4234961 134.005602,28.0321213 L133.796312,27.735434 L133.796312,29.0358083 L131,29.0358083 L131,21 L133.966262,21 L133.966262,25.2861853 C133.966262,25.6396851 133.981998,26.7128095 135.166929,26.7128095 C136.358155,26.7128095 136.314094,25.7548882 136.314094,25.396654" id="path5983" transform="translate(135.140965, 25.119693) scale(1, -1) translate(-135.140965, -25.119693) "></path>
                        <path d="M124.452509,24.3819201 L124.455656,24.3819201 L124.45723,24.3834982 C124.709008,24.4702951 124.957639,24.5271075 125.198402,24.58392 L125.281803,24.6028575 C125.591805,24.6912325 125.892365,24.7969668 126.183484,24.8979667 L126.361302,24.9610917 L126.361302,24.8095918 C126.361302,24.5286857 126.361302,24.2462014 126.197646,23.8863891 C125.893939,23.2125301 125.09769,22.9521396 124.631901,22.9521396 C123.977277,22.9521396 123.734941,23.3119519 123.734941,23.592858 C123.734941,23.7159517 123.78687,24.1152171 124.452509,24.3819201 M123.782149,21 C125.2283,21 125.95531,21.5049997 126.345566,21.7764371 L126.531253,21.9042652 L126.531253,21.1735937 L129.36061,21.1735937 C129.209543,21.4245154 129.17335,21.6249372 129.17335,22.0683901 L129.17335,26.5455284 C129.17335,27.0126531 129.17335,27.7196528 128.720149,28.3035587 C128.174105,29.0074021 127.083591,29.4697925 125.480079,29.4697925 C124.26997,29.4697925 123.346258,29.2314957 122.658589,28.8732615 C121.616857,28.3240743 121.388683,27.4987154 121.273809,26.8011845 C121.509851,26.807497 123.886008,26.8706219 124.038648,26.8737782 C124.166111,27.5129185 124.472966,27.722809 125.187386,27.722809 C126.150438,27.722809 126.358155,27.315653 126.375465,26.7033408 L126.378612,26.6181221 L126.298358,26.5960283 C125.812111,26.4555753 125.46749,26.3766691 124.583119,26.2535754 C123.245547,26.0752474 122.36275,25.9600443 121.648329,25.2309509 C121.218732,24.7985449 121,24.2462014 121,23.5881237 C121,22.3887493 121.733304,21 123.782149,21" id="path5979" transform="translate(125.180305, 25.234896) scale(1, -1) translate(-125.180305, -25.234896) "></path>
                        <path d="M119.452635,22.3382493 C119.806698,22.6933272 120.036446,23.0862802 120.223706,23.4808112 C120.066344,23.567608 118.126079,24.63442 117.93095,24.7417324 C117.767295,24.214639 117.378612,23.33878 116.418708,23.33878 C115.743627,23.33878 114.937937,23.6764986 114.937937,25.2909196 C114.937937,26.693872 115.534337,27.5665747 116.495815,27.5665747 C117.185058,27.5665747 117.674451,27.1499499 117.92623,26.2882941 C118.127652,26.4019191 120.050608,27.4908247 120.218985,27.5886684 C120.064771,27.8411683 119.861775,28.1204963 119.587966,28.3935118 C118.387298,29.616558 116.840436,29.7033548 116.341601,29.7033548 C114.975704,29.7033548 113.858438,29.222027 113.112545,28.4408555 C112.405992,27.7149184 112,26.5770908 112,25.3824508 C112,22.7848584 113.631838,21 116.155914,21 C117.938819,21 118.999434,21.8695464 119.452635,22.3382493" id="path5975" transform="translate(116.111853, 25.351677) scale(1, -1) translate(-116.111853, -25.351677) "></path>
                        <path d="M108,20.9195173 L111.191296,20.9195173 L111.191296,28.9663783 L108,28.9663783 L108,20.9195173 L108,20.9195173 Z M108,18 L111.191296,18 L111.191296,20.1273098 L108,20.1273098 L108,18 L108,18 Z" id="path5971"></path>
                        <path d="M47.1454716,31.5997708 L31.5294046,31.5997708 L31.5294046,47.2593553 L15.914576,47.2593553 L15.914576,31.5997708 L0.298508928,31.5997708 L0.298508928,15.9401862 L15.914576,15.9401862 L15.914576,0.279359776 L31.5294046,0.279359776 L31.5294046,15.9401862 L47.1454716,15.9401862 L47.1454716,31.5997708 L47.1454716,31.5997708 Z" id="path6007" transform="translate(23.721990, 23.769358) scale(1, -1) translate(-23.721990, -23.769358) "></path>
                        <path d="M103.84352,29.0815739 L101,29.0815739 L101,21 L103.950526,21 L103.950526,24.7922324 L103.950526,24.7969668 C103.966262,25.3051228 104.004029,26.6481064 105.974193,26.6481064 C106.155159,26.6481064 106.446277,26.6386377 106.624096,26.6275908 L106.624096,29.2046676 C105.516272,29.2015114 104.849059,28.9979333 104.022912,28.2577931 L103.84352,28.0984026 L103.84352,29.0815739 L103.84352,29.0815739 Z" id="path5969" transform="translate(103.812048, 25.102334) scale(1, -1) translate(-103.812048, -25.102334) "></path>
                        <path d="M94.0638261,26.5392159 C94.137786,26.8864032 94.3360613,27.7543715 95.3730728,27.7543715 C95.845157,27.7543715 96.3896273,27.4750435 96.5406943,26.8501063 L96.578461,26.6402158 L96.6020652,26.3987628 L94.0323538,26.3987628 L94.0638261,26.5392159 L94.0638261,26.5392159 Z M97.0253673,24.2556702 C96.6838931,23.5123737 96.1520116,23.1541395 95.4785049,23.1541395 C95.1905336,23.1541395 94.7782468,23.2219988 94.4462143,23.5565612 C94.0638261,23.9384672 94.0433691,24.342467 94.027633,24.7022793 L94.0229121,24.8237949 L99.6171093,24.8237949 C99.585637,26.0247474 99.5384286,27.3077623 98.4321781,28.4045586 C97.442375,29.3656363 96.1803367,29.6749486 95.2943921,29.6749486 C92.7246807,29.6749486 91,27.8790433 91,25.3682477 C91,24.2304202 91.3776673,23.1841239 92.0684838,22.4187336 C92.8427018,21.5618122 93.9646884,21 95.3085546,21 C97.1119161,21 98.5077115,21.8695464 99.4534534,23.2440926 C99.2378684,23.3324675 97.1827287,24.189389 97.0253673,24.2556702 L97.0253673,24.2556702 Z" id="path5965" transform="translate(95.308555, 25.337474) scale(1, -1) translate(-95.308555, -25.337474) "></path>
                        <path d="M81.3140939,25.8180131 C81.3455661,25.6554663 81.3613023,25.4913414 81.3613023,25.333529 L81.3613023,21 L84.3275643,21 L84.3275643,25.2861853 C84.3275643,25.4566227 84.3275643,25.8085444 84.4943674,26.121013 C84.69579,26.5013409 85.01366,26.6954502 85.5534095,26.6954502 C86.7729602,26.6954502 86.7304726,25.6917632 86.7304726,25.2088572 L86.7304726,21 L89.6951611,21 C89.6951611,21.2067343 89.6967347,26.1825598 89.6967347,26.1825598 L89.6951611,26.1888723 C89.6809986,26.9290125 89.6636888,27.7669965 88.9697251,28.4487461 C88.4819048,28.9395427 87.6982451,29.2204488 86.8217422,29.2204488 C84.9192431,29.2204488 84.3889353,28.2088712 84.239442,27.8711527 L84.149746,27.6628403 L84.0474611,27.8648402 C83.8397441,28.2641056 83.5596408,28.7233397 82.5493807,29.0389646 C82.075723,29.1888864 81.6445528,29.2204488 81.3628759,29.2204488 C79.7137286,29.2204488 79.2951473,28.434543 79.0433691,28.0242307 L78.827784,27.6738872 L78.827784,29.0200271 L76,29.0200271 L76,21 L78.9678357,21 L78.9678357,25.3682477 L78.9709829,25.4203258 C78.9851454,25.6933413 79.0040288,26.032638 79.3077363,26.3387941 C79.532763,26.566044 79.8128663,26.6954502 80.1858128,26.6954502 C80.6563233,26.6954502 81.1677478,26.4666222 81.3140939,25.8180131" id="path5961" transform="translate(82.848367, 25.110224) scale(1, -1) translate(-82.848367, -25.110224) "></path>
                        <path d="M67.6972373,21.9768729 L69.0001895,26.2030895 L70.2700959,21.9768729 L67.6972373,21.9768729 L67.6972373,21.9768729 Z M71.4566007,18 L74.93114,18 C74.8241343,18.2809061 70.9105567,28.8101506 70.860201,28.9474474 L67.168503,28.9474474 C67.1181474,28.8117288 63.1085794,18.2840624 63,18 L66.4713921,18 L66.989111,19.6380929 L70.9467498,19.6380929 L71.4566007,18 L71.4566007,18 Z" id="path5957" transform="translate(68.965570, 23.473724) scale(1, -1) translate(-68.965570, -23.473724) "></path>
                        <path d="M77.0638261,42.5392159 C77.1393596,42.8864032 77.3360613,43.7512152 78.3730728,43.7512152 C78.845157,43.7512152 79.3896273,43.4734654 79.5438415,42.8485282 L79.578461,42.6417939 L79.6020652,42.3987628 L77.0339274,42.3987628 L77.0638261,42.5392159 L77.0638261,42.5392159 Z M80.0269409,40.2572483 C79.6854667,39.5139518 79.1535853,39.1525614 78.4800785,39.1525614 C78.1921072,39.1525614 77.7798204,39.2219988 77.4462143,39.5565612 C77.0638261,39.9400453 77.0449427,40.3408889 77.0307802,40.7007012 L77.0244858,40.8237949 L82.6171093,40.8237949 C82.5887842,42.0231693 82.5415758,43.3061842 81.4337517,44.4045586 C80.4439486,45.3656363 79.1803367,45.6749486 78.2959657,45.6749486 C75.7262544,45.6749486 74,43.8790433 74,41.3682477 C74,40.2288421 74.3792409,39.1841239 75.0684838,38.4187336 C75.8442754,37.5618122 76.9631148,37 78.3101283,37 C80.1134897,37 81.5108588,37.8695464 82.4534534,39.2425145 C82.2362947,39.3340457 80.1843023,40.189389 80.0269409,40.2572483 L80.0269409,40.2572483 Z" id="path5953" transform="translate(78.308555, 41.337474) scale(1, -1) translate(-78.308555, -41.337474) "></path>
                        <path d="M87.2644935,41.2872467 C87.6815011,41.2872467 88.2527229,41.0237 88.4777497,40.2835598 C88.5847555,39.9616224 88.606786,39.6365288 88.606786,39.2435759 C88.606786,38.825373 88.606786,38.0520922 88.1583061,37.5865455 C87.9112487,37.3403582 87.5902315,37.198327 87.278656,37.198327 C86.940329,37.198327 86.6177382,37.3356238 86.3974322,37.5739205 C86.076415,37.9195297 85.9206273,38.4608263 85.9206273,39.2277947 C85.9206273,39.5923414 85.9505259,39.9016537 86.0150441,40.1967629 L86.0150441,40.198341 L86.0150441,40.2014973 C86.2951473,41.2083405 87.0426139,41.2872467 87.2644935,41.2872467 M83,39.3982321 C83,36.7895928 84.369044,35 86.4902755,35 C86.9324609,35 87.3148491,35.063125 87.6578969,35.1941093 C88.0906407,35.3598123 88.2369868,35.5255154 88.4352621,35.7527652 L88.6240958,35.9689682 L88.6240958,35.2004218 L91.4975146,35.2004218 L91.4975146,46.1368223 L88.5312526,46.1368223 L88.5312526,42.7738397 L88.5312526,42.5323867 L88.3188147,42.7217616 C87.9977975,43.0152927 87.5115508,43.4571675 86.3832697,43.4571675 C84.6995029,43.4571675 83,42.1283869 83,39.3982321" id="path5949" transform="translate(87.248757, 40.568411) scale(1, -1) translate(-87.248757, -40.568411) "></path>
                        <path d="M68.7869332,41.1026062 L67.2432181,41.1026062 L67.2432181,43.7664798 L68.7711971,43.7664798 C69.3077994,43.7664798 70.5635432,43.7585892 70.5635432,42.4376993 C70.5635432,41.0899812 69.2731799,41.1026062 68.7869332,41.1026062 L68.7869332,41.1026062 Z M71.5045643,39.4645133 L71.693398,39.5402633 C72.1764974,39.7343725 72.5919315,39.8984975 72.9900558,40.3261691 C73.5235108,40.8690438 73.7925988,41.6281216 73.7925988,42.4913555 C73.7925988,43.5960424 73.3157938,45.0447604 71.9750748,45.6160414 C71.2700959,45.9143068 70.1921704,45.9506037 69.3282564,45.9506037 L64,45.9506037 L64,35 L67.2432181,35 L67.2432181,38.9626698 L68.4328701,38.9626698 L70.6154725,35 L74.1907231,35 C74.0081839,35.3029998 71.5690825,39.3572009 71.5690825,39.3572009 L71.5045643,39.4645133 L71.5045643,39.4645133 Z" id="path5945" transform="translate(69.095362, 40.475302) scale(1, -1) translate(-69.095362, -40.475302) "></path>
                    </g>
                </g>
            </g>
        </g>
    </g>
</svg>