<?xml version="1.0" encoding="UTF-8" standalone="no"?>
<svg width="141px" height="52px" viewBox="0 0 141 52" version="1.1" xmlns="http://www.w3.org/2000/svg" xmlns:xlink="http://www.w3.org/1999/xlink" xmlns:sketch="http://www.bohemiancoding.com/sketch/ns">
    <!-- Generator: Sketch 3.1.1 (8761) - http://www.bohemiancoding.com/sketch -->
    <title>verizon_default</title>
    <desc>Created with Sketch.</desc>
    <defs>
        <path id="path-1" d="M12.5598601,28.5992308 L13.7926923,28.1480769 L14.5981818,30.3670673 L11.1566783,31.6273558 L-0.0420979021,0.818697115 L2.1793007,0.0186346154 L12.5598601,28.5992308"></path>
        <linearGradient x1="48.1010078%" y1="45.6116599%" x2="33.2436417%" y2="10.8138769%" id="linearGradient-3">
            <stop stop-color="#F3F1EF" offset="0%"></stop>
            <stop stop-color="#FFFFFF" offset="100%"></stop>
        </linearGradient>
        <path id="path-4" d="M2.5248951,28.5992308 L80.9307692,0.0102980769 L81.736014,2.22757212 L1.12171329,31.6273558 L-0.0293706294,28.4521154 L2.18003497,27.6429808 L2.5248951,28.5992308"></path>
        <linearGradient x1="58.0519453%" y1="46.4361139%" x2="90.0167911%" y2="32.3216365%" id="linearGradient-6">
            <stop stop-color="#F3F1EF" offset="0%"></stop>
            <stop stop-color="#FFFFFF" offset="100%"></stop>
        </linearGradient>
        <path id="path-7" d="M-0.0881118881,16.0453846 L0.440559441,13.0638462 L7.81993007,3.32971154 L2.04125874,3.32971154 L2.6506993,-0.0514903846 L13.6891608,-0.0514903846 L13.1482517,2.93004808 L5.73461538,12.6617308 L12.0444056,12.6617308 L38.663986,12.6617308 L38.079021,16.0453846 L11.4447552,16.0453846 L-0.0881118881,16.0453846"></path>
        <linearGradient x1="52.2535295%" y1="50.6388871%" x2="95.2803569%" y2="62.0880422%" id="linearGradient-9">
            <stop stop-color="#F3F1EF" offset="0%"></stop>
            <stop stop-color="#FFFFFF" offset="100%"></stop>
        </linearGradient>
    </defs>
    <g id="Clients" stroke="none" stroke-width="1" fill="none" fill-rule="evenodd" sketch:type="MSPage">
        <g sketch:type="MSArtboardGroup" transform="translate(-857.000000, -1169.000000)" id="Group">
            <g sketch:type="MSLayerGroup" transform="translate(235.000000, 972.000000)">
                <g id="Verizon" transform="translate(622.000000, 197.000000)">
                    <g id="verizon_default">
                        <g id="g7">
                            <g id="g9" transform="translate(85.664336, 35.062500)" fill="#F3F1EF" sketch:type="MSShapeGroup">
                                <path d="M5.21573427,5.09019231 L5.24755245,5.09019231 L5.8006993,11.6637981 L7.27657343,11.6637981 L11.2416084,3.17769231 L9.81713287,3.17769231 L6.91678322,9.84692308 L6.88496503,9.84692308 L6.41503497,3.17769231 L4.82657343,3.17769231 L2.00944056,9.84692308 L1.97517483,9.84692308 L1.53951049,3.17769231 L-0.0171328671,3.17769231 L0.925174825,11.6637981 L2.40104895,11.6637981 L5.21573427,5.09019231" id="polyline6"></path>
                                <path d="M13.6402098,3.17769231 L12.214021,3.17769231 L10.7097552,11.6640433 L12.1366783,11.6640433 L13.6419231,3.1779375 L13.6402098,3.17769231 Z M13.9136014,1.63567788 L14.2006993,0.0142211538 L12.7752448,0.0142211538 L12.4869231,1.63567788 L13.9150699,1.63567788 L13.9136014,1.63567788 Z" id="path8"></path>
                                <path d="M16.4426573,6.73052885 C16.6622028,5.4984375 17.6882168,4.45906731 19.0165035,4.45906731 L19.551049,4.45906731 L19.8136713,2.98276442 C19.705,2.95039904 19.6274126,2.93372596 19.4494755,2.93372596 C18.3798951,2.93372596 17.5163986,3.59893269 16.7747902,4.58877404 L16.7415035,4.58877404 L16.9918881,3.17695673 L15.6474476,3.17695673 L14.1431818,11.6633077 L15.5688811,11.6633077 L16.4451049,6.73003846" id="path10"></path>
                                <path d="M24.9283217,9.00346154 C24.768007,9.63654808 23.7909441,10.6754279 22.446014,10.6754279 C20.8086014,10.6754279 20.1641608,9.65175 20.4776923,7.88415865 L26.6663287,7.88415865 C27.1972028,4.88153365 26.343986,2.93421635 23.8986364,2.93421635 C21.0954545,2.93421635 19.4607343,5.0266875 18.9952098,7.65686538 C18.5602797,10.1073173 19.6511538,11.9085 22.0323776,11.9085 C23.3927273,11.9085 24.0019231,11.5841106 24.4353846,11.3239615 C25.631993,10.6106971 26.2333566,9.40900962 26.3537762,9.00346154 L24.9246503,9.00346154 L24.9283217,9.00346154 Z M20.6754545,6.74524038 C20.9082168,5.42929327 22.1603846,4.21289423 23.472028,4.21289423 C25.2051399,4.21289423 25.5409441,5.42929327 25.3884615,6.74524038 L20.6752098,6.74524038 L20.6754545,6.74524038 Z" id="path12"></path>
                                <path d="M30.8954545,0.0122596154 L29.4685315,0.0122596154 L27.4052448,11.6637981 L28.8321678,11.6637981 L30.8954545,0.0122596154" id="polyline14"></path>
                                <path d="M36.8821678,9.00346154 C36.7211189,9.63654808 35.7430769,10.6754279 34.3993706,10.6754279 C32.7624476,10.6754279 32.1177622,9.65175 32.4308042,7.88415865 L38.6174825,7.88415865 C39.1505594,4.88153365 38.2961189,2.93421635 35.850035,2.93421635 C33.0473427,2.93421635 31.4140909,5.0266875 30.9480769,7.65686538 C30.5133916,10.1073173 31.6045105,11.9085 33.9854895,11.9085 C35.3470629,11.9085 35.9538112,11.5841106 36.3884965,11.3239615 C37.5841259,10.6106971 38.1854895,9.40900962 38.3059091,9.00346154 L36.8809441,9.00346154 L36.8821678,9.00346154 Z M32.6324825,6.74524038 C32.8645105,5.42929327 34.1166783,4.21289423 35.4293007,4.21289423 C37.1626573,4.21289423 37.4984615,5.42929327 37.3454895,6.74524038 L32.6307692,6.74524038 L32.6324825,6.74524038 Z" id="path16"></path>
                                <path d="M46.5891608,5.59528846 C46.6640559,5.17282212 46.8495804,2.93372596 43.8207343,2.93372596 C42.1524825,2.93372596 40.4641608,3.77841346 40.133007,5.64334615 C39.9264336,6.81217788 40.5973077,7.41240865 41.7288112,7.70541346 L43.3091958,8.11047115 C44.4681119,8.41941346 44.8981469,8.64597115 44.7782168,9.32687019 C44.6103147,10.2686538 43.6156294,10.6749375 42.5952448,10.6749375 C40.5867832,10.6749375 40.5809091,9.60344712 40.6516434,8.93725962 L39.2748951,8.93725962 C39.1417483,9.96069231 39.0396853,11.9075192 42.3938112,11.9075192 C44.3041259,11.9075192 45.9337063,10.8529471 46.2435664,9.09982212 C46.4474476,7.94766346 45.9466783,7.29912981 44.2590909,6.86048077 L42.8972727,6.50421635 C41.8443357,6.22788462 41.4358392,6.06507692 41.5594406,5.36824038 C41.7466783,4.3126875 43.0194056,4.16679808 43.4562937,4.16679808 C45.2542657,4.16679808 45.2902448,5.05954327 45.2129021,5.59528846 L46.5901399,5.59528846" id="path18"></path>
                                <path d="M54.365035,5.59528846 C54.4396853,5.17282212 54.6264336,2.93372596 51.5966084,2.93372596 C49.9288462,2.93372596 48.2395455,3.77841346 47.9086364,5.64334615 C47.7020629,6.81217788 48.3729371,7.41240865 49.503951,7.70541346 L51.0843357,8.11047115 C52.2447203,8.41941346 52.6737762,8.64597115 52.5533566,9.32687019 C52.3866783,10.2686538 51.3922378,10.6749375 50.3711189,10.6749375 C48.3624126,10.6749375 48.3572727,9.60344712 48.427028,8.93725962 L47.0505245,8.93725962 C46.9181119,9.96069231 46.8162937,11.9075192 50.168951,11.9075192 C52.080979,11.9075192 53.7095804,10.8529471 54.0191958,9.09982212 C54.2228322,7.94766346 53.7225524,7.29912981 52.0352098,6.86048077 L50.6726573,6.50421635 C49.6209441,6.22788462 49.2114685,6.06507692 49.3350699,5.36824038 C49.5220629,4.3126875 50.7952797,4.16679808 51.2319231,4.16679808 C53.0318531,4.16679808 53.0670979,5.05954327 52.989021,5.59528846 L54.3677273,5.59528846" id="path20"></path>
                            </g>
                            <path d="M43.6374126,46.6699038 L39.0227972,46.6699038 L41.0718881,35.0083125 L45.698007,35.0083125 L43.6374126,46.6699038 Z M29.341014,41.8859567 L20.5246853,41.8859567 C20.2843357,43.2644279 21.1926224,44.17875 22.412972,44.17875 C23.1386713,44.17875 23.8624126,43.8455337 24.3232867,43.1543365 L28.7438112,43.1543365 C27.4316783,46.047851 24.3347902,47.0036106 21.6194755,47.0036106 C17.8896503,47.0036106 15.3818881,44.8679856 16.0720979,40.9512837 C16.7383217,37.1221154 20.0425175,34.6738702 23.7725874,34.6738702 C28.0753846,34.6738702 30.1582517,37.6578606 29.3407692,41.884976 L29.341014,41.8859567 Z M20.9385664,39.5272067 L25.1402797,39.5272067 C25.3238462,38.4579231 24.5408741,37.5016731 23.4487762,37.5016731 C22.0781469,37.5016731 21.1578671,38.2813846 20.9375874,39.5269615 L20.9385664,39.5272067 Z M57.2626923,40.9713894 C57.9771329,36.9217933 61.039021,34.6741154 64.9631818,34.6741154 C69.0836364,34.6741154 71.1904895,37.0995577 70.546049,40.7274231 C69.7978322,45.0003894 66.5513986,47.0036106 62.823042,47.0036106 C59.0831818,47.0036106 56.5622028,44.9562548 57.2622028,40.9694279 L57.2626923,40.9713894 Z M64.6885664,37.7912452 C63.1116084,37.7912452 62.3521329,39.4161346 62.1208392,40.7293846 C61.741958,42.9317019 62.3859091,43.8908942 63.5727273,43.8908942 C64.8141259,43.8908942 65.7358741,42.9321923 66.126993,40.7293846 C66.4255944,39.0154904 65.8969231,37.7257788 64.6878322,37.7919808 L64.6885664,37.7912452 Z M29.4438112,46.6696587 L31.5039161,35.0080673 L35.7056294,35.0080673 L35.2912587,37.3675529 L35.3265035,37.3675529 C36.2927972,35.5411154 37.5811888,34.6743606 39.376958,34.6743606 C39.5842657,34.6743606 39.7800699,34.7192308 39.9763636,34.7420337 L39.1581469,39.3690577 C38.8473077,39.3259038 38.5381818,39.2364087 38.2270979,39.2364087 C36.3393007,39.2364087 35.222972,40.1264567 34.7843706,42.6406587 L34.0718881,46.6691683 L29.4443007,46.6691683 L29.4418531,46.6691683 L29.4438112,46.6696587 Z M70.5015035,46.6696587 L72.5508392,35.0080673 L76.7743357,35.0080673 L76.452972,36.8322981 C77.7411189,35.4293077 79.0072378,34.6738702 80.756993,34.6738702 C83.8316084,34.6738702 84.9584615,36.4760337 84.3935664,39.6802067 L83.1631818,46.6691683 L78.5324126,46.6691683 L79.6267133,40.5047885 C79.8222727,39.3467452 79.695,38.3235577 78.3826224,38.3235577 C76.9679371,38.3235577 76.4258042,39.2359183 76.161958,40.7266875 L75.1141608,46.6684327 L70.4993007,46.6684327 L70.4993007,46.6694135 L70.4958741,46.6694135 L70.5015035,46.6696587 Z M6.55185315,46.6696587 L4.56174825,35.0080673 L9.18737762,35.0080673 L9.93706294,42.3738894 L13.2508042,35.0080673 L17.6945804,35.0080673 L11.7086014,46.6696587 L6.55185315,46.6696587 L6.55185315,46.6696587 Z M41.3364685,33.5175433 L41.9106643,30.2177452 L46.5377622,30.2177452 L45.9513287,33.5175433 L41.3367133,33.5175433 L41.3376923,33.5175433 L41.3364685,33.5175433 Z" id="path19" fill="#F3F1EF" sketch:type="MSShapeGroup"></path>
                            <g id="g21">
                                <g id="g23">
                                    <g id="g25">
                                        <g id="polygon38-Clipped">
                                            <mask id="mask-2" sketch:name="XMLID_1_" fill="white">
                                                <use xlink:href="#path-1"></use>
                                            </mask>
                                            <g id="XMLID_1_"></g>
                                            <path d="M1.67045455,36.3424038 L-10.1837762,3.71711538 L12.8851399,-4.69714904 L24.7398601,27.9274038 L1.67045455,36.3424038 Z" id="polygon38" fill="url(#linearGradient-3)" sketch:type="MSShapeGroup" mask="url(#mask-2)"></path>
                                        </g>
                                    </g>
                                </g>
                            </g>
                            <g id="g40" transform="translate(10.034965, 0.000000)">
                                <g id="g42">
                                    <g id="polygon55-Clipped">
                                        <mask id="mask-5" sketch:name="XMLID_4_" fill="white">
                                            <use xlink:href="#path-4"></use>
                                        </mask>
                                        <g id="XMLID_4_"></g>
                                        <path d="M-10.1727622,3.70730769 L72.170979,-26.3152644 L91.8786713,27.9274038 L9.53566434,57.9536538 L-10.1727622,3.70730769 Z" id="polygon55" fill="url(#linearGradient-6)" sketch:type="MSShapeGroup" mask="url(#mask-5)"></path>
                                    </g>
                                </g>
                            </g>
                            <g id="g57" transform="translate(44.300699, 35.062500)">
                                <g id="g59">
                                    <g id="polygon72-Clipped" transform="translate(-0.000000, 0.000000)">
                                        <mask id="mask-8" sketch:name="XMLID_7_" fill="white">
                                            <use xlink:href="#path-7"></use>
                                        </mask>
                                        <g id="XMLID_7_"></g>
                                        <path d="M1.08181818,-6.69129808 L41.4125874,0.431538462 L37.4965035,22.6827404 L-2.83671329,15.5599038 L1.08181818,-6.69129808 Z" id="polygon72" fill="url(#linearGradient-9)" sketch:type="MSShapeGroup" mask="url(#mask-8)"></path>
                                    </g>
                                </g>
                            </g>
                        </g>
                    </g>
                </g>
            </g>
        </g>
    </g>
</svg>