<?xml version="1.0" encoding="UTF-8" standalone="no"?>
<svg width="80px" height="80px" viewBox="0 0 80 80" version="1.1" xmlns="http://www.w3.org/2000/svg" xmlns:xlink="http://www.w3.org/1999/xlink" xmlns:sketch="http://www.bohemiancoding.com/sketch/ns">
    <!-- Generator: Sketch 3.1.1 (8761) - http://www.bohemiancoding.com/sketch -->
    <title>events_icon_default</title>
    <desc>Created with Sketch.</desc>
    <defs></defs>
    <g id="About" stroke="none" stroke-width="1" fill="none" fill-rule="evenodd" sketch:type="MSPage">
        <g sketch:type="MSArtboardGroup" transform="translate(-763.000000, -1750.000000)" id="Large-Scale-Events" fill="#F3F1EF">
            <g sketch:type="MSLayerGroup" transform="translate(754.000000, 1750.000000)">
                <g id="events_icon_default" transform="translate(9.000000, 0.000000)" sketch:type="MSShapeGroup">
                    <path d="M28.3821053,79.8642105 C27.0010526,79.8642105 25.6789474,79.2410526 24.4515789,78.0094737 L1.88,55.4421053 C0.606315789,54.1715789 0.341052632,52.8210526 0.341052632,51.9115789 C0.341052632,49.3231579 2.42,47.0347368 4.54736842,44.9115789 L45.7821053,3.68631579 C47.5494737,1.86105263 49.2178947,0.135789474 51.5936842,0.135789474 C52.9747368,0.135789474 54.2968421,0.758947368 55.5210526,1.98631579 L78.0936842,24.56 C82.0252632,28.5052632 77.5694737,32.9547368 75.4305263,35.0926316 L34.1915789,76.3178947 C32.4252632,78.1389474 30.7610526,79.8642105 28.3821053,79.8642105 L28.3821053,79.8642105 Z M51.5568421,4.87052632 C51.1494737,4.95263158 49.9684211,6.17157895 49.1863158,6.98 L48.2610526,7.92526316 L7.89157895,48.2631579 C5.39684211,50.7515789 5.05789474,51.6189474 5.07578947,51.9147368 L27.8010526,74.6652632 C28.1326316,74.9968421 28.3284211,75.0957895 28.3926316,75.1242105 C28.8736842,75.0010526 30.0210526,73.8147368 30.7852632,73.0252632 L31.7105263,72.0778947 L72.0789474,31.7463158 C74.5747368,29.2505263 74.9126316,28.3873684 74.8915789,28.0894737 L52.1694737,5.33473684 C51.7610526,4.92631579 51.56,4.87052632 51.5568421,4.87052632 L51.5568421,4.87052632 Z" id="Shape"></path>
                    <path d="M50.2821053,15.2757895 C49.6484211,15.2757895 49.0505263,15.0231579 48.6063158,14.5810526 C48.1652632,14.1368421 47.9136842,13.5389474 47.9136842,12.9073684 C47.9136842,12.2736842 48.1652632,11.6757895 48.5757895,11.2315789 C49.4926316,10.3473684 51.0410526,10.3473684 51.9557895,11.2315789 C52.3978947,11.6757895 52.6505263,12.2736842 52.6505263,12.9073684 C52.6505263,13.5389474 52.3978947,14.1368421 51.9557895,14.5810526 C51.5115789,15.0221053 50.8821053,15.2757895 50.2821053,15.2757895 L50.2821053,15.2757895 Z" id="Shape"></path>
                    <path d="M55.8715789,20.8631579 C55.2705263,20.8631579 54.6378947,20.6105263 54.1957895,20.1989474 C53.7515789,19.7284211 53.5031579,19.1242105 53.5031579,18.4947368 C53.5031579,17.8968421 53.7515789,17.2936842 54.1957895,16.8231579 C55.1126316,15.9368421 56.6610526,15.9684211 57.5431579,16.8231579 C57.9873684,17.2936842 58.24,17.8968421 58.24,18.4947368 C58.24,19.1263158 57.9873684,19.7284211 57.5431579,20.1684211 C57.1021053,20.6105263 56.5010526,20.8631579 55.8715789,20.8631579 L55.8715789,20.8631579 Z" id="Shape"></path>
                    <path d="M61.4905263,26.4842105 C60.8568421,26.4842105 60.26,26.2315789 59.8189474,25.7915789 C59.3747368,25.3473684 59.1221053,24.7178947 59.1221053,24.1157895 C59.1221053,23.4842105 59.3747368,22.8863158 59.7852632,22.4421053 C60.7010526,21.56 62.2494737,21.5252632 63.1652632,22.4115789 C63.6063158,22.8863158 63.8589474,23.4852632 63.8589474,24.1157895 C63.8589474,24.7178947 63.6063158,25.3168421 63.1652632,25.76 C62.6915789,26.2315789 62.0905263,26.4842105 61.4905263,26.4842105 L61.4905263,26.4842105 Z" id="Shape"></path>
                    <path d="M67.0831579,32.0768421 C66.4494737,32.0768421 65.8494737,31.8242105 65.4073684,31.38 C64.9663158,30.9378947 64.7147368,30.3378947 64.7147368,29.7084211 C64.7147368,29.0747368 64.9663158,28.4747368 65.4073684,28.0326316 C66.2589474,27.1484211 67.8726316,27.1484211 68.7547368,28.0326316 C69.1989474,28.4747368 69.4515789,29.1063158 69.4515789,29.7084211 C69.4515789,30.3378947 69.1989474,30.9378947 68.7547368,31.38 C68.3115789,31.8231579 67.7136842,32.0768421 67.0831579,32.0768421 L67.0831579,32.0768421 Z" id="Shape"></path>
                    <path d="M44.2484211,46.9347368 C42.9410526,46.9347368 41.88,45.8736842 41.88,44.5663158 L41.88,38.5284211 L36.0021053,38.5284211 C34.6947368,38.5284211 33.6336842,37.4673684 33.6336842,36.16 C33.6336842,34.8526316 34.6947368,33.7915789 36.0021053,33.7915789 L44.2484211,33.7915789 C45.5547368,33.7915789 46.6168421,34.8526316 46.6168421,36.16 L46.6168421,44.5663158 C46.6168421,45.8736842 45.5547368,46.9347368 44.2484211,46.9347368 L44.2484211,46.9347368 Z" id="Shape"></path>
                    <path d="M32.6284211,50.1536842 C32.0210526,50.1536842 31.4168421,49.92 30.9536842,49.4589474 C30.0284211,48.5336842 30.0284211,47.0347368 30.9536842,46.1094737 L42.5736842,34.4821053 C43.4989474,33.5568421 44.9978947,33.5568421 45.9231579,34.4821053 C46.8484211,35.4084211 46.8484211,36.9073684 45.9231579,37.8326316 L34.3031579,49.4589474 C33.84,49.9221053 33.2357895,50.1536842 32.6284211,50.1536842 L32.6284211,50.1536842 Z" id="Shape"></path>
                </g>
            </g>
        </g>
    </g>
</svg>