<?xml version="1.0" encoding="UTF-8" standalone="no"?>
<svg width="81px" height="77px" viewBox="0 0 81 77" version="1.1" xmlns="http://www.w3.org/2000/svg" xmlns:xlink="http://www.w3.org/1999/xlink" xmlns:sketch="http://www.bohemiancoding.com/sketch/ns">
    <!-- Generator: Sketch 3.1.1 (8761) - http://www.bohemiancoding.com/sketch -->
    <title>experiential_icon_hover</title>
    <desc>Created with Sketch.</desc>
    <defs></defs>
    <g id="About" stroke="none" stroke-width="1" fill="none" fill-rule="evenodd" sketch:type="MSPage">
        <g sketch:type="MSArtboardGroup" transform="translate(-597.000000, -1571.000000)" id="Experiential-Events">
            <g sketch:type="MSLayerGroup" transform="translate(587.000000, 1572.000000)">
                <g id="Hover" sketch:type="MSShapeGroup">
                    <g id="experiential_icon_hover" transform="translate(10.000000, 0.000000)">
                        <path d="M19.3608889,12.9217674 C19.3608889,12.9217674 16.6444444,12.6875814 14.9262222,13.2734884 C10.7066667,14.5531163 8.36711111,16.9851163 7.37955556,20.2831628 C5.73955556,25.7560465 6.92177778,31.1202326 10.8115556,35.3956744 C11.4951111,36.1468372 11.9146667,37.0526512 11.6791111,38.098093 C11.4462222,39.1364651 10.7582222,39.4625581 10.0808889,39.8832093 C9.03733333,40.5327442 5.93955556,42.1755814 3.36088889,44.3937209 C0.994666667,46.4289302 0.205333333,48.2193488 0.239111111,51.0773023 C0.286222222,55.024 0.28,58.9547907 0.176888889,62.912093 C0.0933333333,66.1191163 1.488,66.9445116 4.27022222,66.9462791 C4.92177778,66.9462791 6.59288889,66.9595349 6.59288889,66.9595349 L6.57244444,63.7869767 L4.83733333,63.7560465 C3.69866667,63.7295349 3.35377778,63.0543721 3.39911111,61.7915349 L3.37244444,51.3733488 C3.26311111,48.5931628 4.84177778,46.8928837 7.11911111,45.3348837 C7.58133333,45.0185116 8.05955556,44.7215814 8.53955556,44.4326047 C9.74133333,43.7114884 10.9822222,43.1450233 12.0995556,42.3797209 C13.3724444,41.5083721 14.624,40.2853023 14.8995556,38.7113953 C15.2391111,36.7733953 14.3404444,34.5181395 13.28,33.218186 C10.2568889,29.5109767 9.45422222,26.7369767 10.2071111,22.4191163 C10.8728889,18.6314884 13.7022222,15.8274419 19.3635556,16.1226047 C19.3626667,16.1226047 19.3422222,12.6336744 19.3608889,12.9217674 L19.3608889,12.9217674 L19.3608889,12.9217674 Z" id="Shape" fill-opacity="0.6" fill="#CF0808"></path>
                        <path d="M25.4168889,20.4890698 C25.2382222,14.0882791 24.656,7.8447907 29.8071111,3.75316279 C30.8044444,2.96046512 31.4462222,2.51506977 32.7404444,2.36306977 C33.9217778,2.22344186 35.032,2.60609302 36.1395556,2.97637209 C36.1893333,2.99316279 36.2471111,2.97990698 36.3031111,2.97460465 C36.8515556,2.91716279 37.5706667,2.3895814 38.0311111,2.1324186 C40.7111111,0.635395349 41.8666667,-0.564697674 47.1271111,0.0282790698 C49.8942222,0.341116279 51.8168889,2.08734884 53.472,3.99530233 C55.3644444,6.17367442 56.0808889,7.86246512 56.3795556,10.760186 C56.5555556,12.4754884 56.496,14.1695814 56.3448889,16.2215814 C56.1911111,17.3686512 56.0373333,18.5157209 55.8835556,19.661907 L55.6497778,20.9247442 C56.5857778,21.675907 57.0231111,22.6347442 57.1315556,23.6333488 C57.3706667,25.8293953 56.0222222,28.2189767 54.9137778,29.0213953 C54.4835556,29.4491163 53.8231111,29.9466512 53.3937778,30.3743721 C52.2328889,33.6609302 51.3084444,36.0195814 49.36,38.6424651 C49.0506667,39.1426512 48.2897778,39.7966047 48.1644444,40.3807442 C48.0542222,40.8959535 48.328,41.1893488 48.6933333,41.435907 C49.2524444,41.8132558 49.8231111,42.059814 50.4497778,42.309907 C53.4071111,43.4949767 56.2124444,44.1347907 59.0008889,45.3366512 C60.0933333,45.8067907 61.1831111,46.3626512 62.2782222,47.0705116 C62.6382222,47.3020465 63.0044444,47.5335814 63.3671111,47.7872093 C65.3271111,49.1534419 67.1875556,51.1674419 67.3235556,57.525814 C67.3235556,57.525814 67.32,61.2135814 67.3182222,63.9805116 C67.3173333,65.6401395 67.3164444,66.9683721 67.3164444,66.9683721 C67.2995556,70.6817674 62.7404444,72.9785581 57.0693333,74.3094419 C51.3982222,75.6394419 44.6151111,76.0035349 40.1502222,75.8524186 C36.3822222,75.9787907 30.9653333,75.7393023 25.9564444,74.8626512 C19.096,73.6607907 13.0026667,71.2614884 12.9831111,66.9674884 C12.9831111,66.9666047 12.976,57.5249302 12.976,57.5249302 C13.1128889,51.1665581 14.9724444,49.1525581 16.9324444,47.7863256 C17.296,47.5326977 17.6613333,47.3020465 18.0213333,47.0696279 C19.1164444,46.3617674 20.2071111,45.805907 21.2986667,45.3357674 C24.088,44.1347907 26.8924444,43.4949767 29.8497778,42.3090233 C30.4764444,42.0589302 31.0471111,41.8123721 31.6062222,41.4350233 C31.9715556,41.1893488 32.2462222,40.8950698 32.1351111,40.3798605 C31.7386667,38.5240465 30.4462222,40.0555349 27.0266667,30.3734884 C26.5973333,29.9457674 25.9368889,29.4482326 25.5066667,29.0205116 C24.4222222,28.2348837 23.104,25.9248372 23.2755556,23.765907 C23.3768889,22.5163256 23.9795556,21.3135814 25.4168889,20.4890698 L25.4168889,20.4890698 Z" id="Path" stroke-opacity="0.6" stroke="#CF0808" stroke-width="3.556"></path>
                        <path d="M60.984,12.9217674 C60.984,12.9217674 63.6995556,12.6875814 65.4186667,13.2734884 C69.6382222,14.5531163 71.9777778,16.9851163 72.9653333,20.2831628 C74.6053333,25.7560465 73.4231111,31.1202326 69.5342222,35.3956744 C68.8506667,36.1468372 68.4302222,37.0526512 68.6657778,38.098093 C68.8986667,39.1364651 69.5866667,39.4625581 70.264,39.8832093 C71.3084444,40.5327442 74.4053333,42.1755814 76.984,44.3937209 C79.3502222,46.4289302 80.1395556,48.2193488 80.1057778,51.0773023 C80.0586667,55.024 80.0648889,58.9547907 80.168,62.912093 C80.2515556,66.1191163 78.8568889,66.9445116 76.0746667,66.9462791 C75.4231111,66.9462791 73.752,66.9595349 73.752,66.9595349 L73.7715556,63.7869767 L75.5066667,63.7560465 C76.6453333,63.7295349 76.9902222,63.0543721 76.9448889,61.7915349 L76.9706667,51.3706977 C77.08,48.5905116 75.5013333,46.8902326 73.2248889,45.3322326 C72.7626667,45.0158605 72.2844444,44.7189302 71.8044444,44.4299535 C70.6026667,43.7088372 69.3617778,43.1423721 68.2435556,42.3770698 C66.9706667,41.5057209 65.7191111,40.2826512 65.4435556,38.7087442 C65.104,36.7707442 66.0026667,34.5154884 67.0631111,33.2155349 C70.0862222,29.5083256 70.8888889,26.7343256 70.136,22.4164651 C69.4702222,18.6288372 66.6408889,15.8247907 60.9795556,16.1199535 C60.9822222,16.1226047 61.0026667,12.6336744 60.984,12.9217674 L60.984,12.9217674 L60.984,12.9217674 Z" id="Path" fill-opacity="0.6" fill="#CF0808"></path>
                    </g>
                </g>
            </g>
        </g>
    </g>
</svg>