<?xml version="1.0" encoding="UTF-8" standalone="no"?>
<svg width="80px" height="37px" viewBox="0 0 80 37" version="1.1" xmlns="http://www.w3.org/2000/svg" xmlns:xlink="http://www.w3.org/1999/xlink" xmlns:sketch="http://www.bohemiancoding.com/sketch/ns">
    <!-- Generator: Sketch 3.1.1 (8761) - http://www.bohemiancoding.com/sketch -->
    <title>home_icon_default</title>
    <desc>Created with Sketch.</desc>
    <defs></defs>
    <g id="About" stroke="none" stroke-width="1" fill="none" fill-rule="evenodd" sketch:type="MSPage">
        <g sketch:type="MSArtboardGroup" transform="translate(-265.000000, -1592.000000)" id="Out-of-Home" fill="#F3F1EF">
            <g sketch:type="MSLayerGroup" transform="translate(253.000000, 1592.000000)">
                <g id="Default" sketch:type="MSShapeGroup">
                    <path d="M13.6653514,36.9948835 C13.1986687,36.9948835 12.738653,36.7964745 12.4086416,36.4164707 C11.8052876,35.7169947 11.8786234,34.657692 12.5719806,34.0422876 L50.9066292,0.413632459 C51.5333173,-0.137877486 52.4666827,-0.137877486 53.0933708,0.413632459 L62.0003431,8.22556905 L62.0003431,1.68479562 C62.0003431,0.756644741 62.7503688,0.00336286552 63.667067,0.00336286552 L73.6674101,0.00336286552 C74.5841082,0.00336286552 75.3341339,0.760007607 75.3341339,1.68479562 L75.3341339,19.9283411 L91.4280194,34.0456505 C92.1213766,34.657692 92.1947124,35.7203575 91.5913584,36.4231964 C90.9880043,37.1260353 89.9313014,37.1932926 89.2379443,36.5879768 L72.5707058,21.9662376 C72.2106934,21.6434025 71.9973528,21.1860528 71.9973528,20.6984373 L71.9973528,3.36622838 L65.3304574,3.36622838 L65.3304574,11.9146325 C65.3304574,12.5737542 64.9504443,13.1689814 64.3570906,13.4447363 C63.7670704,13.7171284 63.0670464,13.6162425 62.5703627,13.1824328 L51.9966666,3.9110126 L14.7553888,36.5812511 C14.4420447,36.8603689 14.0553648,36.9948835 13.6653514,36.9948835 L13.6653514,36.9948835 Z" id="home_icon_default"></path>
                </g>
            </g>
        </g>
    </g>
</svg>