<?xml version="1.0" encoding="UTF-8" standalone="no"?>
<svg width="80px" height="74px" viewBox="0 0 80 74" version="1.1" xmlns="http://www.w3.org/2000/svg" xmlns:xlink="http://www.w3.org/1999/xlink" xmlns:sketch="http://www.bohemiancoding.com/sketch/ns">
    <!-- Generator: Sketch 3.1.1 (8761) - http://www.bohemiancoding.com/sketch -->
    <title>interactive_icon_hover</title>
    <desc>Created with Sketch.</desc>
    <defs></defs>
    <g id="About" stroke="none" stroke-width="1" fill="none" fill-rule="evenodd" sketch:type="MSPage">
        <g sketch:type="MSArtboardGroup" transform="translate(-431.000000, -1753.000000)" id="Interactive-Displays" fill-opacity="0.6" fill="#CF0808">
            <g sketch:type="MSLayerGroup" transform="translate(424.000000, 1753.000000)">
                <g id="interactive_icon_hover" transform="translate(7.000000, 0.000000)" sketch:type="MSShapeGroup">
                    <path d="M64.7376,48.763587 C64.7376,45.9813478 62.4872,43.7187174 59.7208,43.7187174 L59.6232,43.7187174 C58.9304,41.7681739 57.0904,40.3557391 54.9128,40.3557391 C54.8104,40.3557391 54.7208,40.3983696 54.6224,40.4144565 C53.948,38.4309348 52.0944,36.9919565 49.896,36.9919565 C49.3072,36.9919565 48.7496,37.113413 48.224,37.3048478 L48.224,26.9038261 C48.224,24.1223913 45.9736,21.8597609 43.2072,21.8597609 C40.4408,21.8597609 38.1896,24.1223913 38.1896,26.9038261 L38.1896,41.9491522 L37.66,42.126913 C37.0296,42.3368478 31.4992,44.3171522 31.4992,48.7643913 C31.4992,49.1818478 31.4368,49.910587 31.3672,50.7905435 C31.0616,54.6103913 30.872,57.9082174 31.6608,59.5764348 C32.8256,62.0369348 36.7696,66.3973043 38.1888,67.9279783 L38.1888,73.9879348 L41.5336,73.9879348 L41.5336,67.2619783 C41.5336,66.8316522 41.3688,66.4141957 41.0728,66.102913 C39.616,64.5658043 35.6288,60.1354565 34.6816,58.1350435 C34.2128,57.144087 34.5544,52.8842609 34.6992,51.0640217 C34.7792,50.0626087 34.8432,49.2357391 34.8432,48.766 C34.8432,47.2747391 36.952,46.0593696 38.188,45.5276957 L38.188,48.726587 C38.1864,48.7732391 38.1216,49.8205 37.0056,50.9409565 C36.3528,51.5973043 36.3528,52.6614565 37.0056,53.3186087 C37.332,53.6467826 37.76,53.8108696 38.188,53.8108696 C38.616,53.8108696 39.044,53.6467826 39.3704,53.3186087 C41.472,51.2063913 41.5328,49.0097174 41.5328,48.7668043 L41.5328,26.9038261 C41.5328,25.9780217 42.2824,25.2219348 43.2056,25.2219348 C44.128,25.2219348 44.8776,25.9772174 44.8776,26.9038261 L44.8776,42.0376304 L44.8776,48.763587 C44.8776,49.6926087 45.6256,50.4446739 46.5504,50.4446739 C47.4744,50.4446739 48.2224,49.6926087 48.2224,48.763587 L48.2224,42.0376304 C48.2224,41.1118261 48.972,40.3557391 49.8944,40.3557391 C50.8168,40.3557391 51.5672,41.1110217 51.5672,42.0376304 L51.5672,48.763587 C51.5672,49.6926087 52.3152,50.4446739 53.24,50.4446739 C54.164,50.4446739 54.912,49.6926087 54.912,48.763587 L54.912,43.7187174 C55.8352,43.7187174 56.5848,44.474 56.5848,45.4006087 L56.5848,50.4446739 C56.5848,51.3745 57.3336,52.1265652 58.2568,52.1265652 C59.1808,52.1265652 59.9296,51.3745 59.9296,50.4446739 L59.9296,47.1243261 C60.7488,47.232913 61.3928,47.9190217 61.396,48.8520652 C61.5232,51.2691304 61.7752,58.0280652 61.4152,60.2641522 C61.2264,61.4401087 58.932,64.0968696 55.628,65.7554348 C55.0616,66.0409783 54.704,66.6225217 54.704,67.2595652 L54.704,73.9855217 L58.048,73.9855217 L58.048,68.2641957 C61.1744,66.4616522 64.2808,63.4984348 64.7184,60.8030652 C65.2016,57.8084783 64.7872,49.6017174 64.7376,48.763587 L64.7376,48.763587 Z" id="Shape"></path>
                    <path d="M79.9992,0 L0,0 L0,62.2163043 L29.304,62.2163043 C29.0496,61.7988478 28.816,61.3918478 28.6392,61.0210435 C28.3336,60.3735435 28.1264,59.6480217 27.988,58.8533261 L3.3448,58.8533261 L3.3448,3.36217391 L76.6544,3.36217391 L76.6544,58.8533261 L68.2392,58.8533261 C68.1968,59.8088913 68.1248,60.6727609 68.0176,61.3468043 C67.972,61.6387826 67.884,61.9283478 67.8016,62.2171087 L79.9984,62.2171087 L79.9984,0 L79.9992,0 Z" id="Shape"></path>
                    <path d="M43.2064,18.4959783 C42.2816,18.4959783 41.5336,17.743913 41.5336,16.814087 L41.5336,10.0881304 C41.5336,9.1591087 42.2816,8.40704348 43.2064,8.40704348 C44.1304,8.40704348 44.8784,9.1591087 44.8784,10.0881304 L44.8784,16.814087 C44.8784,17.743913 44.1304,18.4959783 43.2064,18.4959783 L43.2064,18.4959783 Z" id="Shape"></path>
                    <path d="M49.896,21.8589565 C49.468,21.8589565 49.0408,21.6948696 48.7136,21.3666957 C48.06,20.7095435 48.06,19.6453913 48.7136,18.9882391 L53.7304,13.9441739 C54.3832,13.2870217 55.4424,13.2870217 56.0952,13.9441739 C56.748,14.6005217 56.748,15.6646739 56.0952,16.3218261 L51.0784,21.3666957 C50.752,21.6948696 50.324,21.8589565 49.896,21.8589565 L49.896,21.8589565 Z" id="Shape"></path>
                    <path d="M36.5168,21.8589565 C36.0888,21.8589565 35.6608,21.6948696 35.3344,21.3666957 L30.3168,16.3218261 C29.664,15.6646739 29.664,14.6005217 30.3168,13.9441739 C30.9704,13.2870217 32.0288,13.2870217 32.6816,13.9441739 L37.6992,18.9882391 C38.352,19.6453913 38.352,20.7087391 37.6992,21.3666957 C37.372,21.6948696 36.944,21.8589565 36.5168,21.8589565 L36.5168,21.8589565 Z" id="Shape"></path>
                    <path d="M58.2576,28.5857174 L53.2408,28.5857174 C52.316,28.5857174 51.568,27.8328478 51.568,26.9038261 C51.568,25.9748043 52.316,25.2219348 53.2408,25.2219348 L58.2576,25.2219348 C59.1816,25.2219348 59.9304,25.9748043 59.9304,26.9038261 C59.9304,27.8328478 59.1816,28.5857174 58.2576,28.5857174 L58.2576,28.5857174 Z" id="Shape"></path>
                    <path d="M33.1712,28.5857174 L28.1536,28.5857174 C27.2296,28.5857174 26.4816,27.8328478 26.4816,26.9038261 C26.4816,25.9748043 27.2296,25.2219348 28.1536,25.2219348 L33.1712,25.2219348 C34.0952,25.2219348 34.8432,25.9748043 34.8432,26.9038261 C34.8432,27.8328478 34.096,28.5857174 33.1712,28.5857174 L33.1712,28.5857174 Z" id="Shape"></path>
                </g>
            </g>
        </g>
    </g>
</svg>