<?xml version="1.0" encoding="UTF-8" standalone="no"?>
<svg width="76px" height="80px" viewBox="0 0 76 80" version="1.1" xmlns="http://www.w3.org/2000/svg" xmlns:xlink="http://www.w3.org/1999/xlink" xmlns:sketch="http://www.bohemiancoding.com/sketch/ns">
    <!-- Generator: Sketch 3.1.1 (8761) - http://www.bohemiancoding.com/sketch -->
    <title>naming_icon_hover</title>
    <desc>Created with Sketch.</desc>
    <defs></defs>
    <g id="About" stroke="none" stroke-width="1" fill="none" fill-rule="evenodd" sketch:type="MSPage">
        <g sketch:type="MSArtboardGroup" transform="translate(-599.000000, -1750.000000)" id="Naming-Rights-Campaigns" fill-opacity="0.6" fill="#CF0808">
            <g sketch:type="MSLayerGroup" transform="translate(579.000000, 1750.000000)">
                <g id="naming_icon_hover" transform="translate(20.000000, 0.000000)" sketch:type="MSShapeGroup">
                    <path d="M58.6967442,54.0337778 L58.6967442,8.44266667 L17.3032558,8.44266667 L17.3032558,54.0337778 L38,69.9146667 L58.6967442,54.0337778 Z" id="Shape"></path>
                    <path d="M72.890186,0.0115555556 C71.9216279,0.0115555556 71.0679535,0.472888889 70.5076744,1.17955556 L5.49232558,1.17955556 C4.93116279,0.472888889 4.07837209,0.0115555556 3.10981395,0.0115555556 C1.41925581,0.0115555556 0.0494883721,1.39022222 0.0494883721,3.08977778 C0.0494883721,4.78933333 1.42013953,6.168 3.10981395,6.168 C4.066,6.168 4.90818605,5.71822222 5.46934884,5.02755556 L9.766,5.02755556 L9.766,58.7466667 L38,79.9884444 L66.2331163,58.7466667 L66.2331163,5.02755556 L70.5297674,5.02755556 C71.0909302,5.71822222 71.934,6.168 72.8893023,6.168 C74.5798605,6.168 75.9496279,4.78933333 75.9496279,3.08977778 C75.9496279,1.39022222 74.5807442,0.0115555556 72.890186,0.0115555556 L72.890186,0.0115555556 Z M62.4260465,55.9857778 L38,74.9866667 L13.5739535,55.9857778 L13.5739535,5.02755556 L62.4260465,5.02755556 L62.4260465,55.9857778 L62.4260465,55.9857778 Z" id="Shape"></path>
                </g>
            </g>
        </g>
    </g>
</svg>