<?xml version="1.0" encoding="UTF-8" standalone="no"?>
<svg width="67px" height="80px" viewBox="0 0 67 80" version="1.1" xmlns="http://www.w3.org/2000/svg" xmlns:xlink="http://www.w3.org/1999/xlink" xmlns:sketch="http://www.bohemiancoding.com/sketch/ns">
    <!-- Generator: Sketch 3.1.1 (8761) - http://www.bohemiancoding.com/sketch -->
    <title>property_icon_default</title>
    <desc>Created with Sketch.</desc>
    <defs></defs>
    <g id="About" stroke="none" stroke-width="1" fill="none" fill-rule="evenodd" sketch:type="MSPage">
        <g sketch:type="MSArtboardGroup" transform="translate(-437.000000, -1570.000000)" id="Property-Take-Overs" fill="#F3F1EF">
            <g sketch:type="MSLayerGroup" transform="translate(426.000000, 1570.000000)">
                <g id="Default" sketch:type="MSShapeGroup">
                    <g id="property_icon_default" transform="translate(11.000000, 0.000000)">
                        <path d="M52.873494,31.5151515 L43.186747,31.5151515 C42.5183614,31.5151515 41.9759036,30.9729293 41.9759036,30.3030303 L41.9759036,17.3737374 C41.9759036,16.7038384 42.5183614,16.1616162 43.186747,16.1616162 L52.873494,16.1616162 C53.5418795,16.1616162 54.0843373,16.7038384 54.0843373,17.3737374 L54.0843373,30.3030303 C54.0843373,30.9729293 53.5418795,31.5151515 52.873494,31.5151515 L52.873494,31.5151515 Z M44.3975904,29.0909091 L51.6626506,29.0909091 L51.6626506,18.5858586 L44.3975904,18.5858586 L44.3975904,29.0909091 L44.3975904,29.0909091 Z" id="Shape"></path>
                        <path d="M23.813253,31.5151515 L14.126506,31.5151515 C13.4573133,31.5151515 12.9156627,30.9729293 12.9156627,30.3030303 L12.9156627,17.3737374 C12.9156627,16.7038384 13.4573133,16.1616162 14.126506,16.1616162 L23.813253,16.1616162 C24.4824458,16.1616162 25.0240964,16.7038384 25.0240964,17.3737374 L25.0240964,30.3030303 C25.0240964,30.9729293 24.4824458,31.5151515 23.813253,31.5151515 L23.813253,31.5151515 Z M15.3373494,29.0909091 L22.6024096,29.0909091 L22.6024096,18.5858586 L15.3373494,18.5858586 L15.3373494,29.0909091 L15.3373494,29.0909091 Z" id="Shape"></path>
                        <path d="M23.813253,50.9090909 L14.126506,50.9090909 C13.4573133,50.9090909 12.9156627,50.3660606 12.9156627,49.6969697 L12.9156627,36.7676768 C12.9156627,36.0977778 13.4573133,35.5555556 14.126506,35.5555556 L23.813253,35.5555556 C24.4824458,35.5555556 25.0240964,36.0977778 25.0240964,36.7676768 L25.0240964,49.6969697 C25.0240964,50.3660606 24.4824458,50.9090909 23.813253,50.9090909 L23.813253,50.9090909 Z M15.3373494,48.4848485 L22.6024096,48.4848485 L22.6024096,37.979798 L15.3373494,37.979798 L15.3373494,48.4848485 L15.3373494,48.4848485 Z" id="Shape"></path>
                        <path d="M52.873494,50.9090909 L43.186747,50.9090909 C42.5183614,50.9090909 41.9759036,50.3660606 41.9759036,49.6969697 L41.9759036,36.7676768 C41.9759036,36.0977778 42.5183614,35.5555556 43.186747,35.5555556 L52.873494,35.5555556 C53.5418795,35.5555556 54.0843373,36.0977778 54.0843373,36.7676768 L54.0843373,49.6969697 C54.0843373,50.3660606 53.5418795,50.9090909 52.873494,50.9090909 L52.873494,50.9090909 Z M44.3975904,48.4848485 L51.6626506,48.4848485 L51.6626506,37.979798 L44.3975904,37.979798 L44.3975904,48.4848485 L44.3975904,48.4848485 Z" id="Shape"></path>
                        <path d="M52.873494,70.3030303 L43.186747,70.3030303 C42.5183614,70.3030303 41.9759036,69.76 41.9759036,69.0909091 L41.9759036,56.1616162 C41.9759036,55.4925253 42.5183614,54.9494949 43.186747,54.9494949 L52.873494,54.9494949 C53.5418795,54.9494949 54.0843373,55.4925253 54.0843373,56.1616162 L54.0843373,69.0909091 C54.0843373,69.76 53.5418795,70.3030303 52.873494,70.3030303 L52.873494,70.3030303 Z M44.3975904,67.8787879 L51.6626506,67.8787879 L51.6626506,57.3737374 L44.3975904,57.3737374 L44.3975904,67.8787879 L44.3975904,67.8787879 Z" id="Shape"></path>
                        <path d="M66.7715542,0.503434343 C66.5439157,0.187474747 66.178241,0 65.7891566,0 L1.21084337,0 C0.821759036,0 0.456084337,0.187474747 0.228445783,0.503434343 C0.000807228916,0.819393939 -0.0613493976,1.22585859 0.0621566265,1.59515152 L3.22891566,11.1054545 L3.22891566,78.7878788 C3.22891566,79.4569697 3.77056627,80 4.43975904,80 L62.560241,80 C63.2286265,80 63.7710843,79.4569697 63.7710843,78.7878788 L63.7710843,11.1054545 L66.9378434,1.59515152 C67.0605422,1.22585859 66.9991928,0.819393939 66.7715542,0.503434343 L66.7715542,0.503434343 Z M25.8313253,77.5757576 L12.1084337,77.5757576 L12.1084337,60.2149495 L18.9698795,57.4674747 L25.8313253,60.2149495 L25.8313253,77.5757576 L25.8313253,77.5757576 Z M32.2891566,77.5757576 L28.253012,77.5757576 L28.253012,59.3939394 C28.253012,58.8985859 27.9511084,58.4525253 27.4917952,58.2682828 L19.419506,55.0359596 C19.1313253,54.920404 18.8084337,54.920404 18.520253,55.0359596 L10.4479639,58.2682828 C9.9886506,58.4525253 9.68674699,58.8985859 9.68674699,59.3939394 L9.68674699,77.5757576 L5.65060241,77.5757576 L5.65060241,12.1212121 L32.2891566,12.1212121 L32.2891566,77.5757576 L32.2891566,77.5757576 Z M61.3493976,77.5757576 L34.7108434,77.5757576 L34.7108434,12.1212121 L61.3493976,12.1212121 L61.3493976,77.5757576 L61.3493976,77.5757576 Z M61.6876265,9.6969697 L5.31237349,9.6969697 L2.89068675,2.42424242 L64.1093133,2.42424242 L61.6876265,9.6969697 L61.6876265,9.6969697 Z" id="Shape"></path>
                    </g>
                </g>
            </g>
        </g>
    </g>
</svg>