<?xml version="1.0" encoding="UTF-8" standalone="no"?>
<svg width="80px" height="71px" viewBox="0 0 80 71" version="1.1" xmlns="http://www.w3.org/2000/svg" xmlns:xlink="http://www.w3.org/1999/xlink" xmlns:sketch="http://www.bohemiancoding.com/sketch/ns">
    <!-- Generator: Sketch 3.1.1 (8761) - http://www.bohemiancoding.com/sketch -->
    <title>store_icon_default</title>
    <desc>Created with Sketch.</desc>
    <defs></defs>
    <g id="About" stroke="none" stroke-width="1" fill="none" fill-rule="evenodd" sketch:type="MSPage">
        <g sketch:type="MSArtboardGroup" transform="translate(-763.000000, -1575.000000)" id="Pop-Up-Stores" fill="#F3F1EF">
            <g sketch:type="MSLayerGroup" transform="translate(763.000000, 1575.000000)">
                <g id="popup_store_icon_default" sketch:type="MSShapeGroup">
                    <path d="M71.8038095,0.895546667 C71.5866667,0.355 71.0609524,0 70.4761905,0 L10.4761905,0 C9.91142857,0 9.4,0.330386667 9.17047619,0.84348 L0.122857143,21.0690133 C0.0419047619,21.2507733 0,21.4467333 0,21.6455333 L0,22.68024 C0,27.72976 3.7152381,32.10336 8.57142857,33.3311867 L8.57142857,57.7466667 C8.57142857,64.8069067 14.8019048,71 21.9047619,71 L26.1904762,71 L52.8571429,71 L59.047619,71 C65.8742857,71 71.4285714,65.0549333 71.4285714,57.7466667 L71.4285714,33.45236 C76.3819048,32.4223867 80,28.0610933 80,22.68024 L80,21.64932 C80,21.4694533 79.9657143,21.29148 79.8990476,21.1248667 L71.8038095,0.895546667 L71.8038095,0.895546667 Z M76.7047619,20.8266667 L61.2419048,20.8266667 L56.9333333,2.84 L69.507619,2.84 L76.7047619,20.8266667 L76.7047619,20.8266667 Z M39.047619,2.84 L39.047619,20.8266667 L22.647619,20.8266667 L26.9561905,2.84 L39.047619,2.84 L39.047619,2.84 Z M53.9961905,2.84 L58.3047619,20.8266667 L41.9047619,20.8266667 L41.9047619,2.84 L53.9961905,2.84 L53.9961905,2.84 Z M39.0161905,22.72 C38.9942857,27.2034133 35.3257143,30.84524 30.8190476,30.84524 C26.307619,30.84524 22.6361905,27.2034133 22.6142857,22.72 L39.0161905,22.72 L39.0161905,22.72 Z M58.212381,22.72 C58.1904762,27.2034133 54.5419048,30.84524 50.0590476,30.84524 C45.5590476,30.84524 41.8990476,27.2034133 41.8761905,22.72 L58.212381,22.72 L58.212381,22.72 Z M11.4047619,2.84 L24.0190476,2.84 L19.7104762,20.8266667 L3.35809524,20.8266667 L11.4047619,2.84 L11.4047619,2.84 Z M2.85904762,22.72 L19.752381,22.72 C19.7295238,27.1286267 15.8714286,30.84524 11.3057143,30.84524 C11.0838095,30.84524 10.8647619,30.8291467 10.6466667,30.8121067 C10.5904762,30.8092667 10.5238095,30.80548 10.4552381,30.8016933 C6.27047619,30.3756933 2.88095238,26.8512533 2.85904762,22.72 L2.85904762,22.72 Z M27.6190476,68.16 L27.6190476,50.1695467 C27.6190476,46.9205867 31.1009524,44.4933333 34.2152381,44.4933333 L45.7847619,44.4933333 C49.0028571,44.4933333 51.4285714,46.93384 51.4285714,50.1695467 L51.4285714,68.16 L27.6190476,68.16 L27.6190476,68.16 Z M68.5714286,57.7466667 C68.5714286,63.4882 64.2990476,68.16 59.047619,68.16 L54.2857143,68.16 L54.2857143,50.1695467 C54.2857143,45.3936133 50.5514286,41.6533333 45.7847619,41.6533333 L34.2152381,41.6533333 C29.7438095,41.6533333 24.7619048,45.15032 24.7619048,50.1695467 L24.7619048,68.16 L21.9047619,68.16 C16.4219048,68.16 11.4285714,63.1966267 11.4285714,57.7466667 L11.4285714,33.68524 C11.4571429,33.68524 11.4847619,33.67956 11.5133333,33.6786133 C11.9857143,33.6700933 12.4514286,33.63412 12.9104762,33.5678533 C12.947619,33.56312 12.9828571,33.5546 13.0190476,33.54892 C13.4809524,33.4769733 13.9342857,33.3804133 14.3771429,33.25356 C14.407619,33.24504 14.4361905,33.23368 14.4657143,33.22516 C14.912381,33.0935733 15.3485714,32.9373733 15.772381,32.7546667 C15.7961905,32.7442533 15.8190476,32.7328933 15.8428571,32.7215333 C16.2695238,32.5340933 16.6828571,32.3229867 17.0809524,32.08632 C17.0990476,32.0759067 17.1152381,32.0645467 17.132381,32.0531867 C17.5333333,31.8117867 17.92,31.5486133 18.287619,31.26272 C18.2990476,31.2532533 18.3095238,31.2437867 18.3219048,31.23432 C18.692381,30.9436933 19.0457143,30.63224 19.3771429,30.29996 C19.3838095,30.2933333 19.3895238,30.28576 19.3961905,30.28008 C19.7304762,29.9440133 20.0447619,29.5880667 20.3333333,29.2131867 C20.3361905,29.2094 20.3390476,29.2056133 20.3419048,29.2018267 C20.6333333,28.82316 20.9019048,28.4274533 21.1428571,28.0156533 C23.0333333,31.3943067 26.6619048,33.68524 30.8180952,33.68524 C34.9409524,33.68524 38.5447619,31.42744 40.4447619,28.0885467 C42.3428571,31.42744 45.9409524,33.68524 50.0590476,33.68524 C54.1590476,33.68524 57.7428571,31.4340667 59.6390476,28.1036933 C59.8685714,28.5098133 60.1257143,28.8988933 60.4038095,29.2709333 C60.4971429,29.3949467 60.6047619,29.5057067 60.7019048,29.6259333 C60.8971429,29.86544 61.0895238,30.1058933 61.3047619,30.32836 C61.4342857,30.46184 61.5761905,30.5801733 61.7114286,30.70608 C61.9142857,30.89636 62.1142857,31.08948 62.3304762,31.2636667 C62.4847619,31.38768 62.6504762,31.4956 62.8114286,31.6110933 C63.027619,31.7672933 63.24,31.92444 63.4666667,32.0645467 C63.6428571,32.1724667 63.827619,32.2633467 64.0085714,32.3618 C64.2361905,32.4848667 64.4647619,32.6098267 64.7019048,32.7168 C64.8952381,32.8038933 65.0961905,32.8748933 65.2952381,32.9515733 C65.5352381,33.0434 65.7752381,33.1352267 66.0247619,33.2100133 C66.232381,33.2724933 66.4447619,33.3207733 66.6571429,33.3709467 C66.9104762,33.4305867 67.1619048,33.4883333 67.4219048,33.5299867 C67.64,33.56596 67.8628571,33.5877333 68.0857143,33.6095067 C68.2495238,33.6256 68.4066667,33.6587333 68.5714286,33.6672533 L68.5714286,57.7466667 L68.5714286,57.7466667 Z M70.08,30.7903333 C70.052381,30.7893867 70.0266667,30.78276 70,30.78276 C69.912381,30.78276 69.8304762,30.8016933 69.7485714,30.8158933 C69.5552381,30.8291467 69.3638095,30.84524 69.1666667,30.84524 C64.6409524,30.84524 61.0933333,27.2791467 61.0733333,22.72 L77.1409524,22.72 C77.1228571,26.9620133 74.0942857,30.3416133 70.08,30.7903333 L70.08,30.7903333 Z" id="store_icon_default"></path>
                </g>
            </g>
        </g>
    </g>
</svg>