<?xml version="1.0" encoding="UTF-8" standalone="no"?>
<svg width="51px" height="81px" viewBox="0 0 51 81" version="1.1" xmlns="http://www.w3.org/2000/svg" xmlns:xlink="http://www.w3.org/1999/xlink" xmlns:sketch="http://www.bohemiancoding.com/sketch/ns">
    <!-- Generator: Sketch 3.1.1 (8761) - http://www.bohemiancoding.com/sketch -->
    <title>window_icon_default</title>
    <desc>Created with Sketch.</desc>
    <defs></defs>
    <g id="About" stroke="none" stroke-width="1" fill="none" fill-rule="evenodd" sketch:type="MSPage">
        <g sketch:type="MSArtboardGroup" transform="translate(-280.000000, -1750.000000)" id="In-Window-Executions" fill="#F3F1EF">
            <g sketch:type="MSLayerGroup" transform="translate(259.000000, 1750.000000)">
                <g id="Active" sketch:type="MSShapeGroup">
                    <g id="window_icon_default" transform="translate(21.000000, 0.000000)">
                        <path d="M0.6375,68.2921984 L35.7915158,80.0318823 C36.7972176,80.3677364 37.6125,79.7765343 37.6125,78.7242155 L37.6125,13.6210789 C37.6125,12.9178673 37.0611224,12.163669 36.4032972,11.9439883 L0.6375,0 L0.6375,68.2921984 Z M16.575,68.48 L4.4625,64.3572936 L4.4625,48.64 L16.575,52.7660622 L16.575,68.48 L16.575,68.48 Z M16.575,47.36 L4.4625,43.2332397 L4.4625,27.52 L16.575,31.6501167 L16.575,47.36 L16.575,47.36 Z M16.575,26.24 L4.4625,22.1132397 L4.4625,6.4 L16.575,10.5234038 L16.575,26.24 L16.575,26.24 Z M33.15,73.6 L21.0375,69.4725415 L21.0375,53.76 L33.15,57.8874585 L33.15,73.6 L33.15,73.6 Z M33.15,53.12 L21.0375,48.9902326 L21.0375,33.28 L33.15,37.4114455 L33.15,53.12 L33.15,53.12 Z M33.15,32 L21.0375,27.8705819 L21.0375,12.16 L33.15,16.2894181 L33.15,32 L33.15,32 Z" id="Shape"></path>
                        <path d="M1.28618833,0 C0.575846129,0 0,0.582126051 0,1.27036555 L0,68.4896344 C0,69.191238 0.574740751,69.76 1.28178427,69.76 L5.18539875,69.76 L3.1875,66.56 L3.1875,3.2 L47.8125,3.2 L47.8125,66.56 L37.7731615,66.56 L37.7731626,69.76 L49.7197371,69.76 C50.4268068,69.76 51,69.1778739 51,68.4896344 L51,1.27036555 C51,0.568762031 50.4272461,0 49.7138117,0 L1.28618833,0 Z" id="Shape"></path>
                    </g>
                </g>
            </g>
        </g>
    </g>
</svg>