<?xml version="1.0" encoding="UTF-8" standalone="no"?>
<svg width="140px" height="27px" viewBox="0 0 140 27" version="1.1" xmlns="http://www.w3.org/2000/svg" xmlns:xlink="http://www.w3.org/1999/xlink" xmlns:sketch="http://www.bohemiancoding.com/sketch/ns">
    <!-- Generator: Sketch 3.1.1 (8761) - http://www.bohemiancoding.com/sketch -->
    <title>amazon_hover</title>
    <desc>Created with Sketch.</desc>
    <defs></defs>
    <g id="Clients" stroke="none" stroke-width="1" fill="none" fill-rule="evenodd" sketch:type="MSPage">
        <g sketch:type="MSArtboardGroup" transform="translate(-442.000000, -1536.000000)" id="Group">
            <g sketch:type="MSLayerGroup" transform="translate(235.000000, 972.000000)">
                <g id="Amazon" transform="translate(207.000000, 564.000000)" sketch:type="MSShapeGroup">
                    <g id="amazon_hover">
                        <path d="M54.6152146,20.4005314 C49.500468,24.1062338 42.0869551,26.08336 35.7040585,26.08336 C26.7542078,26.08336 18.6970456,22.8295749 12.6014909,17.4178962 C12.1225828,16.9923408 12.5516828,16.4123857 13.1263754,16.743788 C19.7046671,20.5059794 27.8384596,22.7693196 36.2404383,22.7693196 C41.9068855,22.7693196 48.1403651,21.6169349 53.8719475,19.2255541 C54.7378154,18.8640205 55.4619252,19.782915 54.6152146,20.4005314" id="path8" fill="#FF9900"></path>
                        <path d="M56.741572,18.0091505 C56.0902534,17.1881725 52.4198962,17.6212578 50.7724498,17.8133217 C50.2705513,17.873577 50.1939283,17.4442581 50.6460158,17.1354471 C53.5692772,15.1131297 58.3660308,15.6968527 58.9253966,16.3747244 C59.4847594,17.056364 58.7798083,21.7826397 56.0327847,24.0384442 C55.6113452,24.3849122 55.2090615,24.2003826 55.396796,23.7409338 C56.013629,22.2270199 57.3967194,18.8338949 56.741572,18.0091505" id="path10" fill="#FF9900"></path>
                        <path d="M50.8873887,2.85871063 L50.8873887,0.892882232 C50.8873887,0.595371845 51.1172649,0.395776597 51.393116,0.395776597 L60.3467956,0.395776597 C60.6341434,0.395776597 60.8640196,0.599138254 60.8640196,0.892882232 L60.8640196,2.57626444 C60.8601908,2.85871063 60.6188179,3.22777417 60.1897135,3.81149715 L55.5500448,10.3228352 C57.2741185,10.2814118 59.0939724,10.5337282 60.6571308,11.3998988 C61.0096079,11.5957276 61.1053895,11.8819402 61.1322087,12.1643893 L61.1322087,14.2620262 C61.1322087,14.5482388 60.8103811,14.8834061 60.4732296,14.7101743 C57.718544,13.2904076 54.0596805,13.1360036 51.0138198,14.7252385 C50.7034874,14.8909404 50.3778296,14.5595366 50.3778296,14.273324 L50.3778296,12.2811336 C50.3778296,11.9610276 50.3816584,11.4149616 50.7073162,10.9291537 L56.0825914,3.35205129 L51.4046097,3.35205129 C51.1172649,3.35205129 50.8873887,3.15245748 50.8873887,2.85871063" id="path12" fill="#221F1F"></path>
                        <path d="M18.2257965,15.1244275 L15.5017633,15.1244275 C15.2412391,15.1055998 15.0343489,14.9135359 15.0151917,14.6687467 L15.0151917,0.926778475 C15.0151917,0.651863669 15.2488997,0.433436376 15.5400763,0.433436376 L18.0802082,0.433436376 C18.3445686,0.444726983 18.5552861,0.644329414 18.5744448,0.892882232 L18.5744448,2.68924522 L18.6242514,2.68924522 C19.2870608,0.953137591 20.532222,0.14345737 22.2103208,0.14345737 C23.9152358,0.14345737 24.9803289,0.953137591 25.7465834,2.68924522 C26.4055625,0.953137591 27.9035888,0.14345737 29.5088934,0.14345737 C30.6506124,0.14345737 31.8996068,0.606669635 32.6620295,1.6460735 C33.5240656,2.80222168 33.3478264,4.48183748 33.3478264,5.95432809 L33.3439961,14.6273233 C33.3439961,14.9022381 33.1102882,15.1244275 32.8191116,15.1244275 L30.0989072,15.1244275 C29.8268892,15.1055998 29.6085068,14.8909404 29.6085068,14.6273233 L29.6085068,7.34396488 C29.6085068,6.76400831 29.6621423,5.31788113 29.5318809,4.76805008 C29.3288239,3.84539339 28.7196514,3.58553991 27.930408,3.58553991 C27.2714289,3.58553991 26.5818003,4.01862522 26.3021174,4.71156256 C26.0224345,5.40449848 26.0492537,6.56441019 26.0492537,7.34396488 L26.0492537,14.6273233 C26.0492537,14.9022381 25.8155458,15.1244275 25.5243692,15.1244275 L22.8041678,15.1244275 C22.5283166,15.1055998 22.3137644,14.8909404 22.3137644,14.6273233 L22.3099342,7.34396488 C22.3099342,5.81122179 22.5666267,3.55541295 20.6318368,3.55541295 C18.6740552,3.55541295 18.7506811,5.75472997 18.7506811,7.34396488 L18.7506811,14.6273233 C18.7506811,14.9022381 18.5169732,15.1244275 18.2257965,15.1244275" id="path14" fill="#221F1F"></path>
                        <path d="M68.5725379,0.14345737 C72.6145294,0.14345737 74.8021843,3.55541295 74.8021843,7.8937945 C74.8021843,12.0853019 72.3846503,15.4106401 68.5725379,15.4106401 C64.6033392,15.4106401 62.4425006,11.9986846 62.4425006,7.74692179 C62.4425006,3.4687956 64.6301584,0.14345737 68.5725379,0.14345737 M68.5955239,2.94909582 C66.58794,2.94909582 66.461506,5.63798566 66.461506,7.31383792 C66.461506,8.99345372 66.4346868,12.5786426 68.5725379,12.5786426 C70.6835684,12.5786426 70.7831818,9.68639107 70.7831818,7.92392002 C70.7831818,6.76400831 70.7333751,5.37813649 70.3770649,4.27847582 C70.0705628,3.32192577 69.4613933,2.94909582 68.5955239,2.94909582" id="path16" fill="#221F1F"></path>
                        <path d="M80.0433649,15.1244275 L77.3308254,15.1244275 C77.0588031,15.1055998 76.8404206,14.8909404 76.8404206,14.6273233 L76.8365918,0.881584442 C76.8595793,0.629265215 77.0856252,0.433436376 77.3614763,0.433436376 L79.8862857,0.433436376 C80.1238225,0.444726983 80.3192175,0.602904663 80.3728573,0.81756411 L80.3728573,2.91896599 L80.4226611,2.91896599 C81.1850868,1.03975494 82.2540087,0.14345737 84.135163,0.14345737 C85.3573381,0.14345737 86.5488653,0.576542674 87.3151198,1.76281781 C88.0277358,2.86247704 88.0277358,4.71156256 88.0277358,6.04094256 L88.0277358,14.6913451 C87.9970864,14.9323637 87.7710404,15.1244275 87.5028542,15.1244275 L84.7711561,15.1244275 C84.5221212,15.1055998 84.3152325,14.9248337 84.2884162,14.6913451 L84.2884162,7.22722057 C84.2884162,5.72460444 84.464654,3.52528455 82.5834983,3.52528455 C81.9206903,3.52528455 81.3115164,3.9621377 81.0088461,4.62494378 C80.625721,5.46475383 80.5759143,6.30079604 80.5759143,7.22722057 L80.5759143,14.6273233 C80.5720855,14.9022381 80.3345444,15.1244275 80.0433678,15.1244275" id="path18" fill="#221F1F"></path>
                        <path d="M89.7326509,14.0323026 C89.7326509,13.3393652 90.3341584,12.7820057 91.0735937,12.7820057 C91.813029,12.7820057 92.4145379,13.3393652 92.4145379,14.0323026 C92.4145379,14.7214706 91.813029,15.2863659 91.0735937,15.2863659 C90.3341584,15.2863659 89.7326509,14.7214706 89.7326509,14.0323026" id="path20" fill="#221F1F"></path>
                        <path d="M118.593617,15.1281954 C118.310104,15.1168904 118.08789,14.9022381 118.08789,14.6310897 L118.08789,0.889118696 C118.103215,0.644329414 118.313934,0.452265547 118.574462,0.437204221 L119.574422,0.437204221 C119.850275,0.437204221 120.072488,0.633031624 120.095475,0.889118696 L120.095475,2.89260687 C120.808093,1.30337196 122.133713,0.0606064309 123.807979,0.0606064309 L123.911422,0.0606064309 L124.011036,0.0606064309 C125.788745,0.0606064309 127.087546,1.34856312 127.570287,3.22024278 C128.325046,1.3711587 129.742618,0.0606064309 131.612279,0.0606064309 L131.70806,0.0606064309 L131.819167,0.0606064309 C133.140956,0.0606064309 134.412938,0.896648641 135.071917,2.16954113 C135.707907,3.38594466 135.68492,5.0053051 135.68492,6.36481494 L135.681091,14.6310897 C135.68492,14.8947039 135.46654,15.1093633 135.194521,15.1281954 L133.999163,15.1281954 C133.738636,15.1168904 133.527917,14.9361315 133.493436,14.6988765 L133.493436,6.36481494 C133.493436,5.3819029 133.543243,4.33873118 133.137127,3.44243361 C132.72335,2.52730687 131.930276,1.95488168 131.079735,1.91345836 C130.129579,1.95864809 129.256049,2.64028765 128.68902,3.5591808 C127.953417,4.7454545 127.980236,5.81498533 127.980236,7.20085859 L127.980236,14.7064064 C127.945755,14.9323637 127.742696,15.1093633 127.493664,15.1281954 L126.30597,15.1281954 C126.022456,15.1168904 125.796411,14.9022381 125.796411,14.6310897 L125.788754,5.81498533 C125.788754,5.0053051 125.738947,4.05251859 125.359652,3.3256893 C124.919055,2.49718135 124.129814,1.95488168 123.302259,1.91345836 C122.444054,1.96241593 121.578186,2.60639428 121.064797,3.35581914 C120.401986,4.31236919 120.275555,5.49487936 120.275555,6.71128433 L120.275555,14.6310897 C120.275555,14.8947039 120.057173,15.1093633 119.785152,15.1281954 L118.593626,15.1281954" id="path22" fill="#221F1F"></path>
                        <path d="M110.387034,15.414408 C106.521281,15.414408 104.789546,11.5392387 104.789546,7.66407085 C104.789546,3.58930632 106.823952,0.0606064309 110.716523,0.0606064309 L110.816136,0.0606064309 L110.923412,0.0606064309 C114.708708,0.0606064309 116.593694,3.8190314 116.593694,7.69419925 C116.593694,11.7990893 114.505651,15.414408 110.590092,15.414408 L110.490479,15.414408 L110.387034,15.414408 M110.670548,13.5351969 C111.94253,13.4937693 112.946323,12.7179825 113.540171,11.4262622 C114.072718,10.2663462 114.176161,8.93696334 114.176161,7.66407085 C114.176161,6.27819759 114.022911,4.83207328 113.3601,3.64579527 C112.766253,2.61015781 111.747135,1.95111814 110.666716,1.91345836 C109.463697,1.95488168 108.38711,2.75703052 107.846902,3.99226323 C107.36033,5.06179693 107.21091,6.48155925 107.21091,7.66407085 C107.21091,8.99345372 107.387148,10.5299632 107.946514,11.6861128 C108.490555,12.7820057 109.536491,13.4937693 110.670548,13.5351969" id="path24" fill="#221F1F"></path>
                        <path d="M98.3070342,13.4749416 C100.042602,13.4222162 100.954443,12.0551764 101.329907,10.2851754 C101.406533,10.0629846 101.578941,9.89351627 101.831805,9.89351627 L102.977355,9.88975273 C103.249375,9.90104334 103.498408,10.1044122 103.475421,10.3529679 C102.946704,13.369495 101.096201,15.4144109 98.4602859,15.4144109 L98.3530106,15.4144109 L98.2533972,15.4144109 C94.4144613,15.4144109 92.7593544,11.6258589 92.7593544,7.7808166 C92.7593544,3.96590698 94.4374517,0.0606093039 98.2763847,0.0606093039 L98.3798283,0.0606093039 L98.4832734,0.0606093039 C101.149838,0.0606093039 103.050149,2.07916168 103.463927,5.09569317 C103.463927,5.32165041 103.249375,5.51747781 102.996511,5.5438398 L101.797323,5.5287756 C101.54446,5.49488223 101.379714,5.28399063 101.341401,5.0467356 C101.054056,3.36335196 100.069419,2.02267417 98.429635,1.96994875 C95.8205377,2.05279969 95.0772736,5.20866964 95.0772736,7.6377103 C95.0772736,9.97637008 95.6979398,13.3920935 98.3070342,13.4749444" id="path26" fill="#221F1F"></path>
                        <path d="M43.7497283,8.56036842 C43.7497283,9.60353726 43.7765475,10.4734728 43.2401692,11.3998988 C42.8072361,12.1530915 42.1176075,12.6163038 41.3551847,12.6163038 C40.3092473,12.6163038 39.6962446,11.8329827 39.6962446,10.6768345 C39.6962446,8.39466654 41.7766242,7.98041185 43.7497283,7.98041185 L43.7497283,8.56036842 M46.4967505,15.0867678 C46.3166824,15.2449383 46.0561538,15.256236 45.8530968,15.150791 C44.948916,14.4126639 44.784172,14.0699623 44.2899384,13.3657286 C42.7957423,14.8645784 41.734478,15.312725 39.7996868,15.312725 C37.5047551,15.312725 35.7232143,13.9230882 35.7232143,11.1400496 C35.7232143,8.96709173 36.918573,7.48707118 38.6273198,6.76400831 C40.1061903,6.1237935 42.1712429,6.01081704 43.7497283,5.83381737 L43.7497283,5.48734941 C43.7497283,4.85090102 43.799535,4.09770975 43.4164085,3.54788301 C43.0869189,3.05454091 42.4509258,2.85117925 41.8877313,2.85117925 C40.8494544,2.85117925 39.9261208,3.37464687 39.7000734,4.4592419 C39.6540985,4.70026477 39.4740304,4.9375198 39.2249956,4.94881759 L36.5852504,4.67013494 C36.3630362,4.62118024 36.1140043,4.4441777 36.1791364,4.10901041 C36.784477,0.960671845 39.6809191,0.0116488619 42.2708563,0.0116488619 C43.596478,0.0116488619 45.3282123,0.358116818 46.3741496,1.34479671 C47.6997684,2.56120024 47.5733373,4.18432709 47.5733373,5.95056168 L47.5733373,10.1232399 C47.5733373,11.3773047 48.1020521,11.9271314 48.6001175,12.605006 C48.7725265,12.8460246 48.8108394,13.1360036 48.5886164,13.3167696 C48.0330824,13.772452 47.0446137,14.619792 46.5005734,15.094302 L46.4967446,15.0867606" id="path28" fill="#221F1F"></path>
                        <path d="M8.0384481,8.56036842 C8.0384481,9.60353726 8.06526438,10.4734728 7.52888887,11.3998988 C7.09595276,12.1530915 6.41015589,12.6163038 5.6439014,12.6163038 C4.59796403,12.6163038 3.98879305,11.8329827 3.98879305,10.6768345 C3.98879305,8.39466654 6.06917259,7.98041185 8.0384481,7.98041185 L8.0384481,8.56036842 M10.7854688,15.0867678 C10.6053992,15.2449383 10.3448706,15.256236 10.1418137,15.150791 C9.23763578,14.4126639 9.07672054,14.0699623 8.5786552,13.3657286 C7.08445902,14.8645784 6.02703084,15.312725 4.08840495,15.312725 C1.79730349,15.312725 0.0119337578,13.9230882 0.0119337578,11.1400496 C0.0119337578,8.96709173 1.21112144,7.48707118 2.91603647,6.76400831 C4.39490704,6.1237935 6.45996257,6.01081704 8.0384481,5.83381737 L8.0384481,5.48734941 C8.0384481,4.85090102 8.08825478,4.09770975 7.70895854,3.54788301 C7.37563564,3.05454091 6.73964691,2.85117925 6.18027969,2.85117925 C5.14200724,2.85117925 4.21483752,3.37464687 3.98879305,4.4592419 C3.94281664,4.70026477 3.76274712,4.9375198 3.51754691,4.94881759 L0.873969875,4.67013494 C0.651755678,4.62118024 0.406554008,4.4441777 0.467854426,4.10901041 C1.07702687,0.960671845 3.96963585,0.0116488619 6.55957739,0.0116488619 C7.88519486,0.0116488619 9.6169291,0.358116818 10.6628665,1.34479671 C11.9884882,2.56120024 11.8620542,4.18432709 11.8620542,5.95056168 L11.8620542,10.1232399 C11.8620542,11.3773047 12.3907719,11.9271314 12.8888372,12.605006 C13.065075,12.8460246 13.103388,13.1360036 12.8811738,13.3167696 C12.3256397,13.772452 11.3371725,14.619792 10.7931293,15.094302 L10.7854688,15.0867606" id="path30" fill="#221F1F"></path>
                        <path d="M138.512398,0.584074055 C139.167545,0.584074055 139.711586,1.10377814 139.711586,1.75905428 C139.711586,2.39926477 139.175209,2.93779803 138.512398,2.93779803 C137.85342,2.93779803 137.317042,2.41056256 137.317042,1.75905428 C137.317042,1.09624389 137.861082,0.584074055 138.512398,0.584074055 M138.516227,0.358116818 C137.749972,0.358116818 137.087163,0.96820179 137.087163,1.76281781 C137.087163,2.54237107 137.738478,3.16375527 138.516227,3.16375527 C139.297805,3.16375527 139.941459,2.53484113 139.941459,1.76281781 C139.941459,0.96820179 139.286313,0.358116818 138.516227,0.358116818 M137.979848,2.54990245 L138.28635,2.54990245 L138.28635,1.9172219 L138.569865,1.9172219 C138.680971,1.9172219 138.711622,1.96241593 138.734609,2.05279682 C138.734609,2.0753924 138.788248,2.47458577 138.792078,2.54990245 L139.133061,2.54990245 C139.090918,2.47458577 139.067929,2.25992632 139.052605,2.13188135 C139.021954,1.9322861 139.006629,1.79294621 138.788248,1.77788201 C138.899353,1.74022223 139.090918,1.67996687 139.090918,1.38999074 C139.090918,0.975733171 138.719284,0.975733171 138.52772,0.975733171 L137.979848,0.975733171 L137.979848,2.54990245 M138.278688,1.2280524 L138.535382,1.2280524 C138.61967,1.2280524 138.772922,1.2280524 138.772922,1.44271185 C138.772922,1.52556278 138.734609,1.66490555 138.52772,1.66490555 L138.278688,1.66490555 L138.278688,1.2280524" id="path32" fill="#221F1F"></path>
                    </g>
                </g>
            </g>
        </g>
    </g>
</svg>