<?xml version="1.0" encoding="UTF-8" standalone="no"?>
<svg width="140px" height="46px" viewBox="0 0 140 46" version="1.1" xmlns="http://www.w3.org/2000/svg" xmlns:xlink="http://www.w3.org/1999/xlink" xmlns:sketch="http://www.bohemiancoding.com/sketch/ns">
    <!-- Generator: Sketch 3.3.3 (12081) - http://www.bohemiancoding.com/sketch -->
    <title>Slice 1</title>
    <desc>Created with Sketch.</desc>
    <defs></defs>
    <g id="Page-1" stroke="none" stroke-width="1" fill="none" fill-rule="evenodd" sketch:type="MSPage">
        <g id="biogen_orig_logo" sketch:type="MSLayerGroup">
            <path d="M0,0 L14.6662844,0 C13.8731651,0.0856551724 13.0848624,0.218896552 12.3174312,0.43462069 C11.1438073,0.766137931 10.0327982,1.28006897 8.9956422,1.91137931 C8.64885321,1.4037931 8.2956422,0.888275862 7.8396789,0.471103448 C7.62454128,0.417172414 7.43830275,0.594827586 7.25045872,0.667793103 C4.62224771,2.14137931 2.31353211,4.30496552 1.02110092,7.03165517 C0.455963303,8.23082759 0.11559633,9.52993103 0,10.8464828 L0,0 L0,0 Z" id="Shape" fill="#FFFFFF" sketch:type="MSShapeGroup"></path>
            <path d="M14.6662844,0 L16.637844,0 C19.8087156,0.237931034 22.8383028,1.75117241 24.9302752,4.11144828 C23.9123853,5.19006897 22.9025229,6.28296552 21.9986239,7.45834483 C20.9309633,8.64958621 19.8649083,9.85034483 18.9385321,11.1542069 C18.3926606,9.21744828 17.4309633,7.42186207 16.3793578,5.71034483 C15.2073394,3.82434483 13.8635321,2.03986207 12.3174312,0.43462069 C13.0848624,0.218896552 13.8731651,0.0856551724 14.6662844,0 L14.6662844,0 Z" id="Shape" fill="#F3F1EF" sketch:type="MSShapeGroup"></path>
            <path d="M16.637844,0 L140,0 L140,37.5153793 C139.874771,37.5153793 139.622706,37.5153793 139.497477,37.5137931 C139.385092,37.8104138 139.274312,38.1070345 139.160321,38.4036552 C139.052752,38.1117931 138.948394,37.819931 138.844037,37.528069 C138.704358,37.5201379 138.423394,37.5042759 138.283716,37.4963448 C138.275688,38.049931 138.233945,38.6051034 138.29656,39.1571034 C138.368807,39.1856552 138.516514,39.2411724 138.588761,39.2697241 C138.595183,38.8509655 138.595183,38.4337931 138.6,38.0150345 C138.749312,38.4782069 138.90344,38.9461379 139.174771,39.3569655 C139.361009,38.9191724 139.510321,38.4702759 139.65,38.0166207 C139.66445,38.4131724 139.675688,38.8097241 139.688532,39.2078621 C139.765596,39.2157931 139.92133,39.2332414 140,39.2427586 L140,46 L90.6612385,46 C93.0405963,45.7541379 95.556422,45.034 97.1683486,43.1781379 C98.8268349,41.3428966 98.8637615,38.2783448 97.1635321,36.4589655 C96.0043578,35.1408276 94.2029817,34.5761379 92.4786697,34.5428276 C90.3417431,34.5253793 88.2048165,34.5555172 86.0694954,34.5317241 C85.215367,34.5190345 84.3211009,34.1431034 83.9100917,33.3674483 C83.3947248,32.4157241 84.0594037,31.142 85.0772936,30.8675862 C85.9956422,31.0071724 86.8995413,31.2482759 87.833945,31.2895172 C90.0688073,31.4386207 92.4674312,31.0753793 94.2928899,29.708069 C95.4922018,28.8404138 96.3752294,27.5016552 96.4972477,26.0169655 C96.6931193,24.656 96.1504587,23.3061379 95.2866972,22.264 C96.1970183,22.1973793 97.1073394,22.1117241 98.0176606,22.0387586 C97.7993119,20.799931 97.6066514,19.5563448 97.3786697,18.3206897 C95.6286697,18.8758621 93.9059633,19.5262069 92.1415138,20.0337931 C89.6224771,19.6182069 86.971789,19.4135862 84.4977064,20.1876552 C83.2213303,20.569931 82.0926606,21.3773103 81.3139908,22.4448276 C80.2142202,23.9295172 80.0520642,26.0169655 80.8516055,27.6697931 C81.3075688,28.6151724 82.1263761,29.3146897 82.9885321,29.892069 C81.5275229,30.5551034 80.1146789,31.7733103 79.971789,33.4531034 C79.7711009,34.868 80.6733945,36.1322069 81.7073394,37.0077931 C80.6701835,37.5375862 79.6571101,38.279931 79.2188073,39.3902759 C78.6183486,40.9717241 78.9651376,42.9465517 80.2752294,44.0902069 C81.7779817,45.4210345 83.8635321,45.7747586 85.7997706,46 L0,46 L0,12.8006897 C0.179816514,15.0784828 0.937614679,17.296 2.09036697,19.2724138 C3.09220183,19.0170345 4.08119266,18.6902759 5.00917431,18.2382069 C5.58073394,19.1597931 6.23417431,20.0417241 7.02889908,20.7888276 C9.11444954,22.7747586 11.8711009,24.096069 14.7786697,24.2816552 C18.909633,24.6211034 23.1770642,22.7208276 25.5756881,19.3675862 C28.1733945,15.8842759 28.7224771,11.0130345 26.8793578,7.07765517 C26.3607798,6.01331034 25.7394495,4.98703448 24.9302752,4.11144828 C22.8383028,1.75117241 19.8087156,0.237931034 16.637844,0 L16.637844,0 Z" id="Shape" fill="#FFFFFF" sketch:type="MSShapeGroup"></path>
            <path d="M7.25045872,0.667793103 C7.43830275,0.594827586 7.62454128,0.417172414 7.8396789,0.471103448 C8.2956422,0.888275862 8.64885321,1.4037931 8.9956422,1.91137931 C9.39220183,2.59503448 9.43394495,3.404 9.75022936,4.12096552 C10.0889908,4.90137931 9.99266055,5.76427586 10.1323394,6.58434483 C10.325,7.8882069 10.0729358,9.18889655 9.94449541,10.4832414 C9.83050459,11.3017241 9.54472477,12.0853103 9.41788991,12.9022069 C9.36169725,12.9053793 9.25091743,12.9117241 9.19633028,12.9148966 C9.19633028,13.6064828 8.81582569,14.206069 8.57821101,14.8342069 C8.45940367,15.1625517 8.2603211,15.4528276 8.02752294,15.7129655 C7.91995413,15.9207586 7.81399083,16.1269655 7.70321101,16.3331724 C7.57477064,16.5124138 7.45114679,16.6932414 7.33073394,16.8772414 C7.30504587,16.981931 7.2809633,17.0866207 7.25688073,17.1913103 C6.51192661,17.5497931 5.73004587,17.8305517 5.00917431,18.2382069 C4.08119266,18.6902759 3.09220183,19.0170345 2.09036697,19.2724138 C0.937614679,17.296 0.179816514,15.0784828 0,12.8006897 L0,10.8464828 C0.11559633,9.52993103 0.455963303,8.23082759 1.02110092,7.03165517 C2.31353211,4.30496552 4.62224771,2.14137931 7.25045872,0.667793103 L7.25045872,0.667793103 Z" id="Shape" fill="#F3F1EF" sketch:type="MSShapeGroup"></path>
            <path d="M8.9956422,1.91137931 C10.0327982,1.28006897 11.1438073,0.766137931 12.3174312,0.43462069 C13.8635321,2.03986207 15.2073394,3.82434483 16.3793578,5.71034483 C17.4309633,7.42186207 18.3926606,9.21744828 18.9385321,11.1542069 C19.1376147,12.0884828 19.2323394,13.1068276 18.8197248,13.9998621 C18.4600917,14.7564828 17.8821101,15.3893793 17.2479358,15.9302759 C14.2488532,18.2572414 10.6669725,19.7435172 7.02889908,20.7888276 C6.23417431,20.0417241 5.58073394,19.1597931 5.00917431,18.2382069 C5.73004587,17.8305517 6.51192661,17.5497931 7.25688073,17.1913103 C7.2809633,17.0866207 7.30504587,16.981931 7.33073394,16.8772414 C7.45114679,16.6932414 7.57477064,16.5124138 7.70321101,16.3331724 C7.81399083,16.1269655 7.91995413,15.9207586 8.02752294,15.7129655 C8.2603211,15.4528276 8.45940367,15.1625517 8.57821101,14.8342069 C8.81582569,14.206069 9.19633028,13.6064828 9.19633028,12.9148966 C9.25091743,12.9117241 9.36169725,12.9053793 9.41788991,12.9022069 C9.54472477,12.0853103 9.83050459,11.3017241 9.94449541,10.4832414 C10.0729358,9.18889655 10.325,7.8882069 10.1323394,6.58434483 C9.99266055,5.76427586 10.0889908,4.90137931 9.75022936,4.12096552 C9.43394495,3.404 9.39220183,2.59503448 8.9956422,1.91137931 L8.9956422,1.91137931 Z" id="Shape" fill="#F3F1EF" sketch:type="MSShapeGroup"></path>
            <path d="M24.9302752,4.11144828 C25.7394495,4.98703448 26.3607798,6.01331034 26.8793578,7.07765517 C25.9626147,9.11434483 25.2979358,11.2398621 24.5353211,13.3336552 C24.2543578,13.9237241 24.0729358,14.5645517 23.7036697,15.1102069 C23.7309633,15.2815172 23.7983945,15.4655172 23.6795872,15.6225517 C23.3761468,16.2475172 23.2396789,16.935931 22.921789,17.5561379 C22.737156,17.8797241 22.8800459,18.2873793 22.6552752,18.5935172 C22.5477064,18.7743448 22.4256881,18.944069 22.3052752,19.1153793 C20.4188073,18.3968276 18.8052752,17.1738621 17.2479358,15.9302759 C17.8821101,15.3893793 18.4600917,14.7564828 18.8197248,13.9998621 C19.2323394,13.1068276 19.1376147,12.0884828 18.9385321,11.1542069 C19.8649083,9.85034483 20.9309633,8.64958621 21.9986239,7.45834483 C22.9025229,6.28296552 23.9123853,5.19006897 24.9302752,4.11144828 L24.9302752,4.11144828 Z" id="Shape" fill="#F3F1EF" sketch:type="MSShapeGroup"></path>
            <path d="M10.7889908,4.35572414 C11.5114679,4.32241379 12.2162844,4.50641379 12.9307339,4.57144828 C13.9614679,4.86013793 14.8637615,5.48034483 15.7917431,5.95937931 C16.2894495,6.86034483 17.133945,7.56462069 17.4116972,8.58296552 C17.7568807,9.55372414 17.4052752,10.6006207 17.7087156,11.5793103 C17.5353211,12.236 17.3555046,12.9196552 17.0472477,13.531931 C16.4211009,14.405931 15.918578,15.4782069 14.862156,15.9175862 C13.9534404,16.6107586 12.8231651,16.8566207 11.7169725,17.0406207 C10.7905963,16.7424138 9.75986239,17.0437931 8.86880734,16.5742759 C9.01651376,16.3331724 9.32477064,16.2506897 9.54472477,16.0888966 C10.843578,15.2561379 12.2162844,14.3868966 12.9949541,13.018 C13.5841743,12.0456552 13.4926606,10.8448966 13.2470183,9.78372414 C12.7332569,7.85489655 11.7458716,6.09737931 10.7889908,4.35572414 L10.7889908,4.35572414 Z" id="Shape" fill="#F3F1EF" sketch:type="MSShapeGroup"></path>
            <path d="M4.0587156,5.03303448 C4.41995413,5.06951724 4.78119266,5.14248276 5.12477064,5.26303448 C5.61766055,5.50889655 5.87133028,6.01965517 6.09610092,6.49075862 C6.52316514,7.21882759 6.27752294,8.08965517 6.34495413,8.88593103 C6.44770642,9.9582069 6.03669725,11.0114483 5.43463303,11.8854483 C5.06055046,12.4469655 4.39266055,12.8466897 3.69747706,12.7784828 C3.28807339,12.8197241 2.87706422,12.6484138 2.6603211,12.2962759 C2.23325688,11.6522759 1.72110092,10.9622759 1.84633028,10.1453793 C1.77408257,8.73682759 1.88486239,7.21565517 2.76146789,6.04186207 C3.12110092,5.6357931 3.50642202,5.16944828 4.0587156,5.03303448 L4.0587156,5.03303448 Z" id="Shape" fill="#F3F1EF" sketch:type="MSShapeGroup"></path>
            <path d="M26.8793578,7.07765517 C28.7224771,11.0130345 28.1733945,15.8842759 25.5756881,19.3675862 C24.4807339,19.5452414 23.3456422,19.5468276 22.3052752,19.1153793 C22.4256881,18.944069 22.5477064,18.7743448 22.6552752,18.5935172 C22.8800459,18.2873793 22.737156,17.8797241 22.921789,17.5561379 C23.2396789,16.935931 23.3761468,16.2475172 23.6795872,15.6225517 C23.7983945,15.4655172 23.7309633,15.2815172 23.7036697,15.1102069 C24.0729358,14.5645517 24.2543578,13.9237241 24.5353211,13.3336552 C25.2979358,11.2398621 25.9626147,9.11434483 26.8793578,7.07765517 L26.8793578,7.07765517 Z" id="Shape" fill="#F3F1EF" sketch:type="MSShapeGroup"></path>
            <path d="M31.7408257,13.4145517 C35.2327982,13.3875862 38.7263761,13.4050345 42.2183486,13.4066207 C44.2733945,13.4891034 46.5821101,13.5985517 48.1747706,15.0610345 C50.4802752,17.0311034 51.1288991,20.6682759 49.5538991,23.2617241 C48.7639908,24.5782759 47.3896789,25.4871724 45.8853211,25.8075862 C47.2917431,26.1565517 48.7158257,26.7148966 49.6807339,27.8347586 C52.2094037,30.6788276 51.612156,35.5786207 48.5327982,37.8088276 C46.9561927,38.9477241 44.9364679,39.1951724 43.037156,39.2189655 C39.2738532,39.2221379 35.5105505,39.2173793 31.7472477,39.2205517 C31.7440367,30.6185517 31.7568807,22.0165517 31.7408257,13.4145517 L31.7408257,13.4145517 Z" id="Shape" fill="#F3F1EF" sketch:type="MSShapeGroup"></path>
            <path d="M53.6543578,13.4161379 C55.131422,13.3923448 56.6100917,13.3986897 58.087156,13.4129655 C58.0727064,14.9151034 58.0791284,16.4156552 58.083945,17.9177931 C56.6100917,17.9288966 55.134633,17.9273103 53.6591743,17.9177931 C53.6607798,16.4172414 53.6720183,14.9166897 53.6543578,13.4161379 L53.6543578,13.4161379 Z" id="Shape" fill="#F3F1EF" sketch:type="MSShapeGroup"></path>
            <path d="M7.02889908,20.7888276 C10.6669725,19.7435172 14.2488532,18.2572414 17.2479358,15.9302759 C18.8052752,17.1738621 20.4188073,18.3968276 22.3052752,19.1153793 C23.3456422,19.5468276 24.4807339,19.5452414 25.5756881,19.3675862 C23.1770642,22.7208276 18.909633,24.6211034 14.7786697,24.2816552 C11.8711009,24.096069 9.11444954,22.7747586 7.02889908,20.7888276 L7.02889908,20.7888276 Z" id="Shape" fill="#F3F1EF" sketch:type="MSShapeGroup"></path>
            <path d="M36.2442661,17.1326207 C38.1291284,17.1326207 40.0139908,17.1278621 41.8988532,17.1342069 C43.1977064,17.1516552 44.6362385,17.6608276 45.318578,18.8203448 C46.1438073,20.4081379 45.7215596,22.6367586 44.1577982,23.6313103 C43.4931193,24.0627586 42.687156,24.2308966 41.8988532,24.2293103 C40.0204128,24.2356552 38.1419725,24.2166207 36.2651376,24.2388276 C36.2201835,21.8706207 36.2603211,19.5008276 36.2442661,17.1326207 L36.2442661,17.1326207 Z" id="Shape" fill="#FFFFFF" sketch:type="MSShapeGroup"></path>
            <path d="M92.1415138,20.0337931 C93.9059633,19.5262069 95.6286697,18.8758621 97.3786697,18.3206897 C97.6066514,19.5563448 97.7993119,20.799931 98.0176606,22.0387586 C97.1073394,22.1117241 96.1970183,22.1973793 95.2866972,22.264 C96.1504587,23.3061379 96.6931193,24.656 96.4972477,26.0169655 C96.3752294,27.5016552 95.4922018,28.8404138 94.2928899,29.708069 C92.4674312,31.0753793 90.0688073,31.4386207 87.833945,31.2895172 C86.8995413,31.2482759 85.9956422,31.0071724 85.0772936,30.8675862 C84.0594037,31.142 83.3947248,32.4157241 83.9100917,33.3674483 C84.3211009,34.1431034 85.215367,34.5190345 86.0694954,34.5317241 C88.2048165,34.5555172 90.3417431,34.5253793 92.4786697,34.5428276 C94.2029817,34.5761379 96.0043578,35.1408276 97.1635321,36.4589655 C98.8637615,38.2783448 98.8268349,41.3428966 97.1683486,43.1781379 C95.556422,45.034 93.0405963,45.7541379 90.6612385,46 L85.7997706,46 C83.8635321,45.7747586 81.7779817,45.4210345 80.2752294,44.0902069 C78.9651376,42.9465517 78.6183486,40.9717241 79.2188073,39.3902759 C79.6571101,38.279931 80.6701835,37.5375862 81.7073394,37.0077931 C80.6733945,36.1322069 79.7711009,34.868 79.971789,33.4531034 C80.1146789,31.7733103 81.5275229,30.5551034 82.9885321,29.892069 C82.1263761,29.3146897 81.3075688,28.6151724 80.8516055,27.6697931 C80.0520642,26.0169655 80.2142202,23.9295172 81.3139908,22.4448276 C82.0926606,21.3773103 83.2213303,20.569931 84.4977064,20.1876552 C86.971789,19.4135862 89.6224771,19.6182069 92.1415138,20.0337931 L92.1415138,20.0337931 Z" id="Shape" fill="#F3F1EF" sketch:type="MSShapeGroup"></path>
            <path d="M68.1697248,19.7942759 C70.4061927,19.504 72.8112385,19.918 74.6366972,21.2868966 C76.6724771,22.7747586 77.9504587,25.1350345 78.2795872,27.5984138 C78.6247706,30.168069 78.3759174,32.9185517 77.0594037,35.2058621 C75.8392202,37.3186897 73.7151376,38.9493103 71.2763761,39.4093103 C68.6288991,39.9168966 65.6041284,39.4981379 63.5972477,37.5867586 C61.7798165,35.7784828 60.7169725,33.2881379 60.4970183,30.7628966 C60.2481651,28.0726897 60.8052752,25.2143448 62.5087156,23.046 C63.8380734,21.2504138 65.9268349,20.0369655 68.1697248,19.7942759 L68.1697248,19.7942759 Z" id="Shape" fill="#F3F1EF" sketch:type="MSShapeGroup"></path>
            <path d="M104.242202,20.1876552 C106.329358,19.5404828 108.646101,19.5246207 110.712385,20.2558621 C112.425459,20.8681379 113.793349,22.1957931 114.666743,23.7518621 C115.766514,25.7076552 116.171101,28.0028966 116.041055,30.222 C111.637156,30.2124828 107.233257,30.2251724 102.829358,30.2156552 C102.847018,31.7637931 102.904817,33.5228966 104.041514,34.7204828 C104.762385,35.5468966 105.804358,36.0973103 106.913761,36.156 C108.101835,36.2495862 109.391055,36.0370345 110.315826,35.2423448 C111.004587,34.684 111.454128,33.9004138 111.763991,33.0882759 C113.090138,33.2706897 114.421101,33.4277241 115.744037,33.633931 C114.962156,36.3701379 112.647018,38.6288966 109.840596,39.2951034 C107.795183,39.7693793 105.579587,39.7376552 103.611239,38.9667586 C101.166055,38.0055172 99.3694954,35.7784828 98.706422,33.2913103 C98.1075688,31.0452414 98.0883028,28.6342069 98.6743119,26.3817931 C99.412844,23.6217931 101.437385,21.0870345 104.242202,20.1876552 L104.242202,20.1876552 Z" id="Shape" fill="#F3F1EF" sketch:type="MSShapeGroup"></path>
            <path d="M124.986927,20.8554483 C127.36789,18.9155172 131.233945,19.55 133.147706,21.8404828 C134.361468,23.4346207 134.430505,25.5252414 134.462615,27.4382069 C134.449771,31.3672414 134.488303,35.2978621 134.443349,39.2268966 C132.977523,39.2126207 131.511697,39.2221379 130.045872,39.2189655 C130.044266,35.1852414 130.047477,31.1515172 130.044266,27.1177931 C130.029817,26.0423448 129.736009,24.8717241 128.859404,24.1611034 C128.173853,23.5742069 127.202523,23.3806897 126.329128,23.5884828 C125.033486,23.874 123.975459,24.8669655 123.437615,26.0423448 C122.944725,27.1273103 122.840367,28.3344138 122.821101,29.5082069 C122.821101,32.7456552 122.819495,35.9831034 122.822706,39.2205517 C121.363303,39.2173793 119.903899,39.2221379 118.446101,39.2189655 C118.444495,32.8471724 118.446101,26.4737931 118.444495,20.102 C119.785092,20.1146897 121.127294,20.0845517 122.46789,20.1178621 C122.458257,21.5105517 122.451835,22.9048276 122.471101,24.2975172 C123.140596,23.046 123.830963,21.7437241 124.986927,20.8554483 L124.986927,20.8554483 Z" id="Shape" fill="#F3F1EF" sketch:type="MSShapeGroup"></path>
            <path d="M53.6575688,20.1146897 C55.134633,20.0988276 56.6100917,20.0924828 58.087156,20.1178621 C58.0727064,26.4833103 58.083945,32.8503448 58.0807339,39.2157931 C56.6052752,39.2142069 55.1298165,39.238 53.6559633,39.2031034 C53.6688073,32.8408276 53.6639908,26.4769655 53.6575688,20.1146897 L53.6575688,20.1146897 Z" id="Shape" fill="#F3F1EF" sketch:type="MSShapeGroup"></path>
            <path d="M87.0986239,22.6351724 C88.018578,22.3686897 89.0188073,22.3686897 89.9387615,22.6304138 C91.0770642,22.9587586 91.9360092,24.0421379 91.9905963,25.2127586 C92.040367,26.1851034 91.8155963,27.2668966 91.0529817,27.9426207 C90.2614679,28.6294483 89.1456422,28.7563448 88.1341743,28.7087586 C87.15,28.6770345 86.1288991,28.29 85.5284404,27.4905517 C84.9424312,26.7386897 84.8091743,25.7203448 85.0146789,24.8114483 C85.2603211,23.7915172 86.0855505,22.9397241 87.0986239,22.6351724 L87.0986239,22.6351724 Z" id="Shape" fill="#FFFFFF" sketch:type="MSShapeGroup"></path>
            <path d="M104.397936,23.8295862 C105.918349,22.3972414 108.56422,22.4257931 110.054128,23.8914483 C111.038303,24.7797241 111.452523,26.1010345 111.515138,27.3858621 C108.612385,27.408069 105.706422,27.4207586 102.80367,27.377931 C102.980275,26.0835862 103.380046,24.7273793 104.397936,23.8295862 L104.397936,23.8295862 Z" id="Shape" fill="#FFFFFF" sketch:type="MSShapeGroup"></path>
            <path d="M68.593578,23.3695862 C69.9566514,23.0904138 71.5477064,23.4266897 72.4275229,24.564 C73.5818807,26.0471034 73.7809633,28.0092414 73.7745413,29.8191034 C73.7247706,31.4195862 73.5594037,33.1311034 72.6137615,34.4857241 C71.2940367,36.4018621 68.081422,36.5573103 66.5802752,34.776 C65.4259174,33.4657931 65.1642202,31.6527586 65.1048165,29.9761379 C65.0823394,28.2947586 65.287844,26.5324828 66.1756881,25.062069 C66.687844,24.188069 67.5821101,23.544069 68.593578,23.3695862 L68.593578,23.3695862 Z" id="Shape" fill="#FFFFFF" sketch:type="MSShapeGroup"></path>
            <path d="M36.2651376,27.9473793 C38.3587156,27.9727586 40.4555046,27.9521379 42.5506881,27.9568966 C43.5926606,27.968 44.6571101,28.3312414 45.3940367,29.0783448 C46.6094037,30.229931 46.7474771,32.2301379 45.8901376,33.6228276 C45.1805046,34.7347586 43.8318807,35.2804138 42.5362385,35.2883448 C40.4394495,35.2962759 38.341055,35.289931 36.2426606,35.2915172 C36.2603211,32.844 36.218578,30.3948966 36.2651376,27.9473793 L36.2651376,27.9473793 Z" id="Shape" fill="#FFFFFF" sketch:type="MSShapeGroup"></path>
            <path d="M136.790596,37.5106207 C137.248165,37.5122069 137.705734,37.5137931 138.164908,37.5248966 L138.160092,37.8135862 C138.047706,37.819931 137.82133,37.8342069 137.708945,37.8421379 C137.713761,38.3021379 137.712156,38.7637241 137.700917,39.2237241 C137.554817,39.2173793 137.408716,39.2110345 137.265826,39.2062759 C137.275459,38.7415172 137.272248,38.2751724 137.249771,37.812 C137.134174,37.8167586 136.902982,37.8294483 136.787385,37.8342069 L136.790596,37.5106207 L136.790596,37.5106207 Z" id="Shape" fill="#F3F1EF" sketch:type="MSShapeGroup"></path>
            <path d="M138.29656,39.1571034 C138.233945,38.6051034 138.275688,38.049931 138.283716,37.4963448 C138.423394,37.5042759 138.704358,37.5201379 138.844037,37.528069 C138.948394,37.819931 139.052752,38.1117931 139.160321,38.4036552 C139.274312,38.1070345 139.385092,37.8104138 139.497477,37.5137931 C139.622706,37.5153793 139.874771,37.5153793 140,37.5153793 L140,39.2427586 C139.92133,39.2332414 139.765596,39.2157931 139.688532,39.2078621 C139.675688,38.8097241 139.66445,38.4131724 139.65,38.0166207 C139.510321,38.4702759 139.361009,38.9191724 139.174771,39.3569655 C138.90344,38.9461379 138.749312,38.4782069 138.6,38.0150345 C138.595183,38.4337931 138.595183,38.8509655 138.588761,39.2697241 C138.516514,39.2411724 138.368807,39.1856552 138.29656,39.1571034 L138.29656,39.1571034 Z" id="Shape" fill="#F3F1EF" sketch:type="MSShapeGroup"></path>
            <path d="M82.7300459,39.8153793 C82.7637615,39.1682069 83.2181193,38.6574483 83.637156,38.1990345 C84.6357798,38.4448966 85.6552752,38.6637931 86.6908257,38.6653793 C88.2449541,38.6653793 89.8006881,38.6653793 91.3548165,38.6637931 C92.228211,38.6701379 93.1481651,38.8684138 93.8321101,39.4315172 C94.4502294,39.9930345 94.4486239,40.9891724 94.0038991,41.6537931 C93.5238532,42.3850345 92.6360092,42.7022759 91.8123853,42.8751724 C90.4043578,43.1543448 88.9513761,43.1511724 87.5272936,43.0226897 C86.3151376,42.8973793 85.059633,42.6546897 84.0529817,41.9345517 C83.3385321,41.4571034 82.7396789,40.7004828 82.7300459,39.8153793 L82.7300459,39.8153793 Z" id="Shape" fill="#FFFFFF" sketch:type="MSShapeGroup"></path>
        </g>
    </g>
</svg>
