<?xml version="1.0" encoding="UTF-8" standalone="no"?>
<svg width="140px" height="44px" viewBox="0 0 140 44" version="1.1" xmlns="http://www.w3.org/2000/svg" xmlns:xlink="http://www.w3.org/1999/xlink" xmlns:sketch="http://www.bohemiancoding.com/sketch/ns">
    <!-- Generator: Sketch 3.4 (15588) - http://www.bohemiancoding.com/sketch -->
    <title>Slice 1</title>
    <desc>Created with Sketch.</desc>
    <defs></defs>
    <g id="Page-1" stroke="none" stroke-width="1" fill="none" fill-rule="evenodd" sketch:type="MSPage">
        <g id="cambria_hover" sketch:type="MSLayerGroup">
            <path d="M0,0 L112.8204,0 C111.86,0.427171053 110.7428,0.953355263 110.4404,2.07078947 C109.9084,3.60125 111.0256,5.31842105 112.5768,5.58151316 C114.3324,6.06809211 116.8384,5.22789474 116.9,3.09486842 C117.138,1.54743421 115.794,0.579934211 114.5928,0 L140,0 L140,23.6386842 C137.3456,16.2013816 134.6548,8.77822368 131.9724,1.35223684 C129.906,1.36638158 127.8424,1.35789474 125.7788,1.36355263 C123.13,8.80368421 120.4364,16.2296711 117.754,23.6556579 C119.9352,23.6584868 122.1192,23.65 124.3004,23.6641447 C124.698,22.3656579 125.0956,21.07 125.496,19.7743421 C127.736,19.7545395 129.976,19.7658553 132.216,19.7630263 C132.608,21.0643421 133.014,22.3628289 133.406,23.6613158 C135.604,23.6754605 137.8048,23.6019079 140,23.6980921 L140,43 L108.822,43 C110.3312,42.4426974 110.8072,40.4256579 109.9868,39.1215132 C109.074,38.0804605 107.4276,38.2473684 106.4924,37.24875 C105.9436,36.3717763 106.8088,35.2203947 107.7888,35.3957895 C108.682,35.3901316 108.8164,36.4057237 109.0432,37.0648684 C109.452,37.0648684 109.8636,37.0676974 110.278,37.0676974 C110.0652,36.2557895 110.0456,35.2034211 109.214,34.7536184 C108.3208,34.2925 107.2092,34.3179605 106.2936,34.6913816 C104.9496,35.2317105 104.6752,37.1836842 105.5488,38.2473684 C106.4952,39.1045395 107.9708,39.0451316 108.864,39.9815132 C109.6424,40.8952632 108.626,42.3691447 107.5088,42.1258553 C106.4896,42.0947368 106.2684,40.9546711 106.0276,40.1710526 C105.63,40.1653947 105.2352,40.1625658 104.8432,40.1597368 C104.9188,41.3196053 105.2856,42.5671711 106.4812,43 L102.228,43 C103.4096,42.5501974 103.8856,41.3280921 104.0788,40.1653947 C103.6756,40.1653947 103.2724,40.1653947 102.872,40.1682237 C102.6956,40.6774342 102.5584,41.2092763 102.2756,41.6703947 C101.752,42.40875 100.4948,42.2305263 100.1196,41.4271053 C99.7304,40.6576316 99.75,39.7636842 99.6296,38.9263158 C101.1136,38.9036842 102.5948,38.9121711 104.0816,38.9121711 C103.9864,37.5882237 104.1376,36.0011842 103.1044,34.9940789 C101.8248,33.9473684 99.4812,34.2896711 98.8624,35.9502632 C98.2408,37.6136842 98.266,39.4864474 98.6664,41.2007895 C98.8428,41.9759211 99.456,42.5077632 100.0272,43 L97.8684,43 C97.9048,42.6718421 97.944,42.3436842 97.9832,42.0183553 C97.5492,41.9278289 97.1152,41.8486184 96.6952,41.7184868 C96.2948,39.7382237 96.6112,37.6872368 96.5216,35.6758553 C96.9892,35.6645395 97.4596,35.6532237 97.93,35.6419079 C97.9356,35.31375 97.9412,34.9827632 97.9496,34.6546053 C97.468,34.6489474 96.9892,34.6461184 96.5132,34.6404605 C96.516,33.8342105 96.5188,33.0307895 96.5244,32.2245395 C96.0904,32.2160526 95.6564,32.2103947 95.2224,32.2019079 C95.2252,33.0194737 95.228,33.8342105 95.228,34.6517763 C94.8444,34.6461184 94.4636,34.6376316 94.0828,34.6291447 C94.0688,34.9714474 94.0576,35.31375 94.0464,35.6588816 C94.4384,35.6617105 94.8304,35.6673684 95.2252,35.6730263 C95.2728,37.7325 95.1412,39.7976316 95.2728,41.8571053 C95.2756,42.3889474 95.7348,42.7057895 96.1044,43 L87.9872,43 C88.3932,42.7255921 88.7852,42.4257237 89.1744,42.1258553 C89.1828,42.3125658 89.1996,42.6888158 89.2108,42.8755263 C89.6112,42.8642105 90.0144,42.8528947 90.4176,42.8444079 C90.4008,40.1144737 90.4008,37.3845395 90.4176,34.6546053 C89.978,34.6517763 89.5412,34.6489474 89.1072,34.6489474 C89.0792,36.5867763 89.1856,38.5274342 89.0792,40.4624342 C89.1352,41.5911842 87.7548,42.4172368 86.8,41.8542763 C86.2344,41.5091447 86.2876,40.7481579 86.2512,40.1738816 C86.2372,38.3294079 86.2736,36.4877632 86.2596,34.6432895 C85.834,34.6432895 85.4112,34.6432895 84.9884,34.6461184 C85.0332,36.8640132 84.9072,39.0875658 85.0388,41.3026316 C85.0108,42.0098684 85.5148,42.5219079 85.9516,43 L82.3172,43 C83.8964,42.4879605 84.4256,40.2842105 83.4288,39.0225 C82.4936,38.1426974 81.0544,38.1766447 80.0912,37.3505921 C79.3632,36.4509868 80.3852,35.1326974 81.4352,35.4042763 C82.2668,35.4693421 82.3256,36.4481579 82.5552,37.0620395 C82.9808,37.0648684 83.4064,37.0676974 83.8376,37.0705263 C83.6304,36.1709211 83.5044,34.9827632 82.4992,34.6263158 C81.4408,34.2755263 80.1108,34.3038158 79.2428,35.0817763 C78.4336,35.85125 78.3832,37.24875 78.9992,38.1483553 C79.9204,39.1469737 81.5444,39.0055263 82.446,40.0182895 C83.1376,41.0338816 82.0876,42.4342105 80.934,42.1145395 C79.9624,42.0155263 79.8308,40.9150658 79.604,40.1653947 C79.1728,40.1795395 78.7416,40.1965132 78.3132,40.2163158 C78.5036,41.3139474 78.834,42.5077632 79.9428,43 L70.5376,43 C71.1228,42.6859868 71.68,42.3182237 72.2344,41.9476316 C72.436,42.2446711 72.6376,42.5388816 72.8392,42.83875 C73.3432,42.8500658 73.8444,42.8642105 74.3484,42.8755263 C73.9004,42.2475 73.4552,41.6223026 73.0128,40.9914474 C73.4132,39.9305921 73.696,38.8301316 73.9172,37.7183553 C73.5168,37.7098684 73.1164,37.7042105 72.7188,37.6985526 C72.562,38.4086184 72.4164,39.1215132 72.2372,39.82875 C71.4924,38.8244737 70.7868,37.7919079 70.0728,36.7678289 C71.0304,35.9163158 72.2904,34.8554605 71.9096,33.3928947 C71.4812,31.2881579 67.9588,31.3871711 67.4548,33.4042105 C67.1076,34.5725658 67.9196,35.6192763 68.4516,36.5811184 C67.4744,37.3647368 66.3656,38.2671711 66.262,39.6250658 C66.0128,41.0621711 66.8752,42.4738158 68.1996,43 L60.1552,43 C61.6588,42.4936184 62.1768,40.5331579 61.418,39.2176974 C60.5416,38.0408553 58.7412,38.2869737 57.8088,37.195 C57.3132,36.2161842 58.3268,35.1553289 59.3236,35.4127632 C60.116,35.5259211 60.1608,36.4651316 60.3932,37.0676974 C60.8188,37.0676974 61.2472,37.0648684 61.6756,37.0648684 C61.4376,36.2501316 61.3956,35.1723026 60.5472,34.7309868 C59.6316,34.2896711 58.5116,34.3151316 57.5904,34.7253289 C56.0224,35.4184211 55.9944,38.1964474 57.6968,38.7367763 C58.6628,39.2629605 60.4352,39.3223684 60.4716,40.7538158 C60.5836,42.0721053 58.6712,42.6209211 57.9404,41.6279605 C57.694,41.1753289 57.5988,40.6576316 57.4476,40.1682237 C57.0192,40.1795395 56.5936,40.1908553 56.168,40.2021711 C56.3052,41.3252632 56.6664,42.5303947 57.8032,43 L50.8172,43 C51.9932,42.5388816 52.4384,41.3111184 52.668,40.1597368 C52.248,40.1625658 51.828,40.1682237 51.408,40.1738816 C51.2316,40.6944079 51.1308,41.2545395 50.8228,41.7184868 C50.2992,42.3521711 49.1988,42.2446711 48.7704,41.5515789 C48.272,40.7792763 48.3476,39.8004605 48.2384,38.9206579 C49.7056,38.9008553 51.1728,38.9121711 52.64,38.9178289 C52.5868,37.5655921 52.71,35.9474342 51.618,34.9516447 C50.1592,33.8115789 47.6084,34.4876974 47.25,36.4368421 C46.7824,38.6179605 46.5724,41.4695395 48.5268,43 L46.438,43 C46.466,42.6718421 46.4968,42.3436842 46.5248,42.0183553 C46.0768,41.8655921 45.5084,41.9080263 45.1612,41.5402632 C44.9596,39.5939474 45.1416,37.625 45.0884,35.6673684 C45.5644,35.6645395 46.0404,35.6617105 46.5192,35.6588816 C46.5052,35.3165789 46.4912,34.9771053 46.4772,34.6376316 C46.0124,34.6404605 45.5504,34.6432895 45.0884,34.6461184 C45.0856,33.8342105 45.0856,33.0223026 45.0856,32.2103947 C44.674,32.2075658 44.2652,32.2047368 43.8536,32.2019079 C43.8508,33.0166447 43.8508,33.8285526 43.8452,34.6432895 C43.4196,34.6489474 42.9968,34.6517763 42.5712,34.6602632 C42.5796,34.9035526 42.5936,35.3929605 42.602,35.6390789 C43.022,35.6588816 43.4392,35.6786842 43.8592,35.7013158 C43.8844,37.7607895 43.7864,39.8202632 43.8816,41.8769079 C43.7892,42.4964474 44.3968,42.73125 44.8224,43 L40.3004,43 C41.426,42.5360526 42.0056,41.3705263 42.1232,40.2021711 C42.3108,38.7820395 42.2912,37.2685526 41.7396,35.9304605 C40.9724,33.9388816 37.7076,33.8794737 36.8396,35.8088158 C36.176,37.24875 36.2516,38.9093421 36.4308,40.4454605 C36.5596,41.5317763 37.1756,42.5360526 38.178,43 L0,43 L0,14.2069737 C0.5852,16.5040789 1.0892,18.9426316 2.6936,20.7729605 C4.2868,22.7305921 6.7396,23.8253947 9.2176,23.9866447 C11.7544,24.1903289 14.4704,23.6782895 16.4948,22.0346711 C17.7548,21.0473684 18.6312,19.6781579 19.4432,18.3117763 C17.7296,17.3640789 15.988,16.4673026 14.2716,15.5224342 C13.4792,16.7332237 12.7036,18.2467105 11.172,18.5890132 C9.912,18.8690789 8.456,18.5211184 7.7028,17.3951974 C6.4932,15.6497368 6.3924,13.38375 6.5156,11.3271053 C6.6696,9.87868421 6.9664,8.31144737 8.0164,7.23644737 C9.0244,6.17559211 10.7912,6.06243421 11.9896,6.84605263 C12.9416,7.53065789 13.3448,8.69335526 13.832,9.71460526 C15.6744,8.98190789 17.5224,8.26335526 19.3648,7.53348684 C18.5416,5.47118421 17.5,3.29006579 15.4896,2.16980263 C13.0844,0.826052632 10.1584,0.828881579 7.5236,1.32111842 C5.096,1.89539474 2.9596,3.52769737 1.7248,5.71447368 C0.8092,7.25907895 0.5068,9.05828947 0,10.7584868 L0,0 L0,0 Z" id="Shape" fill="#FFFFFF" sketch:type="MSShapeGroup"></path>
            <path d="M112.8204,0 L114.5928,0 C115.794,0.579934211 117.138,1.54743421 116.9,3.09486842 C116.8384,5.22789474 114.3324,6.06809211 112.5768,5.58151316 C111.0256,5.31842105 109.9084,3.60125 110.4404,2.07078947 C110.7428,0.953355263 111.86,0.427171053 112.8204,0 L112.8204,0 Z" id="Shape" fill="#CF8B29" sketch:type="MSShapeGroup"></path>
            <path d="M7.5236,1.32111842 C10.1584,0.828881579 13.0844,0.826052632 15.4896,2.16980263 C17.5,3.29006579 18.5416,5.47118421 19.3648,7.53348684 C17.5224,8.26335526 15.6744,8.98190789 13.832,9.71460526 C13.3448,8.69335526 12.9416,7.53065789 11.9896,6.84605263 C10.7912,6.06243421 9.0244,6.17559211 8.0164,7.23644737 C6.9664,8.31144737 6.6696,9.87868421 6.5156,11.3271053 C6.3924,13.38375 6.4932,15.6497368 7.7028,17.3951974 C8.456,18.5211184 9.912,18.8690789 11.172,18.5890132 C12.7036,18.2467105 13.4792,16.7332237 14.2716,15.5224342 C15.988,16.4673026 17.7296,17.3640789 19.4432,18.3117763 C18.6312,19.6781579 17.7548,21.0473684 16.4948,22.0346711 C14.4704,23.6782895 11.7544,24.1903289 9.2176,23.9866447 C6.7396,23.8253947 4.2868,22.7305921 2.6936,20.7729605 C1.0892,18.9426316 0.5852,16.5040789 0,14.2069737 L0,10.7584868 C0.5068,9.05828947 0.8092,7.25907895 1.7248,5.71447368 C2.9596,3.52769737 5.096,1.89539474 7.5236,1.32111842 L7.5236,1.32111842 Z" id="Shape" fill="#5C6770" sketch:type="MSShapeGroup"></path>
            <path d="M27.2356,1.36072368 C29.302,1.35223684 31.3684,1.37486842 33.4348,1.34657895 C36.1228,8.78105263 38.7968,16.2211842 41.4792,23.6584868 C39.2728,23.6528289 37.0664,23.6556579 34.86,23.6584868 C34.4456,22.3769737 34.1572,21.0501974 33.6392,19.8082895 C31.4132,19.7007895 29.1844,19.7828289 26.9556,19.7771711 C26.558,21.0756579 26.166,22.3769737 25.746,23.6669737 C23.5704,23.6471711 21.3948,23.6528289 19.2192,23.6641447 C21.882,16.2268421 24.6008,8.80934211 27.2356,1.36072368 L27.2356,1.36072368 Z" id="Shape" fill="#5C6770" sketch:type="MSShapeGroup"></path>
            <path d="M43.1088,1.36072368 C44.9876,1.36072368 46.8636,1.36355263 48.7424,1.35789474 C50.638,5.51361842 52.5924,9.64388158 54.3032,13.8844737 C55.9384,9.61559211 57.932,5.50230263 59.8276,1.34657895 C61.6812,1.36921053 63.532,1.36072368 65.3828,1.35506579 C65.3912,8.79236842 65.38,16.2296711 65.3912,23.6669737 C63.476,23.65 61.5636,23.6556579 59.6484,23.6613158 C59.6568,20.0289474 59.6484,16.3994079 59.6792,12.7670395 C59.4048,13.2507895 59.1528,13.7486842 58.9288,14.2578947 C57.4784,17.6922368 55.8152,21.0303947 54.2472,24.4109868 C52.3796,20.5070395 50.5736,16.5719737 48.7928,12.63125 C48.8488,16.3060526 48.8796,19.9836842 48.8768,23.6613158 C46.9588,23.6556579 45.0408,23.65 43.1256,23.6641447 C43.0892,16.2296711 43.12,8.79519737 43.1088,1.36072368 L43.1088,1.36072368 Z" id="Shape" fill="#5C6770" sketch:type="MSShapeGroup"></path>
            <path d="M68.3564,1.35789474 C72.072,1.36355263 75.7904,1.35789474 79.506,1.35789474 C81.3624,1.40315789 83.342,1.65776316 84.8932,2.78085526 C86.6908,4.09914474 87.1276,6.67348684 86.562,8.73578947 C86.268,9.98901316 85.2208,10.8094079 84.2268,11.5053289 C85.5736,12.2436842 86.8504,13.3752632 87.1276,14.9764474 C87.5616,17.2480921 87.1416,19.8761842 85.4616,21.5594079 C83.8964,23.0983553 81.6284,23.6160526 79.506,23.6528289 C75.7904,23.6669737 72.0748,23.6443421 68.3592,23.6613158 C68.3704,16.2268421 68.3788,8.79236842 68.3564,1.35789474 L68.3564,1.35789474 Z" id="Shape" fill="#5C6770" sketch:type="MSShapeGroup"></path>
            <path d="M89.5104,1.35789474 C93.0832,1.37203947 96.656,1.34375 100.2288,1.36638158 C102.6088,1.46256579 105.2688,2.07361842 106.7752,4.10197368 C108.2284,6.16993421 108.3516,8.97059211 107.6292,11.3384211 C107.0916,13.1093421 105.6468,14.3682237 104.0788,15.2140789 C105.532,18.0373684 107.0076,20.8493421 108.472,23.6669737 C106.1984,23.65 103.922,23.6471711 101.6484,23.6698026 C100.4304,21.1690132 99.2432,18.65125 98.0308,16.1504605 C97.1936,16.1504605 96.3592,16.1504605 95.5248,16.1589474 C95.5024,18.6625658 95.5304,21.1661842 95.508,23.6698026 C93.506,23.6443421 91.504,23.6641447 89.502,23.6528289 C89.5328,16.2211842 89.516,8.78953947 89.5104,1.35789474 L89.5104,1.35789474 Z" id="Shape" fill="#5C6770" sketch:type="MSShapeGroup"></path>
            <path d="M125.7788,1.36355263 C127.8424,1.35789474 129.906,1.36638158 131.9724,1.35223684 C134.6548,8.77822368 137.3456,16.2013816 140,23.6386842 L140,23.6980921 C137.8048,23.6019079 135.604,23.6754605 133.406,23.6613158 C133.014,22.3628289 132.608,21.0643421 132.216,19.7630263 C129.976,19.7658553 127.736,19.7545395 125.496,19.7743421 C125.0956,21.07 124.698,22.3656579 124.3004,23.6641447 C122.1192,23.65 119.9352,23.6584868 117.754,23.6556579 C120.4364,16.2296711 123.13,8.80368421 125.7788,1.36355263 L125.7788,1.36355263 Z" id="Shape" fill="#5C6770" sketch:type="MSShapeGroup"></path>
            <path d="M74.2308,6.24065789 C76.0004,6.26611842 77.7728,6.17559211 79.5424,6.27460526 C81.2476,6.50375 81.2532,9.49960526 79.5088,9.67782895 C77.756,9.84473684 75.9864,9.71177632 74.2252,9.74006579 C74.2224,8.57171053 74.2196,7.40618421 74.2308,6.24065789 L74.2308,6.24065789 Z" id="Shape" fill="#FFFFFF" sketch:type="MSShapeGroup"></path>
            <path d="M95.5164,6.37361842 C97.174,6.42736842 98.868,6.18407895 100.506,6.51789474 C102.0068,6.95921053 102.2924,8.93381579 101.6652,10.1842105 C101.2396,10.9904605 100.2736,11.2620395 99.4336,11.2875 C98.1288,11.3355921 96.8268,11.2875 95.522,11.2931579 C95.5108,9.65519737 95.5164,8.01440789 95.5164,6.37361842 L95.5164,6.37361842 Z" id="Shape" fill="#FFFFFF" sketch:type="MSShapeGroup"></path>
            <path d="M110.7764,7.89276316 C112.6692,7.89559211 114.5648,7.89276316 116.4604,7.89559211 C116.4436,13.1517763 116.4576,18.4051316 116.452,23.6613158 C114.5564,23.65 112.6636,23.6613158 110.768,23.6528289 C110.796,18.3994737 110.7792,13.1461184 110.7764,7.89276316 L110.7764,7.89276316 Z" id="Shape" fill="#5C6770" sketch:type="MSShapeGroup"></path>
            <path d="M28.4312,14.8746053 C29.1144,12.6086184 29.6828,10.3086842 30.3072,8.02855263 C30.968,10.3030263 31.5476,12.6029605 32.1832,14.88875 C30.9316,14.9142105 29.68,14.9085526 28.4312,14.8746053 L28.4312,14.8746053 Z" id="Shape" fill="#FFFFFF" sketch:type="MSShapeGroup"></path>
            <path d="M126.9632,14.8915789 C127.6632,12.6538816 128.1588,10.3539474 128.87,8.12190789 C129.5252,10.3680921 130.0768,12.6482237 130.7432,14.8944079 C129.4832,14.9085526 128.2232,14.9028947 126.9632,14.8915789 L126.9632,14.8915789 Z" id="Shape" fill="#FFFFFF" sketch:type="MSShapeGroup"></path>
            <path d="M74.228,14.4446053 C76.0872,14.4842105 77.9548,14.3371053 79.8056,14.5125 C81.8356,14.8661184 81.8076,18.3796711 79.8028,18.7474342 C77.9576,18.9454605 76.09,18.7728947 74.2364,18.8266447 C74.2168,17.3669079 74.2196,15.9043421 74.228,14.4446053 L74.228,14.4446053 Z" id="Shape" fill="#FFFFFF" sketch:type="MSShapeGroup"></path>
            <path d="M91.9072,31.9076974 C92.3244,31.8624342 92.7472,31.8567763 93.1672,31.8398026 C93.17,32.3433553 93.1728,32.8469079 93.1756,33.3532895 L91.8484,33.3532895 C91.8596,32.8695395 91.8568,32.3857895 91.9072,31.9076974 L91.9072,31.9076974 Z" id="Shape" fill="#CE8925" sketch:type="MSShapeGroup"></path>
            <path d="M29.7388,31.8709211 C30.1728,31.8709211 30.6096,31.8709211 31.0464,31.87375 C31.0352,33.0505921 31.0436,34.2274342 31.0184,35.4042763 C31.7324,34.7932237 32.6088,34.2161184 33.5916,34.4594079 C34.4876,34.5188158 35.1148,35.3561842 35.1232,36.2275 C35.224,38.3888158 35.1204,40.5529605 35.1652,42.7171053 L33.8632,42.7171053 C33.8072,40.5671053 33.978,38.4057895 33.7848,36.2671053 C33.3396,34.9516447 31.2116,35.5061184 31.0968,36.7678289 C30.9484,38.7452632 31.0716,40.7340132 31.0492,42.7171053 L29.736,42.7171053 C29.7556,39.1017105 29.75,35.4863158 29.7388,31.8709211 L29.7388,31.8709211 Z" id="Shape" fill="#CE8A27" sketch:type="MSShapeGroup"></path>
            <path d="M53.8888,31.8652632 C54.32,31.8652632 54.7512,31.8680921 55.1824,31.8709211 C55.1824,35.4863158 55.1796,39.1017105 55.1824,42.7171053 L53.886,42.7171053 C53.9,39.0988816 53.8944,35.4834868 53.8888,31.8652632 L53.8888,31.8652632 Z" id="Shape" fill="#CF8B29" sketch:type="MSShapeGroup"></path>
            <path d="M67.4548,33.4042105 C67.9588,31.3871711 71.4812,31.2881579 71.9096,33.3928947 C72.2904,34.8554605 71.0304,35.9163158 70.0728,36.7678289 C70.7868,37.7919079 71.4924,38.8244737 72.2372,39.82875 C72.4164,39.1215132 72.562,38.4086184 72.7188,37.6985526 C73.1164,37.7042105 73.5168,37.7098684 73.9172,37.7183553 C73.696,38.8301316 73.4132,39.9305921 73.0128,40.9914474 C73.4552,41.6223026 73.9004,42.2475 74.3484,42.8755263 C73.8444,42.8642105 73.3432,42.8500658 72.8392,42.83875 C72.6376,42.5388816 72.436,42.2446711 72.2344,41.9476316 C71.68,42.3182237 71.1228,42.6859868 70.5376,43 L68.1996,43 C66.8752,42.4738158 66.0128,41.0621711 66.262,39.6250658 C66.3656,38.2671711 67.4744,37.3647368 68.4516,36.5811184 C67.9196,35.6192763 67.1076,34.5725658 67.4548,33.4042105 L67.4548,33.4042105 Z" id="Shape" fill="#CF8B29" sketch:type="MSShapeGroup"></path>
            <path d="M43.8536,32.2019079 C44.2652,32.2047368 44.674,32.2075658 45.0856,32.2103947 C45.0856,33.0223026 45.0856,33.8342105 45.0884,34.6461184 C45.5504,34.6432895 46.0124,34.6404605 46.4772,34.6376316 C46.4912,34.9771053 46.5052,35.3165789 46.5192,35.6588816 C46.0404,35.6617105 45.5644,35.6645395 45.0884,35.6673684 C45.1416,37.625 44.9596,39.5939474 45.1612,41.5402632 C45.5084,41.9080263 46.0768,41.8655921 46.5248,42.0183553 C46.4968,42.3436842 46.466,42.6718421 46.438,43 L44.8224,43 C44.3968,42.73125 43.7892,42.4964474 43.8816,41.8769079 C43.7864,39.8202632 43.8844,37.7607895 43.8592,35.7013158 C43.4392,35.6786842 43.022,35.6588816 42.602,35.6390789 C42.5936,35.3929605 42.5796,34.9035526 42.5712,34.6602632 C42.9968,34.6517763 43.4196,34.6489474 43.8452,34.6432895 C43.8508,33.8285526 43.8508,33.0166447 43.8536,32.2019079 L43.8536,32.2019079 Z" id="Shape" fill="#CF8B29" sketch:type="MSShapeGroup"></path>
            <path d="M95.2224,32.2019079 C95.6564,32.2103947 96.0904,32.2160526 96.5244,32.2245395 C96.5188,33.0307895 96.516,33.8342105 96.5132,34.6404605 C96.9892,34.6461184 97.468,34.6489474 97.9496,34.6546053 C97.9412,34.9827632 97.9356,35.31375 97.93,35.6419079 C97.4596,35.6532237 96.9892,35.6645395 96.5216,35.6758553 C96.6112,37.6872368 96.2948,39.7382237 96.6952,41.7184868 C97.1152,41.8486184 97.5492,41.9278289 97.9832,42.0183553 C97.944,42.3436842 97.9048,42.6718421 97.8684,43 L96.1044,43 C95.7348,42.7057895 95.2756,42.3889474 95.2728,41.8571053 C95.1412,39.7976316 95.2728,37.7325 95.2252,35.6730263 C94.8304,35.6673684 94.4384,35.6617105 94.0464,35.6588816 C94.0576,35.31375 94.0688,34.9714474 94.0828,34.6291447 C94.4636,34.6376316 94.8444,34.6461184 95.228,34.6517763 C95.228,33.8342105 95.2252,33.0194737 95.2224,32.2019079 L95.2224,32.2019079 Z" id="Shape" fill="#CF8A27" sketch:type="MSShapeGroup"></path>
            <path d="M69.2468,32.9289474 C69.9132,32.6460526 70.7756,33.1892105 70.7728,33.9303947 C70.784,34.7423026 70.112,35.3335526 69.5632,35.8286184 C68.7148,35.2486842 67.998,33.4919079 69.2468,32.9289474 L69.2468,32.9289474 Z" id="Shape" fill="#FFFFFF" sketch:type="MSShapeGroup"></path>
            <path d="M36.8396,35.8088158 C37.7076,33.8794737 40.9724,33.9388816 41.7396,35.9304605 C42.2912,37.2685526 42.3108,38.7820395 42.1232,40.2021711 C42.0056,41.3705263 41.426,42.5360526 40.3004,43 L38.178,43 C37.1756,42.5360526 36.5596,41.5317763 36.4308,40.4454605 C36.2516,38.9093421 36.176,37.24875 36.8396,35.8088158 L36.8396,35.8088158 Z" id="Shape" fill="#CF8B29" sketch:type="MSShapeGroup"></path>
            <path d="M47.25,36.4368421 C47.6084,34.4876974 50.1592,33.8115789 51.618,34.9516447 C52.71,35.9474342 52.5868,37.5655921 52.64,38.9178289 C51.1728,38.9121711 49.7056,38.9008553 48.2384,38.9206579 C48.3476,39.8004605 48.272,40.7792763 48.7704,41.5515789 C49.1988,42.2446711 50.2992,42.3521711 50.8228,41.7184868 C51.1308,41.2545395 51.2316,40.6944079 51.408,40.1738816 C51.828,40.1682237 52.248,40.1625658 52.668,40.1597368 C52.4384,41.3111184 51.9932,42.5388816 50.8172,43 L48.5268,43 C46.5724,41.4695395 46.7824,38.6179605 47.25,36.4368421 L47.25,36.4368421 Z" id="Shape" fill="#CF8B29" sketch:type="MSShapeGroup"></path>
            <path d="M57.5904,34.7253289 C58.5116,34.3151316 59.6316,34.2896711 60.5472,34.7309868 C61.3956,35.1723026 61.4376,36.2501316 61.6756,37.0648684 C61.2472,37.0648684 60.8188,37.0676974 60.3932,37.0676974 C60.1608,36.4651316 60.116,35.5259211 59.3236,35.4127632 C58.3268,35.1553289 57.3132,36.2161842 57.8088,37.195 C58.7412,38.2869737 60.5416,38.0408553 61.418,39.2176974 C62.1768,40.5331579 61.6588,42.4936184 60.1552,43 L57.8032,43 C56.6664,42.5303947 56.3052,41.3252632 56.168,40.2021711 C56.5936,40.1908553 57.0192,40.1795395 57.4476,40.1682237 C57.5988,40.6576316 57.694,41.1753289 57.9404,41.6279605 C58.6712,42.6209211 60.5836,42.0721053 60.4716,40.7538158 C60.4352,39.3223684 58.6628,39.2629605 57.6968,38.7367763 C55.9944,38.1964474 56.0224,35.4184211 57.5904,34.7253289 L57.5904,34.7253289 Z" id="Shape" fill="#CF8B29" sketch:type="MSShapeGroup"></path>
            <path d="M79.2428,35.0817763 C80.1108,34.3038158 81.4408,34.2755263 82.4992,34.6263158 C83.5044,34.9827632 83.6304,36.1709211 83.8376,37.0705263 C83.4064,37.0676974 82.9808,37.0648684 82.5552,37.0620395 C82.3256,36.4481579 82.2668,35.4693421 81.4352,35.4042763 C80.3852,35.1326974 79.3632,36.4509868 80.0912,37.3505921 C81.0544,38.1766447 82.4936,38.1426974 83.4288,39.0225 C84.4256,40.2842105 83.8964,42.4879605 82.3172,43 L79.9428,43 C78.834,42.5077632 78.5036,41.3139474 78.3132,40.2163158 C78.7416,40.1965132 79.1728,40.1795395 79.604,40.1653947 C79.8308,40.9150658 79.9624,42.0155263 80.934,42.1145395 C82.0876,42.4342105 83.1376,41.0338816 82.446,40.0182895 C81.5444,39.0055263 79.9204,39.1469737 78.9992,38.1483553 C78.3832,37.24875 78.4336,35.85125 79.2428,35.0817763 L79.2428,35.0817763 Z" id="Shape" fill="#CF8B29" sketch:type="MSShapeGroup"></path>
            <path d="M98.8624,35.9502632 C99.4812,34.2896711 101.8248,33.9473684 103.1044,34.9940789 C104.1376,36.0011842 103.9864,37.5882237 104.0816,38.9121711 C102.5948,38.9121711 101.1136,38.9036842 99.6296,38.9263158 C99.75,39.7636842 99.7304,40.6576316 100.1196,41.4271053 C100.4948,42.2305263 101.752,42.40875 102.2756,41.6703947 C102.5584,41.2092763 102.6956,40.6774342 102.872,40.1682237 C103.2724,40.1653947 103.6756,40.1653947 104.0788,40.1653947 C103.8856,41.3280921 103.4096,42.5501974 102.228,43 L100.0272,43 C99.456,42.5077632 98.8428,41.9759211 98.6664,41.2007895 C98.266,39.4864474 98.2408,37.6136842 98.8624,35.9502632 L98.8624,35.9502632 Z" id="Shape" fill="#CF8B29" sketch:type="MSShapeGroup"></path>
            <path d="M106.2936,34.6913816 C107.2092,34.3179605 108.3208,34.2925 109.214,34.7536184 C110.0456,35.2034211 110.0652,36.2557895 110.278,37.0676974 C109.8636,37.0676974 109.452,37.0648684 109.0432,37.0648684 C108.8164,36.4057237 108.682,35.3901316 107.7888,35.3957895 C106.8088,35.2203947 105.9436,36.3717763 106.4924,37.24875 C107.4276,38.2473684 109.074,38.0804605 109.9868,39.1215132 C110.8072,40.4256579 110.3312,42.4426974 108.822,43 L106.4812,43 C105.2856,42.5671711 104.9188,41.3196053 104.8432,40.1597368 C105.2352,40.1625658 105.63,40.1653947 106.0276,40.1710526 C106.2684,40.9546711 106.4896,42.0947368 107.5088,42.1258553 C108.626,42.3691447 109.6424,40.8952632 108.864,39.9815132 C107.9708,39.0451316 106.4952,39.1045395 105.5488,38.2473684 C104.6752,37.1836842 104.9496,35.2317105 106.2936,34.6913816 L106.2936,34.6913816 Z" id="Shape" fill="#CF8B29" sketch:type="MSShapeGroup"></path>
            <path d="M84.9884,34.6461184 C85.4112,34.6432895 85.834,34.6432895 86.2596,34.6432895 C86.2736,36.4877632 86.2372,38.3294079 86.2512,40.1738816 C86.2876,40.7481579 86.2344,41.5091447 86.8,41.8542763 C87.7548,42.4172368 89.1352,41.5911842 89.0792,40.4624342 C89.1856,38.5274342 89.0792,36.5867763 89.1072,34.6489474 C89.5412,34.6489474 89.978,34.6517763 90.4176,34.6546053 C90.4008,37.3845395 90.4008,40.1144737 90.4176,42.8444079 C90.0144,42.8528947 89.6112,42.8642105 89.2108,42.8755263 C89.1996,42.6888158 89.1828,42.3125658 89.1744,42.1258553 C88.7852,42.4257237 88.3932,42.7255921 87.9872,43 L85.9516,43 C85.5148,42.5219079 85.0108,42.0098684 85.0388,41.3026316 C84.9072,39.0875658 85.0332,36.8640132 84.9884,34.6461184 L84.9884,34.6461184 Z" id="Shape" fill="#CF8B29" sketch:type="MSShapeGroup"></path>
            <path d="M91.8568,34.6517763 C92.2992,34.6546053 92.7416,34.6546053 93.1868,34.6574342 C93.1616,37.3449342 93.1672,40.0296053 93.1812,42.7171053 L91.854,42.7171053 C91.8792,40.0296053 91.8736,37.3392763 91.8568,34.6517763 L91.8568,34.6517763 Z" id="Shape" fill="#CE8A26" sketch:type="MSShapeGroup"></path>
            <path d="M38.7464,35.4948026 C39.774,35.0280263 40.6672,36.12 40.7596,37.0705263 C40.9248,38.5019737 41.062,40.0720395 40.4208,41.4073026 C40.0428,42.2163816 38.808,42.4172368 38.2676,41.6703947 C37.5788,40.7679605 37.6516,39.5373684 37.632,38.4595395 C37.6824,37.4156579 37.7104,36.0634211 38.7464,35.4948026 L38.7464,35.4948026 Z" id="Shape" fill="#FFFFFF" sketch:type="MSShapeGroup"></path>
            <path d="M49.0532,35.7041447 C49.4816,35.3024342 50.1984,35.2826316 50.6352,35.6786842 C51.3128,36.1963816 51.2204,37.1355921 51.3548,37.8909211 C50.3216,37.9050658 49.2912,37.9050658 48.258,37.89375 C48.4204,37.14125 48.4036,36.2303289 49.0532,35.7041447 L49.0532,35.7041447 Z" id="Shape" fill="#FFFFFF" sketch:type="MSShapeGroup"></path>
            <path d="M100.7104,35.5457237 C101.3544,35.1496711 102.2308,35.5570395 102.4996,36.2275 C102.704,36.7565132 102.7236,37.3336184 102.8076,37.8909211 C101.766,37.9078947 100.7216,37.9078947 99.68,37.8682895 C99.8564,37.0535526 99.876,35.9870395 100.7104,35.5457237 L100.7104,35.5457237 Z" id="Shape" fill="#FFFFFF" sketch:type="MSShapeGroup"></path>
            <path d="M67.6452,39.2601316 C67.844,38.4538816 68.5104,37.9192105 69.0956,37.3958553 C69.9272,38.6038158 70.7644,39.8089474 71.5792,41.0282237 C70.8484,41.6477632 69.8992,42.3351974 68.9024,41.9165132 C67.8048,41.6251316 67.3036,40.2898684 67.6452,39.2601316 L67.6452,39.2601316 Z" id="Shape" fill="#FFFFFF" sketch:type="MSShapeGroup"></path>
        </g>
    </g>
</svg>