<?xml version="1.0" encoding="UTF-8" standalone="no"?>
<svg width="140px" height="44px" viewBox="0 0 140 44" version="1.1" xmlns="http://www.w3.org/2000/svg" xmlns:xlink="http://www.w3.org/1999/xlink" xmlns:sketch="http://www.bohemiancoding.com/sketch/ns">
    <!-- Generator: Sketch 3.4 (15588) - http://www.bohemiancoding.com/sketch -->
    <title>Slice 1</title>
    <desc>Created with Sketch.</desc>
    <defs></defs>
    <g id="Page-1" stroke="none" stroke-width="1" fill="none" fill-rule="evenodd" sketch:type="MSPage">
        <g id="cambria_default" sketch:type="MSLayerGroup">
            <path d="M0,0 L112.6216,0 C111.5688,0.486578947 110.3956,1.25888158 110.2892,2.54322368 C110.0428,4.10763158 111.3476,5.52776316 112.8456,5.68335526 C114.5172,6.02848684 116.718,5.22789474 116.942,3.30703947 C117.264,1.76809211 115.9928,0.599736842 114.7524,0 L140,0 L140,23.4717763 C137.2924,16.0995395 134.7304,8.66789474 131.9556,1.32111842 C129.8948,1.28717105 127.8312,1.28434211 125.7732,1.35789474 C123.9924,6.13881579 122.332,10.9621711 120.5708,15.74875 C119.6524,18.3909868 118.5856,20.9794737 117.8072,23.6698026 C119.9716,23.7065789 122.136,23.70375 124.3004,23.6726316 C124.7176,22.3967763 125.1376,21.1209211 125.5324,19.8365789 C127.736,19.7177632 129.9424,19.7290789 132.146,19.8224342 C132.5716,21.1011184 132.9972,22.3769737 133.3892,23.6641447 C135.5928,23.6980921 137.7964,23.6669737 140,23.7376974 L140,43 L109.0936,43 C110.3284,42.1739474 110.8856,40.3549342 109.9952,39.0847368 C109.0096,38.1709868 107.5508,38.0719737 106.5204,37.2261184 C105.9268,36.2642763 107.1,35.0167105 108.0548,35.5881579 C108.7548,36.2982237 109.3232,37.2232895 110.4404,37.2600658 C110.1688,36.4453289 110.0876,35.4636842 109.4296,34.8498026 C108.4496,34.1765132 107.0916,34.1963158 106.0696,34.7564474 C104.6668,35.5117763 104.5856,38.0521711 106.1536,38.6688816 C107.072,39.1950658 108.2564,39.345 108.9536,40.1993421 C109.5136,41.3139474 108.2004,42.4823026 107.1448,41.97875 C106.5568,41.54875 106.2908,40.8160526 105.9044,40.2191447 C105.5208,40.1653947 105.1372,40.1144737 104.7536,40.0635526 C104.9188,41.1272368 105.2828,42.1569737 105.9632,43 L102.4996,43 C103.4376,42.3238816 103.8828,41.2319079 104.2384,40.1682237 C103.8156,40.1738816 103.3984,40.1795395 102.9784,40.1851974 C102.4856,40.8896053 102.2028,42.2333553 101.1052,42.0692763 C99.7528,41.8005263 99.904,40.0720395 99.6324,39.0196711 C101.1388,38.9772368 102.6424,38.9489474 104.1488,38.9461184 C104.0648,37.8343421 104.132,36.6575 103.6364,35.6305921 C102.7404,33.8511842 99.764,33.9417105 98.9212,35.7239474 C98.2352,37.2034868 98.2296,38.915 98.4508,40.5020395 C98.574,41.495 99.1536,42.3436842 99.876,43 L97.9972,43 C97.9412,42.7397368 97.8908,42.4794737 97.8376,42.2220395 C97.4316,41.8457895 96.726,41.6449342 96.6364,41.0225658 C96.3676,39.3110526 96.5804,37.57125 96.6112,35.85125 C97.0676,35.7324342 97.524,35.6136184 97.9832,35.4976316 C97.972,35.2458553 97.9608,34.9969079 97.9496,34.7451316 C97.5128,34.6263158 97.076,34.5075 96.6392,34.3886842 C96.5888,33.6588158 96.5356,32.9289474 96.4852,32.2019079 C96.082,32.1849342 95.6816,32.1707895 95.284,32.1594737 C95.2224,32.8780263 95.1608,33.5994079 95.0992,34.3207895 C94.7184,34.5103289 94.3404,34.7055263 93.9624,34.8978947 C93.996,35.0393421 94.0632,35.3194079 94.094,35.4580263 C94.444,35.6107895 94.794,35.7635526 95.1468,35.9163158 C95.1692,38.2784868 95.1496,40.6434868 95.3512,43 L93.1504,43 C93.2316,40.1908553 93.2232,37.3817105 93.1784,34.5725658 C92.7388,34.5753947 92.2992,34.5782237 91.8596,34.5838816 C91.7504,37.3873684 91.8008,40.1936842 91.826,43 L90.37,43 C90.5156,40.1936842 90.5016,37.3845395 90.412,34.5782237 C89.9724,34.5810526 89.5328,34.5838816 89.0932,34.5895395 C89.0456,36.3661184 89.1436,38.1426974 89.0652,39.9164474 C89.0008,40.4992105 88.9896,41.1894737 88.5136,41.6053289 C88.0124,42.0126974 87.178,42.1626316 86.6712,41.6901974 C86.2708,41.0791447 86.3268,40.3068421 86.2932,39.6109211 C86.3072,37.9305263 86.3352,36.2501316 86.2652,34.5725658 C85.8228,34.5810526 85.3804,34.5867105 84.9408,34.5951974 C84.9464,37.3986842 84.714,40.2389474 85.3216,43 L82.6196,43 C83.8264,42.1852632 84.4452,40.4511184 83.594,39.1667763 C82.5972,38.1172368 80.9396,38.1172368 79.9484,37.0563816 C79.6572,36.0860526 80.654,35.1553289 81.5752,35.5174342 C82.1156,35.8936842 82.3648,36.5613158 82.7372,37.0903289 C83.1376,37.0931579 83.5408,37.0988158 83.9468,37.1016447 C83.6808,36.3717763 83.6136,35.4976316 83.0536,34.9176974 C82.096,34.1963158 80.7296,34.1793421 79.6824,34.7111842 C78.47,35.3250658 78.1564,37.1271053 78.988,38.1766447 C79.9708,39.07625 81.438,39.1667763 82.4152,40.0776974 C82.9444,40.9376974 82.2444,42.2050658 81.2112,42.0805921 C80.1948,42.1173684 79.9428,40.8980921 79.4892,40.2163158 C79.0748,40.1767105 78.6576,40.1342763 78.246,40.0975 C78.4532,41.1866447 78.7864,42.3182237 79.7216,43 L74.4044,43 C73.9564,42.3776316 73.416,41.7496053 73.2928,40.9659868 C73.3012,39.8344079 73.7072,38.7565789 73.9704,37.6702632 C73.5476,37.6730921 73.1248,37.67875 72.7048,37.6844079 C72.5368,38.3576974 72.3688,39.0309868 72.198,39.7042763 C71.5064,38.7735526 70.8512,37.8201974 70.2268,36.8442105 C71.0388,35.8597368 72.2932,34.8158553 71.9544,33.37875 C71.5232,31.33625 68.2612,31.2994737 67.4996,33.1241447 C66.976,34.3009868 67.8328,35.4721711 68.2612,36.5330263 C67.34,37.4948684 66.1892,38.5048026 66.164,39.9532237 C66.0604,41.1838158 66.948,42.1343421 67.6844,43 L60.466,43 C61.6476,42.1739474 62.2804,40.4794079 61.4432,39.1894079 C60.4912,38.1313816 58.87,38.1313816 57.8508,37.1582237 C57.5148,36.4028947 58.058,35.4665132 58.8952,35.4580263 C59.8108,35.3392105 60.0852,36.4481579 60.5304,37.0252632 C60.942,37.0648684 61.3536,37.1016447 61.7652,37.1384211 C61.5216,36.4028947 61.4376,35.5542105 60.9196,34.9459868 C59.9844,34.1963158 58.6124,34.1878289 57.5624,34.6913816 C56.2996,35.2741447 55.9888,37.1440789 56.8428,38.1936184 C57.8256,39.0875658 59.2984,39.1667763 60.256,40.0918421 C60.7768,40.9405263 60.088,42.1569737 59.0856,42.0749342 C58.0076,42.1456579 57.7528,40.8556579 57.288,40.1342763 C56.8736,40.1314474 56.4592,40.1314474 56.0448,40.1314474 C56.3136,41.1442105 56.7028,42.1230263 57.2796,43 L55.2188,43 C55.2188,39.2544737 55.3056,35.5089474 55.174,31.76625 C54.7344,31.7803947 54.2976,31.7973684 53.8636,31.8143421 C53.7684,35.5428947 53.9196,39.2714474 53.7768,43 L51.0328,43 C52.0184,42.3634868 52.444,41.2432237 52.78,40.1710526 C52.3852,40.15125 51.9904,40.1371053 51.5956,40.1201316 C51.086,40.8980921 50.6828,42.4257237 49.462,42.0126974 C48.2804,41.5459211 48.4764,40.0154605 48.2468,38.9885526 C49.7308,38.96875 51.2148,38.9546053 52.6988,38.9489474 C52.598,37.6900658 52.752,36.2642763 51.9316,35.2090789 C50.7192,33.7917763 48.0116,34.1482237 47.3704,35.9757237 C46.5668,38.2671711 46.6088,41.1074342 48.2944,43 L46.7124,43 C46.5696,42.6944737 46.4296,42.3889474 46.2952,42.0834211 C45.9172,41.8797368 45.542,41.6760526 45.164,41.4751974 C45.0856,39.6024342 45.0856,37.7296711 45.1472,35.8597368 C45.6176,35.7409211 46.0852,35.6221053 46.5556,35.5032895 C46.5332,35.2486842 46.5108,34.9940789 46.4884,34.7394737 C46.0516,34.6178289 45.6148,34.4990132 45.178,34.3773684 C45.1304,33.6333553 45.0828,32.8865132 45.0352,32.1425 C44.6376,32.1651316 44.24,32.1877632 43.8452,32.2132237 C43.792,32.9176316 43.7388,33.6248684 43.6884,34.3292763 C43.3328,34.4792105 42.9772,34.6291447 42.6244,34.7819079 C42.6076,34.9940789 42.5908,35.20625 42.574,35.42125 C42.9716,35.6136184 43.3692,35.8088158 43.7696,36.0040132 C43.9068,38.3294079 43.4196,40.7481579 44.2008,43 L40.5972,43 C41.6416,42.2050658 42.2184,40.9376974 42.2436,39.6278947 C42.3136,38.2388816 42.294,36.7367105 41.5632,35.5061184 C40.474,33.7832895 37.4444,34.0096053 36.7192,35.9615789 C35.8624,38.2671711 36.0192,41.0989474 37.6964,43 L35.1624,43 C35.1764,40.9207237 35.2856,38.8386184 35.2016,36.7593421 C35.1512,35.9983553 35.056,35.0648026 34.3224,34.6517763 C33.278,34.0209211 32.102,34.6659211 31.0744,34.99125 C31.0604,33.9247368 31.0436,32.8553947 31.024,31.7888816 C30.5956,31.7860526 30.17,31.7860526 29.7444,31.7832237 C29.6604,35.5230921 29.7836,39.2629605 29.6716,43 L0,43 L0,14.45875 C0.5544,16.8124342 1.2376,19.2792763 2.9288,21.0841447 C4.5248,22.8833553 6.874,23.8565132 9.2316,24.0375658 C11.844,24.2553947 14.6216,23.6556579 16.6684,21.9328289 C17.8696,20.9766447 18.6788,19.6442105 19.4516,18.3344079 C17.78,17.3216447 16.0524,16.4078947 14.2968,15.5535526 C13.58,16.5125658 12.9472,17.6101974 11.9112,18.2551974 C10.612,18.9341447 8.792,18.7361184 7.854,17.5309868 C6.7956,16.1928947 6.5632,14.405 6.5156,12.7444079 C6.5072,10.9678289 6.6892,9.04697368 7.77,7.57309211 C8.694,6.28592105 10.6624,6.00019737 11.9504,6.87434211 C12.8436,7.62118421 13.342,8.71598684 13.9272,9.70046053 C15.7612,9.02434211 17.5784,8.30296053 19.376,7.53631579 C18.662,5.63243421 17.7324,3.68894737 16.03,2.49513158 C13.8264,0.942039474 10.9704,0.780789474 8.386,1.12026316 C5.4124,1.51631579 2.7216,3.50506579 1.4224,6.23217105 C0.8064,7.55328947 0.3752,8.95644737 0,10.3624342 L0,0 L0,0 Z" id="Shape" fill="#FFFFFF" sketch:type="MSShapeGroup"></path>
            <path d="M112.6216,0 L114.7524,0 C115.9928,0.599736842 117.264,1.76809211 116.942,3.30703947 C116.718,5.22789474 114.5172,6.02848684 112.8456,5.68335526 C111.3476,5.52776316 110.0428,4.10763158 110.2892,2.54322368 C110.3956,1.25888158 111.5688,0.486578947 112.6216,0 L112.6216,0 Z" id="Shape" fill="#E9E9E9" sketch:type="MSShapeGroup"></path>
            <path d="M1.4224,6.23217105 C2.7216,3.50506579 5.4124,1.51631579 8.386,1.12026316 C10.9704,0.780789474 13.8264,0.942039474 16.03,2.49513158 C17.7324,3.68894737 18.662,5.63243421 19.376,7.53631579 C17.5784,8.30296053 15.7612,9.02434211 13.9272,9.70046053 C13.342,8.71598684 12.8436,7.62118421 11.9504,6.87434211 C10.6624,6.00019737 8.694,6.28592105 7.77,7.57309211 C6.6892,9.04697368 6.5072,10.9678289 6.5156,12.7444079 C6.5632,14.405 6.7956,16.1928947 7.854,17.5309868 C8.792,18.7361184 10.612,18.9341447 11.9112,18.2551974 C12.9472,17.6101974 13.58,16.5125658 14.2968,15.5535526 C16.0524,16.4078947 17.78,17.3216447 19.4516,18.3344079 C18.6788,19.6442105 17.8696,20.9766447 16.6684,21.9328289 C14.6216,23.6556579 11.844,24.2553947 9.2316,24.0375658 C6.874,23.8565132 4.5248,22.8833553 2.9288,21.0841447 C1.2376,19.2792763 0.5544,16.8124342 0,14.45875 L0,10.3624342 C0.3752,8.95644737 0.8064,7.55328947 1.4224,6.23217105 L1.4224,6.23217105 Z" id="Shape" fill="#E9E9E9" sketch:type="MSShapeGroup"></path>
            <path d="M27.0592,1.87842105 C27.2384,1.19381579 28.0336,1.34092105 28.5684,1.29282895 C30.1476,1.33526316 31.7408,1.19947368 33.3116,1.38901316 C33.7036,1.81335526 33.8716,2.38763158 34.0732,2.91664474 C36.4672,9.86171053 39.1104,16.7190789 41.4764,23.6754605 C39.2588,23.6952632 37.044,23.70375 34.8264,23.6669737 C34.4596,22.3684868 34.0396,21.0841447 33.6196,19.8026316 C31.402,19.7432237 29.1844,19.7205921 26.9696,19.8280921 C26.6056,21.1265789 26.1828,22.4080921 25.7516,23.6839474 C23.5872,23.6896053 21.42,23.7009211 19.2528,23.6754605 C21.0392,18.2240789 23.1168,12.8717105 25.018,7.45710526 C25.7292,5.60980263 26.2836,3.70026316 27.0592,1.87842105 L27.0592,1.87842105 Z" id="Shape" fill="#E9E9E9" sketch:type="MSShapeGroup"></path>
            <path d="M43.106,1.34092105 C44.9848,1.29282895 46.8636,1.29565789 48.7424,1.32677632 C50.6408,5.42309211 52.5812,9.49960526 54.2332,13.70625 C56.098,9.57032895 57.8144,5.35802632 59.8612,1.30980263 C61.7176,1.30414474 63.5768,1.26736842 65.4332,1.37769737 C65.4024,8.81217105 65.4304,16.2438158 65.4192,23.6754605 C63.4956,23.6980921 61.5748,23.6980921 59.654,23.6782895 C59.5056,20.0968421 59.6848,16.5125658 59.6008,12.9311184 C57.8564,16.7756579 56.1148,20.6258553 54.2556,24.4166447 C52.3656,20.7673026 50.8452,16.93125 48.944,13.2903947 C48.7984,16.7530263 48.9496,20.2184868 48.902,23.6811184 C46.9784,23.6952632 45.0576,23.6924342 43.134,23.6867763 C43.0304,16.2381579 43.0836,8.78953947 43.106,1.34092105 L43.106,1.34092105 Z" id="Shape" fill="#E9E9E9" sketch:type="MSShapeGroup"></path>
            <path d="M68.3648,1.34657895 C71.8004,1.26171053 75.236,1.34375 78.6716,1.30131579 C80.8052,1.30697368 83.1152,1.45125 84.9072,2.76105263 C86.7412,4.08782895 87.1948,6.70743421 86.5872,8.79236842 C86.2568,9.98052632 85.2488,10.75 84.3584,11.5053289 C85.5288,12.2917763 86.7804,13.2309868 87.1024,14.7048684 C87.6932,17.2424342 87.1444,20.2835526 85.0444,21.9780921 C83.1908,23.4746053 80.7128,23.7546711 78.4168,23.6980921 C75.068,23.6698026 71.7192,23.7065789 68.3732,23.6782895 C68.3424,16.2353289 68.3592,8.79236842 68.3648,1.34657895 L68.3648,1.34657895 Z" id="Shape" fill="#E9E9E9" sketch:type="MSShapeGroup"></path>
            <path d="M89.4852,1.32960526 C92.8788,1.29 96.2752,1.31828947 99.6716,1.30980263 C102.2448,1.33526316 105.168,1.90388158 106.8116,4.10480263 C108.3572,6.32269737 108.4468,9.38078947 107.464,11.8504605 C106.8788,13.3865789 105.5096,14.3710526 104.1796,15.2084211 C105.4592,18.1024342 107.1532,20.7842763 108.444,23.6726316 C106.2012,23.6330263 103.95,23.8253947 101.7184,23.6075658 C100.1336,21.3528947 99.498,18.5239474 97.9104,16.2692763 C97.1376,16.1306579 96.3508,16.1872368 95.5724,16.1872368 C95.5388,18.6851974 95.6228,21.1859868 95.522,23.6839474 C93.5172,23.6952632 91.5096,23.6896053 89.5048,23.6896053 C89.418,16.2381579 89.4572,8.78388158 89.4852,1.32960526 L89.4852,1.32960526 Z" id="Shape" fill="#E9E9E9" sketch:type="MSShapeGroup"></path>
            <path d="M125.7732,1.35789474 C127.8312,1.28434211 129.8948,1.28717105 131.9556,1.32111842 C134.7304,8.66789474 137.2924,16.0995395 140,23.4717763 L140,23.7376974 C137.7964,23.6669737 135.5928,23.6980921 133.3892,23.6641447 C132.9972,22.3769737 132.5716,21.1011184 132.146,19.8224342 C129.9424,19.7290789 127.736,19.7177632 125.5324,19.8365789 C125.1376,21.1209211 124.7176,22.3967763 124.3004,23.6726316 C122.136,23.70375 119.9716,23.7065789 117.8072,23.6698026 C118.5856,20.9794737 119.6524,18.3909868 120.5708,15.74875 C122.332,10.9621711 123.9924,6.13881579 125.7732,1.35789474 L125.7732,1.35789474 Z" id="Shape" fill="#E9E9E9" sketch:type="MSShapeGroup"></path>
            <path d="M74.2672,6.28309211 C76.0088,6.31421053 77.756,6.15578947 79.4948,6.33118421 C81.0824,6.41888158 81.2616,9.18276316 79.7664,9.56184211 C77.952,9.89848684 76.0956,9.67217105 74.2644,9.65236842 C74.2532,8.52927632 74.256,7.40618421 74.2672,6.28309211 L74.2672,6.28309211 Z" id="Shape" fill="#FFFFFF" sketch:type="MSShapeGroup"></path>
            <path d="M95.6032,6.43019737 C97.1488,6.42736842 98.7084,6.26328947 100.2456,6.50940789 C102.4772,6.81776316 102.522,10.7726316 100.2848,11.1177632 C98.7476,11.4119737 97.1712,11.2394079 95.6172,11.2705263 C95.5472,9.65802632 95.5444,8.04269737 95.6032,6.43019737 L95.6032,6.43019737 Z" id="Shape" fill="#FFFFFF" sketch:type="MSShapeGroup"></path>
            <path d="M110.7204,7.90407895 C112.6356,7.80223684 114.5508,7.81921053 116.466,7.88144737 C116.5248,9.49677632 116.5416,11.1121053 116.5108,12.7274342 C116.452,16.3796053 116.6088,20.0346053 116.4576,23.6839474 C114.548,23.6952632 112.6384,23.6980921 110.7288,23.6754605 C110.7204,18.4164474 110.7316,13.1602632 110.7204,7.90407895 L110.7204,7.90407895 Z" id="Shape" fill="#E9E9E9" sketch:type="MSShapeGroup"></path>
            <path d="M28.5348,14.8519737 C29.0864,12.6651974 29.638,10.4727632 30.3464,8.32842105 C30.9624,10.4897368 31.556,12.6595395 32.1132,14.8378289 C30.9204,14.8604605 29.7276,14.8661184 28.5348,14.8519737 L28.5348,14.8519737 Z" id="Shape" fill="#FFFFFF" sketch:type="MSShapeGroup"></path>
            <path d="M127.1004,14.8604605 C127.6184,12.6651974 128.1644,10.4671053 128.8896,8.32842105 C129.5196,10.4897368 130.0684,12.6736842 130.6788,14.8406579 C129.486,14.8604605 128.2932,14.8689474 127.1004,14.8604605 L127.1004,14.8604605 Z" id="Shape" fill="#FFFFFF" sketch:type="MSShapeGroup"></path>
            <path d="M74.2728,14.4870395 C76.0872,14.5181579 77.91,14.3484211 79.716,14.5577632 C81.788,14.7444737 81.8188,18.3909868 79.7916,18.6823684 C77.9604,18.9256579 76.1068,18.7389474 74.2672,18.7304605 C74.2504,17.3159868 74.2504,15.9015132 74.2728,14.4870395 L74.2728,14.4870395 Z" id="Shape" fill="#FFFFFF" sketch:type="MSShapeGroup"></path>
            <path d="M29.7444,31.7832237 C30.17,31.7860526 30.5956,31.7860526 31.024,31.7888816 C31.0436,32.8553947 31.0604,33.9247368 31.0744,34.99125 C32.102,34.6659211 33.278,34.0209211 34.3224,34.6517763 C35.056,35.0648026 35.1512,35.9983553 35.2016,36.7593421 C35.2856,38.8386184 35.1764,40.9207237 35.1624,43 L33.8576,43 C33.7792,41.1074342 33.8716,39.2148684 33.8212,37.3251316 C33.7568,36.81875 33.8016,36.2105263 33.432,35.8144737 C32.6284,35.1892763 31.2564,35.7635526 31.1724,36.8046053 C30.8896,38.8555921 31.1276,40.9376974 31.01,43 L29.6716,43 C29.7836,39.2629605 29.6604,35.5230921 29.7444,31.7832237 L29.7444,31.7832237 Z" id="Shape" fill="#E9E9E9" sketch:type="MSShapeGroup"></path>
            <path d="M53.8636,31.8143421 C54.2976,31.7973684 54.7344,31.7803947 55.174,31.76625 C55.3056,35.5089474 55.2188,39.2544737 55.2188,43 L53.7768,43 C53.9196,39.2714474 53.7684,35.5428947 53.8636,31.8143421 L53.8636,31.8143421 Z" id="Shape" fill="#E9E9E9" sketch:type="MSShapeGroup"></path>
            <path d="M67.4996,33.1241447 C68.2612,31.2994737 71.5232,31.33625 71.9544,33.37875 C72.2932,34.8158553 71.0388,35.8597368 70.2268,36.8442105 C70.8512,37.8201974 71.5064,38.7735526 72.198,39.7042763 C72.3688,39.0309868 72.5368,38.3576974 72.7048,37.6844079 C73.1248,37.67875 73.5476,37.6730921 73.9704,37.6702632 C73.7072,38.7565789 73.3012,39.8344079 73.2928,40.9659868 C73.416,41.7496053 73.9564,42.3776316 74.4044,43 L72.968,43 C72.6908,42.7284211 72.4248,42.4483553 72.156,42.1682895 C71.6436,42.4540132 71.1284,42.7397368 70.602,43 L67.6844,43 C66.948,42.1343421 66.0604,41.1838158 66.164,39.9532237 C66.1892,38.5048026 67.34,37.4948684 68.2612,36.5330263 C67.8328,35.4721711 66.976,34.3009868 67.4996,33.1241447 L67.4996,33.1241447 Z" id="Shape" fill="#E9E9E9" sketch:type="MSShapeGroup"></path>
            <path d="M91.854,31.7860526 C92.2936,31.7860526 92.7388,31.7888816 93.1812,31.7888816 C93.1896,32.3235526 93.198,32.8553947 93.2092,33.3900658 C92.7444,33.3900658 92.2852,33.3872368 91.8232,33.3872368 C91.8316,32.8553947 91.8428,32.3207237 91.854,31.7860526 L91.854,31.7860526 Z" id="Shape" fill="#E9E9E9" sketch:type="MSShapeGroup"></path>
            <path d="M43.8452,32.2132237 C44.24,32.1877632 44.6376,32.1651316 45.0352,32.1425 C45.0828,32.8865132 45.1304,33.6333553 45.178,34.3773684 C45.6148,34.4990132 46.0516,34.6178289 46.4884,34.7394737 C46.5108,34.9940789 46.5332,35.2486842 46.5556,35.5032895 C46.0852,35.6221053 45.6176,35.7409211 45.1472,35.8597368 C45.0856,37.7296711 45.0856,39.6024342 45.164,41.4751974 C45.542,41.6760526 45.9172,41.8797368 46.2952,42.0834211 C46.4296,42.3889474 46.5696,42.6944737 46.7124,43 L44.2008,43 C43.4196,40.7481579 43.9068,38.3294079 43.7696,36.0040132 C43.3692,35.8088158 42.9716,35.6136184 42.574,35.42125 C42.5908,35.20625 42.6076,34.9940789 42.6244,34.7819079 C42.9772,34.6291447 43.3328,34.4792105 43.6884,34.3292763 C43.7388,33.6248684 43.792,32.9176316 43.8452,32.2132237 L43.8452,32.2132237 Z" id="Shape" fill="#E9E9E9" sketch:type="MSShapeGroup"></path>
            <path d="M95.284,32.1594737 C95.6816,32.1707895 96.082,32.1849342 96.4852,32.2019079 C96.5356,32.9289474 96.5888,33.6588158 96.6392,34.3886842 C97.076,34.5075 97.5128,34.6263158 97.9496,34.7451316 C97.9608,34.9969079 97.972,35.2458553 97.9832,35.4976316 C97.524,35.6136184 97.0676,35.7324342 96.6112,35.85125 C96.5804,37.57125 96.3676,39.3110526 96.6364,41.0225658 C96.726,41.6449342 97.4316,41.8457895 97.8376,42.2220395 C97.8908,42.4794737 97.9412,42.7397368 97.9972,43 L95.3512,43 C95.1496,40.6434868 95.1692,38.2784868 95.1468,35.9163158 C94.794,35.7635526 94.444,35.6107895 94.094,35.4580263 C94.0632,35.3194079 93.996,35.0393421 93.9624,34.8978947 C94.3404,34.7055263 94.7184,34.5103289 95.0992,34.3207895 C95.1608,33.5994079 95.2224,32.8780263 95.284,32.1594737 L95.284,32.1594737 Z" id="Shape" fill="#E9E9E9" sketch:type="MSShapeGroup"></path>
            <path d="M68.7064,33.4805921 C69.1012,32.6630263 70.4116,32.7875 70.6916,33.6446711 C70.8904,34.6206579 70.0028,35.2571711 69.4372,35.8908553 C69.1068,35.1411842 68.3816,34.3490789 68.7064,33.4805921 L68.7064,33.4805921 Z" id="Shape" fill="#FFFFFF" sketch:type="MSShapeGroup"></path>
            <path d="M36.7192,35.9615789 C37.4444,34.0096053 40.474,33.7832895 41.5632,35.5061184 C42.294,36.7367105 42.3136,38.2388816 42.2436,39.6278947 C42.2184,40.9376974 41.6416,42.2050658 40.5972,43 L37.6964,43 C36.0192,41.0989474 35.8624,38.2671711 36.7192,35.9615789 L36.7192,35.9615789 Z" id="Shape" fill="#E9E9E9" sketch:type="MSShapeGroup"></path>
            <path d="M47.3704,35.9757237 C48.0116,34.1482237 50.7192,33.7917763 51.9316,35.2090789 C52.752,36.2642763 52.598,37.6900658 52.6988,38.9489474 C51.2148,38.9546053 49.7308,38.96875 48.2468,38.9885526 C48.4764,40.0154605 48.2804,41.5459211 49.462,42.0126974 C50.6828,42.4257237 51.086,40.8980921 51.5956,40.1201316 C51.9904,40.1371053 52.3852,40.15125 52.78,40.1710526 C52.444,41.2432237 52.0184,42.3634868 51.0328,43 L48.2944,43 C46.6088,41.1074342 46.5668,38.2671711 47.3704,35.9757237 L47.3704,35.9757237 Z" id="Shape" fill="#E9E9E9" sketch:type="MSShapeGroup"></path>
            <path d="M57.5624,34.6913816 C58.6124,34.1878289 59.9844,34.1963158 60.9196,34.9459868 C61.4376,35.5542105 61.5216,36.4028947 61.7652,37.1384211 C61.3536,37.1016447 60.942,37.0648684 60.5304,37.0252632 C60.0852,36.4481579 59.8108,35.3392105 58.8952,35.4580263 C58.058,35.4665132 57.5148,36.4028947 57.8508,37.1582237 C58.87,38.1313816 60.4912,38.1313816 61.4432,39.1894079 C62.2804,40.4794079 61.6476,42.1739474 60.466,43 L57.2796,43 C56.7028,42.1230263 56.3136,41.1442105 56.0448,40.1314474 C56.4592,40.1314474 56.8736,40.1314474 57.288,40.1342763 C57.7528,40.8556579 58.0076,42.1456579 59.0856,42.0749342 C60.088,42.1569737 60.7768,40.9405263 60.256,40.0918421 C59.2984,39.1667763 57.8256,39.0875658 56.8428,38.1936184 C55.9888,37.1440789 56.2996,35.2741447 57.5624,34.6913816 L57.5624,34.6913816 Z" id="Shape" fill="#E9E9E9" sketch:type="MSShapeGroup"></path>
            <path d="M79.6824,34.7111842 C80.7296,34.1793421 82.096,34.1963158 83.0536,34.9176974 C83.6136,35.4976316 83.6808,36.3717763 83.9468,37.1016447 C83.5408,37.0988158 83.1376,37.0931579 82.7372,37.0903289 C82.3648,36.5613158 82.1156,35.8936842 81.5752,35.5174342 C80.654,35.1553289 79.6572,36.0860526 79.9484,37.0563816 C80.9396,38.1172368 82.5972,38.1172368 83.594,39.1667763 C84.4452,40.4511184 83.8264,42.1852632 82.6196,43 L79.7216,43 C78.7864,42.3182237 78.4532,41.1866447 78.246,40.0975 C78.6576,40.1342763 79.0748,40.1767105 79.4892,40.2163158 C79.9428,40.8980921 80.1948,42.1173684 81.2112,42.0805921 C82.2444,42.2050658 82.9444,40.9376974 82.4152,40.0776974 C81.438,39.1667763 79.9708,39.07625 78.988,38.1766447 C78.1564,37.1271053 78.47,35.3250658 79.6824,34.7111842 L79.6824,34.7111842 Z" id="Shape" fill="#E9E9E9" sketch:type="MSShapeGroup"></path>
            <path d="M98.9212,35.7239474 C99.764,33.9417105 102.7404,33.8511842 103.6364,35.6305921 C104.132,36.6575 104.0648,37.8343421 104.1488,38.9461184 C102.6424,38.9489474 101.1388,38.9772368 99.6324,39.0196711 C99.904,40.0720395 99.7528,41.8005263 101.1052,42.0692763 C102.2028,42.2333553 102.4856,40.8896053 102.9784,40.1851974 C103.3984,40.1795395 103.8156,40.1738816 104.2384,40.1682237 C103.8828,41.2319079 103.4376,42.3238816 102.4996,43 L99.876,43 C99.1536,42.3436842 98.574,41.495 98.4508,40.5020395 C98.2296,38.915 98.2352,37.2034868 98.9212,35.7239474 L98.9212,35.7239474 Z" id="Shape" fill="#E9E9E9" sketch:type="MSShapeGroup"></path>
            <path d="M106.0696,34.7564474 C107.0916,34.1963158 108.4496,34.1765132 109.4296,34.8498026 C110.0876,35.4636842 110.1688,36.4453289 110.4404,37.2600658 C109.3232,37.2232895 108.7548,36.2982237 108.0548,35.5881579 C107.1,35.0167105 105.9268,36.2642763 106.5204,37.2261184 C107.5508,38.0719737 109.0096,38.1709868 109.9952,39.0847368 C110.8856,40.3549342 110.3284,42.1739474 109.0936,43 L105.9632,43 C105.2828,42.1569737 104.9188,41.1272368 104.7536,40.0635526 C105.1372,40.1144737 105.5208,40.1653947 105.9044,40.2191447 C106.2908,40.8160526 106.5568,41.54875 107.1448,41.97875 C108.2004,42.4823026 109.5136,41.3139474 108.9536,40.1993421 C108.2564,39.345 107.072,39.1950658 106.1536,38.6688816 C104.5856,38.0521711 104.6668,35.5117763 106.0696,34.7564474 L106.0696,34.7564474 Z" id="Shape" fill="#E9E9E9" sketch:type="MSShapeGroup"></path>
            <path d="M84.9408,34.5951974 C85.3804,34.5867105 85.8228,34.5810526 86.2652,34.5725658 C86.3352,36.2501316 86.3072,37.9305263 86.2932,39.6109211 C86.3268,40.3068421 86.2708,41.0791447 86.6712,41.6901974 C87.178,42.1626316 88.0124,42.0126974 88.5136,41.6053289 C88.9896,41.1894737 89.0008,40.4992105 89.0652,39.9164474 C89.1436,38.1426974 89.0456,36.3661184 89.0932,34.5895395 C89.5328,34.5838816 89.9724,34.5810526 90.412,34.5782237 C90.5016,37.3845395 90.5156,40.1936842 90.37,43 L85.3216,43 C84.714,40.2389474 84.9464,37.3986842 84.9408,34.5951974 L84.9408,34.5951974 Z" id="Shape" fill="#E9E9E9" sketch:type="MSShapeGroup"></path>
            <path d="M91.8596,34.5838816 C92.2992,34.5782237 92.7388,34.5753947 93.1784,34.5725658 C93.2232,37.3817105 93.2316,40.1908553 93.1504,43 L91.826,43 C91.8008,40.1936842 91.7504,37.3873684 91.8596,34.5838816 L91.8596,34.5838816 Z" id="Shape" fill="#E9E9E9" sketch:type="MSShapeGroup"></path>
            <path d="M39.018,35.475 C39.7152,35.3278947 40.3732,35.8738816 40.5524,36.5330263 C40.9472,37.8117105 40.9248,39.2063816 40.684,40.5133553 C40.5524,41.1781579 40.1968,41.9646053 39.4492,42.0636184 C38.7296,42.2050658 38.0996,41.6138158 37.9344,40.9433553 C37.5984,39.6788158 37.6124,38.3350658 37.8252,37.0507237 C37.9344,36.3830921 38.2844,35.6023026 39.018,35.475 L39.018,35.475 Z" id="Shape" fill="#FFFFFF" sketch:type="MSShapeGroup"></path>
            <path d="M49.1064,35.7154605 C49.6916,35.2203947 50.6996,35.4778289 50.9824,36.1907237 C51.1644,36.7282237 51.2148,37.2996711 51.3072,37.8598026 C50.2992,37.8711184 49.2884,37.8739474 48.2804,37.8711184 C48.496,37.1440789 48.4764,36.2331579 49.1064,35.7154605 L49.1064,35.7154605 Z" id="Shape" fill="#FFFFFF" sketch:type="MSShapeGroup"></path>
            <path d="M100.2764,35.9898684 C100.7216,35.2430263 101.9424,35.3024342 102.3484,36.0549342 C102.5948,36.6292105 102.6788,37.2544079 102.8104,37.8626316 C101.7744,37.8711184 100.7384,37.8598026 99.7024,37.8286842 C99.8676,37.2091447 99.9684,36.5584868 100.2764,35.9898684 L100.2764,35.9898684 Z" id="Shape" fill="#FFFFFF" sketch:type="MSShapeGroup"></path>
            <path d="M31.1724,36.8046053 C31.2564,35.7635526 32.6284,35.1892763 33.432,35.8144737 C33.8016,36.2105263 33.7568,36.81875 33.8212,37.3251316 C33.8716,39.2148684 33.7792,41.1074342 33.8576,43 L31.01,43 C31.1276,40.9376974 30.8896,38.8555921 31.1724,36.8046053 L31.1724,36.8046053 Z" id="Shape" fill="#FFFFFF" sketch:type="MSShapeGroup"></path>
            <path d="M67.6844,39.345 C67.83,38.5330921 68.5244,38.0267105 69.0592,37.4722368 C69.9356,38.6405921 70.756,39.8485526 71.526,41.0876316 C70.8036,41.5091447 70.056,42.1711184 69.16,41.9419737 C67.9868,41.7807237 67.3568,40.4228289 67.6844,39.345 L67.6844,39.345 Z" id="Shape" fill="#FFFFFF" sketch:type="MSShapeGroup"></path>
            <path d="M70.602,43 C71.1284,42.7397368 71.6436,42.4540132 72.156,42.1682895 C72.4248,42.4483553 72.6908,42.7284211 72.968,43 L70.602,43 L70.602,43 Z" id="Shape" fill="#FFFFFF" sketch:type="MSShapeGroup"></path>
        </g>
    </g>
</svg>