<?xml version="1.0" encoding="UTF-8" standalone="no"?>
<svg width="141px" height="47px" viewBox="0 0 141 47" version="1.1" xmlns="http://www.w3.org/2000/svg" xmlns:xlink="http://www.w3.org/1999/xlink" xmlns:sketch="http://www.bohemiancoding.com/sketch/ns">
    <!-- Generator: Sketch 3.1.1 (8761) - http://www.bohemiancoding.com/sketch -->
    <title>celebrity_default</title>
    <desc>Created with Sketch.</desc>
    <defs></defs>
    <g id="Clients" stroke="none" stroke-width="1" fill="none" fill-rule="evenodd" sketch:type="MSPage">
        <g sketch:type="MSArtboardGroup" transform="translate(-234.000000, -1685.000000)" id="Group" fill="#F3F1EF">
            <g sketch:type="MSLayerGroup" transform="translate(235.000000, 972.000000)">
                <g id="Celebrity-Cruises" transform="translate(0.000000, 714.000000)" sketch:type="MSShapeGroup">
                    <g id="celebrity_default">
                        <path d="M43.3697727,45.0852632 L65.1564773,21.4034211 L45.4475,-0.278684211 L60.3415909,-0.278684211 L72.7093182,13.1928947 L85.1009091,-0.278684211 L100.028409,-0.278684211 L80.26375,21.42 L101.99,45.0852632 L86.6830682,45.0852632 L72.7109091,29.7142105 L58.7101136,45.0852632 L43.3697727,45.0852632 L43.3697727,45.0852632 Z" id="Shape"></path>
                        <path d="M14.6196591,22.5789474 C14.3301136,24.0039474 13.2976136,24.7776316 11.8371591,24.7776316 C9.76022727,24.7776316 8.77784091,23.3534211 8.715,21.3789474 C8.715,19.4423684 9.99886364,18.0181579 11.7743182,18.0181579 C14.0779545,18.0181579 14.7835227,20.1552632 14.7206818,21.7168421 L9.84852273,21.7168421 C9.81034091,22.8410526 10.4530682,23.8413158 11.8753409,23.8413158 C12.7567045,23.8413158 13.3739773,23.4165789 13.5625,22.5789474 L14.6196591,22.5789474 L14.6196591,22.5789474 Z M38.1746591,17.0060526 L37.1047727,17.0060526 L37.1047727,15.7065789 L38.1746591,15.7065789 L38.1746591,17.0060526 L38.1746591,17.0060526 Z M25.2580682,15.7065789 L26.3279545,15.7065789 L26.3279545,19.0428947 L26.3534091,19.0428947 C26.7057955,18.3307895 27.5370455,18.0181579 28.4303409,18.0181579 C30.4325,18.0181579 31.4268182,19.5923684 31.4268182,21.4168421 C31.4268182,23.2413158 30.4452273,24.7776316 28.4557955,24.7776316 C27.7884091,24.7776316 26.8314773,24.5281579 26.3534091,23.7663158 L26.3279545,23.7663158 L26.3279545,24.6284211 L25.2580682,24.6284211 L25.2580682,15.7065789 L25.2580682,15.7065789 L25.2580682,15.7065789 Z M24.0243182,22.5789474 C23.7347727,24.0039474 22.7022727,24.7776316 21.2418182,24.7776316 C19.1648864,24.7776316 18.1825,23.3534211 18.1196591,21.3789474 C18.1196591,19.4423684 19.4035227,18.0181579 21.1789773,18.0181579 C23.4826136,18.0181579 24.1881818,20.1552632 24.1253409,21.7168421 L19.2531818,21.7168421 C19.2157955,22.8410526 19.8569318,23.8413158 21.28,23.8413158 C22.1605682,23.8413158 22.7778409,23.4165789 22.9671591,22.5789474 L24.0243182,22.5789474 L24.0243182,22.5789474 Z M6.66352273,18.3923684 C6.41215909,17.1307895 5.39159091,16.4936842 4.14511364,16.4936842 C2.00454545,16.4936842 1.09852273,18.2431579 1.09852273,20.1047368 C1.09852273,22.1415789 2.00454545,23.8405263 4.15784091,23.8405263 C5.73204545,23.8405263 6.63806818,22.7407895 6.75181818,21.2660526 L7.94738636,21.2660526 C7.72068182,23.49 6.32306818,24.8392105 4.05681818,24.8392105 C1.26159091,24.8392105 -0.0978409091,22.7897368 -0.0978409091,20.1915789 C-0.0978409091,17.6052632 1.38806818,15.4934211 4.15784091,15.4934211 C6.03352273,15.4934211 7.58227273,16.4936842 7.85909091,18.3923684 L6.66352273,18.3923684 L6.66352273,18.3923684 L6.66352273,18.3923684 Z M46.9747727,25.4897368 C46.4839773,26.7521053 46.0432955,27.2147368 45.0863636,27.2147368 C44.8342045,27.2147368 44.5828409,27.1894737 44.3434091,27.1018421 L44.3434091,26.1276316 C44.5446591,26.19 44.7586364,26.2768421 44.9734091,26.2768421 C45.4140909,26.2768421 45.6527273,26.0644737 45.8547727,25.6902632 L46.2954545,24.5897368 L43.7142045,18.1673684 L44.9225,18.1673684 L46.8236364,23.4521053 L46.8490909,23.4521053 L48.6738636,18.1673684 L49.8073864,18.1673684 L46.9747727,25.4897368 L46.9747727,25.4897368 Z M41.4980682,18.1681579 L42.7946591,18.1681579 L42.7946591,19.1052632 L41.4980682,19.1052632 L41.4980682,23.1165789 C41.4980682,23.6036842 41.6364773,23.6913158 42.3038636,23.6913158 L42.7946591,23.6913158 L42.7946591,24.6292105 L41.9761364,24.6292105 C40.8680682,24.6292105 40.4273864,24.4042105 40.4273864,23.2176316 L40.4273864,19.1052632 L39.3193182,19.1052632 L39.3193182,18.1681579 L40.4273864,18.1681579 L40.4273864,16.2315789 L41.4972727,16.2315789 L41.4972727,18.1681579 L41.4980682,18.1681579 L41.4980682,18.1681579 Z M37.1047727,18.1681579 L38.1746591,18.1681579 L38.1746591,24.6284211 L37.1047727,24.6284211 L37.1047727,18.1681579 L37.1047727,18.1681579 Z M32.6478409,18.1681579 L33.6548864,18.1681579 L33.6548864,19.53 L33.6803409,19.53 C34.1965909,18.4926316 34.9140909,17.9810526 36.0722727,18.0181579 L36.0722727,19.1423684 C34.3477273,19.1423684 33.7185227,20.1173684 33.7185227,21.7539474 L33.7185227,24.6276316 L32.6478409,24.6276316 L32.6478409,18.1681579 L32.6478409,18.1681579 Z M28.2792045,18.9552632 C26.8442045,18.9552632 26.2905682,20.1797368 26.2905682,21.3915789 C26.2905682,22.6665789 26.8696591,23.8405263 28.3428409,23.8405263 C29.8032955,23.8405263 30.2940909,22.6034211 30.2940909,21.3410526 C30.2932955,20.13 29.6640909,18.9552632 28.2792045,18.9552632 L28.2792045,18.9552632 L28.2792045,18.9552632 Z M22.9918182,20.7789474 C22.9417045,19.7668421 22.1732955,18.9544737 21.1161364,18.9544737 C19.9953409,18.9544737 19.32875,19.7921053 19.2531818,20.7789474 L22.9918182,20.7789474 L22.9918182,20.7789474 Z M15.8542045,15.7065789 L16.9240909,15.7065789 L16.9240909,24.6284211 L15.8542045,24.6284211 L15.8542045,15.7065789 L15.8542045,15.7065789 Z M13.5879545,20.7789474 C13.5378409,19.7668421 12.7694318,18.9544737 11.7122727,18.9544737 C10.5914773,18.9544737 9.92409091,19.7921053 9.84931818,20.7789474 L13.5879545,20.7789474 L13.5879545,20.7789474 Z" id="Shape"></path>
                        <path d="M117.53875,17.0455263 L116.468864,17.0455263 L116.468864,15.7460526 L117.53875,15.7460526 L117.53875,17.0455263 L117.53875,17.0455263 Z M131.059886,22.6184211 C130.770341,24.0426316 129.737841,24.8171053 128.278182,24.8171053 C126.200455,24.8171053 125.218068,23.3928947 125.155227,21.4184211 C125.155227,19.4818421 126.439091,18.0568421 128.214545,18.0568421 C130.518182,18.0568421 131.22375,20.1939474 131.160909,21.7555263 L126.28875,21.7555263 C126.250568,22.8797368 126.893295,23.88 128.315568,23.88 C129.196136,23.88 129.814205,23.4552632 130.002727,22.6176316 L131.059886,22.6176316 L131.059886,22.6184211 L131.059886,22.6184211 Z M102.481591,18.4326316 C102.230227,17.1702632 101.209659,16.5331579 99.9639773,16.5331579 C97.8242045,16.5331579 96.9173864,18.2826316 96.9173864,20.1442105 C96.9173864,22.1818421 97.8242045,23.8807895 99.9767045,23.8807895 C101.550909,23.8807895 102.456932,22.7802632 102.570682,21.3063158 L103.767045,21.3063158 C103.540341,23.5302632 102.142727,24.8794737 99.8764773,24.8794737 C97.08125,24.8794737 95.7210227,22.83 95.7210227,20.2310526 C95.7210227,17.6447368 97.2069318,15.5328947 99.9767045,15.5328947 C101.852386,15.5328947 103.401932,16.5323684 103.677955,18.4318421 L102.481591,18.4318421 L102.481591,18.4326316 L102.481591,18.4326316 Z M133.049318,22.6310526 C133.086705,23.5807895 133.917955,23.8807895 134.798523,23.8807895 C135.465909,23.8807895 136.372727,23.7307895 136.372727,22.9184211 C136.372727,22.0934211 135.315568,21.9560526 134.244886,21.7184211 C133.187727,21.4807895 132.117045,21.1310526 132.117045,19.8939474 C132.117045,18.5944737 133.414432,18.0568421 134.547159,18.0568421 C135.982955,18.0568421 137.128409,18.5068421 137.215909,20.0810526 L136.146023,20.0810526 C136.070455,19.2568421 135.339432,18.9947368 134.635455,18.9947368 C133.992727,18.9947368 133.250568,19.1692105 133.250568,19.8189474 C133.250568,20.5807895 134.384091,20.7063158 135.378409,20.9431579 C136.449091,21.1807895 137.50625,21.5305263 137.50625,22.7794737 C137.50625,24.3165789 136.058523,24.8163158 134.736477,24.8163158 C133.276023,24.8163158 132.042273,24.2289474 131.979432,22.6294737 L133.049318,22.6294737 L133.049318,22.6310526 L133.049318,22.6310526 Z M130.027386,20.8192105 C129.977273,19.8071053 129.209659,18.9947368 128.151705,18.9947368 C127.031705,18.9947368 126.364318,19.8323684 126.28875,20.8192105 L130.027386,20.8192105 L130.027386,20.8192105 Z M119.855114,22.6310526 C119.893295,23.5807895 120.72375,23.8807895 121.605114,23.8807895 C122.2725,23.8807895 123.179318,23.7307895 123.179318,22.9184211 C123.179318,22.0934211 122.121364,21.9560526 121.051477,21.7184211 C119.994318,21.4807895 118.923636,21.1310526 118.923636,19.8939474 C118.923636,18.5944737 120.220227,18.0568421 121.35375,18.0568421 C122.78875,18.0568421 123.934205,18.5068421 124.0225,20.0810526 L122.951818,20.0810526 C122.87625,19.2568421 122.146023,18.9947368 121.44125,18.9947368 C120.799318,18.9947368 120.056364,19.1692105 120.056364,19.8189474 C120.056364,20.5807895 121.189886,20.7063158 122.184205,20.9431579 C123.254886,21.1807895 124.312045,21.5305263 124.312045,22.7794737 C124.312045,24.3165789 122.865114,24.8163158 121.543068,24.8163158 C120.082614,24.8163158 118.848864,24.2289474 118.785227,22.6294737 L119.855114,22.6294737 L119.855114,22.6310526 L119.855114,22.6310526 Z M116.468864,18.2076316 L117.53875,18.2076316 L117.53875,24.6678947 L116.468864,24.6678947 L116.468864,18.2076316 L116.468864,18.2076316 Z M114.768977,24.6678947 L113.761136,24.6678947 L113.761136,23.6431579 L113.736477,23.6431579 C113.283068,24.4428947 112.553636,24.8171053 111.621364,24.8171053 C109.909545,24.8171053 109.380568,23.8428947 109.380568,22.4557895 L109.380568,18.2076316 L110.45125,18.2076316 L110.45125,22.5805263 C110.45125,23.3676316 110.954773,23.88 111.773295,23.88 C113.069886,23.88 113.699091,23.0171053 113.699091,21.8557895 L113.699091,18.2076316 L114.769773,18.2076316 L114.769773,24.6678947 L114.768977,24.6678947 L114.768977,24.6678947 Z M104.911705,18.2076316 L105.91875,18.2076316 L105.91875,19.5694737 L105.944205,19.5694737 C106.459659,18.5321053 107.177955,18.0205263 108.336136,18.0568421 L108.336136,19.1818421 C106.611591,19.1818421 105.981591,20.1560526 105.981591,21.7934211 L105.981591,24.6678947 L104.911705,24.6678947 L104.911705,18.2076316 L104.911705,18.2076316 Z" id="Shape"></path>
                        <path d="M137.92625,17.5460526 C137.97,17.5721053 138.043182,17.6005263 138.114773,17.6005263 C138.216591,17.6005263 138.264318,17.5507895 138.264318,17.4852632 C138.264318,17.4181579 138.22375,17.3810526 138.120341,17.3423684 C137.977955,17.2910526 137.911932,17.2160526 137.911932,17.1228947 C137.911932,16.9973684 138.015341,16.8947368 138.181591,16.8947368 C138.261136,16.8947368 138.331136,16.9152632 138.3725,16.9428947 L138.338295,17.0439474 C138.307273,17.0265789 138.251591,16.9989474 138.178409,16.9989474 C138.094886,16.9989474 138.049545,17.0471053 138.049545,17.1047368 C138.049545,17.1702632 138.094886,17.1994737 138.196705,17.2373684 C138.331136,17.2871053 138.401932,17.3542105 138.401932,17.4710526 C138.401932,17.6092105 138.29375,17.7055263 138.111591,17.7055263 C138.025682,17.7055263 137.946136,17.6826316 137.892045,17.6510526 L137.92625,17.5460526 L137.92625,17.5460526 Z M138.584886,17.1228947 C138.584886,17.0407895 138.581705,16.9768421 138.578523,16.9121053 L138.702614,16.9121053 L138.708977,17.0376316 L138.71375,17.0376316 C138.758295,16.9634211 138.829886,16.8947368 138.961932,16.8947368 C139.066932,16.8947368 139.147273,16.9586842 139.181477,17.0502632 L139.184659,17.0502632 C139.208523,17.0052632 139.240341,16.9728947 139.272955,16.9492105 C139.319886,16.9136842 139.37,16.8947368 139.443977,16.8947368 C139.549773,16.8947368 139.7025,16.9618421 139.7025,17.2310526 L139.7025,17.6881579 L139.563295,17.6881579 L139.563295,17.2484211 C139.563295,17.0976316 139.507614,17.0092105 139.393864,17.0092105 C139.311136,17.0092105 139.249886,17.0684211 139.224432,17.1363158 C139.217273,17.1568421 139.2125,17.1828947 139.2125,17.2065789 L139.2125,17.6873684 L139.073295,17.6873684 L139.073295,17.2223684 C139.073295,17.0976316 139.018409,17.0092105 138.910227,17.0092105 C138.823523,17.0092105 138.7575,17.0802632 138.733636,17.1505263 C138.725682,17.1710526 138.7225,17.1955263 138.7225,17.2192105 L138.7225,17.6873684 L138.583295,17.6873684 L138.583295,17.1228947 L138.584886,17.1228947 L138.584886,17.1228947 Z" id="Shape"></path>
                    </g>
                </g>
            </g>
        </g>
    </g>
</svg>