<?xml version="1.0" encoding="UTF-8" standalone="no"?>
<svg width="140px" height="41px" viewBox="0 0 140 41" version="1.1" xmlns="http://www.w3.org/2000/svg" xmlns:xlink="http://www.w3.org/1999/xlink" xmlns:sketch="http://www.bohemiancoding.com/sketch/ns">
    <!-- Generator: Sketch 3.3.3 (12081) - http://www.bohemiancoding.com/sketch -->
    <title>Slice 1</title>
    <desc>Created with Sketch.</desc>
    <defs></defs>
    <g id="Page-1" stroke="none" stroke-width="1" fill="none" fill-rule="evenodd" sketch:type="MSPage">
        <g id="cvshealth_orig_logo" sketch:type="MSLayerGroup">
            <path d="M0,0 L140,0 L140,41 L0,41 L0,0 L0,0 Z" id="Shape" fill="#F3F3F3" sketch:type="MSShapeGroup"></path>
            <path d="M12.262,13.3906404 C13.102,12.4696552 14.674,12.5181281 15.53,13.3966995 C16.38,14.2146798 17.188,15.0750739 18.028,15.9051724 C18.886,15.0407389 19.734,14.1662069 20.598,13.3098522 C21.438,12.4837931 22.918,12.5363054 23.744,13.3563054 C24.762,14.3600985 25.758,15.3861084 26.766,16.4 C27.672,17.2583744 27.688,18.880197 26.752,19.7203941 C23.828,22.6550246 20.93,25.6159113 17.998,28.5424631 C15.074,25.617931 12.178,22.6651232 9.26,19.7325123 C8.392,18.9205911 8.346,17.3916749 9.142,16.5151232 C10.134,15.4244828 11.234,14.4429064 12.262,13.3906404 L12.262,13.3906404 Z" id="Shape" fill="#D81E00" sketch:type="MSShapeGroup"></path>
            <path d="M30.816,15.135665 C32.61,12.9362069 35.688,12.4110837 38.35,12.8352217 C39.966,13.0816256 41.58,13.8491133 42.546,15.2225123 C43.306,16.2465025 43.622,17.5229557 43.736,18.7792118 C42.22,18.7872906 40.702,18.7832512 39.186,18.7812315 C39.036,18.0460591 38.796,17.2502956 38.106,16.8524138 C36.976,16.2141872 35.28,16.3979803 34.564,17.5795074 C33.888,18.7125616 33.85,20.1041379 33.932,21.38867 C34.026,22.5580788 34.43,23.9092611 35.564,24.4545813 C36.528,24.866601 37.824,24.8221675 38.572,23.9981281 C39.048,23.5335961 39.18,22.850936 39.288,22.2167488 C40.8,22.2167488 42.312,22.2147291 43.824,22.2187685 C43.702,23.7900985 43.22,25.4099015 42.09,26.5490148 C40.736,27.9809852 38.7,28.5182266 36.79,28.4859113 C34.812,28.5505419 32.738,27.9729064 31.284,26.5671921 C29.878,25.2341872 29.202,23.2851724 29.094,21.374532 C28.948,19.1912315 29.382,16.8463547 30.816,15.135665 L30.816,15.135665 Z" id="Shape" fill="#D81E00" sketch:type="MSShapeGroup"></path>
            <path d="M58.37,14.0874384 C59.714,12.9846798 61.518,12.6817241 63.204,12.7160591 C64.872,12.7059606 66.636,13.0735468 67.93,14.2005419 C68.864,15.0165025 69.322,16.2485222 69.436,17.4664039 C67.934,17.4704433 66.432,17.4704433 64.93,17.4664039 C64.748,17.0644828 64.61,16.5696552 64.17,16.3838424 C63.498,16.0687685 62.66,16.0465517 61.978,16.3414286 C61.316,16.6221675 61.368,17.6926108 62.058,17.9087192 C63.806,18.5974384 65.73,18.7529557 67.446,19.5487192 C68.512,20.09 69.458,21.0291626 69.718,22.2409852 C70.086,23.9536946 69.638,25.953202 68.234,27.0781773 C66.772,28.2536453 64.818,28.5323645 63.002,28.4838916 C61.2,28.5000493 59.264,28.0294581 57.98,26.6742365 C57.106,25.809803 56.692,24.5878818 56.566,23.3821182 C58.116,23.3780788 59.664,23.3780788 61.214,23.3821182 C61.412,23.8910837 61.616,24.4848768 62.182,24.6807882 C63.026,24.9918227 64.086,25.0241379 64.85,24.4868966 C65.418,24.0506404 65.148,23.103399 64.482,22.9377833 C62.538,22.263202 60.414,22.0410345 58.608,20.9887685 C56.31,19.5224631 56.28,15.7496552 58.37,14.0874384 L58.37,14.0874384 Z" id="Shape" fill="#D81E00" sketch:type="MSShapeGroup"></path>
            <path d="M42.724,13.1300985 C44.362,13.1240394 45.998,13.1300985 47.634,13.1280788 C48.46,16.3030542 49.284,19.4780296 50.098,22.6550246 C50.998,19.4840887 51.862,16.3050739 52.742,13.1300985 C54.318,13.1260591 55.894,13.1260591 57.472,13.1300985 C55.824,18.1127094 54.132,23.0811823 52.498,28.0678325 C50.9,28.077931 49.302,28.0759113 47.706,28.0698522 C46.038,23.0933005 44.402,18.1046305 42.724,13.1300985 L42.724,13.1300985 Z" id="Shape" fill="#D81E00" sketch:type="MSShapeGroup"></path>
            <path d="M71.15,13.1280788 L75.9,13.1280788 C75.898,13.6168473 75.898,14.1035961 75.9,14.5903448 C75.398,14.5923645 74.9,14.5923645 74.4,14.5923645 L74.4,19.33867 L81.8,19.33867 L81.8,14.5923645 C81.3,14.5923645 80.8,14.5923645 80.3,14.5903448 L80.3,13.1280788 L85.05,13.1280788 C85.048,13.6168473 85.048,14.1035961 85.05,14.5903448 C84.55,14.5923645 84.05,14.5923645 83.552,14.5923645 C83.55,18.6156158 83.552,22.6368473 83.552,26.6600985 L85.05,26.6600985 C85.048,27.148867 85.048,27.6356158 85.05,28.1243842 C83.466,28.1243842 81.884,28.1243842 80.302,28.1223645 C80.3,27.6356158 80.3,27.148867 80.3,26.6600985 L81.8,26.6600985 L81.8,20.7544828 L74.4,20.7544828 L74.4,26.6600985 L75.9,26.6600985 C75.898,27.148867 75.898,27.6356158 75.9,28.1223645 C74.316,28.1243842 72.734,28.1243842 71.15,28.1243842 L71.15,26.6600985 L72.648,26.6600985 C72.648,22.6368473 72.65,18.6156158 72.648,14.5923645 C72.148,14.5923645 71.65,14.5923645 71.15,14.5903448 L71.15,13.1280788 L71.15,13.1280788 Z" id="Shape" fill="#000000" sketch:type="MSShapeGroup"></path>
            <path d="M109.8,13.1280788 L112.9,13.1280788 C112.898,17.1735468 112.904,21.2169951 112.896,25.2624631 C112.896,25.7290148 112.924,26.2622167 113.288,26.6015271 C113.704,26.8883251 114.232,26.7227094 114.7,26.71867 C114.698,27.1892611 114.698,27.6598522 114.7,28.1304433 C113.868,28.255665 112.936,28.3526108 112.186,27.8840394 C111.454,27.4235468 111.202,26.5005419 111.2,25.6805419 C111.198,21.9663054 111.2,18.2540887 111.2,14.5418719 L109.8,14.5418719 C109.8,14.0712808 109.798,13.59867 109.8,13.1280788 L109.8,13.1280788 Z" id="Shape" fill="#000000" sketch:type="MSShapeGroup"></path>
            <path d="M120.8,13.1280788 L123.9,13.1280788 C123.894,15.0165025 123.912,16.9049261 123.89,18.7933498 C125.516,16.9594581 128.762,16.9634975 130.34,18.8559606 C131.068,19.7224138 131.382,20.8736453 131.398,21.9945813 C131.404,23.5659113 131.396,25.1372414 131.4,26.7085714 L132.8,26.7085714 C132.798,27.1811823 132.798,27.6517734 132.8,28.1243842 C131.3,28.1243842 129.8,28.1243842 128.3,28.1223645 L128.3,26.7105911 C128.766,26.7085714 129.232,26.7085714 129.7,26.7065517 C129.684,25.0564532 129.736,23.4063547 129.676,21.7582759 C129.64,20.6696552 129.096,19.5143842 128.038,19.1104433 C126.984,18.750936 125.69,18.8377833 124.82,19.591133 C124.142,20.1930049 123.92,21.1362069 123.902,22.0147783 C123.892,23.5780296 123.902,25.1433005 123.9,26.7065517 C124.364,26.7085714 124.832,26.7085714 125.3,26.7105911 C125.298,27.1811823 125.298,27.6517734 125.3,28.1223645 C123.8,28.1243842 122.3,28.1243842 120.8,28.1243842 C120.798,27.6517734 120.8,27.1811823 120.8,26.7085714 L122.2,26.7085714 L122.2,14.5418719 L120.8,14.5418719 C120.798,14.0712808 120.798,13.59867 120.8,13.1280788 L120.8,13.1280788 Z" id="Shape" fill="#000000" sketch:type="MSShapeGroup"></path>
            <path d="M116.15,15.0972906 L117.85,15.0972906 C117.848,15.9738424 117.848,16.8483744 117.85,17.7229064 L119.952,17.7229064 C119.95,18.1955172 119.95,18.6661084 119.95,19.1366995 C119.25,19.1387192 118.55,19.1366995 117.85,19.1387192 C117.848,21.1846798 117.85,23.2306404 117.848,25.276601 C117.858,25.7451724 117.866,26.3167488 118.294,26.6136453 C118.806,26.882266 119.4,26.7307882 119.95,26.7126108 C119.95,27.1852217 119.95,27.6578325 119.952,28.1304433 C119.03,28.2677833 118.014,28.3485714 117.174,27.8678818 C116.41,27.4457635 116.156,26.4965025 116.152,25.6765025 C116.146,23.4972414 116.154,21.3179803 116.15,19.1387192 C115.616,19.1387192 115.082,19.1387192 114.55,19.1366995 C114.55,18.6661084 114.55,18.1955172 114.552,17.7249261 C115.084,17.7229064 115.616,17.7229064 116.15,17.7229064 L116.15,15.0972906 L116.15,15.0972906 Z" id="Shape" fill="#000000" sketch:type="MSShapeGroup"></path>
            <path d="M88.07,18.252069 C90.186,16.9796552 93.264,17.1452709 94.976,19.037734 C96.07,20.2455172 96.314,21.9521675 96.254,23.5295567 C93.31,23.5335961 90.364,23.5194581 87.418,23.5356158 C87.572,24.5131527 87.888,25.5351232 88.692,26.1672906 C90.352,27.4821182 93.178,27.1933005 94.304,25.296798 C94.88,25.2947783 95.454,25.2927586 96.032,25.2988177 C95.44,26.6560591 94.266,27.7588177 92.84,28.1587192 C91.132,28.6394089 89.168,28.4434975 87.718,27.3589163 C84.874,25.2139901 85.012,20.1384729 88.07,18.252069 L88.07,18.252069 Z" id="Shape" fill="#000000" sketch:type="MSShapeGroup"></path>
            <path d="M99.458,18.4358621 C101.434,16.8847291 104.562,17.1715271 106.152,19.1568966 C106.15,18.6782266 106.15,18.2015764 106.152,17.7229064 L109.248,17.7229064 C109.248,18.1955172 109.248,18.6661084 109.25,19.1366995 C108.8,19.1387192 108.348,19.1387192 107.9,19.1407389 C107.898,21.6633498 107.898,24.1839409 107.9,26.7065517 C108.348,26.7085714 108.8,26.7085714 109.25,26.7105911 C109.248,27.1811823 109.248,27.6517734 109.248,28.1223645 C108.216,28.1243842 107.184,28.1243842 106.152,28.1243842 C106.15,27.6457143 106.15,27.1670443 106.152,26.6903941 C104.472,28.8009852 101.064,28.9726601 99.128,27.1347291 C96.69,24.9110345 96.816,20.445468 99.458,18.4358621 L99.458,18.4358621 Z" id="Shape" fill="#000000" sketch:type="MSShapeGroup"></path>
            <path d="M88.572,19.7668473 C89.906,18.6176355 92.106,18.5509852 93.422,19.7668473 C94.078,20.3666995 94.366,21.25133 94.552,22.1016256 C92.174,22.1299015 89.794,22.1157635 87.416,22.1097044 C87.592,21.2472906 87.904,20.3666995 88.572,19.7668473 L88.572,19.7668473 Z" id="Shape" fill="#F3F3F3" sketch:type="MSShapeGroup"></path>
            <path d="M101.498,19.1124631 C102.852,18.6156158 104.498,19.0417734 105.372,20.2212808 C106.542,21.7946305 106.52,24.2021182 105.286,25.7330542 C104.24,27.0377833 102.206,27.3185222 100.832,26.3975369 C98.338,24.7575369 98.62,20.178867 101.498,19.1124631 L101.498,19.1124631 Z" id="Shape" fill="#F3F3F3" sketch:type="MSShapeGroup"></path>
        </g>
    </g>
</svg>