<?xml version="1.0" encoding="UTF-8" ?>
<!DOCTYPE svg PUBLIC "-//W3C//DTD SVG 1.1//EN" "http://www.w3.org/Graphics/SVG/1.1/DTD/svg11.dtd">
<svg width="200pt" height="129pt" viewBox="0 0 200 129" version="1.1" xmlns="http://www.w3.org/2000/svg">
<path fill="#ffffff" d=" M 0.00 0.00 L 200.00 0.00 L 200.00 129.00 L 0.00 129.00 L 0.00 0.00 Z" />
<path fill="#7b7b7b" d=" M 4.95 12.90 C 67.95 -1.01 133.99 -1.01 196.96 13.11 C 198.10 13.99 197.39 15.75 197.63 16.98 C 197.54 48.01 197.60 79.05 197.61 110.08 C 198.14 112.03 196.24 112.59 194.73 112.82 C 196.40 108.03 196.00 102.92 195.88 97.94 C 195.93 70.02 196.35 42.09 195.82 14.18 C 192.48 13.53 189.11 13.10 185.73 12.80 C 170.87 10.44 156.03 7.76 141.01 6.59 C 103.96 2.66 66.47 4.56 29.72 10.42 C 24.90 11.25 20.10 12.24 15.24 12.80 C 11.86 13.14 8.49 13.59 5.16 14.23 C 4.78 40.83 5.16 67.43 5.19 94.03 C 5.26 100.29 4.39 106.70 6.23 112.80 C 4.76 112.50 2.89 111.98 3.46 110.05 C 3.59 77.88 3.29 45.68 3.61 13.52 C 3.95 13.37 4.61 13.05 4.95 12.90 Z" />
<path fill="#a2a2a2" d=" M 29.72 10.42 C 66.47 4.56 103.96 2.66 141.01 6.59 C 156.03 7.76 170.87 10.44 185.73 12.80 C 187.02 13.30 188.29 13.85 189.56 14.38 C 189.40 16.51 189.21 18.64 189.00 20.77 C 188.13 20.48 187.27 20.20 186.40 19.91 C 185.87 20.40 185.35 20.89 184.83 21.38 C 184.09 21.00 183.35 20.63 182.61 20.25 C 181.76 21.19 180.91 22.12 180.06 23.06 C 175.84 22.37 171.30 21.73 167.24 23.48 C 162.98 25.39 158.65 27.16 154.57 29.46 C 150.99 31.55 146.72 30.31 142.81 30.56 C 146.54 32.17 151.44 34.14 154.99 31.08 C 157.56 28.92 160.78 28.06 164.00 27.40 C 163.54 29.04 163.77 31.19 162.19 32.27 C 160.84 33.64 158.91 33.19 157.23 33.06 C 155.78 35.61 154.10 38.08 151.56 39.66 C 150.86 38.88 150.17 38.10 149.48 37.32 C 148.98 39.45 148.47 41.58 147.89 43.69 C 146.43 42.55 145.88 40.79 145.38 39.09 C 145.00 41.40 144.52 43.70 143.94 45.97 C 142.77 44.91 141.98 43.55 141.24 42.18 C 140.87 43.10 140.48 44.01 140.11 44.92 C 140.00 44.22 139.77 42.82 139.66 42.12 C 135.41 43.36 130.49 47.79 126.29 44.33 C 126.51 43.57 126.97 42.05 127.20 41.29 C 129.01 41.02 130.82 40.75 132.63 40.49 C 131.59 38.56 130.57 36.64 129.56 34.71 C 130.05 34.62 131.04 34.44 131.54 34.36 C 134.82 35.07 137.90 33.79 140.58 31.97 C 138.93 28.76 136.34 25.92 132.62 25.35 C 132.37 24.86 131.87 23.87 131.62 23.38 C 130.79 23.76 129.97 24.15 129.14 24.53 C 129.03 23.43 128.93 22.32 128.82 21.22 C 127.89 21.87 126.97 22.52 126.04 23.17 C 126.00 21.79 125.97 20.41 125.94 19.04 C 124.95 20.19 123.95 21.34 122.96 22.48 C 123.06 21.06 123.17 19.65 123.28 18.23 C 118.54 16.14 113.46 15.06 108.36 14.34 C 107.63 13.46 106.90 12.57 106.17 11.69 C 105.23 13.40 104.31 15.12 103.31 16.79 C 103.23 16.21 103.08 15.04 103.00 14.46 C 100.37 14.53 97.74 14.64 95.10 14.60 C 93.13 14.31 91.21 13.70 89.30 13.14 C 89.40 13.55 89.59 14.37 89.69 14.78 C 88.89 16.80 88.09 18.81 87.28 20.82 C 86.40 19.50 85.52 18.17 84.64 16.85 C 84.48 18.29 84.32 19.74 84.16 21.18 C 82.60 20.65 81.06 20.07 79.54 19.43 C 78.75 20.59 78.29 22.13 76.94 22.79 C 75.86 22.32 74.85 21.72 73.82 21.16 C 73.18 22.45 72.54 23.74 71.90 25.03 C 71.07 23.90 70.23 22.78 69.40 21.65 C 66.23 23.85 63.06 26.05 59.97 28.36 C 61.77 29.36 63.56 30.39 65.43 31.26 C 67.77 31.63 70.14 31.85 72.51 31.98 C 74.93 33.38 77.45 34.60 79.92 35.93 C 79.41 36.82 78.91 37.72 78.40 38.62 C 79.33 40.29 80.25 41.96 81.16 43.64 C 72.63 45.96 64.36 41.30 56.25 39.26 C 55.14 40.65 54.02 42.02 52.90 43.39 C 52.49 41.03 52.08 38.66 51.67 36.30 C 51.06 37.24 50.45 38.18 49.85 39.12 C 47.70 37.33 46.02 35.10 44.05 33.15 C 42.30 32.07 40.28 31.53 38.58 30.37 C 37.63 29.12 37.16 27.60 36.56 26.17 C 35.04 25.76 33.52 25.36 31.99 24.97 C 31.44 24.22 30.90 23.47 30.35 22.73 C 28.77 23.92 27.02 24.85 25.17 25.56 C 22.87 23.06 20.95 20.19 18.48 17.85 C 16.19 16.94 13.66 16.97 11.24 16.70 C 10.90 16.32 10.21 15.57 9.86 15.20 C 11.64 14.38 13.42 13.54 15.24 12.80 C 20.10 12.24 24.90 11.25 29.72 10.42 Z" />
<path fill="#8e8e8e" d=" M 103.31 16.79 C 104.31 15.12 105.23 13.40 106.17 11.69 C 106.90 12.57 107.63 13.46 108.36 14.34 C 108.01 14.98 107.30 16.25 106.95 16.89 C 105.63 17.61 104.31 18.34 103.01 19.09 C 101.88 21.36 100.09 23.18 98.19 24.83 C 98.54 23.09 100.80 20.80 98.35 19.61 C 97.49 21.85 96.76 24.14 96.15 26.47 C 97.69 26.39 99.73 27.54 100.83 25.95 C 102.02 24.71 103.02 23.32 104.06 21.96 C 104.44 22.33 105.18 23.08 105.56 23.45 C 104.55 24.27 103.54 25.08 102.54 25.90 C 102.46 27.03 102.39 28.17 102.31 29.31 C 100.88 30.48 99.45 31.66 98.03 32.85 C 96.78 32.76 95.54 32.66 94.29 32.57 C 94.86 33.54 95.42 34.52 95.99 35.50 C 96.22 35.13 96.68 34.39 96.92 34.03 C 98.71 32.88 100.41 31.60 102.02 30.21 C 103.12 31.29 104.21 32.39 105.35 33.43 C 103.87 35.73 102.41 38.03 100.97 40.35 C 106.18 41.42 114.16 40.57 115.70 47.18 C 115.32 49.87 115.94 52.54 116.56 55.14 C 118.14 54.10 119.72 53.04 121.31 51.99 C 123.34 51.97 125.25 51.27 127.07 50.43 C 128.28 50.96 129.49 51.49 130.71 52.02 C 131.05 51.52 131.74 50.51 132.08 50.01 C 133.61 47.88 135.79 46.38 137.96 44.97 C 138.13 46.29 138.29 47.61 138.46 48.93 C 139.02 47.60 139.58 46.27 140.11 44.92 C 140.48 44.01 140.87 43.10 141.24 42.18 C 141.98 43.55 142.77 44.91 143.94 45.97 C 144.52 43.70 145.00 41.40 145.38 39.09 C 145.88 40.79 146.43 42.55 147.89 43.69 C 148.47 41.58 148.98 39.45 149.48 37.32 C 150.17 38.10 150.86 38.88 151.56 39.66 C 154.10 38.08 155.78 35.61 157.23 33.06 C 158.91 33.19 160.84 33.64 162.19 32.27 C 163.77 31.19 163.54 29.04 164.00 27.40 C 164.97 26.82 165.92 26.18 166.87 25.55 C 167.69 25.92 168.52 26.28 169.35 26.65 C 169.58 26.07 170.03 24.92 170.25 24.35 C 172.06 25.51 173.94 26.56 175.86 27.53 C 177.26 26.04 178.68 24.56 180.06 23.06 C 180.91 22.12 181.76 21.19 182.61 20.25 C 183.35 20.63 184.09 21.00 184.83 21.38 C 185.35 20.89 185.87 20.40 186.40 19.91 C 187.27 20.20 188.13 20.48 189.00 20.77 C 189.21 18.64 189.40 16.51 189.56 14.38 C 188.29 13.85 187.02 13.30 185.73 12.80 C 189.11 13.10 192.48 13.53 195.82 14.18 C 196.35 42.09 195.93 70.02 195.88 97.94 C 196.00 102.92 196.40 108.03 194.73 112.82 L 194.69 112.97 C 152.76 121.83 109.60 124.97 66.85 121.66 C 46.48 120.21 26.28 117.01 6.27 112.95 L 6.23 112.80 C 4.39 106.70 5.26 100.29 5.19 94.03 C 5.16 67.43 4.78 40.83 5.16 14.23 C 8.49 13.59 11.86 13.14 15.24 12.80 C 13.42 13.54 11.64 14.38 9.86 15.20 C 10.21 15.57 10.90 16.32 11.24 16.70 C 13.66 16.97 16.19 16.94 18.48 17.85 C 20.95 20.19 22.87 23.06 25.17 25.56 C 27.02 24.85 28.77 23.92 30.35 22.73 C 30.90 23.47 31.44 24.22 31.99 24.97 C 33.52 25.36 35.04 25.76 36.56 26.17 C 37.16 27.60 37.63 29.12 38.58 30.37 C 40.28 31.53 42.30 32.07 44.05 33.15 C 46.02 35.10 47.70 37.33 49.85 39.12 C 50.45 38.18 51.06 37.24 51.67 36.30 C 52.08 38.66 52.49 41.03 52.90 43.39 C 54.02 42.02 55.14 40.65 56.25 39.26 C 56.50 41.35 56.79 43.43 57.16 45.50 C 58.29 44.05 59.19 42.46 59.94 40.79 C 60.44 42.46 60.97 44.11 61.50 45.77 C 66.13 46.22 70.92 44.48 75.37 46.43 C 77.61 47.50 79.92 48.49 82.40 48.80 C 83.28 48.94 85.04 49.22 85.92 49.36 C 86.62 50.04 87.33 50.73 88.03 51.42 C 88.69 51.31 89.99 51.10 90.65 51.00 C 92.93 52.95 95.77 53.11 98.55 52.23 C 95.68 47.46 93.87 42.17 92.03 36.95 C 92.36 32.39 93.33 27.86 94.75 23.51 C 94.92 23.23 95.24 22.65 95.41 22.37 C 95.90 21.51 96.40 20.66 96.90 19.81 C 94.32 18.39 91.90 16.71 89.69 14.78 C 89.59 14.37 89.40 13.55 89.30 13.14 C 91.21 13.70 93.13 14.31 95.10 14.60 C 94.74 15.18 94.02 16.32 93.66 16.90 C 96.81 17.80 100.81 20.24 103.31 16.79 Z" />
<path fill="#bfbfbf" d=" M 95.10 14.60 C 97.74 14.64 100.37 14.53 103.00 14.46 C 103.08 15.04 103.23 16.21 103.31 16.79 C 100.81 20.24 96.81 17.80 93.66 16.90 C 94.02 16.32 94.74 15.18 95.10 14.60 Z" />
<path fill="#b4b4b4" d=" M 108.36 14.34 C 113.46 15.06 118.54 16.14 123.28 18.23 C 123.17 19.65 123.06 21.06 122.96 22.48 C 123.95 21.34 124.95 20.19 125.94 19.04 C 125.97 20.41 126.00 21.79 126.04 23.17 C 126.97 22.52 127.89 21.87 128.82 21.22 C 128.93 22.32 129.03 23.43 129.14 24.53 C 129.97 24.15 130.79 23.76 131.62 23.38 C 131.87 23.87 132.37 24.86 132.62 25.35 C 136.34 25.92 138.93 28.76 140.58 31.97 C 137.90 33.79 134.82 35.07 131.54 34.36 L 130.63 33.58 C 132.19 33.16 133.75 32.73 135.31 32.31 C 130.45 26.03 122.95 21.13 114.79 21.22 C 111.59 21.18 109.22 18.83 106.95 16.89 C 107.30 16.25 108.01 14.98 108.36 14.34 Z" />
<path fill="#d0d0d0" d=" M 87.28 20.82 C 88.09 18.81 88.89 16.80 89.69 14.78 C 91.90 16.71 94.32 18.39 96.90 19.81 C 96.40 20.66 95.90 21.51 95.41 22.37 C 94.10 20.66 91.86 21.91 90.16 22.11 C 81.51 23.98 73.40 27.52 65.43 31.26 C 63.56 30.39 61.77 29.36 59.97 28.36 C 63.06 26.05 66.23 23.85 69.40 21.65 C 70.23 22.78 71.07 23.90 71.90 25.03 C 72.54 23.74 73.18 22.45 73.82 21.16 C 74.85 21.72 75.86 22.32 76.94 22.79 C 78.29 22.13 78.75 20.59 79.54 19.43 C 81.06 20.07 82.60 20.65 84.16 21.18 C 84.32 19.74 84.48 18.29 84.64 16.85 C 85.52 18.17 86.40 19.50 87.28 20.82 Z" />
<path fill="#d6d6d6" d=" M 103.01 19.09 C 104.31 18.34 105.63 17.61 106.95 16.89 C 109.22 18.83 111.59 21.18 114.79 21.22 C 122.95 21.13 130.45 26.03 135.31 32.31 C 133.75 32.73 132.19 33.16 130.63 33.58 C 124.41 27.15 115.91 23.56 107.19 22.11 C 106.64 22.55 106.10 23.00 105.56 23.45 C 105.18 23.08 104.44 22.33 104.06 21.96 C 103.02 23.32 102.02 24.71 100.83 25.95 C 99.73 27.54 97.69 26.39 96.15 26.47 C 96.76 24.14 97.49 21.85 98.35 19.61 C 100.80 20.80 98.54 23.09 98.19 24.83 C 100.09 23.18 101.88 21.36 103.01 19.09 Z" />
<path fill="#eaeaea" d=" M 90.16 22.11 C 91.86 21.91 94.10 20.66 95.41 22.37 C 95.24 22.65 94.92 23.23 94.75 23.51 C 92.54 24.76 90.21 25.91 88.48 27.81 C 88.17 27.67 87.55 27.39 87.24 27.25 C 87.18 27.83 87.06 28.99 87.00 29.57 C 86.55 29.60 85.64 29.66 85.19 29.69 C 85.05 29.07 84.78 27.83 84.64 27.21 C 84.26 27.16 83.49 27.05 83.10 27.00 L 81.89 26.87 C 81.53 26.97 80.81 27.15 80.45 27.24 C 78.46 29.78 75.82 31.71 72.51 31.98 C 70.14 31.85 67.77 31.63 65.43 31.26 C 73.40 27.52 81.51 23.98 90.16 22.11 Z" />
<path fill="#eeeeee" d=" M 105.56 23.45 C 106.10 23.00 106.64 22.55 107.19 22.11 C 115.91 23.56 124.41 27.15 130.63 33.58 L 131.54 34.36 C 131.04 34.44 130.05 34.62 129.56 34.71 C 129.05 34.77 128.02 34.90 127.51 34.96 C 123.36 34.97 120.13 32.26 116.87 30.07 C 118.10 29.23 118.70 26.72 116.85 26.23 C 115.31 26.67 115.99 28.78 116.31 29.87 C 115.82 29.77 114.84 29.57 114.35 29.46 C 115.51 28.20 114.22 24.61 112.79 27.01 C 112.57 27.36 112.12 28.05 111.90 28.40 C 110.86 25.11 108.29 29.49 111.47 29.07 L 110.97 29.77 C 110.01 29.78 109.05 29.78 108.09 29.75 C 108.67 28.43 108.32 27.55 107.05 27.11 C 105.55 26.69 104.04 26.29 102.54 25.90 C 103.54 25.08 104.55 24.27 105.56 23.45 Z" />
<path fill="#b5b5b5" d=" M 167.24 23.48 C 171.30 21.73 175.84 22.37 180.06 23.06 C 178.68 24.56 177.26 26.04 175.86 27.53 C 173.94 26.56 172.06 25.51 170.25 24.35 C 170.03 24.92 169.58 26.07 169.35 26.65 C 168.52 26.28 167.69 25.92 166.87 25.55 C 165.92 26.18 164.97 26.82 164.00 27.40 C 160.78 28.06 157.56 28.92 154.99 31.08 C 151.44 34.14 146.54 32.17 142.81 30.56 C 146.72 30.31 150.99 31.55 154.57 29.46 C 158.65 27.16 162.98 25.39 167.24 23.48 Z" />
<path fill="#ffffff" d=" M 88.48 27.81 C 90.21 25.91 92.54 24.76 94.75 23.51 C 93.33 27.86 92.36 32.39 92.03 36.95 C 93.87 42.17 95.68 47.46 98.55 52.23 C 95.77 53.11 92.93 52.95 90.65 51.00 C 91.77 50.60 92.88 50.19 93.99 49.75 C 93.09 46.68 91.93 43.68 90.43 40.84 C 89.67 40.73 88.91 40.60 88.16 40.46 C 86.85 40.10 85.57 39.63 84.34 39.05 C 82.85 38.03 81.43 36.92 79.92 35.93 C 77.45 34.60 74.93 33.38 72.51 31.98 C 75.82 31.71 78.46 29.78 80.45 27.24 C 79.76 28.46 79.97 29.35 81.09 29.91 C 82.23 29.23 82.50 28.21 81.89 26.87 L 83.10 27.00 C 83.29 28.09 83.67 30.03 85.19 29.69 C 85.64 29.66 86.55 29.60 87.00 29.57 L 87.66 29.52 C 87.87 29.09 88.27 28.24 88.48 27.81 Z" />
<path fill="#ffffff" d=" M 102.54 25.90 C 104.04 26.29 105.55 26.69 107.05 27.11 C 107.13 27.77 107.31 29.08 107.39 29.74 L 108.09 29.75 C 109.05 29.78 110.01 29.78 110.97 29.77 L 111.47 29.07 L 111.90 28.40 C 112.12 28.05 112.57 27.36 112.79 27.01 C 112.91 27.57 113.15 28.70 113.26 29.26 C 113.54 29.31 114.08 29.41 114.35 29.46 C 114.84 29.57 115.82 29.77 116.31 29.87 L 116.87 30.07 C 120.13 32.26 123.36 34.97 127.51 34.96 C 126.14 35.85 124.79 36.75 123.41 37.62 C 121.72 38.89 119.16 39.61 118.63 41.93 C 117.56 44.93 117.42 48.14 117.27 51.29 C 118.61 51.53 119.96 51.79 121.31 51.99 C 119.72 53.04 118.14 54.10 116.56 55.14 C 115.94 52.54 115.32 49.87 115.70 47.18 C 116.34 44.13 116.63 40.32 113.88 38.19 C 111.04 36.59 107.84 35.61 105.35 33.43 C 104.21 32.39 103.12 31.29 102.02 30.21 C 100.41 31.60 98.71 32.88 96.92 34.03 C 96.68 34.39 96.22 35.13 95.99 35.50 C 95.42 34.52 94.86 33.54 94.29 32.57 C 95.54 32.66 96.78 32.76 98.03 32.85 C 99.45 31.66 100.88 30.48 102.31 29.31 C 102.39 28.17 102.46 27.03 102.54 25.90 Z" />
<path fill="#cfcfcf" d=" M 112.79 27.01 C 114.22 24.61 115.51 28.20 114.35 29.46 C 114.08 29.41 113.54 29.31 113.26 29.26 C 113.15 28.70 112.91 27.57 112.79 27.01 Z" />
<path fill="#c8c8c8" d=" M 116.31 29.87 C 115.99 28.78 115.31 26.67 116.85 26.23 C 118.70 26.72 118.10 29.23 116.87 30.07 L 116.31 29.87 Z" />
<path fill="#b9b9b9" d=" M 80.45 27.24 C 80.81 27.15 81.53 26.97 81.89 26.87 C 82.50 28.21 82.23 29.23 81.09 29.91 C 79.97 29.35 79.76 28.46 80.45 27.24 Z" />
<path fill="#c0c0c0" d=" M 83.10 27.00 C 83.49 27.05 84.26 27.16 84.64 27.21 C 84.78 27.83 85.05 29.07 85.19 29.69 C 83.67 30.03 83.29 28.09 83.10 27.00 Z" />
<path fill="#bebebe" d=" M 87.24 27.25 C 87.55 27.39 88.17 27.67 88.48 27.81 C 88.27 28.24 87.87 29.09 87.66 29.52 L 87.00 29.57 C 87.06 28.99 87.18 27.83 87.24 27.25 Z" />
<path fill="#c9c9c9" d=" M 107.05 27.11 C 108.32 27.55 108.67 28.43 108.09 29.75 L 107.39 29.74 C 107.31 29.08 107.13 27.77 107.05 27.11 Z" />
<path fill="#adadad" d=" M 111.47 29.07 C 108.29 29.49 110.86 25.11 111.90 28.40 L 111.47 29.07 Z" />
<path fill="#a2a2a2" d=" M 100.97 40.35 C 102.41 38.03 103.87 35.73 105.35 33.43 C 107.84 35.61 111.04 36.59 113.88 38.19 C 116.63 40.32 116.34 44.13 115.70 47.18 C 114.16 40.57 106.18 41.42 100.97 40.35 Z" />
<path fill="#bdbdbd" d=" M 127.51 34.96 C 128.02 34.90 129.05 34.77 129.56 34.71 C 130.57 36.64 131.59 38.56 132.63 40.49 C 130.82 40.75 129.01 41.02 127.20 41.29 C 126.97 42.05 126.51 43.57 126.29 44.33 C 130.49 47.79 135.41 43.36 139.66 42.12 C 139.77 42.82 140.00 44.22 140.11 44.92 C 139.58 46.27 139.02 47.60 138.46 48.93 C 138.29 47.61 138.13 46.29 137.96 44.97 C 135.79 46.38 133.61 47.88 132.08 50.01 C 132.05 49.37 131.98 48.09 131.94 47.45 C 129.08 48.11 125.75 49.61 123.01 47.85 C 122.70 44.46 123.88 41.05 123.41 37.62 C 124.79 36.75 126.14 35.85 127.51 34.96 Z" />
<path fill="#bfbfbf" d=" M 79.92 35.93 C 81.43 36.92 82.85 38.03 84.34 39.05 C 84.35 41.38 85.41 44.51 83.08 46.08 C 80.55 46.62 77.94 46.49 75.37 46.43 C 70.92 44.48 66.13 46.22 61.50 45.77 C 60.97 44.11 60.44 42.46 59.94 40.79 C 59.19 42.46 58.29 44.05 57.16 45.50 C 56.79 43.43 56.50 41.35 56.25 39.26 C 64.36 41.30 72.63 45.96 81.16 43.64 C 80.25 41.96 79.33 40.29 78.40 38.62 C 78.91 37.72 79.41 36.82 79.92 35.93 Z" />
<path fill="#d7d7d7" d=" M 118.63 41.93 C 119.16 39.61 121.72 38.89 123.41 37.62 C 123.88 41.05 122.70 44.46 123.01 47.85 C 125.75 49.61 129.08 48.11 131.94 47.45 C 131.98 48.09 132.05 49.37 132.08 50.01 C 131.74 50.51 131.05 51.52 130.71 52.02 C 129.49 51.49 128.28 50.96 127.07 50.43 C 125.25 51.27 123.34 51.97 121.31 51.99 C 119.96 51.79 118.61 51.53 117.27 51.29 C 117.42 48.14 117.56 44.93 118.63 41.93 Z" />
<path fill="#d6d6d6" d=" M 84.34 39.05 C 85.57 39.63 86.85 40.10 88.16 40.46 C 88.47 43.03 88.64 45.62 88.67 48.21 C 86.58 48.41 84.49 48.65 82.40 48.80 C 79.92 48.49 77.61 47.50 75.37 46.43 C 77.94 46.49 80.55 46.62 83.08 46.08 C 85.41 44.51 84.35 41.38 84.34 39.05 Z" />
<path fill="#ebebeb" d=" M 88.16 40.46 C 88.91 40.60 89.67 40.73 90.43 40.84 C 91.93 43.68 93.09 46.68 93.99 49.75 C 92.88 50.19 91.77 50.60 90.65 51.00 C 89.99 51.10 88.69 51.31 88.03 51.42 C 87.33 50.73 86.62 50.04 85.92 49.36 C 85.04 49.22 83.28 48.94 82.40 48.80 C 84.49 48.65 86.58 48.41 88.67 48.21 C 88.64 45.62 88.47 43.03 88.16 40.46 Z" />
<path fill="#f6f6f6" d=" M 98.53 45.51 C 102.21 46.70 100.44 51.09 100.54 53.87 C 99.51 51.18 99.00 48.34 98.53 45.51 Z" />
<path fill="#f6f6f6" d=" M 103.89 48.00 C 105.80 48.50 107.77 48.64 109.74 48.33 C 111.15 50.07 112.59 51.80 114.10 53.46 C 111.66 52.96 109.24 53.50 106.98 54.40 C 105.45 54.20 103.92 54.00 102.39 53.78 C 102.86 51.84 103.36 49.92 103.89 48.00 Z" />
<path fill="#ffffff" d=" M 21.26 51.41 C 26.18 52.68 31.41 52.84 36.12 54.85 C 45.87 59.76 47.78 74.63 40.37 82.34 C 37.76 85.18 33.66 85.39 30.06 85.19 C 27.04 84.99 23.84 85.51 21.03 84.15 C 21.60 83.61 22.76 82.53 23.33 81.99 C 23.40 73.06 23.46 64.12 23.31 55.19 C 22.45 54.02 21.77 52.76 21.26 51.41 Z" />
<path fill="#ffffff" d=" M 171.34 53.70 C 174.28 52.94 177.23 52.17 180.25 51.77 C 179.22 54.15 176.52 55.02 175.12 57.11 C 172.71 60.56 170.35 64.04 167.91 67.47 C 172.63 73.06 174.96 81.18 182.27 84.10 C 180.02 85.65 176.91 85.49 174.45 84.65 C 170.25 81.39 168.42 76.11 165.51 71.81 C 164.56 75.14 165.27 78.64 165.09 82.05 C 165.77 82.93 166.46 83.82 167.14 84.71 C 163.17 85.37 159.11 85.43 155.12 84.99 C 150.89 82.83 149.74 77.67 146.79 74.26 C 146.32 74.17 145.39 74.00 144.92 73.92 C 145.02 77.58 143.96 81.76 146.85 84.62 C 142.53 85.82 137.85 84.81 133.40 85.14 C 133.95 82.14 132.71 79.34 131.57 76.66 C 129.49 76.66 127.42 76.64 125.34 76.61 C 124.59 78.52 123.87 80.44 123.16 82.36 C 123.47 83.27 123.78 84.19 124.09 85.11 C 121.86 85.15 119.62 85.16 117.39 85.09 C 118.53 83.42 120.21 82.07 120.94 80.14 C 123.69 72.80 126.17 65.35 129.10 58.08 C 132.90 64.56 134.42 72.13 137.39 79.02 C 138.12 80.84 139.13 82.54 140.23 84.17 C 140.62 76.60 140.60 69.01 140.45 61.44 L 140.12 61.05 C 139.17 60.35 138.16 58.60 140.09 58.53 C 144.51 58.19 150.16 55.64 153.79 59.32 C 156.51 63.66 154.59 69.48 150.89 72.63 C 153.98 76.36 155.67 81.79 160.37 83.80 C 160.74 75.35 160.56 66.89 160.65 58.44 C 159.98 57.58 159.32 56.73 158.66 55.88 C 161.54 55.35 164.42 54.90 167.31 54.44 C 164.06 58.22 164.97 63.48 165.81 67.97 C 166.55 63.33 169.99 59.92 172.28 56.01 C 172.04 55.43 171.57 54.27 171.34 53.70 Z" />
<path fill="#c2c2c2" d=" M 181.38 52.30 C 182.98 51.79 183.52 52.36 182.99 54.01 C 181.38 54.52 180.84 53.95 181.38 52.30 Z" />
<path fill="#8e8e8e" d=" M 28.11 55.91 C 30.58 56.35 33.20 56.94 34.99 58.86 C 39.95 63.41 40.67 70.95 38.83 77.10 C 37.63 80.99 33.03 83.59 29.18 81.85 C 27.83 81.02 28.25 79.30 28.09 77.99 C 27.95 70.63 27.68 63.26 28.11 55.91 Z" />
<path fill="#ffffff" d=" M 44.93 56.63 C 49.92 56.37 54.81 58.27 59.86 57.84 C 59.86 58.69 59.85 60.41 59.85 61.26 C 57.26 60.99 54.68 60.63 52.12 60.13 C 52.11 62.99 52.13 65.84 52.18 68.70 C 54.61 68.76 57.03 68.82 59.46 68.89 C 59.41 69.70 59.31 71.32 59.26 72.13 C 56.86 71.96 54.46 71.79 52.07 71.63 C 52.22 74.69 52.07 77.76 52.31 80.82 C 53.02 83.27 56.20 82.03 58.08 82.38 C 58.97 81.59 59.87 80.82 60.79 80.06 C 60.73 81.80 60.51 83.53 60.17 85.24 C 55.45 85.33 50.74 85.14 46.03 85.06 C 46.68 83.43 47.53 81.80 47.49 79.99 C 47.65 73.29 47.44 66.58 47.45 59.87 C 46.60 58.80 45.77 57.72 44.93 56.63 Z" />
<path fill="#ffffff" d=" M 62.03 58.28 C 66.97 58.67 71.88 59.78 76.86 59.40 C 76.74 60.46 76.62 61.51 76.50 62.56 C 73.98 62.27 71.45 62.00 68.93 61.73 C 68.93 64.40 68.96 67.07 69.03 69.73 C 71.49 69.97 73.96 70.12 76.43 70.14 C 76.31 70.85 76.08 72.27 75.96 72.99 C 73.68 72.87 71.41 72.69 69.14 72.46 C 69.17 75.59 68.69 78.80 69.42 81.88 C 72.12 83.50 75.33 82.19 77.84 80.82 C 77.56 82.27 77.29 83.71 77.04 85.16 C 72.31 85.44 67.59 85.04 62.86 85.15 C 63.70 83.18 64.58 81.15 64.40 78.95 C 64.33 73.64 64.49 68.33 64.30 63.03 C 64.28 61.19 62.76 59.86 62.03 58.28 Z" />
<path fill="#ffffff" d=" M 104.49 60.28 C 107.69 60.40 110.89 60.25 114.07 59.86 C 117.36 59.34 121.40 61.31 121.60 64.95 C 122.26 70.59 116.32 75.31 110.93 74.26 C 110.98 77.98 110.14 82.22 113.20 85.04 C 110.33 85.18 107.46 85.21 104.59 85.07 C 105.21 84.08 105.83 83.09 106.46 82.11 C 106.63 75.71 106.54 69.31 106.54 62.91 C 105.86 62.03 105.17 61.16 104.49 60.28 Z" />
<path fill="#ffffff" d=" M 78.42 59.55 C 83.39 59.98 89.01 58.86 93.45 61.65 C 97.41 65.06 95.27 70.85 92.02 73.92 C 95.23 77.77 97.82 83.14 103.24 84.08 C 102.51 85.75 100.44 85.13 99.03 85.26 C 93.01 85.59 91.29 78.70 87.71 75.25 C 87.09 75.19 85.86 75.09 85.25 75.04 C 85.26 77.48 85.32 79.93 85.41 82.37 C 86.13 83.25 86.83 84.13 87.54 85.01 C 84.76 85.25 81.96 85.21 79.19 84.96 C 79.83 83.74 80.79 82.55 80.64 81.07 C 80.78 74.78 80.60 68.49 80.61 62.20 C 80.06 61.54 78.97 60.21 78.42 59.55 Z" />
<path fill="#868686" d=" M 145.20 60.10 C 150.39 59.63 152.38 66.87 149.11 70.11 C 148.06 71.33 146.37 71.37 144.90 71.52 C 145.05 67.71 145.06 63.90 145.20 60.10 Z" />
<path fill="#7b7b7b" d=" M 139.07 60.38 L 140.12 61.05 L 140.45 61.44 C 140.60 69.01 140.62 76.60 140.23 84.17 C 139.13 82.54 138.12 80.84 137.39 79.02 C 138.46 77.54 139.31 75.87 139.12 73.99 C 139.19 69.45 138.88 64.92 139.07 60.38 Z" />
<path fill="#858585" d=" M 85.30 62.13 C 87.72 62.32 90.55 63.22 91.03 65.97 C 92.29 69.65 89.20 73.40 85.33 72.66 C 85.30 69.15 85.28 65.64 85.30 62.13 Z" />
<path fill="#8d8d8d" d=" M 111.13 62.08 C 112.85 62.44 114.95 62.35 116.16 63.87 C 117.64 65.22 117.35 67.35 117.59 69.14 C 115.90 71.19 113.83 72.94 111.04 73.03 C 111.00 69.38 111.00 65.73 111.13 62.08 Z" />
<path fill="#858585" d=" M 126.21 74.15 C 126.89 71.69 127.76 69.29 128.98 67.04 C 129.46 69.65 129.65 72.51 131.58 74.54 C 129.79 74.33 128.00 74.22 126.21 74.15 Z" />
<path fill="#a2a2a2" d=" M 6.29 72.30 C 10.14 72.58 14.46 71.97 17.85 74.15 C 20.47 77.72 19.67 83.18 16.48 86.20 C 12.90 84.89 9.44 83.27 5.97 81.69 C 6.28 81.25 6.90 80.38 7.21 79.94 C 10.98 80.78 14.68 81.89 18.44 82.76 C 15.37 79.82 11.21 78.59 7.61 76.48 C 7.07 76.98 6.54 77.48 6.02 77.99 C 6.08 76.09 6.18 74.19 6.29 72.30 Z" />
<path fill="#9d9d9d" d=" M 177.98 76.17 C 183.42 74.90 189.06 74.77 194.49 73.42 C 195.12 80.00 194.97 86.61 195.18 93.21 C 192.15 93.96 189.21 95.07 186.51 96.67 C 188.60 97.68 190.83 96.96 192.98 96.59 C 193.50 96.63 194.56 96.73 195.09 96.77 C 195.23 101.07 195.14 105.38 194.70 109.66 C 132.99 123.70 68.12 123.49 6.39 109.61 C 6.18 105.02 5.99 100.42 6.39 95.84 C 7.97 100.29 13.21 100.72 17.16 101.68 C 14.52 99.78 11.89 97.87 9.34 95.85 C 16.02 97.86 22.66 100.00 29.07 102.77 C 34.24 104.46 40.39 106.55 45.58 103.99 C 53.72 104.70 61.91 104.47 70.07 104.31 C 74.17 104.44 78.18 105.40 82.27 105.62 C 78.18 103.27 73.72 101.34 68.98 100.86 C 61.55 100.34 53.89 101.41 46.64 99.30 C 43.89 98.67 42.99 95.93 42.12 93.60 C 36.96 91.11 31.43 89.20 25.65 89.06 C 29.62 92.91 35.51 92.84 40.00 95.79 C 38.94 95.99 36.82 96.39 35.76 96.59 C 42.15 99.31 48.83 101.03 55.59 102.51 C 49.83 103.91 44.48 100.61 38.81 101.03 C 34.99 97.65 29.70 97.49 25.30 95.27 C 23.57 94.34 21.79 93.52 19.99 92.75 C 21.37 94.28 22.77 95.79 24.17 97.31 C 18.91 97.23 11.68 97.15 9.82 91.05 C 9.37 90.78 8.46 90.26 8.01 90.00 C 7.38 90.69 6.75 91.38 6.12 92.07 C 6.04 89.31 5.79 86.46 6.85 83.83 C 11.89 86.14 16.97 89.02 22.54 89.69 C 26.55 86.49 31.88 88.08 36.38 89.21 C 38.27 88.21 40.06 86.83 42.22 86.53 C 45.60 87.30 48.67 89.55 52.26 89.25 C 55.55 89.00 58.88 88.69 62.15 89.37 C 58.72 90.77 54.79 89.93 51.48 91.72 C 48.72 92.79 46.01 94.00 43.36 95.31 C 46.07 98.24 50.11 99.06 53.95 99.00 C 87.00 98.97 120.06 99.05 153.11 98.96 C 158.89 99.42 163.25 93.97 169.09 95.06 C 173.44 95.54 177.85 95.64 182.12 94.48 C 177.10 93.97 172.14 93.05 167.11 92.71 C 168.80 91.96 170.52 91.19 171.93 89.97 C 172.37 89.49 172.80 89.00 173.23 88.51 C 175.84 89.82 178.86 90.62 181.78 90.41 C 184.42 88.19 185.42 84.38 183.87 81.24 C 183.23 78.35 180.23 77.48 177.98 76.17 Z" />
<path fill="#b5b5b5" d=" M 6.02 77.99 C 6.54 77.48 7.07 76.98 7.61 76.48 C 11.21 78.59 15.37 79.82 18.44 82.76 C 14.68 81.89 10.98 80.78 7.21 79.94 L 6.27 79.69 C 6.21 79.27 6.08 78.42 6.02 77.99 Z" />
<path fill="#c1c1c1" d=" M 5.97 81.69 C 9.44 83.27 12.90 84.89 16.48 86.20 C 18.70 86.98 20.66 88.30 22.54 89.69 C 16.97 89.02 11.89 86.14 6.85 83.83 C 6.63 83.30 6.19 82.23 5.97 81.69 Z" />
<path fill="#b7b7b7" d=" M 184.62 89.31 C 187.33 88.21 190.22 87.63 193.15 87.93 C 190.88 89.99 187.34 91.33 184.62 89.31 Z" />
<path fill="#c1c1c1" d=" M 25.65 89.06 C 31.43 89.20 36.96 91.11 42.12 93.60 C 42.99 95.93 43.89 98.67 46.64 99.30 C 53.89 101.41 61.55 100.34 68.98 100.86 C 73.72 101.34 78.18 103.27 82.27 105.62 C 78.18 105.40 74.17 104.44 70.07 104.31 C 61.91 104.47 53.72 104.70 45.58 103.99 C 41.72 103.56 37.82 102.73 34.82 100.07 C 32.04 97.63 25.72 100.16 25.30 95.27 C 29.70 97.49 34.99 97.65 38.81 101.03 C 44.48 100.61 49.83 103.91 55.59 102.51 C 48.83 101.03 42.15 99.31 35.76 96.59 C 36.82 96.39 38.94 95.99 40.00 95.79 C 35.51 92.84 29.62 92.91 25.65 89.06 Z" />
<path fill="#b2b2b2" d=" M 148.00 89.65 C 155.98 89.58 163.97 89.36 171.93 89.97 C 170.52 91.19 168.80 91.96 167.11 92.71 C 172.14 93.05 177.10 93.97 182.12 94.48 C 177.85 95.64 173.44 95.54 169.09 95.06 C 163.25 93.97 158.89 99.42 153.11 98.96 C 120.06 99.05 87.00 98.97 53.95 99.00 C 50.11 99.06 46.07 98.24 43.36 95.31 C 46.01 94.00 48.72 92.79 51.48 91.72 C 84.99 91.98 118.51 91.85 152.02 91.81 C 155.62 91.63 158.97 93.06 162.13 94.62 C 162.33 94.03 162.54 93.44 162.76 92.86 C 160.31 92.78 158.17 91.56 155.96 90.66 C 153.30 90.36 150.59 90.43 148.00 89.65 Z" />
<path fill="#b0b0b0" d=" M 6.12 92.07 C 6.75 91.38 7.38 90.69 8.01 90.00 C 8.46 90.26 9.37 90.78 9.82 91.05 C 11.68 97.15 18.91 97.23 24.17 97.31 C 22.77 95.79 21.37 94.28 19.99 92.75 C 21.79 93.52 23.57 94.34 25.30 95.27 C 25.72 100.16 32.04 97.63 34.82 100.07 C 37.82 102.73 41.72 103.56 45.58 103.99 C 40.39 106.55 34.24 104.46 29.07 102.77 C 22.66 100.00 16.02 97.86 9.34 95.85 C 11.89 97.87 14.52 99.78 17.16 101.68 C 13.21 100.72 7.97 100.29 6.39 95.84 C 6.21 94.59 6.19 93.33 6.12 92.07 Z" />
<path fill="#9c9c9c" d=" M 51.92 92.99 C 52.43 93.26 53.44 93.80 53.95 94.08 C 53.88 95.42 53.80 96.76 53.71 98.10 C 51.31 97.65 52.35 94.72 51.92 92.99 Z" />
<path fill="#a5a5a5" d=" M 55.66 93.68 C 58.84 93.21 62.07 93.67 65.26 93.66 C 66.04 94.87 66.81 96.08 67.58 97.29 C 66.33 97.50 65.08 97.73 63.84 97.97 C 63.48 97.04 63.12 96.11 62.75 95.18 C 62.40 95.79 61.69 97.00 61.33 97.61 C 59.25 97.70 57.17 97.77 55.09 97.83 C 55.16 96.50 54.17 94.52 55.66 93.68 Z" />
<path fill="#919191" d=" M 70.05 92.94 C 71.94 94.22 74.18 95.54 74.07 98.16 C 72.33 96.80 69.65 95.59 70.05 92.94 Z" />
<path fill="#999999" d=" M 76.42 92.85 C 77.88 94.19 78.54 96.06 79.03 97.94 C 78.13 97.52 77.23 97.09 76.34 96.67 C 75.94 96.97 75.14 97.59 74.74 97.90 C 75.28 96.21 75.83 94.52 76.42 92.85 Z" />
<path fill="#9c9c9c" d=" M 79.36 93.16 C 80.01 93.20 81.31 93.27 81.95 93.30 C 81.80 95.07 81.76 96.96 80.46 98.34 C 80.06 96.62 79.70 94.89 79.36 93.16 Z" />
<path fill="#9b9b9b" d=" M 87.93 93.74 C 89.00 93.67 90.18 93.09 91.19 93.65 C 91.51 94.62 91.70 95.62 91.93 96.62 C 92.73 95.40 93.55 94.19 94.38 92.99 C 95.25 94.38 95.88 95.90 96.34 97.49 C 93.65 97.44 90.96 97.47 88.28 97.64 C 88.17 96.34 88.05 95.04 87.93 93.74 Z" />
<path fill="#9c9c9c" d=" M 97.22 92.72 C 98.44 94.25 99.15 96.09 99.75 97.94 C 99.07 97.90 97.71 97.83 97.03 97.80 C 97.07 96.10 97.13 94.41 97.22 92.72 Z" />
<path fill="#9a9a9a" d=" M 106.78 93.24 C 107.95 93.52 109.12 93.75 110.30 93.96 C 109.41 95.11 108.53 96.26 107.64 97.41 C 106.32 97.49 104.99 97.57 103.67 97.65 C 103.21 96.35 102.75 95.04 102.33 93.72 C 103.84 93.98 104.88 95.14 105.95 96.13 C 106.16 95.41 106.58 93.97 106.78 93.24 Z" />
<path fill="#9a9a9a" d=" M 111.11 93.10 C 112.05 93.37 112.98 93.64 113.91 93.92 C 113.95 95.21 113.98 96.51 114.02 97.80 C 112.78 97.64 111.55 97.47 110.32 97.31 C 110.59 95.91 110.86 94.50 111.11 93.10 Z" />
<path fill="#9d9d9d" d=" M 115.13 92.76 C 117.13 94.13 117.34 96.96 115.19 98.31 C 115.11 96.46 115.09 94.61 115.13 92.76 Z" />
<path fill="#9a9a9a" d=" M 117.88 93.33 C 120.42 94.99 123.31 94.74 125.76 93.02 C 125.05 94.27 124.35 95.52 123.65 96.77 C 124.84 96.45 126.03 96.13 127.23 95.82 C 127.29 99.19 123.73 97.62 122.13 96.41 C 121.85 96.76 121.29 97.47 121.00 97.83 C 120.62 97.47 119.85 96.76 119.46 96.41 C 119.16 96.72 118.56 97.33 118.26 97.64 C 118.13 96.20 118.01 94.77 117.88 93.33 Z" />
<path fill="#989898" d=" M 129.33 93.70 C 130.18 93.55 130.86 94.09 131.59 94.44 C 131.87 94.18 132.43 93.66 132.71 93.40 C 133.43 94.50 136.01 96.94 133.77 97.61 C 133.44 97.32 132.77 96.74 132.44 96.46 C 131.72 96.98 131.01 97.52 130.30 98.05 C 129.97 96.60 129.64 95.15 129.33 93.70 Z" />
<path fill="#999999" d=" M 137.49 92.81 C 138.54 94.38 139.38 96.08 140.02 97.86 C 139.16 97.48 138.30 97.10 137.45 96.72 C 136.87 97.05 136.30 97.37 135.73 97.71 C 136.29 96.06 136.88 94.43 137.49 92.81 Z" />
<path fill="#9c9c9c" d=" M 140.30 93.31 C 140.95 93.30 142.24 93.26 142.89 93.25 C 142.62 94.99 142.16 96.71 141.45 98.33 C 141.04 96.66 140.66 94.99 140.30 93.31 Z" />
<path fill="#989898" d=" M 143.98 94.03 C 144.45 93.79 145.38 93.32 145.85 93.08 C 146.06 94.69 146.27 96.30 146.49 97.92 C 145.91 97.90 144.74 97.85 144.16 97.83 C 144.10 96.56 144.04 95.30 143.98 94.03 Z" />
<path fill="#9a9a9a" d=" M 148.19 93.27 C 148.90 93.29 150.31 93.33 151.01 93.35 C 151.23 94.81 151.45 96.27 151.67 97.74 C 150.43 97.65 149.19 97.57 147.96 97.48 C 148.04 96.08 148.11 94.67 148.19 93.27 Z" />
<path fill="#bababa" d=" M 186.51 96.67 C 189.21 95.07 192.15 93.96 195.18 93.21 C 195.05 94.78 194.31 95.91 192.98 96.59 C 190.83 96.96 188.60 97.68 186.51 96.67 Z" />
<path fill="#989898" d=" M 82.99 93.93 C 85.12 92.89 84.97 96.09 85.60 97.31 C 85.91 96.01 86.36 94.75 86.92 93.54 C 86.92 95.03 86.89 96.51 86.83 98.00 C 84.25 98.28 82.28 96.65 82.99 93.93 Z" />
<path fill="#d0d0d0" d=" M 158.47 99.68 C 164.89 97.89 171.64 98.17 178.24 98.48 C 169.31 101.20 159.84 100.02 150.78 102.04 C 144.40 103.04 138.28 105.63 131.77 105.65 C 140.52 103.07 149.53 101.44 158.47 99.68 Z" />
<path fill="#b1b1b1" d=" M 75.85 101.42 C 80.66 100.21 85.49 102.42 90.09 103.64 C 85.29 104.73 80.45 102.64 75.85 101.42 Z" />
<path fill="#bfbfbf" d=" M 103.86 102.54 C 107.23 102.54 110.57 102.15 113.86 101.43 C 117.85 100.60 121.75 102.15 125.70 102.41 C 128.85 102.40 132.00 102.11 135.16 102.16 C 125.30 105.47 114.71 104.89 104.59 103.40 C 104.41 103.18 104.04 102.75 103.86 102.54 Z" />
<path fill="#a8a8a8" d=" M 99.24 106.10 C 103.11 104.92 107.13 107.12 110.89 105.50 C 111.46 105.73 112.60 106.18 113.17 106.41 C 109.54 108.86 104.95 108.56 100.96 110.04 C 96.41 111.80 91.46 111.39 86.74 110.67 C 90.40 107.99 95.16 109.32 99.36 108.83 C 99.32 107.92 99.28 107.01 99.24 106.10 Z" />
<path fill="#b3b3b3" d=" M 58.48 107.97 C 61.13 105.79 64.84 106.49 68.03 106.26 C 65.17 108.06 61.80 109.71 58.48 107.97 Z" />
</svg>
