<?xml version="1.0" encoding="UTF-8" ?>
<!DOCTYPE svg PUBLIC "-//W3C//DTD SVG 1.1//EN" "http://www.w3.org/Graphics/SVG/1.1/DTD/svg11.dtd">
<svg width="200pt" height="129pt" viewBox="0 0 200 129" version="1.1" xmlns="http://www.w3.org/2000/svg">
<path fill="#ffffff" d=" M 0.00 0.00 L 200.00 0.00 L 200.00 129.00 L 0.00 129.00 L 0.00 0.00 Z" />
<path fill="#002e8c" d=" M 6.14 12.09 C 68.23 -1.54 133.32 -1.87 195.32 12.37 C 194.98 12.64 194.30 13.20 193.96 13.47 C 192.12 13.34 190.29 13.09 188.46 12.90 C 181.44 12.37 174.60 10.51 167.59 9.82 C 121.23 2.39 73.70 2.79 27.44 10.79 C 20.12 11.64 12.98 13.54 5.68 14.58 L 5.26 14.61 C 5.01 17.72 4.83 20.84 4.86 23.97 C 5.00 38.31 4.72 52.65 5.07 66.98 C 5.10 69.97 5.45 72.94 5.92 75.89 C 6.04 77.20 6.12 78.52 6.16 79.84 C 6.17 80.30 6.20 81.23 6.21 81.69 C 6.20 82.11 6.19 82.95 6.18 83.37 C 5.97 86.38 5.78 89.40 5.85 92.42 L 5.87 93.82 C 5.87 97.12 5.85 100.42 5.93 103.72 C 6.15 105.93 5.04 108.63 6.41 110.53 C 10.76 112.09 15.41 112.51 19.90 113.51 C 26.08 114.55 32.21 116.00 38.48 116.34 C 72.38 121.56 106.92 121.70 141.05 119.02 C 159.24 116.83 177.56 114.90 195.33 110.29 C 195.29 108.22 195.26 106.16 195.24 104.09 C 195.21 101.07 195.15 98.04 195.16 95.02 L 195.22 93.27 C 195.51 86.44 195.04 79.59 195.62 72.77 C 196.04 69.86 196.37 66.93 196.32 63.99 C 196.27 51.61 196.35 39.24 196.25 26.87 C 196.26 21.90 195.32 16.94 195.80 11.97 C 197.27 12.53 197.90 13.55 197.70 15.02 C 197.58 47.51 197.82 80.03 197.56 112.52 C 181.63 116.49 165.24 118.76 148.93 120.73 C 101.96 126.32 54.20 123.29 7.95 113.69 C 6.32 113.10 2.84 113.58 3.35 110.96 C 3.43 78.67 3.33 46.37 3.39 14.07 C 3.00 12.40 5.11 12.44 6.14 12.09 Z" />
<path fill="#00c1f8" d=" M 27.44 10.79 C 73.70 2.79 121.23 2.39 167.59 9.82 C 165.90 10.85 163.97 11.27 162.02 10.83 C 119.25 4.47 75.56 5.01 32.86 11.71 C 30.96 12.15 29.09 11.83 27.44 10.79 Z" />
<path fill="#00b0f0" d=" M 32.86 11.71 C 75.56 5.01 119.25 4.47 162.02 10.83 C 163.97 11.27 165.90 10.85 167.59 9.82 C 174.60 10.51 181.44 12.37 188.46 12.90 C 189.12 15.38 188.99 17.96 188.84 20.49 C 188.03 20.10 187.23 19.71 186.43 19.32 C 185.80 20.41 185.17 21.51 184.53 22.60 C 184.31 21.58 183.85 19.56 183.63 18.54 C 182.45 20.00 181.34 21.50 180.22 22.99 C 177.65 21.75 174.80 20.90 172.13 22.35 C 171.45 22.03 170.77 21.71 170.10 21.38 C 167.76 22.38 165.54 23.64 163.39 24.99 C 162.74 25.36 162.08 25.73 161.41 26.07 C 158.56 26.64 156.26 28.44 153.99 30.15 C 153.49 29.94 152.50 29.52 152.00 29.31 C 151.13 29.90 150.26 30.50 149.39 31.09 C 147.95 30.82 146.50 30.59 145.05 30.38 C 144.01 29.66 142.99 28.92 141.93 28.23 C 141.68 28.31 141.18 28.47 140.92 28.55 C 140.48 28.97 139.58 29.82 139.14 30.25 C 137.88 28.31 136.34 26.58 134.91 24.77 C 134.54 24.14 133.81 22.88 133.45 22.25 C 133.10 22.34 132.39 22.51 132.04 22.60 L 131.35 22.79 L 131.38 21.87 C 131.26 20.72 130.04 20.59 129.16 20.59 L 128.11 20.52 C 127.64 20.45 126.70 20.29 126.23 20.21 C 125.91 19.94 125.27 19.40 124.95 19.13 L 123.98 18.30 C 119.13 15.37 113.32 14.30 107.75 13.61 C 107.54 12.77 107.37 11.91 107.21 11.05 L 107.10 10.11 C 105.32 10.14 103.55 10.18 101.77 10.22 C 102.01 10.71 102.49 11.69 102.73 12.18 L 103.29 13.38 C 100.33 13.51 96.97 11.78 94.31 13.66 L 93.10 14.26 C 93.19 13.42 93.39 11.74 93.49 10.90 C 93.34 11.32 93.03 12.17 92.88 12.60 C 92.54 11.12 92.19 9.64 91.83 8.16 C 90.97 8.50 90.10 8.84 89.24 9.18 C 89.31 9.81 89.45 11.08 89.52 11.72 C 89.58 12.16 89.69 13.04 89.75 13.48 C 80.42 15.21 70.94 17.54 63.00 22.98 C 61.45 24.08 60.34 25.67 59.18 27.16 L 58.36 26.33 L 58.06 26.00 C 57.07 26.28 56.10 26.61 55.12 26.90 C 53.91 26.67 52.70 26.47 51.48 26.31 L 51.05 26.41 C 50.66 26.49 49.89 26.65 49.50 26.73 C 46.37 23.79 41.98 22.54 37.75 22.94 L 37.14 22.98 C 35.09 22.85 33.06 22.53 31.10 21.96 C 30.56 21.81 30.01 21.66 29.46 21.53 C 27.51 21.14 25.50 21.05 23.53 21.30 L 22.44 21.56 C 22.18 21.62 21.67 21.74 21.42 21.80 C 20.63 19.47 19.25 17.44 17.52 15.71 C 17.28 16.49 16.80 18.05 16.56 18.82 C 15.99 18.05 15.43 17.28 14.83 16.54 L 14.36 16.46 C 13.29 16.28 12.19 16.15 11.16 15.79 C 10.85 15.59 10.23 15.20 9.92 15.01 C 9.54 15.52 8.79 16.52 8.41 17.03 C 7.51 16.20 6.62 15.37 5.68 14.58 C 12.98 13.54 20.12 11.64 27.44 10.79 C 29.09 11.83 30.96 12.15 32.86 11.71 Z" />
<path fill="#20ace5" d=" M 89.24 9.18 C 90.10 8.84 90.97 8.50 91.83 8.16 C 92.19 9.64 92.54 11.12 92.88 12.60 C 92.73 13.20 92.44 14.39 92.29 14.99 C 91.35 13.91 90.40 12.84 89.52 11.72 C 89.45 11.08 89.31 9.81 89.24 9.18 Z" />
<path fill="#2fb8eb" d=" M 101.77 10.22 C 103.55 10.18 105.32 10.14 107.10 10.11 L 107.21 11.05 C 106.26 11.94 105.27 12.80 104.26 13.62 C 103.88 13.26 103.12 12.54 102.73 12.18 C 102.49 11.69 102.01 10.71 101.77 10.22 Z" />
<path fill="#0a1377" d=" M 92.88 12.60 C 93.03 12.17 93.34 11.32 93.49 10.90 C 93.39 11.74 93.19 13.42 93.10 14.26 L 94.31 13.66 L 95.96 13.03 C 95.57 13.51 94.79 14.47 94.40 14.94 C 94.23 15.23 93.88 15.79 93.71 16.07 C 94.56 17.03 95.61 17.41 96.87 17.20 L 97.30 17.15 C 98.57 17.65 99.81 18.61 101.24 18.22 C 101.58 18.73 102.24 19.76 102.57 20.28 C 102.79 20.65 103.22 21.38 103.44 21.75 C 104.04 21.86 105.25 22.09 105.86 22.20 C 105.27 22.96 104.68 23.72 104.09 24.46 C 103.57 23.30 103.06 22.14 102.56 20.97 C 102.27 21.05 101.70 21.22 101.42 21.31 L 100.04 20.60 C 99.04 19.96 98.18 20.10 97.46 21.01 C 97.27 21.22 96.89 21.64 96.70 21.85 C 95.53 25.13 95.08 28.60 94.56 32.02 C 94.19 31.51 93.43 30.48 93.06 29.96 C 93.50 26.76 94.47 23.62 96.16 20.85 C 96.55 20.41 97.34 19.51 97.73 19.07 C 97.00 18.90 95.53 18.57 94.80 18.40 C 94.71 18.36 94.54 18.27 94.46 18.22 C 93.73 17.56 93.01 16.88 92.32 16.19 C 91.44 15.30 90.57 14.41 89.75 13.48 C 89.69 13.04 89.58 12.16 89.52 11.72 C 90.40 12.84 91.35 13.91 92.29 14.99 C 92.44 14.39 92.73 13.20 92.88 12.60 Z" />
<path fill="#002e8c" d=" M 104.26 13.62 C 105.27 12.80 106.26 11.94 107.21 11.05 C 107.37 11.91 107.54 12.77 107.75 13.61 L 108.20 15.08 C 106.09 16.54 103.95 18.22 101.24 18.22 C 101.89 17.58 103.18 16.29 103.83 15.65 L 104.26 15.52 C 103.93 14.80 103.61 14.09 103.29 13.38 L 102.73 12.18 C 103.12 12.54 103.88 13.26 104.26 13.62 Z" />
<path fill="#45caf5" d=" M 94.31 13.66 C 96.97 11.78 100.33 13.51 103.29 13.38 C 103.61 14.09 103.93 14.80 104.26 15.52 L 103.83 15.65 C 101.65 16.15 99.47 16.62 97.30 17.15 L 96.87 17.20 C 96.36 16.10 95.53 15.35 94.40 14.94 C 94.79 14.47 95.57 13.51 95.96 13.03 L 94.31 13.66 Z" />
<path fill="#45caf5" d=" M 106.36 13.18 C 107.99 13.32 106.85 15.72 105.72 15.80 C 104.16 15.64 105.25 13.27 106.36 13.18 Z" />
<path fill="#39caef" d=" M 107.75 13.61 C 113.32 14.30 119.13 15.37 123.98 18.30 C 123.51 19.47 123.03 20.64 122.56 21.80 C 121.63 21.42 120.71 21.03 119.79 20.63 C 120.27 20.72 121.23 20.89 121.70 20.97 C 121.46 19.98 121.22 18.99 120.98 18.00 C 119.75 18.80 118.49 19.55 117.20 20.24 C 117.56 19.42 118.30 17.78 118.66 16.95 C 118.04 17.46 117.41 17.97 116.78 18.47 L 116.18 18.54 L 115.83 17.46 L 114.80 17.24 L 114.19 17.09 C 113.06 16.77 111.95 16.43 110.84 16.06 C 109.95 15.75 109.07 15.42 108.20 15.08 L 107.75 13.61 Z" />
<path fill="#0054a5" d=" M 188.46 12.90 C 190.29 13.09 192.12 13.34 193.96 13.47 C 194.30 13.20 194.98 12.64 195.32 12.37 L 195.80 11.97 C 195.32 16.94 196.26 21.90 196.25 26.87 C 196.35 39.24 196.27 51.61 196.32 63.99 C 196.37 66.93 196.04 69.86 195.62 72.77 C 195.32 71.23 195.04 69.68 194.77 68.12 C 190.04 69.78 185.19 71.05 180.31 72.19 C 180.67 72.64 181.04 73.09 181.41 73.55 C 179.20 74.56 177.27 76.08 176.57 78.50 C 174.08 74.87 171.77 71.13 169.61 67.30 C 173.50 62.96 175.35 56.62 180.94 54.03 C 182.22 54.79 183.01 53.47 183.92 52.86 C 183.36 52.55 182.24 51.93 181.68 51.62 C 178.52 49.65 174.92 51.24 171.63 51.85 C 171.63 52.21 171.64 52.94 171.64 53.31 L 171.68 54.20 C 171.85 54.64 172.21 55.51 172.38 55.95 C 169.71 59.46 167.52 63.31 164.91 66.87 C 164.89 62.54 164.09 57.71 167.32 54.23 C 164.50 54.61 161.69 55.11 158.90 55.68 C 158.99 55.92 159.18 56.41 159.27 56.66 C 159.19 64.89 159.42 73.12 159.18 81.35 C 158.09 80.46 157.00 79.58 155.94 78.66 C 154.90 76.80 153.77 75.00 152.64 73.20 C 154.43 70.40 156.66 67.46 156.33 63.93 C 156.36 60.37 153.99 56.20 149.97 56.46 C 146.36 56.66 141.67 55.23 139.02 58.43 C 139.03 58.68 139.05 59.19 139.05 59.44 C 139.41 65.87 139.78 72.34 139.05 78.76 C 135.40 73.05 134.63 66.09 131.63 60.08 C 131.02 58.99 129.99 58.24 129.14 57.36 C 128.87 58.06 128.33 59.47 128.05 60.18 C 126.64 63.90 125.45 67.69 123.93 71.37 C 122.54 67.05 123.36 60.83 118.19 58.91 C 113.99 57.95 109.60 58.58 105.34 58.57 C 105.25 58.96 105.09 59.75 105.01 60.14 C 105.00 60.35 104.99 60.76 104.99 60.97 C 104.95 68.71 104.83 76.45 104.97 84.19 C 104.99 84.49 105.01 85.10 105.03 85.41 L 105.24 86.63 C 108.14 86.88 111.05 86.78 113.94 86.61 C 112.97 83.25 112.23 79.82 112.00 76.32 C 116.22 75.66 119.65 73.14 122.70 70.30 C 121.86 75.24 119.50 79.68 117.80 84.35 L 117.38 85.33 C 119.67 85.28 121.96 85.22 124.25 85.15 C 123.94 84.56 123.32 83.38 123.01 82.79 C 123.75 80.78 124.46 78.78 125.17 76.77 C 127.23 76.69 129.29 76.62 131.35 76.54 C 132.47 79.32 133.90 82.18 133.33 85.27 C 137.47 84.98 141.62 85.14 145.76 85.25 C 141.87 86.66 137.44 84.96 133.65 86.56 L 134.07 87.98 C 137.34 88.33 140.62 88.39 143.91 88.50 C 138.95 89.14 134.02 88.36 129.08 88.10 C 123.62 88.97 118.05 88.66 112.61 89.65 C 107.87 89.93 103.11 89.88 98.37 89.74 C 95.26 89.13 92.11 88.69 88.94 88.85 C 82.98 89.06 77.02 88.51 71.06 88.74 C 72.47 88.18 73.87 87.60 75.27 87.01 C 76.51 86.52 77.72 85.97 78.98 85.54 C 81.74 87.00 84.89 86.68 87.90 86.59 C 87.82 86.11 87.67 85.16 87.59 84.68 L 87.25 84.37 C 86.77 83.94 85.80 83.06 85.32 82.63 C 85.25 80.06 85.22 77.49 85.25 74.93 C 88.53 74.75 89.80 78.08 91.20 80.42 C 91.79 82.97 93.52 85.01 95.83 86.19 C 98.51 86.89 101.30 86.76 104.04 86.66 C 104.24 81.92 98.64 81.14 95.70 78.72 C 95.45 78.41 94.97 77.78 94.72 77.47 C 94.39 76.38 94.06 75.28 93.76 74.17 C 95.79 71.46 97.34 68.24 96.48 64.76 C 96.20 64.47 95.66 63.88 95.38 63.59 C 91.45 58.35 84.35 60.09 78.72 59.39 L 79.14 60.32 C 79.05 67.19 80.50 74.37 78.55 81.04 C 75.69 81.93 71.90 83.87 69.21 81.79 C 68.60 78.75 68.92 75.63 68.86 72.55 C 71.22 72.68 73.57 72.82 75.93 72.93 C 76.06 72.17 76.32 70.65 76.45 69.89 C 73.93 69.86 71.40 69.85 68.88 69.86 C 68.84 67.08 68.82 64.30 68.79 61.51 C 71.29 61.85 73.80 62.19 76.30 62.53 C 76.54 61.46 76.77 60.38 77.00 59.31 C 71.85 59.49 66.76 58.53 61.63 58.24 C 60.52 57.48 59.40 56.57 57.99 56.57 C 53.99 56.26 50.01 55.71 46.17 54.55 C 45.57 55.27 45.12 56.07 44.80 56.95 C 45.52 59.52 46.58 62.02 46.47 64.77 C 44.90 62.67 43.34 60.54 41.31 58.86 C 39.01 56.77 36.67 54.47 33.56 53.72 C 29.53 52.75 25.45 52.02 21.38 51.29 C 21.40 51.55 21.45 52.06 21.47 52.32 C 22.34 60.51 22.31 68.73 22.23 76.95 C 22.18 78.77 21.73 80.55 21.24 82.29 C 21.06 78.10 21.36 73.54 19.21 69.76 C 15.67 66.53 10.31 66.54 6.70 63.33 C 5.93 66.39 5.66 69.55 5.80 72.71 L 5.84 73.68 C 5.86 74.23 5.90 75.33 5.92 75.89 C 5.45 72.94 5.10 69.97 5.07 66.98 C 4.72 52.65 5.00 38.31 4.86 23.97 C 4.83 20.84 5.01 17.72 5.26 14.61 L 5.68 14.58 C 6.62 15.37 7.51 16.20 8.41 17.03 C 8.79 16.52 9.54 15.52 9.92 15.01 C 10.23 15.20 10.85 15.59 11.16 15.79 C 10.18 17.78 8.67 19.42 7.41 21.22 C 7.28 23.55 8.06 25.88 7.66 28.22 C 9.30 28.38 10.95 28.26 12.58 28.00 C 12.87 26.13 13.18 24.26 13.50 22.39 C 12.80 21.90 12.09 21.42 11.39 20.93 C 12.55 19.55 13.55 18.06 14.36 16.46 L 14.83 16.54 C 15.43 17.28 15.99 18.05 16.56 18.82 C 16.80 18.05 17.28 16.49 17.52 15.71 C 19.25 17.44 20.63 19.47 21.42 21.80 C 21.67 21.74 22.18 21.62 22.44 21.56 C 23.69 22.96 24.90 24.41 26.10 25.85 C 26.19 25.13 26.37 23.68 26.46 22.95 C 27.08 23.44 28.34 24.41 28.97 24.90 C 29.09 24.05 29.34 22.37 29.46 21.53 C 30.01 21.66 30.56 21.81 31.10 21.96 C 31.34 22.76 31.57 23.55 31.81 24.35 C 32.40 24.33 32.98 24.30 33.57 24.28 L 33.22 22.90 L 34.51 23.23 C 37.27 25.88 37.71 30.16 41.30 32.09 C 42.11 31.76 42.92 31.44 43.73 31.11 C 44.46 32.17 45.20 33.22 45.87 34.31 C 44.54 34.43 43.21 34.55 41.89 34.67 C 41.05 37.31 40.35 40.00 39.80 42.72 C 40.98 43.47 42.15 44.25 43.40 44.89 C 44.66 44.61 44.41 42.99 44.87 42.05 C 46.04 42.03 47.22 42.02 48.39 42.01 C 48.77 44.72 50.22 47.25 53.32 46.86 C 53.95 47.26 54.59 47.66 55.22 48.07 C 55.60 47.82 56.35 47.32 56.73 47.07 C 56.64 46.51 56.46 45.39 56.37 44.83 C 56.90 44.72 57.97 44.50 58.51 44.39 C 58.64 43.02 58.78 41.65 58.93 40.29 C 60.96 41.65 61.44 44.02 61.91 46.25 C 62.32 45.54 62.73 44.84 63.14 44.13 C 65.36 47.89 69.28 42.91 71.74 45.68 C 72.42 45.54 73.09 45.40 73.77 45.26 C 76.19 47.09 79.01 48.25 82.05 48.55 C 83.37 48.82 84.70 49.06 86.03 49.28 C 86.68 49.93 87.33 50.58 87.97 51.23 C 88.67 51.17 90.06 51.04 90.76 50.98 C 93.00 52.91 95.78 53.09 98.50 52.14 C 96.02 47.97 94.57 43.37 92.80 38.88 C 94.53 40.23 96.25 41.59 97.93 43.00 C 96.93 40.91 95.90 38.84 94.82 36.80 C 96.47 35.35 98.19 33.98 99.82 32.51 C 99.88 33.13 99.99 34.35 100.05 34.97 C 101.51 34.24 102.97 33.52 104.44 32.80 C 104.41 34.03 104.39 35.27 104.37 36.51 C 103.84 36.96 102.78 37.87 102.25 38.32 C 101.66 39.05 101.10 39.82 100.54 40.58 C 101.29 40.35 102.79 39.89 103.54 39.67 C 104.01 41.52 104.46 43.38 104.89 45.24 C 105.34 43.69 105.76 42.13 106.35 40.63 C 109.73 41.49 112.82 43.17 115.97 44.61 C 114.89 48.12 115.53 51.69 116.71 55.09 C 118.28 53.99 119.83 52.85 121.43 51.80 C 122.55 51.70 123.67 51.60 124.80 51.51 C 125.32 51.13 126.35 50.37 126.87 49.99 C 128.27 50.69 129.67 51.38 131.08 52.06 C 131.59 50.59 132.10 49.11 132.61 47.64 C 134.64 46.67 136.56 45.51 138.38 44.19 C 138.53 45.82 138.68 47.45 138.83 49.09 C 139.21 46.73 139.52 44.33 140.56 42.16 L 142.12 41.39 C 142.27 42.34 142.56 44.23 142.70 45.17 C 141.52 46.24 140.91 47.71 140.57 49.24 C 143.51 48.40 146.30 47.08 148.69 45.17 C 147.57 45.22 146.45 45.28 145.33 45.34 C 144.99 44.99 144.31 44.29 143.97 43.94 C 144.22 42.76 144.48 41.58 144.74 40.40 C 144.83 40.02 145.01 39.25 145.10 38.86 C 145.30 39.16 145.71 39.75 145.91 40.05 C 146.76 41.35 147.63 42.64 148.49 43.95 C 148.27 42.27 148.19 40.57 148.65 38.92 C 148.85 38.43 149.25 37.45 149.44 36.96 L 150.25 37.04 C 150.47 37.90 150.72 38.75 151.00 39.60 C 152.30 39.10 153.49 38.33 154.51 37.37 L 154.68 37.01 C 155.51 35.30 156.46 33.67 157.43 32.05 C 158.07 32.61 158.72 33.17 159.36 33.73 C 160.79 32.75 162.21 31.77 163.65 30.80 C 163.59 29.97 163.53 29.14 163.48 28.31 C 164.32 27.53 165.18 26.76 166.07 26.03 C 166.54 25.81 167.49 25.38 167.97 25.16 C 167.68 26.42 167.39 27.68 167.09 28.94 C 167.70 27.88 168.33 26.82 168.97 25.77 C 169.51 25.09 170.04 24.40 170.58 23.71 L 170.89 23.74 C 171.28 24.51 172.05 26.05 172.43 26.81 C 172.94 26.36 173.95 25.45 174.46 24.99 C 174.58 26.04 174.70 27.09 174.82 28.14 C 176.19 26.52 177.75 25.06 179.50 23.85 C 179.68 23.64 180.04 23.21 180.22 22.99 C 181.34 21.50 182.45 20.00 183.63 18.54 C 183.85 19.56 184.31 21.58 184.53 22.60 C 185.17 21.51 185.80 20.41 186.43 19.32 C 187.23 19.71 188.03 20.10 188.84 20.49 C 188.99 17.96 189.12 15.38 188.46 12.90 Z" />
<path fill="#46c8f5" d=" M 63.00 22.98 C 70.94 17.54 80.42 15.21 89.75 13.48 C 90.57 14.41 91.44 15.30 92.32 16.19 C 90.96 16.30 89.60 16.40 88.25 16.52 C 87.29 16.62 86.33 16.74 85.38 16.88 C 84.85 16.96 83.80 17.12 83.27 17.20 C 82.21 17.39 81.17 17.61 80.13 17.87 C 79.82 17.99 79.19 18.23 78.88 18.35 C 78.18 18.62 77.47 18.87 76.77 19.12 L 76.09 19.34 C 75.60 19.49 74.60 19.79 74.10 19.94 L 73.12 20.24 C 71.94 20.53 70.63 20.83 69.93 21.93 C 67.22 24.66 63.38 29.10 59.18 27.16 C 60.34 25.67 61.45 24.08 63.00 22.98 Z" />
<path fill="#a9e0fa" d=" M 93.71 16.07 C 93.88 15.79 94.23 15.23 94.40 14.94 C 95.53 15.35 96.36 16.10 96.87 17.20 C 95.61 17.41 94.56 17.03 93.71 16.07 Z" />
<path fill="#c2e9fb" d=" M 97.30 17.15 C 99.47 16.62 101.65 16.15 103.83 15.65 C 103.18 16.29 101.89 17.58 101.24 18.22 C 99.81 18.61 98.57 17.65 97.30 17.15 Z" />
<path fill="#85d8f6" d=" M 108.20 15.08 C 109.07 15.42 109.95 15.75 110.84 16.06 C 110.46 16.39 109.71 17.06 109.33 17.39 C 109.43 17.73 109.62 18.41 109.71 18.74 C 107.57 19.37 105.30 20.06 103.10 19.20 C 102.97 19.47 102.70 20.01 102.57 20.28 C 102.24 19.76 101.58 18.73 101.24 18.22 C 103.95 18.22 106.09 16.54 108.20 15.08 Z" />
<path fill="#01dcfc" d=" M 193.16 15.31 C 196.50 15.44 191.69 18.32 193.16 15.31 Z" />
<path fill="#016ebb" d=" M 7.41 21.22 C 8.67 19.42 10.18 17.78 11.16 15.79 C 12.19 16.15 13.29 16.28 14.36 16.46 C 13.55 18.06 12.55 19.55 11.39 20.93 C 12.09 21.42 12.80 21.90 13.50 22.39 C 13.18 24.26 12.87 26.13 12.58 28.00 C 10.95 28.26 9.30 28.38 7.66 28.22 C 8.06 25.88 7.28 23.55 7.41 21.22 Z" />
<path fill="#3e6da7" d=" M 85.38 16.88 C 86.33 16.74 87.29 16.62 88.25 16.52 C 88.24 17.52 88.21 19.52 88.20 20.52 C 86.48 20.01 85.83 18.46 85.38 16.88 Z" />
<path fill="#b0e3fb" d=" M 88.25 16.52 C 89.60 16.40 90.96 16.30 92.32 16.19 C 93.01 16.88 93.73 17.56 94.46 18.22 C 94.54 18.27 94.71 18.36 94.80 18.40 C 95.53 18.57 97.00 18.90 97.73 19.07 C 97.34 19.51 96.55 20.41 96.16 20.85 C 91.56 23.27 86.28 23.73 81.53 25.77 C 81.21 25.87 80.56 26.06 80.24 26.15 C 75.36 27.48 71.04 30.86 65.73 30.28 C 65.26 30.29 64.33 30.32 63.86 30.33 C 63.42 29.97 62.54 29.23 62.09 28.86 C 61.06 28.55 60.03 28.27 59.02 27.91 C 58.86 27.52 58.53 26.72 58.36 26.33 L 59.18 27.16 C 63.38 29.10 67.22 24.66 69.93 21.93 C 70.32 22.93 70.99 23.68 71.94 24.17 C 72.57 22.94 72.82 21.57 73.12 20.24 L 74.10 19.94 C 75.11 20.97 76.12 21.98 77.14 22.99 C 78.00 21.56 78.57 19.99 78.88 18.35 C 79.19 18.23 79.82 17.99 80.13 17.87 C 80.48 18.91 80.83 19.95 81.17 20.98 C 82.40 20.73 83.64 20.49 84.87 20.24 C 84.33 19.23 83.80 18.22 83.27 17.20 C 83.80 17.12 84.85 16.96 85.38 16.88 C 85.83 18.46 86.48 20.01 88.20 20.52 C 88.21 19.52 88.24 17.52 88.25 16.52 Z" />
<path fill="#22237c" d=" M 109.33 17.39 C 109.71 17.06 110.46 16.39 110.84 16.06 C 111.95 16.43 113.06 16.77 114.19 17.09 C 113.26 17.89 113.04 18.76 113.55 19.71 C 115.14 20.56 115.58 18.18 114.80 17.24 L 115.83 17.46 L 116.18 18.54 L 116.30 18.97 L 116.69 18.92 L 116.78 18.47 C 117.41 17.97 118.04 17.46 118.66 16.95 C 118.30 17.78 117.56 19.42 117.20 20.24 C 118.49 19.55 119.75 18.80 120.98 18.00 C 121.22 18.99 121.46 19.98 121.70 20.97 C 121.23 20.89 120.27 20.72 119.79 20.63 C 117.73 20.15 115.60 20.35 113.52 20.53 C 112.25 19.94 110.96 19.37 109.71 18.74 C 109.62 18.41 109.43 17.73 109.33 17.39 Z" />
<path fill="#396faa" d=" M 80.13 17.87 C 81.17 17.61 82.21 17.39 83.27 17.20 C 83.80 18.22 84.33 19.23 84.87 20.24 C 83.64 20.49 82.40 20.73 81.17 20.98 C 80.83 19.95 80.48 18.91 80.13 17.87 Z" />
<path fill="#c2e9fb" d=" M 111.34 17.05 C 114.63 17.50 109.63 19.99 111.34 17.05 Z" />
<path fill="#85d8f6" d=" M 114.19 17.09 L 114.80 17.24 C 115.58 18.18 115.14 20.56 113.55 19.71 C 113.04 18.76 113.26 17.89 114.19 17.09 Z" />
<path fill="#00005b" d=" M 76.77 19.12 C 77.47 18.87 78.18 18.62 78.88 18.35 C 78.57 19.99 78.00 21.56 77.14 22.99 C 76.12 21.98 75.11 20.97 74.10 19.94 C 74.60 19.79 75.60 19.49 76.09 19.34 C 75.32 20.63 77.95 22.67 77.87 20.49 C 77.59 20.14 77.04 19.46 76.77 19.12 Z" />
<path fill="#fdffff" d=" M 94.46 18.22 C 94.54 18.27 94.71 18.36 94.80 18.40 C 94.71 18.36 94.54 18.27 94.46 18.22 Z" />
<path fill="#fdffff" d=" M 116.18 18.54 L 116.78 18.47 L 116.69 18.92 L 116.30 18.97 L 116.18 18.54 Z" />
<path fill="#85d8f6" d=" M 76.09 19.34 L 76.77 19.12 C 77.04 19.46 77.59 20.14 77.87 20.49 C 77.95 22.67 75.32 20.63 76.09 19.34 Z" />
<path fill="#a9e0fa" d=" M 102.57 20.28 C 102.70 20.01 102.97 19.47 103.10 19.20 C 105.30 20.06 107.57 19.37 109.71 18.74 C 110.96 19.37 112.25 19.94 113.52 20.53 C 115.60 20.35 117.73 20.15 119.79 20.63 C 120.71 21.03 121.63 21.42 122.56 21.80 C 123.84 22.31 125.16 22.74 126.43 23.27 C 130.27 25.26 133.26 28.46 136.84 30.83 C 135.80 31.46 134.79 32.13 133.83 32.85 C 133.39 32.86 132.51 32.87 132.07 32.88 L 131.48 33.12 C 126.94 31.20 123.82 26.89 118.96 25.53 C 114.74 23.90 110.33 22.81 105.86 22.20 C 105.25 22.09 104.04 21.86 103.44 21.75 C 103.22 21.38 102.79 20.65 102.57 20.28 Z" />
<path fill="#22237c" d=" M 122.56 21.80 C 123.03 20.64 123.51 19.47 123.98 18.30 L 124.95 19.13 C 123.71 20.01 123.84 23.43 125.85 22.08 C 125.94 21.62 126.14 20.68 126.23 20.21 C 126.70 20.29 127.64 20.45 128.11 20.52 C 127.69 21.21 126.85 22.58 126.43 23.27 C 125.16 22.74 123.84 22.31 122.56 21.80 Z" />
<path fill="#45caf5" d=" M 124.95 19.13 C 125.27 19.40 125.91 19.94 126.23 20.21 C 126.14 20.68 125.94 21.62 125.85 22.08 C 123.84 23.43 123.71 20.01 124.95 19.13 Z" />
<path fill="#0178c2" d=" M 18.37 19.88 C 19.52 22.56 22.28 25.75 19.52 28.35 C 20.59 29.25 20.83 30.61 21.14 31.89 C 19.72 31.67 18.32 31.31 16.95 30.85 C 17.60 29.16 18.37 27.50 19.21 25.89 C 18.66 25.19 18.10 24.49 17.55 23.79 C 17.82 22.49 18.09 21.18 18.37 19.88 Z" />
<path fill="#315e9c" d=" M 69.93 21.93 C 70.63 20.83 71.94 20.53 73.12 20.24 C 72.82 21.57 72.57 22.94 71.94 24.17 C 70.99 23.68 70.32 22.93 69.93 21.93 Z" />
<path fill="#fdffff" d=" M 97.46 21.01 C 98.18 20.10 99.04 19.96 100.04 20.60 C 99.69 21.80 98.99 22.42 97.95 22.43 C 97.83 22.08 97.58 21.36 97.46 21.01 Z" />
<path fill="#00005b" d=" M 129.16 20.59 C 130.04 20.59 131.26 20.72 131.38 21.87 L 131.35 22.79 C 130.80 23.07 129.68 23.62 129.12 23.90 C 129.13 23.07 129.15 21.42 129.16 20.59 Z" />
<path fill="#4fc558" d=" M 23.53 21.30 C 25.50 21.05 27.51 21.14 29.46 21.53 C 29.34 22.37 29.09 24.05 28.97 24.90 C 28.34 24.41 27.08 23.44 26.46 22.95 C 26.37 23.68 26.19 25.13 26.10 25.85 C 24.90 24.41 23.69 22.96 22.44 21.56 L 23.53 21.30 Z" />
<path fill="#f8fdff" d=" M 81.53 25.77 C 86.28 23.73 91.56 23.27 96.16 20.85 C 94.47 23.62 93.50 26.76 93.06 29.96 C 93.00 30.30 92.88 30.98 92.82 31.32 C 92.34 33.81 91.28 36.51 92.80 38.88 C 94.57 43.37 96.02 47.97 98.50 52.14 C 95.78 53.09 93.00 52.91 90.76 50.98 C 90.06 51.04 88.67 51.17 87.97 51.23 C 87.33 50.58 86.68 49.93 86.03 49.28 C 84.70 49.06 83.37 48.82 82.05 48.55 C 85.10 48.48 88.14 48.68 91.17 49.02 C 90.46 47.04 89.58 45.12 88.41 43.37 C 88.64 42.94 89.11 42.08 89.34 41.65 C 87.72 40.61 86.05 39.66 84.37 38.73 C 82.96 37.88 81.64 36.90 80.28 35.98 C 77.71 34.52 75.07 33.21 72.55 31.67 C 70.96 31.54 69.36 31.38 67.79 31.07 C 67.33 31.03 66.40 30.95 65.94 30.91 L 65.73 30.28 C 71.04 30.86 75.36 27.48 80.24 26.15 C 79.59 27.61 79.88 28.71 81.11 29.45 C 82.33 28.51 82.47 27.28 81.53 25.77 Z" />
<path fill="#46c8f5" d=" M 96.70 21.85 C 96.89 21.64 97.27 21.22 97.46 21.01 C 97.58 21.36 97.83 22.08 97.95 22.43 C 98.99 22.42 99.69 21.80 100.04 20.60 L 101.42 21.31 C 100.90 23.80 98.51 24.47 96.35 24.97 C 96.77 25.30 97.62 25.96 98.04 26.30 L 96.31 26.09 C 96.06 27.00 95.55 28.83 95.29 29.75 C 96.93 29.34 98.57 28.96 100.22 28.58 C 100.43 29.35 100.64 30.13 100.85 30.90 C 99.78 31.19 98.73 31.53 97.64 31.74 C 97.33 31.20 97.01 30.68 96.67 30.16 C 96.37 31.07 95.76 32.91 95.46 33.82 C 94.80 33.20 93.48 31.94 92.82 31.32 C 92.88 30.98 93.00 30.30 93.06 29.96 C 93.43 30.48 94.19 31.51 94.56 32.02 C 95.08 28.60 95.53 25.13 96.70 21.85 Z" />
<path fill="#ffffff" d=" M 101.42 21.31 C 101.70 21.22 102.27 21.05 102.56 20.97 C 103.06 22.14 103.57 23.30 104.09 24.46 C 104.68 23.72 105.27 22.96 105.86 22.20 C 110.33 22.81 114.74 23.90 118.96 25.53 C 119.38 30.00 123.55 32.65 127.28 34.32 L 127.08 35.11 C 125.67 36.10 124.23 37.03 122.76 37.91 C 121.05 38.66 119.23 39.15 117.43 39.62 C 117.73 40.29 118.03 40.96 118.34 41.64 C 117.29 44.93 116.57 48.37 117.01 51.84 C 118.48 51.84 119.96 51.85 121.43 51.80 C 119.83 52.85 118.28 53.99 116.71 55.09 C 115.53 51.69 114.89 48.12 115.97 44.61 C 117.03 40.49 114.00 37.08 110.22 36.11 C 107.70 34.80 105.46 33.03 103.31 31.19 C 103.01 30.83 102.42 30.12 102.12 29.76 C 102.35 27.91 102.84 26.08 102.80 24.21 C 101.23 23.55 100.90 25.85 99.99 26.62 C 99.50 26.54 98.53 26.38 98.04 26.30 C 97.62 25.96 96.77 25.30 96.35 24.97 C 98.51 24.47 100.90 23.80 101.42 21.31 Z" />
<path fill="#45caf5" d=" M 128.11 20.52 L 129.16 20.59 C 129.15 21.42 129.13 23.07 129.12 23.90 C 129.68 23.62 130.80 23.07 131.35 22.79 L 132.04 22.60 C 132.07 23.51 132.13 25.35 132.16 26.26 C 132.85 25.89 134.22 25.15 134.91 24.77 C 136.34 26.58 137.88 28.31 139.14 30.25 L 138.83 31.41 C 138.33 31.27 137.34 30.98 136.84 30.83 C 133.26 28.46 130.27 25.26 126.43 23.27 C 126.85 22.58 127.69 21.21 128.11 20.52 Z" />
<path fill="#7bcb91" d=" M 163.39 24.99 C 165.54 23.64 167.76 22.38 170.10 21.38 C 170.77 21.71 171.45 22.03 172.13 22.35 C 174.80 20.90 177.65 21.75 180.22 22.99 C 180.04 23.21 179.68 23.64 179.50 23.85 C 177.75 25.06 176.19 26.52 174.82 28.14 C 174.70 27.09 174.58 26.04 174.46 24.99 C 173.95 25.45 172.94 26.36 172.43 26.81 C 172.05 26.05 171.28 24.51 170.89 23.74 L 170.58 23.71 C 170.45 23.58 170.20 23.30 170.07 23.16 C 169.73 23.50 169.05 24.17 168.71 24.51 C 168.52 24.67 168.15 25.00 167.97 25.16 C 167.49 25.38 166.54 25.81 166.07 26.03 C 165.40 25.77 164.06 25.25 163.39 24.99 Z" />
<path fill="#fff200" d=" M 31.10 21.96 C 33.06 22.53 35.09 22.85 37.14 22.98 C 36.48 23.04 35.17 23.17 34.51 23.23 L 33.22 22.90 L 33.57 24.28 C 32.98 24.30 32.40 24.33 31.81 24.35 C 31.57 23.55 31.34 22.76 31.10 21.96 Z" />
<path fill="#88cc81" d=" M 37.75 22.94 C 41.98 22.54 46.37 23.79 49.50 26.73 C 49.85 27.33 50.56 28.55 50.91 29.16 C 48.23 27.58 45.45 26.19 42.68 24.78 L 42.68 23.97 C 42.24 24.29 41.35 24.93 40.90 25.25 C 39.85 24.48 38.80 23.71 37.75 22.94 Z" />
<path fill="#1a78b3" d=" M 132.04 22.60 C 132.39 22.51 133.10 22.34 133.45 22.25 C 133.81 22.88 134.54 24.14 134.91 24.77 C 134.22 25.15 132.85 25.89 132.16 26.26 C 132.13 25.35 132.07 23.51 132.04 22.60 Z" />
<path fill="#41b972" d=" M 37.14 22.98 L 37.75 22.94 C 38.80 23.71 39.85 24.48 40.90 25.25 C 40.77 25.63 40.52 26.38 40.39 26.76 C 42.38 28.34 44.40 29.90 46.56 31.25 C 45.81 29.30 44.21 27.97 42.63 26.70 C 42.64 26.22 42.67 25.26 42.68 24.78 C 45.45 26.19 48.23 27.58 50.91 29.16 C 50.56 28.55 49.85 27.33 49.50 26.73 C 49.89 26.65 50.66 26.49 51.05 26.41 C 52.13 27.31 53.05 28.53 54.45 28.98 C 56.08 29.65 56.01 27.62 55.12 26.90 C 56.10 26.61 57.07 26.28 58.06 26.00 L 58.36 26.33 C 58.53 26.72 58.86 27.52 59.02 27.91 C 60.03 28.27 61.06 28.55 62.09 28.86 C 62.54 29.23 63.42 29.97 63.86 30.33 C 64.33 30.32 65.26 30.29 65.73 30.28 L 65.94 30.91 C 66.60 32.44 67.22 32.49 67.79 31.07 C 69.36 31.38 70.96 31.54 72.55 31.67 C 75.07 33.21 77.71 34.52 80.28 35.98 C 78.93 36.57 77.58 37.16 76.24 37.77 C 69.49 37.53 62.84 35.64 56.06 36.25 C 54.65 36.58 53.35 37.26 52.07 37.91 C 52.02 37.38 51.91 36.30 51.86 35.76 C 51.16 36.40 50.46 37.03 49.77 37.66 C 48.69 37.30 47.61 36.94 46.54 36.58 C 46.37 36.01 46.04 34.88 45.87 34.31 C 45.20 33.22 44.46 32.17 43.73 31.11 C 42.92 31.44 42.11 31.76 41.30 32.09 C 37.71 30.16 37.27 25.88 34.51 23.23 C 35.17 23.17 36.48 23.04 37.14 22.98 Z" />
<path fill="#fff200" d=" M 168.71 24.51 C 169.05 24.17 169.73 23.50 170.07 23.16 C 170.20 23.30 170.45 23.58 170.58 23.71 C 170.04 24.40 169.51 25.09 168.97 25.77 C 168.33 26.82 167.70 27.88 167.09 28.94 C 167.39 27.68 167.68 26.42 167.97 25.16 C 168.15 25.00 168.52 24.67 168.71 24.51 Z" />
<path fill="#028cd0" d=" M 182.47 23.28 C 182.83 24.37 183.19 25.46 183.55 26.56 C 183.07 26.95 182.10 27.73 181.62 28.12 C 182.38 30.29 184.31 32.55 182.94 34.88 C 182.29 34.27 181.66 33.66 181.03 33.05 C 180.61 34.16 180.62 35.66 179.25 36.08 C 179.76 33.92 181.10 31.83 180.66 29.55 C 180.10 27.27 181.67 25.29 182.47 23.28 Z" />
<path fill="#74c697" d=" M 40.90 25.25 C 41.35 24.93 42.24 24.29 42.68 23.97 L 42.68 24.78 C 42.67 25.26 42.64 26.22 42.63 26.70 C 44.21 27.97 45.81 29.30 46.56 31.25 C 44.40 29.90 42.38 28.34 40.39 26.76 C 40.52 26.38 40.77 25.63 40.90 25.25 Z" />
<path fill="#0047a0" d=" M 99.99 26.62 C 100.90 25.85 101.23 23.55 102.80 24.21 C 102.84 26.08 102.35 27.91 102.12 29.76 C 102.42 30.12 103.01 30.83 103.31 31.19 C 101.98 30.94 100.73 31.60 99.82 32.51 C 98.19 33.98 96.47 35.35 94.82 36.80 C 95.90 38.84 96.93 40.91 97.93 43.00 C 96.25 41.59 94.53 40.23 92.80 38.88 C 91.28 36.51 92.34 33.81 92.82 31.32 C 93.48 31.94 94.80 33.20 95.46 33.82 C 95.76 32.91 96.37 31.07 96.67 30.16 C 97.01 30.68 97.33 31.20 97.64 31.74 C 98.73 31.53 99.78 31.19 100.85 30.90 C 100.64 30.13 100.43 29.35 100.22 28.58 C 98.57 28.96 96.93 29.34 95.29 29.75 C 95.55 28.83 96.06 27.00 96.31 26.09 L 98.04 26.30 C 98.53 26.38 99.50 26.54 99.99 26.62 Z" />
<path fill="#4dbb74" d=" M 161.41 26.07 C 162.08 25.73 162.74 25.36 163.39 24.99 C 164.06 25.25 165.40 25.77 166.07 26.03 C 165.18 26.76 164.32 27.53 163.48 28.31 C 163.53 29.14 163.59 29.97 163.65 30.80 C 162.21 31.77 160.79 32.75 159.36 33.73 C 158.72 33.17 158.07 32.61 157.43 32.05 C 156.46 33.67 155.51 35.30 154.68 37.01 C 153.21 36.86 151.72 36.95 150.25 37.04 L 149.44 36.96 C 143.36 35.72 136.56 36.92 132.46 41.93 C 131.01 41.58 129.55 41.22 128.10 40.87 C 128.61 38.88 129.13 36.89 129.78 34.94 C 130.20 34.49 131.05 33.58 131.48 33.12 L 132.07 32.88 C 132.50 34.31 133.08 34.30 133.83 32.85 C 134.79 32.13 135.80 31.46 136.84 30.83 C 137.34 30.98 138.33 31.27 138.83 31.41 L 139.14 30.25 C 139.58 29.82 140.48 28.97 140.92 28.55 C 141.99 29.26 143.06 29.98 144.13 30.70 C 144.99 30.78 146.71 30.95 147.57 31.04 C 147.72 31.38 148.00 32.08 148.14 32.43 C 149.35 31.68 150.56 30.95 151.78 30.24 C 152.27 30.35 153.24 30.57 153.72 30.69 C 156.31 29.21 158.75 27.45 161.41 26.07 Z" />
<path fill="#9fd773" d=" M 51.05 26.41 L 51.48 26.31 C 52.70 26.47 53.91 26.67 55.12 26.90 C 56.01 27.62 56.08 29.65 54.45 28.98 C 53.05 28.53 52.13 27.31 51.05 26.41 Z" />
<path fill="#7584b4" d=" M 80.24 26.15 C 80.56 26.06 81.21 25.87 81.53 25.77 C 82.47 27.28 82.33 28.51 81.11 29.45 C 79.88 28.71 79.59 27.61 80.24 26.15 Z" />
<path fill="#22237c" d=" M 83.50 26.07 C 85.31 26.80 85.10 28.64 83.96 29.88 C 83.78 28.61 83.62 27.34 83.50 26.07 Z" />
<path fill="#0a1377" d=" M 86.58 26.18 C 88.24 24.25 89.63 28.01 87.88 28.82 C 86.43 29.28 85.89 27.11 86.58 26.18 Z" />
<path fill="#0a1377" d=" M 107.59 26.01 C 107.84 26.61 108.34 27.81 108.60 28.40 C 109.80 28.06 110.56 27.29 110.87 26.09 C 111.20 26.95 111.54 27.80 111.87 28.66 C 110.27 28.73 108.66 28.79 107.05 28.84 C 107.19 28.13 107.45 26.72 107.59 26.01 Z" />
<path fill="#8b93bd" d=" M 113.22 26.27 C 114.72 25.09 115.52 27.88 114.39 28.68 C 112.92 30.06 112.11 27.07 113.22 26.27 Z" />
<path fill="#8791bc" d=" M 116.26 26.34 C 117.81 25.22 118.81 28.14 117.65 29.05 C 116.00 30.40 115.04 27.27 116.26 26.34 Z" />
<path fill="#e0f3fe" d=" M 118.96 25.53 C 123.82 26.89 126.94 31.20 131.48 33.12 C 131.05 33.58 130.20 34.49 129.78 34.94 L 128.90 35.34 C 128.49 35.08 127.68 34.57 127.28 34.32 C 123.55 32.65 119.38 30.00 118.96 25.53 Z" />
<path fill="#fff200" d=" M 153.99 30.15 C 156.26 28.44 158.56 26.64 161.41 26.07 C 158.75 27.45 156.31 29.21 153.72 30.69 C 153.24 30.57 152.27 30.35 151.78 30.24 C 150.56 30.95 149.35 31.68 148.14 32.43 C 148.00 32.08 147.72 31.38 147.57 31.04 C 146.71 30.95 144.99 30.78 144.13 30.70 C 143.06 29.98 141.99 29.26 140.92 28.55 C 141.18 28.47 141.68 28.31 141.93 28.23 C 142.99 28.92 144.01 29.66 145.05 30.38 C 146.50 30.59 147.95 30.82 149.39 31.09 C 150.26 30.50 151.13 29.90 152.00 29.31 C 152.50 29.52 153.49 29.94 153.99 30.15 Z" />
<path fill="#0164b2" d=" M 183.84 29.58 C 186.23 27.48 189.14 26.13 192.24 25.49 C 192.58 29.92 188.49 32.42 184.70 33.22 C 184.78 31.83 185.47 30.88 186.75 30.35 C 185.78 30.10 184.81 29.84 183.84 29.58 Z" />
<path fill="#0176c1" d=" M 23.26 29.38 C 24.91 28.74 26.80 31.82 24.83 32.62 C 23.51 32.47 22.82 30.50 23.26 29.38 Z" />
<path fill="#017bc5" d=" M 26.99 30.41 C 29.73 30.85 32.45 30.45 34.92 29.18 C 34.06 30.24 33.21 31.31 32.37 32.39 C 32.51 33.03 32.80 34.30 32.94 34.94 C 31.64 36.20 29.43 35.50 27.76 35.80 C 28.09 35.00 28.42 34.20 28.75 33.40 C 28.16 32.41 27.57 31.41 26.99 30.41 Z" />
<path fill="#bbe471" d=" M 62.09 28.86 C 62.54 29.23 63.42 29.97 63.86 30.33 C 63.42 29.97 62.54 29.23 62.09 28.86 Z" />
<path fill="#b9de67" d=" M 65.94 30.91 C 66.40 30.95 67.33 31.03 67.79 31.07 C 67.22 32.49 66.60 32.44 65.94 30.91 Z" />
<path fill="#c2e9fb" d=" M 99.82 32.51 C 100.73 31.60 101.98 30.94 103.31 31.19 C 103.61 33.10 101.00 33.14 99.82 32.51 Z" />
<path fill="#3ba4dd" d=" M 103.31 31.19 C 105.46 33.03 107.70 34.80 110.22 36.11 C 107.74 37.25 105.10 39.97 102.25 38.32 C 102.78 37.87 103.84 36.96 104.37 36.51 C 104.39 35.27 104.41 34.03 104.44 32.80 C 102.97 33.52 101.51 34.24 100.05 34.97 C 99.99 34.35 99.88 33.13 99.82 32.51 C 101.00 33.14 103.61 33.10 103.31 31.19 Z" />
<path fill="#0178c3" d=" M 166.08 31.11 C 168.62 32.27 171.35 32.84 174.12 33.10 C 173.55 33.89 172.98 34.68 172.41 35.48 C 172.64 36.36 172.87 37.25 173.10 38.14 C 171.33 38.27 169.55 38.21 168.09 37.09 C 168.24 36.17 168.39 35.25 168.55 34.33 C 167.73 33.26 166.91 32.18 166.08 31.11 Z" />
<path fill="#8fca52" d=" M 132.07 32.88 C 132.51 32.87 133.39 32.86 133.83 32.85 C 133.08 34.30 132.50 34.31 132.07 32.88 Z" />
<path fill="#017ec7" d=" M 175.49 33.10 C 176.89 32.67 177.36 33.16 176.93 34.57 C 175.53 35.00 175.05 34.51 175.49 33.10 Z" />
<path fill="#0165b3" d=" M 41.89 34.67 C 43.21 34.55 44.54 34.43 45.87 34.31 C 46.04 34.88 46.37 36.01 46.54 36.58 C 47.61 36.94 48.69 37.30 49.77 37.66 C 50.46 37.03 51.16 36.40 51.86 35.76 C 51.91 36.30 52.02 37.38 52.07 37.91 L 52.17 38.92 L 53.56 38.85 C 52.76 39.98 52.49 41.36 52.16 42.67 C 52.55 42.63 53.31 42.55 53.70 42.51 C 54.33 43.34 55.15 43.90 56.16 44.19 L 56.37 44.83 C 56.46 45.39 56.64 46.51 56.73 47.07 C 56.35 47.32 55.60 47.82 55.22 48.07 C 54.59 47.66 53.95 47.26 53.32 46.86 C 50.22 47.25 48.77 44.72 48.39 42.01 C 47.22 42.02 46.04 42.03 44.87 42.05 C 44.41 42.99 44.66 44.61 43.40 44.89 C 42.15 44.25 40.98 43.47 39.80 42.72 C 40.35 40.00 41.05 37.31 41.89 34.67 Z" />
<path fill="#fff200" d=" M 127.28 34.32 C 127.68 34.57 128.49 35.08 128.90 35.34 C 128.44 35.28 127.53 35.17 127.08 35.11 L 127.28 34.32 Z" />
<path fill="#0278c3" d=" M 163.32 34.30 C 164.80 34.46 164.05 36.90 162.90 37.08 C 161.40 36.88 162.21 34.54 163.32 34.30 Z" />
<path fill="#9bd2ad" d=" M 122.76 37.91 C 124.23 37.03 125.67 36.10 127.08 35.11 C 127.53 35.17 128.44 35.28 128.90 35.34 L 129.78 34.94 C 129.13 36.89 128.61 38.88 128.10 40.87 C 127.37 41.13 125.90 41.65 125.16 41.91 C 124.96 41.98 124.55 42.12 124.35 42.18 C 123.82 40.76 123.29 39.34 122.76 37.91 Z" />
<path fill="#00b4f1" d=" M 52.07 37.91 C 53.35 37.26 54.65 36.58 56.06 36.25 C 62.84 35.64 69.49 37.53 76.24 37.77 C 78.06 39.66 80.27 41.49 83.04 40.35 L 82.72 40.82 C 82.22 41.73 81.74 42.65 81.28 43.58 C 79.12 44.14 76.93 44.60 74.71 44.76 C 68.51 43.41 62.38 41.85 56.53 39.37 C 56.16 39.27 55.42 39.06 55.06 38.96 C 54.68 38.93 53.93 38.88 53.56 38.85 L 52.17 38.92 L 52.07 37.91 Z" />
<path fill="#83ca96" d=" M 80.28 35.98 C 81.64 36.90 82.96 37.88 84.37 38.73 C 84.04 39.13 83.38 39.94 83.04 40.35 C 80.27 41.49 78.06 39.66 76.24 37.77 C 77.58 37.16 78.93 36.57 80.28 35.98 Z" />
<path fill="#2297d4" d=" M 110.22 36.11 C 114.00 37.08 117.03 40.49 115.97 44.61 C 112.82 43.17 109.73 41.49 106.35 40.63 C 105.76 42.13 105.34 43.69 104.89 45.24 C 104.46 43.38 104.01 41.52 103.54 39.67 C 102.79 39.89 101.29 40.35 100.54 40.58 C 101.10 39.82 101.66 39.05 102.25 38.32 C 105.10 39.97 107.74 37.25 110.22 36.11 Z" />
<path fill="#00baf4" d=" M 132.46 41.93 C 136.56 36.92 143.36 35.72 149.44 36.96 C 149.25 37.45 148.85 38.43 148.65 38.92 C 147.75 39.33 146.83 39.70 145.91 40.05 C 145.71 39.75 145.30 39.16 145.10 38.86 C 145.01 39.25 144.83 40.02 144.74 40.40 C 144.38 40.51 143.68 40.72 143.32 40.83 C 143.02 40.97 142.42 41.25 142.12 41.39 L 140.56 42.16 C 137.56 43.60 134.52 44.95 131.55 46.43 C 129.91 46.43 128.28 46.42 126.65 46.42 C 126.15 44.92 125.65 43.42 125.16 41.91 C 125.90 41.65 127.37 41.13 128.10 40.87 C 129.55 41.22 131.01 41.58 132.46 41.93 Z" />
<path fill="#12b5e3" d=" M 150.25 37.04 C 151.72 36.95 153.21 36.86 154.68 37.01 L 154.51 37.37 C 153.49 38.33 152.30 39.10 151.00 39.60 C 150.72 38.75 150.47 37.90 150.25 37.04 Z" />
<path fill="#cae8cc" d=" M 117.43 39.62 C 119.23 39.15 121.05 38.66 122.76 37.91 C 123.29 39.34 123.82 40.76 124.35 42.18 C 123.09 42.58 121.82 42.96 120.55 43.33 C 120.00 42.91 118.89 42.06 118.34 41.64 C 118.03 40.96 117.73 40.29 117.43 39.62 Z" />
<path fill="#0169b7" d=" M 156.19 41.80 C 156.33 39.85 157.70 38.50 159.12 37.30 C 160.01 39.65 160.72 42.05 161.19 44.52 C 159.97 45.07 158.82 45.75 157.74 46.54 C 156.94 46.29 156.14 46.04 155.34 45.79 C 155.87 45.04 156.41 44.29 156.95 43.54 C 155.60 43.33 154.26 43.12 152.91 42.92 C 153.30 41.94 153.70 40.97 154.09 40.00 C 154.79 40.60 155.49 41.20 156.19 41.80 Z" />
<path fill="#00a1e2" d=" M 35.25 39.25 C 35.75 39.79 35.75 39.79 35.25 39.25 Z" />
<path fill="#a9e0fa" d=" M 53.56 38.85 C 53.93 38.88 54.68 38.93 55.06 38.96 C 55.04 40.28 54.59 41.47 53.70 42.51 C 53.31 42.55 52.55 42.63 52.16 42.67 C 52.49 41.36 52.76 39.98 53.56 38.85 Z" />
<path fill="#0047a0" d=" M 55.06 38.96 C 55.42 39.06 56.16 39.27 56.53 39.37 C 56.72 40.99 56.64 42.62 56.16 44.19 C 55.15 43.90 54.33 43.34 53.70 42.51 C 54.59 41.47 55.04 40.28 55.06 38.96 Z" />
<path fill="#c2e9fb" d=" M 56.53 39.37 C 62.38 41.85 68.51 43.41 74.71 44.76 C 78.05 45.91 81.43 47.26 85.03 47.15 C 86.45 46.24 86.34 44.48 86.62 43.02 C 87.07 43.10 87.96 43.28 88.41 43.37 C 89.58 45.12 90.46 47.04 91.17 49.02 C 88.14 48.68 85.10 48.48 82.05 48.55 C 79.01 48.25 76.19 47.09 73.77 45.26 C 73.09 45.40 72.42 45.54 71.74 45.68 C 69.28 42.91 65.36 47.89 63.14 44.13 C 62.73 44.84 62.32 45.54 61.91 46.25 C 61.44 44.02 60.96 41.65 58.93 40.29 C 58.78 41.65 58.64 43.02 58.51 44.39 C 57.97 44.50 56.90 44.72 56.37 44.83 L 56.16 44.19 C 56.64 42.62 56.72 40.99 56.53 39.37 Z" />
<path fill="#c8e4c7" d=" M 84.37 38.73 C 86.05 39.66 87.72 40.61 89.34 41.65 C 89.11 42.08 88.64 42.94 88.41 43.37 C 87.96 43.28 87.07 43.10 86.62 43.02 C 85.29 42.34 84.00 41.58 82.72 40.82 L 83.04 40.35 C 83.38 39.94 84.04 39.13 84.37 38.73 Z" />
<path fill="#a9e0fa" d=" M 145.91 40.05 C 146.83 39.70 147.75 39.33 148.65 38.92 C 148.19 40.57 148.27 42.27 148.49 43.95 C 147.63 42.64 146.76 41.35 145.91 40.05 Z" />
<path fill="#c2e9fb" d=" M 143.32 40.83 C 143.68 40.72 144.38 40.51 144.74 40.40 C 144.48 41.58 144.22 42.76 143.97 43.94 C 143.65 44.25 143.02 44.86 142.70 45.17 C 142.56 44.23 142.27 42.34 142.12 41.39 C 142.42 41.25 143.02 40.97 143.32 40.83 Z" />
<path fill="#0195db" d=" M 168.19 40.25 C 168.72 40.74 168.72 40.74 168.19 40.25 Z" />
<path fill="#85d8f6" d=" M 81.28 43.58 C 81.74 42.65 82.22 41.73 82.72 40.82 C 84.00 41.58 85.29 42.34 86.62 43.02 C 86.34 44.48 86.45 46.24 85.03 47.15 C 81.43 47.26 78.05 45.91 74.71 44.76 C 76.93 44.60 79.12 44.14 81.28 43.58 Z" />
<path fill="#02a8ea" d=" M 165.26 41.23 C 165.79 41.75 165.79 41.75 165.26 41.23 Z" />
<path fill="#e0f3fe" d=" M 118.34 41.64 C 118.89 42.06 120.00 42.91 120.55 43.33 C 120.38 45.30 118.69 47.86 120.12 49.58 C 123.59 49.91 127.01 49.01 130.41 48.44 C 130.70 47.94 131.26 46.93 131.55 46.43 C 134.52 44.95 137.56 43.60 140.56 42.16 C 139.52 44.33 139.21 46.73 138.83 49.09 C 138.68 47.45 138.53 45.82 138.38 44.19 C 136.56 45.51 134.64 46.67 132.61 47.64 C 132.10 49.11 131.59 50.59 131.08 52.06 C 129.67 51.38 128.27 50.69 126.87 49.99 C 126.35 50.37 125.32 51.13 124.80 51.51 C 123.67 51.60 122.55 51.70 121.43 51.80 C 119.96 51.85 118.48 51.84 117.01 51.84 C 116.57 48.37 117.29 44.93 118.34 41.64 Z" />
<path fill="#81d5f7" d=" M 124.35 42.18 C 124.55 42.12 124.96 41.98 125.16 41.91 C 125.65 43.42 126.15 44.92 126.65 46.42 C 128.28 46.42 129.91 46.43 131.55 46.43 C 131.26 46.93 130.70 47.94 130.41 48.44 C 127.01 49.01 123.59 49.91 120.12 49.58 C 118.69 47.86 120.38 45.30 120.55 43.33 C 121.82 42.96 123.09 42.58 124.35 42.18 Z" />
<path fill="#0a77c1" d=" M 143.97 43.94 C 144.31 44.29 144.99 44.99 145.33 45.34 C 146.45 45.28 147.57 45.22 148.69 45.17 C 146.30 47.08 143.51 48.40 140.57 49.24 C 140.91 47.71 141.52 46.24 142.70 45.17 C 143.02 44.86 143.65 44.25 143.97 43.94 Z" />
<path fill="#0179c3" d=" M 149.18 47.96 C 149.55 46.23 150.05 44.49 151.14 43.05 C 151.41 43.76 151.95 45.17 152.22 45.88 C 151.84 47.23 150.20 47.33 149.18 47.96 Z" />
<path fill="#ffffff" d=" M 97.79 45.47 C 98.95 45.38 99.79 46.27 100.73 46.82 C 100.76 49.13 100.84 51.45 100.74 53.76 C 99.07 51.26 99.84 47.83 97.79 45.47 Z" />
<path fill="#018fd5" d=" M 58.24 46.09 C 59.66 45.59 60.08 46.06 59.52 47.49 C 58.11 47.99 57.68 47.52 58.24 46.09 Z" />
<path fill="#eef8ff" d=" M 103.91 47.80 C 105.81 48.52 107.82 48.54 109.82 48.23 C 111.21 50.05 112.67 51.81 114.19 53.53 C 111.72 52.73 109.26 53.41 106.96 54.34 C 105.45 53.98 103.90 53.77 102.36 53.63 C 102.86 51.68 103.38 49.74 103.91 47.80 Z" />
<path fill="#136fb9" d=" M 135.34 48.05 C 137.47 47.19 136.72 50.89 135.11 50.72 C 133.67 50.44 134.15 48.36 135.34 48.05 Z" />
<path fill="#22237c" d=" M 171.63 51.85 C 174.92 51.24 178.52 49.65 181.68 51.62 C 181.49 52.22 181.12 53.43 180.94 54.03 C 175.35 56.62 173.50 62.96 169.61 67.30 C 171.77 71.13 174.08 74.87 176.57 78.50 C 178.97 80.63 181.62 82.49 183.71 84.95 C 181.97 86.84 179.39 87.51 176.90 86.99 C 171.31 86.66 169.23 80.64 166.24 76.85 C 166.37 79.64 167.02 82.36 168.19 84.89 C 167.65 85.61 167.12 86.34 166.60 87.08 C 162.85 86.81 159.04 87.19 155.33 86.50 C 151.17 85.10 149.41 80.70 146.94 77.47 C 146.69 79.53 146.46 81.60 146.22 83.66 L 145.01 82.79 C 144.73 79.98 144.81 77.15 144.79 74.33 C 145.28 74.24 146.25 74.05 146.73 73.96 C 149.16 77.59 150.66 82.15 154.32 84.75 C 158.43 85.86 162.88 85.42 167.05 84.75 C 163.23 81.45 165.32 76.02 164.83 71.66 C 168.59 75.93 170.21 81.90 175.06 85.23 C 176.63 86.68 179.46 86.94 180.89 85.17 C 181.18 84.88 181.75 84.32 182.04 84.03 C 174.69 81.27 172.69 72.87 167.82 67.46 C 171.91 62.05 175.11 55.92 180.49 51.62 C 177.49 51.89 174.55 52.57 171.64 53.31 C 171.64 52.94 171.63 52.21 171.63 51.85 Z" />
<path fill="#ffffff" d=" M 21.38 51.29 C 25.45 52.02 29.53 52.75 33.56 53.72 C 36.67 54.47 39.01 56.77 41.31 58.86 C 46.04 65.79 46.14 75.66 40.75 82.27 C 35.37 87.18 27.75 84.66 21.24 85.03 C 21.87 83.96 22.51 82.90 23.16 81.84 C 23.46 73.56 23.34 65.26 23.30 56.97 C 23.49 55.17 22.31 53.77 21.47 52.32 C 21.45 52.06 21.40 51.55 21.38 51.29 Z" />
<path fill="#ffffff" d=" M 171.64 53.31 C 174.55 52.57 177.49 51.89 180.49 51.62 C 175.11 55.92 171.91 62.05 167.82 67.46 C 172.69 72.87 174.69 81.27 182.04 84.03 C 181.75 84.32 181.18 84.88 180.89 85.17 C 178.96 84.89 176.96 84.67 175.06 85.23 C 170.21 81.90 168.59 75.93 164.83 71.66 C 165.32 76.02 163.23 81.45 167.05 84.75 C 162.88 85.42 158.43 85.86 154.32 84.75 C 150.66 82.15 149.16 77.59 146.73 73.96 C 146.25 74.05 145.28 74.24 144.79 74.33 C 144.81 77.15 144.73 79.98 145.01 82.79 L 146.22 83.66 C 146.52 83.88 147.12 84.32 147.42 84.54 C 147.00 84.72 146.17 85.07 145.76 85.25 C 141.62 85.14 137.47 84.98 133.33 85.27 C 133.90 82.18 132.47 79.32 131.35 76.54 C 129.29 76.62 127.23 76.69 125.17 76.77 C 124.46 78.78 123.75 80.78 123.01 82.79 C 123.32 83.38 123.94 84.56 124.25 85.15 C 121.96 85.22 119.67 85.28 117.38 85.33 L 117.80 84.35 C 121.54 81.00 122.01 75.74 123.93 71.37 C 125.45 67.69 126.64 63.90 128.05 60.18 C 128.32 59.64 128.84 58.55 129.10 58.01 C 131.85 62.04 132.72 66.98 134.61 71.43 C 136.44 75.64 137.07 80.51 140.09 84.12 C 140.70 77.43 140.32 70.70 140.46 64.00 C 140.69 62.31 140.01 60.78 139.05 59.44 C 139.05 59.19 139.03 58.68 139.02 58.43 C 143.28 57.82 147.85 56.46 152.06 57.81 C 157.13 61.26 155.01 69.21 150.86 72.63 C 152.58 75.24 154.34 77.83 156.17 80.37 C 157.10 82.00 158.54 83.20 160.27 83.89 C 160.58 77.27 160.49 70.64 160.61 64.02 C 160.55 61.52 161.10 58.71 159.27 56.66 C 159.18 56.41 158.99 55.92 158.90 55.68 C 161.69 55.11 164.50 54.61 167.32 54.23 C 164.09 57.71 164.89 62.54 164.91 66.87 C 167.52 63.31 169.71 59.46 172.38 55.95 C 172.21 55.51 171.85 54.64 171.68 54.20 L 171.64 53.31 Z" />
<path fill="#eef8ff" d=" M 181.68 51.62 C 182.24 51.93 183.36 52.55 183.92 52.86 C 183.01 53.47 182.22 54.79 180.94 54.03 C 181.12 53.43 181.49 52.22 181.68 51.62 Z" />
<path fill="#002e8c" d=" M 21.47 52.32 C 22.31 53.77 23.49 55.17 23.30 56.97 C 23.34 65.26 23.46 73.56 23.16 81.84 C 22.51 82.90 21.87 83.96 21.24 85.03 L 20.47 85.02 C 20.66 84.33 21.05 82.97 21.24 82.29 C 21.73 80.55 22.18 78.77 22.23 76.95 C 22.31 68.73 22.34 60.51 21.47 52.32 Z" />
<path fill="#0a1377" d=" M 46.17 54.55 C 50.01 55.71 53.99 56.26 57.99 56.57 C 59.40 56.57 60.52 57.48 61.63 58.24 C 62.57 59.73 64.10 61.08 64.12 62.96 C 64.35 68.30 64.24 73.64 64.25 78.98 C 64.35 80.84 63.78 82.62 62.92 84.25 C 61.46 85.39 60.10 87.13 58.04 86.91 C 54.42 86.96 50.77 87.06 47.18 86.61 C 46.90 86.31 46.34 85.69 46.06 85.39 C 50.65 84.98 55.29 85.91 59.84 85.21 C 60.44 84.08 60.93 82.90 61.47 81.74 C 62.67 80.80 63.82 79.73 63.51 78.04 C 63.28 72.21 64.38 66.12 62.29 60.52 C 61.21 61.17 60.14 61.83 59.06 62.48 C 57.12 62.29 55.17 62.11 53.22 61.92 C 53.37 63.67 53.52 65.41 53.67 67.15 C 56.64 67.16 61.37 67.56 60.93 71.67 C 59.31 74.55 55.94 73.01 53.47 72.51 C 53.30 75.67 54.04 79.09 52.44 81.99 C 52.16 78.50 52.23 75.00 52.22 71.50 C 54.55 71.78 56.89 72.07 59.23 72.32 C 59.32 71.43 59.51 69.66 59.60 68.77 C 57.13 68.72 54.65 68.68 52.17 68.65 C 52.20 65.80 52.19 62.95 52.14 60.10 C 54.65 60.52 57.17 60.94 59.69 61.35 C 59.83 60.44 60.13 58.63 60.28 57.72 C 56.47 57.73 52.68 57.27 48.94 56.53 C 47.84 56.58 46.29 55.72 45.46 56.74 C 45.65 58.33 47.52 59.24 47.31 60.93 C 47.44 65.13 47.30 69.32 47.35 73.52 C 45.24 77.14 43.85 81.36 40.39 84.00 L 40.75 82.27 C 46.14 75.66 46.04 65.79 41.31 58.86 C 43.34 60.54 44.90 62.67 46.47 64.77 C 46.58 62.02 45.52 59.52 44.80 56.95 C 45.12 56.07 45.57 55.27 46.17 54.55 Z" />
<path fill="#0056a7" d=" M 27.84 55.73 C 29.99 56.15 32.36 56.35 34.07 57.88 C 40.00 62.84 41.03 71.99 37.97 78.80 C 36.43 82.29 30.60 83.97 28.08 80.89 C 27.58 72.52 27.77 64.11 27.84 55.73 Z" />
<path fill="#fdffff" d=" M 45.46 56.74 C 46.29 55.72 47.84 56.58 48.94 56.53 C 52.68 57.27 56.47 57.73 60.28 57.72 C 60.13 58.63 59.83 60.44 59.69 61.35 C 57.17 60.94 54.65 60.52 52.14 60.10 C 52.19 62.95 52.20 65.80 52.17 68.65 C 54.65 68.68 57.13 68.72 59.60 68.77 C 59.51 69.66 59.32 71.43 59.23 72.32 C 56.89 72.07 54.55 71.78 52.22 71.50 C 52.23 75.00 52.16 78.50 52.44 81.99 C 54.34 82.34 56.26 82.49 58.19 82.53 C 58.88 81.82 59.57 81.12 60.26 80.42 C 60.56 80.75 61.16 81.41 61.47 81.74 C 60.93 82.90 60.44 84.08 59.84 85.21 C 55.29 85.91 50.65 84.98 46.06 85.39 L 46.00 83.87 C 48.05 82.20 47.48 79.48 47.28 77.18 C 47.30 76.27 47.33 74.44 47.35 73.52 C 47.30 69.32 47.44 65.13 47.31 60.93 C 47.52 59.24 45.65 58.33 45.46 56.74 Z" />
<path fill="#0a1377" d=" M 139.02 58.43 C 141.67 55.23 146.36 56.66 149.97 56.46 C 153.99 56.20 156.36 60.37 156.33 63.93 C 156.66 67.46 154.43 70.40 152.64 73.20 C 153.77 75.00 154.90 76.80 155.94 78.66 L 156.17 80.37 C 154.34 77.83 152.58 75.24 150.86 72.63 C 155.01 69.21 157.13 61.26 152.06 57.81 C 147.85 56.46 143.28 57.82 139.02 58.43 Z" />
<path fill="#ffffff" d=" M 61.63 58.24 C 66.76 58.53 71.85 59.49 77.00 59.31 C 76.77 60.38 76.54 61.46 76.30 62.53 C 73.80 62.19 71.29 61.85 68.79 61.51 C 68.82 64.30 68.84 67.08 68.88 69.86 C 71.40 69.85 73.93 69.86 76.45 69.89 C 76.32 70.65 76.06 72.17 75.93 72.93 C 73.57 72.82 71.22 72.68 68.86 72.55 C 68.92 75.63 68.60 78.75 69.21 81.79 C 71.90 83.87 75.69 81.93 78.55 81.04 C 77.72 82.48 77.50 84.51 76.00 85.43 C 71.65 85.62 67.30 85.15 62.95 85.36 L 62.92 84.25 C 63.78 82.62 64.35 80.84 64.25 78.98 C 64.24 73.64 64.35 68.30 64.12 62.96 C 64.10 61.08 62.57 59.73 61.63 58.24 Z" />
<path fill="#0a1377" d=" M 105.34 58.57 C 109.60 58.58 113.99 57.95 118.19 58.91 C 123.36 60.83 122.54 67.05 123.93 71.37 C 122.01 75.74 121.54 81.00 117.80 84.35 C 119.50 79.68 121.86 75.24 122.70 70.30 C 119.65 73.14 116.22 75.66 112.00 76.32 C 112.23 79.82 112.97 83.25 113.94 86.61 C 111.05 86.78 108.14 86.88 105.24 86.63 L 105.03 85.41 C 107.81 85.37 110.64 85.52 113.35 84.81 C 109.81 82.41 110.98 78.05 110.80 74.42 C 116.87 75.51 123.58 69.36 121.20 63.16 C 117.94 57.27 110.33 60.44 105.01 60.14 C 105.09 59.75 105.25 58.96 105.34 58.57 Z" />
<path fill="#0a1377" d=" M 128.05 60.18 C 128.33 59.47 128.87 58.06 129.14 57.36 C 129.99 58.24 131.02 58.99 131.63 60.08 C 134.63 66.09 135.40 73.05 139.05 78.76 C 139.78 72.34 139.41 65.87 139.05 59.44 C 140.01 60.78 140.69 62.31 140.46 64.00 C 140.32 70.70 140.70 77.43 140.09 84.12 C 137.07 80.51 136.44 75.64 134.61 71.43 C 132.72 66.98 131.85 62.04 129.10 58.01 C 128.84 58.55 128.32 59.64 128.05 60.18 Z" />
<path fill="#002e8c" d=" M 159.27 56.66 C 161.10 58.71 160.55 61.52 160.61 64.02 C 160.49 70.64 160.58 77.27 160.27 83.89 C 158.54 83.20 157.10 82.00 156.17 80.37 L 155.94 78.66 C 157.00 79.58 158.09 80.46 159.18 81.35 C 159.42 73.12 159.19 64.89 159.27 56.66 Z" />
<path fill="#fdffff" d=" M 105.01 60.14 C 110.33 60.44 117.94 57.27 121.20 63.16 C 123.58 69.36 116.87 75.51 110.80 74.42 C 110.98 78.05 109.81 82.41 113.35 84.81 C 110.64 85.52 107.81 85.37 105.03 85.41 C 105.01 85.10 104.99 84.49 104.97 84.19 C 105.33 83.67 106.05 82.64 106.41 82.13 C 106.29 75.79 106.70 69.42 106.27 63.10 C 105.95 62.57 105.31 61.50 104.99 60.97 C 104.99 60.76 105.00 60.35 105.01 60.14 Z" />
<path fill="#ffffff" d=" M 78.72 59.39 C 84.35 60.09 91.45 58.35 95.38 63.59 C 96.38 67.49 94.86 71.34 91.95 73.97 C 92.88 75.12 93.82 76.29 94.72 77.47 C 94.97 77.78 95.45 78.41 95.70 78.72 C 97.00 80.22 98.11 82.04 99.98 82.92 C 101.05 83.69 102.94 83.71 103.01 85.43 C 100.97 85.45 98.91 85.54 96.88 85.30 C 94.30 84.73 92.78 82.33 91.20 80.42 C 89.80 78.08 88.53 74.75 85.25 74.93 C 85.22 77.49 85.25 80.06 85.32 82.63 C 85.80 83.06 86.77 83.94 87.25 84.37 C 85.08 86.35 81.66 84.95 78.98 85.54 C 79.68 83.77 80.68 82.03 80.57 80.06 C 80.58 74.69 80.59 69.31 80.53 63.94 C 80.65 62.56 79.72 61.47 79.14 60.32 L 78.72 59.39 Z" />
<path fill="#00005b" d=" M 145.24 60.09 C 146.82 60.32 148.76 60.31 149.26 62.23 L 147.75 62.14 L 147.36 62.11 L 145.91 62.01 C 145.84 65.23 146.01 68.45 146.61 71.61 C 146.17 71.51 145.29 71.30 144.85 71.19 C 145.33 67.51 145.10 63.79 145.24 60.09 Z" />
<path fill="#0059a8" d=" M 59.06 62.48 C 60.14 61.83 61.21 61.17 62.29 60.52 C 64.38 66.12 63.28 72.21 63.51 78.04 C 63.82 79.73 62.67 80.80 61.47 81.74 C 61.16 81.41 60.56 80.75 60.26 80.42 C 59.57 81.12 58.88 81.82 58.19 82.53 C 56.26 82.49 54.34 82.34 52.44 81.99 C 54.04 79.09 53.30 75.67 53.47 72.51 C 55.94 73.01 59.31 74.55 60.93 71.67 C 61.37 67.56 56.64 67.16 53.67 67.15 C 53.52 65.41 53.37 63.67 53.22 61.92 C 55.17 62.11 57.12 62.29 59.06 62.48 Z" />
<path fill="#0a1377" d=" M 79.14 60.32 C 79.72 61.47 80.65 62.56 80.53 63.94 C 80.59 69.31 80.58 74.69 80.57 80.06 C 80.68 82.03 79.68 83.77 78.98 85.54 C 77.72 85.97 76.51 86.52 75.27 87.01 C 71.25 87.02 67.23 86.89 63.22 86.72 C 63.15 86.38 63.02 85.70 62.95 85.36 C 67.30 85.15 71.65 85.62 76.00 85.43 C 77.50 84.51 77.72 82.48 78.55 81.04 C 80.50 74.37 79.05 67.19 79.14 60.32 Z" />
<path fill="#00005b" d=" M 85.29 62.14 C 88.53 61.88 90.79 64.22 91.58 67.17 C 90.16 65.53 88.59 63.91 86.36 63.50 C 86.52 66.31 86.28 69.24 87.23 71.94 C 89.10 71.37 89.94 69.27 91.12 67.87 C 90.76 69.52 90.06 71.05 88.99 72.37 C 87.76 72.46 86.52 72.50 85.29 72.47 C 85.38 69.03 85.33 65.58 85.29 62.14 Z" />
<path fill="#083595" d=" M 104.99 60.97 C 105.31 61.50 105.95 62.57 106.27 63.10 C 106.70 69.42 106.29 75.79 106.41 82.13 C 106.05 82.64 105.33 83.67 104.97 84.19 C 104.83 76.45 104.95 68.71 104.99 60.97 Z" />
<path fill="#00005b" d=" M 111.35 62.19 C 113.20 62.14 115.03 62.63 116.32 64.02 L 115.12 63.91 C 114.39 63.85 112.94 63.74 112.21 63.68 L 112.18 64.65 C 112.16 67.36 111.01 70.69 113.50 72.69 C 112.69 72.73 111.87 72.78 111.06 72.84 C 111.44 69.30 110.73 65.69 111.35 62.19 Z" />
<path fill="#002e8c" d=" M 145.91 62.01 L 147.36 62.11 C 146.69 64.21 146.69 66.47 147.29 68.59 C 148.82 66.75 148.54 64.23 147.75 62.14 L 149.26 62.23 C 151.70 64.55 150.64 70.73 146.61 71.61 C 146.01 68.45 145.84 65.23 145.91 62.01 Z" />
<path fill="#006ab6" d=" M 147.36 62.11 L 147.75 62.14 C 148.54 64.23 148.82 66.75 147.29 68.59 C 146.69 66.47 146.69 64.21 147.36 62.11 Z" />
<path fill="#006ab6" d=" M 6.70 63.33 C 10.31 66.54 15.67 66.53 19.21 69.76 C 21.36 73.54 21.06 78.10 21.24 82.29 C 21.05 82.97 20.66 84.33 20.47 85.02 L 21.24 85.03 C 27.75 84.66 35.37 87.18 40.75 82.27 L 40.39 84.00 C 43.85 81.36 45.24 77.14 47.35 73.52 C 47.33 74.44 47.30 76.27 47.28 77.18 C 45.90 79.14 45.54 81.54 46.00 83.87 L 46.06 85.39 C 46.34 85.69 46.90 86.31 47.18 86.61 C 50.77 87.06 54.42 86.96 58.04 86.91 C 60.10 87.13 61.46 85.39 62.92 84.25 L 62.95 85.36 C 63.02 85.70 63.15 86.38 63.22 86.72 C 67.23 86.89 71.25 87.02 75.27 87.01 C 73.87 87.60 72.47 88.18 71.06 88.74 C 77.02 88.51 82.98 89.06 88.94 88.85 C 92.11 88.69 95.26 89.13 98.37 89.74 C 82.49 91.04 66.56 88.74 50.67 89.96 C 47.96 89.40 45.35 88.44 42.85 87.26 C 39.93 86.33 37.60 89.05 35.24 90.31 C 35.03 90.18 34.61 89.93 34.40 89.81 C 31.38 89.35 28.31 89.19 25.27 89.44 C 24.54 89.67 23.83 89.94 23.11 90.20 C 21.39 89.24 19.70 88.23 17.96 87.34 C 18.48 85.09 18.93 82.81 18.92 80.49 C 18.72 78.12 19.42 74.49 16.40 73.64 C 12.89 73.13 9.29 73.53 5.80 72.71 C 5.66 69.55 5.93 66.39 6.70 63.33 Z" />
<path fill="#005aa8" d=" M 86.36 63.50 C 88.59 63.91 90.16 65.53 91.58 67.17 L 91.12 67.87 C 89.94 69.27 89.10 71.37 87.23 71.94 C 86.28 69.24 86.52 66.31 86.36 63.50 Z" />
<path fill="#00005b" d=" M 95.38 63.59 C 95.66 63.88 96.20 64.47 96.48 64.76 C 97.34 68.24 95.79 71.46 93.76 74.17 C 94.06 75.28 94.39 76.38 94.72 77.47 C 93.82 76.29 92.88 75.12 91.95 73.97 C 94.86 71.34 96.38 67.49 95.38 63.59 Z" />
<path fill="#006ab6" d=" M 112.21 63.68 C 112.94 63.74 114.39 63.85 115.12 63.91 C 115.20 66.57 115.40 69.52 113.13 71.40 C 112.77 69.16 112.42 66.91 112.18 64.65 L 112.21 63.68 Z" />
<path fill="#002e8c" d=" M 115.12 63.91 L 116.32 64.02 C 118.63 67.11 116.75 71.21 113.50 72.69 C 111.01 70.69 112.16 67.36 112.18 64.65 C 112.42 66.91 112.77 69.16 113.13 71.40 C 115.40 69.52 115.20 66.57 115.12 63.91 Z" />
<path fill="#00005b" d=" M 127.82 68.65 C 128.25 68.19 128.68 67.73 129.11 67.27 C 129.18 69.41 129.44 71.55 130.51 73.45 C 129.08 73.68 127.66 73.94 126.25 74.26 C 126.74 72.38 127.30 70.52 127.82 68.65 Z" />
<path fill="#0366b2" d=" M 180.31 72.19 C 185.19 71.05 190.04 69.78 194.77 68.12 C 195.04 69.68 195.32 71.23 195.62 72.77 C 194.22 72.71 192.93 73.23 191.67 73.77 C 188.00 75.41 183.94 75.68 180.06 76.57 C 181.73 78.83 183.35 81.17 184.39 83.80 C 184.22 84.09 183.88 84.66 183.71 84.95 C 181.62 82.49 178.97 80.63 176.57 78.50 C 177.27 76.08 179.20 74.56 181.41 73.55 C 181.04 73.09 180.67 72.64 180.31 72.19 Z" />
<path fill="#028cd0" d=" M 191.67 73.77 C 192.93 73.23 194.22 72.71 195.62 72.77 C 195.04 79.59 195.51 86.44 195.22 93.27 C 194.81 93.45 193.98 93.80 193.57 93.97 C 193.49 92.22 193.41 90.47 193.29 88.73 C 190.15 87.83 186.96 88.77 183.95 89.69 L 183.64 89.52 C 183.17 89.24 182.21 88.67 181.74 88.39 C 179.80 88.19 177.86 88.21 175.93 88.20 C 176.56 89.06 177.20 89.92 177.84 90.78 C 176.34 90.63 174.85 90.48 173.36 90.31 L 173.97 90.09 C 176.17 90.21 174.94 87.14 173.61 89.11 C 173.37 89.22 172.89 89.44 172.65 89.55 C 172.16 87.91 169.63 88.29 170.25 90.12 L 169.55 90.07 C 169.46 88.40 167.57 87.12 166.49 88.92 L 165.41 88.99 C 165.70 88.51 166.30 87.56 166.60 87.08 C 167.12 86.34 167.65 85.61 168.19 84.89 C 167.02 82.36 166.37 79.64 166.24 76.85 C 169.23 80.64 171.31 86.66 176.90 86.99 C 179.39 87.51 181.97 86.84 183.71 84.95 C 183.88 84.66 184.22 84.09 184.39 83.80 C 183.35 81.17 181.73 78.83 180.06 76.57 C 183.94 75.68 188.00 75.41 191.67 73.77 Z" />
<path fill="#308bcc" d=" M 5.80 72.71 C 9.29 73.53 12.89 73.13 16.40 73.64 C 19.42 74.49 18.72 78.12 18.92 80.49 C 14.13 79.13 9.97 76.35 5.84 73.68 L 5.80 72.71 Z" />
<path fill="#9ac2e1" d=" M 126.25 74.26 C 127.66 73.94 129.08 73.68 130.51 73.45 L 131.01 73.37 C 131.23 73.75 131.67 74.51 131.89 74.89 C 129.82 74.78 127.75 74.63 125.70 74.38 L 126.25 74.26 Z" />
<path fill="#0093d8" d=" M 5.84 73.68 C 9.97 76.35 14.13 79.13 18.92 80.49 C 18.93 82.81 18.48 85.09 17.96 87.34 C 13.92 85.72 9.92 83.97 6.21 81.69 C 6.20 81.23 6.17 80.30 6.16 79.84 C 10.19 80.15 13.79 82.29 17.74 82.78 C 17.73 82.57 17.73 82.15 17.73 81.94 C 13.89 79.74 9.72 78.17 5.92 75.89 C 5.90 75.33 5.86 74.23 5.84 73.68 Z" />
<path fill="#8dc2eb" d=" M 5.92 75.89 C 9.72 78.17 13.89 79.74 17.73 81.94 C 17.73 82.15 17.73 82.57 17.74 82.78 C 13.79 82.29 10.19 80.15 6.16 79.84 C 6.12 78.52 6.04 77.20 5.92 75.89 Z" />
<path fill="#0a1377" d=" M 46.00 83.87 C 45.54 81.54 45.90 79.14 47.28 77.18 C 47.48 79.48 48.05 82.20 46.00 83.87 Z" />
<path fill="#0366b3" d=" M 146.94 77.47 C 149.41 80.70 151.17 85.10 155.33 86.50 C 159.04 87.19 162.85 86.81 166.60 87.08 C 166.30 87.56 165.70 88.51 165.41 88.99 C 160.54 89.38 155.69 88.66 150.84 88.45 C 147.22 88.86 143.66 89.92 139.97 89.78 C 130.85 89.71 121.70 90.71 112.61 89.65 C 118.05 88.66 123.62 88.97 129.08 88.10 C 134.02 88.36 138.95 89.14 143.91 88.50 C 140.62 88.39 137.34 88.33 134.07 87.98 L 133.65 86.56 C 138.27 86.79 142.91 86.68 147.53 86.41 C 147.54 85.97 147.55 85.09 147.55 84.65 L 147.42 84.54 C 147.12 84.32 146.52 83.88 146.22 83.66 C 146.46 81.60 146.69 79.53 146.94 77.47 Z" />
<path fill="#0a1377" d=" M 95.70 78.72 C 98.64 81.14 104.24 81.92 104.04 86.66 C 101.30 86.76 98.51 86.89 95.83 86.19 C 98.33 86.34 100.83 86.34 103.34 86.32 L 103.01 85.43 C 102.94 83.71 101.05 83.69 99.98 82.92 C 98.11 82.04 97.00 80.22 95.70 78.72 Z" />
<path fill="#00005b" d=" M 91.20 80.42 C 92.78 82.33 94.30 84.73 96.88 85.30 C 98.91 85.54 100.97 85.45 103.01 85.43 L 103.34 86.32 C 100.83 86.34 98.33 86.34 95.83 86.19 C 93.52 85.01 91.79 82.97 91.20 80.42 Z" />
<path fill="#e0f3fe" d=" M 6.21 81.69 C 9.92 83.97 13.92 85.72 17.96 87.34 C 19.70 88.23 21.39 89.24 23.11 90.20 C 22.82 90.30 22.24 90.49 21.95 90.59 C 16.89 87.73 11.15 86.39 6.18 83.37 C 6.19 82.95 6.20 82.11 6.21 81.69 Z" />
<path fill="#009cdc" d=" M 6.18 83.37 C 11.15 86.39 16.89 87.73 21.95 90.59 C 22.24 90.49 22.82 90.30 23.11 90.20 C 23.83 89.94 24.54 89.67 25.27 89.44 C 29.62 93.18 35.79 92.95 40.28 96.34 C 38.43 96.42 36.57 96.48 34.72 96.52 C 39.05 98.15 43.28 100.11 47.81 101.11 C 50.63 101.76 53.49 102.24 56.37 102.55 C 50.52 103.60 44.52 102.73 39.28 99.91 C 39.35 100.50 39.49 101.68 39.56 102.27 C 37.62 100.58 35.81 98.42 33.08 98.14 C 27.14 97.30 22.32 93.56 17.05 91.04 C 20.33 93.36 23.18 96.24 26.43 98.60 C 29.37 99.42 32.62 99.21 35.28 100.91 C 28.78 101.64 23.12 98.33 17.11 96.60 C 17.85 99.73 21.38 100.03 23.85 101.15 C 28.96 102.78 34.02 106.24 39.60 104.63 C 44.32 103.79 49.07 105.26 53.81 104.70 C 57.57 104.19 61.32 105.27 65.07 104.77 C 71.42 103.82 77.62 106.19 83.99 105.78 C 80.19 104.39 76.32 103.19 72.54 101.77 L 71.80 101.01 C 72.93 101.01 74.07 101.02 75.21 101.04 C 80.12 103.65 85.77 104.46 91.27 104.66 C 88.94 103.71 86.61 102.78 84.33 101.72 C 88.67 100.87 92.85 102.48 96.82 104.03 C 96.12 103.43 95.43 102.83 94.73 102.24 C 97.40 102.12 100.07 101.77 102.65 101.06 C 113.57 100.26 124.52 101.16 135.46 101.05 L 134.76 102.29 C 128.78 102.79 122.80 102.53 116.89 101.47 C 112.17 102.18 107.42 102.91 102.62 103.24 C 105.90 104.04 109.28 104.27 112.63 104.59 C 116.64 104.93 120.25 106.82 124.03 108.02 C 122.74 106.84 121.43 105.69 120.12 104.54 C 126.33 105.32 132.31 103.64 138.26 102.18 C 140.62 102.01 142.99 101.92 145.36 102.04 C 140.72 103.26 135.89 103.99 131.51 106.02 C 135.03 106.51 138.48 105.58 141.86 104.77 C 146.22 105.50 150.85 106.83 155.04 104.69 C 153.65 104.14 152.27 103.59 150.87 103.09 C 153.46 102.73 155.98 101.99 158.50 101.33 C 166.88 101.78 175.11 99.87 183.20 97.97 C 185.04 97.54 186.94 97.54 188.82 97.55 L 190.15 98.07 C 187.85 99.52 185.49 100.89 183.23 102.41 C 185.64 102.71 187.89 101.75 190.06 100.83 C 189.74 101.46 189.10 102.71 188.78 103.34 C 190.93 103.61 193.08 103.85 195.24 104.09 C 195.26 106.16 195.29 108.22 195.33 110.29 C 177.56 114.90 159.24 116.83 141.05 119.02 C 106.92 121.70 72.38 121.56 38.48 116.34 C 40.37 115.69 42.24 114.99 44.12 114.31 C 36.77 112.63 29.19 112.09 21.97 109.78 C 17.38 108.44 12.99 106.45 8.32 105.35 C 7.98 106.19 7.64 107.03 7.30 107.87 C 6.84 106.49 6.37 105.11 5.93 103.72 C 5.85 100.42 5.87 97.12 5.87 93.82 C 9.25 95.33 12.45 97.48 16.18 97.98 C 13.17 95.41 9.57 93.70 5.85 92.42 C 5.78 89.40 5.97 86.38 6.18 83.37 Z" />
<path fill="#00005b" d=" M 87.25 84.37 L 87.59 84.68 C 87.67 85.16 87.82 86.11 87.90 86.59 C 84.89 86.68 81.74 87.00 78.98 85.54 C 81.66 84.95 85.08 86.35 87.25 84.37 Z" />
<path fill="#00005b" d=" M 147.42 84.54 L 147.55 84.65 C 147.55 85.09 147.54 85.97 147.53 86.41 C 142.91 86.68 138.27 86.79 133.65 86.56 C 137.44 84.96 141.87 86.66 145.76 85.25 C 146.17 85.07 147.00 84.72 147.42 84.54 Z" />
<path fill="#685192" d=" M 175.06 85.23 C 176.96 84.67 178.96 84.89 180.89 85.17 C 179.46 86.94 176.63 86.68 175.06 85.23 Z" />
<path fill="#0091d5" d=" M 35.24 90.31 C 37.60 89.05 39.93 86.33 42.85 87.26 C 42.65 87.69 42.27 88.57 42.07 89.01 C 44.46 89.95 46.86 90.88 49.34 91.57 C 48.52 92.00 47.71 92.44 46.90 92.89 C 45.32 92.71 43.74 93.40 42.77 94.66 C 42.38 94.38 41.58 93.84 41.19 93.56 C 39.11 92.65 37.14 91.54 35.24 90.31 Z" />
<path fill="#36a2dc" d=" M 42.07 89.01 C 42.27 88.57 42.65 87.69 42.85 87.26 C 45.35 88.44 47.96 89.40 50.67 89.96 L 51.81 91.46 C 51.19 91.49 49.96 91.54 49.34 91.57 C 46.86 90.88 44.46 89.95 42.07 89.01 Z" />
<path fill="#0376d6" d=" M 139.97 89.78 C 143.66 89.92 147.22 88.86 150.84 88.45 C 155.69 88.66 160.54 89.38 165.41 88.99 L 166.49 88.92 L 166.49 90.04 C 163.42 90.17 160.28 90.44 157.49 91.85 C 156.00 91.63 154.50 91.52 153.01 91.47 C 119.28 91.26 85.54 91.40 51.81 91.46 L 50.67 89.96 C 66.56 88.74 82.49 91.04 98.37 89.74 C 103.11 89.88 107.87 89.93 112.61 89.65 C 121.70 90.71 130.85 89.71 139.97 89.78 Z" />
<path fill="#23428f" d=" M 166.49 88.92 C 167.57 87.12 169.46 88.40 169.55 90.07 C 168.51 90.88 167.49 90.87 166.49 90.04 L 166.49 88.92 Z" />
<path fill="#163e8a" d=" M 170.25 90.12 C 169.63 88.29 172.16 87.91 172.65 89.55 C 172.05 89.69 170.85 89.98 170.25 90.12 Z" />
<path fill="#203182" d=" M 173.61 89.11 C 174.94 87.14 176.17 90.21 173.97 90.09 L 173.61 89.11 Z" />
<path fill="#14519b" d=" M 175.93 88.20 C 177.86 88.21 179.80 88.19 181.74 88.39 C 182.21 88.67 183.17 89.24 183.64 89.52 C 181.93 90.69 179.85 90.94 177.84 90.78 C 177.20 89.92 176.56 89.06 175.93 88.20 Z" />
<path fill="#85d8f6" d=" M 183.95 89.69 C 186.96 88.77 190.15 87.83 193.29 88.73 C 190.35 89.71 186.94 91.45 183.95 89.69 Z" />
<path fill="#94c0ea" d=" M 25.27 89.44 C 28.31 89.19 31.38 89.35 34.40 89.81 C 34.61 89.93 35.03 90.18 35.24 90.31 C 37.14 91.54 39.11 92.65 41.19 93.56 C 40.91 93.84 40.36 94.39 40.09 94.66 C 40.44 95.09 41.15 95.94 41.51 96.37 C 42.84 97.51 44.15 99.16 46.07 99.13 C 46.18 99.18 46.39 99.28 46.50 99.33 C 47.19 99.53 48.58 99.92 49.27 100.12 L 47.81 101.11 C 43.28 100.11 39.05 98.15 34.72 96.52 C 36.57 96.48 38.43 96.42 40.28 96.34 C 35.79 92.95 29.62 93.18 25.27 89.44 Z" />
<path fill="#8dc2eb" d=" M 172.65 89.55 C 172.89 89.44 173.37 89.22 173.61 89.11 L 173.97 90.09 L 173.36 90.31 C 171.11 91.10 168.86 91.88 166.60 92.61 C 171.79 93.28 176.90 94.89 182.20 94.40 C 176.11 96.41 169.84 94.23 163.61 95.07 C 163.36 94.42 162.85 93.13 162.59 92.49 C 161.96 92.50 160.70 92.52 160.06 92.54 C 159.42 92.37 158.13 92.02 157.49 91.85 C 160.28 90.44 163.42 90.17 166.49 90.04 C 167.49 90.87 168.51 90.88 169.55 90.07 L 170.25 90.12 C 170.85 89.98 172.05 89.69 172.65 89.55 Z" />
<path fill="#009cdd" d=" M 183.64 89.52 L 183.95 89.69 C 186.94 91.45 190.35 89.71 193.29 88.73 C 193.41 90.47 193.49 92.22 193.57 93.97 C 188.71 96.39 183.31 97.04 178.08 98.23 C 171.33 98.34 164.48 98.14 157.92 100.05 L 159.01 98.87 C 160.67 97.77 162.85 97.11 163.61 95.07 C 169.84 94.23 176.11 96.41 182.20 94.40 C 176.90 94.89 171.79 93.28 166.60 92.61 C 168.86 91.88 171.11 91.10 173.36 90.31 C 174.85 90.48 176.34 90.63 177.84 90.78 C 179.85 90.94 181.93 90.69 183.64 89.52 Z" />
<path fill="#60bcea" d=" M 7.28 90.42 C 8.64 89.70 11.36 91.19 10.83 92.83 C 9.47 93.50 6.75 92.05 7.28 90.42 Z" />
<path fill="#81c5ec" d=" M 17.05 91.04 C 22.32 93.56 27.14 97.30 33.08 98.14 C 35.81 98.42 37.62 100.58 39.56 102.27 C 39.49 101.68 39.35 100.50 39.28 99.91 C 44.52 102.73 50.52 103.60 56.37 102.55 C 61.76 102.27 67.14 101.72 72.54 101.77 C 76.32 103.19 80.19 104.39 83.99 105.78 C 77.62 106.19 71.42 103.82 65.07 104.77 C 61.32 105.27 57.57 104.19 53.81 104.70 C 49.07 105.26 44.32 103.79 39.60 104.63 C 38.17 103.37 36.77 102.09 35.28 100.91 C 32.62 99.21 29.37 99.42 26.43 98.60 C 23.18 96.24 20.33 93.36 17.05 91.04 Z" />
<path fill="#0a1377" d=" M 49.34 91.57 C 49.96 91.54 51.19 91.49 51.81 91.46 C 85.54 91.40 119.28 91.26 153.01 91.47 C 154.50 91.52 156.00 91.63 157.49 91.85 C 158.13 92.02 159.42 92.37 160.06 92.54 C 160.73 93.27 161.42 93.98 162.15 94.66 C 159.27 93.39 156.31 91.95 153.07 92.16 C 123.38 92.11 93.69 92.15 64.01 92.15 C 58.30 92.17 52.54 91.82 46.90 92.89 C 47.71 92.44 48.52 92.00 49.34 91.57 Z" />
<path fill="#fff200" d=" M 46.90 92.89 C 52.54 91.82 58.30 92.17 64.01 92.15 C 93.69 92.15 123.38 92.11 153.07 92.16 C 156.31 91.95 159.27 93.39 162.15 94.66 C 162.52 94.76 163.25 94.97 163.61 95.07 C 162.85 97.11 160.67 97.77 159.01 98.87 C 158.45 98.98 157.34 99.21 156.79 99.33 C 153.35 99.13 149.91 98.91 146.46 98.80 C 146.35 96.98 146.29 95.15 146.29 93.32 C 145.60 93.59 144.91 93.86 144.23 94.13 C 144.22 95.25 144.23 96.37 144.26 97.50 C 144.70 97.82 145.60 98.47 146.04 98.79 C 139.47 99.24 132.88 99.08 126.30 99.00 C 126.72 97.97 127.19 95.96 125.35 96.39 C 123.38 97.13 125.22 93.25 123.42 94.32 C 122.66 95.84 123.43 97.54 123.48 99.12 C 116.90 99.96 110.23 99.61 103.63 99.37 C 103.67 99.09 103.75 98.55 103.79 98.28 C 105.03 98.00 106.29 97.78 107.57 97.63 C 108.67 96.59 109.78 95.55 110.89 94.51 C 110.76 95.33 110.48 96.95 110.34 97.76 C 111.61 97.85 112.89 97.95 114.16 98.06 C 113.97 96.72 113.79 95.37 113.63 94.03 C 113.21 93.85 112.36 93.49 111.94 93.32 C 111.57 93.62 110.82 94.23 110.45 94.54 C 109.26 93.78 105.93 92.73 106.36 95.35 L 106.17 97.50 C 105.27 96.12 104.68 94.62 104.39 93.00 C 103.60 93.64 102.80 94.27 102.00 94.91 C 102.48 95.29 103.46 96.06 103.95 96.44 C 103.61 96.73 102.95 97.31 102.61 97.59 L 102.79 97.99 L 103.18 98.33 C 102.11 98.73 101.01 98.95 99.87 98.98 C 99.11 96.98 98.41 94.93 97.27 93.10 C 97.22 94.10 97.14 96.11 97.09 97.11 C 97.51 97.61 98.35 98.60 98.77 99.10 C 94.92 99.73 91.01 99.68 87.13 99.50 C 86.77 99.26 86.05 98.78 85.70 98.54 L 85.78 98.45 C 87.72 97.34 87.62 94.69 86.28 93.20 C 86.20 94.15 86.03 96.03 85.94 96.98 L 85.00 97.00 C 84.99 96.22 84.95 94.65 84.94 93.87 C 84.35 93.84 83.18 93.79 82.59 93.76 C 82.81 95.74 83.13 97.80 85.35 98.51 C 85.34 98.74 85.31 99.19 85.30 99.42 C 77.19 99.63 69.03 99.84 60.93 99.27 C 60.83 99.03 60.62 98.56 60.52 98.32 C 61.37 97.16 62.22 96.01 63.08 94.86 C 63.39 95.64 64.03 97.19 64.35 97.96 C 65.61 97.65 66.85 97.28 68.08 96.85 C 67.34 96.70 65.86 96.40 65.12 96.25 C 65.29 95.71 65.65 94.63 65.83 94.09 C 64.42 94.29 63.01 94.50 61.61 94.72 C 61.24 94.32 60.50 93.52 60.13 93.12 C 59.84 93.62 59.26 94.62 58.97 95.13 C 57.98 94.48 56.99 93.83 56.00 93.19 C 54.56 95.01 54.28 97.16 56.58 98.43 L 57.77 99.61 C 53.67 99.43 49.08 100.18 45.56 97.54 C 45.46 97.46 45.24 97.29 45.14 97.20 L 44.59 96.68 C 44.52 96.45 44.39 96.00 44.33 95.78 C 45.17 94.80 46.12 93.92 46.90 92.89 Z" />
<path fill="#00b0f0" d=" M 160.06 92.54 C 160.70 92.52 161.96 92.50 162.59 92.49 C 162.85 93.13 163.36 94.42 163.61 95.07 C 163.25 94.97 162.52 94.76 162.15 94.66 C 161.42 93.98 160.73 93.27 160.06 92.54 Z" />
<path fill="#8ec8ed" d=" M 5.85 92.42 C 9.57 93.70 13.17 95.41 16.18 97.98 C 12.45 97.48 9.25 95.33 5.87 93.82 L 5.85 92.42 Z" />
<path fill="#00005b" d=" M 42.77 94.66 C 43.74 93.40 45.32 92.71 46.90 92.89 C 46.12 93.92 45.17 94.80 44.33 95.78 C 44.39 96.00 44.52 96.45 44.59 96.68 C 44.12 96.39 43.17 95.80 42.70 95.51 L 42.77 94.66 Z" />
<path fill="#002e8c" d=" M 60.13 93.12 C 60.50 93.52 61.24 94.32 61.61 94.72 C 63.01 94.50 64.42 94.29 65.83 94.09 C 65.65 94.63 65.29 95.71 65.12 96.25 C 65.86 96.40 67.34 96.70 68.08 96.85 C 66.85 97.28 65.61 97.65 64.35 97.96 C 64.03 97.19 63.39 95.64 63.08 94.86 C 62.22 96.01 61.37 97.16 60.52 98.32 L 60.28 98.45 L 60.05 98.26 C 58.73 97.11 57.68 97.25 56.89 98.69 L 56.58 98.43 C 54.28 97.16 54.56 95.01 56.00 93.19 C 56.99 93.83 57.98 94.48 58.97 95.13 C 59.26 94.62 59.84 93.62 60.13 93.12 Z" />
<path fill="#002e8c" d=" M 79.13 93.51 C 80.05 93.60 80.97 93.69 81.89 93.78 C 81.43 95.32 81.90 97.36 80.43 98.44 C 80.11 96.76 79.74 95.10 79.13 93.51 Z" />
<path fill="#3c4e80" d=" M 102.00 94.91 C 102.80 94.27 103.60 93.64 104.39 93.00 C 104.68 94.62 105.27 96.12 106.17 97.50 L 106.36 95.35 C 105.93 92.73 109.26 93.78 110.45 94.54 C 110.82 94.23 111.57 93.62 111.94 93.32 C 112.36 93.49 113.21 93.85 113.63 94.03 C 113.79 95.37 113.97 96.72 114.16 98.06 C 112.89 97.95 111.61 97.85 110.34 97.76 C 110.48 96.95 110.76 95.33 110.89 94.51 C 109.78 95.55 108.67 96.59 107.57 97.63 C 106.29 97.78 105.03 98.00 103.79 98.28 L 103.18 98.33 L 102.79 97.99 L 102.61 97.59 C 102.95 97.31 103.61 96.73 103.95 96.44 C 103.46 96.06 102.48 95.29 102.00 94.91 Z" />
<path fill="#002e8c" d=" M 140.10 93.57 C 140.76 93.58 142.08 93.60 142.74 93.61 C 142.31 95.20 142.70 97.19 141.37 98.44 C 140.99 96.80 140.60 95.18 140.10 93.57 Z" />
<path fill="#002e8c" d=" M 144.23 94.13 C 144.91 93.86 145.60 93.59 146.29 93.32 C 146.29 95.15 146.35 96.98 146.46 98.80 C 146.36 98.80 146.15 98.79 146.04 98.79 C 145.60 98.47 144.70 97.82 144.26 97.50 C 144.23 96.37 144.22 95.25 144.23 94.13 Z" />
<path fill="#badef2" d=" M 40.09 94.66 C 40.36 94.39 40.91 93.84 41.19 93.56 C 41.58 93.84 42.38 94.38 42.77 94.66 L 42.70 95.51 C 42.40 95.73 41.81 96.15 41.51 96.37 C 41.15 95.94 40.44 95.09 40.09 94.66 Z" />
<path fill="#002e8c" d=" M 51.83 93.61 C 54.55 92.92 53.27 96.51 53.80 97.94 C 53.46 97.93 52.77 97.92 52.43 97.91 C 52.28 96.47 52.08 95.03 51.83 93.61 Z" />
<path fill="#002e8c" d=" M 70.03 93.34 C 70.98 94.02 71.91 94.73 72.82 95.46 C 73.03 94.93 73.44 93.87 73.65 93.33 C 73.63 95.00 73.69 96.66 73.81 98.33 C 72.86 97.52 71.92 96.71 70.97 95.91 C 70.96 96.42 70.94 97.45 70.93 97.97 L 69.94 98.04 C 70.33 96.48 70.36 94.92 70.03 93.34 Z" />
<path fill="#002e8c" d=" M 76.91 93.10 C 77.70 94.78 78.42 96.51 79.03 98.27 C 78.13 97.76 77.24 97.24 76.35 96.70 C 75.88 97.12 74.94 97.95 74.47 98.37 C 75.15 96.55 75.96 94.79 76.91 93.10 Z" />
<path fill="#515671" d=" M 82.59 93.76 C 83.18 93.79 84.35 93.84 84.94 93.87 C 84.95 94.65 84.99 96.22 85.00 97.00 L 85.94 96.98 C 86.03 96.03 86.20 94.15 86.28 93.20 C 87.62 94.69 87.72 97.34 85.78 98.45 L 85.70 98.54 L 85.35 98.51 C 83.13 97.80 82.81 95.74 82.59 93.76 Z" />
<path fill="#42447a" d=" M 88.28 93.73 C 89.51 93.76 90.74 93.81 91.97 93.90 C 91.71 94.74 91.18 96.42 90.91 97.26 C 92.61 96.42 93.68 95.03 94.14 93.09 C 95.30 94.64 96.06 96.42 96.35 98.34 C 93.90 96.54 90.95 98.25 88.17 97.91 C 88.32 96.52 88.35 95.13 88.28 93.73 Z" />
<path fill="#002e8c" d=" M 97.27 93.10 C 98.41 94.93 99.11 96.98 99.87 98.98 C 99.59 99.01 99.05 99.07 98.77 99.10 C 98.35 98.60 97.51 97.61 97.09 97.11 C 97.14 96.11 97.22 94.10 97.27 93.10 Z" />
<path fill="#3c4e80" d=" M 115.02 93.35 C 117.29 93.80 116.56 96.17 116.78 97.84 C 116.34 97.87 115.47 97.94 115.03 97.97 C 115.00 96.43 115.00 94.89 115.02 93.35 Z" />
<path fill="#002e8c" d=" M 117.80 93.31 C 119.75 94.46 121.34 96.12 122.10 98.29 C 120.83 97.97 119.85 97.26 119.14 96.14 C 118.95 96.70 118.59 97.82 118.40 98.38 C 118.35 96.67 118.15 94.98 117.80 93.31 Z" />
<path fill="#525871" d=" M 121.04 94.30 C 121.62 94.89 121.62 94.89 121.04 94.30 Z" />
<path fill="#1a56c7" d=" M 123.42 94.32 C 125.22 93.25 123.38 97.13 125.35 96.39 C 127.19 95.96 126.72 97.97 126.30 99.00 C 126.14 99.25 125.83 99.75 125.68 100.00 C 136.04 99.56 146.51 100.79 156.79 99.33 C 157.34 99.21 158.45 98.98 159.01 98.87 L 157.92 100.05 C 157.49 100.21 156.63 100.51 156.20 100.67 C 149.29 101.04 142.37 100.96 135.46 101.05 C 124.52 101.16 113.57 100.26 102.65 101.06 C 93.51 100.62 84.36 101.56 75.21 101.04 C 74.07 101.02 72.93 101.01 71.80 101.01 C 63.80 101.28 55.79 100.43 47.81 101.11 L 49.27 100.12 C 66.85 99.75 84.44 100.26 102.01 99.76 C 109.18 100.15 116.37 100.05 123.54 100.40 C 123.52 100.08 123.50 99.44 123.48 99.12 C 123.43 97.54 122.66 95.84 123.42 94.32 Z" />
<path fill="#002e8c" d=" M 130.32 98.41 C 130.37 96.82 128.57 94.48 130.48 93.39 C 130.79 94.12 131.41 95.58 131.72 96.31 L 131.95 93.85 C 133.19 94.85 134.61 94.52 135.95 93.94 C 134.20 95.06 135.28 97.65 133.26 98.39 C 133.12 97.69 132.84 96.28 132.70 95.58 C 132.03 96.62 131.55 97.88 130.32 98.41 Z" />
<path fill="#002e8c" d=" M 137.53 93.27 C 138.58 94.75 139.29 96.43 139.91 98.12 C 138.40 97.20 136.84 96.41 135.50 98.18 C 136.17 96.54 136.85 94.91 137.53 93.27 Z" />
<path fill="#3c4e80" d=" M 148.06 93.69 C 149.20 93.77 150.35 93.87 151.50 93.98 C 151.20 95.39 151.03 96.86 152.03 98.06 C 150.65 97.76 149.26 97.68 147.86 97.81 C 147.93 96.44 147.99 95.06 148.06 93.69 Z" />
<path fill="#a2d2f2" d=" M 193.57 93.97 C 193.98 93.80 194.81 93.45 195.22 93.27 L 195.16 95.02 C 193.14 96.07 191.01 96.93 188.82 97.55 C 186.94 97.54 185.04 97.54 183.20 97.97 C 175.11 99.87 166.88 101.78 158.50 101.33 C 157.93 101.16 156.78 100.83 156.20 100.67 C 156.63 100.51 157.49 100.21 157.92 100.05 C 164.48 98.14 171.33 98.34 178.08 98.23 C 183.31 97.04 188.71 96.39 193.57 93.97 Z" />
<path fill="#0047a0" d=" M 41.51 96.37 C 41.81 96.15 42.40 95.73 42.70 95.51 C 43.17 95.80 44.12 96.39 44.59 96.68 L 45.14 97.20 C 45.37 97.68 45.84 98.65 46.07 99.13 C 44.15 99.16 42.84 97.51 41.51 96.37 Z" />
<path fill="#fff200" d=" M 56.31 95.20 C 59.64 95.41 54.74 98.21 56.31 95.20 Z" />
<path fill="#fff200" d=" M 59.82 95.22 C 63.25 95.23 58.31 98.24 59.82 95.22 Z" />
<path fill="#30b2e3" d=" M 188.82 97.55 C 191.01 96.93 193.14 96.07 195.16 95.02 C 195.15 98.04 195.21 101.07 195.24 104.09 C 193.08 103.85 190.93 103.61 188.78 103.34 C 189.10 102.71 189.74 101.46 190.06 100.83 C 187.89 101.75 185.64 102.71 183.23 102.41 C 185.49 100.89 187.85 99.52 190.15 98.07 L 188.82 97.55 Z" />
<path fill="#6ab9e6" d=" M 7.09 96.19 C 8.28 95.61 10.58 96.47 10.61 97.88 C 9.46 98.49 6.83 97.71 7.09 96.19 Z" />
<path fill="#4aade0" d=" M 17.11 96.60 C 23.12 98.33 28.78 101.64 35.28 100.91 C 36.77 102.09 38.17 103.37 39.60 104.63 C 34.02 106.24 28.96 102.78 23.85 101.15 C 21.38 100.03 17.85 99.73 17.11 96.60 Z" />
<path fill="#00005b" d=" M 45.14 97.20 C 45.24 97.29 45.46 97.46 45.56 97.54 C 49.08 100.18 53.67 99.43 57.77 99.61 L 56.58 98.43 L 56.89 98.69 C 57.79 99.93 59.31 99.05 60.28 98.45 L 60.52 98.32 C 60.62 98.56 60.83 99.03 60.93 99.27 C 69.03 99.84 77.19 99.63 85.30 99.42 C 85.31 99.19 85.34 98.74 85.35 98.51 L 85.70 98.54 C 86.05 98.78 86.77 99.26 87.13 99.50 C 91.01 99.68 94.92 99.73 98.77 99.10 C 99.05 99.07 99.59 99.01 99.87 98.98 C 101.01 98.95 102.11 98.73 103.18 98.33 L 103.79 98.28 C 103.75 98.55 103.67 99.09 103.63 99.37 C 110.23 99.61 116.90 99.96 123.48 99.12 C 123.50 99.44 123.52 100.08 123.54 100.40 C 116.37 100.05 109.18 100.15 102.01 99.76 C 84.44 100.26 66.85 99.75 49.27 100.12 C 48.58 99.92 47.19 99.53 46.50 99.33 C 46.39 99.28 46.18 99.18 46.07 99.13 C 45.84 98.65 45.37 97.68 45.14 97.20 Z" />
<path fill="#fff200" d=" M 56.89 98.69 C 57.68 97.25 58.73 97.11 60.05 98.26 L 60.28 98.45 C 59.31 99.05 57.79 99.93 56.89 98.69 Z" />
<path fill="#a9e0fa" d=" M 46.07 99.13 C 46.18 99.18 46.39 99.28 46.50 99.33 C 46.39 99.28 46.18 99.18 46.07 99.13 Z" />
<path fill="#9a8727" d=" M 126.30 99.00 C 132.88 99.08 139.47 99.24 146.04 98.79 C 146.15 98.79 146.36 98.80 146.46 98.80 C 149.91 98.91 153.35 99.13 156.79 99.33 C 146.51 100.79 136.04 99.56 125.68 100.00 C 125.83 99.75 126.14 99.25 126.30 99.00 Z" />
<path fill="#70d4fc" d=" M 47.81 101.11 C 55.79 100.43 63.80 101.28 71.80 101.01 L 72.54 101.77 C 67.14 101.72 61.76 102.27 56.37 102.55 C 53.49 102.24 50.63 101.76 47.81 101.11 Z" />
<path fill="#46c8f5" d=" M 75.21 101.04 C 84.36 101.56 93.51 100.62 102.65 101.06 C 100.07 101.77 97.40 102.12 94.73 102.24 C 95.43 102.83 96.12 103.43 96.82 104.03 C 92.85 102.48 88.67 100.87 84.33 101.72 C 86.61 102.78 88.94 103.71 91.27 104.66 C 85.77 104.46 80.12 103.65 75.21 101.04 Z" />
<path fill="#42c3f4" d=" M 135.46 101.05 C 142.37 100.96 149.29 101.04 156.20 100.67 C 156.78 100.83 157.93 101.16 158.50 101.33 C 155.98 101.99 153.46 102.73 150.87 103.09 C 150.48 102.99 149.71 102.79 149.33 102.69 C 148.02 102.39 146.70 102.11 145.36 102.04 C 142.99 101.92 140.62 102.01 138.26 102.18 C 137.39 102.21 135.64 102.26 134.76 102.29 L 135.46 101.05 Z" />
<path fill="#8cbee8" d=" M 102.62 103.24 C 107.42 102.91 112.17 102.18 116.89 101.47 C 122.80 102.53 128.78 102.79 134.76 102.29 C 135.64 102.26 137.39 102.21 138.26 102.18 C 132.31 103.64 126.33 105.32 120.12 104.54 C 121.43 105.69 122.74 106.84 124.03 108.02 C 120.25 106.82 116.64 104.93 112.63 104.59 C 109.28 104.27 105.90 104.04 102.62 103.24 Z" />
<path fill="#73bde8" d=" M 145.36 102.04 C 146.70 102.11 148.02 102.39 149.33 102.69 C 146.84 103.38 144.36 104.11 141.86 104.77 C 138.48 105.58 135.03 106.51 131.51 106.02 C 135.89 103.99 140.72 103.26 145.36 102.04 Z" />
<path fill="#22aae2" d=" M 141.86 104.77 C 144.36 104.11 146.84 103.38 149.33 102.69 C 149.71 102.79 150.48 102.99 150.87 103.09 C 152.27 103.59 153.65 104.14 155.04 104.69 C 150.85 106.83 146.22 105.50 141.86 104.77 Z" />
<path fill="#0185ca" d=" M 5.93 103.72 C 6.37 105.11 6.84 106.49 7.30 107.87 C 7.64 107.03 7.98 106.19 8.32 105.35 C 12.99 106.45 17.38 108.44 21.97 109.78 C 29.19 112.09 36.77 112.63 44.12 114.31 C 42.24 114.99 40.37 115.69 38.48 116.34 C 32.21 116.00 26.08 114.55 19.90 113.51 C 15.41 112.51 10.76 112.09 6.41 110.53 C 5.04 108.63 6.15 105.93 5.93 103.72 Z" />
<path fill="#a2d2f2" d=" M 58.85 107.40 C 63.20 106.88 67.57 106.47 71.96 106.36 C 67.61 106.13 63.81 109.45 59.55 108.59 C 59.38 108.29 59.03 107.70 58.85 107.40 Z" />
<path fill="#35abdf" d=" M 97.80 107.10 C 101.02 105.70 104.61 105.38 108.00 106.36 C 109.82 105.95 111.68 105.65 113.53 106.15 C 112.48 106.88 111.30 107.34 110.09 107.71 C 112.39 107.74 114.70 107.92 116.99 108.14 C 117.24 108.60 117.74 109.54 117.99 110.00 C 113.95 109.96 109.97 108.60 105.91 109.28 C 102.51 109.65 99.45 111.40 96.09 111.92 C 92.64 112.14 89.19 111.78 85.74 111.77 C 85.98 110.53 86.71 109.91 87.95 109.90 C 91.90 109.42 95.98 110.01 99.79 108.57 C 99.29 108.21 98.30 107.47 97.80 107.10 Z" />
<path fill="#2cade2" d=" M 46.16 107.45 C 47.03 106.33 49.56 107.42 48.57 108.83 C 47.69 110.01 45.07 108.87 46.16 107.45 Z" />
<path fill="#34b4e7" d=" M 152.80 106.86 C 154.93 107.40 157.05 108.01 159.15 108.68 C 157.59 111.05 152.72 109.87 152.80 106.86 Z" />
<path fill="#3ca8df" d=" M 83.17 108.11 C 85.07 107.33 85.86 110.36 83.89 110.69 C 82.24 111.23 81.38 108.47 83.17 108.11 Z" />
<path fill="#26abe0" d=" M 135.69 108.85 C 139.58 109.64 144.05 108.97 147.53 110.95 C 147.16 111.25 146.40 111.86 146.02 112.16 C 142.53 111.33 138.59 111.13 135.69 108.85 Z" />
</svg>
