<?xml version="1.0" encoding="UTF-8" standalone="no"?>
<svg width="140px" height="69px" viewBox="0 0 140 69" version="1.1" xmlns="http://www.w3.org/2000/svg" xmlns:xlink="http://www.w3.org/1999/xlink" xmlns:sketch="http://www.bohemiancoding.com/sketch/ns">
    <!-- Generator: Sketch 3.4 (15588) - http://www.bohemiancoding.com/sketch -->
    <title>Slice 1</title>
    <desc>Created with Sketch.</desc>
    <defs></defs>
    <g id="Page-1" stroke="none" stroke-width="1" fill="none" fill-rule="evenodd" sketch:type="MSPage">
        <g id="ifc_default" sketch:type="MSLayerGroup" fill="#F3F1EF">
            <g id="Clients" sketch:type="MSShapeGroup">
                <g id="Group">
                    <g id="IFC">
                        <g>
                            <g id="ifc_default">
                                <g id="layer1" transform="translate(0.000000, 0.936277)">
                                    <g id="g18201" transform="translate(0.156872, 0.201528)">
                                        <g id="g9891" transform="translate(13.253485, 34.596204) scale(1, -1) translate(-13.253485, -34.596204) translate(0.787732, 3.450371)">
                                            <path d="M24.2725302,59.3146624 C24.2725302,57.5556533 24.3004736,5.88754454 24.3004736,0.716280483 C24.3004736,0.443522744 23.8589678,0.304360633 23.2553903,0.304360633 C22.718877,0.304360633 4.92451832,0.265395241 1.26952128,0.265395241 C0.705064552,0.265395241 0.615645664,0.677315092 0.615645664,1.44548995 C0.615645664,5.15833508 0.705064552,59.9659411 0.705064552,60.3611615 C0.705064552,61.3464292 1.11303823,62.1034711 1.58807607,62.1034711 C2.06311391,62.1034711 22.841828,62.2704657 23.4230508,62.2704657 C24.4569566,62.2704657 24.2725302,61.1571688 24.2725302,59.3146624" id="path9893"></path>
                                        </g>
                                        <g id="g9895" transform="translate(53.199122, 34.557275) scale(1, -1) translate(-53.199122, -34.557275) translate(31.144327, 3.411441)">
                                            <path d="M41.0385717,14.0079689 C41.0385717,16.3458924 41.0385717,26.6160563 41.0553377,31.0581109 C41.0609264,32.2938704 41.0218056,33.0954441 41.0218056,33.1455425 C41.0218056,33.4238667 40.8709112,33.6075607 40.613832,33.6075607 C38.0150955,33.6075607 23.4957036,33.691058 23.3727526,33.5741618 C23.3727526,33.5741618 23.3000998,33.5908613 23.3000998,33.679925 L23.3000998,41.2559104 C23.3000998,41.389506 23.3671639,41.5008356 23.4957036,41.5008356 L42.8716589,41.5008356 C43.6317195,41.5008356 43.7714364,41.8737901 43.7714364,42.5139358 C43.7714364,45.2582127 43.866444,52.8119321 43.9279195,57.348617 C43.9502742,59.2746206 43.9167421,60.6384092 43.9167421,60.8109703 C43.9167421,61.4845149 43.9390968,61.9020012 43.0393193,61.9020012 C38.9763486,61.9020012 21.9196957,62.0689957 10.9155839,62.0912617 C5.58398262,62.1023947 1.49865718,62.0912617 1.16333635,62.0912617 C0.051188934,62.0912617 0.162962544,61.5680121 0.162962544,59.6976734 C0.162962544,59.3748173 0.084721017,57.4710796 0.0679549755,54.4429121 C0.040011573,45.4697391 0.252381432,27.1226063 0.207671988,14.2751602 C0.185317265,7.712275 0.364155041,2.58554281 0.364155041,0.876632079 C0.364155041,0.336683086 0.79448344,0.264318788 1.2080458,0.264318788 C4.87980888,0.264318788 22.5288618,0.39234793 22.7747638,0.39234793 C23.0541978,0.39234793 23.3000998,0.470278713 23.3000998,1.0491931 L23.3000998,13.1674298 C23.3000998,13.3566902 23.4286395,13.4290546 23.6689527,13.4290546 C26.1503268,13.4290546 40.2226243,13.5181183 40.490881,13.5181183 C40.787081,13.5181183 41.0385717,13.6906793 41.0385717,14.0079689" id="path9897"></path>
                                        </g>
                                        <g id="g9899" transform="translate(107.261708, 33.745007) scale(1, -1) translate(-107.261708, -33.745007) translate(76.097324, 0.682507)">
                                            <path d="M0.95890411,31.4822401 L0.953315429,31.6603676 C0.528575711,52.5458173 13.4943144,64.6250885 32.1381526,65.1594711 C44.042042,65.4990266 53.5539763,59.815646 58.8520454,51.9669029 C59.522687,50.9816352 59.4444455,50.497351 58.9302869,50.1577955 C58.4105396,49.8238064 43.0025475,39.8430997 42.3710266,39.4590124 C41.7395056,39.0804914 41.2085811,39.4924112 40.9906225,39.7262036 C38.8669239,41.9973293 36.5699762,43.0660942 33.1832358,42.971464 C27.7175063,42.8211689 23.0118373,37.7278356 23.1794978,31.9275589 L23.1850864,31.8162292 C23.3527469,25.8433913 28.3266725,22.1695116 33.792402,22.3253732 C37.5871161,22.4311364 39.8896525,24.0621163 42.0245284,26.6560981 C42.1754228,26.839792 42.4325021,27.2517119 43.1925626,26.8843239 C43.9582118,26.5225024 60.3051023,19.1469105 61.1098723,18.7294242 C61.9146422,18.3119379 61.3669516,17.3211036 61.0763402,16.8034206 C56.1359466,8.00837513 46.3445784,0.655049154 33.4682586,0.265395241 C15.321813,-0.274553751 1.41158723,11.7379197 0.95890411,31.4822401" id="path9901"></path>
                                        </g>
                                    </g>
                                </g>
                            </g>
                        </g>
                    </g>
                </g>
            </g>
        </g>
    </g>
</svg>