<?xml version="1.0" encoding="UTF-8" standalone="no"?>
<svg width="143px" height="69px" viewBox="0 0 143 69" version="1.1" xmlns="http://www.w3.org/2000/svg" xmlns:xlink="http://www.w3.org/1999/xlink" xmlns:sketch="http://www.bohemiancoding.com/sketch/ns">
    <!-- Generator: Sketch 3.1.1 (8761) - http://www.bohemiancoding.com/sketch -->
    <title>ifc_hover</title>
    <desc>Created with Sketch.</desc>
    <defs></defs>
    <g id="Clients" stroke="none" stroke-width="1" fill="none" fill-rule="evenodd" sketch:type="MSPage">
        <g sketch:type="MSArtboardGroup" transform="translate(-648.000000, -1814.000000)" id="Group" fill="#000000">
            <g sketch:type="MSLayerGroup" transform="translate(235.000000, 972.000000)">
                <g id="IFC" transform="translate(414.000000, 841.000000)" sketch:type="MSShapeGroup">
                    <g id="ifc_hover" transform="translate(2.000000, 0.000000)">
                        <g id="layer1" transform="translate(0.000000, -0.023015)">
                            <g id="g18201" transform="translate(0.163595, 0.210290)">
                                <g id="g9891" transform="translate(10.477883, 35.749353) scale(1, -1) translate(-10.477883, -35.749353) translate(-1.178508, 0.898320)">
                                    <path d="M23.3127815,63.8935608 C23.3127815,62.058073 23.3419225,8.14352474 23.3419225,2.74742311 C23.3419225,2.46280634 22.881495,2.3175937 22.2520499,2.3175937 C21.6925432,2.3175937 3.13556911,2.27693417 -0.676070663,2.27693417 C-1.2647184,2.27693417 -1.35796952,2.70676357 -1.35796952,3.50833734 C-1.35796952,7.38261052 -1.2647184,64.5731559 -1.2647184,64.9855598 C-1.2647184,66.0136653 -0.839260134,66.803622 -0.343863527,66.803622 C0.15153308,66.803622 21.8207635,66.9778772 22.4268958,66.9778772 C23.5051119,66.9778772 23.3127815,65.8161761 23.3127815,63.8935608" id="path9893"></path>
                                </g>
                                <g id="g9895" transform="translate(53.791865, 33.612985) scale(1, -1) translate(-53.791865, -33.612985) translate(30.479084, 1.666205)">
                                    <path d="M40.7973676,11.617011 C40.7973676,14.0565834 40.7973676,24.7732761 40.8148522,29.4084635 C40.8206804,30.6979517 40.779883,31.5343765 40.779883,31.586653 C40.779883,31.8770783 40.6225217,32.068759 40.3544248,32.068759 C37.6443139,32.068759 22.5026623,32.1558866 22.374442,32.033908 C22.374442,32.033908 22.2986755,32.0513335 22.2986755,32.1442696 L22.2986755,40.0496456 C22.2986755,40.1890497 22.3686138,40.3052198 22.5026623,40.3052198 L42.7090157,40.3052198 C43.5016503,40.3052198 43.6473551,40.6943897 43.6473551,41.3623678 C43.6473551,44.2259611 43.7464345,52.1081031 43.8105446,56.8420351 C43.8338574,58.851778 43.7988882,60.2748618 43.7988882,60.4549255 C43.7988882,61.1577547 43.822201,61.5933926 42.8838616,61.5933926 C38.6467635,61.5933926 20.8591112,61.7676477 9.38339455,61.7908818 C3.82329616,61.8024988 -0.437114653,61.7908818 -0.786806375,61.7908818 C-1.94661725,61.7908818 -1.83005335,61.2448822 -1.83005335,59.2932244 C-1.83005335,58.9563311 -1.91164808,56.9698222 -1.92913267,53.8099952 C-1.95827365,44.4466843 -1.73680222,25.3018501 -1.78342778,11.8958193 C-1.80674057,5.0475913 -1.62023831,-0.302042287 -1.62023831,-2.08525348 C-1.62023831,-2.64867852 -1.17146727,-2.72418909 -0.740180812,-2.72418909 C3.08894355,-2.72418909 21.4943845,-2.59059346 21.7508251,-2.59059346 C22.0422349,-2.59059346 22.2986755,-2.50927439 22.2986755,-1.90518981 L22.2986755,10.7399267 C22.2986755,10.9374159 22.432724,11.0129265 22.6833364,11.0129265 C25.2710551,11.0129265 39.9464511,11.1058626 40.2262045,11.1058626 C40.5350988,11.1058626 40.7973676,11.2859262 40.7973676,11.617011" id="path9897"></path>
                                </g>
                                <g id="g9899" transform="translate(108.413712, 36.861148) scale(1, -1) translate(-108.413712, -36.861148) translate(76.358638, 2.010115)">
                                    <path d="M-6.14577833e-14,34.8510331 L-0.00582819537,35.0369053 C-0.448771044,56.830418 13.0726422,69.434875 32.515502,69.9924916 C44.9295581,70.3468104 54.8491467,64.4163263 60.3742759,56.2263335 C61.0736593,55.198228 60.9920646,54.692888 60.4558706,54.3385692 C59.9138484,53.9900588 43.8455138,43.5754084 43.1869277,43.1746216 C42.5283416,42.7796432 41.9746631,43.2094726 41.7473635,43.4534298 C39.5326492,45.8233001 37.1372609,46.9385331 33.6053745,46.8397885 C27.9053994,46.6829589 22.9980589,41.3681763 23.1729048,35.3157136 L23.178733,35.1995435 C23.3535789,28.967017 28.5406727,25.1334034 34.2406478,25.2960416 C38.1979925,25.4064032 40.599209,27.1082953 42.8255796,29.8150589 C42.9829409,30.0067395 43.2510379,30.4365689 44.0436724,30.0532076 C44.8421352,29.6756547 61.8896067,21.9793849 62.7288668,21.543747 C63.5681269,21.1081091 62.9969638,20.0741951 62.6938976,19.5340041 C57.5417729,10.3565653 47.3307746,2.68352955 33.9026125,2.27693417 C14.9784621,1.71350913 0.472083825,14.248264 -6.14577833e-14,34.8510331" id="path9901"></path>
                                </g>
                                <g id="g9903" transform="translate(136.380285, 67.088564) scale(-1, 1) translate(-136.380285, -67.088564) translate(136.088875, 66.798139)">
                                    <path id="path9905"></path>
                                </g>
                            </g>
                        </g>
                    </g>
                </g>
            </g>
        </g>
    </g>
</svg>