<?xml version="1.0" encoding="UTF-8" standalone="no"?>
<svg width="141px" height="70px" viewBox="0 0 141 70" version="1.1" xmlns="http://www.w3.org/2000/svg" xmlns:xlink="http://www.w3.org/1999/xlink" xmlns:sketch="http://www.bohemiancoding.com/sketch/ns">
    <!-- Generator: Sketch 3.4 (15588) - http://www.bohemiancoding.com/sketch -->
    <title>Slice 1</title>
    <desc>Created with Sketch.</desc>
    <defs></defs>
    <g id="Page-1" stroke="none" stroke-width="1" fill="none" fill-rule="evenodd" sketch:type="MSPage">
        <g id="ifc_hover" sketch:type="MSLayerGroup" fill="#000000">
            <g id="Clients" sketch:type="MSShapeGroup">
                <g id="Group">
                    <g id="IFC">
                        <g>
                            <g id="ifc_hover">
                                <g id="layer1" transform="translate(0.000000, 0.947417)">
                                    <g id="g18201" transform="translate(0.158201, 0.203926)">
                                        <g id="g9891" transform="translate(13.179310, 35.007834) scale(1, -1) translate(-13.179310, -35.007834) translate(0.607909, 3.491423)">
                                            <path d="M24.4782397,60.0203968 C24.4782397,58.2404587 24.5064199,5.95759539 24.5064199,0.724802888 C24.5064199,0.44879984 24.0611724,0.307981955 23.4524795,0.307981955 C22.9114193,0.307981955 4.96625358,0.268552957 1.28028046,0.268552957 C0.711039964,0.268552957 0.620863257,0.68537388 0.620863257,1.4626886 C0.620863257,5.21970969 0.711039964,60.6794244 0.711039964,61.0793472 C0.711039964,62.0763378 1.12247122,62.8423871 1.601535,62.8423871 C2.08059879,62.8423871 23.0354123,63.0113686 23.6215609,63.0113686 C24.6642291,63.0113686 24.4782397,61.8848255 24.4782397,60.0203968" id="path9893"></path>
                                        </g>
                                        <g id="g9895" transform="translate(53.463485, 34.968442) scale(1, -1) translate(-53.463485, -34.968442) translate(31.221776, 3.452031)">
                                            <path d="M41.3863732,14.1746377 C41.3863732,16.5403782 41.3863732,26.9327379 41.4032814,31.4276447 C41.4089174,32.6781075 41.3694651,33.4892185 41.3694651,33.5399129 C41.3694651,33.8215486 41.2172918,34.0074283 40.9580339,34.0074283 C38.3372731,34.0074283 23.6948295,34.091919 23.5708365,33.973632 C23.5708365,33.973632 23.4975679,33.9905301 23.4975679,34.0806536 L23.4975679,41.7467791 C23.4975679,41.8819642 23.5652004,41.9946185 23.6948295,41.9946185 L43.2349958,41.9946185 C44.0014979,41.9946185 44.1423989,42.3720105 44.1423989,43.0197727 C44.1423989,45.7967014 44.2382118,53.4402961 44.3002082,58.030959 C44.3227524,59.9798785 44.2889361,61.3598937 44.2889361,61.5345079 C44.2889361,62.2160665 44.3114803,62.6385201 43.4040772,62.6385201 C39.3066728,62.6385201 22.1054649,62.8075015 11.0080933,62.8300324 C5.63130682,62.8412979 1.51135829,62.8300324 1.17319562,62.8300324 C0.0516227642,62.8300324 0.164343647,62.3005571 0.164343647,60.4079648 C0.164343647,60.0812674 0.0854390291,58.1548787 0.0685308918,55.0906816 C0.0403506662,46.0107446 0.254520363,27.445315 0.20943201,14.4450081 C0.186887824,7.80403675 0.367241256,2.61630597 0.367241256,0.887062376 C0.367241256,0.340688988 0.80121668,0.267463691 1.21828397,0.267463691 C4.92116522,0.267463691 22.7197938,0.397016146 22.9677797,0.397016146 C23.249582,0.397016146 23.4975679,0.475874153 23.4975679,1.06167655 L23.4975679,13.3240977 C23.4975679,13.51561 23.627197,13.5888354 23.8695469,13.5888354 C26.3719506,13.5888354 40.5635107,13.6789588 40.8340409,13.6789588 C41.1327512,13.6789588 41.3863732,13.8535729 41.3863732,14.1746377" id="path9897"></path>
                                        </g>
                                        <g id="g9899" transform="translate(107.984251, 34.146510) scale(1, -1) translate(-107.984251, -34.146510) translate(76.555749, 0.690627)">
                                            <path d="M0.967030814,31.8568202 L0.961394769,32.0370672 C0.533055386,53.1710149 13.6086786,65.3940071 32.4105232,65.9347478 C44.4152979,66.2783434 54.0078458,60.5273411 59.350816,52.5852126 C60.0271413,51.588222 59.9482367,51.0981757 59.4297206,50.7545801 C58.9055684,50.4166171 43.3669937,40.3171586 42.7301206,39.9285013 C42.0932476,39.5454767 41.5578234,39.9622976 41.3380177,40.1988716 C39.1963207,42.4970195 36.8799064,43.5785008 33.4644635,43.4827446 C27.9524119,43.3306613 23.2068624,38.1767268 23.3759438,32.3074375 L23.3815798,32.1947832 C23.5506612,26.1508797 28.5667408,22.4332876 34.0787923,22.5910037 C37.9056666,22.6980253 40.2277169,24.3484108 42.3806859,26.9732562 C42.5328591,27.1591357 42.7921172,27.5759566 43.5586192,27.2041975 C44.3307573,26.8380709 60.8161875,19.3747232 61.6277779,18.9522696 C62.4393683,18.5298159 61.887036,17.5271926 61.5939616,17.0033501 C56.6116983,8.10365987 46.7373483,0.662843021 33.7519018,0.268552957 C15.4516652,-0.27782043 1.42355042,11.8775791 0.967030814,31.8568202" id="path9901"></path>
                                        </g>
                                    </g>
                                </g>
                            </g>
                        </g>
                    </g>
                </g>
            </g>
        </g>
    </g>
</svg>