<?xml version="1.0" encoding="UTF-8" standalone="no"?>
<svg width="140px" height="52px" viewBox="0 0 140 52" version="1.1" xmlns="http://www.w3.org/2000/svg" xmlns:xlink="http://www.w3.org/1999/xlink" xmlns:sketch="http://www.bohemiancoding.com/sketch/ns">
    <!-- Generator: Sketch 3.1.1 (8761) - http://www.bohemiancoding.com/sketch -->
    <title>kelloggs_hover</title>
    <desc>Created with Sketch.</desc>
    <defs></defs>
    <g id="Clients" stroke="none" stroke-width="1" fill="none" fill-rule="evenodd" sketch:type="MSPage">
        <g sketch:type="MSArtboardGroup" transform="translate(-235.000000, -1171.000000)" id="Group" fill="#D03D4B">
            <g sketch:type="MSLayerGroup" transform="translate(235.000000, 972.000000)">
                <g id="Kelloggs" transform="translate(0.000000, 199.000000)" sketch:type="MSShapeGroup">
                    <g id="kelloggs_hover">
                        <path d="M45.0803602,24.4930484 C45.0803602,24.4930484 47.4759619,18.1209516 51.0431536,14.8891935 C54.3867197,11.6553387 54.8830645,12.6112581 53.076586,15.5268226 C51.404907,18.3023226 47.6111774,23.6757258 45.0803602,24.4930484 L45.0803602,24.4930484 Z M3.79700207,24.5844677 C6.82166774,24.5844677 8.49355481,21.9454677 9.62249984,20.625129 C10.2559322,19.9407419 12.2879085,17.3017419 13.237745,16.4359839 C14.1861254,15.6165645 15.2233319,16.0728226 14.3205088,17.3017419 C13.6433914,18.6671613 11.7470466,22.4000484 6.95709122,26.5428548 C-0.404662125,32.552 0.183421085,34.1920968 0.000776210844,35.8770645 C0.000776210844,36.4234839 -0.134439242,39.1539032 3.16440177,39.1539032 C7.36440177,39.1539032 10.2559322,33.6460968 12.1978342,30.6852419 C12.2879085,30.1841129 19.966066,15.8897742 20.5980422,15.0686774 C21.1861254,14.2060645 25.3877896,8.01387097 25.3877896,7.46598387 C25.3877896,7.05837097 25.6580125,5.96427419 23.7606276,5.96427419 C21.6833022,5.96427419 20.281638,7.64924194 18.2960511,9.1046129 C16.2168535,10.3817581 14.6369129,11.3804516 10.5723364,13.4302581 C3.97631856,16.7536452 0.815189287,19.0764516 0.815189287,21.9454677 C0.815189287,24.8595645 3.79700207,24.5844677 3.79700207,24.5844677 L3.79700207,24.5844677 Z M17.481638,22.3100968 C18.4314746,24.4930484 17.210583,27.5453226 16.5332576,28.7738226 C15.8116232,29.7297419 14.1861254,32.7818065 14.1861254,37.1508548 C14.1861254,41.7964677 16.5332576,43.3432581 19.966066,43.3432581 C23.7606276,43.3432581 23.5351299,40.9755806 23.5351299,40.9755806 C20.9614597,40.7925323 21.0507019,35.9689032 22.5850853,31.5960806 C24.5294835,25.4504355 22.7679382,21.6259194 22.7679382,21.6259194 C29.4068089,18.9401613 42.3259174,9.01466129 42.3259174,3.41501613 C42.3259174,1.27358065 40.7441046,0 39.4795281,0 C37.8993795,0 36.4548624,0.591080645 34.3321878,3.55130645 C23.2634508,18.9401613 19.0178936,19.3496613 19.0178936,19.3496613 L17.481638,22.3100968 L17.481638,22.3100968 Z M25.5232131,32.3255484 C23.2634508,32.7818065 22.5850853,33.2363871 22.5850853,35.0129839 C22.7679382,37.1508548 26.6059768,35.6938065 26.6059768,35.6938065 C26.6059768,36.6962742 27.8722175,38.1533226 30.9869575,38.1533226 C35.2339709,38.1533226 39.5696024,34.5099677 39.5696024,34.5099677 C39.5696024,35.6938065 41.964164,38.1533226 44.6295726,38.1533226 C49.0556945,38.1533226 53.7085622,34.5099677 53.7085622,34.5099677 C53.7085622,36.6962742 55.8312368,38.8809032 58.0456499,38.8809032 C64.3238074,38.8809032 63.646482,32.3255484 63.646482,32.3255484 C58.6320689,33.9190968 59.5367643,29.7297419 59.5367643,29.7297419 C68.7047881,22.1270484 75.7509694,10.9728387 75.7509694,6.28214516 C75.7509694,4.27930645 74.1246395,2.45783871 71.460479,4.0058871 C56.4176559,12.4747581 53.7085622,28.7738226 53.7085622,28.7738226 C51.991326,30.6852419 49.2366752,32.0974194 47.293109,32.0974194 C45.3967643,32.0974194 45.3967643,30.0476129 45.3967643,30.0476129 C53.7085622,23.4939355 59.8521284,12.8840484 59.8521284,9.33441935 C59.8521284,7.19466129 58.0893349,5.96427419 55.5158728,7.19466129 C42.4159917,12.4747581 39.163956,29.7297419 39.163956,29.7297419 C33.1568535,35.0129839 31.8458877,32.7818065 31.8458877,32.7818065 C36.3633319,30.4592097 38.8477599,25.9517742 38.8477599,22.5367581 C38.8477599,20.4420806 37.4022027,18.8485323 35.3696024,19.2150484 C25.9742086,21.3977903 25.5232131,32.3255484 25.5232131,32.3255484 L25.5232131,32.3255484 Z M60.0312368,23.4939355 C60.0312368,23.4939355 62.6966455,16.6173548 66.3555756,12.8840484 C69.4282948,9.56066129 70.103956,10.652871 68.3430348,13.5684355 C66.6719798,16.4359839 62.3802413,22.718129 60.0312368,23.4939355 L60.0312368,23.4939355 Z M30.6270764,29.7297419 C30.6270764,29.7297419 30.9869575,26.5428548 32.1614597,25.3141452 C34.3321878,22.718129 35.2339709,23.3108871 33.7896618,26.1780161 C33.3359619,27.0439839 32.9305236,28.2278226 30.6270764,29.7297419 L30.6270764,29.7297419 Z M75.8418758,20.4420806 C68.7047881,21.3977903 64.5948624,28.7738226 64.5948624,33.2363871 C64.5948624,36.5597742 66.4912071,38.8809032 70.2410437,38.8809032 C78.8673735,38.8809032 81.8947435,24.9493065 81.8947435,24.9493065 C83.0690377,25.5869355 86.6364374,25.5869355 86.6364374,25.5869355 C84.243748,27.5453226 82.0757242,30.6852419 82.0757242,33.0099355 C82.0757242,35.4675645 83.701014,36.9694839 85.8700778,36.9694839 C88.172693,36.9694839 90.7037183,35.1928871 90.7037183,35.1928871 C90.3417569,36.4234839 89.2564969,37.6519839 89.2564969,37.6519839 C76.2937034,40.7925323 74.6675816,47.4860645 74.6675816,48.6699032 C74.6675816,50.265129 76.2937034,51.5387097 78.416378,51.5387097 C85.5083245,51.5387097 93.1417569,40.156371 93.1417569,40.156371 C98.4709099,38.8809032 100.459825,33.6460968 100.459825,33.5540484 C100.459825,32.7818065 99.7369426,32.3255484 98.8326633,33.2363871 C96.7992309,34.8748065 96.0782205,34.8748065 96.0782205,34.8748065 C100.052723,30.0476129 102.672782,23.9933871 102.672782,23.0362097 C102.672782,22.1270484 102.355962,20.8966613 100.819914,20.8966613 C98.4270169,20.8966613 96.3043423,24.8595645 95.0836588,26.8621935 C93.4581611,29.5014032 91.6516826,31.961129 90.3417569,31.961129 C89.2564969,31.961129 89.0755162,31.961129 89.0755162,30.3692581 C89.0755162,28.1380806 93.8182502,24.5844677 95.6245206,23.6757258 C97.5682948,22.718129 97.5682948,22.4000484 97.5682948,21.7622097 C97.5682948,20.4420806 96.9802116,20.1705484 95.6245206,20.1705484 C94.4516826,20.1705484 92.1919203,21.1713387 92.1919203,21.1713387 C85.6429159,24.3582258 80.9005979,21.3977903 80.9005979,21.3977903 C79.2289189,21.7622097 78.0548327,23.3574355 78.0548327,23.3574355 C77.9189931,28.7738226 73.7192012,32.552 72.7693646,32.4169677 C72.0017569,32.3255484 71.460479,32.7818065 71.460479,30.6852419 C71.460479,26.4063548 76.5183691,23.6757258 76.9256796,23.3574355 C77.5118906,23.0362097 77.9189931,23.6757258 78.0548327,22.1270484 C78.0548327,20.3055806 75.8418758,20.4420806 75.8418758,20.4420806 L75.8418758,20.4420806 Z M85.7329902,42.4789677 C85.7329902,42.4789677 85.1003899,44.9365968 81.8947435,46.8031452 C80.4038371,47.5774839 79.6799144,46.5301452 80.8092755,45.5278871 C81.5325741,44.6635968 83.9271358,42.4789677 85.7329902,42.4789677 L85.7329902,42.4789677 Z M112.654595,39.0639516 C114.190642,38.6546613 120.966185,33.5540484 120.966185,33.5540484 C120.875903,35.4675645 120.560746,39.883371 125.889483,39.883371 C134.60672,39.883371 136.548622,29.3651129 135.870672,26.5428548 C135.600865,24.1768548 136.548622,23.0362097 138.041608,23.0362097 C139.66669,23.0362097 139.937745,22.1270484 139.937745,20.625129 C139.937745,18.9401613 137.677983,17.7563226 135.330642,18.8485323 C130.090524,21.0331613 116.178102,32.552 116.178102,32.552 C119.927106,27.1804839 120.334209,26.1780161 120.334209,25.3141452 C120.334209,24.3582258 120.061697,23.3108871 118.66253,23.3108871 C116.087195,23.3108871 115.319796,24.5844677 114.055219,26.6810323 C112.564521,29.3651129 110.712901,31.3247581 109.674446,31.3247581 C108.409038,31.3247581 108.317091,31.3247581 108.317091,29.7297419 C108.543421,26.5428548 113.15094,24.3582258 115.951564,23.3108871 C118.030553,22.5367581 117.803599,22.1270484 117.803599,21.307629 C117.803599,20.1705484 117.171623,19.9407419 115.81614,20.0772419 C111.841846,20.1705484 101.363064,25.7685161 101.046244,32.7818065 C101.046244,35.1928871 102.763481,36.7876935 104.976437,36.7876935 C107.368919,36.7876935 109.674446,35.0129839 109.674446,35.0129839 C109.491801,36.1051935 108.317091,37.5605645 108.317091,37.5605645 C96.1672547,40.3847097 94.9929605,46.6217742 94.9929605,48.5799516 C95.0836588,50.9010806 95.8510585,51.8117097 98.0652636,51.8117097 C105.87822,51.8117097 112.564521,39.1539032 112.564521,39.1539032 L112.654595,39.0639516 L112.654595,39.0639516 Z M105.87822,42.0696774 C105.87822,42.0696774 103.936319,45.2100161 101.497864,46.8031452 C100.052723,47.7141935 99.1482353,46.6217742 100.459825,45.5278871 C101.136319,44.6635968 103.936319,42.0696774 105.87822,42.0696774 L105.87822,42.0696774 Z M124.624907,30.9603387 L131.219469,25.5869355 C131.219469,25.5869355 131.3551,30.776871 129.051445,32.7818065 C128.057923,33.7375161 127.064402,34.1920968 127.017804,33.3728871 C126.839528,32.552 126.839528,30.9603387 124.624907,30.9603387 L124.624907,30.9603387 Z M126.839528,11.3804516 C124.26357,11.3804516 123.044966,13.5684355 123.134209,14.6606452 C123.358874,15.8449032 123.358874,16.4359839 124.082381,16.8901452 C124.89513,17.3017419 124.89513,18.8485323 124.26357,19.0764516 C124.082381,19.2150484 123.857923,19.9407419 123.946957,20.1705484 C123.946957,20.8966613 124.082381,21.0331613 125.211742,20.8966613 C127.017804,20.8966613 130.26984,17.0287419 130.26984,14.5692258 C130.26984,11.3804516 126.839528,11.3804516 126.839528,11.3804516 L126.839528,11.3804516 Z" id="kelloggs"></path>
                    </g>
                </g>
            </g>
        </g>
    </g>
</svg>