<?xml version="1.0" encoding="UTF-8" standalone="no"?>
<svg width="140px" height="32px" viewBox="0 0 140 32" version="1.1" xmlns="http://www.w3.org/2000/svg" xmlns:xlink="http://www.w3.org/1999/xlink" xmlns:sketch="http://www.bohemiancoding.com/sketch/ns">
    <!-- Generator: Sketch 3.4 (15588) - http://www.bohemiancoding.com/sketch -->
    <title>Slice 1</title>
    <desc>Created with Sketch.</desc>
    <defs></defs>
    <g id="Page-1" stroke="none" stroke-width="1" fill="none" fill-rule="evenodd" sketch:type="MSPage">
        <g id="metlife_hover" sketch:type="MSLayerGroup">
            <path d="M0,0 L95.5747283,0 C94.1671196,0.268263473 92.88125,1.21293413 92.301087,2.54850299 C91.9605978,3.24598802 92.0709239,4.04502994 92.061413,4.7942515 C92.0538043,6.03784431 92.9230978,7.04958084 93.8532609,7.76239521 C94.9603261,8.54419162 96.4611413,8.64383234 97.7165761,8.19353293 C99.5350543,7.52287425 100.699185,5.45724551 100.333967,3.54107784 C100.090489,1.77053892 98.5611413,0.379401198 96.873913,0 L140,0 L140,32 L131.655163,32 C133.827446,31.6435928 136.068207,30.8732934 137.57663,29.177485 C138.653261,28.2232335 139.31712,26.8819162 139.659511,25.4946108 C137.470109,25.4811976 135.280707,25.4773653 133.093207,25.4946108 C132.476902,26.6213174 131.183424,27.2823952 129.924185,27.2210778 C128.634511,27.2670659 127.238315,26.8320958 126.426087,25.7705389 C125.752717,25.0021557 125.657609,23.9329341 125.62337,22.9556886 C130.399728,22.9326946 135.177989,22.9499401 139.954348,22.9461078 C139.965761,21.5128144 139.9125,20.0450299 139.482609,18.6673054 C139.187772,17.2589222 138.459239,15.9865868 137.629891,14.8349701 C135.874185,12.742515 133.161685,11.6502994 130.487228,11.4989222 C129.165217,11.4893413 127.824185,11.428024 126.532609,11.7652695 C123.249457,12.399521 120.323913,14.8541317 119.336685,18.1039521 C118.701359,19.794012 118.902989,21.6220359 118.899185,23.3887425 C119.161685,25.5980838 120.124185,27.7844311 121.798098,29.2771257 C123.433967,30.8924551 125.708967,31.599521 127.911685,32 L48.026087,32 C49.7266304,31.7106587 51.4480978,31.2335329 52.8880435,30.2409581 C54.4288043,29.0529341 55.7793478,27.4605988 56.1540761,25.4888623 C53.9646739,25.4869461 51.7771739,25.4716168 49.5896739,25.4965269 C48.9410326,26.6902994 47.5334239,27.3398802 46.211413,27.2134132 C45.1271739,27.1386826 43.9554348,26.8991617 43.1907609,26.0560479 C42.6980978,25.6306587 42.4983696,24.9964072 42.2529891,24.4138922 C42.2111413,23.9271856 42.1692935,23.4423952 42.1274457,22.9556886 C46.9,22.9346108 51.6725543,22.9441916 56.4451087,22.9518563 C56.5440217,20.4991617 56.1578804,17.9372455 54.8263587,15.8371257 C53.8467391,14.1125749 52.1804348,12.8383234 50.3258152,12.2002395 C48.419837,11.4031138 46.319837,11.4299401 44.2959239,11.5295808 C41.9144022,11.7997605 39.5328804,12.7961677 37.9046196,14.6069461 C36.4589674,16 35.7627717,17.9832335 35.426087,19.9262275 C35.3290761,20.8823952 35.3975543,21.8462275 35.3766304,22.8043114 C35.4717391,26.1997605 37.5679348,29.5243114 40.7084239,30.8522156 C41.9105978,31.5075449 43.2782609,31.7068263 44.5964674,32 L0,32 L0,31.7681437 C2.32445652,31.7451497 4.65081522,31.7758084 6.97527174,31.7508982 C7.41277174,28.16 8.05,24.5959281 8.46657609,21.0031138 C8.73478261,19.3877844 9.0201087,17.7743713 9.17798913,16.1437126 C9.54701087,16.6342515 9.68586957,17.2397605 9.91032609,17.8011976 C11.7459239,22.4555689 13.6138587,27.0984431 15.4304348,31.760479 C16.3644022,31.760479 17.3002717,31.7585629 18.2342391,31.7643114 C20.3741848,26.548503 22.5122283,21.3326946 24.7111413,16.1437126 C25.2875,20.0028743 25.6793478,23.8946108 26.2005435,27.7633533 C26.3451087,29.0874251 26.5714674,30.4038323 26.6722826,31.7317365 C29.0043478,31.7758084 31.3383152,31.7164072 33.6722826,31.7566467 C32.3788043,22.7104192 30.9559783,13.6814371 29.6434783,4.63712575 C27.3133152,4.65245509 24.9831522,4.65628743 22.6529891,4.63712575 C20.857337,9.36622754 18.8619565,14.0186826 17.0720109,18.7497006 C17.0016304,18.8244311 16.8589674,18.9700599 16.788587,19.0447904 C16.6839674,18.4488623 16.45,17.8931737 16.2255435,17.337485 C15.0423913,14.137485 13.8154891,10.9528144 12.6304348,7.75473054 C12.2119565,6.71808383 11.8904891,5.63928144 11.4016304,4.63329341 C9.1361413,4.66011976 6.87255435,4.64862275 4.60706522,4.64095808 C4.31222826,5.66994012 4.28369565,6.75065868 4.04972826,7.78730539 C2.82472826,14.9384431 1.61494565,22.0991617 0.435597826,29.2502994 C0.300543478,29.9650299 0.150271739,30.6778443 0,31.3887425 L0,0 L0,0 Z" id="Shape" fill="#FFFFFF" sketch:type="MSShapeGroup"></path>
            <path d="M95.5747283,0 L96.873913,0 C98.5611413,0.379401198 100.090489,1.77053892 100.333967,3.54107784 C100.699185,5.45724551 99.5350543,7.52287425 97.7165761,8.19353293 C96.4611413,8.64383234 94.9603261,8.54419162 93.8532609,7.76239521 C92.9230978,7.04958084 92.0538043,6.03784431 92.061413,4.7942515 C92.0709239,4.04502994 91.9605978,3.24598802 92.301087,2.54850299 C92.88125,1.21293413 94.1671196,0.268263473 95.5747283,0 L95.5747283,0 Z" id="Shape" fill="#017DC3" sketch:type="MSShapeGroup"></path>
            <path d="M113.474185,2.23041916 C115.00163,1.96407186 116.645109,2.03305389 118.0375,2.78227545 C118.02038,4.7405988 118.0375,6.70083832 118.029891,8.66107784 C117.697011,8.58251497 117.379348,8.45796407 117.090217,8.27592814 C116.399728,8.09005988 115.697826,7.97892216 114.980707,8.05748503 C114.372011,8.32958084 113.664402,8.66874251 113.495109,9.38730539 C113.150815,10.5695808 113.287772,11.8246707 113.297283,13.0376048 C114.636413,13.0299401 115.977446,13.0146108 117.318478,13.0452695 C117.314674,14.8886228 117.322283,16.731976 117.312772,18.5772455 C115.977446,18.6500599 114.594565,18.479521 113.291576,18.6577246 C113.25163,22.9748503 113.280163,27.2958084 113.278261,31.6148503 C111.026087,31.6186826 108.773913,31.6148503 106.521739,31.6167665 C106.521739,27.2728144 106.523641,22.9269461 106.521739,18.582994 C105.380435,18.5868263 104.241033,18.5906587 103.10163,18.582994 C103.094022,16.7338922 103.095924,14.8847904 103.10163,13.0356886 C104.241033,13.0241916 105.380435,13.0318563 106.521739,13.0318563 C106.521739,11.9453892 106.523641,10.8608383 106.517935,9.77628743 C106.521739,9.41988024 106.491304,9.04047904 106.673913,8.71856287 C106.710054,8.45796407 106.725272,8.1897006 106.856522,7.95401198 C107.002989,7.05149701 107.524185,6.26586826 108.070109,5.55305389 C109.371196,3.81125749 111.345652,2.61365269 113.474185,2.23041916 L113.474185,2.23041916 Z" id="Shape" fill="#017DC3" sketch:type="MSShapeGroup"></path>
            <path d="M74.6032609,4.21556886 C76.9828804,4.22131737 79.3625,4.20407186 81.7421196,4.2251497 C81.7554348,11.3801198 81.7402174,18.5350898 81.7497283,25.6900599 C84.5858696,25.6670659 87.4220109,25.668982 90.2581522,25.6900599 C90.2600543,27.6656287 90.2600543,29.6411976 90.2581522,31.6167665 C85.0404891,31.6033533 79.8266304,31.6205988 74.6089674,31.6148503 C74.6127717,22.4823952 74.6241848,13.348024 74.6032609,4.21556886 L74.6032609,4.21556886 Z" id="Shape" fill="#017DC3" sketch:type="MSShapeGroup"></path>
            <path d="M4.60706522,4.64095808 C6.87255435,4.64862275 9.1361413,4.66011976 11.4016304,4.63329341 C11.8904891,5.63928144 12.2119565,6.71808383 12.6304348,7.75473054 C13.8154891,10.9528144 15.0423913,14.137485 16.2255435,17.337485 C16.45,17.8931737 16.6839674,18.4488623 16.788587,19.0447904 C16.8589674,18.9700599 17.0016304,18.8244311 17.0720109,18.7497006 C18.8619565,14.0186826 20.857337,9.36622754 22.6529891,4.63712575 C24.9831522,4.65628743 27.3133152,4.65245509 29.6434783,4.63712575 C30.9559783,13.6814371 32.3788043,22.7104192 33.6722826,31.7566467 C31.3383152,31.7164072 29.0043478,31.7758084 26.6722826,31.7317365 C26.5714674,30.4038323 26.3451087,29.0874251 26.2005435,27.7633533 C25.6793478,23.8946108 25.2875,20.0028743 24.7111413,16.1437126 C22.5122283,21.3326946 20.3741848,26.548503 18.2342391,31.7643114 C17.3002717,31.7585629 16.3644022,31.760479 15.4304348,31.760479 C13.6138587,27.0984431 11.7459239,22.4555689 9.91032609,17.8011976 C9.68586957,17.2397605 9.54701087,16.6342515 9.17798913,16.1437126 C9.0201087,17.7743713 8.73478261,19.3877844 8.46657609,21.0031138 C8.05,24.5959281 7.41277174,28.16 6.97527174,31.7508982 C4.65081522,31.7758084 2.32445652,31.7451497 0,31.7681437 L0,31.3887425 C0.150271739,30.6778443 0.300543478,29.9650299 0.435597826,29.2502994 C1.61494565,22.0991617 2.82472826,14.9384431 4.04972826,7.78730539 C4.28369565,6.75065868 4.31222826,5.66994012 4.60706522,4.64095808 L4.60706522,4.64095808 Z" id="Shape" fill="#017DC3" sketch:type="MSShapeGroup"></path>
            <path d="M61.6418478,6.56095808 C63.9054348,6.56287425 66.1709239,6.56095808 68.4345109,6.56479042 C68.4211957,8.48862275 68.4402174,10.4124551 68.4211957,12.3362874 C69.530163,12.3841916 70.6391304,12.3554491 71.7480978,12.3516168 C71.8831522,14.2294611 71.7690217,16.1207186 71.8089674,18.0023952 C70.688587,18.0215569 69.5682065,18.0081437 68.4478261,18.0138922 C68.4059783,22.5954491 68.4402174,27.1789222 68.4307065,31.7623952 C66.1652174,31.7834731 63.8997283,31.7183234 61.6361413,31.760479 C61.6285326,27.1750898 61.6228261,22.5916168 61.6399457,18.0081437 C60.4967391,18.0100599 59.3554348,18.0177246 58.2141304,18.0062275 C58.198913,16.1207186 58.2065217,14.2352096 58.2103261,12.3497006 C59.3497283,12.3573653 60.4891304,12.3803593 61.6285326,12.3343713 C61.6380435,10.4086228 61.6171196,8.48479042 61.6418478,6.56095808 L61.6418478,6.56095808 Z" id="Shape" fill="#017DC3" sketch:type="MSShapeGroup"></path>
            <path d="M92.826087,11.1137725 C95.0934783,11.119521 97.3608696,11.1022754 99.6282609,11.1233533 C99.6206522,18.0062275 99.6377717,24.8891018 99.6206522,31.7700599 C98.8160326,31.657006 98.0095109,31.7796407 97.2029891,31.7662275 C96.5086957,31.7796407 95.8163043,31.6761677 95.123913,31.7470659 C94.3611413,31.8256287 93.5945652,31.6378443 92.8355978,31.7700599 C92.8127717,24.8852695 92.8317935,17.9985629 92.826087,11.1137725 L92.826087,11.1137725 Z" id="Shape" fill="#017DC3" sketch:type="MSShapeGroup"></path>
            <path d="M37.9046196,14.6069461 C39.5328804,12.7961677 41.9144022,11.7997605 44.2959239,11.5295808 C46.319837,11.4299401 48.419837,11.4031138 50.3258152,12.2002395 C52.1804348,12.8383234 53.8467391,14.1125749 54.8263587,15.8371257 C56.1578804,17.9372455 56.5440217,20.4991617 56.4451087,22.9518563 C51.6725543,22.9441916 46.9,22.9346108 42.1274457,22.9556886 C42.1692935,23.4423952 42.2111413,23.9271856 42.2529891,24.4138922 C42.4983696,24.9964072 42.6980978,25.6306587 43.1907609,26.0560479 C43.9554348,26.8991617 45.1271739,27.1386826 46.211413,27.2134132 C47.5334239,27.3398802 48.9410326,26.6902994 49.5896739,25.4965269 C51.7771739,25.4716168 53.9646739,25.4869461 56.1540761,25.4888623 C55.7793478,27.4605988 54.4288043,29.0529341 52.8880435,30.2409581 C51.4480978,31.2335329 49.7266304,31.7106587 48.026087,32 L44.5964674,32 C43.2782609,31.7068263 41.9105978,31.5075449 40.7084239,30.8522156 C37.5679348,29.5243114 35.4717391,26.1997605 35.3766304,22.8043114 C35.3975543,21.8462275 35.3290761,20.8823952 35.426087,19.9262275 C35.7627717,17.9832335 36.4589674,16 37.9046196,14.6069461 L37.9046196,14.6069461 Z" id="Shape" fill="#017DC3" sketch:type="MSShapeGroup"></path>
            <path d="M126.532609,11.7652695 C127.824185,11.428024 129.165217,11.4893413 130.487228,11.4989222 C133.161685,11.6502994 135.874185,12.742515 137.629891,14.8349701 C138.459239,15.9865868 139.187772,17.2589222 139.482609,18.6673054 C139.9125,20.0450299 139.965761,21.5128144 139.954348,22.9461078 C135.177989,22.9499401 130.399728,22.9326946 125.62337,22.9556886 C125.657609,23.9329341 125.752717,25.0021557 126.426087,25.7705389 C127.238315,26.8320958 128.634511,27.2670659 129.924185,27.2210778 C131.183424,27.2823952 132.476902,26.6213174 133.093207,25.4946108 C135.280707,25.4773653 137.470109,25.4811976 139.659511,25.4946108 C139.31712,26.8819162 138.653261,28.2232335 137.57663,29.177485 C136.068207,30.8732934 133.827446,31.6435928 131.655163,32 L127.911685,32 C125.708967,31.599521 123.433967,30.8924551 121.798098,29.2771257 C120.124185,27.7844311 119.161685,25.5980838 118.899185,23.3887425 C118.902989,21.6220359 118.701359,19.794012 119.336685,18.1039521 C120.323913,14.8541317 123.249457,12.399521 126.532609,11.7652695 L126.532609,11.7652695 Z" id="Shape" fill="#017DC3" sketch:type="MSShapeGroup"></path>
            <path d="M44.8932065,16.0977246 C46.998913,15.2833533 49.7361413,16.6764072 50.0880435,18.9758084 C47.4915761,18.9662275 44.8970109,18.9681437 42.3005435,18.9738922 C42.4222826,17.5750898 43.5807065,16.4368862 44.8932065,16.0977246 L44.8932065,16.0977246 Z" id="Shape" fill="#FFFFFF" sketch:type="MSShapeGroup"></path>
            <path d="M127.869837,16.3123353 C128.8875,15.7700599 130.08587,15.7949701 131.166304,16.1302994 C132.334239,16.6246707 133.407065,17.6536527 133.580163,18.9662275 C130.949457,18.9738922 128.316848,18.9662275 125.686141,18.971976 C125.998098,17.8261078 126.719022,16.7281437 127.869837,16.3123353 L127.869837,16.3123353 Z" id="Shape" fill="#FFFFFF" sketch:type="MSShapeGroup"></path>
        </g>
    </g>
</svg>