<?xml version="1.0" encoding="UTF-8" standalone="no"?>
<svg width="140px" height="32px" viewBox="0 0 140 32" version="1.1" xmlns="http://www.w3.org/2000/svg" xmlns:xlink="http://www.w3.org/1999/xlink" xmlns:sketch="http://www.bohemiancoding.com/sketch/ns">
    <!-- Generator: Sketch 3.4 (15588) - http://www.bohemiancoding.com/sketch -->
    <title>Slice 1</title>
    <desc>Created with Sketch.</desc>
    <defs></defs>
    <g id="Page-1" stroke="none" stroke-width="1" fill="none" fill-rule="evenodd" sketch:type="MSPage">
        <g id="metlife_default" sketch:type="MSLayerGroup">
            <path d="M0,0 L95.2228261,0 C93.9940217,0.420952381 92.9839674,1.27809524 92.2782609,2.35809524 C92.0100543,3.31428571 91.9967391,4.32380952 92.105163,5.30666667 C92.2915761,6.60190476 93.4442935,7.41904762 94.4220109,8.13904762 C94.8728261,8.23619048 95.3217391,8.35047619 95.76875,8.47238095 C96.6152174,8.37333333 97.5282609,8.40761905 98.273913,7.92952381 C99.9516304,7.03047619 100.853261,4.86095238 100.261685,3.04190476 C99.869837,1.5847619 98.5611413,0.573333333 97.2296196,0 L140,0 L140,20.76 C139.705163,19.36 139.478804,17.912381 138.803533,16.632381 C138.326087,15.7485714 137.863859,14.8209524 137.1125,14.1333333 C135.088587,12.2590476 132.288587,11.2704762 129.539946,11.4228571 C127.691033,11.3371429 125.790761,11.6266667 124.143478,12.4990476 C122.21087,13.3657143 120.710054,15.0057143 119.719022,16.8495238 C119.355707,17.8685714 118.904891,18.8895238 118.889674,19.9904762 C118.882065,21.1352381 118.863043,22.28 118.897283,23.4247619 C119.23587,26.2133333 120.871739,28.8038095 123.26087,30.28 C124.634239,31.0171429 126.121739,31.5333333 127.654891,31.8095238 L92.925,31.8095238 C93.7961957,31.4190476 94.7663043,31.6647619 95.6869565,31.5904762 C97.0165761,31.6552381 98.3461957,31.5542857 99.673913,31.607619 L99.673913,11.047619 L92.826087,11.047619 C92.8241848,17.967619 92.8279891,24.8895238 92.826087,31.8095238 L89.9785326,31.8095238 L89.9519022,31.7428571 L89.8986413,31.7428571 L89.8777174,31.8095238 L48.5434783,31.8095238 C50.1032609,31.3142857 51.788587,30.9904762 53.0953804,29.9371429 C53.9817935,29.1695238 54.7807065,28.3028571 55.4769022,27.3580952 C55.7336957,26.6933333 55.9904891,26.0266667 56.1807065,25.3390476 C53.9836957,25.3314286 51.7847826,25.3257143 49.5877717,25.3409524 C48.857337,26.6133333 47.2861413,27.2761905 45.861413,27.0019048 C45.0453804,26.8438095 44.1266304,26.7561905 43.5046196,26.1409524 C43.2097826,25.8704762 42.9415761,25.5752381 42.6657609,25.2857143 C42.3271739,24.5180952 42.1502717,23.6990476 42.2111413,22.8571429 L56.492663,22.8571429 C56.6105978,20.3980952 56.1845109,17.8457143 54.851087,15.7409524 C54.1092391,14.4228571 52.9375,13.4114286 51.657337,12.64 C50.388587,12.1333333 49.1141304,11.5866667 47.7369565,11.4609524 C46.7858696,11.3847619 45.8309783,11.4419048 44.8779891,11.4209524 C42.8730978,11.3752381 40.9709239,12.2019048 39.3027174,13.2457143 C38.4714674,13.8647619 37.75625,14.6342857 37.0657609,15.4019048 C35.9815217,17.1028571 35.2872283,19.1161905 35.3747283,21.1504762 C35.3975543,22.3904762 35.2529891,23.6685714 35.6923913,24.8571429 C36.3353261,27.1885714 37.9350543,29.2114286 40.03125,30.4019048 C40.6513587,30.6304762 41.2296196,30.9657143 41.8535326,31.1828571 C42.6695652,31.432381 43.5122283,31.5771429 44.3320652,31.8095238 L0,31.8095238 L0,31.6190476 L7,31.6190476 C7.38994565,28.5028571 7.8673913,25.3980952 8.34483696,22.2952381 C8.44184783,20.1942857 9.08858696,18.1638095 9.20271739,16.0590476 C9.57554348,16.7657143 9.81521739,17.5314286 10.1100543,18.2704762 C11.6736413,22.1657143 13.2258152,26.0666667 14.7855978,29.9638095 C15.017663,30.4971429 15.1184783,31.0990476 15.455163,31.5828571 C16.3682065,31.6571429 17.2945652,31.6590476 18.2095109,31.5847619 C18.5880435,31.0133333 18.7535326,30.3333333 19.0217391,29.7085714 C20.4217391,26.3504762 21.8236413,22.992381 23.2141304,19.6285714 C23.7220109,18.512381 24.0910326,17.3314286 24.6997283,16.2628571 C24.9089674,17.0495238 24.9546196,17.8647619 25.0649457,18.6685714 C25.5842391,22.9771429 26.1453804,27.28 26.6608696,31.5904762 C29.00625,31.6266667 31.3535326,31.5733333 33.7008152,31.6057143 C33.5372283,29.7542857 33.0769022,27.9428571 32.911413,26.0895238 C32.6146739,24.1219048 32.2798913,22.16 32.0154891,20.1866667 C31.7701087,19.1238095 31.7263587,18.0304762 31.5152174,16.96 C31.3097826,15.1619048 30.9673913,13.3847619 30.6915761,11.5980952 C30.394837,9.24571429 30.0372283,6.9047619 29.6282609,4.57142857 C27.311413,4.60190476 24.9907609,4.51428571 22.6777174,4.60761905 C21.6581522,6.92571429 20.8078804,9.33333333 19.8282609,11.6761905 C18.7744565,14.0780952 17.9184783,16.5638095 16.8456522,18.9561905 C15.6434783,15.3980952 14.2016304,11.9238095 12.9157609,8.39428571 C12.4173913,7.11619048 12.0065217,5.80190476 11.4092391,4.56380952 C9.14184783,4.57904762 6.87255435,4.56761905 4.60516304,4.56952381 C4.23233696,5.85142857 4.21521739,7.19619048 3.89375,8.48761905 C3.63125,10.3371429 3.20516304,12.1619048 2.95788043,14.0133333 C2.71820652,15.4666667 2.50896739,16.9238095 2.18559783,18.3619048 C2.01059783,20.0019048 1.56168478,21.5961905 1.37717391,23.2361905 C1.20788043,25.0285714 0.694293478,26.7657143 0.532608696,28.5580952 C0.44701087,29.2819048 0.214945652,29.9771429 0,30.6685714 L0,0 L0,0 Z" id="Shape" fill="#FFFFFF" sketch:type="MSShapeGroup"></path>
            <path d="M95.2228261,0 L97.2296196,0 C98.5611413,0.573333333 99.869837,1.5847619 100.261685,3.04190476 C100.853261,4.86095238 99.9516304,7.03047619 98.273913,7.92952381 C97.5282609,8.40761905 96.6152174,8.37333333 95.76875,8.47238095 C95.3217391,8.35047619 94.8728261,8.23619048 94.4220109,8.13904762 C93.4442935,7.41904762 92.2915761,6.60190476 92.105163,5.30666667 C91.9967391,4.32380952 92.0100543,3.31428571 92.2782609,2.35809524 C92.9839674,1.27809524 93.9940217,0.420952381 95.2228261,0 L95.2228261,0 Z" id="Shape" fill="#818181" sketch:type="MSShapeGroup"></path>
            <path d="M113.257337,2.20190476 C114.320652,1.97714286 115.418207,2.13142857 116.496739,2.11238095 C116.75163,2.22666667 117.010326,2.33333333 117.269022,2.44380952 C117.36413,2.46095238 117.554348,2.49333333 117.649457,2.50857143 C117.767391,2.56571429 118.007065,2.67619048 118.125,2.73333333 C118.121196,4.69904762 118.132609,6.66666667 118.119293,8.63428571 C117.74837,8.55428571 117.400272,8.40761905 117.069293,8.23238095 C116.888587,8.2 116.711685,8.16761905 116.534783,8.13333333 C116.038315,7.93714286 115.5,8 114.982609,8.00952381 C114.470924,8.27809524 113.974457,8.58285714 113.571196,9.00380952 C113.554076,9.10285714 113.521739,9.30285714 113.50462,9.40190476 C113.20788,10.5561905 113.441848,11.7714286 113.369565,12.952381 L117.36413,12.952381 L117.36413,18.4761905 L113.369565,18.4761905 L113.369565,31.4285714 L106.521739,31.4285714 L106.521739,18.4761905 L103.097826,18.4761905 C103.097826,16.6342857 103.095924,14.7942857 103.097826,12.952381 L106.521739,12.952381 C106.599728,11.52 106.358152,10.0533333 106.649185,8.64571429 C106.68913,8.47047619 106.729076,8.2952381 106.769022,8.12 C106.835598,7.85714286 106.892663,7.59238095 106.953533,7.32952381 C107.771467,5.39238095 109.373098,3.9047619 111.170652,2.87238095 C111.269565,2.86285714 111.471196,2.84761905 111.570109,2.84 C111.75462,2.72571429 111.93913,2.61142857 112.123641,2.49904762 C112.21875,2.48 112.407065,2.44380952 112.500272,2.42666667 C112.751359,2.34857143 113.004348,2.27809524 113.257337,2.20190476 L113.257337,2.20190476 Z" id="Shape" fill="#818181" sketch:type="MSShapeGroup"></path>
            <path d="M74.5652174,4.19047619 L81.7934783,4.19047619 L81.7934783,25.5238095 C84.6467391,25.5257143 87.5,25.5219048 90.3532609,25.5238095 L90.3532609,31.4285714 C85.0899457,31.4190476 79.8285326,31.432381 74.5652174,31.4285714 L74.5652174,4.19047619 L74.5652174,4.19047619 Z" id="Shape" fill="#818181" sketch:type="MSShapeGroup"></path>
            <path id="Shape" fill="#E4E4E4" sketch:type="MSShapeGroup" d="M61.7350543,4.4552381 C62.0032609,4.28952381 62.3970109,4.2952381 62.6690217,4.45142857 C62.5682065,4.72761905 61.8472826,4.72571429 61.7350543,4.4552381 L61.7350543,4.4552381 Z"></path>
            <path d="M4.60516304,4.56952381 C6.87255435,4.56761905 9.14184783,4.57904762 11.4092391,4.56380952 C12.0065217,5.80190476 12.4173913,7.11619048 12.9157609,8.39428571 C14.2016304,11.9238095 15.6434783,15.3980952 16.8456522,18.9561905 C17.9184783,16.5638095 18.7744565,14.0780952 19.8282609,11.6761905 C20.8078804,9.33333333 21.6581522,6.92571429 22.6777174,4.60761905 C24.9907609,4.51428571 27.311413,4.60190476 29.6282609,4.57142857 C30.0372283,6.9047619 30.394837,9.24571429 30.6915761,11.5980952 C30.9673913,13.3847619 31.3097826,15.1619048 31.5152174,16.96 C31.7263587,18.0304762 31.7701087,19.1238095 32.0154891,20.1866667 C32.2798913,22.16 32.6146739,24.1219048 32.911413,26.0895238 C33.0769022,27.9428571 33.5372283,29.7542857 33.7008152,31.6057143 C31.3535326,31.5733333 29.00625,31.6266667 26.6608696,31.5904762 C26.1453804,27.28 25.5842391,22.9771429 25.0649457,18.6685714 C24.9546196,17.8647619 24.9089674,17.0495238 24.6997283,16.2628571 C24.0910326,17.3314286 23.7220109,18.512381 23.2141304,19.6285714 C21.8236413,22.992381 20.4217391,26.3504762 19.0217391,29.7085714 C18.7535326,30.3333333 18.5880435,31.0133333 18.2095109,31.5847619 C17.2945652,31.6590476 16.3682065,31.6571429 15.455163,31.5828571 C15.1184783,31.0990476 15.017663,30.4971429 14.7855978,29.9638095 C13.2258152,26.0666667 11.6736413,22.1657143 10.1100543,18.2704762 C9.81521739,17.5314286 9.57554348,16.7657143 9.20271739,16.0590476 C9.08858696,18.1638095 8.44184783,20.1942857 8.34483696,22.2952381 C7.8673913,25.3980952 7.38994565,28.5028571 7,31.6190476 L0,31.6190476 L0,30.6685714 C0.214945652,29.9771429 0.44701087,29.2819048 0.532608696,28.5580952 C0.694293478,26.7657143 1.20788043,25.0285714 1.37717391,23.2361905 C1.56168478,21.5961905 2.01059783,20.0019048 2.18559783,18.3619048 C2.50896739,16.9238095 2.71820652,15.4666667 2.95788043,14.0133333 C3.20516304,12.1619048 3.63125,10.3371429 3.89375,8.48761905 C4.21521739,7.19619048 4.23233696,5.85142857 4.60516304,4.56952381 L4.60516304,4.56952381 Z" id="Shape" fill="#818181" sketch:type="MSShapeGroup"></path>
            <path d="M61.6304348,6.47619048 L68.4782609,6.47619048 L68.4782609,12.1904762 C69.5282609,12.2190476 70.5839674,12.1314286 71.630163,12.2247619 C71.9630435,12.2895238 71.8736413,12.7142857 71.9059783,12.9542857 C71.9021739,14.6038095 71.9002717,16.2552381 71.9021739,17.9047619 L68.4782609,17.9047619 C68.4896739,22.5390476 68.4554348,27.1733333 68.4953804,31.807619 C67.8505435,31.7961905 67.1961957,31.8571429 66.5646739,31.6990476 C65.8019022,31.4990476 65.0410326,31.9238095 64.280163,31.7542857 C63.863587,31.7066667 63.4298913,31.4609524 63.0209239,31.6609524 C62.5720109,31.8742857 62.0736413,31.7942857 61.5961957,31.807619 C61.676087,27.1752381 61.6076087,22.5390476 61.6304348,17.9047619 C60.5956522,17.9009524 59.5608696,17.92 58.526087,17.8838095 C58.286413,18.0647619 58.0372283,18.232381 57.7747283,18.3752381 C57.9668478,18.0495238 58.3206522,17.752381 58.2255435,17.327619 C58.1875,15.6152381 58.2141304,13.9028571 58.2065217,12.1904762 L61.6304348,12.1904762 L61.6304348,6.47619048 L61.6304348,6.47619048 Z" id="Shape" fill="#818181" sketch:type="MSShapeGroup"></path>
            <path d="M92.826087,11.047619 L99.673913,11.047619 L99.673913,31.607619 C98.3461957,31.5542857 97.0165761,31.6552381 95.6869565,31.5904762 C94.7663043,31.6647619 93.7961957,31.4190476 92.925,31.8095238 L92.826087,31.8095238 C92.8279891,24.8895238 92.8241848,17.967619 92.826087,11.047619 L92.826087,11.047619 Z" id="Shape" fill="#818181" sketch:type="MSShapeGroup"></path>
            <path d="M39.3027174,13.2457143 C40.9709239,12.2019048 42.8730978,11.3752381 44.8779891,11.4209524 C45.8309783,11.4419048 46.7858696,11.3847619 47.7369565,11.4609524 C49.1141304,11.5866667 50.388587,12.1333333 51.657337,12.64 C52.9375,13.4114286 54.1092391,14.4228571 54.851087,15.7409524 C56.1845109,17.8457143 56.6105978,20.3980952 56.492663,22.8571429 L42.2111413,22.8571429 C42.1502717,23.6990476 42.3271739,24.5180952 42.6657609,25.2857143 C42.9415761,25.5752381 43.2097826,25.8704762 43.5046196,26.1409524 C44.1266304,26.7561905 45.0453804,26.8438095 45.861413,27.0019048 C47.2861413,27.2761905 48.857337,26.6133333 49.5877717,25.3409524 C51.7847826,25.3257143 53.9836957,25.3314286 56.1807065,25.3390476 C55.9904891,26.0266667 55.7336957,26.6933333 55.4769022,27.3580952 C54.7807065,28.3028571 53.9817935,29.1695238 53.0953804,29.9371429 C51.788587,30.9904762 50.1032609,31.3142857 48.5434783,31.8095238 L44.3320652,31.8095238 C43.5122283,31.5771429 42.6695652,31.432381 41.8535326,31.1828571 C41.2296196,30.9657143 40.6513587,30.6304762 40.03125,30.4019048 C37.9350543,29.2114286 36.3353261,27.1885714 35.6923913,24.8571429 C35.2529891,23.6685714 35.3975543,22.3904762 35.3747283,21.1504762 C35.2872283,19.1161905 35.9815217,17.1028571 37.0657609,15.4019048 C37.75625,14.6342857 38.4714674,13.8647619 39.3027174,13.2457143 L39.3027174,13.2457143 Z" id="Shape" fill="#818181" sketch:type="MSShapeGroup"></path>
            <path d="M124.143478,12.4990476 C125.790761,11.6266667 127.691033,11.3371429 129.539946,11.4228571 C132.288587,11.2704762 135.088587,12.2590476 137.1125,14.1333333 C137.863859,14.8209524 138.326087,15.7485714 138.803533,16.632381 C139.478804,17.912381 139.705163,19.36 140,20.76 L140,22.8571429 L125.718478,22.8571429 C125.733696,23.4914286 125.689946,24.1504762 125.931522,24.752381 C127.082337,27.4819048 131.563859,27.9714286 133.093207,25.3409524 C135.290217,25.327619 137.48913,25.3314286 139.686141,25.3390476 C139.351359,26.5314286 138.88913,27.76 137.964674,28.6247619 C137.257065,29.3219048 136.585598,30.087619 135.68587,30.5428571 C134.613043,31.1561905 133.407065,31.44 132.241033,31.8095238 L127.654891,31.8095238 C126.121739,31.5333333 124.634239,31.0171429 123.26087,30.28 C120.871739,28.8038095 119.23587,26.2133333 118.897283,23.4247619 C118.863043,22.28 118.882065,21.1352381 118.889674,19.9904762 C118.904891,18.8895238 119.355707,17.8685714 119.719022,16.8495238 C120.710054,15.0057143 122.21087,13.3657143 124.143478,12.4990476 L124.143478,12.4990476 Z" id="Shape" fill="#818181" sketch:type="MSShapeGroup"></path>
            <path d="M45.1595109,15.9295238 C45.8519022,15.7390476 46.6032609,15.7333333 47.29375,15.9371429 C47.3831522,15.96 47.5619565,16.0057143 47.6532609,16.0285714 C48.6956522,16.4857143 49.5326087,17.3466667 50.0119565,18.3771429 C50.017663,18.4971429 50.0290761,18.7371429 50.0347826,18.8571429 L42.4108696,18.8571429 C42.4184783,18.6342857 42.426087,18.4114286 42.4336957,18.1885714 C42.7875,17.3466667 43.4342391,16.6990476 44.2122283,16.2419048 C44.4081522,16.1809524 44.6059783,16.1180952 44.8019022,16.0552381 C44.8913043,16.0228571 45.0701087,15.96 45.1595109,15.9295238 L45.1595109,15.9295238 Z" id="Shape" fill="#FFFFFF" sketch:type="MSShapeGroup"></path>
            <path d="M128.666848,15.9314286 C129.214674,15.7466667 129.798641,15.7942857 130.367391,15.8457143 C130.627989,15.9352381 130.898098,15.992381 131.172011,16.0495238 C132.223913,16.48 133.038043,17.3638095 133.517391,18.3809524 C133.523098,18.5009524 133.534511,18.7371429 133.540217,18.8571429 C130.91712,18.8533333 128.294022,18.8666667 125.672826,18.8495238 C125.952446,18.2438095 126.178804,17.5885714 126.631522,17.0819048 C127.070924,16.5771429 127.719565,16.3466667 128.295924,16.0419048 C128.38913,16.0133333 128.573641,15.9580952 128.666848,15.9314286 L128.666848,15.9314286 Z" id="Shape" fill="#FFFFFF" sketch:type="MSShapeGroup"></path>
            <path d="M125.718478,22.8571429 L140,22.8571429 L140,31.8095238 L132.241033,31.8095238 C133.407065,31.44 134.613043,31.1561905 135.68587,30.5428571 C136.585598,30.087619 137.257065,29.3219048 137.964674,28.6247619 C138.88913,27.76 139.351359,26.5314286 139.686141,25.3390476 C137.48913,25.3314286 135.290217,25.327619 133.093207,25.3409524 C131.563859,27.9714286 127.082337,27.4819048 125.931522,24.752381 C125.689946,24.1504762 125.733696,23.4914286 125.718478,22.8571429 L125.718478,22.8571429 Z" id="Shape" fill="#FFFFFF" sketch:type="MSShapeGroup"></path>
            <path id="Shape" fill="#818181" sketch:type="MSShapeGroup" d="M89.8986413,31.7428571 L89.9519022,31.7428571 L89.9785326,31.8095238 L89.8777174,31.8095238 L89.8986413,31.7428571 L89.8986413,31.7428571 Z"></path>
        </g>
    </g>
</svg>