<?xml version="1.0" encoding="UTF-8" standalone="no"?>
<svg width="140px" height="116px" viewBox="0 0 140 116" version="1.1" xmlns="http://www.w3.org/2000/svg" xmlns:xlink="http://www.w3.org/1999/xlink" xmlns:sketch="http://www.bohemiancoding.com/sketch/ns">
    <!-- Generator: Sketch 3.1.1 (8761) - http://www.bohemiancoding.com/sketch -->
    <title>NASA_default</title>
    <desc>Created with Sketch.</desc>
    <defs></defs>
    <g id="Clients" stroke="none" stroke-width="1" fill="none" fill-rule="evenodd" sketch:type="MSPage">
        <g sketch:type="MSArtboardGroup" transform="translate(-235.000000, -1323.000000)" id="Group">
            <g sketch:type="MSLayerGroup" transform="translate(235.000000, 972.000000)">
                <g id="NASA" transform="translate(0.000000, 351.000000)" sketch:type="MSShapeGroup">
                    <g id="NASA_default">
                        <path d="M122.627273,58 C122.627273,89.7613898 96.5686713,115.901695 64.9041958,115.901695 C33.2402098,115.901695 7.18111888,89.7599153 7.18111888,58 C7.18111888,26.2366441 32.6307692,0.0983050847 64.9041958,0.0983050847 C95.9572727,0.0983050847 122.627273,26.2381186 122.627273,58" id="Shape" fill="#F3F1EF"></path>
                        <path d="M77.9251748,88.4745763 C102.586224,98.6609492 98.3064336,72.9192712 85.1611189,53.2091017 C77.7107692,42.0426271 67.993986,32.7395254 61.8653147,28.2494407 C41.5442657,13.3572034 28.9995804,22.3894746 43.3490909,51.7591017 C47.9885245,61.2548814 53.9474825,67.6638814 58.6017483,73.7047288 C62.1560839,78.3166136 69.0792308,80.6258983 66.6404895,82.814661 C63.8921818,85.2824627 57.2374825,74.3977797 57.2374825,74.3977797 C52.3227972,68.4454068 47.6381818,62.0948983 42.8101399,53.3801525 C31.779021,33.4738644 33.3694406,13.1571525 53.3360839,22.0070678 C70.2804895,29.5215085 86.4651748,50.5971356 92.9722378,65.5640847 C95.9778811,72.4744407 104.172238,99.8194746 78.073007,88.7640847" id="Shape" fill="#FFFFFF"></path>
                        <path d="M1.2365035,75.1640678 C12.0855245,67.9091525 22.3716084,63.2249153 39.876014,57.42 C64.4734266,49.260678 82.9867133,43.7762373 105.70049,32.3118983 C115.867622,27.1813559 133.50958,15.6752373 139.819371,5.67220339 C137.92986,9.54345763 132.08021,17.0785424 129.431958,20.4115763 C98.6123776,59.16 32.9641259,56.9628814 1.66972028,75.5656441" id="Shape" fill="#F3F1EF"></path>
                        <path d="M16.9752448,46.8438475 C26.9044755,46.9220786 25.9303497,46.8238325 26.0463636,46.9406288 C26.2199294,46.9406288 33.9744755,60.3504254 33.9744755,60.4659339 C33.9744755,60.523231 33.9164979,55.7005458 33.9164979,49.6690864 C33.9164979,48.9724966 32.0076517,46.9408746 32.0647287,46.9408746 C34.8987986,46.9408746 38.6031203,46.9990908 38.6031203,46.9990908 C37.2151622,48.6245163 36.9379035,48.4912146 36.926351,49.4955485 C36.8872147,52.7256569 36.8506336,58.6949383 36.926351,65.4003281 C36.9371399,66.4053993 37.6787776,66.7934586 38.8938895,68.5351298 L29.8075958,68.5351298 C26.8562881,63.6011976 21.4482252,54.3452824 21.4751483,54.3713332 C21.5166636,54.4137519 21.3586448,60.1772315 21.5316622,64.8196892 C21.5901881,66.3540349 22.2846273,66.8511637 23.5584804,68.2450315 C23.5584804,68.2450315 25.0236343,68.205562 16.4400189,68.3025105 C19.0440189,66.90938 18.6981797,65.1682495 18.696907,65.1102003 C18.6032685,58.6948105 18.6775224,53.2098783 18.6775224,49.6689292 C18.6775224,49.0886342 18.6382,49.1458969 16.8451378,46.9407173" id="Shape" fill="#FFFFFF"></path>
                        <path d="M48.020979,56.7515254 C48.8547622,53.8453322 49.566951,51.2479153 49.904958,49.5546102 C49.9622014,49.2640842 49.2684965,48.2196763 48.168958,47.1743983 L48.0910476,47.0122392 C53.3929357,47.0295015 58.9317469,47.0581525 58.9317469,47.0581525 C60.3784462,50.5992 63.6768657,60.5244746 66.1652434,66.6198814 C66.8232923,68.2310034 67.9592503,68.5351102 67.9592503,68.5351102 C63.4454741,68.4778131 55.0689706,68.5165797 55.1135161,68.4778131 C57.3696699,66.4448639 57.0803203,66.4448639 56.096551,63.4853893 L49.0373203,63.4853893 C47.590621,66.8512571 49.4881497,68.4316097 49.7310545,68.4193215 C48.1243343,68.5025122 42.6718238,68.4193215 42.6718238,68.4193215 C45.6231315,66.3289131 45.4488657,65.6911097 45.4488657,65.6911097 C46.2597888,62.7950419 47.1991594,59.6222453 48.0214392,56.7497707 L50.9177259,56.7502622 C50.2955091,58.7540147 49.6733413,60.7560961 49.6733413,60.7560961 L55.2880266,60.7560961 L52.1624042,52.7452147 C-0.93006993,-0.983050847 51.5401874,54.7480334 50.9178238,56.7501639 L48.0215371,56.7496724" id="Shape" fill="#FFFFFF"></path>
                        <path d="M96.5167832,57.0415254 C97.348951,54.1360695 98.062021,51.5379153 98.3992937,49.8436271 C98.4563559,49.5545708 97.7619021,48.5101678 96.6630979,47.4641525 L96.5846392,47.3027307 C101.887996,47.3199931 107.428276,47.3486441 107.428276,47.3486441 C108.872772,50.8896915 112.171926,60.8154576 114.659814,66.9103729 C115.317129,68.5222322 116.453087,68.826339 116.453087,68.826339 C111.941513,68.7675722 103.564765,68.8078085 103.607842,68.7675722 C105.865464,66.7368349 105.576115,66.7368349 104.592345,63.7761315 L97.5316462,63.7761315 C96.0848,67.1426875 97.9815601,68.7223519 98.2245972,68.7110468 C96.6191986,68.7935002 91.1658559,68.7110468 91.1658559,68.7110468 C94.1164294,66.6206383 93.9434364,65.9820976 93.9434364,65.9820976 C94.7543594,63.0854892 95.6938769,59.9137247 96.5168909,57.0417417 L99.4124434,57.0417417 C98.788807,59.0452976 98.1693315,61.0481163 98.1693315,61.0481163 L103.78108,61.0481163 L100.655653,53.0372349 C-0.93006993,-0.983050847 100.035443,55.0393163 99.4125413,57.0415942 L96.5169888,57.0415942" id="Shape" fill="#FFFFFF"></path>
                        <path d="M87.3874126,52.2835593 C87.2716385,48.160939 87.3874126,46.8261525 87.3874126,46.8261525 C85.5926713,48.2780695 86.498021,48.0929119 82.0062238,47.3489881 C69.0611189,45.2042169 68.0747552,57.3392424 75.1193007,60.0613102 C81.0325874,62.3467559 83.1281818,62.7944864 82.2362937,64.9365542 C81.9469587,65.6345695 76.5658042,68.188339 71.0113287,63.0218661 L71.1256392,70.2197644 C71.8200587,69.5016949 73.7311077,68.1882898 73.7311077,68.1882898 C73.7881699,68.1882898 79.7520867,70.8267 85.129849,68.0713068 C93.4064923,63.8346034 89.2756601,56.9765949 80.4432266,54.2564932 C73.0937161,51.9923305 80.0381175,46.7096119 87.3286811,52.3410678" id="Shape" fill="#FFFFFF"></path>
                        <path d="M65.7167832,5.35664407 C65.7167832,5.61631695 65.5053636,5.82934407 65.2467503,5.82934407 C64.9896056,5.82934407 64.7767175,5.61631695 64.7767175,5.35664407 C64.7767175,5.09917322 64.9896056,4.88540881 65.2467503,4.88540881 C65.5053636,4.88540881 65.7167832,5.09917322 65.7167832,5.35664407" id="Shape" fill="#FFFFFF"></path>
                        <path d="M68.9769231,12.5044068 C68.9769231,12.8228464 68.7139238,13.0847017 68.3982727,13.0847017 C68.0804091,13.0847017 67.8188881,12.8228268 67.8188881,12.5044068 C67.8188881,12.1866995 68.0804238,11.9248 68.3982727,11.9248 C68.7139434,11.9248 68.9769231,12.1866798 68.9769231,12.5044068" id="Shape" fill="#FFFFFF"></path>
                        <path d="M77.4356643,24.186 C77.4356643,24.5038892 77.1750441,24.7662949 76.857014,24.7662949 C76.5406091,24.7662949 76.2783636,24.5038646 76.2783636,24.186 C76.2783636,23.8675603 76.5212441,23.6049678 76.8392937,23.6049678 C77.1571573,23.6049678 77.4357133,23.86758 77.4357133,24.186" id="Shape" fill="#FFFFFF"></path>
                        <path d="M63.8370629,16.5314746 C63.8370629,16.7904151 63.6256385,17.0027049 63.3670301,17.0027049 C63.1089699,17.0027049 62.8960818,16.7904102 62.8960818,16.5314746 C62.8960818,16.2730846 63.1089699,16.0593251 63.3670301,16.0593251 C63.6256385,16.0593251 63.8370629,16.2730895 63.8370629,16.5314746" id="Shape" fill="#FFFFFF"></path>
                        <path d="M68.9034965,19.216678 C68.9034965,19.4741488 68.6911615,19.6879083 68.4340168,19.6879083 C68.1761378,19.6879083 67.9632497,19.4741439 67.9632497,19.216678 C67.9632497,18.9584747 68.1761378,18.7452608 68.4340168,18.7452608 C68.6911615,18.7452608 68.9034965,18.9584747 68.9034965,19.216678" id="Shape" fill="#FFFFFF"></path>
                        <path d="M62.3195804,11.705678 C62.3195804,12.0242995 62.0582259,12.2859729 61.7409301,12.2859729 C61.4237958,12.2859729 61.1622797,12.0242798 61.1622797,11.705678 C61.1622797,11.3872383 61.4238154,11.1246458 61.7409301,11.1246458 C62.0582455,11.1246458 62.3195804,11.387258 62.3195804,11.705678" id="Shape" fill="#FFFFFF"></path>
                        <path d="M54.6538462,16.3864746 C54.6538462,16.6454151 54.4416923,16.8584422 54.1830839,16.8584422 C53.9252049,16.8584422 53.713051,16.6454151 53.713051,16.3864746 C53.713051,16.1280846 53.9252049,15.9143251 54.1830839,15.9143251 C54.4416923,15.9143251 54.6538462,16.1280895 54.6538462,16.3864746" id="Shape" fill="#FFFFFF"></path>
                        <path d="M56.0244755,17.3287288 C56.0244755,17.5885885 55.8123217,17.8016156 55.5537133,17.8016156 C55.2958343,17.8016156 55.082951,17.5885885 55.082951,17.3287288 C55.082951,17.0705256 55.2958343,16.8582308 55.5537133,16.8582308 C55.8123217,16.8582308 56.0244755,17.0705256 56.0244755,17.3287288" id="Shape" fill="#FFFFFF"></path>
                        <path d="M57.4,18.2724576 C57.4,18.5321305 57.1878413,18.7451576 56.9297811,18.7451576 C56.671907,18.7451576 56.4590189,18.5321305 56.4590189,18.2724576 C56.4590189,18.0149868 56.671907,17.8019597 56.9297811,17.8019597 C57.1878413,17.8019597 57.4,18.0149868 57.4,18.2724576" id="Shape" fill="#FFFFFF"></path>
                        <path d="M55.3048951,20.0871695 C55.3048951,20.34611 55.0912776,20.5591371 54.834128,20.5591371 C54.5755196,20.5591371 54.3631846,20.34611 54.3631846,20.0871695 C54.3631846,19.8289663 54.5755196,19.6159392 54.834128,19.6159392 C55.0912776,19.6159392 55.3048951,19.8289663 55.3048951,20.0871695" id="Shape" fill="#FFFFFF"></path>
                        <path d="M44.380979,27.7780678 C44.380979,28.0370083 44.1680909,28.2493031 43.9102168,28.2493031 C43.6523378,28.2493031 43.4394545,28.0370083 43.4394545,27.7780678 C43.4394545,27.5191273 43.6523427,27.3059183 43.9102168,27.3059183 C44.1680958,27.3059183 44.380979,27.5191322 44.380979,27.7780678" id="Shape" fill="#FFFFFF"></path>
                        <path d="M46.4055944,30.2460169 C46.4055944,30.5044069 46.1927063,30.7174341 45.9348322,30.7174341 C45.6769531,30.7174341 45.4640699,30.5044069 45.4640699,30.2460169 C45.4640699,29.9863441 45.676958,29.7740493 45.9348322,29.7740493 C46.1927112,29.7740493 46.4055944,29.9863441 46.4055944,30.2460169" id="Shape" fill="#FFFFFF"></path>
                        <path d="M44.7960839,70.0816949 C44.7960839,70.3408173 44.5839301,70.553112 44.3258699,70.553112 C44.0679909,70.553112 43.8558371,70.3408173 43.8558371,70.0816949 C43.8558371,69.8234917 44.0679909,69.6097273 44.3258699,69.6097273 C44.5839301,69.6097273 44.7960839,69.8234917 44.7960839,70.0816949" id="Shape" fill="#FFFFFF"></path>
                        <path d="M45.0853846,81.0722034 C45.0853846,81.3906431 44.823849,81.6518102 44.5067343,81.6518102 C44.1894189,81.6518102 43.9280839,81.3906676 43.9280839,81.0722034 C43.9280839,80.7535819 44.1894385,80.4919085 44.5067343,80.4919085 C44.8238685,80.4919085 45.0853846,80.7536015 45.0853846,81.0722034" id="Shape" fill="#FFFFFF"></path>
                        <path d="M38.8632168,86.7001695 C38.8632168,86.9576403 38.6510629,87.1713998 38.3939133,87.1713998 C38.1360343,87.1713998 37.923151,86.9576403 37.923151,86.7001695 C37.923151,86.4404966 38.1360392,86.22802 38.3939133,86.22802 C38.651058,86.22802 38.8632168,86.4404966 38.8632168,86.7001695" id="Shape" fill="#FFFFFF"></path>
                        <path d="M31.4138462,88.9808475 C31.4138462,89.2992871 31.1508469,89.5604542 30.8344615,89.5604542 C30.5171462,89.5604542 30.2558112,89.2993117 30.2558112,88.9808475 C30.2558112,88.6616705 30.5171657,88.3998153 30.8344615,88.3998153 C31.1508664,88.3998153 31.4138462,88.6616902 31.4138462,88.9808475" id="Shape" fill="#FFFFFF"></path>
                        <path d="M29.8944056,83.9033898 C29.8944056,84.2203647 29.633051,84.4829966 29.3164895,84.4829966 C28.9993552,84.4829966 28.7378392,84.2203844 28.7378392,83.9033898 C28.7378392,83.5842178 28.9993748,83.3223576 29.3164895,83.3223576 C29.6330755,83.3223576 29.8944056,83.5842375 29.8944056,83.9033898" id="Shape" fill="#FFFFFF"></path>
                        <path d="M29.0274825,87.1327119 C29.0274825,87.3916524 28.8145944,87.6039471 28.5567203,87.6039471 C28.2988413,87.6039471 28.085772,87.3916524 28.085772,87.1327119 C28.085772,86.8745086 28.2988413,86.6607442 28.5567203,86.6607442 C28.8145993,86.6607442 29.0274825,86.8745086 29.0274825,87.1327119" id="Shape" fill="#FFFFFF"></path>
                        <path d="M23.4563636,84.4489831 C23.4563636,84.7071863 23.2442098,84.9209507 22.9870601,84.9209507 C22.7284517,84.9209507 22.5161119,84.7071863 22.5161119,84.4489831 C22.5161119,84.1907749 22.7284517,83.9775659 22.9870601,83.9775659 C23.2442049,83.9775659 23.4563636,84.1907749 23.4563636,84.4489831" id="Shape" fill="#FFFFFF"></path>
                        <path d="M42.9144056,93.5176271 C42.9144056,93.7767495 42.7199916,93.9897766 42.4628469,93.9897766 C42.2049678,93.9897766 41.9741587,93.7767495 41.9741587,93.5176271 C41.9741587,93.2594239 42.1870469,93.0456595 42.4441916,93.0456595 C42.7028,93.0456595 42.9144056,93.2594239 42.9144056,93.5176271" id="Shape" fill="#FFFFFF"></path>
                        <path d="M48.7748252,89.2020339 C48.7748252,89.5212108 48.5319448,89.7830661 48.2138951,89.7830661 C47.8967608,89.7830661 47.6174755,89.5211912 47.6174755,89.2020339 C47.6174755,88.884882 47.8788301,88.6224271 48.1961259,88.6224271 C48.5139944,88.6224271 48.7748252,88.8848575 48.7748252,89.2020339" id="Shape" fill="#FFFFFF"></path>
                        <path d="M49.4454545,94.7513559 C49.4454545,95.0102964 49.2139161,95.2242427 48.9575007,95.2242427 C48.6988923,95.2242427 48.4867385,95.0102964 48.4867385,94.7513559 C48.4867385,94.4931527 48.6988923,94.280858 48.9575007,94.280858 C49.2139161,94.280858 49.4454545,94.4931527 49.4454545,94.7513559" id="Shape" fill="#FFFFFF"></path>
                        <path d="M73.5293706,89.4527119 C73.5293706,89.7110969 73.3172168,89.9248614 73.060072,89.9248614 C72.8007294,89.9248614 72.5885755,89.7110969 72.5885755,89.4527119 C72.5885755,89.1937714 72.8007294,88.9814766 73.060072,88.9814766 C73.3172168,88.9814766 73.5293706,89.1937714 73.5293706,89.4527119" id="Shape" fill="#FFFFFF"></path>
                        <path d="M62.3195804,93.4438983 C62.3195804,93.7028339 62.1081559,93.9151286 61.8495476,93.9151286 C61.5923979,93.9151286 61.3795147,93.7028339 61.3795147,93.4438983 C61.3795147,93.1856902 61.5923979,92.9719307 61.8495476,92.9719307 C62.1081559,92.9719307 62.3195804,93.1856902 62.3195804,93.4438983" id="Shape" fill="#FFFFFF"></path>
                        <path d="M92.4832168,99.18 C92.4832168,99.4382376 92.2703287,99.6513041 92.0131839,99.6513041 C91.7545755,99.6513041 91.5416874,99.4382376 91.5416874,99.18 C91.5416874,98.9210202 91.7545755,98.7079734 92.0131839,98.7079734 C92.2703287,98.7079734 92.4832168,98.9210202 92.4832168,99.18" id="Shape" fill="#FFFFFF"></path>
                        <path d="M94.9405594,76.8647458 C94.9405594,77.1831854 94.6799392,77.445778 94.3619091,77.445778 C94.0440406,77.445778 93.7832587,77.1831658 93.7832587,76.8647458 C93.7832587,76.5461193 94.0440601,76.2837136 94.3619091,76.2837136 C94.6799587,76.2837136 94.9405594,76.546139 94.9405594,76.8647458" id="Shape" fill="#FFFFFF"></path>
                        <path d="M90.3146853,80.020339 C90.3146853,80.2787241 90.1025315,80.4924885 89.8431888,80.4924885 C89.5858629,80.4924885 89.3737042,80.2787241 89.3737042,80.020339 C89.3737042,79.7613985 89.5858629,79.5491037 89.8431888,79.5491037 C90.1025315,79.5491037 90.3146853,79.7613985 90.3146853,80.020339" id="Shape" fill="#FFFFFF"></path>
                        <path d="M94.872028,80.929661 C94.872028,81.2481007 94.6112266,81.5106932 94.2933776,81.5106932 C93.9753329,81.5106932 93.7147273,81.248081 93.7147273,80.929661 C93.7147273,80.6117719 93.9753524,80.3493661 94.2933776,80.3493661 C94.6112462,80.3493661 94.872028,80.6117964 94.872028,80.929661" id="Shape" fill="#FFFFFF"></path>
                        <path d="M90.3146853,86.5527119 C90.3146853,86.8109151 90.1025315,87.0239422 89.8431888,87.0239422 C89.5858629,87.0239422 89.3737042,86.8109151 89.3737042,86.5527119 C89.3737042,86.2937714 89.5858629,86.0805575 89.8431888,86.0805575 C90.1025315,86.0805575 90.3146853,86.2937714 90.3146853,86.5527119" id="Shape" fill="#FFFFFF"></path>
                        <path d="M102.102098,73.7091525 C102.102098,73.9680931 101.889215,74.1813069 101.631884,74.1813069 C101.374739,74.1813069 101.162585,73.9680931 101.162585,73.7091525 C101.162585,73.4502169 101.374739,73.2379222 101.631884,73.2379222 C101.889215,73.2379222 102.102098,73.4502169 102.102098,73.7091525" id="Shape" fill="#FFFFFF"></path>
                        <path d="M103.242657,76.5747458 C103.242657,76.8939178 103.001241,77.155778 102.683392,77.155778 C102.365347,77.155778 102.086776,76.8938981 102.086776,76.5747458 C102.086776,76.2561193 102.347578,75.995139 102.664007,75.995139 C102.981876,75.995139 103.242657,76.2560947 103.242657,76.5747458" id="Shape" fill="#FFFFFF"></path>
                        <path d="M111.363636,79.9859322 C111.363636,80.3043719 111.104299,80.5662271 110.784986,80.5662271 C110.466941,80.5662271 110.206336,80.3043522 110.206336,79.9859322 C110.206336,79.6682249 110.466961,79.4049 110.784986,79.4049 C111.104318,79.4049 111.363636,79.6682446 111.363636,79.9859322" id="Shape" fill="#FFFFFF"></path>
                        <path d="M103.115385,86.0464407 C103.115385,86.3046488 102.901033,86.5178578 102.643707,86.5178578 C102.386557,86.5178578 102.173674,86.3046488 102.173674,86.0464407 C102.173674,85.7867678 102.386557,85.5744731 102.643707,85.5744731 C102.901033,85.5744731 103.115385,85.7867678 103.115385,86.0464407" id="Shape" fill="#FFFFFF"></path>
                        <path d="M108.323776,81.1115254 C108.323776,81.370461 108.111622,81.5827558 107.854478,81.5827558 C107.597333,81.5827558 107.384445,81.370461 107.384445,81.1115254 C107.384445,80.8525849 107.597333,80.6395578 107.854478,80.6395578 C108.111622,80.6395578 108.323776,80.8525849 108.323776,81.1115254" id="Shape" fill="#FFFFFF"></path>
                        <path d="M107.364336,88.7301695 C107.364336,88.9892919 107.152182,89.2015866 106.895037,89.2015866 C106.635694,89.2015866 106.423541,88.9892919 106.423541,88.7301695 C106.423541,88.4719663 106.635694,88.2582019 106.895037,88.2582019 C107.152182,88.2582019 107.364336,88.4719663 107.364336,88.7301695" id="Shape" fill="#FFFFFF"></path>
                        <path d="M109.572028,76.0684746 C109.572028,76.4666151 109.244653,76.7936712 108.848336,76.7936712 C108.451827,76.7936712 108.125182,76.4666003 108.125182,76.0684746 C108.125182,75.6703341 108.451827,75.343278 108.848336,75.343278 C109.244663,75.343278 109.572028,75.6703488 109.572028,76.0684746" id="Shape" fill="#FFFFFF"></path>
                        <path d="M108.847552,73.8566102 L108.631742,75.8517119 L106.659994,76.0696936 L108.647504,76.2863973 L108.865327,78.3551295 L109.083335,76.2863973 L111.035699,76.0331486 L109.065419,75.8517119 L108.847597,73.8566102" id="Shape" fill="#FFFFFF"></path>
                        <path d="M104.505594,88.6908475 C104.505594,89.0889929 104.17913,89.4160441 103.782636,89.4160441 C103.386128,89.4160441 103.058944,89.0889732 103.058944,88.6908475 C103.058944,88.2927069 103.386143,87.9656508 103.782636,87.9656508 C104.179145,87.9656508 104.505594,88.2927217 104.505594,88.6908475" id="Shape" fill="#FFFFFF"></path>
                        <path d="M103.786014,86.4789831 L103.568187,88.4740847 L101.597711,88.6920714 L103.585907,88.9102398 L103.80391,90.9775466 L104.021738,88.9102398 L105.973563,88.6562588 L104.001815,88.4740847 L103.786004,86.4789831" id="Shape" fill="#FFFFFF"></path>
                        <path d="M50.5468531,28.7566949 C50.5468531,29.1548354 50.2203937,29.4818915 49.8238951,29.4818915 C49.4259182,29.4818915 49.1002028,29.1548207 49.1002028,28.7566949 C49.1002028,28.3585544 49.4259329,28.0314983 49.8238951,28.0314983 C50.2204035,28.0314983 50.5468531,28.3585692 50.5468531,28.7566949" id="Shape" fill="#FFFFFF"></path>
                        <path d="M49.8223776,26.5438475 L49.6050986,28.5388017 L47.6333503,28.7569702 L49.6230147,28.973669 L49.8402888,31.0424503 L50.0566524,28.973669 L52.0099462,28.7211576 L50.0381979,28.5387968 L49.8223874,26.5438425" id="Shape" fill="#FFFFFF"></path>
                        <path d="M77.4552448,11.1984237 C77.4552448,11.5965642 77.128051,11.9243576 76.7315524,11.9243576 C76.3350441,11.9243576 76.0100629,11.5965495 76.0100629,11.1984237 C76.0100629,10.8002832 76.3350636,10.4724898 76.7315524,10.4724898 C77.1280608,10.4724898 77.4552448,10.800298 77.4552448,11.1984237" id="Shape" fill="#FFFFFF"></path>
                        <path d="M76.7307692,8.98361017 L76.5149538,10.9793017 L74.5432056,11.1974702 L76.5328699,11.4154568 L76.7486804,13.4836483 L76.9665077,11.4154568 L78.9190671,11.1607434 L76.9473189,10.9793017 L76.7307741,8.98361017" id="Shape" fill="#FFFFFF"></path>
                        <path d="M44.7412587,100.305593 C44.7412587,100.703734 44.4147944,101.030839 44.0183007,101.030839 C43.6203287,101.030839 43.2938741,100.703729 43.2938741,100.305593 C43.2938741,99.9081703 43.6203385,99.5796102 44.0183007,99.5796102 C44.4148091,99.5796102 44.7412587,99.9081507 44.7412587,100.305593" id="Shape" fill="#FFFFFF"></path>
                        <path d="M44.0353846,98.0888136 L43.819021,100.084505 L41.8478112,100.30258 L43.8369371,100.519943 L44.0540301,102.588134 L44.2705748,100.519943 L46.2236727,100.266718 L44.2526587,100.084505 L44.0353846,98.0888136" id="Shape" fill="#FFFFFF"></path>
                        <path d="M139.813986,5.67269492 C131.017483,31.8768983 95.7776224,52.1115254 66.1132867,71.4289661 C48.2172727,83.085 30.4495105,96.5021695 18.2176224,107.919322 C14.9934126,110.930161 18.8745944,106.793778 17.638972,108.064956 C34.7091818,88.3287358 54.3454056,76.5734137 65.1963846,69.1744815 C83.5476434,56.6558205 93.9854755,53.5007188 125.646035,24.2180917" id="Shape" fill="#F3F1EF"></path>
                        <path d="M8.57377622,70.5928814 C5.41467133,72.1446763 2.58461538,73.6780881 0.183566434,75.1748322 L1.64455944,75.708678 C3.74436364,74.4101169 6.26548951,73.0557678 8.92113287,71.8620492" id="Shape" fill="#F3F1EF"></path>
                        <path d="M25.2523776,99.9172881 C22.3645105,102.448103 19.3797203,105.149576 16.3858741,107.981254 L16.2536427,109.982058 C18.9948035,107.146939 22.3622441,104.084736 26.2484678,100.835753" id="Shape" fill="#F3F1EF"></path>
                        <path d="M77.9251748,88.4745763 C102.586224,98.6609492 98.3064336,72.9192712 85.1611189,53.2091017 C77.7107692,42.0426271 68.5226573,33.1843559 61.8653147,28.2494407 C54.0918881,22.4863051 53.3331469,22.0085424 53.3331469,22.0085424 C70.6921678,30.2814068 86.4622378,50.5981186 92.9693007,65.5655593 C95.9749441,72.4759153 104.169301,99.8209492 78.0700699,88.7655593" id="Shape" fill="#FFFFFF"></path>
                    </g>
                </g>
            </g>
        </g>
    </g>
</svg>