<?xml version="1.0" encoding="UTF-8" standalone="no"?>
<svg width="140px" height="137px" viewBox="0 0 140 137" version="1.1" xmlns="http://www.w3.org/2000/svg" xmlns:xlink="http://www.w3.org/1999/xlink" xmlns:sketch="http://www.bohemiancoding.com/sketch/ns">
    <!-- Generator: Sketch 3.1.1 (8761) - http://www.bohemiancoding.com/sketch -->
    <title>ncaa_default</title>
    <desc>Created with Sketch.</desc>
    <defs></defs>
    <g id="Clients" stroke="none" stroke-width="1" fill="none" fill-rule="evenodd" sketch:type="MSPage">
        <g sketch:type="MSArtboardGroup" transform="translate(-650.000000, -1126.000000)" id="Group">
            <g sketch:type="MSLayerGroup" transform="translate(235.000000, 972.000000)">
                <g id="NCAA" transform="translate(415.000000, 154.000000)">
                    <g id="ncaa_default">
                        <path d="M137.190693,68.4999695 C137.190693,106.331491 106.47951,136.999998 68.5953464,136.999998 C30.7111827,136.999998 4.63947199e-15,106.331491 0,68.4999695 C1.05917546e-14,30.6684483 30.7111827,-5.91590781e-05 68.5953464,-5.91590781e-05 C106.47951,-5.91590781e-05 137.190693,30.6684483 137.190693,68.4999695 L137.190693,68.4999695 Z" id="path5522" fill="#FFFFFF" sketch:type="MSShapeGroup"></path>
                        <path d="M58.368491,136.299079 C42.4176584,133.695443 29.6700563,127.078268 18.867792,115.794607 C9.8740113,106.400017 3.8889517,94.9688348 1.0827172,81.8259386 C-0.125014194,76.1695733 -0.125014194,60.8304267 1.0827172,55.1740614 C4.06124394,41.2242426 10.1174544,30.0498549 20.1045619,20.0766253 C30.0597118,10.1353091 40.7720661,4.36829569 54.9679987,1.3078374 C61.8175478,-0.168836378 75.3906508,-0.164839508 82.2621318,1.31587471 C106.538455,6.54710562 125.728681,23.5148245 133.396959,46.5285455 C138.565351,62.0397206 138.27041,77.392179 132.500542,93.1894293 C131.673694,95.4532538 130.86338,97.171865 130.699852,97.0085638 C130.536318,96.8452626 129.980851,90.3640264 129.465473,82.6058239 L128.528428,68.5 L119.822301,68.3730576 L111.116174,68.2461152 L110.187613,71.6460951 L109.259053,75.0460751 L110.565693,75.2798635 L111.872338,75.5136519 L107.692233,82.059727 C105.39318,85.6600683 103.428006,88.8162116 103.325188,89.0733788 C102.826249,90.3212805 102.56887,88.2574901 102.027411,78.6671955 L101.440184,68.2662116 L92.6395264,68.2662116 L83.8388689,68.2662116 L83.0867926,70.9547782 C82.6731512,72.4334898 82.2316595,74.0115614 82.1057064,74.4616041 C81.9304441,75.0878063 82.1588455,75.2798635 83.078814,75.2798635 C83.7399839,75.2798635 84.2809365,75.4175695 84.2809365,75.5858785 C84.2809365,75.7541874 81.6998328,79.8487013 78.5451505,84.6847966 L72.8093645,93.4776997 L67.3769338,93.496529 C62.4777157,93.5135114 61.7883445,93.4105089 60.3535224,92.4471184 C58.4492977,91.1685577 57.5194074,88.8362099 57.8989431,86.2905395 C58.7713632,80.4388533 63.4662515,75.2798635 67.9190943,75.2798635 C69.3640348,75.2798635 69.3765177,75.3002639 69.0635452,77.1501706 L68.7471171,79.0204778 L72.7042943,79.0204778 L76.6614716,79.0204778 L77.9295438,74.4616041 C78.6269826,71.9542235 79.3074435,69.5175313 79.4416843,69.0467329 C79.6730074,68.2354497 79.2371298,68.1988151 71.0970569,68.3453677 C62.6208997,68.4979754 62.4684635,68.5188808 59.4635438,69.9409828 C55.9652997,71.5965507 52.4419211,74.8860703 50.8045251,78.0252687 C49.2805478,80.9470204 49.352889,80.1883724 51.2128054,73.7435277 L52.7935037,68.2662116 L47.1123926,68.2662116 L41.4312788,68.2662116 L40.4540839,71.7491537 L39.4768896,75.2320912 L40.9795601,75.3728739 L42.4822307,75.5136519 L40.9593566,80.7992054 C40.1217755,83.7062566 39.3521678,86.1689555 39.2491166,86.2718598 C39.1460654,86.3747687 37.3093773,82.365597 35.167587,77.3625908 L31.2734224,68.2662116 L25.9575419,68.2662116 L20.6416609,68.2662116 L19.6853789,71.4727644 C19.1594237,73.2363705 18.729097,74.8144422 18.729097,74.9795903 C18.729097,75.1447431 19.361204,75.2798635 20.1337793,75.2798635 C20.9063545,75.2798635 21.5384615,75.3822815 21.5384615,75.5074565 C21.5384615,75.6326315 20.1840992,80.6298584 18.5287668,86.6124053 C16.8734349,92.5949522 15.375677,98.0683874 15.2004153,98.7755973 L14.8817584,100.061433 L19.0726233,100.061433 L23.2634886,100.061433 L25.3266574,92.3464164 C26.4614,88.103157 27.4955098,84.634504 27.6246787,84.6382914 C27.7538482,84.6420834 29.2559021,88.0612387 30.962577,92.2364143 L34.0656222,99.8276451 L38.9224432,99.9574397 L43.7792642,100.087234 L45.8378738,92.7099994 C46.9701077,88.6525223 48.0236194,85.1857303 48.17901,85.0060172 C48.3344007,84.8263087 48.4725371,86.4043804 48.4859846,88.5128431 C48.5145512,92.9925233 49.5475077,95.4955133 52.2020856,97.5174463 C55.1838047,99.7885556 56.5790381,100.018809 67.4929933,100.040912 L77.6281318,100.061433 L79.1304348,97.7235495 L80.6327378,95.3856655 L87.1391137,95.3856655 L93.6454849,95.3856655 L93.6454849,97.7235495 L93.6454849,100.061433 L99.237202,100.061433 L104.828924,100.061433 L106.143557,97.7240264 L107.458194,95.3866147 L114.070113,95.3861425 L120.682032,95.3856655 L120.992593,97.7235495 L121.303159,100.061433 L125.266962,100.061433 C127.447057,100.061433 129.230769,100.192593 129.230769,100.352902 C129.230769,100.513211 128.258064,102.24432 127.069202,104.199815 C117.333803,120.213058 101.059646,131.684194 82.501204,135.614388 C76.4299846,136.900112 64.1799003,137.247671 58.368491,136.299079 L58.368491,136.299079 Z M85.6856187,88.1574847 C85.6856187,87.4464407 92.4140562,77.6694848 92.7575151,77.8814608 C92.9883746,78.0239408 93.1772575,80.4426033 93.1772575,83.2562653 L93.1772575,88.3720137 L89.4314381,88.3720137 C87.3712375,88.3720137 85.6856187,88.2754731 85.6856187,88.1574847 L85.6856187,88.1574847 Z M113.389076,87.5284443 C113.864781,86.3824557 119.688102,77.6419632 119.983278,77.6309051 C120.176421,77.623667 120.336279,78.8276024 120.338517,80.306314 C120.340755,81.7850256 120.475455,84.0995307 120.63785,85.4496587 L120.933114,87.9044369 L117.083058,87.9044369 C114.965523,87.9044369 113.303231,87.7352395 113.389076,87.5284443 L113.389076,87.5284443 Z" id="path1877" fill="#F3F1EF" sketch:type="MSShapeGroup"></path>
                        <path d="M139.766014,106.031909 C139.766795,107.850029 138.795938,109.530374 137.219339,110.439659 C135.64274,111.348944 133.700065,111.348944 132.123466,110.439659 C130.546867,109.530374 129.57601,107.850029 129.576791,106.031909 C129.57601,104.213789 130.546867,102.533444 132.123466,101.624159 C133.700065,100.714874 135.64274,100.714874 137.219339,101.624159 C138.795938,102.533444 139.766795,104.213789 139.766014,106.031909 L139.766014,106.031909 Z" id="path2863" fill="#F3F1EF" sketch:type="MSShapeGroup"></path>
                        <text id="tspan2857" fill="#FFFFFF" sketch:type="MSTextLayer" font-family="Arial" font-size="6.78395289" font-weight="bold">
                            <tspan x="131.62372" y="107.933209">R</tspan>
                        </text>
                    </g>
                </g>
            </g>
        </g>
    </g>
</svg>