<?xml version="1.0" encoding="UTF-8" standalone="no"?>
<svg width="141px" height="86px" viewBox="0 0 141 86" version="1.1" xmlns="http://www.w3.org/2000/svg" xmlns:xlink="http://www.w3.org/1999/xlink" xmlns:sketch="http://www.bohemiancoding.com/sketch/ns">
    <!-- Generator: Sketch 3.1.1 (8761) - http://www.bohemiancoding.com/sketch -->
    <title>nespresso_default</title>
    <desc>Created with Sketch.</desc>
    <defs>
        <path id="path-1" d="M-0.337152084,86.435649 L139.168084,86.435649 L139.168084,0.377293349 L-0.337152084,0.377293349 L-0.337152084,86.435649 L-0.337152084,86.435649 Z"></path>
    </defs>
    <g id="Clients" stroke="none" stroke-width="1" fill="none" fill-rule="evenodd" sketch:type="MSPage">
        <g sketch:type="MSArtboardGroup" transform="translate(-859.000000, -1665.000000)" id="Group">
            <g sketch:type="MSLayerGroup" transform="translate(235.000000, 972.000000)">
                <g id="Nespresso" transform="translate(625.000000, 694.000000)">
                    <g id="nespresso_default" transform="translate(0.030394, 0.074714)">
                        <path d="M131.172502,75.5108174 C131.615479,75.5108174 134.826249,75.6462573 134.800381,69.2612934 C134.777747,63.3342401 131.654279,63.5115992 131.143402,63.5115992 L131.153104,63.5115992 C130.642226,63.5115992 127.518757,63.3342401 127.492889,69.2612934 C127.463789,75.6462573 130.67456,75.5108174 131.114302,75.5108174 L131.172504,75.5108174 L131.172502,75.5108174 Z M131.185438,77.6842854 C130.121647,77.7004122 123.169828,77.4617797 123.169828,69.561193 C123.198928,61.6864028 130.079613,61.579987 131.143404,61.5864356 C132.21366,61.5799849 139.091111,61.6864028 139.104045,69.561193 C139.123449,77.4617797 132.16516,77.7004101 131.101368,77.6842854 L131.185438,77.6842854 Z" id="path31407" fill="#F3F1EF" sketch:type="MSShapeGroup"></path>
                        <path d="M121.181281,62.4764604 L121.181281,64.4370967 C120.37293,64.0920504 119.910553,63.8405228 119.050468,63.608341 C118.374687,63.4600039 115.480789,62.7763622 114.090426,64.2274903 C113.508413,64.8143902 113.333809,65.8914502 114.497834,66.7298798 C116.13717,67.7875919 118.481389,68.2777499 120.405264,69.8449679 C121.669526,70.8381853 122.076934,72.0087619 121.756828,73.7984877 C121.427021,75.6172354 119.435243,77.0844861 117.64717,77.4585543 C115.044281,77.9809617 112.118049,77.7358827 109.796464,76.7587879 L109.812634,74.8271757 C111.943447,75.7172005 115.257687,76.8490811 117.314132,75.0496813 C117.883211,74.5305014 118.225951,73.7984877 117.928479,73.0374499 C117.466102,71.6411423 113.644217,70.8091634 111.312934,69.0774836 C108.997815,67.661826 109.207987,65.2303797 110.016338,63.8921181 C112.195653,60.6351415 117.72154,61.5348403 121.181283,62.4764604" id="path31409" fill="#F3F1EF" sketch:type="MSShapeGroup"></path>
                        <path d="M107.830555,62.4764604 L107.830555,64.4370967 C107.015736,64.0920504 106.556594,63.8405228 105.69974,63.608341 C105.030426,63.4600039 102.123596,62.7763622 100.742932,64.2274903 C100.154451,64.8143902 99.9766149,65.8914502 101.13094,66.7298798 C102.783211,67.7875919 105.124196,68.2777499 107.054536,69.8449679 C108.315566,70.8381853 108.71974,72.0087619 108.3964,73.7984877 C108.07306,75.6172354 106.071583,77.0844861 104.293211,77.4585543 C101.690319,77.9809617 98.7640872,77.7358827 96.4489702,76.7587879 L96.4586723,74.8271757 C98.5927191,75.7172005 101.903726,76.8490811 103.969872,75.0496813 C104.519551,74.5305014 104.868757,73.7984877 104.577751,73.0374499 C104.10244,71.6411423 100.287023,70.8091634 97.9589723,69.0774836 C95.6470872,67.661826 95.8540255,65.2303797 96.6591447,63.8921181 C98.8384574,60.6351415 104.367581,61.5348403 107.830557,62.4764604" id="path31411" fill="#F3F1EF" sketch:type="MSShapeGroup"></path>
                        <path d="M53.1278162,62.4764604 L53.1278162,64.4370967 C52.3065313,64.0920504 51.8538547,63.8405228 50.9873023,63.608341 C50.314754,63.4600039 47.420857,62.7763622 46.0401934,64.2274903 C45.4484802,64.8143902 45.2738764,65.8914502 46.4379021,66.7298798 C48.0740049,67.7875919 50.42469,68.2777499 52.3485655,69.8449679 C53.6128268,70.8381853 54.0170023,72.0087619 53.6968953,73.7984877 C53.3735549,75.6172354 51.368844,77.0844861 49.5904715,77.4585543 C46.9908143,77.9809617 44.058117,77.7358827 41.739766,76.7587879 L41.7494681,74.8271757 C43.8899809,75.7172005 47.2009877,76.8490811 49.2638998,75.0496813 C49.8232787,74.5305014 50.1660196,73.7984877 49.865313,73.0374499 C49.4029362,71.6411423 45.5875187,70.8091634 43.253,69.0774836 C40.941117,67.661826 41.1545213,65.2303797 41.9499383,63.8921181 C44.1357191,60.6351415 49.6680753,61.5348403 53.1278183,62.4764604" id="path31413" fill="#F3F1EF" sketch:type="MSShapeGroup"></path>
                        <path d="M33.426683,75.8461897 C35.5348617,76.0557981 38.1118851,75.7333252 40.1683298,75.6785046 L40.1780319,77.4230838 L29.0163191,77.4230838 C29.0163191,77.4230838 29.3655255,77.0619128 29.3655255,76.455665 L29.3655255,62.7957101 C29.3655255,62.1926855 29.0163191,61.8186174 29.0163191,61.8186174 L40.1780319,61.8186174 L40.1683298,63.5631944 C38.1118851,63.5277239 35.5348617,63.1923516 33.426683,63.4084087 C33.426683,63.4084087 33.4234489,68.2326032 33.4234489,68.5615269 C35.1533191,68.6679428 37.1871319,68.6840653 38.803834,68.4809076 L38.803834,70.3319026 C37.2162319,70.1835655 35.1371532,70.1545436 33.4234489,70.2448347 L33.426683,70.8381853" id="path31415" fill="#F3F1EF" sketch:type="MSShapeGroup"></path>
                        <path d="M88.1940894,75.8461897 C90.3022681,76.0557981 92.8728255,75.7333252 94.9389702,75.6785046 L94.9422043,77.4230838 L83.7966583,77.4230838 C83.7966583,77.4230838 84.1393991,77.0619128 84.1393991,76.455665 L84.1393991,62.7957101 C84.1393991,62.1926855 83.7966583,61.8186174 83.7966583,61.8186174 L94.9422043,61.8186174 L94.9389702,63.5631944 C92.8728255,63.5277239 90.3022681,63.1923516 88.1940894,63.4084087 C88.1940894,63.4084087 88.1876213,68.2326032 88.1876213,68.5615269 C89.9207255,68.6679428 91.9545383,68.6840653 93.5809404,68.4809076 L93.5809404,70.3319026 C91.9901064,70.1835655 89.9045596,70.1545436 88.1940894,70.2448347 L88.1940894,70.8381853" id="path31417" fill="#F3F1EF" sketch:type="MSShapeGroup"></path>
                        <path d="M73.013254,63.7857022 L73.013254,69.0516849 C74.3583504,69.0516849 75.9879864,69.2290461 76.9224402,68.1519861 C77.7178577,67.0974994 77.5820547,65.7398877 77.0550098,64.7756943 C76.120556,63.205251 73.013254,63.7857022 73.013254,63.7857022 M73.0391213,70.9800739 L73.0391213,76.455665 C73.0423553,77.0586896 73.3883289,77.4327578 73.3883289,77.4327578 L68.6222906,77.4230817 C68.6222906,77.4230817 68.9650317,77.0619107 68.9682651,76.4556629 L68.9650311,62.795708 C68.9650311,62.1926834 68.62229,61.8186152 68.62229,61.8186152 L76.7510691,61.8186152 C78.9594845,61.9121318 81.297236,63.1278549 81.3651374,65.7753583 C81.3910047,67.9359269 80.4306834,69.1838973 78.9853517,69.8739898 C78.7105123,70.002979 78.7299128,69.9707317 78.636144,70.0352263 C79.6611332,72.411852 80.5891204,74.1628797 81.8242809,76.4556629 C82.0764864,77.0586875 82.5744306,77.4230817 82.5744306,77.4230817 L77.6499555,77.4230817 C77.6499555,77.4230817 77.9474287,77.0586875 77.6434896,76.4556629 C77.6434896,76.4556629 75.8942179,72.344132 75.072933,70.9800717" id="path31419" fill="#F3F1EF" sketch:type="MSShapeGroup"></path>
                        <path d="M59.6495932,63.8050502 L59.6334272,69.6676088 C60.9946904,69.7579 62.6113928,69.9094625 63.5426132,68.8259539 C64.3380307,67.7746925 64.2086946,65.7398877 63.6751828,64.7918169 C62.7407289,63.2116996 59.6495943,63.8050502 59.6495943,63.8050502 M59.6657623,76.455665 C59.6657623,77.0586896 60.0117366,77.4295324 60.0117366,77.4295324 L55.2489317,77.4230817 C55.2489317,77.4230817 55.6013728,77.0619107 55.6013728,76.4556629 L55.6013728,62.795708 C55.6013728,62.1926834 55.2489317,61.8186152 55.2489317,61.8186152 L63.1222717,61.8186152 C65.0978819,61.8895584 66.633749,62.795708 67.2836634,64.7047469 C67.7751409,66.3783829 67.7104728,68.5486254 66.5141131,69.9094603 C64.9200446,72.0184337 59.6560621,71.7088601 59.6560621,71.7088601" id="path31421" fill="#F3F1EF" sketch:type="MSShapeGroup"></path>
                        <g id="g31423" transform="translate(69.455302, 43.007499) scale(1, -1) translate(-69.455302, -43.007499) translate(-0.044698, 0.007499)">
                            <g id="g31425-Clipped">
                                <mask id="mask-2" sketch:name="path31429" fill="white">
                                    <use xlink:href="#path-1"></use>
                                </mask>
                                <g id="path31429"></g>
                                <g id="g31425" mask="url(#mask-2)" fill="#F3F1EF" sketch:type="MSShapeGroup">
                                    <g transform="translate(0.000000, 2.000000)">
                                        <path d="M23.8390131,22.1886958 C23.8390131,22.1886958 24.1946876,21.7920541 24.1946876,21.221277 L24.1946876,14.3106817 C22.1253088,16.7550267 20.2919684,19.5153951 18.1579215,22.0016615 C17.3657374,22.9561814 15.8589709,24.5556473 15.2834249,25.0425814 C11.5423759,28.6961999 5.38920723,30.3730593 -0.337152084,28.3576033 L-0.337152084,28.1254228 C1.62552443,28.5510871 4.17021374,28.3995248 6.6696354,27.3934092 C8.54500999,26.7065418 11.2158021,24.6265913 12.7613694,22.7207762 C14.7596134,20.4505666 19.0147737,14.6105816 19.0147737,14.6105816 C21.4592274,11.4438972 23.6159082,8.56421378 26.1120965,5.56521536 L26.1120965,21.221277 C26.1185633,21.7920541 26.467771,22.1886958 26.467771,22.1886958" id="path31431"></path>
                                        <path d="M12.7161018,6.5648815 C12.7161018,6.5648815 12.3604273,6.9582985 12.3604273,7.53230034 L12.3604273,14.4461204 C14.4265727,12.0017754 16.2663799,9.23818224 18.4004268,6.75191581 C19.1926109,5.80062061 20.6896772,4.19793006 21.27169,3.70777118 C25.0159724,0.0541526791 31.1594408,-1.62270665 36.892267,0.399198733 L36.892267,0.628154527 C34.9295904,0.208939694 32.3816677,0.350827791 29.8854795,1.36661758 C28.0133383,2.05348496 25.3393128,4.12698601 23.7969789,6.03280114 C21.7955015,8.30623542 17.5403412,14.1429958 17.5403412,14.1429958 C15.092654,17.3096801 12.9359733,20.195813 10.4365516,23.1851372 L10.4365516,7.53230034 C10.4365516,6.9582985 10.0808771,6.5648815 10.0808771,6.5648815" id="path31433"></path>
                                    </g>
                                </g>
                            </g>
                        </g>
                        <path d="M93.3546021,36.6302543 C87.6217766,38.6489344 81.4750738,36.9720752 77.7340247,33.3184571 C77.1520119,32.8315224 75.6517121,31.2256063 74.8595281,30.2743123 C72.7287145,27.7880454 70.8889072,25.0244522 68.8227617,22.5801065 L68.8227617,29.4939265 C68.8227617,30.0711545 69.1784364,30.4645707 69.1784364,30.4645707 L66.5432116,30.4645707 C66.5432116,30.4645707 66.8956527,30.0711545 66.8988861,29.4939265 L66.8988861,13.8410902 C69.3983079,16.8336398 71.5517553,19.7197715 73.9994426,22.8832315 C73.9994426,22.8832315 78.254603,28.7199915 80.2560802,30.996652 C81.8016477,32.8992423 84.4724398,34.972743 86.3478145,35.6596101 C88.8440021,36.6754009 91.3919255,36.8172873 93.3546021,36.3980725 L93.3546021,36.6302543 L93.3546021,36.6302543 Z M56.1251821,8.90080371 L56.1251821,8.66862405 C61.8515415,6.6531672 68.001477,8.33002641 71.7425262,11.9868698 C72.3213055,12.4705792 73.8248387,14.0700466 74.6170228,15.0245661 C76.7510698,17.5140562 78.5844102,20.2712008 80.6570226,22.7187697 L80.6570226,15.8049497 C80.6570226,15.2341724 80.2981145,14.8375309 80.2981145,14.8375309 L82.9268726,14.8375309 C82.9268726,14.8375309 82.5808981,15.2341724 82.5711979,15.8049497 L82.5711979,31.4610135 C80.0750096,28.4652385 77.9215621,25.5823301 75.4771083,22.4188701 C75.4771083,22.4188701 71.2187147,16.5756615 69.2204706,14.3054517 C67.6781366,12.399636 65.004111,10.32291 63.1319698,9.63604283 C60.6293147,8.62670278 58.0878587,8.47836566 56.1251821,8.90080371 L56.1251821,8.90080371 Z M51.4787798,45.9658466 L98.0010043,45.9658466 L98.0010043,-0.43156322 L51.4787798,-0.43156322 L51.4787798,45.9658466 L51.4787798,45.9658466 Z" id="path31435" fill="#F3F1EF" sketch:type="MSShapeGroup"></path>
                    </g>
                </g>
            </g>
        </g>
    </g>
</svg>