<?xml version="1.0" encoding="UTF-8" standalone="no"?>
<svg width="141px" height="65px" viewBox="0 0 141 65" version="1.1" xmlns="http://www.w3.org/2000/svg" xmlns:xlink="http://www.w3.org/1999/xlink" xmlns:sketch="http://www.bohemiancoding.com/sketch/ns">
    <!-- Generator: Sketch 3.1.1 (8761) - http://www.bohemiancoding.com/sketch -->
    <title>nest_hover</title>
    <desc>Created with Sketch.</desc>
    <defs></defs>
    <g id="Clients" stroke="none" stroke-width="1" fill="none" fill-rule="evenodd" sketch:type="MSPage">
        <g sketch:type="MSArtboardGroup" transform="translate(-650.000000, -1675.000000)" id="Group" fill="#98A4AC">
            <g sketch:type="MSLayerGroup" transform="translate(235.000000, 972.000000)">
                <g id="Nest" transform="translate(415.000000, 704.000000)" sketch:type="MSShapeGroup">
                    <g id="nest_hover">
                        <path d="M104.864553,20.9562712 C107.570304,19.7888281 109.186405,17.5924521 109.186405,15.0897195 C109.186405,11.7756145 106.657812,9.79955533 102.421287,9.79955533 C97.9249368,9.79955533 95.8359873,13.7934137 95.3017538,15.0131304 L94.6436673,16.5244371 L86.223923,16.5244371 L86.2105228,16.5323126 L78.4102411,16.5323126 C76.2787264,12.9481766 71.9875172,9.64490038 66.996937,9.64490038 C57.9910336,9.64490038 53.4973438,16.7392411 52.9232054,23.7448841 L89.7289558,23.7448841 L89.7289558,25.2803095 C89.7289558,28.1846921 89.4292254,30.9184719 88.8696695,33.4560535 C89.9234554,30.1997349 92.3255354,26.8225275 97.3600603,24.4327098 C99.1972638,23.5486859 101.973662,22.2282614 104.864553,20.9560743 M66.4694036,43.2156573 C74.0018789,43.2156573 77.6921494,37.9764869 78.7606163,32.6392667 L53.6905625,32.6392667 C54.9988532,37.9872173 59.6470392,43.2156573 66.4694036,43.2156573 M140.330187,43.0611008 L140.330187,52.6460655 L132.505864,52.6460655 L132.505864,63.9747624 L122.89912,63.9747624 L122.89912,52.6460655 L103.550941,52.6460655 C94.6156846,52.6411433 88.1302951,46.5821343 88.1302951,38.233031 C88.1302951,37.3357173 88.2089226,36.3685086 88.3887411,35.3663523 C85.344635,46.0030889 77.3192106,52.6460655 66.5413311,52.6460655 C53.3575287,52.6460655 43.2791186,42.2954062 42.4345134,28.2732914 L42.4345134,31.2542632 C42.4345134,43.0503704 32.9156592,52.6460655 21.2172072,52.6460655 C9.51885379,52.6460655 -4.64666186e-07,43.0503704 -4.64666186e-07,31.2542632 L-4.64666186e-07,0.585230898 L9.72399471,0.585230898 L9.72399471,31.2542632 C9.72399471,37.6406957 14.8784314,42.8407839 21.2172072,42.8407839 C27.5533227,42.8407839 32.7104197,37.6406957 32.7104197,31.2542632 L32.7104197,0.585230898 L42.4345134,0.585230898 L42.4345134,24.4460981 C43.2844393,10.3743677 53.4920231,-0.0126173103 66.8464806,-0.0126173103 C74.9984184,-0.0126173103 82.1898789,4.7617022 86.2625471,10.290986 C89.3013325,3.74212145 95.2391868,-0.0126173103 102.574502,-0.0126173103 C111.075534,-0.0126173103 119.680418,5.46301467 119.680418,15.9318064 C119.680418,22.1973501 116.071337,27.3181912 109.516779,30.354193 C108.678775,30.7397967 108.001967,31.0621996 107.354522,31.372494 L107.266633,31.4167936 C106.532579,31.7660716 105.825129,32.1019613 104.94722,32.5063678 C100.662711,34.4448214 98.6244062,35.8647725 98.6244062,38.6952239 C98.6244062,41.1858479 100.834548,43.0611008 103.562962,43.0611008 L122.89912,43.0611008 L122.89912,15.7504732 C122.89912,7.05484829 129.912043,-0.0126173103 138.531608,-0.0126173103 L138.531608,9.67443347 C135.209054,9.67443347 132.505864,12.4001409 132.505864,15.7504732 L132.505864,43.0611008 C136.349448,43.0581475 139.309606,43.0611008 140.330187,43.0611008" id="path34" transform="translate(70.165093, 31.981073) scale(1, -1) translate(-70.165093, -31.981073) "></path>
                    </g>
                </g>
            </g>
        </g>
    </g>
</svg>