<?xml version="1.0" encoding="UTF-8" standalone="no"?>
<svg width="107px" height="141px" viewBox="0 0 107 141" version="1.1" xmlns="http://www.w3.org/2000/svg" xmlns:xlink="http://www.w3.org/1999/xlink" xmlns:sketch="http://www.bohemiancoding.com/sketch/ns">
    <!-- Generator: Sketch 3.1.1 (8761) - http://www.bohemiancoding.com/sketch -->
    <title>NFL_hover</title>
    <desc>Created with Sketch.</desc>
    <defs></defs>
    <g id="Clients" stroke="none" stroke-width="1" fill="none" fill-rule="evenodd" sketch:type="MSPage">
        <g sketch:type="MSArtboardGroup" transform="translate(-667.000000, -1479.000000)" id="Group">
            <g sketch:type="MSLayerGroup" transform="translate(235.000000, 972.000000)">
                <g id="NFL" transform="translate(432.000000, 507.000000)" sketch:type="MSShapeGroup">
                    <g id="NFL_hover" transform="translate(-0.025789, 0.065646)">
                        <path d="M0.195342011,105.838191 L0.455705251,12.9456042 C18.7051804,28.8557737 46.5608672,12.7813178 53.3083653,-0.0951881356 C66.4453835,23.3202805 99.0209185,22.3118119 105.900668,12.684789 L106.161031,108.665034 C106.030728,129.758015 65.6983203,119.687014 53.1853638,140.182688 C40.487908,117.880908 0.99182838,130.583908 0.195342011,105.838191 L0.195342011,105.838191 Z" id="path2555" fill="#003A73"></path>
                        <path d="M4.83438168,103.474421 L5.07194011,56.93065 L101.284433,56.9057288 L101.521992,105.960685 C101.586598,125.237825 64.6020849,115.6547 53.1847302,133.681023 C41.5990368,114.066204 5.01180436,125.805726 4.83438168,103.474421 L4.83438168,103.474421 Z" id="path3359" fill="#FFFFFF"></path>
                        <path d="M40.7592917,51.6472161 C41.9968151,45.567372 43.7359375,40.1574992 45.9366456,35.3641602 L43.8897856,34.2786263 L44.6122082,32.9518593 C49.6223248,34.1364254 49.2466821,34.8257415 50.7527822,35.7260068 L49.7895502,37.4146203 L47.3814789,36.3290805 C44.1955689,41.3467873 43.1955034,46.6772992 42.2041309,52.0090686 C55.3312953,51.324261 73.4437581,40.9770746 64.8399868,18.1161898 C62.8921924,18.9981542 61.0494387,20.0905636 59.4218294,21.6140305 L61.1074722,23.1820246 L59.9034365,24.2675644 C58.6860177,22.9542102 57.3295137,21.7801678 54.8464904,21.7346441 L56.4117432,20.6491102 L58.4585973,20.8903373 C59.4492354,19.6841898 61.1607209,18.4780305 63.756353,17.2718771 C44.4875249,17.1371093 35.5461229,30.835172 40.7592917,51.6472161 L40.7592917,51.6472161 Z" id="path3345" fill="#FFFFFF"></path>
                        <path d="M16.1492016,36.2594686 L11.7793283,33.1541523 L7.43709229,36.2981345 L9.03487226,31.1752318 L4.70819356,28.0098003 L10.0655504,27.9489895 L11.7337507,22.8486633 L13.4469978,27.9339809 L18.8046816,27.9472381 L14.506171,31.1509484 L16.1492016,36.2594686 L16.1492016,36.2594686 Z" id="path3327" fill="#FFFFFF"></path>
                        <path d="M34.590898,36.2594686 L30.2210247,33.1541523 L25.8787887,36.2981345 L27.4765687,31.1752318 L23.14989,28.0098003 L28.5072468,27.9489895 L30.1754472,22.8486633 L31.8886942,27.9339809 L37.246378,27.9472381 L32.9478675,31.1509484 L34.590898,36.2594686 L34.590898,36.2594686 Z" id="path3329" fill="#FFFFFF"></path>
                        <path d="M16.1492016,52.5782838 L11.7793283,49.4729676 L7.43709229,52.6169497 L9.03487226,47.4940471 L4.70819356,44.3286155 L10.0655504,44.2678047 L11.7337507,39.1674785 L13.4469978,44.2527961 L18.8046816,44.2660534 L14.506171,47.4697636 L16.1492016,52.5782838 L16.1492016,52.5782838 Z" id="path3333" fill="#FFFFFF"></path>
                        <path d="M34.590898,52.5782838 L30.2210247,49.4729676 L25.8787887,52.6169497 L27.4765687,47.4940471 L23.14989,44.3286155 L28.5072468,44.2678047 L30.1754472,39.1674785 L31.8886942,44.2527961 L37.246378,44.2660534 L32.9478675,47.4697636 L34.590898,52.5782838 L34.590898,52.5782838 Z" id="path3335" fill="#FFFFFF"></path>
                        <path d="M80.6951243,36.2594686 L76.325251,33.1541523 L71.983015,36.2981345 L73.5807949,31.1752318 L69.2541162,28.0098003 L74.6114731,27.9489895 L76.2796734,22.8486633 L77.9929205,27.9339809 L83.3506043,27.9472381 L79.0520937,31.1509484 L80.6951243,36.2594686 L80.6951243,36.2594686 Z" id="path3337" fill="#FFFFFF"></path>
                        <path d="M99.1368207,36.2594686 L94.7669474,33.1541523 L90.4247114,36.2981345 L92.0224914,31.1752318 L87.6958127,28.0098003 L93.0531695,27.9489895 L94.7213698,22.8486633 L96.4346169,27.9339809 L101.792301,27.9472381 L97.4937902,31.1509484 L99.1368207,36.2594686 L99.1368207,36.2594686 Z" id="path3339" fill="#FFFFFF"></path>
                        <path d="M80.6951243,52.5782838 L76.325251,49.4729676 L71.983015,52.6169497 L73.5807949,47.4940471 L69.2541162,44.3286155 L74.6114731,44.2678047 L76.2796734,39.1674785 L77.9929205,44.2527961 L83.3506043,44.2660534 L79.0520937,47.4697636 L80.6951243,52.5782838 L80.6951243,52.5782838 Z" id="path3341" fill="#FFFFFF"></path>
                        <path d="M99.1368207,52.5782838 L94.7669474,49.4729676 L90.4247114,52.6169497 L92.0224914,47.4940471 L87.6958127,44.3286155 L93.0531695,44.2678047 L94.7213698,39.1674785 L96.4346169,44.2527961 L101.792301,44.2660534 L97.4937902,47.4697636 L99.1368207,52.5782838 L99.1368207,52.5782838 Z" id="path3343" fill="#FFFFFF"></path>
                        <path d="M46.0570474,30.6601661 C48.9935375,31.5835432 50.4781712,32.7978119 51.8364102,34.0373992 L53.0404399,32.3487856 C51.5739447,30.6818661 49.1883466,29.935672 46.7794699,29.2127856 L46.0570474,30.6601661 L46.0570474,30.6601661 Z" id="path3347" fill="#003A73"></path>
                        <path d="M48.4651068,27.6447856 C51.4016088,28.5681568 52.8862306,29.7824254 54.2444755,31.0220127 L55.4485112,29.3334051 C53.9820101,27.6664915 51.596412,26.9202856 49.1875294,26.1973992 L48.4651068,27.6447856 L48.4651068,27.6447856 Z" id="path3349" fill="#003A73"></path>
                        <path d="M51.7160084,24.1469449 C54.6524985,25.070322 56.1371322,26.2845907 57.4953712,27.524172 L58.6994009,25.8355644 C57.2329057,24.1686508 54.8473076,23.4224449 52.4384309,22.6995644 L51.7160084,24.1469449 L51.7160084,24.1469449 Z" id="path3351" fill="#003A73"></path>
                        <path d="M10.6584303,61.4170508 L10.7788439,68.1715051 L14.390939,69.7395051 L14.6317544,102.305605 L10.6584303,103.873605 L10.6584303,108.93944 L24.9864444,112.5579 L24.8660366,106.406525 L22.0967659,103.511758 L21.9763582,86.2637822 L31.6086374,114.005286 L38.9532412,116.296974 L39.3144466,69.7395051 L41.7225179,67.8096585 L41.7225179,61.4170508 L28.1169382,61.4170508 L28.1169382,67.8096585 L31.2474202,69.6188856 L31.3678279,90.9677703 L21.7355487,61.2964373 L10.6584303,61.4170508 L10.6584303,61.4170508 Z" id="path3353" fill="#DA2127"></path>
                        <path d="M44.4918004,112.437292 L44.6122082,117.623741 L58.579005,122.810201 L58.579005,116.779434 L55.5689189,113.522826 L55.5689189,90.244089 L60.0238502,90.3647085 L62.191112,93.13885 L65.803213,93.0182305 L65.9236147,80.2330212 L61.8298947,80.1124076 L60.144252,82.886561 L55.6893207,83.0071746 L55.6893207,69.1364254 L61.2278799,69.3776525 L63.2747399,74.0816525 L68.6928973,73.9610271 L68.8132991,61.658278 L44.1305892,61.658278 L44.2509969,67.930272 L47.3814789,69.9807322 L47.7426961,110.869292 L44.4918004,112.437292 L44.4918004,112.437292 Z" id="path3355" fill="#DA2127"></path>
                        <path d="M71.2213585,61.5376644 L71.2213585,68.0508856 L73.7498375,69.4982661 L74.1110488,106.527133 L71.2213585,109.904366 L71.462174,115.452667 L95.6632649,108.577599 L95.4224554,93.2594754 L89.5226908,93.13885 L88.6798606,102.305605 L82.780096,104.235452 L82.9004978,69.8601127 L85.9105898,67.4478059 L85.7901821,61.4170508 L71.2213585,61.5376644 L71.2213585,61.5376644 Z" id="path3357" fill="#DA2127"></path>
                    </g>
                </g>
            </g>
        </g>
    </g>
</svg>