<?xml version="1.0" encoding="UTF-8" standalone="no"?>
<svg width="140px" height="35px" viewBox="0 0 140 35" version="1.1" xmlns="http://www.w3.org/2000/svg" xmlns:xlink="http://www.w3.org/1999/xlink" xmlns:sketch="http://www.bohemiancoding.com/sketch/ns">
    <!-- Generator: Sketch 3.1.1 (8761) - http://www.bohemiancoding.com/sketch -->
    <title>nintendo_hover</title>
    <desc>Created with Sketch.</desc>
    <defs></defs>
    <g id="Clients" stroke="none" stroke-width="1" fill="none" fill-rule="evenodd" sketch:type="MSPage">
        <g sketch:type="MSArtboardGroup" transform="translate(-858.000000, -1364.000000)" id="Group">
            <g sketch:type="MSLayerGroup" transform="translate(235.000000, 972.000000)">
                <g id="Nintendo" transform="translate(623.000000, 392.000000)" sketch:type="MSShapeGroup">
                    <g id="nintendo_hover" transform="translate(-0.084554, 0.009323)">
                        <path d="M18.3668107,34.0511453 C7.4095097,34.0471448 0.0844158416,26.3661692 0.0844158416,17.0529852 C0.0844158416,7.73580065 7.42568871,-0.0331883871 18.3506317,-0.00918548387 L121.60571,-0.00918548387 C132.534698,-0.0331883871 139.875971,7.73580065 139.875971,17.0529852 C139.875971,26.3661692 132.550877,34.0471448 121.593576,34.0511453 L18.3668107,34.0511453 L18.3668107,34.0511453 Z" id="path2180" fill="#FFFFFF"></path>
                        <path d="M13.9539552,8.97596984 L19.0018396,8.97596984 L25.9912135,20.1573908 L25.9871687,8.97596984 L30.9986475,8.97596984 L30.9986475,25.0100079 L25.9952582,25.0100079 L18.9694788,13.8285842 L18.9694788,25.0100079 L13.9499105,25.0100079 L13.9539552,8.97596984" id="path3361" fill="#8F8F8F"></path>
                        <path d="M58.2483141,10.6241774 L63.126316,10.6241774 L63.126316,12.7804519 L65.7635113,12.7804519 L65.7635113,14.368655 L63.126316,14.368655 L63.1303608,25.0100079 L58.2442693,25.0100079 L58.2483141,14.368655 L55.5989846,14.368655 L55.5989846,12.7844524 L58.2523588,12.7844524 L58.2483141,10.6241774" id="path3363" fill="#8F8F8F"></path>
                        <path d="M33.7895434,14.3486526 L38.6635006,14.3486526 L38.6635006,25.0100079 L33.7895434,25.0100079 L33.7895434,14.3486526" id="path3365" fill="#8F8F8F"></path>
                        <path d="M33.7774091,8.97196935 L38.6635006,8.97196935 L38.6635006,12.2483848 L33.7774091,12.2483848 L33.7774091,8.97196935 L33.7774091,8.97196935 Z" id="path3367" fill="#8F8F8F"></path>
                        <path d="M121.181006,19.5933171 C121.181006,19.5933171 121.176961,21.2055231 121.176961,21.8496037 C121.176961,23.5498203 120.161723,24.2499105 119.182884,24.2499105 C118.208093,24.2499105 117.18881,23.5498203 117.18881,21.8496037 L117.18881,19.5533123 C117.18881,19.5533123 117.192855,17.9731129 117.192855,17.3290295 C117.192855,15.6368166 118.212138,14.9407269 119.182884,14.9407269 C120.157678,14.9407269 121.176961,15.6368166 121.176961,17.3290295 C121.176961,17.9731129 121.176961,19.1692631 121.181006,19.5973176 L121.181006,19.5933171 L121.181006,19.5933171 Z M119.223335,13.620559 C115.287766,13.620559 112.096436,16.3008997 112.096436,19.6053185 C112.096436,22.9137406 115.287766,25.5940813 119.223335,25.5940813 C123.158901,25.5940813 126.346185,22.9137406 126.346185,19.6053185 C126.346185,16.3008997 123.158901,13.620559 119.223335,13.620559 L119.223335,13.620559 Z" id="path3369" fill="#8F8F8F"></path>
                        <path d="M105.697596,8.97596984 L110.510882,8.97596984 L110.510882,25.0100079 L105.689507,25.0100079 C105.689507,25.0100079 105.685462,24.4899395 105.685462,24.3939279 C103.82082,25.550076 101.717538,25.5460755 100.075357,24.793979 C99.6385212,24.5899544 96.7424618,23.2177802 96.7424618,19.5053065 C96.7424618,16.6929498 99.4281941,13.6165585 102.939059,13.9245985 C104.095866,14.0246106 104.921001,14.4406637 105.697596,14.8767192 L105.697596,8.97596984 L105.697596,8.97596984 Z M105.734002,19.625321 L105.734002,17.7210797 C105.734002,16.0688689 104.581239,15.6488181 103.824865,15.6488181 C103.04827,15.6488181 101.911686,16.0688689 101.911686,17.7210797 C101.911686,18.2651482 101.915731,19.61732 101.915731,19.61732 C101.915731,19.61732 101.911686,20.9494894 101.911686,21.5175635 C101.911686,23.1617706 103.04827,23.5938256 103.82082,23.5938256 C104.581239,23.5938256 105.734002,23.1617706 105.734002,21.5175635 L105.734002,19.625321 L105.734002,19.625321 Z" id="path3371" fill="#8F8F8F"></path>
                        <path d="M50.0778642,13.8525871 C51.8980139,13.8045813 55.5989846,14.9847323 55.574716,19.2052702 C55.5666265,19.9573639 55.5706713,25.0060074 55.5706713,25.0060074 L50.7250273,25.0060074 L50.7250273,18.0051168 C50.7250273,17.076999 49.8270867,16.0408655 48.5003996,16.0408655 C47.1696677,16.0408655 46.1867873,17.076999 46.1867873,18.0051168 C46.1867873,18.4571742 46.1908321,25.0060074 46.1908321,25.0060074 L41.3492329,25.0060074 L41.3451881,14.3446521 L46.1908321,14.3406516 C46.1908321,14.3406516 46.1827426,15.2007611 46.1908321,15.4647931 C47.1211307,14.5846811 48.4680416,13.9005956 50.0778642,13.8525871" id="path3373" fill="#8F8F8F"></path>
                        <path d="M89.6964586,13.8525871 C91.5206531,13.8045813 95.217579,14.9847323 95.1892657,19.2052702 C95.185221,19.9573639 95.1892657,25.0060074 95.1892657,25.0060074 L90.3476665,25.0060074 L90.3476665,18.0051168 C90.3476665,17.076999 89.4456812,16.0408655 88.1189941,16.0408655 C86.7923069,16.0408655 85.8053818,17.076999 85.8053818,18.0051168 C85.8053818,18.4571742 85.8094265,25.0060074 85.8094265,25.0060074 L80.9678273,25.0060074 L80.9718721,14.3446521 L85.8094265,14.3406516 C85.8094265,14.3406516 85.8053818,15.2007611 85.8094265,15.4647931 C86.7437699,14.5846811 88.086636,13.9005956 89.6964586,13.8525871" id="path3375" fill="#8F8F8F"></path>
                        <path d="M70.305796,18.065124 C70.2977065,17.1290053 70.3179303,16.5049244 70.6293762,15.9728573 C71.0095857,15.3167752 71.7093335,15.0007342 72.3443624,15.0007342 L72.3403176,15.0007342 C72.9793941,15.0007342 73.679139,15.3167752 74.0593485,15.9728573 C74.3667525,16.5049244 74.3829315,17.1290053 74.374842,18.065124 L70.305796,18.065124 L70.305796,18.065124 Z M74.358663,21.2815323 C74.358663,21.2815323 74.3627077,21.3255376 74.3627077,21.9256156 C74.3627077,23.8778627 73.0643339,24.3099177 72.3443624,24.3099177 C71.6243937,24.3099177 70.305796,23.8778627 70.305796,21.9256156 C70.305796,21.3415395 70.3098408,19.7253358 70.3098408,19.7253358 C70.3098408,19.7253358 79.4914844,19.7293363 79.4914844,19.7253358 C79.4914844,16.4169137 76.2637525,13.6765658 72.2998701,13.6765658 C68.3359877,13.6765658 65.1203901,16.3569065 65.1203901,19.6653285 C65.1203901,22.9697474 68.3359877,25.6500881 72.2998701,25.6500881 C75.5882733,25.6500881 78.3670376,23.7938526 79.2164412,21.2775318 L74.358663,21.2815323 L74.358663,21.2815323 Z" id="path3377" fill="#8F8F8F"></path>
                        <path d="M127.106604,10.1681195 C127.895337,10.1681195 128.28768,10.4321542 128.28768,10.9562203 C128.28768,11.3162666 128.061171,11.5882995 127.680962,11.6803134 L128.299815,12.9044669 L127.55153,12.9044669 L127.025709,11.784326 L126.694037,11.784326 L126.694037,12.9044669 L126.022605,12.9044669 L126.022605,10.1681195 L127.106604,10.1681195 L127.106604,10.1681195 Z M127.045933,9.09998484 C125.666664,9.09998484 124.550304,10.2081244 124.550304,11.5682971 C124.550304,12.9324703 125.666664,14.0366121 127.045933,14.0366121 C128.425202,14.0366121 129.541562,12.9324703 129.541562,11.5682971 C129.541562,10.2081244 128.425202,9.09998484 127.045933,9.09998484 L127.045933,9.09998484 Z M129.064276,11.5682971 C129.064276,12.6724389 128.158246,13.5645523 127.045933,13.5645523 C125.929573,13.5645523 125.027588,12.6724389 125.027588,11.5682971 C125.027588,10.4681585 125.929573,9.57204468 127.045933,9.57204468 C128.158246,9.57204468 129.064276,10.4681585 129.064276,11.5682971 L129.064276,11.5682971 Z M126.694037,11.3842748 L127.025709,11.3842748 C127.409964,11.3842748 127.591977,11.2682608 127.591977,10.9962252 C127.591977,10.7121881 127.393785,10.5881731 126.989307,10.5881731 L126.694037,10.5881731 L126.694037,11.3842748 L126.694037,11.3842748 Z" id="path3379" fill="#8F8F8F"></path>
                        <path d="M18.3668079,34.0511563 C7.40950693,34.0471558 0.0844130693,26.3661802 0.0844130693,17.0529961 C0.0844130693,7.73581161 7.42568594,-0.0331774194 18.3506289,-0.00917451613 L121.605708,-0.00917451613 C132.534695,-0.0331774194 139.875968,7.73581161 139.875968,17.0529961 C139.875968,26.3661802 132.550874,34.0471558 121.593573,34.0511563 L18.3668079,34.0511563 L18.3668079,34.0511563 Z M18.4032107,4.17935952 C9.72311921,4.19536145 4.39776594,9.93209097 4.39776594,17.0289932 C4.39776594,24.121895 9.69076119,29.9066303 18.4032107,29.8746265 L121.557171,29.8746265 C130.26962,29.9066303 135.56019,24.121895 135.56019,17.0289932 C135.56019,9.93209097 130.237262,4.19536145 121.557171,4.17935952 L18.4032107,4.17935952 L18.4032107,4.17935952 Z" id="path3381" fill="#8F8F8F"></path>
                    </g>
                </g>
            </g>
        </g>
    </g>
</svg>