<?xml version="1.0" encoding="UTF-8" standalone="no"?>
<svg width="140px" height="81px" viewBox="0 0 140 81" version="1.1" xmlns="http://www.w3.org/2000/svg" xmlns:xlink="http://www.w3.org/1999/xlink" xmlns:sketch="http://www.bohemiancoding.com/sketch/ns">
    <!-- Generator: Sketch 3.1.1 (8761) - http://www.bohemiancoding.com/sketch -->
    <title>oceanspray_hover</title>
    <desc>Created with Sketch.</desc>
    <defs>
        <rect id="path-1" x="0" y="0" width="139.93713" height="81.189864"></rect>
        <rect id="path-3" x="0" y="0" width="139.93713" height="81.189864"></rect>
        <rect id="path-5" x="0" y="0" width="139.93713" height="81.189864"></rect>
        <rect id="path-7" x="0" y="0" width="139.93713" height="81.189864"></rect>
        <rect id="path-9" x="0" y="0" width="139.93713" height="81.189864"></rect>
        <rect id="path-11" x="0" y="0" width="139.93713" height="81.189864"></rect>
        <rect id="path-13" x="0" y="0" width="139.93713" height="81.189864"></rect>
        <rect id="path-15" x="0" y="0" width="139.93713" height="81.189864"></rect>
        <rect id="path-17" x="0" y="0" width="139.93713" height="81.189864"></rect>
        <rect id="path-19" x="0" y="0" width="139.93713" height="81.189864"></rect>
        <rect id="path-21" x="0" y="0" width="139.93713" height="81.189864"></rect>
        <rect id="path-23" x="0" y="0" width="139.93713" height="81.189864"></rect>
        <rect id="path-25" x="0" y="0" width="139.93713" height="81.189864"></rect>
        <rect id="path-27" x="0" y="0" width="139.93713" height="81.189864"></rect>
        <rect id="path-29" x="0" y="0" width="139.93713" height="81.189864"></rect>
        <rect id="path-31" x="0" y="0" width="139.93713" height="81.189864"></rect>
        <rect id="path-33" x="0" y="0" width="139.93713" height="81.189864"></rect>
        <path id="path-35" d="M26.2156481,0.445824 C13.0582407,4.219776 -5.62851852,19.555344 1.65212963,35.500032 C6.41342593,45.934128 17.8681481,52.73424 27.8185185,57.006504 C33.3135185,59.370408 45.5460185,62.612352 47.2817593,61.904736 C49.0200926,61.199712 38.9174074,58.702968 37.5763889,58.257144 C20.0608333,52.394688 -6.9837963,35.090496 9.60425926,13.8996 C12.3225926,10.421784 15.8336111,7.505784 19.5021296,5.370624 C25.7787963,1.706832 28.4355556,0.027216 27.7057407,0.027216 C27.4963889,0.027216 26.9934259,0.167184 26.2156481,0.445824"></path>
        <linearGradient x1="31.3836136%" y1="57.2106401%" x2="68.0450853%" y2="42.9982994%" id="linearGradient-37">
            <stop stop-color="#B2BBDA" offset="0%"></stop>
            <stop stop-color="#859EC7" offset="23.56%"></stop>
            <stop stop-color="#2661A0" offset="76.26%"></stop>
            <stop stop-color="#004990" offset="100%"></stop>
        </linearGradient>
        <path id="path-38" d="M0.46537037,6.080832 C-1.24444444,9.163368 0.874351852,13.043592 2.56731481,13.363056 C0.415462963,12.072888 1.07527778,8.348832 2.90759259,6.11712 C6.2487963,1.761264 13.9481481,0.208656 16.804537,0.151632 C16.087037,0.108864 15.3909259,0.084888 14.7194444,0.084888 C6.56509259,0.085536 1.9787963,3.350808 0.46537037,6.080832"></path>
        <linearGradient x1="8.46883586%" y1="49.369217%" x2="99.7232426%" y2="49.369217%" id="linearGradient-40">
            <stop stop-color="#C1E8FB" offset="0%"></stop>
            <stop stop-color="#9ADCF9" offset="16.27%"></stop>
            <stop stop-color="#58C9F4" offset="45.67%"></stop>
            <stop stop-color="#28BAF2" offset="70.44%"></stop>
            <stop stop-color="#0BB1F0" offset="89.29%"></stop>
            <stop stop-color="#00AEEF" offset="100%"></stop>
        </linearGradient>
        <path id="path-41" d="M0.102407407,11.432664 C0.0991666667,16.02504 5.30444444,19.688832 5.30444444,19.688832 C5.30444444,19.688832 1.75518519,15.299928 3.0962037,10.47816 C5.73287037,1.041336 23.3275,-0.876744 39.3283333,5.251392 C32.9090741,1.557144 26.1709259,0.040824 20.1172222,0.040824 C8.92953704,0.040824 0.106296296,5.227416 0.102407407,11.432664"></path>
        <linearGradient x1="0.267429508%" y1="50.1112552%" x2="99.4842835%" y2="50.1112552%" id="linearGradient-43">
            <stop stop-color="#C1E8FB" offset="0%"></stop>
            <stop stop-color="#9ADCF9" offset="16.27%"></stop>
            <stop stop-color="#58C9F4" offset="45.67%"></stop>
            <stop stop-color="#28BAF2" offset="70.44%"></stop>
            <stop stop-color="#0BB1F0" offset="89.29%"></stop>
            <stop stop-color="#00AEEF" offset="100%"></stop>
        </linearGradient>
        <path id="path-44" d="M-0.18212963,-0.02268 C-0.18212963,-0.02268 23.4286111,5.16456 24.775463,22.51152 C26.079537,39.20076 7.24111111,49.522104 7.24111111,49.522104 C7.24111111,49.522104 27.895,40.165632 27.7887037,22.824504 C27.6687963,4.41936 -0.18212963,-0.02268 -0.18212963,-0.02268 L-0.18212963,-0.02268 Z"></path>
        <linearGradient x1="102.070732%" y1="50.2791906%" x2="-1.76987484%" y2="50.2791906%" id="linearGradient-46">
            <stop stop-color="#D6F0FC" offset="0%"></stop>
            <stop stop-color="#B9E7FA" offset="11.1%"></stop>
            <stop stop-color="#6BCFF5" offset="43.35%"></stop>
            <stop stop-color="#31BDF2" offset="69.94%"></stop>
            <stop stop-color="#0DB2F0" offset="89.53%"></stop>
            <stop stop-color="#00AEEF" offset="100%"></stop>
        </linearGradient>
    </defs>
    <g id="Clients" stroke="none" stroke-width="1" fill="none" fill-rule="evenodd" sketch:type="MSPage">
        <g sketch:type="MSArtboardGroup" transform="translate(-858.000000, -1509.000000)" id="Group">
            <g sketch:type="MSLayerGroup" transform="translate(235.000000, 972.000000)">
                <g id="Ocean-Spray" transform="translate(623.000000, 537.000000)">
                    <g id="oceanspray_hover">
                        <g id="Group">
                            <g id="Clipped">
                                <mask id="mask-2" sketch:name="SVGID_1_" fill="white">
                                    <use xlink:href="#path-1"></use>
                                </mask>
                                <g id="SVGID_1_"></g>
                                <path d="M69.9844444,0.02916 C75.5883333,0.14904 83.4477778,0.80028 84.3260185,0.927288 C100.376759,2.579688 112.975463,7.378128 123.471574,14.57676 C130.219444,19.222272 137.423611,26.57124 139.369352,35.415792 C139.578704,36.373536 139.725185,37.307304 139.821111,38.221632 L139.821111,43.093296 C139.312315,47.97468 137.330278,52.14132 135.022222,55.359936 C127.672222,65.857536 116.424259,72.003168 101.875926,76.355136 C96.9266667,77.854608 90.475,79.204392 84.7738889,79.803144 C44.4305556,84.15252 22.0817593,69.75396 20.2844444,68.706792 C15.9340741,66.305952 4.08268519,58.35888 1.23537037,46.9638 C-0.86462963,38.567664 1.38444444,30.77028 6.3337037,24.020064 C14.7324074,12.624984 26.8851852,7.378128 42.4789815,3.328128 C51.9315741,0.927288 61.6777778,0.329184 67.0807407,0.029808 L69.9844444,0.029808 L69.9844444,0.02916 Z" id="Shape" fill="#FFFFFF" sketch:type="MSShapeGroup" mask="url(#mask-2)"></path>
                            </g>
                            <g id="Clipped">
                                <mask id="mask-4" sketch:name="SVGID_1_" fill="white">
                                    <use xlink:href="#path-3"></use>
                                </mask>
                                <g id="SVGID_1_"></g>
                                <path d="M70.4763889,4.139424 C65.8071296,4.259304 55.5534259,6.616728 56.4524074,14.250816 C56.7233333,16.545384 58.594537,18.291096 60.667963,19.205424 C61.3465741,19.51452 64.7655556,20.64852 64.6022222,19.979784 C64.3526852,18.919008 63.9540741,15.842952 67.2797222,11.973096 C73.0372222,5.276016 84.0628704,4.96692 82.0873148,4.617648 C80.7236111,4.375296 72.9873148,4.086288 70.4763889,4.139424" id="Shape" fill="#00AEEF" sketch:type="MSShapeGroup" mask="url(#mask-4)"></path>
                            </g>
                            <g id="Clipped">
                                <mask id="mask-6" sketch:name="SVGID_1_" fill="white">
                                    <use xlink:href="#path-5"></use>
                                </mask>
                                <g id="SVGID_1_"></g>
                                <path d="M58.6846296,4.554792 C56.7123148,4.751136 50.6709259,5.45292 45.2310185,6.71652 C30.1810185,10.194336 9.1,19.288368 5.18388889,35.897904 C3.6037037,42.580728 4.83648148,47.312424 8.33324074,52.759512 C20.3051852,71.337672 50.2113889,77.638824 72.8738889,77.279184 C73.9919444,77.239008 79.8518519,76.999896 81.1727778,76.843728 C82.4859259,76.6908 90.8003704,75.224376 92.0383333,75.031272 C93.2756481,74.828448 105.242407,69.541416 111.734907,67.56372 C122.404074,64.301688 142.133056,39.532536 123.981019,21.407328 C112.981944,10.441224 90.435463,2.570616 74.7975926,11.046456 C66.7625,15.402312 65.4914815,22.00284 73.8525926,26.30556 C75.5423148,27.17388 77.8367593,29.644056 79.8959259,29.644056 C80.0851852,29.73996 79.9594444,29.803464 78.5419444,29.97972 C77.7038889,30.079512 72.0494444,30.299184 67.1105556,25.630344 C66.3288889,24.569568 65.8103704,23.76864 65.2250926,22.418856 C63,22.245192 59.7106481,21.537576 56.9035185,19.32336 C53.9265741,16.959456 51.6813889,11.798784 56.2087037,7.678152 C59.1234259,5.014872 60.904537,4.642272 61.5384259,4.423248 C62.3563889,4.119336 59.9997222,4.428432 58.6846296,4.554792" id="Shape" fill="#004990" sketch:type="MSShapeGroup" mask="url(#mask-6)"></path>
                            </g>
                            <g id="Clipped">
                                <mask id="mask-8" sketch:name="SVGID_1_" fill="white">
                                    <use xlink:href="#path-7"></use>
                                </mask>
                                <g id="SVGID_1_"></g>
                                <path d="M84.9644444,6.659496 C91.6993519,6.200712 101.809815,8.694864 109.227222,11.820168 C128.39037,19.910448 144.780741,36.871848 129.33537,56.224368 C124.246111,62.598744 116.237593,66.928032 108.887593,70.026768 C103.12037,72.464544 96.8910185,74.1636 90.4821296,75.320928 C88.5999074,75.613176 86.7144444,76.002624 84.8315741,76.294872 C84.8315741,76.225536 83.7005556,76.56768 83.7005556,76.484736 C96.2623148,74.087136 112.659167,66.19644 120.561389,55.626264 C122.503889,53.01288 123.445,51.207552 123.654352,50.601672 C125.669444,44.779392 125.855463,39.642048 123.667963,34.388064 C118.612407,22.227696 100.136944,15.913584 86.7967593,18.98316 C83.6739815,19.701144 79.9652778,21.1572 78.575,24.269544 C77.5308333,26.564112 78.1161111,28.263168 79.3663889,29.24424 C80.2809259,29.946024 79.8324074,29.596752 78.5283333,29.543616 C71.4648148,29.178144 61.7711111,20.708784 69.960463,12.142872 C73.6425926,8.285976 82.5261111,6.829272 84.9644444,6.659496" id="Shape" fill="#00AEEF" sketch:type="MSShapeGroup" mask="url(#mask-8)"></path>
                            </g>
                            <g id="Clipped">
                                <mask id="mask-10" sketch:name="SVGID_1_" fill="white">
                                    <use xlink:href="#path-9"></use>
                                </mask>
                                <g id="SVGID_1_"></g>
                                <path d="M95.134537,7.08264 C106.65537,9.286488 131.39713,18.620928 135.341111,36.283464 C136.113056,39.718512 135.827222,44.397072 134.955463,46.874376 C134.390278,48.509928 132.694074,51.363072 131.988889,52.350624 C134.044167,47.762136 135.94,42.331896 134.928889,37.348128 C133.422593,29.909736 128.489537,23.741424 120.108981,18.008568 C111.408241,12.059928 97.3661111,7.135776 88.6990741,6.96924 C83.2040741,6.866208 80.8694444,7.4682 79.1933333,7.820064 C77.5172222,8.171928 74.1280556,9.349344 71.6767593,11.14884 C71.2509259,11.461176 74.0386111,8.169336 82.18,6.786504 C83.8068519,6.513696 88.6394444,5.842368 95.134537,7.08264" id="Shape" fill="#00AEEF" sketch:type="MSShapeGroup" mask="url(#mask-10)"></path>
                            </g>
                            <g id="Clipped">
                                <mask id="mask-12" sketch:name="SVGID_1_" fill="white">
                                    <use xlink:href="#path-11"></use>
                                </mask>
                                <g id="SVGID_1_"></g>
                                <path d="M108.341852,54.887544 C107.656759,53.561088 108.182407,51.924888 109.529259,51.243192 C110.868981,50.561496 112.509444,51.080544 113.197778,52.410888 C113.88287,53.741232 113.357222,55.369656 112.020741,56.05524 C110.68037,56.746656 109.034074,56.217888 108.341852,54.887544 L108.341852,54.887544 Z" id="Shape" stroke="#FFFFFF" stroke-width="0.5" sketch:type="MSShapeGroup" mask="url(#mask-12)"></path>
                            </g>
                            <g id="Clipped">
                                <mask id="mask-14" sketch:name="SVGID_1_" fill="white">
                                    <use xlink:href="#path-13"></use>
                                </mask>
                                <g id="SVGID_1_"></g>
                                <path d="M110.447037,55.31652 L110.975926,55.0476 L110.489815,54.119664 L111.018704,53.846856 C111.288333,53.713368 111.437407,53.780112 111.607222,54.003024 C111.729722,54.178632 111.839907,54.415152 111.986389,54.531144 L112.512037,54.265464 C112.349352,54.178632 112.206111,53.892864 112.119907,53.746416 C111.979907,53.520264 111.774444,53.307072 111.48537,53.374464 L111.478241,53.367336 C111.687593,53.128224 111.694722,52.861896 111.547593,52.582608 C111.361574,52.222968 110.942222,52.05708 110.509907,52.276104 L109.216204,52.940952 L110.447037,55.31652 L110.447037,55.31652 Z M109.951852,53.078976 L110.531296,52.78284 C110.767222,52.66296 110.95,52.699896 111.062778,52.926048 C111.192407,53.16516 111.109444,53.328456 110.88,53.451576 L110.301204,53.747712 L109.951852,53.078976 L109.951852,53.078976 Z" id="Shape" fill="#FFFFFF" sketch:type="MSShapeGroup" mask="url(#mask-14)"></path>
                            </g>
                            <g id="Clipped">
                                <mask id="mask-16" sketch:name="SVGID_1_" fill="white">
                                    <use xlink:href="#path-15"></use>
                                </mask>
                                <g id="SVGID_1_"></g>
                                <path d="M18.4443519,39.442464 C16.8097222,38.138688 18.1202778,35.817552 21.6922222,30.790368 C25.2628704,25.752816 27.1898148,23.541192 28.844537,24.817752 C30.4960185,26.09496 28.9975,28.635768 25.4255556,33.666192 C21.8536111,38.704392 19.7549074,40.492872 18.4443519,39.442464 M16.3553704,42.381792 C20.112037,45.051552 24.4274074,40.728744 28.0810185,35.588808 C31.7663889,30.388608 35.1782407,25.260984 31.0210185,22.002192 C26.8618519,18.74016 22.6300926,23.55804 18.9375926,28.758888 C15.2898148,33.902712 12.2733333,39.469032 16.3553704,42.381792" id="Shape" fill="#FFFFFF" sketch:type="MSShapeGroup" mask="url(#mask-16)"></path>
                            </g>
                            <g id="Clipped">
                                <mask id="mask-18" sketch:name="SVGID_1_" fill="white">
                                    <use xlink:href="#path-17"></use>
                                </mask>
                                <g id="SVGID_1_"></g>
                                <path d="M36.2198148,41.693616 C38.5499074,37.896984 38.4980556,34.697808 35.967037,33.444576 C33.005,31.977504 30.2594444,34.28892 27.8217593,38.255976 C25.0314815,42.791328 23.7280556,46.639152 26.6978704,48.533904 C29.4356481,50.289336 32.1222222,49.09896 34.540463,45.16236 L32.0962963,43.739352 C30.9309259,45.641232 29.4842593,46.8018 28.5911111,46.1862 C27.7582407,45.614016 27.5501852,44.091864 30.2672222,39.665376 C32.1228704,36.646344 33.4522222,35.492256 34.6707407,36.330768 C35.5638889,36.941832 35.2262037,38.272176 33.9007407,40.426776 L36.2198148,41.693616 L36.2198148,41.693616 Z" id="Shape" fill="#FFFFFF" sketch:type="MSShapeGroup" mask="url(#mask-18)"></path>
                            </g>
                            <g id="Clipped">
                                <mask id="mask-20" sketch:name="SVGID_1_" fill="white">
                                    <use xlink:href="#path-19"></use>
                                </mask>
                                <g id="SVGID_1_"></g>
                                <path d="M40.2759259,43.53264 C40.7983333,42.215904 41.6927778,39.86172 43.229537,40.437144 C44.8097222,41.032656 43.9146296,43.170408 43.3241667,44.680248 L40.2759259,43.53264 L40.2759259,43.53264 Z M44.8939815,48.194352 C46.9725926,43.249464 48.2364815,38.830752 44.5977778,37.500408 C40.927963,36.166824 38.7061111,39.442464 37.0384259,43.688808 C35.1276852,48.557232 34.4775926,52.331184 38.2537037,53.66736 C39.8202778,54.229176 40.8728704,53.820288 42.030463,53.15868 C43.202963,52.503552 43.6851852,51.576264 44.3981481,49.893408 L41.8353704,48.879288 C41.3285185,50.166216 40.5222222,51.340392 39.3425926,50.901048 C37.8758333,50.352192 38.4883333,48.247488 39.212963,46.402632 L44.8939815,48.194352 L44.8939815,48.194352 Z" id="Shape" fill="#FFFFFF" sketch:type="MSShapeGroup" mask="url(#mask-20)"></path>
                            </g>
                            <g id="Clipped">
                                <mask id="mask-22" sketch:name="SVGID_1_" fill="white">
                                    <use xlink:href="#path-21"></use>
                                </mask>
                                <g id="SVGID_1_"></g>
                                <path d="M52.1389815,49.98348 C51.9477778,51.841944 51.7546296,54.309528 49.7077778,53.993304 C48.7096296,53.833896 48.5702778,53.0226 48.8593519,51.878232 C49.3260185,50.092992 50.6236111,49.730112 52.1389815,49.98348 L52.1389815,49.98348 Z M55.7232407,46.505664 C56.2916667,43.546248 56.2735185,40.825944 53.0075,40.118328 C51.8473148,39.8682 50.797963,40.198032 49.9631481,40.809744 C49.1147222,41.385168 48.1924074,43.26696 47.814537,45.221976 L50.2846296,45.863496 C50.5322222,44.577216 51.3871296,42.734952 52.4325926,42.981192 C53.5221296,43.233912 53.3594444,44.314776 53.0930556,45.704088 L52.7158333,47.081088 C49.6993519,46.69812 46.9531481,47.273544 46.125463,51.217272 C45.5337037,54.037368 46.1358333,56.374704 48.2377778,56.870424 C49.5450926,57.18276 50.925,56.232144 50.925,56.232144 L50.7590741,57.013632 L53.6122222,57.449088 C53.7386111,56.431728 53.8021296,55.620432 53.9965741,54.61992 L55.7232407,46.505664 L55.7232407,46.505664 Z" id="Shape" fill="#FFFFFF" sketch:type="MSShapeGroup" mask="url(#mask-22)"></path>
                            </g>
                            <g id="Clipped">
                                <mask id="mask-24" sketch:name="SVGID_1_" fill="white">
                                    <use xlink:href="#path-23"></use>
                                </mask>
                                <g id="SVGID_1_"></g>
                                <path d="M60.6517593,41.647608 L57.8342593,41.51412 L56.1931481,57.861216 L58.9257407,58.220208 L60.0762037,46.951488 C60.1176852,45.860256 60.8980556,44.856504 61.867037,44.972496 C62.8314815,45.082656 62.9001852,45.777312 62.7601852,47.230128 L61.717963,58.489128 L64.4771296,58.807944 L65.6911111,45.737136 C65.9037037,43.482744 65.2581481,41.963184 63.4692593,41.710464 C61.8028704,41.467464 60.6517593,42.797808 60.6517593,42.797808 L60.6517593,41.647608 L60.6517593,41.647608 Z" id="Shape" fill="#FFFFFF" sketch:type="MSShapeGroup" mask="url(#mask-24)"></path>
                            </g>
                            <g id="Clipped">
                                <mask id="mask-26" sketch:name="SVGID_1_" fill="white">
                                    <use xlink:href="#path-25"></use>
                                </mask>
                                <g id="SVGID_1_"></g>
                                <path d="M80.8830556,51.539328 C79.7189815,44.92584 72.8810185,46.32876 71.9366667,40.945176 C71.6437037,39.299256 72.0961111,38.12832 73.2135185,37.932624 C75.0691667,37.59696 75.4152778,39.651768 75.7212037,41.427936 L78.7675,40.925736 C77.8069444,35.862264 76.4231481,33.956496 73.0540741,34.521552 C68.8469444,35.223336 68.1184259,38.398536 68.7503704,42.12 C69.960463,49.21236 76.9850926,47.752416 77.8633333,52.583904 C78.2463889,54.695736 77.757037,55.77984 76.5864815,55.972296 C74.2810185,56.361744 73.8124074,54.060696 73.4228704,51.789456 L70.2767593,52.311744 C70.792037,56.468016 72.6813889,59.903064 76.9611111,59.187672 C79.5997222,58.7412 81.9674074,57.694032 80.8830556,51.539328" id="Shape" fill="#FFFFFF" sketch:type="MSShapeGroup" mask="url(#mask-26)"></path>
                            </g>
                            <g id="Clipped">
                                <mask id="mask-28" sketch:name="SVGID_1_" fill="white">
                                    <use xlink:href="#path-27"></use>
                                </mask>
                                <g id="SVGID_1_"></g>
                                <path d="M87.3023148,53.843616 C86.2477778,54.063288 85.439537,52.600104 84.6844444,48.780144 C84.0823148,45.730656 83.9364815,43.546248 85.2133333,43.27344 C86.5472222,42.994152 87.0923148,45.025632 87.6905556,48.071232 C88.4462963,51.89832 88.4132407,53.604504 87.3023148,53.843616 L87.3023148,53.843616 Z M80.2912963,41.184936 L84.6416667,63.02772 L87.4818519,62.446464 L86.3644444,56.653992 L86.6671296,56.647512 C88.0742593,57.222936 88.2071296,57.000024 89.2914815,56.647512 C92.0383333,55.749384 90.9876852,50.249808 90.3790741,47.17764 C89.7639815,44.048448 88.7191667,39.144384 85.5134259,39.822192 C84.3292593,40.065192 83.7906481,40.460472 83.2384259,41.60808 L82.8923148,40.709952 L80.2912963,41.184936 L80.2912963,41.184936 Z" id="Shape" fill="#FFFFFF" sketch:type="MSShapeGroup" mask="url(#mask-28)"></path>
                            </g>
                            <g id="Clipped">
                                <mask id="mask-30" sketch:name="SVGID_1_" fill="white">
                                    <use xlink:href="#path-29"></use>
                                </mask>
                                <g id="SVGID_1_"></g>
                                <path d="M89.7737037,38.957112 L94.6199074,54.80136 L97.3732407,53.9298 L94.6963889,45.284184 C94.3800926,43.55856 93.9912037,40.871304 96.6816667,39.787848 L95.7833333,36.905544 C93.9276852,37.35396 92.929537,39.405528 92.929537,39.405528 L92.4972222,38.09592 L89.7737037,38.957112 L89.7737037,38.957112 Z" id="Shape" fill="#FFFFFF" sketch:type="MSShapeGroup" mask="url(#mask-30)"></path>
                            </g>
                            <g id="Clipped">
                                <mask id="mask-32" sketch:name="SVGID_1_" fill="white">
                                    <use xlink:href="#path-31"></use>
                                </mask>
                                <g id="SVGID_1_"></g>
                                <path d="M114.341759,50.216112 C114.728056,50.791536 115.558981,52.393392 115.558981,52.393392 C117.156019,51.555528 120.361759,49.826664 118.373241,44.396424 C117.864444,43.113384 112.083611,28.522368 112.083611,28.522368 L109.6725,30.121632 L113.191296,38.830104 L106.34037,31.850496 L103.975926,33.386256 L115.050833,44.395776 C118.057593,47.788704 115.050185,49.517568 114.341759,50.216112" id="Shape" fill="#FFFFFF" sketch:type="MSShapeGroup" mask="url(#mask-32)"></path>
                            </g>
                            <g id="Clipped">
                                <mask id="mask-34" sketch:name="SVGID_1_" fill="white">
                                    <use xlink:href="#path-33"></use>
                                </mask>
                                <g id="SVGID_1_"></g>
                                <path d="M104.770556,43.366104 C105.681204,44.989344 106.939259,47.123856 105.076481,48.041424 C104.165185,48.480768 103.59287,47.898216 103.173519,46.790784 C102.428148,44.81568 103.38287,44.024472 104.770556,43.366104 L104.770556,43.366104 Z M105.568426,38.561184 C104.344074,35.804592 103.426296,33.42384 99.7681481,34.880544 C98.6708333,35.323128 98.0583333,36.116928 97.7258333,37.09476 C97.3602778,38.046024 97.5735185,39.851352 98.4971296,42.138792 L100.892037,41.048208 C100.263333,39.465792 99.9373148,37.955952 100.941944,37.552896 C101.97963,37.137528 102.515,38.022048 103.089907,39.305088 L103.579259,40.65552 C100.892037,42.068808 98.9696296,44.110008 100.545278,47.814624 C101.682778,50.468184 103.518981,52.0344 105.521111,51.242544 C106.768796,50.746824 107.357315,49.171536 107.357315,49.171536 L107.676204,49.913496 L110.25713,48.6324 C109.778148,47.72196 109.365278,47.023416 108.953056,46.099368 L105.568426,38.561184 L105.568426,38.561184 Z" id="Shape" fill="#FFFFFF" sketch:type="MSShapeGroup" mask="url(#mask-34)"></path>
                            </g>
                        </g>
                        <g id="Clipped" transform="translate(5.833333, 12.312000)">
                            <mask id="mask-36" sketch:name="SVGID_3_" fill="white">
                                <use xlink:href="#path-35"></use>
                            </mask>
                            <g id="SVGID_3_"></g>
                            <path d="M-28.4076852,8.503056 L41.4335185,-19.13544 L70.4407407,54.13392 L0.601481481,81.772416 L-28.4076852,8.503056 Z" id="Shape" fill="url(#linearGradient-37)" sketch:type="MSShapeGroup" mask="url(#mask-36)"></path>
                        </g>
                        <g id="Clipped" transform="translate(57.037037, 4.536000)">
                            <mask id="mask-39" sketch:name="SVGID_6_" fill="white">
                                <use xlink:href="#path-38"></use>
                            </mask>
                            <g id="SVGID_6_"></g>
                            <rect id="Rectangle-path" fill="url(#linearGradient-40)" sketch:type="MSShapeGroup" mask="url(#mask-39)" x="-1.2962963" y="1.15107923e-15" width="18.0496296" height="13.27752"></rect>
                        </g>
                        <g id="Clipped" transform="translate(68.055556, 7.128000)">
                            <mask id="mask-42" sketch:name="SVGID_9_" fill="white">
                                <use xlink:href="#path-41"></use>
                            </mask>
                            <g id="SVGID_9_"></g>
                            <rect id="Rectangle-path" fill="url(#linearGradient-43)" sketch:type="MSShapeGroup" mask="url(#mask-42)" x="9.21073917e-15" y="-0.648" width="39.2291667" height="20.565576"></rect>
                        </g>
                        <g id="Clipped" transform="translate(101.759259, 17.496000)">
                            <mask id="mask-45" sketch:name="SVGID_12_" fill="white">
                                <use xlink:href="#path-44"></use>
                            </mask>
                            <g id="SVGID_12_"></g>
                            <rect id="Rectangle-path" fill="url(#linearGradient-46)" sketch:type="MSShapeGroup" mask="url(#mask-45)" x="0" y="0" width="28.0771296" height="49.544784"></rect>
                        </g>
                    </g>
                </g>
            </g>
        </g>
    </g>
</svg>