<?xml version="1.0" encoding="UTF-8" standalone="no"?>
<svg width="141px" height="25px" viewBox="0 0 141 25" version="1.1" xmlns="http://www.w3.org/2000/svg" xmlns:xlink="http://www.w3.org/1999/xlink" xmlns:sketch="http://www.bohemiancoding.com/sketch/ns">
    <!-- Generator: Sketch 3.1.1 (8761) - http://www.bohemiancoding.com/sketch -->
    <title>onedirection_hover</title>
    <desc>Created with Sketch.</desc>
    <defs></defs>
    <g id="Clients" stroke="none" stroke-width="1" fill="none" fill-rule="evenodd" sketch:type="MSPage">
        <g sketch:type="MSArtboardGroup" transform="translate(-1064.000000, -1184.000000)" id="Group" fill="#1A1918">
            <g sketch:type="MSLayerGroup" transform="translate(235.000000, 972.000000)">
                <g id="One-Direction" transform="translate(830.000000, 213.000000)" sketch:type="MSShapeGroup">
                    <g id="onedirection_hover">
                        <path d="M119.233726,8.9697 C118.803116,11.7276 116.953642,14.7645 117.959874,17.6145 C120.504926,17.0166 121.657053,10.6503 119.233726,8.9697 L119.233726,8.9697 Z M120.932589,4.215 C121.929095,5.4054 123.631789,6.0954 124.542232,7.6731 C126.797263,11.5815 125.328295,18.6021 122.843368,20.8563 C120.966189,22.5591 116.335284,22.9623 114.350232,20.8563 C109.987832,16.2282 114.752547,3.6555 120.932589,4.215 L120.932589,4.215 Z" id="Fill-1"></path>
                        <path d="M53.8354526,3.999 C52.9565474,7.4988 52.1024,11.0241 51.2874526,14.5887 C54.5039158,13.7532 56.5461474,6.7944 53.8354526,3.999 L53.8354526,3.999 Z M45.9792421,18.9111 C46.8428211,17.6292 48.1994947,16.8486 49.5888842,16.1016 C49.0409684,15.5787 47.4264,16.1412 46.8283789,15.6693 C47.4025263,10.9557 47.9849263,3.4668 50.6505263,0.3249 C50.9405474,-0.0168 51.6202105,-0.2343 52.5613053,-0.1074 C65.1014737,1.5843 59.0802947,24.6735 45.9792421,18.9111 L45.9792421,18.9111 Z" id="Fill-2"></path>
                        <path d="M68.9109474,0.3249 C70.0881263,0.1356 69.7471158,1.4907 70.3973053,1.8378 C78.3534316,-1.7343 81.8021474,9.6516 74.0069474,11.7792 C74.2229895,16.6023 77.1064,18.7101 80.1645895,20.64 C80.0301895,23.2941 77.1647579,23.481 75.2810947,22.8012 C72.7855579,21.9009 70.9245895,17.9268 69.7603789,16.1016 C68.9878737,16.6842 69.4326316,18.5055 69.1234526,19.5597 C67.9492211,19.9494 67.0101895,20.5782 66.5754526,21.7206 C66.0322526,21.1929 65.3458105,20.811 64.6643789,20.424 C64.1235368,15.3537 66.9830737,11.2161 67.2123789,7.0245 C67.2424421,6.4767 66.92,5.8038 67.0001684,5.2956 C67.2792842,3.5244 68.5717053,2.0019 68.9109474,0.3249 L68.9109474,0.3249 Z M71.0342316,8.7534 C72.5179368,8.1744 73.5168,7.1019 74.0069474,5.5119 C71.5730105,5.0061 70.2225263,6.6666 71.0342316,8.7534 L71.0342316,8.7534 Z" id="Fill-3"></path>
                        <path d="M97.7883789,3.783 C97.4933474,4.4676 97.4933474,5.6916 97.7883789,6.3762 C98.9178105,6.8835 100.846274,6.5775 101.397726,7.6731 C102.303747,11.8074 98.4568421,20.8521 103.733516,21.7206 C104.068632,20.7561 104.639242,20.7291 105.432084,20.64 C105.586526,16.4748 105.810232,12.3801 106.069305,8.3214 C109.752337,7.1307 116.359747,8.1468 115.624084,3.1344 C114.441305,2.6223 113.273263,2.6397 111.589726,2.9184 C110.957221,2.9139 111.317684,1.899 110.9528,1.6218 C106.158905,1.929 101.605516,2.4816 97.7883789,3.783" id="Fill-4"></path>
                        <path d="M3.72488421,5.7279 C2.07583158,3.3897 6.15970526,1.4328 9.2456,2.7021 C16.3481684,5.6241 14.7884211,20.724 4.99903158,19.7757 C-1.21755789,19.1733 -1.90075789,7.8867 3.72488421,5.7279 L3.72488421,5.7279 Z M5.42374737,15.2373 C7.55174737,15.4815 9.90728421,9.3168 7.75924211,7.4568 C4.59966316,6.3906 2.25650526,14.8734 5.42374737,15.2373 L5.42374737,15.2373 Z" id="Fill-5"></path>
                        <path d="M110.740589,8.7534 C105.766905,7.9905 106.385558,16.59 107.130947,20.424 C108.009263,20.8266 108.558063,21.5649 109.891158,21.5046 C110.216842,20.8272 110.795705,20.4084 111.377516,19.9917 C111.039453,15.8922 112.801389,11.4882 110.740589,8.7534" id="Fill-6"></path>
                        <path d="M65.5138105,4.8633 C65.4268632,3.7248 64.5718316,0.7404 63.1780211,0.7572 C60.4682105,0.7899 59.7010105,12.8604 59.7808842,15.4533 C60.6969263,16.3491 62.6401263,17.1657 64.0274526,16.3179 C63.8794947,12.8562 65.7935158,8.5329 65.5138105,4.8633" id="Fill-7"></path>
                        <path d="M23.4719579,1.6218 C22.5653474,3.6525 22.8745263,6.921 22.1978105,9.1857 C20.4815579,7.2267 20.3056,1.3809 17.1021053,1.6218 C14.9979789,1.7799 14.9502316,4.8813 14.7663158,7.2408 C14.3843368,12.1398 14.0486316,17.55 14.1293895,21.0723 C15.8966316,21.6804 17.6503158,20.5059 18.3759579,19.3434 C19.0243789,17.8551 18.4670316,14.94 19.2253895,14.1567 C20.9030316,16.0044 21.5882947,19.929 24.7458105,19.5597 C26.8487579,15.4326 26.6954947,9.009 27.5063158,3.5667 C26.7122947,2.439 25.1021474,0.5436 23.4719579,1.6218" id="Fill-8"></path>
                        <path d="M30.6912421,2.2701 C27.3465684,5.028 26.0771368,13.8 28.1432421,18.6951 C31.0027789,21.3339 35.8467789,20.2098 37.6980211,17.3982 C37.5453474,15.6741 37.7781895,13.7832 37.2736,11.9955 C35.1862737,12.3921 34.2690526,13.98 32.6023158,14.805 C31.9029053,14.2917 32.2613053,12.7026 32.1776,11.5632 C34.1429053,10.9575 37.1403789,9.7452 35.3625263,7.2408 C34.8081263,6.8904 33.1360842,7.6512 32.3898105,7.0245 C33.8661474,5.9337 36.5058105,6.027 38.1227368,5.0796 C38.0369684,4.1586 38.3284632,2.8533 37.9105263,2.2701 C35.2242947,1.1748 32.6948632,3.9129 30.6912421,2.2701" id="Fill-9"></path>
                        <path d="M81.2262316,3.999 C79.9344,7.0374 74.3974737,14.253 78.6782316,17.6145 C79.4754947,18.2403 82.5955789,19.0959 83.9867368,18.9111 C85.8718737,18.6609 86.8716211,17.0547 86.5347368,14.3727 C85.7981895,13.6818 84.0548211,14.0148 82.7125895,13.9404 L82.7125895,11.9955 C84.1426526,10.9368 86.3033684,10.4421 86.3222316,8.5374 C85.8813053,8.1219 84.8694737,8.2869 84.4114526,7.8891 C85.1874947,7.3107 86.5450526,7.3233 87.5963789,7.0245 C88.1590316,6.0846 88.0956632,4.5072 88.4455158,3.3507 C85.5653474,3.1557 82.7668211,2.2146 81.2262316,3.999" id="Fill-10"></path>
                        <path d="M133.672295,11.1309 C132.167074,9.7668 131.656,5.2533 129.213516,5.5119 C127.183074,5.7267 126.829095,10.6623 126.453011,13.2921 C125.933684,16.926 125.310611,20.0019 124.754442,22.1529 C128.131537,25.3185 130.380084,19.4862 130.912084,16.3179 C133.304463,17.652 131.864674,23.9616 135.370863,23.4498 C137.765011,19.3476 141.389095,8.6502 138.343874,3.1344 C133.816126,2.7765 135.341684,8.5797 133.672295,11.1309" id="Fill-11"></path>
                        <path d="M97.3636632,8.1051 C97.6978947,2.1375 91.4485895,3.351 89.0824421,6.1602 C86.6538105,9.0438 85.9476211,16.0476 89.2949474,18.4788 C92.0418947,20.4744 97.6816842,19.8549 99.4869474,16.9662 C99.3905684,12.7776 95.1272,13.5744 93.3293053,15.6693 C91.4736421,14.5677 91.8668211,10.2411 93.7540211,9.402 C93.1427368,14.9997 97.1882947,11.2314 97.3636632,8.1051" id="Fill-12"></path>
                    </g>
                </g>
            </g>
        </g>
    </g>
</svg>