<?xml version="1.0" encoding="UTF-8" standalone="no"?>
<svg width="140px" height="27px" viewBox="0 0 140 27" version="1.1" xmlns="http://www.w3.org/2000/svg" xmlns:xlink="http://www.w3.org/1999/xlink" xmlns:sketch="http://www.bohemiancoding.com/sketch/ns">
    <!-- Generator: Sketch 3.1.1 (8761) - http://www.bohemiancoding.com/sketch -->
    <title>philips_default</title>
    <desc>Created with Sketch.</desc>
    <defs></defs>
    <g id="Clients" stroke="none" stroke-width="1" fill="none" fill-rule="evenodd" sketch:type="MSPage">
        <g sketch:type="MSArtboardGroup" transform="translate(-650.000000, -1023.000000)" id="Group" fill="#F3F1EF">
            <g sketch:type="MSLayerGroup" transform="translate(235.000000, 972.000000)">
                <g id="Philips" transform="translate(415.000000, 51.000000)" sketch:type="MSShapeGroup">
                    <g id="philips_default">
                        <path d="M47.46805,25.5577174 L39.95145,25.5577174 L39.95145,15.6766576 L32.1258,15.6766576 L32.1258,25.5577174 L24.60815,25.5577174 L24.60815,0.699103261 L32.1258,0.699103261 L32.1258,10.4766576 L39.95145,10.4766576 L39.95145,0.699103261 L47.46805,0.699103261 L47.46805,25.5577174 L47.46805,25.5577174 Z M73.62145,5.69279891 L73.62145,25.5577174 L66.1045,25.5577174 L66.1045,0.699103261 L79.69745,0.699103261 L80.829,5.69279891 L73.62145,5.69279891 L73.62145,5.69279891 Z M60.54475,25.5577174 L53.02815,25.5577174 L53.02815,0.69875 L60.54475,0.69875 L60.54475,25.5577174 L60.54475,25.5577174 Z M91.02345,25.5577174 L83.50755,25.5577174 L83.50755,0.69875 L91.02345,0.69875 L91.02345,25.5577174 L91.02345,25.5577174 Z M128.0895,19.2135054 C128.0895,20.5650815 129.43,21.19 131.58985,21.19 C133.95865,21.19 136.535,20.6696467 138.28395,19.93875 L137.66725,25.3489402 C135.709,25.7650815 133.95865,26.0770109 130.7677,26.0770109 C124.6917,26.0770109 120.57465,23.6578804 120.57465,18.5875272 C120.57465,9.85315217 132.3147,11.6198098 132.3147,7.56366848 C132.3147,6.00472826 131.18,5.1738587 128.3982,5.1738587 C125.93105,5.1738587 122.11815,6.00472826 119.8533,7.14894022 L120.67965,1.42682065 C122.94275,0.594538043 126.03185,0.179809783 128.50425,0.179809783 C134.7836,0.179809783 139.93315,2.2605163 139.93315,8.50157609 C139.93315,16.8194565 128.0895,15.2608696 128.0895,19.2135054 L128.0895,19.2135054 Z M106.883,6.6282337 C113.8795,6.6282337 118.30875,10.2692935 118.30875,16.6120924 C118.30875,23.5812228 113.57325,26.0770109 105.8505,26.0770109 C102.8643,26.0770109 99.2586,25.8696467 96.68505,25.5577174 L96.68505,0.699103261 L104.2048,0.699103261 L104.2048,6.6282337 L106.883,6.6282337 L106.883,6.6282337 Z M110.89505,16.5092935 C110.89505,13.284375 109.3519,11.100163 105.43785,11.100163 L104.2048,11.100163 L104.2048,21.3712228 C104.6409,21.3959511 105.0518,21.3959511 105.43785,21.3959511 C109.14365,21.3959511 110.89505,19.628587 110.89505,16.5092935 L110.89505,16.5092935 Z M10.19375,6.6282337 C17.19585,6.6282337 21.623,10.2692935 21.623,16.6120924 C21.623,23.5812228 16.88645,26.0770109 9.1644,26.0770109 C6.17785,26.0770109 2.57355,25.8696467 0,25.5577174 L0,0.699103261 L7.51555,0.699103261 L7.51555,6.6282337 L10.19375,6.6282337 L10.19375,6.6282337 Z M14.2107,16.5092935 C14.2107,13.284375 12.66545,11.100163 8.75245,11.100163 L7.51555,11.100163 L7.51555,21.3712228 C7.95515,21.3959511 8.3657,21.3959511 8.75245,21.3959511 C12.45755,21.3959511 14.2107,19.628587 14.2107,16.5092935 L14.2107,16.5092935 Z" id="path2859" transform="translate(69.966575, 13.128410) scale(1, -1) translate(-69.966575, -13.128410) "></path>
                    </g>
                </g>
            </g>
        </g>
    </g>
</svg>