<?xml version="1.0" encoding="UTF-8" standalone="no"?>
<svg width="140px" height="22px" viewBox="0 0 140 22" version="1.1" xmlns="http://www.w3.org/2000/svg" xmlns:xlink="http://www.w3.org/1999/xlink" xmlns:sketch="http://www.bohemiancoding.com/sketch/ns">
    <!-- Generator: Sketch 3.1.1 (8761) - http://www.bohemiancoding.com/sketch -->
    <title>popsugar_hover</title>
    <desc>Created with Sketch.</desc>
    <defs></defs>
    <g id="Clients" stroke="none" stroke-width="1" fill="none" fill-rule="evenodd" sketch:type="MSPage">
        <g sketch:type="MSArtboardGroup" transform="translate(-1065.000000, -1538.000000)" id="Group" fill="#C81A5A">
            <g sketch:type="MSLayerGroup" transform="translate(235.000000, 972.000000)">
                <g id="Popsugar" transform="translate(830.000000, 566.000000)" sketch:type="MSShapeGroup">
                    <g id="popsugar_hover">
                        <path d="M134.096109,9.35562222 C133.579352,9.83057778 132.804096,10.0654889 131.772253,10.0654889 L126.828055,10.0654889 L126.828055,4.10104444 L131.772253,4.10104444 C132.804096,4.10104444 133.579352,4.33742222 134.096109,4.80211111 C134.615495,5.26166667 134.874232,6.00917778 134.874232,7.04171111 C134.874232,8.10944444 134.615495,8.8814 134.096109,9.35562222 L134.096109,9.35562222 Z M109.966177,13.4280667 L112.638362,5.70924444 L112.695222,5.70924444 L115.283311,13.4280667 L109.966177,13.4280667 L109.966177,13.4280667 Z M46.7556997,8.9012 C46.5332765,9.31797778 46.2396587,9.63917778 45.8765188,9.86675556 C45.5097952,10.0936 45.0859727,10.2466222 44.6036177,10.3255778 C44.1229352,10.4072222 43.6207509,10.4441333 43.101843,10.4441333 L39.5774744,10.4441333 L39.5774744,4.10104444 L43.101843,4.10104444 C43.6207509,4.10104444 44.1229352,4.14235556 44.6036177,4.22473333 C45.0859727,4.29904444 45.5097952,4.45671111 45.8765188,4.67842222 C46.2396587,4.91113333 46.5332765,5.23135556 46.7556997,5.64446667 C46.9783618,6.06124444 47.0901706,6.6044 47.0901706,7.27295556 C47.0901706,7.94591111 46.9783618,8.48808889 46.7556997,8.9012 L46.7556997,8.9012 Z M29.1066212,12.9325778 L30.7163823,18.8723333 L25.4286348,15.3611333 L20.1401706,18.8723333 L21.7504096,12.9325778 L16.8721502,8.58195556 L22.998942,8.16273333 L25.4286348,2.22126667 L27.8576109,8.16273333 L33.9846416,8.58195556 L29.1066212,12.9325778 L29.1066212,12.9325778 Z M11.6947782,8.9012 C11.4728328,9.31797778 11.1794539,9.63917778 10.8146416,9.86675556 C10.448157,10.0936 10.022901,10.2466222 9.54197952,10.3255778 C9.05986348,10.4072222 8.55959044,10.4441333 8.03829352,10.4441333 L4.51440273,10.4441333 L4.51440273,4.10104444 L8.03829352,4.10104444 C8.55959044,4.10104444 9.05986348,4.14235556 9.54197952,4.22473333 C10.022901,4.29904444 10.448157,4.45671111 10.8146416,4.67842222 C11.1794539,4.91113333 11.4728328,5.23135556 11.6947782,5.64446667 C11.9179181,6.06124444 12.0278157,6.6044 12.0278157,7.27295556 C12.0278157,7.94591111 11.9179181,8.48808889 11.6947782,8.9012 L11.6947782,8.9012 Z M139.517167,20.4612222 C139.41157,20.0410222 139.333447,19.5971111 139.285666,19.1287556 C139.237167,18.6584444 139.205631,18.2020667 139.185085,17.7513111 C139.166928,17.2993333 139.146143,16.9072444 139.12727,16.5760222 C139.090956,16.0468 139.016894,15.5175778 138.910102,14.9910444 C138.808328,14.4620667 138.639181,13.9783111 138.409829,13.5402667 C138.178805,13.0968444 137.883754,12.7174667 137.518942,12.3962667 C137.153891,12.0738444 136.696621,11.8301333 136.140205,11.6761333 L136.140205,11.6135556 C137.288396,11.1444667 138.118123,10.4588 138.625085,9.54995556 C139.134915,8.65235556 139.389113,7.58071111 139.389113,6.33771111 C139.389113,5.53495556 139.251263,4.78377778 138.97198,4.08466667 C138.694608,3.39093333 138.291809,2.77395556 137.767167,2.24448889 C137.238225,1.71111111 136.605836,1.29506667 135.866416,0.990977778 C135.131536,0.687377778 134.301331,0.533622222 133.383208,0.533622222 L122.311741,0.533622222 L122.311741,20.4812667 L115.025529,0.533622222 L110.398601,0.533622222 L103.269829,19.8246889 L103.269829,10.1950444 L94.666041,10.1950444 L94.666041,13.6373111 L99.2048123,13.6373111 C99.068157,15.0964 98.5987031,16.2108222 97.7876109,16.9793556 C96.9726962,17.7466667 95.8240273,18.1328889 94.3346758,18.1328889 C93.3226621,18.1328889 92.4630717,17.9346444 91.7563823,17.5283778 C91.049215,17.1311556 90.4777474,16.5960667 90.0360068,15.9346 C89.5980887,15.2692222 89.2781911,14.5204889 89.0796587,13.6888889 C88.8763481,12.8543556 88.7779181,12.001 88.7779181,11.121 C88.7779181,10.2033556 88.8763481,9.31064444 89.0796587,8.45117778 C89.281058,7.58731111 89.6021502,6.8222 90.0417406,6.15046667 C90.483959,5.47751111 91.0575768,4.93851111 91.7649829,4.53835556 C92.475256,4.13551111 93.3367577,3.93457778 94.352116,3.93457778 C95.4434471,3.93457778 96.374471,4.2284 97.1408874,4.81531111 C97.903959,5.40515556 98.4250171,6.28906667 98.6913993,7.46435556 L103.000102,7.46435556 C102.886621,6.26608889 102.570068,5.20788889 102.053788,4.28877778 C101.535119,3.37137778 100.882423,2.60015556 100.08686,1.97095556 C99.2877133,1.34957778 98.399215,0.875355556 97.4134812,0.553422222 C96.4265529,0.230266667 95.4059386,0.0689333333 94.352116,0.0689333333 C92.7808191,0.0689333333 91.3683959,0.356888889 90.1129352,0.920333333 C88.856041,1.49013333 87.7988737,2.27235556 86.9356997,3.26797778 C86.0701365,4.26531111 85.4124232,5.43986667 84.9530034,6.77502222 C84.7991468,7.22064444 84.6808874,7.68313333 84.5786348,8.15442222 L84.5786348,0.533622222 L80.0647099,0.533622222 L80.0647099,13.5776667 C80.0647099,15.1455333 79.75843,16.2961333 79.1430034,17.0299556 C78.527099,17.7642667 77.4137884,18.1328889 75.802116,18.1328889 C74.8801706,18.1328889 74.1445734,18.0001556 73.5965188,17.7373778 C73.0494198,17.4706889 72.6222526,17.1255333 72.3147782,16.7072889 C72.0070648,16.2856222 71.8068601,15.8038222 71.7098635,15.2508889 C71.6131058,14.7052889 71.5669966,14.1455111 71.5669966,13.5776667 L71.5669966,0.533622222 L67.0509215,0.533622222 L67.0509215,13.4185333 C66.9331399,13.0518667 66.7876451,12.7057333 66.593413,12.4075111 C66.1050853,11.6524222 65.5266894,11.0496222 64.8579863,10.6018 C64.1871331,10.1510444 63.513413,9.82544444 62.8353925,9.61791111 C62.157372,9.41306667 61.6253242,9.26713333 61.2437884,9.19208889 C59.9627645,8.86086667 58.9230375,8.58733333 58.1301024,8.3688 C57.3364505,8.15442222 56.7167235,7.93857778 56.2663823,7.72053333 C55.8162799,7.5086 55.5145392,7.27295556 55.3623549,7.0202 C55.2108874,6.76182222 55.1325256,6.43035556 55.1325256,6.01944444 C55.1325256,5.56868889 55.23,5.19688889 55.4199317,4.9038 C55.611058,4.60973333 55.8559386,4.36406667 56.1524232,4.16655556 C56.4481911,3.97515556 56.7766894,3.83435556 57.1391126,3.76004444 C57.5024915,3.67815556 57.8682594,3.64075556 58.2304437,3.64075556 C58.7842321,3.64075556 59.2981229,3.68842222 59.7673379,3.78791111 C60.233686,3.883 60.6491468,4.05386667 61.0127645,4.28877778 C61.3766212,4.52148889 61.6707167,4.84562222 61.8890785,5.25946667 C62.1086348,5.66891111 62.2359727,6.19031111 62.2763481,6.8156 L66.6287713,6.8156 C66.6287713,5.59973333 66.4034812,4.56866667 65.9550512,3.7158 C65.5066212,2.86513333 64.8983618,2.1692 64.1364846,1.62286667 C63.3703072,1.07628889 62.4956655,0.680288889 61.5123208,0.4356 C60.5270648,0.192622222 59.5007167,0.0689333333 58.4327986,0.0689333333 C57.5149147,0.0689333333 56.5991809,0.199222222 55.6808191,0.451977778 C54.7631741,0.707422222 53.9432423,1.09413333 53.2186348,1.62286667 C52.4930717,2.1516 51.9029693,2.81135556 51.4540614,3.60311111 C51.2662799,3.93457778 51.1269966,4.29684444 51.017099,4.67768889 C50.7562116,3.91331111 50.356041,3.22324444 49.8118089,2.62362222 C49.246314,1.99466667 48.5145392,1.49013333 47.6117065,1.10806667 C46.7095904,0.721355556 45.6163481,0.533622222 44.3300683,0.533622222 L35.0609215,0.533622222 L35.0609215,7.31915556 C35.0083618,7.13826667 34.9620137,6.95248889 34.9003754,6.77502222 C34.4397611,5.43986667 33.7796587,4.26531111 32.9200683,3.26797778 C32.0556997,2.27235556 31.0052218,1.49013333 29.7600341,0.920333333 C28.5150853,0.356888889 27.0976451,0.0689333333 25.5098635,0.0689333333 C23.9397611,0.0689333333 22.5280546,0.356888889 21.2764164,0.920333333 C20.0209556,1.49013333 18.9623549,2.27235556 18.10157,3.26797778 C17.3502048,4.13844444 16.7598635,5.15117778 16.3143003,6.28148889 C16.2531399,5.76693333 16.1496928,5.26313333 15.9905802,4.77057778 C15.729215,3.96855556 15.3182935,3.24817778 14.7523208,2.62362222 C14.1870648,1.99466667 13.4531399,1.49013333 12.5512628,1.10806667 C11.6496246,0.721355556 10.5551877,0.533622222 9.26843003,0.533622222 L0,0.533622222 L0,21.5360444 L4.51440273,21.5360444 L4.51440273,14.0149778 L9.26723549,14.0149778 C10.5511263,14.0149778 11.6436519,13.8243111 12.5500683,13.4422444 C13.4509898,13.0599333 14.1846758,12.5534444 14.7523208,11.9266889 C15.0153584,11.6340889 15.2408874,11.3219333 15.4365529,10.9904667 C15.4365529,11.0398444 15.4320137,11.0877556 15.4320137,11.1376222 C15.4320137,12.6636889 15.661843,14.0873333 16.120785,15.4085556 C16.579727,16.7258667 17.240785,17.8794 18.10157,18.8566889 C18.9623549,19.8334889 20.0209556,20.6049556 21.2764164,21.1574 C22.5280546,21.7169333 23.9397611,22 25.5098635,22 C27.0976451,22 28.5150853,21.7169333 29.7600341,21.1574 C31.0052218,20.6049556 32.0556997,19.8334889 32.9200683,18.8566889 C33.7796587,17.8794 34.4397611,16.7258667 34.9003754,15.4085556 C34.9620137,15.2330444 35.0083618,15.0528889 35.0609215,14.8729778 L35.0609215,21.5360444 L39.5774744,21.5360444 L39.5774744,14.0149778 L44.3272014,14.0149778 C45.6134812,14.0149778 46.7095904,13.8243111 47.6117065,13.4422444 C48.5128669,13.0599333 49.246314,12.5534444 49.8118089,11.9266889 C50.3782594,11.2984667 50.7922867,10.5780889 51.053413,9.7614 C51.154471,9.44386667 51.2285324,9.12364444 51.2906485,8.80097778 C51.2982935,8.81711111 51.3040273,8.83495556 51.3111945,8.84962222 C51.667884,9.52942222 52.1296928,10.0896889 52.7033106,10.5404444 C53.2776451,10.9868 53.9253242,11.3559111 54.6551877,11.6384889 C55.3786007,11.9227778 56.1285324,12.1613556 56.8908874,12.3566667 C57.6374744,12.5725111 58.3742662,12.7690444 59.1012628,12.9399111 C59.8280205,13.1173778 60.4783276,13.3214889 61.0519454,13.5586 C61.6253242,13.7935111 62.0871331,14.0873333 62.4433447,14.4393333 C62.7964505,14.7869333 62.9756314,15.2508889 62.9756314,15.8177556 C62.9756314,16.3472222 62.8389761,16.7774444 62.5716382,17.1226 C62.3023891,17.4638444 61.9674403,17.7317556 61.563686,17.9241333 C61.1611263,18.1223778 60.73157,18.2565778 60.2697611,18.3277111 C59.8098635,18.3915111 59.3788737,18.4264667 58.9775085,18.4264667 C58.3843003,18.4264667 57.8068601,18.3514222 57.2513993,18.2054889 C56.6954608,18.0583333 56.2133447,17.831 55.8014676,17.5283778 C55.388157,17.2247778 55.056314,16.8275556 54.8085666,16.3372 C54.5586689,15.8478222 54.434198,15.2508889 54.434198,14.5439556 L50.0839249,14.5439556 C50.0645734,15.8419556 50.2922526,16.9544222 50.7712628,17.897 C51.2500341,18.8398222 51.8955631,19.6142222 52.7083276,20.2287556 C53.5225256,20.8369333 54.457372,21.2828 55.5197952,21.5683111 C56.5798294,21.8538222 57.6761775,22 58.8054949,22 C60.2021502,22 61.4294198,21.8266889 62.4913652,21.4991333 C63.5523549,21.1649778 64.4430034,20.6961333 65.1590102,20.1021333 C65.8766894,19.5054444 66.4161433,18.7916667 66.7804778,17.9715556 C67.0482935,17.3685111 67.2145734,16.7273333 67.2860068,16.0526667 C67.6140273,17.6950889 68.2930034,18.9940667 69.3396587,19.9393333 C70.863413,21.3116444 73.0207509,22 75.802116,22 C78.5457338,22 80.694471,21.3028444 82.2502389,19.9241778 C83.7269283,18.6098 84.4933447,16.6261333 84.5643003,13.9871111 C84.6691809,14.4730667 84.7900683,14.9482667 84.9498976,15.4085556 C85.4086007,16.7258667 86.0694198,17.8794 86.929727,18.8566889 C87.7907509,19.8334889 88.8450512,20.6049556 90.0988396,21.1574 C91.3490444,21.7169333 92.7593174,22 94.3272696,22 C95.3204096,22 96.3068601,21.7846444 97.2811263,21.3583333 C98.256587,20.9420444 99.145802,20.1977111 99.9475768,19.1334 L100.407713,21.5177111 L102.64413,21.5177111 L102.636962,21.5360444 L107.179556,21.5360444 L108.788601,16.8705778 L116.462082,16.8705778 L118.012355,21.5360444 L126.828055,21.5360444 L126.828055,13.3425111 L131.333618,13.3425111 C132.46198,13.3425111 133.275939,13.5982 133.774539,14.1071333 C134.271229,14.6158222 134.597577,15.4183333 134.750239,16.5149111 C134.865631,17.3540889 134.954744,18.2382444 135.010648,19.1573556 C135.069659,20.075 135.223515,20.867 135.473413,21.5360444 L139.989727,21.5360444 C139.780205,21.2390444 139.624198,20.8848444 139.517167,20.4612222 L139.517167,20.4612222 Z" id="Fill-1"></path>
                    </g>
                </g>
            </g>
        </g>
    </g>
</svg>