<?xml version="1.0" encoding="UTF-8" standalone="no"?>
<svg width="179px" height="43px" viewBox="0 0 179 43" version="1.1" xmlns="http://www.w3.org/2000/svg" xmlns:xlink="http://www.w3.org/1999/xlink" xmlns:sketch="http://www.bohemiancoding.com/sketch/ns">
    <!-- Generator: Sketch 3.3.3 (12081) - http://www.bohemiancoding.com/sketch -->
    <title>Slice 1</title>
    <desc>Created with Sketch.</desc>
    <defs></defs>
    <g id="Page-1" stroke="none" stroke-width="1" fill="none" fill-rule="evenodd" sketch:type="MSPage">
        <g id="prudentialfinancial_hover" sketch:type="MSLayerGroup">
            <g id="Page-1" sketch:type="MSShapeGroup">
                <g id="PF_source">
                    <path d="M0,0 L179,0 L179,43 L0,43 L0,0 L0,0 Z" id="Shape" fill="#FDFEFE"></path>
                    <path d="M12.6810313,5.83931596 C16.4176563,3.67530945 20.930414,2.98198697 25.1662812,3.71872964 C28.8819297,4.34061889 32.3346718,6.27351789 34.9133906,9.01039085 C36.8250547,11.0469381 38.3843125,13.4994788 39.0583593,16.2349511 C35.9412422,15.3623453 32.8003515,14.5709772 29.6930235,13.6647557 C27.0248047,12.1464495 24.3929453,10.5595114 21.7191328,9.04820844 C20.7430235,8.79469055 19.7305547,8.69524427 18.7418593,8.49635177 C18.740461,9.21348536 18.740461,9.93061889 18.740461,10.6463518 C19.4998125,11.3466775 20.2507735,12.0540065 21.0073281,12.7571335 C19.9585,12.6478828 18.906875,12.5918567 17.8580468,12.4882084 C18.6817265,13.4434528 19.5739297,14.3370684 20.4227812,15.271303 C20.6563203,15.568241 21.0828438,15.4842019 21.4100781,15.572443 C25.117336,16.2027361 28.8329843,16.7896092 32.5346485,17.4479153 C33.281414,17.8442996 33.9666485,18.3569381 34.6798515,18.8121498 C32.8604843,18.9073942 31.0383203,18.9690228 29.2189531,19.0824756 C28.473586,21.7717264 27.7463985,24.4665798 27.0038281,27.1572313 C26.9646718,27.427557 26.6765938,27.5115961 26.4892031,27.6586645 C24.2209375,29.1685668 21.9554688,30.6812704 19.69,32.1925733 C19.5445625,32.3200326 19.3473828,32.3018241 19.1683828,32.3046254 C17.6748515,32.2962215 16.1799218,32.306026 14.6863906,32.2990228 C15.2233906,31.2149186 15.7897578,30.1448208 16.321164,29.0579153 C16.1365703,28.9752769 15.9589688,29.0144951 15.8177265,29.1573616 C14.444461,30.2092508 13.0614063,31.2485342 11.6881406,32.3004234 C11.3371328,32.3018241 10.986125,32.3018241 10.6351172,32.2976221 C12.0783047,30.2666775 13.527086,28.2399348 14.9744688,26.2117916 C15.070961,26.0829316 15.1227031,25.9386645 15.1310938,25.7775896 C15.2891172,24.4623779 15.3646328,23.1401629 15.4751093,21.8207492 C15.2527578,21.5 15.0248125,21.1848534 14.7912735,20.8739088 C14.2570703,22.9496743 13.7214688,25.0240391 13.191461,27.0998045 C13.1005625,27.4079479 13.0739922,27.7581107 12.8502422,28.0074267 C11.6601718,29.4374919 10.458914,30.8591531 9.27723434,32.2948208 C8.9569922,32.3018241 8.63675,32.3018241 8.31790625,32.2976221 C8.99754684,31.3311726 9.68557809,30.3717264 10.372211,29.4108795 C10.493875,29.2414006 10.5777813,29.0495114 10.6393125,28.8520195 C11.625211,25.7887948 12.6376797,22.7325733 13.6207813,19.6679479 C13.3592735,19.7842019 13.099164,19.904658 12.8404531,20.0293159 C12.4097343,21.2198697 11.9818125,22.4118241 11.5524922,23.6023779 C11.379086,24.1262215 10.5819765,24.051987 10.4225547,24.5954397 C9.35554684,27.1894463 8.27315625,29.7750489 7.16,32.3480456 C5.77554688,30.3871335 4.65539843,28.2105212 4.12119531,25.8574267 C3.37023438,22.5532899 3.32828125,19.0166449 4.45542188,15.7909446 C5.86924218,11.6212052 8.85210934,8.00472314 12.6810313,5.83931596 L12.6810313,5.83931596 L12.6810313,5.83931596 Z" id="Shape" fill="#087EC3"></path>
                    <path d="M10.7413985,8.64762214 C13.7130782,6.07462538 17.618914,4.64736156 21.5401328,4.59833876 C25.216625,4.49749186 28.9057032,5.68104234 31.8675937,7.85905537 C34.1834063,9.55804563 36.0992657,11.8607166 37.155086,14.5485668 C34.5134375,13.8118241 31.871789,13.0764821 29.2287422,12.345342 C28.7574687,12.1996743 28.3561172,11.8999348 27.9212032,11.67443 C25.8766875,10.5483062 23.8503515,9.38856676 21.7988437,8.27504888 C20.607375,7.98091204 19.3711562,7.87726387 18.1629062,7.65315962 C17.6077265,8.79749185 17.0958985,9.96563518 16.5239375,11.1015635 C16.1113985,11.3985017 15.595375,11.5259609 15.202414,11.8495114 C14.5073907,13.5541043 13.8557187,15.2755049 13.1732812,16.9842996 C12.6796328,17.1649837 12.21675,17.4142996 11.7440782,17.6412052 C10.2099922,21.7325081 8.69128905,25.828013 7.16139845,29.9207166 C6.27059375,28.3715961 5.54200782,26.7076221 5.20358594,24.9456026 C4.87914844,23.2816287 4.78964844,21.5728339 4.89173437,19.8822476 C5.23155469,15.5500326 7.45646875,11.4559283 10.7413985,8.64762214 L10.7413985,8.64762214 L10.7413985,8.64762214 Z" id="Shape" fill="#FDFEFE"></path>
                    <path d="M97.7829455,12.1982736 C99.830258,12.0287948 101.878968,11.8663192 103.929078,11.7374593 C103.931875,18.0011726 103.927679,24.2662867 103.930476,30.53 C103.951453,30.9852117 103.937468,31.5076547 104.256312,31.8704234 C104.605922,32.2261889 105.142922,32.193974 105.60161,32.2163844 C105.603008,32.6015635 105.603008,32.9867427 105.60161,33.3719218 C103.852164,33.3733225 102.104117,33.3733225 100.354672,33.3719218 C100.325304,32.7598371 100.295937,32.1477524 100.273562,31.5356678 C99.616297,32.7192182 98.4108434,33.6016287 97.059953,33.7753094 C95.682492,33.9209772 94.211336,33.6786645 93.0758045,32.8438762 C91.839586,31.9278502 91.120789,30.4711726 90.775375,29.0004886 C90.3138905,26.8434854 90.2915155,24.5015961 91.1991015,22.452443 C91.8130155,21.0728013 92.776539,19.7856026 94.121836,19.0516612 C95.3035155,18.3933551 96.7229295,18.2658957 98.040258,18.4970032 C98.833172,18.6328665 99.593922,19.044658 100.049813,19.723974 C99.8582265,18.088013 100.013453,16.4338436 99.875008,14.7950814 C99.8232655,14.407101 99.8008905,13.9560912 99.4834455,13.6787622 C99.0205625,13.2641694 98.3591015,13.3089902 97.7829455,13.2949837 C97.781547,12.9294137 97.781547,12.5638436 97.7829455,12.1982736 L97.7829455,12.1982736 L97.7829455,12.1982736 Z" id="Shape" fill="#087EC3"></path>
                    <path d="M167.657274,12.2052769 C169.685008,12.0414006 171.715539,11.8733225 173.746071,11.7458632 C173.750265,18.0123779 173.744672,24.2774919 173.748867,30.5426058 C173.762851,31.0412378 173.80061,31.6197068 174.204758,31.9712704 C174.554367,32.2205863 175.013054,32.1659609 175.42,32.217785 L175.42,33.3817264 C173.021679,33.383127 170.624758,33.383127 168.227836,33.3817264 C168.225039,32.9937459 168.225039,32.6057655 168.227836,32.2191857 C168.666946,32.1659609 169.192758,32.1883713 169.525586,31.8382084 C169.77311,31.45443 169.756328,30.9712052 169.774508,30.5314006 C169.774508,25.398013 169.778703,20.2632247 169.771711,15.1284365 C169.738149,14.6368078 169.766117,14.0639414 169.426297,13.6661564 C168.942437,13.2487622 168.250211,13.3243974 167.657274,13.3033876 C167.654476,12.9378176 167.654476,12.5722476 167.657274,12.2052769 L167.657274,12.2052769 L167.657274,12.2052769 Z" id="Shape" fill="#087EC3"></path>
                    <path d="M46.2127656,12.1786645 C49.033414,12.1814658 51.8540625,12.1660586 54.6761093,12.1870684 C56.643711,12.2458957 58.7106015,12.6100652 60.3202032,13.8216287 C61.377422,14.6017916 62.0738441,15.8203583 62.2654295,17.1173616 C62.486383,18.5992508 62.3255625,20.2240065 61.438953,21.4761889 C60.4824219,22.8292182 58.903586,23.593974 57.3317422,23.9735505 C55.8340157,24.3419218 54.2803515,24.325114 52.7490625,24.3195114 L52.7490625,30.2442671 C52.7141015,30.9754071 52.8665313,32.0076873 53.7685235,32.1029316 C54.4048125,32.2359935 55.0592812,32.1883713 55.7053593,32.1967753 L55.7053593,33.3719218 C52.5406953,33.3733225 49.3760312,33.3733225 46.2113672,33.3719218 C46.2099687,32.9811401 46.2099687,32.5903583 46.2113672,32.2009772 C46.830875,32.18557 47.5105156,32.2401955 48.0601015,31.8956352 C48.5425625,31.5034528 48.5355703,30.8115309 48.5551485,30.2442671 C48.5523515,25.2523453 48.5621406,20.2604234 48.5509532,15.267101 C48.521586,14.680228 48.5299765,13.9406841 47.9999687,13.5597068 C47.4433907,13.3061889 46.8085,13.3636156 46.2127656,13.3384039 C46.2099687,12.9518241 46.2099687,12.5652443 46.2127656,12.1786645 L46.2127656,12.1786645 L46.2127656,12.1786645 Z" id="Shape" fill="#087EC3"></path>
                    <path d="M139.488547,12.1884691 C139.898289,12.1744625 140.309429,12.1730619 140.721969,12.1786645 C140.723367,14.374886 140.721969,16.5711075 140.723367,18.767329 C141.653328,18.7701303 142.586086,18.7687296 143.517446,18.7687296 L143.517446,19.9452769 C142.586086,19.9480782 141.654726,19.9452769 140.723367,19.9466775 C140.720571,23.1975896 140.724765,26.4485017 140.721969,29.698013 C140.734554,30.3577199 140.671625,31.1070684 141.106539,31.6561238 C141.526071,32.1701629 142.419672,32.0216938 142.70775,31.4404234 C143.317468,30.3353094 143.152453,29.0214983 143.202797,27.8085342 C143.660086,27.8043322 144.118774,27.8043322 144.57886,27.8071335 C144.545297,29.0887296 144.560679,30.405342 144.155133,31.6365146 C143.783149,32.7164169 142.78886,33.4909772 141.679899,33.6940717 C140.475843,33.9027687 139.102578,33.9111726 138.074726,33.1576221 C137.055265,32.3956678 136.762992,31.0412378 136.754601,29.8352769 C136.746211,26.539544 136.753203,23.2438111 136.750407,19.9480782 C135.876383,19.9438762 135.003758,19.9480782 134.131133,19.9452769 C134.128336,19.5544951 134.126938,19.1637133 134.128336,18.7729316 C135.318407,18.8709772 136.504281,18.3779479 137.297196,17.4899348 C138.59075,16.0416612 139.442399,14.1479805 139.488547,12.1884691 L139.488547,12.1884691 L139.488547,12.1884691 Z" id="Shape" fill="#087EC3"></path>
                    <path d="M148.283321,12.3999674 C149.618828,11.9503583 151.200461,12.8971987 151.392047,14.3020521 C151.654953,15.6830945 150.476071,17.1131596 149.073437,17.1103583 C147.771492,17.1901955 146.587015,15.9996417 146.613586,14.7054397 C146.571633,13.6703583 147.311407,12.7053094 148.283321,12.3999674 L148.283321,12.3999674 L148.283321,12.3999674 Z" id="Shape" fill="#087EC3"></path>
                    <path d="M52.859539,13.4126384 C53.9740938,13.4280456 55.1809453,13.2921824 56.183625,13.8860586 C57.177914,14.4463192 57.6869453,15.5668404 57.8645468,16.6537459 C58.0645235,17.8961238 58.063125,19.1917264 57.737289,20.4116938 C57.4743828,21.4061564 56.7919453,22.3305863 55.8060468,22.6933551 C54.8704922,23.0743322 53.844039,22.9496743 52.859539,22.9706841 C52.859539,19.7842019 52.8581406,16.5991205 52.859539,13.4126384 L52.859539,13.4126384 L52.859539,13.4126384 Z" id="Shape" fill="#FDFEFE"></path>
                    <path d="M70.289664,18.7155049 C71.2378045,18.2252769 72.5131795,18.1370358 73.405383,18.7925407 C74.3255545,19.4984691 74.2863985,20.9929642 73.5004765,21.7871335 C72.773289,22.5953094 71.3105235,22.5476873 70.6686405,21.6582736 C70.394547,21.3249186 70.394547,20.8739088 70.423914,20.4663192 C69.596039,21.7353094 69.302367,23.252215 69.042258,24.7214983 C68.6856559,26.6852117 68.805922,28.6867427 68.7919375,30.6714658 C68.8255,31.1112704 68.7821485,31.6743322 69.1751095,31.9698697 C69.7470705,32.2443974 70.4085309,32.1813681 71.0266405,32.1995766 L71.0266405,33.3719218 C68.3640155,33.3733225 65.7013905,33.3733225 63.037367,33.3719218 C63.0359684,32.9825407 63.0359684,32.5931596 63.037367,32.2051792 C63.570172,32.1841694 64.2106559,32.2289902 64.6106095,31.8045929 C64.9140705,31.301759 64.8609295,30.6840717 64.877711,30.1196092 C64.855336,27.2650814 64.9238595,24.4105537 64.8259684,21.5574267 C64.772828,21.0854071 64.845547,20.515342 64.4679684,20.1567753 C64.1547184,19.8528339 63.6876405,19.9060586 63.2904845,19.8808469 C63.289086,19.4942671 63.289086,19.1076873 63.2904845,18.7225081 C64.9588205,18.7197068 66.6271559,18.7211075 68.2940934,18.7225081 C68.3318515,19.6609446 68.368211,20.5993811 68.3947809,21.5392182 C68.706633,20.4383062 69.2324455,19.2785668 70.289664,18.7155049 L70.289664,18.7155049 L70.289664,18.7155049 Z" id="Shape" fill="#087EC3"></path>
                    <path d="M108.433446,19.8010098 C109.648688,18.767329 111.263883,18.2714983 112.846914,18.3401303 C114.490078,18.333127 116.203164,18.9284039 117.274367,20.2212052 C118.583304,21.7157004 118.963679,23.7760586 118.987453,25.707557 C116.017172,25.7103583 113.04689,25.7061564 110.07661,25.7103583 C110.086399,27.2244625 110.143735,28.7735831 110.649969,30.2176547 C110.961821,31.0734528 111.536578,31.9264495 112.439969,32.2233876 C113.474812,32.5455375 114.656492,32.2920195 115.510938,31.635114 C116.548578,30.8143322 117.313524,29.577557 117.348485,28.2287296 C117.842133,28.2245277 118.337179,28.2245277 118.832226,28.2287296 C118.765101,29.9949511 117.710679,31.5804886 116.344407,32.6337785 C115.278797,33.4573616 113.919515,33.8579479 112.581211,33.8117264 C110.810789,33.8075244 108.960657,33.2220521 107.756601,31.8704234 C106.145601,30.192443 105.69111,27.7455049 105.79739,25.494658 C105.87011,23.3502606 106.751125,21.1778502 108.433446,19.8010098 L108.433446,19.8010098 L108.433446,19.8010098 Z" id="Shape" fill="#087EC3"></path>
                    <path d="M124.769992,20.6091857 C125.499976,19.257557 126.990711,18.3919544 128.51361,18.3471335 C129.5065,18.300912 130.545539,18.4353746 131.411172,18.9564169 C132.209679,19.4270358 132.732696,20.2646254 132.971828,21.1456352 C133.272492,22.1961238 133.208164,23.2998371 133.215157,24.3797394 C133.219351,26.4807166 133.205367,28.5802932 133.224946,30.6798697 C133.233336,31.0748534 133.213758,31.5286645 133.511625,31.8340065 C133.869625,32.2037785 134.426203,32.1869707 134.901672,32.2247883 C134.889086,32.6071661 134.886289,32.989544 134.887687,33.3733225 C132.98861,33.3733225 131.089532,33.3747231 129.190453,33.3719218 C129.186258,29.7652443 129.19325,26.1571661 129.187657,22.5504886 C129.162485,21.9762215 129.158289,21.3501303 128.824062,20.8557004 C128.412922,20.2926384 127.617211,20.2085994 126.985117,20.3528665 C126.232758,20.5545603 125.750297,21.2632899 125.522351,21.9706189 C125.154563,23.1065472 125.237071,24.3195114 125.224485,25.4960586 C125.238469,27.311303 125.190922,29.1279479 125.253851,30.9417916 C125.305594,31.2807492 125.223086,31.7401629 125.571297,31.9432573 C125.983836,32.1953746 126.488672,32.1869707 126.957149,32.2051792 L126.957149,33.3719218 C124.481914,33.3747231 122.005282,33.3733225 119.530047,33.3719218 C119.52725,32.9825407 119.52725,32.5931596 119.530047,32.2051792 C119.962164,32.1953746 120.455813,32.2247883 120.804024,31.9152443 C121.188594,31.5636808 121.145242,30.9964169 121.17461,30.5201955 C121.192789,27.7721172 121.180203,25.0240391 121.181601,22.2745603 C121.153633,21.620456 121.198383,20.9299348 120.949461,20.3122476 C120.648797,19.8430293 120.008313,19.9200652 119.530047,19.8808469 C119.528649,19.4942671 119.52725,19.109088 119.530047,18.7225081 C121.279492,18.7197068 123.027539,18.7211075 124.776985,18.7225081 C124.776985,19.3514006 124.783976,19.9802932 124.769992,20.6091857 L124.769992,20.6091857 L124.769992,20.6091857 Z" id="Shape" fill="#087EC3"></path>
                    <path d="M155.255929,19.9060586 C156.503336,18.7099023 158.303125,18.3219218 159.982649,18.3387296 C161.455203,18.3499348 163.045226,18.5922476 164.194742,19.5937133 C165.210008,20.4565146 165.616953,21.8263518 165.650515,23.1205537 C165.677086,25.591303 165.647718,28.0606515 165.6645,30.53 C165.678485,31.02443 165.744211,31.5832899 166.132976,31.9348534 C166.398679,32.1883713 166.781851,32.1841694 167.124468,32.2135831 C167.125867,32.5987622 167.124468,32.985342 167.124468,33.3719218 C165.370828,33.3733225 163.617187,33.3733225 161.863547,33.3719218 C161.878929,32.7136156 161.850961,32.0567101 161.859351,31.3984039 C161.276203,32.4488925 160.272125,33.230456 159.142187,33.6156352 C158.217821,33.9111726 157.213742,33.8733551 156.280985,33.6422476 C155.088117,33.3341043 154.079844,32.3914658 153.717649,31.2107166 C153.310703,29.8899023 153.582,28.3491857 154.51336,27.311303 C155.31886,26.3938762 156.464179,25.8784365 157.587125,25.462443 C158.921235,24.9988274 160.301492,24.6780782 161.685946,24.4105537 C161.676156,23.5113355 161.712515,22.6121172 161.666367,21.7142996 C161.631407,20.9341368 161.1895,20.1469707 160.446929,19.8458306 C159.075063,19.289772 157.416515,19.595114 156.31175,20.5741694 C156.908883,20.5083388 157.570343,20.4649186 158.105946,20.796873 C158.912843,21.3291205 159.00514,22.6149186 158.389828,23.3278502 C157.592719,24.3699348 155.876836,24.4245603 154.993024,23.4665146 C154.091032,22.4734528 154.310586,20.7954723 155.255929,19.9060586 L155.255929,19.9060586 L155.255929,19.9060586 Z" id="Shape" fill="#087EC3"></path>
                    <path d="M74.966039,18.7225081 C76.8091795,18.7197068 78.6537191,18.7225081 80.498258,18.7211075 C80.5038515,22.2409446 80.4996559,25.7593811 80.4996559,29.2792182 C80.498258,29.9669381 80.5513985,30.7541043 81.0925934,31.2513355 C81.860336,31.8718241 83.155289,31.7373616 83.702078,30.8801629 C84.3649375,29.8744951 84.4670235,28.620912 84.4768125,27.4471661 C84.475414,25.5324756 84.494992,23.617785 84.4614295,21.7030945 C84.433461,21.2562867 84.44325,20.7912704 84.2908205,20.3654723 C83.841922,19.8794463 83.103547,19.9872964 82.5078125,19.9396743 C82.506414,19.5334854 82.506414,19.1272964 82.5078125,18.7225081 C84.5187655,18.7211075 86.531117,18.7211075 88.5420705,18.7225081 C88.5462655,22.4734528 88.537875,26.2243974 88.5462655,29.975342 C88.567242,30.5664169 88.540672,31.1785017 88.7280625,31.7485668 C89.0385155,32.2429968 89.708367,32.1841694 90.216,32.2037785 L90.216,33.3719218 C88.4301955,33.3733225 86.6443905,33.3733225 84.858586,33.3719218 C84.8320155,32.7500326 84.8054455,32.1281433 84.785867,31.5062541 C84.050289,32.768241 82.717578,33.7122801 81.240828,33.8047231 C80.1290705,33.8509446 78.9403985,33.7276873 77.99925,33.0861889 C77.360164,32.6547883 76.9392345,31.9628665 76.7406559,31.2275244 C76.4092265,30.0915961 76.4819455,28.8968404 76.4735545,27.7272964 C76.467961,25.8588274 76.484742,23.9903583 76.4637655,22.1204886 C76.4413905,21.5616287 76.4539765,20.9887622 76.2931559,20.4481107 C76.0512265,19.964886 75.4275235,19.9816938 74.966039,19.9354723 C74.963242,19.5306841 74.963242,19.1272964 74.966039,18.7225081 L74.966039,18.7225081 L74.966039,18.7225081 Z" id="Shape" fill="#087EC3"></path>
                    <path d="M145.552172,18.7743322 C147.413492,18.7743322 149.276211,18.7715309 151.138929,18.7757329 C151.144524,22.5098697 151.134735,26.2426058 151.144524,29.975342 C151.166899,30.5734202 151.127742,31.1953094 151.326321,31.7695766 C151.638172,32.2710098 152.315015,32.189772 152.824047,32.2135831 C152.822649,32.6015635 152.822649,32.9909446 152.824047,33.3817264 C150.399157,33.3845277 147.975664,33.383127 145.552172,33.3817264 C145.549375,32.9923453 145.549375,32.6043648 145.552172,32.2149837 C146.037429,32.1995766 146.65414,32.2443974 146.963196,31.7821824 C147.18275,31.3073616 147.119821,30.7597068 147.156179,30.2512704 C147.172961,27.5438111 147.161774,24.8377524 147.163172,22.1302932 C147.138,21.5378176 147.184149,20.9089251 146.940821,20.3528665 C146.624774,19.9228665 146.023446,19.9732899 145.550774,19.9466775 C145.547976,19.5558957 145.549375,19.165114 145.552172,18.7743322 L145.552172,18.7743322 L145.552172,18.7743322 Z" id="Shape" fill="#087EC3"></path>
                    <path d="M110.995383,20.2618241 C111.665235,19.2309446 113.389508,19.1567101 114.05936,20.2268078 C114.860664,21.4803908 114.870453,23.0365146 114.912406,24.4749837 C113.301406,24.4721824 111.689008,24.4749837 110.078008,24.4735831 C110.152125,23.0435179 110.156321,21.4873942 110.995383,20.2618241 L110.995383,20.2618241 L110.995383,20.2618241 Z" id="Shape" fill="#FDFEFE"></path>
                    <path d="M30.5278907,19.6049186 C31.5655312,20.0167101 32.6045703,20.427101 33.629625,20.8669055 C32.8940468,22.2563518 32.1584687,23.6457981 31.4200937,25.0338436 C31.0145468,25.0954723 30.6103985,25.1641043 30.2090469,25.2425407 C30.3167265,24.4357655 30.4258047,23.6289902 30.5278907,22.8208143 C30.420211,22.6541368 30.3139297,22.4874593 30.2076485,22.3221824 C30.3223203,21.4173616 30.4230078,20.5111401 30.5278907,19.6049186 L30.5278907,19.6049186 L30.5278907,19.6049186 Z" id="Shape" fill="#087EC3"></path>
                    <path d="M96.8250155,19.9676873 C97.5591955,19.6987622 98.4639845,19.8654397 98.984203,20.4733225 C99.5827345,21.1652443 99.7743205,22.1064821 99.882,22.9916938 C100.01625,24.4763844 99.9435309,25.9680782 99.9603125,27.45557 C99.946328,28.7203583 99.83725,30.0929968 99.054125,31.1406841 C98.440211,32.0020847 97.055758,32.1967753 96.2754295,31.4586319 C95.643336,30.8507492 95.400008,29.9641368 95.2293985,29.1321498 C94.962297,27.6558632 94.974883,26.1459609 95.019633,24.6514658 C95.083961,23.4357004 95.1371015,22.1681107 95.6964765,21.0615961 C95.9356095,20.5853746 96.317383,20.1567753 96.8250155,19.9676873 L96.8250155,19.9676873 L96.8250155,19.9676873 Z" id="Shape" fill="#FDFEFE"></path>
                    <path d="M34.2155703,21.0798045 C35.029461,21.3907492 35.8265703,21.7423127 36.6320703,22.0742671 C36.1593985,23.2003908 35.6727422,24.320912 35.2014687,25.4470358 C34.905,26.4681107 33.7177265,26.7860586 33.2156875,27.6698697 C32.2843282,29.2147883 31.315211,30.7372964 30.395039,32.2878176 C29.7195937,32.3158306 29.0455469,32.2976221 28.3715,32.2990228 C29.0189765,31.1476873 29.6664532,29.9921498 30.327914,28.8492182 C30.7712187,28.3505863 31.3515703,27.9934202 31.8382265,27.5410098 C31.9710782,27.4359609 32.0130312,27.2650814 32.073164,27.1152117 C32.779375,25.1010749 33.5023672,23.0925407 34.2155703,21.0798045 L34.2155703,21.0798045 L34.2155703,21.0798045 Z" id="Shape" fill="#087EC3"></path>
                    <path d="M37.3159062,22.2941694 C38.127,22.5630945 38.9311015,22.850228 39.738,23.1331596 C39.5296328,26.4316938 38.3004062,29.613974 36.3873437,32.2920195 C35.0336562,32.310228 33.6771718,32.2990228 32.3234843,32.2976221 C33.450625,30.5103908 34.5861562,28.7273616 35.7146953,26.9401303 C35.9132735,26.6207818 36.1538047,26.3168404 36.2475,25.9456678 C36.5999062,24.727101 36.9579062,23.5099348 37.3159062,22.2941694 L37.3159062,22.2941694 L37.3159062,22.2941694 Z" id="Shape" fill="#087EC3"></path>
                    <path d="M158.777196,26.6698045 C159.628843,26.0577199 160.680468,25.8378176 161.684547,25.615114 C161.641196,27.0675896 161.836976,28.569088 161.385281,29.9767427 C161.087414,30.8423453 160.416164,31.7513681 159.426071,31.7989902 C158.531071,31.9194463 157.850031,31.0734528 157.740953,30.2582736 C157.546571,29.0102932 157.708789,27.4961889 158.777196,26.6698045 L158.777196,26.6698045 L158.777196,26.6698045 Z" id="Shape" fill="#FDFEFE"></path>
                    <path d="M24.7397578,32.2976221 C26.3018125,30.3465146 27.8596719,28.3912052 29.4343125,26.4499023 C29.5909375,26.7468404 29.746164,27.0451792 29.9013906,27.3435179 C29.0217735,28.9976873 28.1491485,30.654658 27.2583438,32.3032247 C26.4192813,32.2976221 25.5788203,32.306026 24.7397578,32.2976221 L24.7397578,32.2976221 L24.7397578,32.2976221 Z" id="Shape" fill="#087EC3"></path>
                    <path d="M7.89557809,33.1394137 C17.1420468,33.1366124 26.3871172,33.1394137 35.6321875,33.138013 C33.2660312,36.1816287 29.7377735,38.1789577 26.022125,39.0627687 C22.0827265,40.0054071 17.8342735,39.6132247 14.141,37.9436482 C11.7161094,36.8693485 9.57789845,35.1871661 7.89557809,33.1394137 L7.89557809,33.1394137 L7.89557809,33.1394137 Z" id="Shape" fill="#087EC3"></path>
                </g>
            </g>
        </g>
    </g>
</svg>