<?xml version="1.0" encoding="UTF-8" standalone="no"?>
<svg width="142px" height="71px" viewBox="0 0 142 71" version="1.1" xmlns="http://www.w3.org/2000/svg" xmlns:xlink="http://www.w3.org/1999/xlink" xmlns:sketch="http://www.bohemiancoding.com/sketch/ns">
    <!-- Generator: Sketch 3.1.1 (8761) - http://www.bohemiancoding.com/sketch -->
    <title>puma_hover</title>
    <desc>Created with Sketch.</desc>
    <defs></defs>
    <g id="Clients" stroke="none" stroke-width="1" fill="none" fill-rule="evenodd" sketch:type="MSPage">
        <g sketch:type="MSArtboardGroup" transform="translate(-234.000000, -1514.000000)" id="Group" fill="#1A1918">
            <g sketch:type="MSLayerGroup" transform="translate(235.000000, 972.000000)">
                <g id="Puma" transform="translate(0.000000, 542.000000)" sketch:type="MSShapeGroup">
                    <g id="puma_hover">
                        <path d="M75.4220482,0.434337349 C74.9624096,0.504337349 74.5204819,2.19698795 73.633253,3.08 C72.9821687,3.71506024 72.1725301,3.67795181 71.7398795,4.4639759 C71.5762651,4.75662651 71.6293976,5.25927711 71.4446988,5.74168675 C71.0812048,6.7039759 69.803494,6.78915663 69.803494,7.84 C69.8009639,8.97433735 70.8678313,9.19024096 71.7946988,9.99566265 C72.5191566,10.6416867 72.5874699,11.0886747 73.4637349,11.4040964 C74.2109639,11.6579518 75.3233735,10.8263855 76.3244578,11.1257831 C77.1459036,11.3703614 77.9336145,11.5457831 78.1191566,12.39 C78.2819277,13.1692771 78.106506,14.3753012 77.1113253,14.2361446 C76.7739759,14.1981928 75.3166265,13.7081928 73.5286747,13.8971084 C71.3671084,14.1442169 68.9044578,14.8484337 68.6624096,17.2562651 C68.53,18.6014458 70.1948193,20.1886747 71.8022892,19.866506 C72.913012,19.6472289 72.3875904,18.3366265 72.9922892,17.6990361 C73.7859036,16.883494 78.2819277,20.5471084 82.4608434,20.5471084 C84.2192771,20.5471084 85.5298795,20.1026506 86.8278313,18.7406024 C86.9501205,18.6368675 87.0977108,18.4150602 87.2866265,18.3998795 C87.4628916,18.4150602 87.7724096,18.5887952 87.8744578,18.663012 C91.2395181,21.3677108 93.7839759,26.7948193 106.153735,26.8580723 C107.895301,26.8681928 109.875542,27.6989157 111.493976,29.1739759 C112.936988,30.5081928 113.780361,32.5854217 114.600964,34.693012 C115.840723,37.8522892 118.057952,40.9280723 121.420482,44.3479518 C121.605181,44.5309639 124.373976,46.683253 124.595783,46.8443373 C124.630361,46.8679518 124.834458,47.3537349 124.763614,47.6244578 C124.681807,49.6763855 124.383253,55.6415663 128.830361,55.9106024 C129.916627,55.9662651 129.63241,55.2004819 129.63241,54.676747 C129.62988,53.6368675 129.441807,52.6045783 129.988313,51.5410843 C130.737229,50.0786747 128.400241,49.4048193 128.467711,46.2413253 C128.51747,43.883253 126.534699,44.2846988 125.531084,42.4891566 C124.951687,41.4475904 124.437229,40.8951807 124.473494,39.6225301 C124.700361,32.4572289 122.949518,27.7486747 122.076627,26.5924096 C121.395181,25.7195181 120.831807,25.3737349 121.45506,24.9689157 C125.165904,22.5172289 126.00759,20.2375904 126.00759,20.2375904 C127.981084,15.5981928 129.755542,11.3610843 132.203012,9.49638554 C132.696386,9.11096386 133.960602,8.16554217 134.733976,7.79698795 C137.020361,6.72 138.221325,6.06722892 138.88506,5.42120482 C139.93253,4.39987952 140.764096,2.26614458 139.757952,0.973253012 C138.506386,-0.622409639 136.343133,0.643493976 135.388434,1.21024096 C128.565542,5.25927711 127.560241,12.4026506 125.197108,16.5031325 C123.310482,19.7813253 120.244819,22.1891566 117.504699,22.3856627 C115.451084,22.5383133 113.234699,22.1225301 111.03012,21.153494 C105.665422,18.8021687 102.732169,15.7660241 102.038072,15.2296386 C100.59759,14.1180723 89.4093976,3.1339759 80.346506,2.68698795 C80.346506,2.68698795 79.2206024,0.434337349 78.9380723,0.396385542 C78.2751807,0.312048193 77.5971084,1.74156627 77.1113253,1.90771084 C76.6533735,2.05951807 75.8842169,0.360120482 75.4220482,0.434337349" id="Fill-2"></path>
                        <path d="M35.5203614,65.9813253 C34.6660241,65.960241 33.9415663,65.260241 33.9415663,64.3949398 L33.9440964,36.1208434 L24.6256627,36.1208434 L24.6256627,67.2868675 C24.6256627,68.8159036 25.8628916,70.0607229 27.3818072,70.0607229 L43.6690361,70.0607229 C45.1972289,70.0607229 46.4201205,68.8159036 46.4201205,67.2868675 L46.4201205,36.1208434 L37.1101205,36.1208434 L37.1025301,64.3949398 C37.1025301,65.260241 36.3772289,65.960241 35.5203614,65.9813253" id="Fill-3"></path>
                        <path d="M66.7175904,36.1208434 L52.6163855,36.1208434 C50.946506,36.1208434 49.5878313,37.4778313 49.5878313,39.1645783 L49.5878313,70.0607229 L58.9146988,70.0607229 L58.9146988,41.72 C58.9206024,40.8521687 59.6231325,40.1631325 60.4909639,40.1631325 C61.3613253,40.1631325 62.0596386,40.8353012 62.0798795,41.6955422 L62.0798795,70.0607229 L71.3671084,70.0607229 L71.3671084,41.6955422 C71.379759,40.8353012 72.0772289,40.1631325 72.946747,40.1631325 C73.8086747,40.1631325 74.5204819,40.8521687 74.5255422,41.72 L74.5255422,70.0607229 L83.8540964,70.0607229 L83.8540964,39.1645783 C83.8540964,37.4778313 82.4928916,36.1208434 80.8238554,36.1208434 L66.7175904,36.1208434" id="Fill-4"></path>
                        <path d="M18.4091566,61.5316867 L8.99626506,61.5316867 L8.99626506,70.0607229 L-0.317951807,70.0607229 L-0.317951807,36.1208434 L18.4690361,36.1208434 C20.1507229,36.1208434 21.4638554,37.4879518 21.4638554,39.1772289 L21.4638554,58.4727711 C21.4638554,60.1687952 20.0992771,61.5316867 18.4091566,61.5316867 L18.4091566,61.5316867 Z M12.1563855,41.7790361 C12.1631325,40.8353012 11.3939759,40.1631325 10.5792771,40.1631325 L8.99626506,40.1631325 L8.99626506,57.3308434 L10.5792771,57.3308434 C11.3998795,57.3308434 12.1631325,56.6772289 12.1563855,55.7360241 L12.1563855,41.7790361 L12.1563855,41.7790361 Z" id="Fill-5"></path>
                        <path d="M120.010361,66.036988 C120.010361,68.3436145 118.161687,70.216747 115.873614,70.216747 C113.563614,70.216747 111.706506,68.3562651 111.706506,66.036988 C111.706506,63.7640964 113.563614,61.8631325 115.806145,61.8631325 C118.161687,61.8631325 120.010361,63.706747 120.010361,66.036988 L120.010361,66.036988 Z M115.815422,62.4712048 C113.943133,62.4712048 112.371084,64.0879518 112.371084,66.0496386 C112.371084,68.0163855 113.943133,69.6196386 115.873614,69.6196386 C117.788916,69.6196386 119.34241,68.0163855 119.34241,66.0496386 C119.34241,64.0845783 117.788916,62.4712048 115.873614,62.4712048 L115.815422,62.4712048 L115.815422,62.4712048 Z" id="Fill-6"></path>
                        <path d="M117.828554,68.4557831 L116.716145,68.4557831 L115.285783,66.5522892 L115.285783,68.4557831 L114.379157,68.4557831 L114.379157,63.6443373 L115.332169,63.6443373 C116.63012,63.6443373 117.32,64.133494 117.32,65.0721687 C117.32,65.6979518 116.911807,66.2512048 116.34506,66.4198795 L116.278434,66.443494 L117.828554,68.4557831 L117.828554,68.4557831 Z M115.443494,65.7713253 C116.089518,65.7713253 116.432771,65.5436145 116.432771,65.0839759 C116.432771,64.6749398 116.103012,64.4649398 115.471325,64.4649398 L115.285783,64.4649398 L115.285783,65.7713253 L115.443494,65.7713253 L115.443494,65.7713253 Z" id="Fill-7"></path>
                        <path d="M99.4910843,70.0607229 L99.4910843,61.5401205 L96.3242169,61.5401205 L96.3242169,70.0607229 L87.0159036,70.0607229 L87.0159036,39.1645783 C87.0159036,37.4778313 88.3754217,36.1208434 90.0444578,36.1208434 L105.771687,36.1208434 C107.44494,36.1208434 108.802771,37.4778313 108.802771,39.1645783 L108.802771,70.0607229 L99.4910843,70.0607229 L99.4910843,70.0607229 Z M99.4910843,57.336747 L99.4910843,41.7081928 C99.4683133,40.8437349 98.7733735,40.18 97.903012,40.18 C97.0436145,40.18 96.3326506,40.8707229 96.3242169,41.7326506 L96.3242169,57.336747 L99.4910843,57.336747 L99.4910843,57.336747 Z" id="Fill-8"></path>
                    </g>
                </g>
            </g>
        </g>
    </g>
</svg>