<?xml version="1.0" encoding="UTF-8" standalone="no"?>
<svg width="140px" height="40px" viewBox="0 0 140 40" version="1.1" xmlns="http://www.w3.org/2000/svg" xmlns:xlink="http://www.w3.org/1999/xlink" xmlns:sketch="http://www.bohemiancoding.com/sketch/ns">
    <!-- Generator: Sketch 3.1.1 (8761) - http://www.bohemiancoding.com/sketch -->
    <title>qatar_hover</title>
    <desc>Created with Sketch.</desc>
    <defs></defs>
    <g id="Clients" stroke="none" stroke-width="1" fill="none" fill-rule="evenodd" sketch:type="MSPage">
        <g sketch:type="MSArtboardGroup" transform="translate(-442.000000, -1688.000000)" id="Group">
            <g sketch:type="MSLayerGroup" transform="translate(235.000000, 972.000000)">
                <g id="Qatar-Airways" transform="translate(207.000000, 716.000000)" sketch:type="MSShapeGroup">
                    <g id="qatar_hover">
                        <g id="g11" transform="translate(70.119566, 19.975052) scale(1, -1) translate(-70.119566, -19.975052) translate(0.119566, -0.024948)">
                            <g id="g2901" transform="translate(-0.219833, -0.248620)">
                                <g id="g103" transform="translate(21.812205, 2.033334)" fill="#505967">
                                    <path d="M3.8527934,2.91908071 C3.55516511,2.89864715 3.26620561,2.88015964 2.96761412,2.88015964 C2.63049469,2.88015964 2.30397045,2.90935045 1.96685103,2.91908071 L2.94835015,5.30980782 L3.8527934,2.91908071 L3.8527934,2.91908071 Z M4.94024434,0.207254731 C5.11362004,0.216985 5.38331558,0.264663318 5.65204792,0.264663318 C5.92174346,0.264663318 6.25886288,0.216985 6.40334263,0.207254731 C5.96990337,1.1501178 5.33419246,2.6184154 4.96914029,3.46397578 C4.62238888,4.27937233 4.04543307,5.64063697 3.58406106,6.9727108 C3.47810924,6.94351999 3.38082621,6.92308643 3.27583759,6.92308643 C3.16025379,6.92308643 3.06393395,6.94351999 2.95798213,6.9727108 C2.72777773,6.17580176 2.16815949,4.91183982 1.19725555,2.71377204 L0.0809086614,0.207254731 C0.214793232,0.226715269 0.350604199,0.264663318 0.513384721,0.264663318 C0.667496457,0.264663318 0.851467342,0.226715269 0.975719929,0.207254731 C1.12886847,0.76090704 1.43709194,1.56851937 1.74435221,2.31580403 C2.12963155,2.3362376 2.51491089,2.35472511 2.89922703,2.35472511 C3.31340232,2.35472511 3.71794563,2.3362376 4.13308412,2.31580403 L4.53570103,1.28536854 L4.94024434,0.207254731 L4.94024434,0.207254731 Z" id="path105"></path>
                                </g>
                                <g id="g107" transform="translate(29.059116, 1.797959)" fill="#505967">
                                    <path d="M-2.63122857e-14,4.86513452 C-2.63122857e-14,3.20320457 -2.63122857e-14,1.5986832 -0.105951819,0.442727242 C0.106915017,0.451484484 0.375647357,0.500135829 0.586587795,0.500135829 C0.808123416,0.500135829 1.03929102,0.451484484 1.26082664,0.442727242 C1.18377077,1.22990601 1.16450681,2.27980204 1.16450681,3.72766607 C1.16450681,4.71042325 1.16450681,6.39084071 1.27045862,7.11088062 C1.03929102,7.08168981 0.799454631,7.05152598 0.586587795,7.05152598 C0.443071241,7.05152598 0.0857246532,7.09044706 -0.096319835,7.11088062 C-2.63122857e-14,6.16899058 -2.63122857e-14,5.47814147 -2.63122857e-14,4.86513452" id="path109"></path>
                                </g>
                                <g id="g111" transform="translate(31.892364, 2.626102)" fill="#505967">
                                    <path d="M2.88959505,2.91908071 C3.76610555,3.08449529 4.56459698,3.63912062 4.56459698,4.71723443 C4.56459698,5.12590573 4.41048525,5.52484677 4.12248894,5.80702457 C3.70927685,6.20499257 3.23634646,6.28283472 2.61123073,6.28283472 C2.38969511,6.28283472 1.27334822,6.23418338 1.02387985,6.23418338 C0.532648688,6.23418338 0.282217117,6.26240116 0.0616446944,6.28283472 C0.128105381,5.02860304 0.128105381,4.89237928 0.128105381,3.61868706 C0.128105381,1.74366421 0.118473397,1.52959829 0.0423807274,-0.385318654 C0.254284364,-0.357100874 0.485451968,-0.327910067 0.705061192,-0.327910067 C0.946823978,-0.327910067 1.15776442,-0.365858116 1.35040409,-0.385318654 C1.35040409,-0.133304686 1.31187615,1.12092699 1.31187615,1.4031048 L1.31187615,2.78285695 L1.54304376,2.78285695 C2.06317087,2.04432953 2.65842745,1.18903888 3.14965861,0.420347623 C3.29413836,0.197524462 3.50604199,-0.162495493 3.65052175,-0.385318654 C3.93948125,-0.346397578 4.05506505,-0.327910067 4.43071241,-0.327910067 C4.77650062,-0.327910067 5.01730021,-0.357100874 5.28603255,-0.385318654 C4.68018078,0.381426547 4.41915403,0.721985963 3.66015373,1.8010728 C3.51567398,2.00540845 3.30377034,2.32650733 3.15929059,2.52986995 L2.88959505,2.91908071 L2.88959505,2.91908071 Z M1.31187615,5.7574002 C1.45635591,5.76810349 1.8127393,5.80702457 1.99574698,5.80702457 C2.31263924,5.80702457 2.63145789,5.7574002 2.88959505,5.56279481 C3.22671447,5.31078085 3.29413836,4.96049116 3.29413836,4.55181986 C3.29413836,3.92129843 2.93871817,3.21001576 1.97648301,3.21001576 C1.72605144,3.21001576 1.49488384,3.23044932 1.31187615,3.24017959 L1.31187615,5.7574002 L1.31187615,5.7574002 Z" id="path113"></path>
                                </g>
                                <g id="g115" transform="translate(36.904463, 2.568402)" fill="#505967">
                                    <path d="M2.88959505,1.94605381 C2.43881822,3.29758818 1.8127393,5.19304459 1.51414781,6.34024331 C1.27334822,6.30132224 1.06240778,6.2818617 0.84087216,6.2818617 C0.609704556,6.2818617 0.282217117,6.31980975 0.0895774466,6.34024331 C0.48448877,5.29034728 0.820644994,4.35818751 1.08167175,3.61868706 C1.52474299,2.35472511 1.8127393,1.4790009 2.1594907,0.411590381 L2.39932709,-0.327910067 C2.53417486,-0.299692287 2.6873234,-0.27050148 2.79423841,-0.27050148 C2.90019023,-0.27050148 2.99651007,-0.288988991 3.15929059,-0.327910067 C3.31340232,0.177090897 3.49641001,0.798855089 3.63222098,1.19779612 C4.00594194,2.30607376 4.05506505,2.46175807 4.54629621,3.84151022 L4.83429252,4.64814952 C4.94024434,4.33775394 5.12325202,3.84151022 5.22824064,3.53111464 C5.33419246,3.2294763 5.82542362,1.74171816 5.94100742,1.41088901 C6.09511916,0.973999932 6.1326839,0.848479461 6.48906729,-0.327910067 C6.57575514,-0.318179798 6.75779962,-0.27050148 6.90324258,-0.27050148 C7.03809034,-0.27050148 7.14307896,-0.299692287 7.28755872,-0.327910067 C7.65357409,0.828045896 7.69210202,0.944809125 8.2305299,2.50067915 C8.76028899,4.01762809 9.08681324,4.88167598 9.66376905,6.34024331 C9.51928929,6.30132224 9.37673594,6.2818617 9.23129299,6.2818617 C9.0482853,6.2818617 8.89513676,6.3110525 8.78918495,6.34024331 C8.44243354,5.07628136 8.27002103,4.46327441 7.99069351,3.62841733 C7.53799029,2.26812572 7.48019839,2.11244141 7.20183406,1.37294096 C6.89361059,2.20877107 6.5950191,3.05530448 6.31569158,3.9096221 C6.16254304,4.37667502 5.57402885,6.31980975 5.56536007,6.34024331 C5.4314755,6.3110525 5.33419246,6.2818617 5.14155279,6.2818617 C4.97010349,6.2818617 4.8429613,6.31980975 4.71870872,6.34024331 C4.42974921,5.15412351 3.40972216,2.2963435 3.31340232,2.03362623 L3.07260274,1.40213177 L2.88959505,1.94605381 L2.88959505,1.94605381 Z" id="path117"></path>
                                </g>
                                <g id="g119" transform="translate(45.651267, 2.033334)" fill="#505967">
                                    <path d="M3.8527934,2.91908071 C3.55420191,2.89864715 3.26620561,2.88015964 2.96665092,2.88015964 C2.63049469,2.88015964 2.30300726,2.90935045 1.96685103,2.91908071 L2.94738695,5.30980782 L3.8527934,2.91908071 L3.8527934,2.91908071 Z M4.93928114,0.207254731 C5.11362004,0.216985 5.38331558,0.264663318 5.65204792,0.264663318 C5.92174346,0.264663318 6.25886288,0.216985 6.40237943,0.207254731 C5.96990337,1.1501178 5.33419246,2.6184154 4.96817709,3.46397578 C4.62142568,4.27937233 4.04446987,5.64063697 3.58309786,6.9727108 C3.47714604,6.94351999 3.38082621,6.92308643 3.27487439,6.92308643 C3.16025379,6.92308643 3.06297075,6.94351999 2.95701894,6.9727108 C2.72681453,6.17580176 2.16815949,4.91183982 1.19629235,2.71377204 L0.0799454631,0.207254731 C0.21575643,0.226715269 0.349641001,0.264663318 0.513384721,0.264663318 C0.667496457,0.264663318 0.849540945,0.226715269 0.975719929,0.207254731 C1.12886847,0.76090704 1.43805514,1.56851937 1.74531541,2.31580403 C2.12963155,2.3362376 2.51491089,2.35472511 2.89922703,2.35472511 C3.31340232,2.35472511 3.71698243,2.3362376 4.13115772,2.31580403 L4.53570103,1.28536854 L4.93928114,0.207254731 L4.93928114,0.207254731 Z" id="path121"></path>
                                </g>
                                <g id="g123" transform="translate(50.777313, 1.926399)" fill="#505967">
                                    <path d="M3.8527934,2.91908071 C3.8527934,3.00568011 3.9105853,3.11271307 3.97800919,3.23044932 C4.38255249,3.93005567 4.75723665,4.65982585 5.19067591,5.35943219 C5.33419246,5.59295865 6.03732726,6.7197238 6.18277021,6.98244107 C6.07585519,6.94351999 5.96990337,6.92308643 5.7782269,6.92308643 C5.56536007,6.92308643 5.3727204,6.95325026 5.21860866,6.98244107 C4.52606905,5.44603159 4.37195731,5.11617547 3.55516511,3.69652921 C2.73740971,5.14439325 2.37139434,5.91211147 1.8705312,6.98244107 C1.59216687,6.93378972 1.31187615,6.92308643 1.08167175,6.92308643 C0.86976811,6.92308643 0.64823249,6.94351999 0.292812298,6.98244107 C0.792712242,6.13688069 1.61143084,4.79507659 2.1016988,3.93978594 L2.66902263,2.94827152 C2.66902263,2.34499484 2.64012668,1.07227565 2.61219393,0.31428769 C2.79423841,0.333748228 3.06393395,0.371696278 3.25561042,0.371696278 C3.47714604,0.371696278 3.69964486,0.333748228 3.92118048,0.31428769 C3.88168935,1.21822968 3.8527934,1.74269119 3.8527934,2.56003379 L3.8527934,2.91908071 L3.8527934,2.91908071 Z" id="path125"></path>
                                </g>
                                <g id="g127" transform="translate(57.514404, 1.751740)" fill="#505967">
                                    <path d="M1.97064587e-14,1.94605381 C-0.0471967192,1.47997392 -0.057791901,1.35348042 -0.221535621,0.848479461 C0.125215786,0.673334618 0.751294713,0.35223574 1.5777189,0.35223574 C3.33940868,0.35223574 4.02231631,1.48873116 4.02231631,2.48121861 C4.02231631,2.75366614 3.95489243,3.32775201 3.55131232,3.76464109 C3.2719848,4.0760097 2.98302529,4.18206964 2.24232576,4.47397771 C1.39663761,4.80480686 0.904443251,4.99941224 0.904443251,5.70874885 C0.904443251,6.2818617 1.28009061,6.75864488 2.04005411,6.75864488 C2.64590587,6.75864488 3.15736419,6.46673681 3.30088075,5.9130845 L3.43572852,5.9130845 C3.52241637,6.2818617 3.54168033,6.35970385 3.73432,6.83648703 C3.26235281,7.04957992 2.83854554,7.23445504 2.13637394,7.23445504 C0.393948125,7.23445504 -0.105951819,6.14563793 -0.105951819,5.29132031 C-0.105951819,4.48370798 0.174338901,3.98746426 1.1067149,3.57003571 C1.37544724,3.45327248 1.82911367,3.27910067 2.09784601,3.16136441 C2.28085369,3.08449529 2.88766865,2.81302078 2.88766865,2.04432953 C2.88766865,1.34375016 2.38584231,0.828045896 1.62684201,0.828045896 C1.05855499,0.828045896 0.576955812,0.973999932 0.134847769,1.94605381 L1.97064587e-14,1.94605381 L1.97064587e-14,1.94605381 Z" id="path129"></path>
                                </g>
                                <g id="g131" transform="translate(0.202368, 7.067970)" fill="#5C0632">
                                    <path d="M3.8527934,14.5954036 C3.8527934,21.9437028 7.74989393,23.9277046 10.6953545,23.9277046 C15.4294744,23.9277046 17.4791605,19.9606739 17.4791605,15.731899 C17.4791605,13.3119811 17.190201,11.0370442 16.0064302,9.19899636 C14.8226594,7.36289459 12.8606244,6.25364392 10.7232872,6.25364392 C5.38331558,6.25364392 3.8527934,11.3873339 3.8527934,14.5954036 L3.8527934,14.5954036 Z M18.229492,-0.425212757 C19.0954073,0.187794193 20.4525538,0.945782151 21.4340529,1.38364426 L14.9103105,5.46743818 C18.9220316,6.89584167 21.4340529,10.5125827 21.4340529,15.440964 C21.4340529,22.4389735 16.1509099,25.4144897 10.7521832,25.4144897 C4.92194357,25.4144897 -0.102099025,22.1480384 -0.102099025,14.7403846 C-0.102099025,13.1670001 0.244652381,10.1914838 2.66902263,7.71221125 C5.18104393,5.14536627 8.15443723,4.76685881 10.6664585,4.76685881 C10.9833508,4.76685881 11.300243,4.76685881 11.6190617,4.79507659 L18.229492,-0.425212757 L18.229492,-0.425212757 Z" id="path133"></path>
                                </g>
                                <g id="g135" transform="translate(23.545673, 12.595444)" fill="#5C0632">
                                    <path d="M11.5583802,7.78421524 C10.6626057,7.7248606 9.79765362,7.66647898 8.90091595,7.66647898 C7.89148408,7.66647898 6.90998496,7.75502443 5.90055309,7.78421524 L8.84505045,14.9583426 L11.5583802,7.78421524 L11.5583802,7.78421524 Z M14.820733,-0.35223574 C15.3398969,-0.323044932 16.1489835,-0.177090897 16.9561438,-0.177090897 C17.7661936,-0.177090897 18.7746622,-0.323044932 19.2090647,-0.35223574 C17.9097101,2.47635347 16.0045038,6.88027324 14.9064577,9.41792741 C13.8671666,11.8670361 12.135336,15.95083 10.7502568,19.9460785 C10.4324013,19.8575331 10.1434418,19.7991515 9.82654957,19.7991515 C9.47979816,19.7991515 9.19083866,19.8575331 8.8739464,19.9460785 C8.18044359,17.5534054 6.50640486,13.7624925 3.59080345,7.17218132 L0.240799588,-0.35223574 C0.645342895,-0.294827152 1.0498862,-0.177090897 1.54015416,-0.177090897 C2.00152617,-0.177090897 2.55151243,-0.294827152 2.92619659,-0.35223574 C3.3875686,1.31066724 4.31320221,3.73058515 5.23594623,5.97633125 C6.38985786,6.03373984 7.54473268,6.09212145 8.6996075,6.09212145 C9.94117017,6.09212145 11.1538369,6.03373984 12.3963628,5.97633125 L13.6071031,2.88405175 L14.820733,-0.35223574 L14.820733,-0.35223574 Z" id="path137"></path>
                                </g>
                                <g id="g139" transform="translate(41.544768, 12.433143)" fill="#5C0632">
                                    <path d="M9.6319835,14.5954036 C9.6319835,15.7036812 9.65991625,16.8119589 9.6888122,17.8628279 C11.6807064,17.8628279 13.7313557,17.8326641 15.4342904,17.6584923 C15.3476025,18.1245722 15.2898106,18.3863164 15.2898106,18.7074153 C15.2898106,18.9409417 15.3476025,19.3213952 15.4342904,19.8156929 C12.6631687,19.6707119 10.1222515,19.6415211 7.72581397,19.6415211 C5.50275217,19.6415211 2.29819126,19.6707119 0.0173375703,19.8156929 C0.10498862,19.4654032 0.161817323,19.0868958 0.161817323,18.7366061 C0.161817323,18.3863164 0.10498862,18.0078089 0.0173375703,17.6584923 C1.49103105,17.8034733 4.2621527,17.8628279 4.52125306,17.8628279 L5.96508738,17.8628279 C5.99398333,16.7243864 6.02287928,15.7036812 6.02287928,14.6245944 L6.05177523,6.48911643 C6.05177523,4.27158811 5.87936273,2.02584202 5.76281573,-0.189740246 C6.80210675,-0.0739500448 7.23554601,-0.0155684305 7.72581397,-0.0155684305 C8.07256537,-0.0155684305 8.99627259,-0.103140852 9.83425516,-0.189740246 C9.74660411,0.6256563 9.6319835,1.58895294 9.6319835,3.8045352 L9.6319835,14.5954036 L9.6319835,14.5954036 Z" id="path141"></path>
                                </g>
                                <g id="g143" transform="translate(55.686831, 12.595444)" fill="#5C0632">
                                    <path d="M11.5583802,7.78421524 C10.6635689,7.7248606 9.79765362,7.66647898 8.90284235,7.66647898 C7.89148408,7.66647898 6.91094816,7.75502443 5.89958989,7.78421524 L8.84505045,14.9583426 L11.5583802,7.78421524 L11.5583802,7.78421524 Z M14.820733,-0.35223574 C15.3398969,-0.323044932 16.1489835,-0.177090897 16.957107,-0.177090897 C17.7652304,-0.177090897 18.7756254,-0.323044932 19.2090647,-0.35223574 C17.9097101,2.47635347 16.0045038,6.88027324 14.9074209,9.41792741 C13.8681298,11.8670361 12.135336,15.95083 10.7502568,19.9460785 C10.4324013,19.8575331 10.1434418,19.7991515 9.82654957,19.7991515 C9.47979816,19.7991515 9.19083866,19.8575331 8.8729832,19.9460785 C8.18140679,17.5534054 6.50640486,13.7624925 3.58984025,7.17218132 L0.241762786,-0.35223574 C0.645342895,-0.294827152 1.0508494,-0.177090897 1.54111736,-0.177090897 C2.00248937,-0.177090897 2.55054923,-0.294827152 2.92715979,-0.35223574 C3.38949499,1.31066724 4.31223901,3.73058515 5.23594623,5.97633125 C6.38985786,6.03373984 7.54473268,6.09212145 8.7005707,6.09212145 C9.94213337,6.09212145 11.1548001,6.03373984 12.3953996,5.97633125 L13.6080663,2.88405175 L14.820733,-0.35223574 L14.820733,-0.35223574 Z" id="path145"></path>
                                </g>
                                <g id="g147" transform="translate(77.853878, 12.427208)" fill="#5C0632">
                                    <path d="M8.66878515,9.73026905 C11.2954271,10.2265128 13.6918645,11.8884427 13.6918645,15.1266763 C13.6918645,16.3517171 13.2295293,17.5475672 12.3626508,18.3921546 C11.1220513,19.5880046 9.70711297,19.8215311 7.83080259,19.8215311 C7.16619573,19.8215311 3.81811826,19.6765501 3.06682355,19.6765501 C1.59409327,19.6765501 0.843761755,19.7641225 0.18108129,19.8215311 C0.382389745,16.0598091 0.382389745,15.6521108 0.382389745,11.8320072 C0.382389745,6.20207349 0.353493795,5.56182179 0.123289389,-0.183902085 C0.758037102,-0.0973026905 1.45057672,-0.00875724214 2.11422038,-0.00875724214 C2.83565594,-0.00875724214 3.47136685,-0.126493498 4.04832267,-0.183902085 C4.04832267,0.575058901 3.93370206,4.33580789 3.93370206,5.18234129 L3.93370206,9.3235438 L4.62720487,9.3235438 C6.1856598,7.10698851 7.97624554,4.54014354 9.44801262,2.23601583 C9.88048868,1.56462726 10.5152364,0.485540425 10.9477124,-0.183902085 C11.814591,-0.0681118833 12.1613424,-0.00875724214 13.286358,-0.00875724214 C14.3256491,-0.00875724214 15.0480478,-0.0973026905 15.8561712,-0.183902085 C14.0376528,2.1192526 13.2593885,3.13995782 10.9775716,6.37721833 C10.5441323,6.99022528 9.90938463,7.95254889 9.47594537,8.56458282 L8.66878515,9.73026905 L8.66878515,9.73026905 Z M3.93370206,18.2471735 C4.36617812,18.2753913 5.43436509,18.3921546 5.98338815,18.3921546 C6.93599132,18.3921546 7.88763129,18.2471735 8.66878515,17.6643304 C9.67821702,16.9053694 9.88048868,15.8564464 9.88048868,14.6304325 C9.88048868,12.7349761 8.81230171,10.6059933 5.92559625,10.6059933 C5.17430154,10.6059933 4.48176192,10.6653479 3.93370206,10.6925927 L3.93370206,18.2471735 L3.93370206,18.2471735 Z" id="path149"></path>
                                </g>
                                <g id="g151" transform="translate(121.972119, 21.129085)" fill="#747F8A">
                                    <path d="M7.7055868,0.973026905 C7.7055868,0.785232712 5.09242968,0.609114842 1.36196247,0.461214753 C0.703134796,0.838749192 0.203234852,1.21822968 -0.162780521,1.54516672 C4.36136213,1.38364426 7.7055868,1.18417374 7.7055868,0.973026905" id="path153"></path>
                                </g>
                                <g id="g155" transform="translate(126.949735, 28.415791) scale(-1, -1) translate(-126.949735, -28.415791) translate(126.901575, 28.367140)" fill="#747F8A">
                                    <path id="path157" d="M1.0658141e-14,1.42108547e-14 C1.0658141e-14,0.156657332 2.19031305,0.303584394 5.32167088,0.430077892 C4.87282045,0.165414574 4.41048525,-0.101194798 3.92503328,-0.368777197 C1.55941813,-0.258825157 1.0658141e-14,-0.131358632 1.0658141e-14,1.42108547e-14"></path>
                                </g>
                                <g id="g159" transform="translate(96.923471, 14.776873)" fill="#747F8A">
                                    <path d="M6.74238845,-1.10814136e-14 C5.29277493,-0.0175144843 4.02135311,-0.0243256726 3.02829561,-0.0243256726 C1.59890926,-0.0243256726 0.441144844,0.420347623 0.441144844,0.972053878 C0.441144844,1.52084105 1.59890926,1.96551435 3.02829561,1.96551435 C4.29393825,1.96551435 6.00843131,1.95189197 7.97528234,1.92659327 C7.21435564,0.8173426 6.85315626,0.15081917 6.81944432,0.108979013 C6.79729076,0.0768691255 6.769358,0.0389210762 6.74238845,-1.10814136e-14" id="path161"></path>
                                </g>
                                <g id="g163" transform="translate(98.667535, 11.498259)" fill="#747F8A">
                                    <path d="M5.7791901,1.94605381 C6.25693648,1.36321069 6.7154189,0.872805134 7.32897625,0.336667309 C7.32897625,0.336667309 7.56014385,0.00291908071 8.26231545,0.288988991 C8.97700862,0.582843116 9.58286039,0.982757174 10.265768,1.90810576 C12.2595886,1.87404982 14.373809,1.82929058 16.4552806,1.78161226 C16.6267299,1.52959829 16.9744445,1.00805587 17.4030678,0.364885089 C11.6007609,0.213092892 5.30337012,0.12260139 2.07761884,0.12260139 C0.733957143,0.12260139 -0.35638339,0.54392204 -0.35638339,1.0596263 C-0.35638339,1.57824964 0.733957143,1.99665121 2.07761884,1.99665121 C3.06008116,1.99665121 4.32572379,1.98984002 5.77437411,1.97329856 C5.77341091,1.95967619 5.7791901,1.94605381 5.7791901,1.94605381" id="path165"></path>
                                </g>
                                <g id="g167" transform="translate(100.275787, 8.556117)" fill="#747F8A">
                                    <path d="M1.9263967,0 C0.733957143,0 -0.232130802,0.370723251 -0.232130802,0.828045896 C-0.232130802,1.28634157 0.733957143,1.65803785 1.9263967,1.65803785 C5.0808713,1.65803785 11.547785,1.56073516 17.0861755,1.40213177 C17.3529815,1.01584009 17.6197874,0.631494461 17.8731086,0.278285695 C12.1709744,0.108979013 5.23016704,0 1.9263967,0" id="path169"></path>
                                </g>
                                <g id="g171" transform="translate(103.259005, 5.898003)" fill="#747F8A">
                                    <path d="M17.3375703,-2.61457522e-14 C12.6862855,-0.206281704 4.68884957,-0.344451524 1.36581526,-0.344451524 C0.430549663,-0.344451524 -0.329413836,-0.0496243721 -0.329413836,0.307476502 C-0.329413836,0.667496457 0.430549663,0.960377555 1.36581526,0.960377555 C4.54436982,0.960377555 12.009157,0.833884057 16.7201602,0.644143811 C16.933027,0.413536435 17.1410778,0.196551435 17.3375703,-2.61457522e-14" id="path173"></path>
                                </g>
                                <g id="g175" transform="translate(107.498715, 3.162629)" fill="#747F8A">
                                    <path d="M0.96319835,0.973026905 C3.70735045,0.973026905 12.0611697,0.76382612 12.0611697,0.510839125 C12.0611697,0.253960022 3.70638725,0.0467052914 0.96319835,0.0467052914 C0.428623266,0.0467052914 -0.0038527934,0.253960022 -0.0038527934,0.510839125 C-0.0038527934,0.76382612 0.428623266,0.973026905 0.96319835,0.973026905" id="path177"></path>
                                </g>
                                <g id="g179" transform="translate(96.933874, 21.199240)" fill="#747F8A">
                                    <path d="M11.5583802,2.20656826e-15 C8.10435092,-0.0593546412 5.00959462,-0.092437556 3.01770043,-0.092437556 C1.58927728,-0.092437556 0.430549663,0.35223574 0.430549663,0.902968968 C0.430549663,1.45272917 1.58927728,1.89934852 3.01770043,1.89934852 C5.33130287,1.89934852 9.13304676,1.85458928 13.2545725,1.7757741 C12.6419783,1.16374018 12.0756177,0.568247712 11.5583802,2.20656826e-15" id="path181"></path>
                                </g>
                                <g id="g183" transform="translate(124.470655, 24.676546)" fill="#747F8A">
                                    <path d="M0.96319835,0.973026905 C2.98687808,0.862101838 4.2602263,0.740473475 4.2602263,0.613979977 C4.2602263,0.47483713 2.71910894,0.341532444 0.334229828,0.222823161 C0.843761755,0.610087869 0.955492763,0.947728205 0.96319835,0.973026905" id="path185"></path>
                                </g>
                                <g id="g187" transform="translate(97.856040, 24.355058)" fill="#747F8A">
                                    <path d="M2.88959505,0 C1.54497015,0 0.454629621,0.418401569 0.454629621,0.936051882 C0.454629621,1.45272917 1.54497015,1.87307679 2.88959505,1.87307679 C5.64723193,1.87307679 10.649121,1.80496491 15.6664212,1.69306681 C15.0509374,1.16860531 14.4672392,0.649981972 13.9162898,0.141088901 C9.51254691,0.051570426 5.32648688,0 2.88959505,0" id="path189"></path>
                                </g>
                                <g id="g191" transform="translate(100.329437, 27.847154)" fill="#747F8A">
                                    <path d="M15.4111736,2.07611706e-14 C10.2811792,-0.131358632 4.72352471,-0.212119865 1.87245759,-0.212119865 C0.680018035,-0.212119865 -0.285106712,0.158603385 -0.285106712,0.616899058 C-0.285106712,1.07519473 0.680018035,1.44786403 1.87245759,1.44786403 C5.0192266,1.44786403 11.4707292,1.34861529 17.0014141,1.19098493 C16.7259394,0.988595335 16.4485382,0.786205739 16.1672843,0.574085874 C15.9110735,0.381426547 15.6587156,0.1916863 15.4111736,2.07611706e-14" id="path193"></path>
                                </g>
                                <g id="g195" transform="translate(102.698038, 30.991977)" fill="#747F8A">
                                    <path d="M1.9263967,0 C0.991131102,0 0.231167604,0.290935045 0.231167604,0.651928026 C0.231167604,1.01194798 0.991131102,1.30482908 1.9263967,1.30482908 C5.45459226,1.30482908 14.2543724,1.14719872 18.7236127,0.922429506 C18.438506,0.733662286 18.1533993,0.538083878 17.865403,0.341532444 C13.2073758,0.13816982 5.24268862,0 1.9263967,0" id="path197"></path>
                                </g>
                                <g id="g199" transform="translate(96.795462, 17.911966)" fill="#747F8A">
                                    <path d="M2.88959505,0 C1.43516554,0 0.254284364,0.452457511 0.254284364,1.01389403 C0.254284364,1.57143845 1.43516554,2.02584202 2.88959505,2.02584202 C4.71292953,2.02584202 7.44167045,1.99859726 10.527758,1.95091894 C9.94791256,1.2620159 9.44415982,0.623710246 9.01264696,0.051570426 C6.55552797,0.0184875112 4.40759565,0 2.88959505,0" id="path201"></path>
                                </g>
                                <g id="g203" transform="translate(107.447088, 34.128140) scale(-1, -1) translate(-107.447088, -34.128140) translate(107.398928, 34.079489)" fill="#747F8A">
                                    <path id="path205" d="M0,-1.11022302e-14 C0,-0.255906076 -0.432476059,-0.463160807 -0.967051144,-0.463160807 C-3.71024004,-0.463160807 -12.0650225,-0.255906076 -12.0650225,-1.11022302e-14 C-12.0650225,0.253960022 -3.71120324,0.46218778 -0.967051144,0.46218778 C-0.432476059,0.46218778 0,0.253960022 0,-1.11022302e-14"></path>
                                </g>
                                <g id="g207" transform="translate(103.945091, 5.079784)" fill="#5C0632">
                                    <path d="M26.0063555,14.5954036 C26.0256194,14.0904026 26.0227298,13.5892938 25.9976867,13.0979152 C21.1373878,12.9033098 16.5284837,12.6075096 16.5284837,12.2747344 C16.5284837,11.9477974 21.0343256,11.6549163 25.8387589,11.4612839 C25.7539975,10.9008204 25.6451561,10.3510602 25.5122347,9.81200331 C20.7761884,9.6164249 16.3811143,9.32840894 16.3811143,9.00439098 C16.3811143,8.69204934 20.4843393,8.41084456 25.0277459,8.21526616 C24.8196951,7.62950396 24.5837115,7.06028322 24.3188319,6.51538815 C20.4169154,6.32564791 17.1921274,6.07266091 17.1921274,5.79632127 C17.1921274,5.53846914 20.0094825,5.30007755 23.5607948,5.11617547 C23.3614128,4.7882654 23.1533619,4.46716652 22.9356791,4.16358213 C22.7045115,3.83275298 22.4531167,3.50484291 22.187274,3.18277101 C19.9671018,3.0124913 18.443322,2.81885894 18.443322,2.61160421 C18.443322,2.43354029 19.5346257,2.26715269 21.2163701,2.11827957 C20.298442,1.2007152 19.2138807,0.343478497 17.9357165,-0.404779192 C17.9357165,-0.404779192 16.4302375,0.904915021 15.1877116,2.43451332 C14.0800335,3.79869704 11.7298295,7.39500448 11.1769537,8.19969773 C10.6231146,9.00439098 10.2590256,9.23986349 9.61175634,9.00633703 C8.74391462,8.69594145 7.73544595,8.54025714 7.42529608,8.54025714 C7.11514621,8.54025714 6.9446601,8.66188551 7.46478721,8.87011326 C7.98298793,9.0812601 10.0317108,10.0581791 11.0401795,12.0772099 C12.1729007,14.3511738 11.1769537,17.4911316 11.1769537,17.4911316 C10.7964903,15.8126602 9.93153819,15.1860309 9.93153819,15.1860309 C10.2108657,16.74482 9.90649503,18.1576551 9.14460514,19.1491695 L8.71983466,17.1758709 C8.71983466,17.1758709 8.45399192,17.1894933 7.79612745,16.6309759 C7.13922617,16.0714854 6.95814488,15.2560888 6.95814488,15.2560888 C7.4753824,15.045915 8.09760853,15.5703765 8.09760853,15.5703765 C7.30296989,12.5666425 6.16350624,10.1214259 5.33226607,8.82827311 C4.50198909,7.53512035 3.81715506,7.04763387 2.98495169,6.70610143 C2.28278009,6.42197757 2.05161249,6.7557258 2.05161249,6.7557258 C1.43805514,7.2908906 0.979572722,7.78129616 0.50182634,8.36413927 C0.50182634,8.36413927 0.463298406,8.43225116 0.592366985,8.4303051 C0.9343024,8.42543997 1.54304376,9.0160673 1.67596513,9.26127008 C1.82815047,9.54247486 1.8117761,9.7575138 1.73568343,9.7721092 C1.66055396,9.78475855 1.53052218,9.56193539 0.870731309,9.14158777 C0.214793232,8.72221317 -0.0866878515,9.01314822 -0.305333877,9.24667468 C-0.474856787,9.43252281 -0.308223472,9.66215716 -0.202271654,9.80616515 C-0.102099025,9.9346047 3.36830463,16.4723725 12.5514377,23.3409694 C24.5856379,32.3424413 32.2709975,34.7730625 32.7111792,34.9482073 C33.0020651,35.0639975 33.4769219,35.2167628 33.5848001,35.1048647 C33.7042367,34.9783712 33.7629918,34.8771764 33.7466174,34.7302493 C33.7312062,34.5842953 33.6541504,34.5093722 33.0974217,34.2612503 C28.4779224,32.2052445 23.0849749,28.7782437 20.0210409,26.7835386 C16.253009,24.9289493 12.6554631,22.2803701 12.5244681,22.2171233 C12.2345454,22.0351673 12.4483755,21.770504 12.6236776,21.881429 C18.9865659,26.1569093 26.4465371,29.0691788 34.6905518,31.4550408 C35.0844999,31.5679119 35.3002563,31.5679119 35.3657538,31.4803394 C35.4399201,31.3830368 35.4717056,31.2721117 35.483264,31.1495103 C35.4938592,30.9967451 35.3686434,30.9159838 35.0305608,30.7826792 C26.173952,27.4588193 19.6463567,24.3714049 15.4477751,21.517517 C15.4477751,21.517517 15.0133727,21.2528537 15.0075935,20.9463502 C15.0056671,20.829587 15.2406875,20.8159646 15.2406875,20.8159646 C17.3423863,20.7780165 20.1520359,20.6534691 21.4889552,20.5746539 C21.4889552,20.5746539 21.2982419,19.890616 20.0181513,19.3398828 C19.0299098,18.913697 18.1148714,18.9818089 17.2094649,18.9740246 C17.0081565,18.9779168 16.8376704,18.7726081 16.9985245,18.553677 C17.0794331,18.444698 19.0058298,15.3115514 26.0063555,14.5954036" id="path209"></path>
                                </g>
                                <g id="g211" transform="translate(63.846084, 0.371696)" fill="#5C0632">
                                    <path d="M1.9263967,2.91908071 L0.739736333,2.91908071 C0.739736333,2.91908071 0.579845407,3.65663511 1.00943187,3.93881291 C1.44094473,4.22488282 1.9263967,4.4447869 1.9263967,4.4447869 L1.9263967,2.91908071 L1.9263967,2.91908071 Z M7.55725426,5.68053107 C7.55725426,5.68053107 6.83581869,5.2621295 6.37926267,4.85151215 C5.92559625,4.4447869 6.47269291,4.29007562 6.47269291,4.29007562 L6.47269291,2.91908071 L3.02925881,2.91908071 L3.02925881,7.71707638 C3.02925881,7.71707638 1.77421136,6.55139015 1.65670116,6.39667887 C1.53533817,6.2312643 1.95529265,6.08141815 1.95529265,6.08141815 L1.88401597,5.62701459 C1.88401597,5.62701459 1.38411603,5.36527035 0.777301069,4.95076089 C0.174338901,4.54111656 -0.272585133,4.01860112 -0.272585133,3.65663511 C-0.272585133,3.29369607 -0.424770472,1.86918468 -0.424770472,1.86918468 L7.55725426,1.86918468 L7.55725426,5.68053107 L7.55725426,5.68053107 Z M0.428623266,7.43489858 C0.821608193,7.43489858 1.09900932,7.59155591 1.09900932,7.90778965 C1.09900932,8.22499643 0.915038433,8.44587353 0.428623266,8.44587353 C-0.0038527934,8.44587353 -0.119436595,8.25516026 -0.119436595,7.90778965 C-0.119436595,7.55749997 0.0308223472,7.43489858 0.428623266,7.43489858 L0.428623266,7.43489858 Z M1.89653755,7.43489858 C2.29337527,7.43489858 2.56210761,7.59155591 2.56210761,7.90778965 C2.56210761,8.22499643 2.38006312,8.44587353 1.89653755,8.44587353 C1.4621351,8.44587353 1.34847769,8.25516026 1.34847769,7.90778965 C1.34847769,7.55749997 1.49777343,7.43489858 1.89653755,7.43489858 L1.89653755,7.43489858 Z M4.12056254,1.45662128 C3.69097608,1.45662128 3.57250268,1.27077314 3.57250268,0.921456479 C3.57250268,0.575058901 3.72468802,0.448565403 4.12056254,0.448565403 C4.51354747,0.448565403 4.79191179,0.606195762 4.79191179,0.921456479 C4.79191179,1.23963628 4.6108305,1.45662128 4.12056254,1.45662128 L4.12056254,1.45662128 Z M5.64626873,1.45662128 C5.21668226,1.45662128 5.09917207,1.27077314 5.09917207,0.921456479 C5.09917207,0.575058901 5.2552102,0.448565403 5.64626873,0.448565403 C6.04503285,0.448565403 6.31858118,0.606195762 6.31858118,0.921456479 C6.31858118,1.23963628 6.13846309,1.45662128 5.64626873,1.45662128 L5.64626873,1.45662128 Z M22.8461017,7.52928219 C23.2419762,7.52928219 23.5193773,7.68204741 23.5193773,7.99828116 C23.5193773,8.31256885 23.3363696,8.53733806 22.8461017,8.53733806 C22.4174784,8.53733806 22.3009314,8.34662479 22.3009314,7.99828116 C22.3009314,7.64993753 22.4540799,7.52928219 22.8461017,7.52928219 L22.8461017,7.52928219 Z M24.3708447,7.52928219 C24.7638296,7.52928219 25.0393043,7.68204741 25.0393043,7.99828116 C25.0393043,8.31256885 24.8562966,8.53733806 24.3708447,8.53733806 C23.9393318,8.53733806 23.8247112,8.34662479 23.8247112,7.99828116 C23.8247112,7.64993753 23.9720805,7.52928219 24.3708447,7.52928219 L24.3708447,7.52928219 Z M28.5800214,7.39889658 C28.3652282,7.21110239 28.4278361,6.98633318 28.7004212,7.01747004 L28.7004212,1.8623735 L29.8312161,1.8623735 L29.8312161,8.27948593 C29.8312161,8.27948593 28.7909619,7.58571775 28.5800214,7.39889658 L28.5800214,7.39889658 Z M24.0356516,4.50803365 L23.3036209,4.50803365 C23.3036209,4.91378587 24.0356516,5.13855508 24.0356516,5.13855508 L24.0356516,4.50803365 L24.0356516,4.50803365 Z M19.2167703,3.65663511 C19.2167703,3.46981394 19.2081015,3.16525652 19.1994327,2.91908071 L12.8105381,2.91908071 L12.8105381,4.05363009 C12.9771714,4.49051917 13.2584253,4.54111656 13.6937909,4.54111656 L18.3643397,4.54111656 C19.3728084,4.54111656 19.2167703,4.00497874 19.2167703,3.65663511 L19.2167703,3.65663511 Z M26.6882999,7.0233082 L26.6882999,2.91908071 L25.1674097,2.91908071 L25.1674097,6.64577376 C25.1674097,6.64577376 24.8562966,6.52511842 24.4295998,6.33440515 C24.0067557,6.1407728 22.4771967,5.51317044 22.4771967,4.66469098 L22.4771967,3.68387986 L24.0356516,3.68387986 L24.0356516,2.91908071 L20.3388964,2.91908071 C20.341786,3.09909069 20.3456388,3.36375401 20.3456388,3.75199174 C20.3456388,4.97508656 19.3140533,5.64063697 18.3961253,5.64063697 L14.1224142,5.64063697 C13.3740091,5.64063697 13.0128097,5.45770791 12.8105381,5.24850712 L12.8105381,8.40792548 C12.8105381,8.40792548 12.1430416,7.93406138 11.6527736,7.55749997 C11.1634689,7.18093856 11.6527736,6.92795156 11.6527736,6.92795156 L11.6527736,2.91908071 L10.2522832,2.91908071 L10.2224241,6.35970385 C10.2224241,6.35970385 9.24766736,5.64063697 8.96833984,5.42170591 C8.69575471,5.20374789 8.84697685,5.00914251 9.15231072,5.00914251 C9.15231072,5.00914251 9.09644522,2.46856926 9.09644522,1.86918468 C9.09644522,1.265908 8.60232447,0.577004955 7.56495984,0.890319618 C7.56495984,0.890319618 7.23554601,0.826099842 7.50909434,0.575058901 C7.78167947,0.324990986 8.11109331,0.134277713 8.47999827,0.134277713 C8.84697685,0.134277713 10.1916017,0.390183789 10.1916017,1.86918468 L27.815242,1.86918468 L27.815242,8.28337804 C27.815242,8.28337804 26.7778773,7.59155591 26.5640473,7.40376172 C26.3492541,7.21596753 26.411862,6.99022528 26.6882999,7.0233082 L26.6882999,7.0233082 Z" id="path213"></path>
                                </g>
                            </g>
                        </g>
                    </g>
                </g>
            </g>
        </g>
    </g>
</svg>