<?xml version="1.0" encoding="UTF-8" standalone="no"?>
<svg width="221px" height="88px" viewBox="0 0 221 88" version="1.1" xmlns="http://www.w3.org/2000/svg" xmlns:xlink="http://www.w3.org/1999/xlink" xmlns:sketch="http://www.bohemiancoding.com/sketch/ns">
    <!-- Generator: Sketch 3.3.3 (12081) - http://www.bohemiancoding.com/sketch -->
    <title>Slice 1</title>
    <desc>Created with Sketch.</desc>
    <defs></defs>
    <g id="Page-1" stroke="none" stroke-width="1" fill="none" fill-rule="evenodd" sketch:type="MSPage">
        <g id="QC_source" sketch:type="MSLayerGroup">
            <path d="M0,0 L221,0 L221,88 L0,88 L0,0 L0,0 Z" id="Shape" fill="#FEFFFF" sketch:type="MSShapeGroup"></path>
            <path d="M36.8871114,31.9374245 C39.188905,30.4684261 41.9093329,29.6597774 44.6381057,29.6849603 C48.3974701,29.6443879 52.1345815,31.193132 54.8035494,33.8499205 C57.2152171,36.2059141 58.7701447,39.4377107 59.0872498,42.8066137 C59.4321712,46.0565978 58.6213279,49.4157075 56.8383071,52.1480445 C55.4377596,54.2927822 53.4892322,56.0891574 51.2041284,57.2419714 C51.117898,59.6021622 51.2388987,61.963752 51.162404,64.3253418 C49.8021901,64.3183466 48.4419761,64.3463275 47.0817621,64.3099523 C47.0998427,62.4254372 47.1012335,60.5423211 47.1026243,58.657806 C44.0762177,59.1810493 40.8856954,58.7249603 38.1457961,57.3245151 C34.9260667,55.7156121 32.3502832,52.8517647 31.0818628,49.4688712 C29.956696,46.518283 29.8301322,43.1969475 30.7174701,40.1680127 C31.686866,36.7907154 33.9316362,33.8107472 36.8871114,31.9374245 L36.8871114,31.9374245 Z" id="Shape" fill="#0A6CB6" sketch:type="MSShapeGroup"></path>
            <path d="M107.413789,36.2786645 C110.166205,34.4319237 113.949213,34.3395866 116.785079,36.0562162 C116.23849,37.0131638 115.698855,37.9757075 115.15922,38.9368521 C113.981202,38.2806995 112.584827,37.9561208 111.252429,38.2471224 C109.319201,38.5884897 107.640491,40.0420986 107.002108,41.905628 C106.671095,42.7702385 106.664141,43.7173927 106.746199,44.6281717 C106.992373,46.3713831 108.123103,47.9523052 109.672467,48.7665501 C111.287199,49.6381558 113.330302,49.643752 114.932517,48.734372 C115.483279,49.7025119 116.035431,50.6720509 116.544468,51.6639746 C114.527791,52.7440382 112.103606,53.042035 109.899169,52.4180604 C107.608502,51.7912878 105.611296,50.1865819 104.472222,48.0936089 C103.761517,46.7813037 103.352618,45.2885215 103.383216,43.787345 C103.326193,40.8059777 104.938143,37.8945628 107.413789,36.2786645 L107.413789,36.2786645 Z" id="Shape" fill="#0A6CB6" sketch:type="MSShapeGroup"></path>
            <path d="M35.8926809,40.8381558 C37.1332851,37.5615898 40.3251982,35.1160572 43.8119635,34.8754213 C47.3988672,34.4766932 51.0831278,36.4493482 52.8244242,39.6181876 C54.0622467,41.7881081 54.3751794,44.4616852 53.6853367,46.8638474 C53.2430585,48.4461685 52.3724103,49.8983784 51.2110824,51.0511924 C51.1123348,49.4968521 51.2486344,47.9397138 51.1526683,46.3853736 C49.8007992,46.7799046 48.4447577,47.1646423 47.0914978,47.5563752 C47.090107,49.4968521 47.0873254,51.43593 47.0914978,53.376407 C45.0789931,53.9248331 42.8703839,53.801717 40.9524544,52.9636884 C38.9788924,52.1172655 37.3126998,50.5727186 36.3238326,48.6574245 C35.0651479,46.274849 34.9052045,43.3452464 35.8926809,40.8381558 L35.8926809,40.8381558 Z" id="Shape" fill="#FEFFFF" sketch:type="MSShapeGroup"></path>
            <path d="M123.235664,34.9453736 C125.4554,34.6571701 127.775274,35.2181876 129.590283,36.5430843 C131.31489,37.7686486 132.56523,39.6391733 133.067313,41.6999682 C133.485947,43.4655644 133.378855,45.3598728 132.721001,47.0541176 C131.893468,49.2310334 130.177206,51.0497933 128.061781,51.9997456 C126.167495,52.8713514 123.96584,53.0252464 121.965853,52.4488394 C119.75168,51.8262639 117.811498,50.2915103 116.675205,48.2824801 C115.646004,46.4819078 115.274657,44.3105882 115.650176,42.2679809 C116.022914,40.0910652 117.244047,38.0750397 118.988125,36.7347536 C120.212039,35.7694118 121.698817,35.1594277 123.235664,34.9453736 L123.235664,34.9453736 Z" id="Shape" fill="#0A6CB6" sketch:type="MSShapeGroup"></path>
            <path d="M138.773814,36.3318283 C139.257816,35.1944038 140.787709,35.0055326 141.793266,35.4951987 C142.513707,35.8491574 142.697294,36.6941812 143.014399,37.3615262 C144.346797,40.3946582 145.604091,43.4655644 146.983776,46.4777107 C148.403795,43.1018124 149.8864,39.752496 151.32589,36.3849921 C151.857181,35.0852782 153.734777,34.9159936 154.731989,35.7442289 C155.133933,36.1303657 155.286923,36.687186 155.513625,37.1810493 C156.851586,40.2785374 158.182593,43.3816216 159.520554,46.4791097 C161.068527,43.0976153 162.467684,39.6447695 163.976715,36.2450874 C164.266004,35.6113196 164.969755,35.260159 165.645689,35.2783466 C166.310497,35.2265819 167.058754,35.3664865 167.48017,35.9372973 C167.845953,36.4423529 168.015632,37.0565342 168.282668,37.6161526 C169.559434,40.5639428 170.825072,43.5173291 172.108792,46.4623211 C173.634512,43.0822258 175.050359,39.6503657 176.549654,36.2590779 C176.822253,35.7092528 177.393877,35.3063275 178.012788,35.290938 C178.569113,35.2559618 179.18107,35.2433704 179.663682,35.5749444 C180.018339,35.7736089 180.228351,36.141558 180.386904,36.5067091 C182.221385,40.7793959 184.06421,45.0478855 185.904254,49.3177742 C186.146256,49.9263593 186.532901,50.5321463 186.42859,51.2176789 C186.270038,52.3397138 184.868099,53.0168521 183.883405,52.4950079 C183.410529,52.3005405 183.142102,51.8346582 182.96825,51.3785692 C181.46061,47.8026073 179.923763,44.2392369 178.420296,40.661876 C176.941863,44.0839428 175.494028,47.521399 174.033675,50.9518601 C173.830617,51.3869634 173.705444,51.8934181 173.327143,52.2165978 C172.649817,52.7818124 171.587237,52.7832114 170.914084,52.2137997 C170.560818,51.9144038 170.428691,51.4569157 170.250667,51.0483943 C169.019799,48.1411765 167.777804,45.2395548 166.546935,42.3337361 C166.299371,41.7867091 166.104657,41.2158983 165.812587,40.692655 C164.25905,44.363752 162.694386,48.0306518 161.133896,51.6989507 C160.591479,52.9692846 158.480227,52.9790779 157.951718,51.6961526 C156.380101,48.0208585 154.818219,44.3413672 153.256337,40.663275 C151.669421,44.3427663 150.122838,48.0418442 148.537313,51.7227345 C147.979597,52.9385056 145.974047,52.9455008 145.392687,51.7437202 C143.997703,48.5021304 142.629144,45.2479491 141.242505,42.0035612 C141.050573,41.5628617 140.889239,41.1053736 140.637502,40.6954531 C139.198011,44.1720827 137.694544,47.6221304 136.232801,51.0889666 C136.029742,51.6024165 135.811385,52.1760254 135.291221,52.4418442 C134.377458,53.0014626 133.040887,52.4824165 132.707093,51.4695072 C132.541586,51.0190143 132.648678,50.5265501 132.835047,50.1012401 C134.818345,45.5123688 136.789125,40.9193005 138.773814,36.3318283 L138.773814,36.3318283 Z" id="Shape" fill="#0A6CB6" sketch:type="MSShapeGroup"></path>
            <path d="M61.6546885,35.4392369 C62.7464758,35.4336407 63.8396539,35.4406359 64.9314412,35.4350397 C65.0023726,36.5388871 64.8980617,37.6469316 64.9578666,38.7535771 C65.0051542,39.9679491 64.917533,41.1823211 64.9731655,42.3966932 C64.9425677,43.1885533 64.8966709,43.9832114 64.955085,44.7764706 C65.0009817,46.1139587 64.9536941,47.4528458 64.9370044,48.7903339 C65.590686,48.8043243 66.2443675,48.7875358 66.8980491,48.8113196 C68.1400441,48.7973291 69.382039,48.7987281 70.624034,48.7973291 C70.6323789,45.2157711 70.6087351,41.634213 70.6351605,38.0540541 C70.6101259,37.1894436 70.6323789,36.3248331 70.6198615,35.4616216 C71.7241661,35.4084579 72.8312524,35.4476312 73.9383386,35.4392369 C73.9466834,40.5555485 73.942511,45.6732591 73.9439018,50.7895707 C73.9800629,51.6373927 73.1567023,52.3704928 72.3333417,52.3369157 C69.3166709,52.3411129 66.3,52.3411129 63.2833291,52.3369157 C62.4557961,52.3718919 61.621309,51.647186 61.6560793,50.7923688 C61.6532977,45.6746582 61.6519069,40.5569475 61.6546885,35.4392369 L61.6546885,35.4392369 Z" id="Shape" fill="#0A6CB6" sketch:type="MSShapeGroup"></path>
            <path d="M82.5488546,35.4560254 C83.6420327,35.4616216 84.7352108,35.4448331 85.8283889,35.4672178 C88.2581372,41.0606041 90.7226558,46.638601 93.1593581,52.2291892 C91.9952486,52.2417806 90.8311391,52.2291892 89.6670296,52.2361844 C89.1232222,51.0162162 88.5752423,49.796248 88.0620327,48.5622893 C86.1079421,48.4839428 84.1482882,48.5496979 82.191416,48.5273132 C81.5836312,48.5552941 80.9605475,48.4503657 80.3638892,48.6084579 C79.8659786,49.8354213 79.2373317,51.0050238 78.7185588,52.223593 C77.5474953,52.2431797 76.3764317,52.2347854 75.2053682,52.2291892 C77.6420705,46.6330048 80.0940717,41.0438156 82.5488546,35.4560254 L82.5488546,35.4560254 Z" id="Shape" fill="#0A6CB6" sketch:type="MSShapeGroup"></path>
            <path d="M94.3916174,35.4532273 C95.495922,35.4196502 96.6016174,35.443434 97.7087036,35.4392369 C97.7031403,39.8854054 97.7240025,44.3315739 97.6975771,48.7791415 C98.69618,48.8295072 99.6961737,48.7665501 100.694777,48.8155167 C101.497275,48.7889348 102.301164,48.7861367 103.105053,48.8071224 C103.316457,48.8281081 103.402687,49.0547536 103.515343,49.2058506 C104.142599,50.2397456 104.786545,51.2624483 105.417974,52.2949444 C102.312291,52.3005405 99.2066079,52.3215262 96.1023159,52.3383148 C95.2400126,52.406868 94.4083071,51.6611765 94.3957898,50.7909698 C94.3888357,45.6788553 94.3985714,40.5653418 94.3916174,35.4532273 L94.3916174,35.4532273 Z" id="Shape" fill="#0A6CB6" sketch:type="MSShapeGroup"></path>
            <path d="M185.595494,35.6295072 C186.722052,35.3021304 188.007162,36.1583466 188.076702,37.3503339 C188.225519,38.5800954 187.014122,39.6993323 185.809679,39.4698887 C184.712329,39.3481717 183.873669,38.1547854 184.176866,37.0775199 C184.328464,36.3724006 184.905651,35.805787 185.595494,35.6295072 L185.595494,35.6295072 Z" id="Shape" fill="#0A6CB6" sketch:type="MSShapeGroup"></path>
            <path d="M185.802725,35.9233068 C186.58158,35.7582194 187.427193,36.2898569 187.619125,37.0691256 C187.801322,37.7140859 187.570447,38.4653736 187.025249,38.8599046 C186.324279,39.3733545 185.199113,39.1802862 184.76657,38.4024165 C184.176866,37.4972337 184.71511,36.1051828 185.802725,35.9233068 L185.802725,35.9233068 Z" id="Shape" fill="#FEFFFF" sketch:type="MSShapeGroup"></path>
            <path d="M185.340975,36.4255644 C185.873656,36.4773291 186.644166,36.1905246 186.969616,36.7641335 C186.980743,36.8802544 187.002996,37.111097 187.015513,37.2272178 C186.962662,37.3027663 186.858351,37.4552623 186.8055,37.5322099 C186.729006,37.5601908 186.573235,37.6161526 186.495349,37.6441335 C186.619132,38.021876 186.85557,38.3422576 187.060019,38.6794277 C186.48005,38.7689666 186.391038,38.0582512 186.104531,37.7042925 C185.973795,37.6944992 185.844449,37.6847059 185.719276,37.6749126 C185.715104,38.0036884 185.712322,38.3310652 185.713713,38.659841 C185.621919,38.6612401 185.436941,38.6640382 185.345148,38.6654372 C185.340975,37.9183466 185.346539,37.171256 185.340975,36.4255644 L185.340975,36.4255644 Z" id="Shape" fill="#0A6CB6" sketch:type="MSShapeGroup"></path>
            <path d="M185.712322,36.685787 C185.986312,36.6983784 186.268647,36.687186 186.539855,36.7585374 C186.638603,36.899841 186.680327,37.1362798 186.56489,37.2747854 C186.313153,37.4342766 186.003002,37.383911 185.72484,37.4076948 C185.717885,37.1670588 185.713713,36.9264229 185.712322,36.685787 L185.712322,36.685787 Z" id="Shape" fill="#FEFFFF" sketch:type="MSShapeGroup"></path>
            <path d="M123.295469,38.3086804 C124.355267,38.1282035 125.477653,38.1827663 126.480428,38.5968839 C127.93939,39.1774881 129.132706,40.4030525 129.666778,41.8888394 C130.275953,43.5243243 130.060378,45.4452146 129.102108,46.9016216 C128.292656,48.1705564 126.947741,49.0785374 125.476262,49.3569475 C123.919943,49.673132 122.238452,49.2744038 120.988112,48.2936725 C119.452656,47.1380604 118.62095,45.1318283 118.851825,43.2207313 C119.081309,40.8465501 120.963077,38.7577742 123.295469,38.3086804 L123.295469,38.3086804 Z" id="Shape" fill="#FEFFFF" sketch:type="MSShapeGroup"></path>
            <path d="M84.1608055,39.752496 C85.0676149,41.7475358 85.960516,43.7523688 86.7991756,45.7781876 C85.0439711,45.7879809 83.2873757,45.7865819 81.5321712,45.7795866 C82.4069918,43.7691574 83.292939,41.7643243 84.1608055,39.752496 L84.1608055,39.752496 Z" id="Shape" fill="#FEFFFF" sketch:type="MSShapeGroup"></path>
        </g>
    </g>
</svg>