<?xml version="1.0" encoding="UTF-8" standalone="no"?>
<svg width="141px" height="67px" viewBox="0 0 141 67" version="1.1" xmlns="http://www.w3.org/2000/svg" xmlns:xlink="http://www.w3.org/1999/xlink" xmlns:sketch="http://www.bohemiancoding.com/sketch/ns">
    <!-- Generator: Sketch 3.1.1 (8761) - http://www.bohemiancoding.com/sketch -->
    <title>redbull_hover</title>
    <desc>Created with Sketch.</desc>
    <defs></defs>
    <g id="Clients" stroke="none" stroke-width="1" fill="none" fill-rule="evenodd" sketch:type="MSPage">
        <g sketch:type="MSArtboardGroup" transform="translate(-650.000000, -1347.000000)" id="Group">
            <g sketch:type="MSLayerGroup" transform="translate(235.000000, 972.000000)">
                <g id="Red-Bull" transform="translate(415.000000, 376.000000)" sketch:type="MSShapeGroup">
                    <g id="redbull_hover">
                        <path d="M100.247368,13.4224719 L94.3157895,13.4224719 L94.3157895,25.1393258 C94.3157895,28.958427 98.3684211,32.2213483 103.378947,32.2213483 C108.389474,32.2213483 112.773684,28.9213483 112.773684,25.1393258 L112.773684,13.4224719 L106.842105,13.4224719 L106.842105,23.9898876 C106.842105,25.7325843 105.368421,27.141573 103.563158,27.141573 C101.721053,27.141573 100.247368,25.7325843 100.247368,23.952809 L100.247368,13.4224719 L100.247368,13.4224719 Z" id="Shape" fill="#E21B4D"></path>
                        <path d="M6.15263158,6.97078652 L6.15263158,31.294382 L0,31.294382 L0,1.96516854 L11.0894737,1.96516854 C15.9157895,1.96516854 19.8578947,5.89550562 19.8578947,10.6786517 C19.8578947,14.7573034 17.0210526,18.1685393 13.1894737,19.058427 L21.7368421,31.294382 L14.4052632,31.294382 L8.25263158,21.6910112 L8.25263158,14.6831461 L9.68947368,14.6831461 C11.9736842,14.6831461 13.8157895,12.9775281 13.8157895,10.8640449 C13.8157895,8.7505618 12.0842105,6.97078652 9.8,6.97078652 L6.15263158,6.97078652 L6.15263158,6.97078652 Z" id="Shape" fill="#E21B4D"></path>
                        <path d="M62.7789474,31.294382 L62.7789474,0.556179775 L56.9578947,0.556179775 L56.9578947,15.0539326 C55.4105263,13.5337079 53.4578947,12.6808989 51.2105263,12.6808989 C46.4210526,12.6808989 42.5157895,16.9449438 42.5157895,22.247191 C42.5157895,27.5123596 46.4210526,31.8134831 51.2105263,31.8134831 C53.4947368,31.8134831 55.6315789,30.9235955 56.9578947,29.2921348 L56.9578947,31.294382 L62.7789474,31.294382 L62.7789474,31.294382 Z M52.8684211,26.8078652 C50.5105263,26.8078652 48.5947368,24.694382 48.5947368,22.0988764 C48.5947368,19.5033708 50.5105263,17.3898876 52.8684211,17.3898876 C55.2263158,17.3898876 57.1421053,19.5033708 57.1421053,22.0988764 C57.1052632,24.694382 55.1894737,26.8078652 52.8684211,26.8078652 L52.8684211,26.8078652 Z" id="Shape" fill="#E21B4D"></path>
                        <path d="M87.2421053,15.3505618 C88.8263158,13.8674157 89.8210526,11.8651685 89.8210526,9.67752809 C89.8210526,7.6752809 89.0473684,5.85842697 87.7210526,4.41235955 C86.3210526,2.89213483 83.8894737,1.96516854 80.5736842,1.96516854 L70.6631579,1.96516854 L70.6631579,31.294382 L83.4842105,31.294382 C88.3842105,31.2202247 92.3631579,27.4752809 92.3631579,22.8775281 C92.3263158,19.5404494 91.1473684,17.1674157 87.2421053,15.3505618 M82.3052632,26.2146067 L76.7421053,26.2146067 L76.7421053,7.23033708 L80.6473684,7.23033708 C82.3421053,7.23033708 83.7789474,8.52808989 83.7789474,10.2707865 C83.7789474,12.0134831 82.3421053,13.4224719 80.6473684,13.4224719 L78.5842105,13.4224719 L78.5842105,18.7247191 L82.3789474,18.7247191 C84.4421053,18.7247191 85.9894737,20.4303371 85.9894737,22.5067416 C85.9157895,24.5831461 84.5526316,26.1033708 82.3052632,26.2146067" id="Shape" fill="#E21B4D"></path>
                        <path d="M26.8947368,20.0595506 C26.8947368,18.094382 28.4789474,16.5 30.4315789,16.5 C32.3842105,16.5 33.9684211,18.094382 33.9684211,20.0595506 L26.8947368,20.0595506 L26.8947368,20.0595506 Z M39.7157895,23.3966292 C39.7526316,22.988764 39.7894737,22.5808989 39.7894737,22.1730337 C39.8631579,15.8325843 35.7368421,12.3842697 30.4315789,12.3842697 C25.1263158,12.3842697 20.8157895,16.7595506 20.8157895,22.1730337 C20.8157895,27.5865169 25.1263158,31.9617978 30.4315789,31.9617978 C34.4842105,31.9617978 37.6526316,30.1078652 39.2736842,27.2157303 L34.5578947,25.0280899 C33.9684211,26.3258427 32.5684211,27.252809 30.9105263,27.252809 C28.7368421,27.252809 26.9315789,25.5842697 26.9315789,23.3966292 L39.7157895,23.3966292 L39.7157895,23.3966292 Z" id="Shape" fill="#E21B4D"></path>
                        <rect id="Rectangle-path" fill="#E21B4D" x="115.684211" y="0.741573034" width="5.82105263" height="30.7382022"></rect>
                        <rect id="Rectangle-path" fill="#E21B4D" x="125.263158" y="0.741573034" width="5.82105263" height="30.7382022"></rect>
                        <path d="M52.2421053,51.6134831 C52.2421053,43.6786517 58.6157895,37.2640449 66.5,37.2640449 C74.3842105,37.2640449 80.7578947,43.6786517 80.7578947,51.6134831 C80.7578947,59.5483146 74.3842105,65.9629213 66.5,65.9629213 C58.6157895,65.9629213 52.2421053,59.511236 52.2421053,51.6134831" id="Shape" fill="#FFD300"></path>
                        <path d="M55.0421053,43.0853933 C55.2631579,43.1966292 55.4842105,43.3078652 55.7421053,43.4561798 C56.8105263,44.1977528 57.5105263,44.8280899 59.1315789,46.2 C59.6105263,46.6820225 60.1631579,47.4606742 60.5684211,47.9426966 C61.4526316,49.0550562 62.0789474,49.8337079 62.1894737,50.7606742 C62.4473684,52.6146067 62.7052632,53.652809 63.4052632,55.5438202 C63.4789474,55.7292135 63.7736842,55.988764 63.9578947,56.211236 C64.4,56.7674157 64.5842105,57.6573034 65.3947368,58.1393258 C65.8368421,58.3988764 65.9105263,58.4359551 66.0578947,58.547191 C66.2789474,58.7325843 65.9105263,59.4 64.7684211,59.2516854 C65.3578947,59.5483146 65.2842105,60.2157303 64.4368421,60.252809 C62.7789474,60.3269663 61.7473684,59.3629213 61.5263158,59.1033708 C61.4157895,58.9921348 61.0842105,59.4370787 60.4947368,59.6595506 C59.9052632,59.9561798 59.0947368,59.6595506 58.4684211,59.7707865 C57.8789474,59.8820225 57.1052632,60.252809 56.4789474,60.2898876 C55.3736842,60.3269663 55.2263158,59.5483146 55.2263158,58.8808989 L55.2263158,58.5842697 C55.1157895,58.9921348 54.7105263,59.6966292 54.7105263,59.6966292 C54.5631579,60.0303371 54.3421053,60.4382022 53.9368421,60.5865169 L52.7578947,60.7348315 C51.8368421,61.1426966 50.9157895,61.4393258 49.9578947,61.7730337 C49.4052632,61.8842697 48.7789474,61.7730337 48.3736842,61.4393258 C48.0421053,61.1797753 47.8578947,60.8460674 47.6736842,60.5123596 C47.4894737,60.4382022 47.2315789,60.5123596 47.0105263,60.4382022 C46.8263158,60.4011236 46.7157895,60.252809 46.6052632,60.141573 L45.7947368,58.7696629 C45.7210526,58.5842697 45.7210526,58.3247191 45.7947368,58.1393258 C45.9421053,57.8426966 46.2736842,57.694382 46.6052632,57.694382 C47.1947368,57.6573034 47.8578947,57.4719101 48.4473684,57.694382 C48.7052632,57.3977528 49.1105263,57.4348315 49.4789474,57.3606742 C49.3315789,57.1382022 49.1105263,57.0269663 48.9263158,56.841573 C47.8578947,57.1011236 46.6789474,56.9157303 45.6473684,56.7303371 C44.6894737,56.5078652 43.8789474,57.0640449 42.9210526,56.9157303 L42.6263158,57.5460674 C42.1842105,58.0280899 42.1473684,58.8438202 41.4842105,59.1775281 C41.0052632,59.288764 40.6368421,59.6224719 40.2315789,59.8449438 C39.4947368,60.252809 38.5,60.0674157 37.6894737,59.9191011 C37.3578947,59.8820225 37.1368421,59.9191011 36.8421053,60.0303371 C36.5842105,60.2157303 36.2894737,60.5123596 35.9947368,60.7348315 C35.5157895,60.9202247 35.1105263,61.3280899 34.5947368,61.3651685 C34.3,61.3651685 34.0052632,61.1797753 33.7105263,61.2539326 C33.3421053,61.6617978 33.1578947,62.3292135 32.5684211,62.5146067 C31.9789474,62.7 31.2421053,62.5516854 30.6526316,62.4033708 C30.4684211,62.4775281 30.3578947,62.6258427 30.1368421,62.588764 C29.7315789,62.4775281 29.3263158,62.3662921 28.9578947,62.1438202 C28.8105263,61.9955056 28.7736842,61.8101124 28.7368421,61.6617978 C28.7368421,61.4022472 28.9578947,61.1797753 29.0684211,60.9573034 C29.1052632,60.6977528 29.1052632,60.3269663 29.2157895,60.0674157 C29.4,59.6595506 29.8052632,59.4 30.2105263,59.2146067 C30.2473684,58.9179775 30.4315789,58.658427 30.6894737,58.5101124 C31.1684211,58.2505618 31.6842105,57.6573034 32.3105263,57.9910112 L32.9736842,58.547191 C33.5631579,58.2876404 33.4157895,57.694382 33.7105263,57.2123596 C33.8578947,56.8786517 34.0421053,56.5078652 34.4105263,56.5078652 C34.6684211,56.4707865 34.9631579,56.5449438 35.2210526,56.5078652 C35.5894737,56.3966292 35.9947368,56.2483146 36.2526316,55.9516854 L36.2157895,55.7292135 C35.8473684,55.0247191 35.7368421,54.1719101 35.7,53.3191011 C35.0368421,53.3932584 34.3368421,53.5044944 33.6368421,53.3561798 C32.6052632,53.2078652 31.6105263,52.3921348 31.2052632,51.3539326 C30.7631579,50.352809 30.9473684,48.9438202 31.6473684,48.0910112 C32.2,47.4235955 32.8263158,46.8303371 33.4894737,46.311236 C33.2684211,46.2370787 33.0105263,46.2741573 32.7894737,46.2 C31.8315789,46.0516854 30.8736842,45.1988764 30.6526316,44.2348315 C30.5052632,43.6044944 30.6526316,43.011236 30.9473684,42.4921348 C31.0578947,42.3808989 31.1684211,42.2696629 31.3526316,42.3438202 C31.8315789,42.5292135 31.9789474,42.788764 32.4210526,43.011236 L32.6789474,43.1595506 C33.8947368,43.5674157 35.5157895,43.5674157 35.9947368,45.0876404 C36.2894737,46.2741573 35.5526316,47.1640449 34.7052632,47.8314607 C34.0421053,48.3134831 33.3789474,48.9067416 33.0473684,49.611236 C32.9,50.1303371 32.9736842,50.6494382 33.4157895,51.0202247 C33.8578947,51.4651685 34.6315789,51.4651685 35.1842105,51.2426966 C36.2157895,50.7977528 37.1736842,50.1303371 38.0947368,49.4258427 C38.9789474,48.758427 40.0473684,48.4988764 41.1894737,48.4617978 C41.7052632,48.3505618 42.1473684,48.1280899 42.5526316,47.794382 C43.2526316,47.1269663 43.9894737,46.5707865 44.8736842,46.3483146 C45.2789474,46.2741573 45.6842105,46.2370787 46.0894737,46.2 C46.4210526,46.0516854 46.6421053,45.6438202 46.9,45.458427 C48.1157895,44.3831461 49.7368421,44.4202247 51.0263158,43.5674157 C51.7631579,43.011236 52.5736842,42.6404494 53.5315789,42.6775281 C53.9736842,42.7146067 54.3789474,42.788764 54.7473684,42.9370787 L55.0421053,43.0853933 L55.0421053,43.0853933 Z M56.2578947,55.6921348 C55.4473684,55.7292135 54.9315789,55.9146067 54.3789474,55.988764 C54.4157895,56.5078652 54.7105263,56.952809 55.1157895,57.5089888 C55.3368421,56.6561798 56.0368421,56.3224719 56.2578947,55.6921348 L56.2578947,55.6921348 Z" id="Shape" fill="#FFD300"></path>
                        <path d="M77,55.8775281 C77.3684211,56.4337079 77.5894737,56.9898876 77.9210526,57.5831461 C78.2526316,56.952809 78.5473684,56.3595506 78.8421053,55.988764 C78.8052632,55.9516854 77.8473684,56.0629213 77,55.8775281 M77.7736842,58.6213483 C77.7368421,58.7325843 77.6631579,58.7696629 77.5157895,58.7696629 C77.6263158,59.288764 77.2578947,60.252809 76.3368421,60.2898876 C75.7105263,60.3269663 74.6789474,59.6966292 74.0894737,59.6595506 C73.4631579,59.6224719 72.3210526,60.1044944 71.6578947,59.1033708 C70.7736842,60.1786517 69.7421053,60.4752809 68.8578947,60.4382022 C68.3421053,60.4382022 67.7894737,60.141573 68.5631579,59.4741573 C66.8684211,60.0303371 66.8684211,58.8808989 67.1631579,58.658427 C67.3473684,58.5101124 67.5684211,58.3988764 68.1947368,57.7685393 C70.5526316,55.2842697 69.6684211,50.9831461 72.2473684,48.1280899 C73.2421053,47.0157303 74.0526316,46.3853933 76.0789474,44.9393258 C76.7789474,44.4573034 77.4789474,43.752809 78.1421053,43.2707865 L78.1789474,43.3449438 L78.1789474,43.3078652 C78.5842105,43.011236 78.9526316,42.7146067 79.3947368,42.6033708 C80.3157895,42.4921348 81.1631579,42.788764 81.8631579,43.2707865 C82.2315789,43.5303371 82.5263158,43.8269663 82.8210526,44.1977528 C83.0421053,44.4202247 83.3736842,44.4202247 83.6684211,44.5314607 C84.5157895,44.6797753 85.2526316,45.0134831 85.9526316,45.458427 C86.4315789,45.7550562 86.8368421,46.2741573 87.4263158,46.3483146 C88.1263158,46.4595506 88.7526316,46.6820225 89.3789474,47.052809 C90.1157895,47.5348315 90.7789474,48.1280899 91.6631579,48.2764045 C93.4315789,48.4617978 94.9052632,49.4629213 96.3052632,50.4640449 C97.1157895,50.9460674 98.0736842,51.5022472 99.0684211,51.1685393 C99.3631579,51.0573034 99.5842105,50.7977528 99.6578947,50.5382022 C99.7315789,49.8707865 99.3263158,49.3516854 98.9210526,48.8696629 C98.0736842,47.8685393 96.6,47.0157303 96.7842105,45.5696629 C97.0421053,44.494382 98.2210526,43.8640449 99.1421053,43.5674157 C99.6578947,43.3820225 100.284211,43.4561798 100.726316,43.011236 C100.947368,42.8629213 101.057895,42.3438202 101.426316,42.5292135 C101.721053,42.7146067 101.757895,43.0853933 101.794737,43.4191011 C101.942105,44.4573034 101.721053,45.4955056 100.763158,46.088764 C100.321053,46.3853933 99.8421053,46.4966292 99.3263158,46.6078652 C100.1,47.2382022 100.873684,48.0168539 101.315789,48.9067416 C101.573684,49.4258427 101.721053,49.8707865 101.757895,50.4640449 C101.721053,51.5764045 101.057895,52.5404494 100.1,53.0966292 C99.5473684,53.3932584 98.9210526,53.5044944 98.2578947,53.5044944 C98,53.5044944 97.7789474,53.4303371 97.5578947,53.4303371 C97.6684211,53.9494382 97.6684211,54.6539326 97.5578947,55.247191 C97.5210526,55.5438202 97.3368421,55.8775281 97.3368421,56.2483146 C97.4842105,56.4337079 97.7052632,56.4337079 97.8894737,56.4337079 C98.3684211,56.4337079 98.9578947,56.3966292 99.2157895,56.9157303 C99.4368421,57.3977528 99.5473684,57.9539326 99.7315789,58.4359551 C99.8052632,58.5101124 99.8421053,58.6955056 99.9526316,58.658427 C100.284211,58.3617978 100.615789,57.9539326 101.094737,58.0651685 C101.536842,58.3617978 101.978947,58.6955056 102.421053,59.0292135 C102.531579,59.1404494 102.568421,59.288764 102.605263,59.4741573 C102.973684,59.6224719 103.452632,59.8820225 103.563158,60.3269663 C103.636842,60.6235955 103.6,60.9202247 103.673684,61.1797753 C103.784211,61.4764045 104.078947,61.847191 103.857895,62.2179775 L103.710526,62.3292135 L102.310526,62.7741573 C102.2,62.7741573 102.089474,62.7 101.978947,62.588764 C101.242105,62.5516854 100.357895,62.7741573 99.7684211,62.2550562 C99.5105263,62.0325843 99.3263158,61.7730337 99.1421053,61.4764045 C98.7,61.6988764 98.0736842,61.847191 97.6315789,61.5505618 C96.7105263,60.8460674 95.7894737,60.141573 94.5368421,60.1786517 C93.9842105,60.2898876 93.3210526,60.4382022 92.7684211,60.2157303 C92.2526316,59.8449438 91.6631579,59.6595506 91.2578947,59.1033708 C90.6684211,58.4730337 90.6684211,57.7314607 90.4473684,56.952809 C89.6368421,57.1382022 88.7526316,57.0269663 87.9421053,56.9898876 C87.2789474,56.952809 86.6526316,57.0640449 86.0263158,57.2123596 C85.2526316,57.3606742 84.4052632,57.4348315 83.5947368,57.3977528 L83.1894737,57.694382 C83.3736842,57.7314607 83.5578947,57.7314607 83.7052632,57.8797753 L83.8526316,58.0280899 C84.5157895,58.1022472 85.2894737,57.9910112 85.9157895,58.1393258 C86.0631579,58.1764045 86.2105263,58.3247191 86.2842105,58.4730337 C86.3578947,58.658427 86.3578947,58.8808989 86.2473684,59.0292135 C85.9157895,59.4741573 85.7315789,59.9932584 85.2894737,60.3640449 C85.1789474,60.5123596 84.8473684,60.3269663 84.8105263,60.5865169 C84.6631579,61.2539326 84.0368421,61.8101124 83.4105263,61.958427 C83.1526316,61.9955056 82.8578947,61.958427 82.6368421,61.8842697 C81.8631579,61.6247191 81.0894737,61.4022472 80.3157895,61.1797753 C80.0578947,61.105618 79.8368421,60.8460674 79.6157895,60.6977528 C79.2842105,60.6977528 78.8052632,60.8089888 78.5842105,60.5123596 C78.4736842,60.4382022 78.3631579,60.1786517 78.3263158,60.0674157 C78.0684211,59.7337079 77.8842105,59.1404494 77.7736842,58.6213483" id="Shape" fill="#FFD300"></path>
                        <path d="M54.6736842,47.7573034 C54.8947368,48.3134831 54.8947368,49.0550562 54.7473684,49.6483146 C54.7105263,49.6853933 54.6736842,49.6853933 54.6368421,49.6483146 C54.5263158,49.1292135 54.4157895,48.6101124 54.2315789,48.0910112 C54.1210526,47.794382 53.7526316,47.5348315 53.9,47.2011236 C53.9736842,47.1269663 54.1210526,47.1269663 54.2315789,47.1640449 C54.4157895,47.3494382 54.5263158,47.5348315 54.6736842,47.7573034 M60.5684211,52.9483146 C60.9736842,53.4303371 61.2684211,53.9494382 61.1210526,54.5797753 C61.0473684,54.6910112 61.0842105,54.9134831 60.9,54.9505618 C60.8263158,54.9876404 60.7526316,54.9134831 60.7526316,54.8393258 C60.7157895,54.505618 60.7157895,54.1348315 60.5315789,53.8752809 C60.3105263,53.652809 60.0526316,53.2078652 59.6842105,53.2078652 C59.4263158,53.2820225 59.2421053,53.5786517 59.0947368,53.7640449 C59.0947368,53.8011236 59.0578947,53.8011236 59.0210526,53.7640449 C58.8736842,53.3932584 59.1684211,53.0966292 59.2789474,52.8 C59.5,52.5775281 59.4631579,51.947191 59.9421053,52.1325843 C60.2736842,52.3550562 60.3473684,52.7258427 60.5684211,52.9483146 M59.7947368,57.3606742 C59.8315789,57.5831461 59.8315789,57.9168539 59.6105263,58.0651685 C59.3894737,58.1393258 59.0947368,58.1764045 58.8368421,58.1393258 C58.7631579,58.1022472 58.6894737,58.0651685 58.7263158,57.9910112 C58.8368421,57.6573034 59.1684211,57.2865169 59.5368421,57.2123596 C59.6105263,57.2123596 59.7578947,57.2123596 59.7947368,57.3606742 M32.9,43.8269663 C33.7842105,44.0494382 34.7421053,44.0494382 35.4052632,44.7539326 C35.7736842,45.1988764 35.8105263,45.9775281 35.5157895,46.4224719 C35,47.3123596 33.9684211,47.7573034 33.3421053,48.5359551 C32.7157895,49.0550562 32.4947368,49.8707865 32.6789474,50.6865169 C32.9,51.3910112 33.6,51.8730337 34.3,51.9101124 C35.4052632,51.947191 36.2157895,51.3910112 37.1,50.8719101 C37.9842105,50.241573 38.7947368,49.4258427 39.7894737,49.1662921 C40.4526316,48.9438202 41.1894737,49.0550562 41.8526316,48.7955056 C42.5526316,48.647191 43.1052632,48.0539326 43.6578947,47.5348315 C44.2842105,47.0157303 45.0210526,46.7191011 45.8315789,46.7561798 C46.5684211,46.8674157 46.9736842,46.2 47.4894737,45.7550562 C48.3368421,44.9764045 49.4421053,44.9022472 50.4368421,44.4573034 C51.1368421,44.2348315 51.6894737,43.7157303 52.3526316,43.3820225 C52.9789474,43.1224719 53.8263158,43.0483146 54.4526316,43.3078652 C54.8578947,43.4932584 55.3,43.6786517 55.6684211,43.9752809 L58.6526316,46.4966292 C58.6894737,46.6078652 58.8,46.6820225 58.8736842,46.7191011 C59.7210526,47.7573034 60.6052632,48.758427 61.3052632,49.9078652 C61.5263158,50.3157303 61.6368421,50.7235955 61.7473684,51.1685393 C61.8947368,52.8741573 62.3368421,54.3573034 62.8894737,55.8404494 C63.0368421,56.0629213 63.3315789,56.2483146 63.4789474,56.4707865 C63.9578947,57.1382022 64.2526316,57.9910112 65.0263158,58.4359551 L65.4684211,58.658427 C65.5052632,58.6955056 65.5052632,58.7696629 65.4684211,58.8067416 L65.3947368,58.8808989 C64.4736842,59.0292135 63.7736842,58.4730337 63.2947368,57.805618 C63,57.2123596 62.5947368,56.5820225 61.9315789,56.3224719 C61.8947368,56.3224719 61.8578947,56.3595506 61.8578947,56.3595506 C61.9315789,56.5820225 62.1526316,56.7303371 62.2263158,56.9157303 C62.4842105,57.3235955 62.7052632,57.7685393 62.8157895,58.2134831 C62.9631579,58.6955056 63.4789474,59.0292135 63.8842105,59.288764 L64.4736842,59.5853933 C64.5473684,59.6224719 64.5842105,59.7337079 64.5105263,59.8078652 L64.4368421,59.8449438 C63.4421053,59.8820225 62.5578947,59.5483146 61.8578947,58.8067416 C61.7105263,58.6213483 61.4894737,58.4730337 61.2315789,58.4730337 C60.7894737,58.8808989 60.3473684,59.2516854 59.7578947,59.288764 C59.1315789,59.1775281 58.4684211,59.1775281 57.9157895,59.4 C57.4,59.5853933 56.8842105,59.8078652 56.3315789,59.8078652 C56.0736842,59.8078652 55.7789474,59.6966292 55.6684211,59.4370787 C55.6684211,59.1033708 55.4473684,58.7325843 55.6315789,58.3988764 L56,57.8426966 C56,57.7685393 55.9631579,57.694382 55.8894737,57.694382 C55.7421053,57.6573034 55.4842105,57.9168539 55.4105263,57.6573034 C55.4473684,57.1011236 56,56.7303371 56.3684211,56.3595506 C56.4421053,55.9146067 56.6263158,55.5067416 56.9578947,55.1359551 C56.9578947,55.0988764 56.9210526,55.0247191 56.8473684,55.0247191 C56.3684211,55.0988764 55.8894737,55.2101124 55.3736842,55.2101124 C54.9684211,55.4325843 54.4526316,55.5808989 53.9736842,55.4325843 C53.8631579,55.358427 53.9,55.247191 53.9368421,55.1730337 C54.4526316,54.4685393 54.6368421,53.5786517 54.4894737,52.7258427 C54.4526316,52.688764 54.4526316,52.6146067 54.3789474,52.6146067 C54.3052632,52.6146067 54.3052632,52.688764 54.2684211,52.7258427 C54.1578947,53.541573 53.9,54.1719101 53.4578947,54.8764045 C53.1263158,55.2101124 52.6105263,55.2101124 52.1684211,55.3213483 C52.0578947,55.358427 51.9473684,55.4696629 51.9473684,55.5808989 C51.9473684,55.8775281 52.1315789,56.0629213 52.2421053,56.3224719 L53.2,58.1022472 C53.2368421,58.5842697 53.0157895,59.0662921 52.9052632,59.511236 C52.9421053,59.5853933 53.0157895,59.5483146 53.0894737,59.511236 C53.4210526,59.2146067 53.6421053,58.8067416 53.7894737,58.3617978 C53.8263158,58.1764045 53.7526316,57.9539326 53.6789474,57.805618 L52.6842105,55.8033708 C52.7578947,55.6921348 52.9052632,55.6921348 53.0157895,55.6550562 C53.2368421,55.6550562 53.4578947,55.7662921 53.6789474,55.8404494 C53.9,56.4337079 54.1578947,57.0640449 54.5631579,57.5831461 C54.6368421,57.9168539 54.7473684,58.3617978 54.5263158,58.6213483 C54.3052632,59.0662921 54.0842105,59.4370787 53.7894737,59.8449438 C53.5315789,60.1044944 53.1631579,60.0674157 52.7947368,60.1044944 L52.6842105,60.1044944 C51.8,60.5865169 50.8789474,60.8831461 49.9210526,61.1797753 C49.5157895,61.3651685 49.0368421,61.2168539 48.7052632,60.9573034 C48.3736842,60.6977528 48.2263158,60.3269663 48.0052632,59.9932584 C47.7473684,59.6595506 47.3421053,59.9561798 47.0473684,59.7707865 C46.7894737,59.3629213 46.5315789,58.9550562 46.3105263,58.5101124 C46.3105263,58.3988764 46.3105263,58.2876404 46.4210526,58.2134831 C46.7526316,58.1022472 47.1210526,58.1022472 47.4894737,58.0651685 C47.8210526,58.0280899 48.1894737,58.1022472 48.4105263,58.3247191 C48.8526316,58.8438202 49.0368421,59.5483146 49.7,59.8820225 C50.2157895,59.9191011 50.6578947,59.7707865 51.1,59.5483146 C51.3578947,59.4 51.6526316,59.1775281 51.6526316,58.8438202 C51.6157895,58.1764045 51.1736842,57.6573034 50.6210526,57.2865169 C50.0684211,56.9898876 49.4789474,56.5820225 49.0736842,56.0629213 C48.8526316,55.7662921 48.8157895,55.4325843 48.7052632,55.1359551 C48.6684211,55.0617978 48.5210526,55.0617978 48.4842105,55.0988764 C48.2631579,55.2842697 48.4473684,55.6179775 48.4473684,55.8404494 C48.4842105,55.988764 48.5578947,56.1741573 48.4842105,56.2853933 C48.1526316,56.5449438 47.7105263,56.3966292 47.3052632,56.4337079 C46.4947368,56.3966292 45.7210526,56.0629213 44.8736842,56.1370787 C44.0631579,56.1741573 42.9578947,56.7303371 42.3684211,55.9146067 C42.0736842,55.1359551 42.1473684,54.2089888 42.2947368,53.4303371 C42.2947368,53.3561798 42.2210526,53.2820225 42.1473684,53.2820225 C42.0736842,53.2449438 42,53.2820225 41.9631579,53.3561798 C41.7421053,54.1348315 41.7052632,54.9876404 41.5210526,55.8033708 C41.2263158,56.5078652 40.7105263,57.2494382 40.0105263,57.6202247 C39.3842105,57.9539326 38.6473684,58.0651685 37.8736842,58.1393258 C36.4736842,58.1764045 35.1842105,58.4359551 34.3,59.6595506 C34.2263158,59.7707865 34.1157895,59.8820225 34.1526316,60.0303371 C34.1894737,60.0674157 34.3,60.1044944 34.3368421,60.0674157 C35.2947368,58.9921348 36.5105263,58.547191 37.9105263,58.6213483 C39.2368421,58.6213483 40.5631579,58.3988764 41.4105263,57.2494382 C41.6315789,56.9898876 41.7789474,56.7303371 41.9631579,56.4337079 C42.1105263,56.4337079 42.2210526,56.6191011 42.3315789,56.6932584 C42.3684211,57.1011236 42.0368421,57.3606742 41.8894737,57.694382 C41.7052632,58.0651685 41.5210526,58.5101124 41.1526316,58.7325843 C40.7105263,58.8438202 40.3421053,59.1404494 39.9368421,59.3629213 C39.5315789,59.5483146 39.0157895,59.6224719 38.5368421,59.511236 C37.9473684,59.4 37.1368421,59.2516854 36.5473684,59.511236 C36.2526316,59.6966292 35.9947368,60.0303371 35.7,60.2157303 C35.2947368,60.4011236 34.9263158,60.7348315 34.4473684,60.6977528 C34.1157895,60.6235955 33.7105263,60.4011236 33.4157895,60.6977528 C33.0473684,61.0314607 32.9736842,61.6247191 32.4947368,61.847191 C31.9421053,62.1438202 31.3526316,61.847191 30.8,61.8101124 C30.8736842,61.2539326 30.9473684,60.7348315 31.3157895,60.3269663 C31.5368421,60.2898876 31.7210526,60.252809 31.9052632,60.1044944 C32.1263158,59.9191011 32.2736842,59.6595506 32.4210526,59.4 C32.9,59.1033708 33.4526316,58.8808989 33.7473684,58.3617978 C33.9684211,57.8797753 33.9684211,57.4348315 34.3368421,56.9898876 L34.5210526,56.9157303 L35.5157895,56.841573 C35.9210526,56.6561798 36.2894737,56.4707865 36.6578947,56.1741573 C36.7684211,56.0629213 36.8052632,55.8775281 36.7684211,55.6921348 C36.5842105,55.2101124 36.4368421,54.8764045 36.3263158,54.3573034 C36.2157895,53.8382022 36.2894737,53.3191011 36.2157895,52.7258427 C36.1789474,52.688764 36.1421053,52.5775281 36.0684211,52.5775281 C35.4052632,52.7258427 34.7789474,52.911236 34.0421053,52.8 C33.0473684,52.688764 32.0157895,52.0213483 31.6473684,51.0202247 C31.3157895,50.1674157 31.3894737,48.9438202 32.0157895,48.2393258 C32.6052632,47.4977528 33.3421053,46.941573 34.0789474,46.311236 C34.1894737,46.2370787 34.1894737,46.088764 34.2263158,45.9775281 C34.2263158,45.8292135 34.0789474,45.7179775 33.9684211,45.6438202 C33.5263158,45.5325843 33.0105263,45.6808989 32.5684211,45.4955056 C31.7947368,45.2359551 31.2052632,44.494382 31.0947368,43.6786517 C31.0578947,43.3078652 31.1315789,43.011236 31.3157895,42.7146067 C31.9052632,43.2337079 32.3473684,43.6786517 32.9,43.8269663 M30.6894737,60.4011236 L30.6894737,60.5123596 C30.5052632,60.9573034 30.3947368,61.4764045 30.2473684,61.9955056 C29.9157895,61.958427 29.6210526,61.847191 29.3631579,61.7359551 C29.2894737,61.6617978 29.3631579,61.5876404 29.3631579,61.5134831 C29.6947368,61.2168539 29.5842105,60.8460674 29.6578947,60.4382022 C29.6947368,60.2157303 29.9157895,60.0303371 30.1368421,59.9191011 C30.3947368,59.9561798 30.5421053,60.2157303 30.6894737,60.4011236 M32.3105263,58.8438202 C32.1263158,59.2146067 31.8684211,59.6595506 31.4631579,59.8820225 C31.3157895,59.9191011 31.1315789,59.9191011 30.9842105,59.8449438 C30.9105263,59.7707865 30.7631579,59.6966292 30.7631579,59.5483146 C30.8,59.4 30.7263158,59.2146067 30.8736842,59.1404494 C31.1684211,58.9550562 31.4631579,58.7696629 31.7578947,58.5101124 C31.8315789,58.4730337 31.9789474,58.4359551 32.0157895,58.5101124 C32.1631579,58.6213483 32.2736842,58.6955056 32.3105263,58.8438202 M50.7684211,58.6955056 C50.8052632,58.8438202 51.0263158,59.0292135 50.8789474,59.1775281 C50.5842105,59.4 50.2526316,59.5483146 49.8473684,59.511236 C49.5526316,59.288764 49.5894737,58.8808989 49.3315789,58.5842697 C49.2578947,58.3617978 48.9263158,58.3617978 49,58.1393258 L49.1105263,58.0651685 C49.5157895,58.0651685 49.9210526,58.0651685 50.3263158,57.9910112 C50.7315789,57.9539326 50.6210526,58.4359551 50.7684211,58.6955056" id="Shape" fill="#E21B4D"></path>
                        <path d="M74.0526316,52.6516854 C74.2736842,52.9483146 74.4578947,53.2449438 74.6052632,53.6157303 C74.6421053,53.6898876 74.6052632,53.7640449 74.5684211,53.8382022 C74.5315789,53.9123596 74.4578947,53.9865169 74.3473684,53.9123596 C74.0894737,53.8382022 74.1263158,53.4303371 73.7947368,53.4674157 C73.5736842,53.4674157 73.4263158,53.652809 73.2421053,53.7640449 C72.9105263,54.0606742 72.4684211,54.3573034 72.3947368,54.8022472 C72.3210526,54.9505618 72.3578947,55.2101124 72.2105263,55.2842697 C72.1368421,55.3213483 72.0263158,55.247191 72.0263158,55.1730337 C71.9894737,54.5797753 72.1736842,54.0235955 72.5789474,53.6157303 C72.9842105,53.2820225 73.2789474,52.8 73.6105263,52.3921348 C73.8315789,52.3550562 73.9789474,52.5033708 74.0526316,52.6516854 M74.2,57.5831461 C74.2736842,57.7314607 74.4210526,57.9168539 74.3105263,58.1022472 C74.1631579,58.2134831 73.9052632,58.1393258 73.7210526,58.1393258 C73.5,58.0280899 73.4263158,57.7314607 73.4263158,57.4719101 C73.4263158,57.3977528 73.4263158,57.3606742 73.5,57.2865169 C73.7578947,57.2865169 74.0157895,57.3606742 74.2,57.5831461 M79.7263158,46.2370787 C79.8368421,46.3853933 79.7263158,46.5337079 79.6526316,46.6449438 C79.1368421,47.1269663 78.5105263,47.6460674 78.1421053,48.2393258 C77.9947368,48.4247191 77.8842105,48.647191 77.8105263,48.8696629 C77.8105263,48.9067416 77.7736842,48.9067416 77.7368421,48.9067416 C77.6263158,48.6101124 77.7736842,48.2764045 77.8473684,47.9797753 C78.1052632,47.2752809 78.6947368,46.6078652 79.3210526,46.1258427 C79.3947368,46.088764 79.6526316,46.0516854 79.7263158,46.2370787 M81.8263158,43.8640449 C82.2315789,44.1235955 82.3789474,44.6797753 82.8578947,44.7910112 C83.6684211,44.9764045 84.4789474,45.1617978 85.2157895,45.5325843 C85.7315789,45.7921348 86.2105263,46.1629213 86.6894737,46.5707865 C87.1315789,46.7932584 87.6842105,46.7932584 88.1631579,46.941573 C88.8631579,47.1269663 89.4157895,47.6460674 90.0421053,48.0539326 C90.8526316,48.6842697 91.9947368,48.6101124 92.9157895,49.0179775 C94.3894737,49.5 95.5684211,50.6494382 96.9315789,51.3168539 C97.6315789,51.6876404 98.7,51.8359551 99.4,51.4280899 C99.8789474,51.094382 100.173684,50.6494382 100.063158,50.0191011 C99.8052632,48.4988764 98.1473684,47.7202247 97.3736842,46.4595506 C97.2263158,46.1629213 97.1157895,45.7550562 97.1894737,45.4213483 C97.4842105,44.6797753 98.2578947,44.2719101 98.9210526,44.0123596 C99.4368421,43.752809 100.1,43.8269663 100.578947,43.5303371 C100.763158,43.4191011 100.910526,43.2707865 101.021053,43.1595506 C101.131579,43.1595506 101.131579,43.2707865 101.168421,43.3449438 C101.315789,44.2348315 101.168421,45.1617978 100.394737,45.6808989 C100.1,45.9033708 99.7315789,45.9775281 99.4,46.0516854 C99.1052632,46.1629213 98.5157895,45.9404494 98.5526316,46.4595506 C98.6263158,46.7191011 98.8473684,46.8674157 99.0315789,47.052809 C100.063158,47.905618 101.021053,49.0179775 101.131579,50.352809 C101.168421,51.3910112 100.468421,52.2808989 99.5842105,52.7258427 C98.9210526,52.9853933 98.1105263,53.0966292 97.4105263,52.911236 C97.2263158,52.8741573 96.9315789,52.688764 96.7842105,52.9483146 C96.7473684,53.2449438 96.9315789,53.4674157 96.9315789,53.7269663 C97.0052632,54.2089888 97.0052632,54.8393258 96.8578947,55.3213483 C96.7842105,55.6921348 96.4157895,56.1370787 96.7473684,56.5078652 C97.0789474,57.0269663 97.7421053,56.8786517 98.2947368,56.952809 C98.5894737,56.9898876 98.7,57.3235955 98.7736842,57.5460674 C98.8842105,57.8426966 98.8842105,58.1764045 98.9947368,58.3988764 C98.9947368,58.9550562 99.6210526,59.1775281 99.9157895,59.5483146 C100.284211,59.9561798 100.615789,60.6606742 101.242105,60.6235955 C101.463158,61.0685393 101.573684,61.4764045 101.647368,61.9955056 L101.573684,62.0696629 C101.057895,62.0696629 100.357895,62.2179775 99.9894737,61.847191 C99.5473684,61.5505618 99.4,60.7348315 98.7368421,60.9573034 C98.4421053,61.1797753 98.0368421,61.2539326 97.7052632,61.105618 C97.3736842,60.994382 97.1526316,60.6977528 96.8578947,60.5123596 C95.9736842,59.8449438 94.7947368,59.511236 93.6526316,59.7707865 C92.9894737,59.9561798 92.4736842,59.4741573 91.9578947,59.1775281 C91.2578947,58.8808989 91.0736842,58.1393258 90.9263158,57.5089888 L90.8157895,56.7303371 C90.8157895,56.6561798 90.8894737,56.5820225 90.9631579,56.5449438 L91.0736842,56.5449438 C91.4789474,57.4719101 92.2526316,58.5101124 93.2473684,58.8438202 C94.1684211,59.2146067 95.0157895,58.7325843 96.0105263,58.9179775 C96.9315789,59.0292135 97.6684211,59.6224719 98.3684211,60.1786517 C98.4421053,60.1786517 98.4789474,60.141573 98.5157895,60.0674157 L98.5157895,59.9932584 C97.6684211,58.9179775 96.4894737,58.3617978 95.1263158,58.4730337 C93.9842105,58.6955056 92.8789474,58.3247191 92.2157895,57.3606742 C91.8473684,56.8044944 91.5894737,56.211236 91.4789474,55.5808989 C91.3684211,54.8393258 91.2210526,54.0235955 90.9631579,53.3561798 C90.8894737,53.3191011 90.8157895,53.2449438 90.7421053,53.2820225 L90.6684211,53.3932584 C90.7789474,54.0977528 91,54.9505618 90.7421053,55.6921348 C90.5578947,56.2853933 89.9684211,56.5078652 89.4157895,56.5449438 C88.8631579,56.5820225 88.3473684,56.4707865 87.7578947,56.4707865 C86.4315789,56.4337079 85.2526316,56.952809 83.8894737,56.841573 C84,56.5078652 84.2210526,56.1741573 84.1105263,55.8033708 C84.0736842,55.7292135 83.9631579,55.7292135 83.8894737,55.7292135 C83.6315789,55.8775281 83.6684211,56.211236 83.5210526,56.4337079 C83.2263158,56.9157303 82.6736842,57.3606742 82.1210526,57.4719101 C81.7157895,57.7685393 81.3473684,58.1764045 81.0157895,58.547191 C80.9052632,58.658427 80.9052632,58.8808989 80.9421053,59.0292135 C81.2,59.6966292 81.9736842,59.7707865 82.5631579,59.9561798 C82.8578947,59.9932584 83.1157895,59.8820225 83.2631579,59.6224719 C83.5210526,59.2146067 83.5578947,58.547191 84.1473684,58.4730337 L85.4368421,58.4730337 C85.5473684,58.5101124 85.6210526,58.5842697 85.6947368,58.6955056 L85.6578947,58.8808989 C85.3631579,59.2146067 85.2526316,59.6966292 84.8842105,59.9191011 C84.6631579,59.9932584 84.4052632,59.9191011 84.2578947,60.1044944 C84.1842105,60.5494382 84.0736842,61.0314607 83.6315789,61.2539326 C83.3,61.5505618 82.8210526,61.4022472 82.4526316,61.2910112 C81.7526316,61.0314607 81.0526316,60.8831461 80.3526316,60.6606742 C80.0578947,60.5865169 79.9473684,60.2157303 79.6157895,60.141573 C79.3210526,60.0674157 78.9894737,60.2898876 78.7315789,60.0303371 C78.5842105,59.6966292 78.5105263,59.4741573 78.4368421,59.1033708 C78.3263158,58.8808989 78.2526316,58.6213483 78.2157895,58.3617978 C78.1789474,58.1393258 78.2157895,57.9910112 78.2894737,57.805618 L79.2473684,56.0629213 C79.3210526,55.9516854 79.3947368,55.8404494 79.5052632,55.8033708 C79.7263158,55.8404494 79.9842105,55.9516854 80.2052632,56.0629213 L80.1684211,56.1741573 L79.1736842,57.694382 C78.9526316,58.1764045 79.1736842,58.7325843 79.3947368,59.1404494 C79.4315789,59.1775281 79.4684211,59.2516854 79.5052632,59.2146067 C79.4684211,58.9179775 79.4315789,58.6213483 79.5052632,58.2876404 C79.5789474,57.9910112 79.7631579,57.7314607 79.9105263,57.4719101 L80.6842105,56.3224719 C80.7578947,56.1370787 80.7578947,55.8404494 80.6105263,55.6550562 C80.2789474,55.3213483 79.8,55.2101124 79.5052632,54.7651685 C78.8789474,53.9123596 78.8052632,52.911236 78.7315789,51.8359551 C78.7315789,51.7617978 78.6578947,51.6505618 78.5473684,51.6134831 C78.4736842,51.5764045 78.4,51.6876404 78.3631579,51.7247191 C78.1789474,52.4292135 78.2894737,53.2820225 78.4736842,53.9123596 C78.5842105,54.394382 78.8052632,54.8764045 79.0263158,55.3213483 C79.0631579,55.3955056 78.9894737,55.5067416 78.9157895,55.5438202 C78.4,55.5808989 77.8842105,55.5438202 77.4052632,55.4696629 C76.7421053,55.358427 76.2631579,54.8393258 75.7105263,54.4314607 C75.6368421,54.394382 75.6,54.4685393 75.5631579,54.505618 C75.7105263,55.247191 76.5210526,55.6921348 76.7789474,56.3595506 C76.9263158,56.9157303 77.4789474,57.3235955 77.5894737,57.9168539 C77.5894737,57.9910112 77.5157895,58.1022472 77.4421053,58.1393258 C77.2578947,58.1764045 77.0736842,58.0651685 76.8894737,58.1764045 C76.8526316,58.5101124 77.0736842,58.8438202 76.9263158,59.1404494 C76.7421053,59.4370787 76.4842105,59.7707865 76.1526316,59.7707865 C75.4894737,59.5483146 74.8263158,59.2516854 74.1631579,59.0662921 C73.6842105,59.0292135 73.2052632,59.1033708 72.7631579,59.1404494 C72.3210526,59.0662921 72.0263158,58.658427 71.6947368,58.4359551 C71.5842105,58.3988764 71.4736842,58.3988764 71.4,58.4730337 C70.6631579,59.2146067 69.8526316,60.0303371 68.7473684,59.9932584 C68.6736842,59.9932584 68.6368421,59.9191011 68.6368421,59.8449438 L68.6368421,59.7707865 C69.1157895,59.3258427 69.7052632,58.8808989 69.9263158,58.2505618 C70.0736842,57.7314607 70.5157895,57.3606742 70.7,56.8786517 C70.7368421,56.8044944 70.6631579,56.7674157 70.5894737,56.7303371 L70.4789474,56.8044944 C69.9263158,57.3606742 69.5210526,57.9910112 69.1157895,58.5842697 C68.7105263,58.9921348 68.1210526,59.2516854 67.4947368,59.1033708 C67.4210526,59.0662921 67.4210526,58.9550562 67.4578947,58.8808989 C69.7421053,57.4719101 70,54.9505618 70.6263158,52.6516854 C71.0684211,51.1314607 71.4,49.5741573 72.5789474,48.3505618 C74.3473684,46.3853933 76.5578947,45.2359551 78.5105263,43.5303371 C78.8052632,43.2707865 79.1,43.011236 79.4684211,43.011236 C80.4263158,42.9370787 81.1631579,43.3078652 81.8263158,43.8640449 M102.863158,60.252809 C103.047368,60.5123596 102.973684,60.9202247 103.047368,61.2168539 C103.084211,61.4393258 103.378947,61.6247191 103.231579,61.847191 L102.421053,62.1067416 C102.273684,62.1067416 102.347368,61.9213483 102.273684,61.847191 C102.2,61.3651685 102.089474,61.0314607 101.942105,60.5865169 C101.905263,60.3269663 102.163158,60.141573 102.347368,59.9932584 C102.531579,59.9191011 102.678947,60.141573 102.863158,60.252809 M100.984211,58.5842697 C101.278947,58.8438202 101.684211,59.0292135 101.905263,59.3629213 C101.942105,59.511236 101.831579,59.6595506 101.757895,59.7707865 C101.647368,59.8820225 101.5,59.9561798 101.315789,59.9561798 C101.131579,59.9561798 100.984211,59.8449438 100.873684,59.6966292 C100.689474,59.4 100.431579,59.1404494 100.357895,58.8438202 C100.468421,58.658427 100.726316,58.3617978 100.984211,58.5842697 M83.2263158,58.2876404 C83.1894737,58.658427 83.0789474,58.9921348 82.9315789,59.3258427 C82.8210526,59.5483146 82.4894737,59.4741573 82.2684211,59.4370787 C82.0473684,59.3629213 81.6789474,59.3258427 81.6421053,58.9921348 C81.6052632,58.6955056 81.7526316,58.3988764 81.9,58.1764045 C82.2315789,58.1393258 82.6368421,58.2134831 82.9684211,58.1393258 C83.1157895,58.1393258 83.2263158,58.1764045 83.2263158,58.2876404" id="Shape" fill="#E21B4D"></path>
                        <path d="M137.310526,0.370786517 C137.973684,0.370786517 138.526316,0.593258427 138.968421,1.0752809 C139.410526,1.52022472 139.668421,2.11348315 139.668421,2.74382022 C139.668421,3.41123596 139.447368,3.96741573 138.968421,4.41235955 C138.526316,4.89438202 137.936842,5.11685393 137.310526,5.11685393 C136.647368,5.11685393 136.094737,4.89438202 135.615789,4.41235955 C135.173684,3.96741573 134.915789,3.3741573 134.915789,2.74382022 C134.915789,2.07640449 135.136842,1.52022472 135.615789,1.0752809 C136.094737,0.630337079 136.647368,0.370786517 137.310526,0.370786517 L137.310526,0.370786517 Z M140.073684,2.74382022 C140.073684,2.00224719 139.815789,1.33483146 139.263158,0.778651685 C138.710526,0.259550562 138.084211,-0.0370786517 137.310526,-0.0370786517 C136.536842,-0.0370786517 135.910526,0.22247191 135.357895,0.778651685 C134.805263,1.33483146 134.547368,1.96516854 134.547368,2.74382022 C134.547368,3.52247191 134.805263,4.15280899 135.357895,4.70898876 C135.910526,5.26516854 136.536842,5.5247191 137.310526,5.5247191 C138.084211,5.5247191 138.710526,5.26516854 139.263158,4.70898876 C139.778947,4.18988764 140.073684,3.52247191 140.073684,2.74382022 L140.073684,2.74382022 Z M138.047368,2.1505618 C138.047368,2.37303371 137.936842,2.55842697 137.715789,2.63258427 C137.605263,2.66966292 137.421053,2.70674157 137.2,2.70674157 L136.721053,2.70674157 L136.721053,1.59438202 L137.163158,1.59438202 C137.457895,1.59438202 137.678947,1.63146067 137.826316,1.70561798 C137.973684,1.81685393 138.047368,1.92808989 138.047368,2.1505618 L138.047368,2.1505618 Z M136.205263,1.22359551 L136.205263,4.26404494 L136.721053,4.26404494 L136.721053,3.07752809 L137.126316,3.07752809 C137.421053,3.07752809 137.605263,3.11460674 137.715789,3.18876404 C137.9,3.3 138.010526,3.52247191 138.010526,3.89325843 L138.010526,4.11573034 L138.010526,4.18988764 L138.010526,4.22696629 L138.010526,4.26404494 L138.526316,4.26404494 L138.489474,4.22696629 C138.489474,4.18988764 138.452632,4.15280899 138.452632,4.07865169 L138.452632,3.85617978 L138.452632,3.63370787 C138.452632,3.48539326 138.378947,3.33707865 138.305263,3.15168539 C138.194737,3.00337079 138.010526,2.89213483 137.789474,2.85505618 C137.973684,2.81797753 138.121053,2.78089888 138.231579,2.70674157 C138.415789,2.59550562 138.526316,2.37303371 138.526316,2.11348315 C138.526316,1.74269663 138.378947,1.48314607 138.047368,1.33483146 C137.863158,1.26067416 137.605263,1.22359551 137.2,1.22359551 L136.205263,1.22359551 L136.205263,1.22359551 Z" id="Shape" fill="#E21B4D"></path>
                    </g>
                </g>
            </g>
        </g>
    </g>
</svg>