<?xml version="1.0" encoding="UTF-8" standalone="no"?>
<svg width="141px" height="32px" viewBox="0 0 141 32" version="1.1" xmlns="http://www.w3.org/2000/svg" xmlns:xlink="http://www.w3.org/1999/xlink" xmlns:sketch="http://www.bohemiancoding.com/sketch/ns">
    <!-- Generator: Sketch 3.1.1 (8761) - http://www.bohemiancoding.com/sketch -->
    <title>reuters_hover</title>
    <desc>Created with Sketch.</desc>
    <defs></defs>
    <g id="Clients" stroke="none" stroke-width="1" fill="none" fill-rule="evenodd" sketch:type="MSPage">
        <g sketch:type="MSArtboardGroup" transform="translate(-441.000000, -1365.000000)" id="Group">
            <g sketch:type="MSLayerGroup" transform="translate(235.000000, 972.000000)">
                <g id="Reuters" transform="translate(277.000000, 409.500000) scale(1, -1) translate(-277.000000, -409.500000) translate(207.000000, 394.000000)" sketch:type="MSShapeGroup">
                    <g id="reuters_hover">
                        <path d="M130.342221,12.1815275 C129.633579,12.1815275 128.536048,12.2340553 128.030458,12.3106942 C127.836014,12.3391108 127.727989,12.4174719 127.727989,12.6120831 L127.727989,18.9628119 C127.727989,19.0682119 127.810952,19.1563897 127.921569,19.1563897 L128.893757,19.1563897 C129.000053,19.1563897 129.066596,19.0685564 129.066596,18.9626397 L129.066596,16.5730219 C129.291288,16.5842164 130.089806,16.6160775 130.341322,16.6160775 L130.557372,16.6160775 L131.961658,18.9625708 C132.010053,19.0590153 132.051535,19.1568375 132.155238,19.1568375 L133.343544,19.1568375 C133.426507,19.1568375 133.454162,19.0941486 133.454162,19.0273264 C133.454162,19.0057986 133.452779,18.9920208 133.432591,18.9627431 L131.897777,16.3587431 C132.695465,16.0504653 133.215643,15.4907431 133.215643,14.4642986 L133.215643,14.3781875 C133.215643,12.7214097 131.842468,12.1823542 130.342221,12.1823542 L130.342221,12.1815275 Z M130.342221,13.3440275 C131.317036,13.3440275 131.876206,13.6505831 131.876206,14.3773608 L131.876206,14.4634719 C131.876206,15.3159719 131.347317,15.5182986 130.342221,15.5182986 C130.179752,15.5182986 129.225678,15.4847153 129.067495,15.4752431 L129.067495,13.3870831 C129.242927,13.3681386 130.1391,13.3440275 130.342221,13.3440275 L130.342221,13.3440275 Z" id="Shape" fill="#827F80" transform="translate(130.591075, 15.669183) scale(1, -1) translate(-130.591075, -15.669183) "></path>
                        <path d="M97.3091346,12.1813553 C96.5978654,12.1813553 95.5038605,12.2338831 94.9973716,12.3105219 C94.8011988,12.3389386 94.6949025,12.4172997 94.6949025,12.6119108 L94.6949025,18.9626397 C94.6949025,19.0685564 94.7830506,19.1563897 94.8893469,19.1563897 L95.8615346,19.1563897 C95.9686951,19.1563897 96.0343741,19.0685564 96.0343741,18.9626397 L96.0343741,16.5730219 C96.2582012,16.5842164 97.0549568,16.6160775 97.3091,16.6160775 L97.5251494,16.6160775 L98.9294358,18.9625708 C98.9778309,19.0590153 99.0193123,19.1568375 99.123016,19.1568375 L100.311322,19.1568375 C100.388236,19.1568375 100.419347,19.0939764 100.419347,19.0276708 C100.419347,19.0061431 100.417964,18.9923653 100.397777,18.9630875 L98.8629617,16.3590875 C99.6606506,16.0508097 100.180828,15.4910875 100.180828,14.4646431 L100.180828,14.3785319 C100.180828,12.7217542 98.8050259,12.1826986 97.3074062,12.1826986 L97.3091346,12.1813553 Z M97.3091346,13.3438553 C98.282221,13.3438553 98.8431198,13.6504108 98.8431198,14.3771886 L98.8431198,14.4632997 C98.8431198,15.3157997 98.3099099,15.5181264 97.3091346,15.5181264 C97.1414802,15.5181264 96.1891346,15.4845431 96.0344086,15.4750708 L96.0344086,13.3869108 C96.2081123,13.3679664 97.1042852,13.3438553 97.3091346,13.3438553 L97.3091346,13.3438553 Z" id="Shape" fill="#827F80" transform="translate(97.557125, 15.669096) scale(1, -1) translate(-97.557125, -15.669096) "></path>
                        <path d="M79.6587642,12.1172886 C78.0530852,12.1172886 76.5692235,13.0205597 76.5692235,15.1526708 L76.5692235,16.1429486 C76.5692235,18.2758864 78.053016,19.1568375 79.6587642,19.1568375 C81.2635444,19.1568375 82.7483049,18.2758864 82.7483049,16.1429486 L82.7483049,15.1526708 C82.7483049,13.0205597 81.2636136,12.1172886 79.6587642,12.1172886 L79.6587642,12.1172886 Z M79.6587642,13.3013508 C80.6120086,13.3013508 81.3871593,13.8731286 81.3871593,15.1527397 L81.3871593,16.1430175 C81.3871593,17.4226286 80.6120086,17.9944064 79.6587642,17.9944064 C78.7046901,17.9944064 77.9303691,17.4226286 77.9303691,16.1430175 L77.9303691,15.1527397 C77.9303691,13.8731286 78.7046901,13.3013508 79.6587642,13.3013508 L79.6587642,13.3013508 Z" id="Shape" fill="#827F80" transform="translate(79.658764, 15.637063) scale(1, -1) translate(-79.658764, -15.637063) "></path>
                        <path d="M56.9718506,12.1172886 C55.3670704,12.1172886 53.8823099,13.0205597 53.8823099,15.1526708 L53.8823099,16.1429486 C53.8823099,18.2758864 55.3670012,19.1568375 56.9718506,19.1568375 C58.5784284,19.1568375 60.0613914,18.2758864 60.0613914,16.1429486 L60.0613914,15.1526708 C60.0613914,13.0205597 58.5784284,12.1172886 56.9718506,12.1172886 L56.9718506,12.1172886 Z M56.9718506,13.3013508 C57.9259247,13.3013508 58.7002457,13.8731286 58.7002457,15.1527397 L58.7002457,16.1430175 C58.7002457,17.4226286 57.9259247,17.9944064 56.9718506,17.9944064 C56.0186062,17.9944064 55.2434556,17.4226286 55.2434556,16.1430175 L55.2434556,15.1527397 C55.2434556,13.8731286 56.0186062,13.3013508 56.9718506,13.3013508 L56.9718506,13.3013508 Z" id="Shape" fill="#827F80" transform="translate(56.971851, 15.637063) scale(1, -1) translate(-56.971851, -15.637063) "></path>
                        <path d="M122.655556,14.0963889 C122.655556,13.2835 122.685802,13.2619722 123.422963,13.2619722 L125.887654,13.2619722 C125.992222,13.2619722 126.081235,13.175 126.081235,13.0682222 L126.081235,12.4490833 C126.081235,12.3121667 126.031975,12.2639444 125.887654,12.245 C125.574815,12.1959167 124.942222,12.1089444 123.785062,12.1089444 C122.16642,12.1089444 121.311728,12.0986111 121.311728,14.0963889 L121.311728,17.1645278 C121.311728,19.1614444 122.16642,19.15025 123.785062,19.15025 C124.942222,19.15025 125.574815,19.0632778 125.887654,19.0150556 C126.031975,18.9969722 126.081235,18.9470278 126.081235,18.8109722 L126.081235,18.1918333 C126.081235,18.0859167 125.992222,17.9972222 125.887654,17.9972222 L123.422963,17.9972222 C122.685802,17.9972222 122.655556,17.9748333 122.655556,17.1645278 L122.655556,16.275 L125.770123,16.275 C125.877284,16.275 125.96284,16.1871667 125.96284,16.0821111 L125.96284,15.3820278 C125.96284,15.2761111 125.877284,15.1891389 125.770123,15.1891389 L122.655556,15.1891389 L122.655556,14.0963889 L122.655556,14.0963889 Z" id="Shape" fill="#827F80"></path>
                        <path d="M137.044444,12.1072222 C136.184568,12.1072222 135.312593,12.2544722 134.845062,12.3621111 C134.749136,12.3810556 134.660123,12.4482222 134.660123,12.555 L134.660123,13.2533611 C134.660123,13.3592778 134.749136,13.4376389 134.845062,13.4376389 L134.864938,13.4376389 C135.254691,13.3894167 136.164691,13.2628333 137.064321,13.2628333 C137.929383,13.2628333 138.194691,13.5719722 138.194691,14.1334167 C138.194691,14.8610556 136.452469,15.2631944 135.602099,15.6128056 C134.756049,15.9615556 134.456173,16.6297778 134.456173,17.3074722 C134.456173,18.3743889 135.317778,19.15025 137.127407,19.15025 C138.054691,19.15025 138.903333,18.9745833 139.234321,18.8953611 C139.331975,18.8764167 139.408889,18.8083889 139.408889,18.7119444 L139.408889,17.9937778 C139.408889,17.8981944 139.342346,17.8198333 139.243827,17.8198333 L139.224815,17.8198333 C138.581852,17.8775278 137.91642,17.9955 137.07037,17.9955 C136.348765,17.9955 135.809506,17.7431944 135.809506,17.3074722 C135.809506,16.988 136.175062,16.6952222 136.608025,16.5238611 C137.040123,16.3550833 137.605309,16.1346389 138.252593,15.8754444 C139.072716,15.5447778 139.604198,15.0642778 139.604198,14.1334167 C139.604198,13.1551944 138.991481,12.1072222 137.044444,12.1072222" id="Shape" fill="#827F80"></path>
                        <path d="M120.123457,17.9455556 L118.182469,17.9455556 L118.182469,12.3758889 C118.182469,12.2699722 118.093457,12.1821389 117.985432,12.1821389 L117.022716,12.1821389 C116.91642,12.1821389 116.828272,12.2699722 116.828272,12.3758889 L116.828272,17.9455556 L114.885556,17.9455556 C114.780123,17.9455556 114.691975,18.0118611 114.691975,18.1186389 L114.691975,18.8850278 C114.691975,18.9926667 114.780123,19.0693056 114.885556,19.0693056 L120.123457,19.0693056 C120.228889,19.0693056 120.317037,18.9926667 120.317037,18.8850278 L120.317037,18.1186389 C120.317037,18.0118611 120.228889,17.9455556 120.123457,17.9455556" id="Shape" fill="#827F80"></path>
                        <path d="M110.807407,12.1072222 C109.241481,12.1072222 107.893333,12.7857778 107.893333,14.8524444 L107.893333,18.8876111 C107.893333,18.99525 107.982346,19.0718889 108.088642,19.0718889 L109.050494,19.0718889 C109.158519,19.0718889 109.244938,18.99525 109.244938,18.8876111 L109.244938,14.8524444 C109.244938,13.7467778 109.758272,13.2223611 110.807407,13.2223611 C111.859136,13.2223611 112.370741,13.7467778 112.370741,14.8524444 L112.370741,18.8876111 C112.370741,18.99525 112.458025,19.0718889 112.565185,19.0718889 L113.527901,19.0718889 C113.635926,19.0718889 113.724074,18.99525 113.724074,18.8876111 L113.724074,14.8524444 C113.724074,12.7857778 112.375062,12.1072222 110.807407,12.1072222" id="Shape" fill="#827F80"></path>
                        <path d="M103.012346,14.0963889 C103.012346,13.2835 103.043457,13.2619722 103.778889,13.2619722 L106.242716,13.2619722 C106.349877,13.2619722 106.43716,13.175 106.43716,13.0682222 L106.43716,12.4490833 C106.43716,12.3121667 106.387901,12.2639444 106.242716,12.245 C105.930741,12.1959167 105.297284,12.1089444 104.140123,12.1089444 C102.524938,12.1089444 101.668519,12.0986111 101.668519,14.0963889 L101.668519,17.1645278 C101.668519,19.1614444 102.524938,19.15025 104.140123,19.15025 C105.297284,19.15025 105.930741,19.0632778 106.242716,19.0150556 C106.387901,18.9969722 106.43716,18.9470278 106.43716,18.8109722 L106.43716,18.1918333 C106.43716,18.0859167 106.349877,17.9972222 106.242716,17.9972222 L103.778889,17.9972222 C103.043457,17.9972222 103.012346,17.9748333 103.012346,17.1645278 L103.012346,16.275 L106.126049,16.275 C106.23321,16.275 106.320494,16.1871667 106.320494,16.0821111 L106.320494,15.3820278 C106.320494,15.2761111 106.23321,15.1891389 106.126049,15.1891389 L103.012346,15.1891389 L103.012346,14.0963889 L103.012346,14.0963889 Z" id="Shape" fill="#827F80"></path>
                        <path d="M72.782716,12.1072222 C71.9237037,12.1072222 71.0508642,12.2544722 70.5833333,12.3621111 C70.485679,12.3810556 70.3983951,12.4482222 70.3983951,12.555 L70.3983951,13.2533611 C70.3983951,13.3592778 70.485679,13.4376389 70.5833333,13.4376389 L70.6023457,13.4376389 C70.9912346,13.3894167 71.9020988,13.2628333 72.8017284,13.2628333 C73.6685185,13.2628333 73.9312346,13.5719722 73.9312346,14.1334167 C73.9312346,14.8610556 72.1916049,15.2631944 71.3420988,15.6128056 C70.4934568,15.9615556 70.1944444,16.6297778 70.1944444,17.3074722 C70.1944444,18.3743889 71.0569136,19.15025 72.865679,19.15025 C73.7938272,19.15025 74.6424691,18.9745833 74.9725926,18.8953611 C75.0702469,18.8764167 75.1471605,18.8083889 75.1471605,18.7119444 L75.1471605,17.9937778 C75.1471605,17.8981944 75.0797531,17.8198333 74.982963,17.8198333 L74.9630864,17.8198333 C74.3201235,17.8775278 73.6538272,17.9955 72.8069136,17.9955 C72.0887654,17.9955 71.5469136,17.7431944 71.5469136,17.3074722 C71.5469136,16.988 71.9133333,16.6943611 72.3437037,16.5238611 C72.7758025,16.3550833 73.3435802,16.1346389 73.99,15.8754444 C74.8118519,15.5447778 75.3433333,15.0642778 75.3433333,14.1334167 C75.3433333,13.1551944 74.7306173,12.1072222 72.782716,12.1072222" id="Shape" fill="#827F80"></path>
                        <path d="M89.8246914,12.1847222 L88.8403704,12.1847222 C88.6061728,12.1847222 88.401358,12.1847222 88.2483951,12.5326111 L85.6091358,16.9389167 C85.5806173,16.9966111 85.5503704,17.0172778 85.5218519,17.0172778 C85.4941975,17.0172778 85.4725926,16.9966111 85.4725926,16.9389167 L85.4725926,12.3784722 C85.4725926,12.2725556 85.3948148,12.1847222 85.2876543,12.1847222 L84.4623457,12.1847222 C84.3534568,12.1847222 84.2679012,12.2725556 84.2679012,12.3784722 L84.2679012,18.6843889 C84.2679012,18.8979444 84.4407407,19.0718889 84.6559259,19.0718889 L85.7067901,19.0718889 C85.9116049,19.0718889 86.017037,19.0133333 86.1354321,18.7601667 L88.8801235,14.0946667 C88.8982716,14.0473056 88.9276543,14.0171667 88.9579012,14.0171667 C88.9769136,14.0171667 89.0045679,14.0473056 89.0045679,14.105 L89.0045679,18.8876111 C89.0045679,18.99525 89.0823457,19.0718889 89.1903704,19.0718889 L90.0277778,19.0718889 C90.1349383,19.0718889 90.2135802,18.99525 90.2135802,18.8876111 L90.2135802,12.5722222 C90.2135802,12.3586667 90.0381481,12.1847222 89.8246914,12.1847222" id="Shape" fill="#827F80"></path>
                        <path d="M68.4444444,12.1847222 L67.4609877,12.1847222 C67.3745679,12.1847222 67.3071605,12.2828889 67.3071605,12.3784722 L67.3071605,16.5703611 C67.3071605,16.6383889 67.2967901,16.6668056 67.2751852,16.6668056 C67.2682716,16.6668056 67.2483951,16.6383889 67.2276543,16.6091111 L65.6565432,13.1431389 C65.598642,13.0372222 65.4733333,12.9778056 65.3471605,12.9778056 L64.8407407,12.9778056 C64.7145679,12.9778056 64.5875309,13.0372222 64.5304938,13.1431389 L62.9490123,16.6091111 C62.9291358,16.6383889 62.9083951,16.6668056 62.9006173,16.6668056 C62.8807407,16.6668056 62.8703704,16.6383889 62.8703704,16.5703611 L62.8703704,12.3784722 C62.8703704,12.2828889 62.8020988,12.1847222 62.7148148,12.1847222 L61.7330864,12.1847222 C61.6449383,12.1847222 61.5662963,12.2338056 61.5662963,12.33025 L61.5662963,18.6843889 C61.5662963,18.8979444 61.7417284,19.0718889 61.9560494,19.0718889 L62.7537037,19.0718889 C62.9083951,19.0718889 63.0458025,18.9754444 63.1140741,18.8393889 L64.9807407,15.0513611 C65.0291358,14.9643889 65.0490123,14.9161667 65.0896296,14.9161667 C65.1276543,14.9161667 65.1475309,14.9643889 65.1967901,15.0513611 L67.0625926,18.8393889 C67.1308642,18.9754444 67.2682716,19.0718889 67.422963,19.0718889 L68.2214815,19.0718889 C68.4349383,19.0718889 68.6103704,18.8979444 68.6103704,18.6843889 L68.6103704,12.33025 C68.6103704,12.2338056 68.5317284,12.1847222 68.4444444,12.1847222" id="Shape" fill="#827F80"></path>
                        <path d="M52.145679,12.1847222 L51.1838272,12.1847222 C51.0749383,12.1847222 50.9867901,12.2725556 50.9867901,12.3784722 L50.9867901,15.1874167 L47.9050617,15.1874167 L47.9050617,12.3784722 C47.9050617,12.2725556 47.8177778,12.1847222 47.7123457,12.1847222 L46.7479012,12.1847222 C46.6398765,12.1847222 46.5525926,12.2725556 46.5525926,12.3784722 L46.5525926,18.8876111 C46.5525926,18.99525 46.6398765,19.0718889 46.7479012,19.0718889 L47.7123457,19.0718889 C47.8177778,19.0718889 47.9050617,18.99525 47.9050617,18.8876111 L47.9050617,16.3697222 L50.9867901,16.3697222 L50.9867901,18.8876111 C50.9867901,18.99525 51.0749383,19.0718889 51.1838272,19.0718889 L52.145679,19.0718889 C52.2519753,19.0718889 52.3401235,18.99525 52.3401235,18.8876111 L52.3401235,12.3784722 C52.3401235,12.2725556 52.2519753,12.1847222 52.145679,12.1847222" id="Shape" fill="#827F80"></path>
                        <path d="M45.1283951,17.9455556 L43.1874074,17.9455556 L43.1874074,12.3758889 C43.1874074,12.2699722 43.1001235,12.1821389 42.9912346,12.1821389 L42.0302469,12.1821389 C41.9230864,12.1821389 41.8358025,12.2699722 41.8358025,12.3758889 L41.8358025,17.9455556 L39.8922222,17.9455556 C39.7850617,17.9455556 39.6969136,18.0118611 39.6969136,18.1186389 L39.6969136,18.8850278 C39.6969136,18.9926667 39.7850617,19.0693056 39.8922222,19.0693056 L45.1283951,19.0693056 C45.2355556,19.0693056 45.3237037,18.9926667 45.3237037,18.8850278 L45.3237037,18.1186389 C45.3237037,18.0118611 45.2355556,17.9455556 45.1283951,17.9455556" id="Shape" fill="#827F80"></path>
                        <path d="M9.46296296,25.0583333 C9.26938272,25.3020278 8.91851852,25.3399167 8.67395062,25.1496111 C8.43283951,24.9575833 8.38962963,24.6088333 8.58148148,24.3651389 C8.77506173,24.1223056 9.12765432,24.0818333 9.36962963,24.2721389 C9.61246914,24.4658889 9.65567901,24.8155 9.46296296,25.0583333 M15.1035802,27.1663333 C15.058642,27.4728889 14.7734568,27.683 14.4658025,27.6373611 C14.1598765,27.5925833 13.947284,27.311 13.9922222,27.0044444 C14.0371605,26.6978889 14.3223457,26.4886389 14.6291358,26.5325556 C14.9350617,26.5781944 15.1485185,26.8597778 15.1035802,27.1663333 M17.832716,4.71888889 C17.5276543,4.67411111 17.3150617,4.38994444 17.36,4.08425 C17.4049383,3.77769444 17.6909877,3.56758333 17.9960494,3.61322222 C18.3028395,3.658 18.5162963,3.94044444 18.4704938,4.247 C18.427284,4.55269444 18.1412346,4.76366667 17.832716,4.71888889 M23.091358,6.97758333 C22.8502469,6.78555556 22.807037,6.43508333 22.9997531,6.19311111 C23.1916049,5.95027778 23.5450617,5.91152778 23.787037,6.10183333 C24.0307407,6.29386111 24.0722222,6.64347222 23.8803704,6.88716667 C23.6885185,7.12827778 23.3359259,7.16961111 23.091358,6.97758333 M5.98802469,8.02813889 C6.21962963,7.40555556 6.90753086,7.09555556 7.5237037,7.32461111 C8.14506173,7.55280556 8.46222222,8.23394444 8.23148148,8.85566667 C8.00246914,9.47136111 7.3145679,9.78738889 6.69580247,9.55747222 C6.07703704,9.32927778 5.75901235,8.64211111 5.98802469,8.02813889 M8.25481481,6.014 C8.4337037,5.4405 9.03950617,5.12705556 9.61074074,5.30616667 C10.1828395,5.48183333 10.5034568,6.08547222 10.3245679,6.65725 C10.1465432,7.22644444 9.53641975,7.54419444 8.96518519,7.36680556 C8.39395062,7.19027778 8.07592593,6.58405556 8.25481481,6.014 M11.0971605,4.64741667 C11.2155556,4.18155556 11.6891358,3.90427778 12.1540741,4.02225 C12.6198765,4.14108333 12.9016049,4.60952778 12.7823457,5.07538889 C12.6639506,5.53952778 12.1895062,5.81938889 11.7237037,5.70055556 C11.2596296,5.58172222 10.9787654,5.11155556 11.0971605,4.64741667 M14.1762963,3.97833333 C14.2540741,3.58911111 14.6334568,3.33852778 15.0223457,3.41602778 C15.4095062,3.49438889 15.662716,3.87069444 15.5840741,4.25991667 C15.5071605,4.64569444 15.1277778,4.89713889 14.7388889,4.8205 C14.3508642,4.743 14.0985185,4.36411111 14.1762963,3.97833333 M5.25777778,12.8796389 C5.84975309,13.1715556 6.0917284,13.8862778 5.79790123,14.4761389 C5.50320988,15.0694444 4.78851852,15.3071111 4.19481481,15.0143333 C3.6062963,14.7241389 3.3591358,14.012 3.65382716,13.4186944 C3.94765432,12.8279722 4.66666667,12.5885833 5.25777778,12.8796389 M5.2162963,16.0295833 C5.7382716,16.3206389 5.92407407,16.9811111 5.63111111,17.5003611 C5.33728395,18.0221944 4.67617284,18.2056111 4.15419753,17.9119722 C3.63135802,17.6209167 3.44641975,16.9638889 3.74024691,16.4420556 C4.03320988,15.9228056 4.69345679,15.7368056 5.2162963,16.0295833 M5.89382716,19.1709167 C6.3008642,19.4258056 6.42098765,19.9631389 6.16345679,20.3687222 C5.90592593,20.7743056 5.36925926,20.8914167 4.96308642,20.6356667 C4.55864198,20.3790556 4.43592593,19.8468889 4.69432099,19.4404444 C4.95098765,19.0357222 5.48851852,18.9151667 5.89382716,19.1709167 M7.32061728,21.9609167 C7.64382716,22.1899722 7.72074074,22.6360278 7.4917284,22.9572222 C7.26012346,23.2827222 6.81506173,23.3559167 6.49185185,23.1277222 C6.16777778,22.8986667 6.0882716,22.4551944 6.31987654,22.1296944 C6.54975309,21.8085 6.99740741,21.7327222 7.32061728,21.9609167 M6.07271605,9.84852778 C6.73123457,10.1318333 7.0345679,10.8947778 6.75024691,11.5526667 C6.46506173,12.2122778 5.70111111,12.5119444 5.04345679,12.2295 C4.38407407,11.9461944 4.07641975,11.1866944 4.36246914,10.5262222 C4.64679012,9.86833333 5.41506173,9.56522222 6.07271605,9.84852778 M20.6275309,5.46805556 C20.3630864,5.35438889 20.2403704,5.04869444 20.3544444,4.78519444 C20.4702469,4.51825 20.7761728,4.39855556 21.0406173,4.51222222 C21.3059259,4.62588889 21.4295062,4.93158333 21.3154321,5.19680556 C21.2004938,5.46030556 20.8928395,5.58172222 20.6275309,5.46805556 M27.2032099,18.3709444 C26.6138272,18.0798889 26.3709877,17.3651667 26.6630864,16.7761667 C26.958642,16.182 27.6741975,15.9451944 28.2661728,16.2379722 C28.8564198,16.5273056 29.1009877,17.2394444 28.8062963,17.83275 C28.5133333,18.4208889 27.794321,18.6628611 27.2032099,18.3709444 M27.2446914,15.2218611 C26.7244444,14.9308056 26.5360494,14.2711944 26.8298765,13.7493611 C27.1254321,13.2283889 27.785679,13.0466944 28.3059259,13.3394722 C28.8287654,13.6313889 29.0145679,14.2866944 28.7207407,14.8085278 C28.4269136,15.3295 27.7675309,15.5146389 27.2446914,15.2218611 M26.5688889,12.0813889 C26.1635802,11.8247778 26.0417284,11.2891667 26.2983951,10.8853056 C26.5567901,10.4797222 27.0934568,10.3608889 27.4987654,10.6166389 C27.9040741,10.8723889 28.0267901,11.4054167 27.7683951,11.8127222 C27.5108642,12.2157222 26.9733333,12.3362778 26.5688889,12.0813889 M25.1412346,9.29052778 C24.8171605,9.06147222 24.7411111,8.61541667 24.9701235,8.29336111 C25.2,7.96958333 25.6476543,7.89466667 25.9725926,8.12286111 C26.2958025,8.35019444 26.3718519,8.79538889 26.1411111,9.12088889 C25.912963,9.44208333 25.4653086,9.51958333 25.1412346,9.29052778 M12.1091358,26.46625 C11.9941975,26.7323333 11.6865432,26.8520278 11.4212346,26.7375 C11.1567901,26.6246944 11.0332099,26.319 11.1481481,26.0529167 C11.2622222,25.7902778 11.5707407,25.6697222 11.8351852,25.7825278 C12.0996296,25.8970556 12.2232099,26.2036111 12.1091358,26.46625 M26.472963,23.2250278 C26.2430864,23.8458889 25.554321,24.15675 24.937284,23.9276944 C24.3176543,23.7003611 23.9996296,23.0175 24.2303704,22.3983611 C24.4602469,21.7800833 25.1481481,21.4649167 25.7651852,21.6931111 C26.3848148,21.9204444 26.7028395,22.6076111 26.472963,23.2250278 M24.207037,25.2374444 C24.0281481,25.8092222 23.4206173,26.12525 22.8502469,25.9461389 C22.2798765,25.7696111 21.9575309,25.1651111 22.137284,24.5933333 C22.3153086,24.0241389 22.9254321,23.7063889 23.4949383,23.8846389 C24.067037,24.0620278 24.3850617,24.6691111 24.207037,25.2374444 M21.3664198,26.6031667 C21.2462963,27.0698889 20.7718519,27.3471667 20.308642,27.2283333 C19.8437037,27.1103611 19.5611111,26.6410556 19.6812346,26.1743333 C19.7996296,25.7110556 20.2749383,25.4294722 20.7390123,25.5500278 C21.2030864,25.668 21.4848148,26.14075 21.3664198,26.6031667 M18.2846914,27.2713889 C18.2069136,27.6623333 17.8292593,27.9103333 17.4412346,27.8328333 C17.0514815,27.7553333 16.7982716,27.3816111 16.8777778,26.9915278 C16.9546914,26.6048889 17.3332099,26.3525833 17.722963,26.4309444 C18.1109877,26.5093056 18.3624691,26.8856111 18.2846914,27.2713889 M27.4192593,19.0210833 C26.7598765,18.7377778 25.9941975,19.04175 25.7090123,19.6996389 C25.4238272,20.3601111 25.7297531,21.11875 26.39,21.4029167 C27.0485185,21.6853611 27.8124691,21.3856944 28.0985185,20.7252222 C28.3837037,20.0690556 28.078642,19.30525 27.4192593,19.0210833 M13.072716,30.1406111 C12.9698765,30.5238056 12.5758025,30.7476944 12.1912346,30.6452222 C11.8092593,30.54275 11.5793827,30.1526667 11.6830864,29.7703333 C11.7859259,29.3862778 12.1817284,29.1615278 12.5628395,29.2631389 C12.9474074,29.3656111 13.1755556,29.7574167 13.072716,30.1406111 M20.7796296,29.7686111 C20.8824691,30.1518056 20.6525926,30.54275 20.2688889,30.6452222 C19.8869136,30.7468333 19.4928395,30.5238056 19.39,30.13975 C19.2871605,29.7565556 19.5153086,29.36475 19.8981481,29.2631389 C20.2818519,29.1606667 20.6767901,29.3862778 20.7796296,29.7686111 M12.5628395,1.98916667 C12.1817284,2.09077778 11.7867901,1.86430556 11.6830864,1.48197222 C11.5811111,1.09963889 11.8092593,0.708694444 12.1912346,0.607083333 C12.5758025,0.504611111 12.9707407,0.729361111 13.072716,1.11255556 C13.1755556,1.49402778 12.9474074,1.88669444 12.5628395,1.98916667 M19.897284,1.98916667 C19.5153086,1.88669444 19.2871605,1.49402778 19.3891358,1.11169444 C19.4919753,0.729361111 19.8877778,0.504611111 20.2688889,0.607083333 C20.6534568,0.708694444 20.8816049,1.09963889 20.7787654,1.48283333 C20.6767901,1.86430556 20.2809877,2.09077778 19.897284,1.98916667 M0.317160494,11.8661111 C0.27308642,11.0196389 0.924691358,10.3075 1.76555556,10.2635833 C2.61246914,10.2196667 3.33234568,10.8594722 3.37728395,11.7068056 C3.42135802,12.54725 2.77234568,13.2654167 1.92888889,13.3093333 C1.0845679,13.35325 0.361234568,12.7065556 0.317160494,11.8661111 M1.95740741,8.35363889 C1.87703704,7.58983333 2.42925926,6.91386111 3.19320988,6.83291667 C3.9545679,6.75369444 4.63901235,7.3005 4.71938272,8.06430556 C4.79975309,8.82380556 4.24493827,9.50580556 3.48271605,9.58502778 C2.71962963,9.66511111 2.03777778,9.11313889 1.95740741,8.35363889 M4.60530864,5.31047222 C4.50851852,4.70166667 4.92333333,4.13677778 5.53,4.04033333 C6.13753086,3.94475 6.70876543,4.35463889 6.80555556,4.96258333 C6.90148148,5.56794444 6.48666667,6.13627778 5.8782716,6.23186111 C5.27160494,6.32744444 4.70123457,5.91497222 4.60530864,5.31047222 M7.88666667,2.96738889 C7.77950617,2.46966667 8.09839506,1.984 8.59358025,1.87894444 C9.09049383,1.77388889 9.57876543,2.08819444 9.68506173,2.58591667 C9.79049383,3.07933333 9.47333333,3.56758333 8.97641975,3.67263889 C8.48037037,3.77769444 7.99123457,3.46080556 7.88666667,2.96738889 M1.92802469,17.9429722 C2.77234568,17.9868889 3.42049383,18.7050556 3.37728395,19.5472222 C3.33234568,20.3936944 2.61246914,21.0343611 1.76469136,20.9895833 C0.924691358,20.9456667 0.272222222,20.2335278 0.317160494,19.3870556 C0.361234568,18.54575 1.0845679,17.8990556 1.92802469,17.9429722 M3.48271605,21.6672778 C4.24493827,21.7473611 4.79975309,22.4285 4.71938272,23.188 C4.63901235,23.9509444 3.9545679,24.5003333 3.19320988,24.42025 C2.42839506,24.3401667 1.87617284,23.6616111 1.95740741,22.8986667 C2.03691358,22.1391667 2.71876543,21.5871944 3.48271605,21.6672778 M5.8782716,25.0187222 C6.48666667,25.1143056 6.90148148,25.6843611 6.80469136,26.2905833 C6.70876543,26.8985278 6.13753086,27.3075556 5.5291358,27.2119722 C4.92246914,27.1163889 4.50765432,26.5515 4.60444444,25.9426944 C4.70037037,25.3373333 5.27074074,24.9222778 5.8782716,25.0187222 M8.97641975,27.5796667 C9.47333333,27.6855833 9.79049383,28.17125 9.68506173,28.66725 C9.57876543,29.1641111 9.09135802,29.4758333 8.59444444,29.3707778 C8.09839506,29.2657222 7.77950617,28.7826389 7.88580247,28.2849167 C7.99123457,27.7906389 8.48037037,27.4746111 8.97641975,27.5796667 M1.34382716,13.9655 C2.26160494,13.9655 3.00740741,14.7095 3.00740741,15.6274444 C3.00740741,16.5488333 2.26160494,17.2859444 1.34382716,17.2859444 C0.426049383,17.2859444 -0.323209877,16.5488333 -0.323209877,15.6257222 C-0.323209877,14.7095 0.426049383,13.9655 1.34382716,13.9655 M16.2304938,1.45872222 C15.8623457,1.45872222 15.5616049,1.16077778 15.5616049,0.791361111 C15.5616049,0.421944444 15.8623457,0.125722222 16.2304938,0.125722222 C16.6003704,0.125722222 16.9011111,0.421944444 16.9011111,0.792222222 C16.9011111,1.16077778 16.6003704,1.45872222 16.2304938,1.45872222 M30.5320988,13.3093333 C29.6912346,13.2654167 29.041358,12.54725 29.0854321,11.7068056 C29.1303704,10.8594722 29.8502469,10.2196667 30.6954321,10.2635833 C31.5371605,10.3075 32.1879012,11.0196389 32.142963,11.8661111 C32.0997531,12.7065556 31.377284,13.35325 30.5320988,13.3093333 M28.9774074,9.58502778 C28.2169136,9.50580556 27.6612346,8.82380556 27.7407407,8.06430556 C27.8219753,7.3005 28.507284,6.75369444 29.2677778,6.83291667 C30.0308642,6.91386111 30.5839506,7.58983333 30.5035802,8.35363889 C30.4232099,9.114 29.7404938,9.66511111 28.9774074,9.58502778 M26.5844444,6.23272222 C25.9760494,6.13627778 25.5603704,5.56794444 25.6580247,4.96258333 C25.7539506,4.35463889 26.3251852,3.94475 26.932716,4.04033333 C27.5385185,4.13677778 27.9541975,4.70166667 27.8582716,5.31047222 C27.7614815,5.91583333 27.1902469,6.32744444 26.5844444,6.23272222 M23.4854321,3.67263889 C22.9876543,3.56758333 22.6704938,3.07933333 22.7759259,2.58591667 C22.8822222,2.08819444 23.3704938,1.77388889 23.8674074,1.87980556 C24.3634568,1.984 24.6814815,2.46966667 24.5751852,2.96825 C24.4697531,3.46080556 23.9814815,3.77769444 23.4854321,3.67263889 M16.9011111,30.4600833 C16.9011111,30.8303611 16.6003704,31.1257222 16.2304938,31.1257222 C15.8623457,31.1257222 15.5616049,30.8303611 15.5616049,30.4600833 C15.5616049,30.0906667 15.8623457,29.7935833 16.2304938,29.7935833 C16.6003704,29.7935833 16.9011111,30.0906667 16.9011111,30.4600833 M32.1438272,19.3870556 C32.1887654,20.2335278 31.5371605,20.9456667 30.6954321,20.9895833 C29.8511111,21.0343611 29.1303704,20.3936944 29.0854321,19.5472222 C29.041358,18.7050556 29.6912346,17.9868889 30.5320988,17.9429722 C31.377284,17.8990556 32.0997531,18.54575 32.1438272,19.3870556 M30.5035802,22.8986667 C30.5839506,23.6616111 30.0308642,24.3401667 29.2677778,24.42025 C28.5081481,24.4994722 27.8219753,23.9509444 27.7407407,23.188 C27.6612346,22.4285 28.2177778,21.7465 28.9774074,21.6672778 C29.741358,21.5871944 30.4232099,22.1391667 30.5035802,22.8986667 M27.8582716,25.9418333 C27.9550617,26.5506389 27.5385185,27.1155278 26.9335802,27.2119722 C26.3251852,27.3066944 25.7548148,26.8976667 25.6580247,26.2888611 C25.5612346,25.6835 25.9760494,25.1134444 26.5844444,25.0178611 C27.1902469,24.9222778 27.7623457,25.3364722 27.8582716,25.9418333 M24.5751852,28.2849167 C24.6823457,28.7826389 24.3634568,29.2657222 23.8674074,29.3699167 C23.3696296,29.4758333 22.8822222,29.1641111 22.7767901,28.66725 C22.671358,28.17125 22.9876543,27.6855833 23.4854321,27.5796667 C23.9814815,27.4746111 24.4697531,27.7906389 24.5751852,28.2849167 M31.1162963,13.9655 C30.1967901,13.9655 29.4518519,14.7095 29.4518519,15.6274444 C29.4518519,16.5488333 30.1967901,17.2859444 31.1188889,17.2859444 C32.0375309,17.2859444 32.7841975,16.5488333 32.7841975,15.6257222 C32.7841975,14.7095 32.0375309,13.9655 31.1162963,13.9655 M19.9992593,11.8127222 C20.2775309,11.9565278 20.3803704,12.3087222 20.2291358,12.5842778 C20.0761728,12.8606944 19.7304938,12.9674722 19.4539506,12.8150556 C19.1739506,12.6643611 19.0728395,12.3173333 19.2223457,12.0409167 C19.3692593,11.7636389 19.7183951,11.6594444 19.9992593,11.8127222 M20.8202469,13.1026667 C21.0734568,13.2387222 21.1616049,13.5435556 21.0328395,13.7924167 C20.8980247,14.0378333 20.5903704,14.1325556 20.3406173,13.9982222 C20.0917284,13.8673333 20.0009877,13.5530278 20.1323457,13.30675 C20.2688889,13.0630556 20.5774074,12.9709167 20.8202469,13.1026667 M21.2290123,14.6001389 C21.4459259,14.7181111 21.5237037,14.9876389 21.4053086,15.2020556 C21.2903704,15.4190556 21.0216049,15.4974167 20.8046914,15.3820278 C20.5860494,15.2631944 20.5091358,14.99625 20.6214815,14.7766667 C20.7355556,14.5648333 21.0146914,14.4856111 21.2290123,14.6001389 M21.157284,16.1544444 C21.3448148,16.2620833 21.4165432,16.4945833 21.3188889,16.6762778 C21.2169136,16.8622778 20.9835802,16.9294444 20.8012346,16.8295556 C20.6128395,16.73225 20.5419753,16.4971667 20.6448148,16.3120278 C20.7416049,16.12775 20.9775309,16.0597222 21.157284,16.1544444 M17.6054321,11.1711944 C17.4541975,11.4484722 17.1085185,11.5509444 16.8267901,11.4028333 C16.5467901,11.2555833 16.45,10.9094167 16.6012346,10.6286944 C16.747284,10.3531389 17.0938272,10.2437778 17.372963,10.3996389 C17.6546914,10.5460278 17.7540741,10.8947778 17.6054321,11.1711944 M16.0420988,11.1083333 C15.9107407,11.3546111 15.5987654,11.4424444 15.3481481,11.3141389 C15.0992593,11.1806667 15.0119753,10.8706667 15.1424691,10.6261111 C15.2781481,10.37725 15.5866667,10.2859722 15.8338272,10.4185833 C16.0853086,10.54775 16.1769136,10.8594722 16.0420988,11.1083333 M14.5392593,11.5096111 C14.4191358,11.7231667 14.1495062,11.8058333 13.9360494,11.687 C13.7148148,11.5673056 13.637037,11.3012222 13.7562963,11.0859444 C13.868642,10.8698056 14.1408642,10.7871389 14.3569136,10.9033889 C14.5746914,11.0248056 14.6550617,11.2969167 14.5392593,11.5096111 M13.2395062,12.3319722 C13.1409877,12.5153889 12.9085185,12.5816944 12.7235802,12.48525 C12.5377778,12.3888056 12.468642,12.1537222 12.5680247,11.9711667 C12.665679,11.7843056 12.8981481,11.7162778 13.0839506,11.8196111 C13.2688889,11.9143333 13.3388889,12.1459722 13.2395062,12.3319722 M19.097037,11.7042222 C18.9259259,12.0211111 18.532716,12.1433889 18.2138272,11.9677222 C17.8992593,11.8006667 17.7782716,11.408 17.9528395,11.0919722 C18.1239506,10.7785278 18.5188889,10.664 18.8351852,10.8293333 C19.1488889,11.0024167 19.2664198,11.3976667 19.097037,11.7042222 M20.1988889,17.7612778 C20.2818519,17.6071389 20.4754321,17.5511667 20.6266667,17.6338333 C20.7830864,17.7165 20.8409877,17.9059444 20.7562963,18.0609444 C20.6716049,18.2176667 20.4823457,18.2753611 20.3233333,18.1961389 C20.1755556,18.1100278 20.1133333,17.9128333 20.1988889,17.7612778 M14.8616049,20.0888611 C15.0102469,19.8072778 15.3611111,19.7073889 15.6393827,19.8537778 C15.9176543,20.0053333 16.0187654,20.3515 15.8709877,20.6305 C15.7232099,20.9069167 15.3706173,21.0128333 15.0923457,20.8612778 C14.8132099,20.7114444 14.7155556,20.3635556 14.8616049,20.0888611 M16.4275309,20.15 C16.5580247,19.9045833 16.8665432,19.8124444 17.1128395,19.9467778 C17.3651852,20.0819722 17.4533333,20.3876667 17.3219753,20.6339444 C17.1914815,20.8793611 16.8812346,20.9740833 16.6332099,20.8371667 C16.3834568,20.7054167 16.2961728,20.3988611 16.4275309,20.15 M17.9269136,19.7495833 C18.0435802,19.5343056 18.3201235,19.4550833 18.5292593,19.5721944 C18.751358,19.6901667 18.83,19.9588333 18.7116049,20.1741111 C18.5975309,20.39025 18.3235802,20.4694722 18.1109877,20.3566667 C17.8932099,20.2361111 17.8102469,19.964 17.9269136,19.7495833 M19.2240741,18.9272222 C19.324321,18.7429444 19.5550617,18.6749167 19.7460494,18.7696389 C19.9301235,18.8746944 20.0018519,19.1046111 19.9016049,19.28975 C19.7987654,19.4748889 19.5680247,19.5463611 19.3839506,19.4438889 C19.192963,19.3405556 19.1255556,19.1106389 19.2240741,18.9272222 M11.8377778,13.6253611 C11.681358,13.5435556 11.6251852,13.3506667 11.7090123,13.1922222 C11.7928395,13.0398056 11.9838272,12.9821111 12.1428395,13.0630556 C12.2958025,13.1500278 12.3537037,13.3420556 12.2690123,13.4970556 C12.184321,13.6486111 11.9907407,13.7088889 11.8377778,13.6253611 M12.4712346,19.4507778 C12.188642,19.2975 12.0849383,18.9565 12.237037,18.6731944 C12.3882716,18.3985 12.731358,18.2934444 13.0096296,18.4432778 C13.2939506,18.5931111 13.3967901,18.9418611 13.2464198,19.2156944 C13.098642,19.4938333 12.7477778,19.6031944 12.4712346,19.4507778 M11.6441975,18.1548056 C11.3961728,18.0213333 11.3045679,17.7121944 11.4341975,17.4676389 C11.5707407,17.2222222 11.8792593,17.1275 12.1255556,17.2618333 C12.3744444,17.3935833 12.468642,17.7035833 12.3346914,17.9507222 C12.197284,18.1952778 11.8904938,18.2865556 11.6441975,18.1548056 M11.2388889,16.6564722 C11.0245679,16.5419444 10.9450617,16.2715556 11.06,16.058 C11.1801235,15.8392778 11.4488889,15.7609167 11.6658025,15.8763056 C11.8809877,15.9934167 11.9630864,16.26725 11.8464198,16.4790833 C11.7288889,16.6960833 11.4592593,16.7761667 11.2388889,16.6564722 M11.3037037,15.0995833 C11.1204938,14.9979722 11.0504938,14.7654722 11.1507407,14.5820556 C11.252716,14.3943333 11.4851852,14.32975 11.6675309,14.4322222 C11.8533333,14.5260833 11.9285185,14.7620278 11.8230864,14.9463056 C11.7202469,15.1288611 11.492963,15.1994722 11.3037037,15.0995833 M14.5133333,20.1637778 C14.6818519,19.8511944 14.5677778,19.4585278 14.2523457,19.2880278 C13.9325926,19.1175278 13.5411111,19.2389444 13.37,19.5523889 C13.1971605,19.8649722 13.3164198,20.2585 13.6309877,20.4281389 C13.947284,20.5986389 14.3448148,20.4806667 14.5133333,20.1637778 M16.2166667,8.34072222 C16.6038272,8.22447222 17.0091358,8.44577778 17.1188889,8.82811111 C17.2303704,9.21388889 17.014321,9.61688889 16.6280247,9.72969444 C16.2391358,9.84336111 15.8355556,9.62291667 15.7214815,9.23627778 C15.6091358,8.85566667 15.8312346,8.45438889 16.2166667,8.34072222 M18.2717284,8.79711111 C18.6182716,8.69636111 18.9751852,8.89097222 19.0771605,9.23455556 C19.1774074,9.57383333 18.9838272,9.93205556 18.6381481,10.0328056 C18.2950617,10.1361389 17.9320988,9.93808333 17.832716,9.59708333 C17.7324691,9.25436111 17.9312346,8.897 18.2717284,8.79711111 M20.1297531,9.91827778 C20.3985185,9.83819444 20.6811111,9.99319444 20.7597531,10.2592778 C20.8418519,10.5313889 20.6862963,10.8138333 20.4175309,10.8913333 C20.1461728,10.9731389 19.862716,10.8155556 19.7814815,10.54775 C19.7045679,10.2808056 19.8609877,9.99836111 20.1297531,9.91827778 M21.5764198,11.50875 C21.7985185,11.4450278 22.0283951,11.5698889 22.0923457,11.7868889 C22.1554321,12.0030278 22.0309877,12.2338056 21.8123457,12.29925 C21.5954321,12.36125 21.3646914,12.23725 21.2998765,12.0193889 C21.2367901,11.8006667 21.3612346,11.57075 21.5764198,11.50875 M13.1962963,9.97769444 C13.3077778,10.3591667 13.0882716,10.7664722 12.7002469,10.8784167 C12.3130864,10.9912222 11.912963,10.7716389 11.7997531,10.3841389 C11.6865432,10.0035278 11.9034568,9.60052778 12.2914815,9.48686111 C12.678642,9.37577778 13.0822222,9.59536111 13.1962963,9.97769444 M11.615679,11.4166111 C11.7159259,11.7576111 11.5162963,12.1192778 11.1732099,12.2208889 C10.8301235,12.3207778 10.4749383,12.1227222 10.3712346,11.7808611 C10.2701235,11.4398611 10.4645679,11.0825 10.8093827,10.9808889 C11.1559259,10.8784167 11.5119753,11.07475 11.615679,11.4166111 M10.4904938,13.2688611 C10.57,13.5375278 10.4144444,13.8191111 10.1465432,13.8940278 C9.87259259,13.9758333 9.59,13.8225556 9.51481481,13.5521667 C9.43876543,13.2843611 9.58481481,13.0010556 9.85876543,12.9218333 C10.1266667,12.8408889 10.4109877,12.9976111 10.4904938,13.2688611 M10.0125926,15.3226111 C10.0774074,15.5396111 9.95382716,15.7669444 9.73432099,15.8341111 C9.51654321,15.8978333 9.28753086,15.7703889 9.22012346,15.5533889 C9.15358025,15.33725 9.28320988,15.1107778 9.50098765,15.0461944 C9.71790123,14.98075 9.94691358,15.1030278 10.0125926,15.3226111 M15.1709877,9.06319444 C15.3006173,9.50666667 15.05,9.97080556 14.6023457,10.1008333 C14.1581481,10.2291389 13.6932099,9.97769444 13.5653086,9.53594444 C13.4374074,9.08988889 13.6854321,8.63005556 14.1330864,8.49916667 C14.5764198,8.37172222 15.0439506,8.62575 15.1709877,9.06319444 M22.2841975,13.8526944 C22.2392593,13.6908056 22.3308642,13.5185833 22.4916049,13.4720833 C22.6575309,13.4238611 22.8269136,13.5168611 22.8744444,13.6813333 C22.9237037,13.8432222 22.8303704,14.0145833 22.6661728,14.0619444 C22.5054321,14.1084444 22.3325926,14.0154444 22.2841975,13.8526944 M19.2698765,21.2703056 C19.1549383,20.88625 19.3779012,20.48325 19.7633333,20.3695833 C20.1504938,20.2567778 20.5540741,20.4806667 20.667284,20.8638611 C20.7822222,21.2470556 20.5618519,21.6509167 20.1764198,21.7637222 C19.7875309,21.8773889 19.3848148,21.6535 19.2698765,21.2703056 M20.851358,19.8339722 C20.7493827,19.4869444 20.947284,19.1321667 21.288642,19.0314167 C21.6325926,18.9306667 21.9903704,19.1295833 22.0923457,19.4705833 C22.1951852,19.8098611 21.9990123,20.1680833 21.6533333,20.2679722 C21.3128395,20.3687222 20.9550617,20.1723889 20.851358,19.8339722 M21.9748148,17.9843056 C21.8918519,17.7113333 22.0517284,17.42975 22.3204938,17.3513889 C22.592716,17.2721667 22.8735802,17.4263056 22.9530864,17.6958333 C23.0325926,17.9653611 22.8787654,18.2469444 22.6091358,18.3244444 C22.338642,18.4045278 22.0517284,18.25125 21.9748148,17.9843056 M22.4518519,15.9279722 C22.3861728,15.7126944 22.5106173,15.4810556 22.732716,15.4181944 C22.951358,15.3536111 23.1795062,15.4793333 23.244321,15.6980556 C23.3074074,15.9124722 23.1846914,16.1423889 22.9651852,16.2069722 C22.7465432,16.2698333 22.5132099,16.1449722 22.4518519,15.9279722 M9.96938272,17.7767778 C9.80691358,17.825 9.63580247,17.732 9.59,17.5701111 C9.54160494,17.4065 9.63234568,17.2334167 9.79654321,17.1860556 C9.96160494,17.1386944 10.1318519,17.2334167 10.1793827,17.3961667 C10.2269136,17.5589167 10.1353086,17.7285556 9.96938272,17.7767778 M16.2503704,22.9107222 C15.8606173,23.0269722 15.461358,22.8039444 15.3455556,22.42075 C15.2314815,22.0358333 15.4501235,21.6345556 15.837284,21.5200278 C16.2235802,21.4063611 16.6262963,21.6285278 16.7412346,22.01 C16.857037,22.3940556 16.6358025,22.7996389 16.2503704,22.9107222 M14.1935802,22.4526111 C13.8479012,22.5516389 13.4901235,22.3553056 13.3881481,22.0168889 C13.2879012,21.6750278 13.4858025,21.3168056 13.8288889,21.2160556 C14.1711111,21.1153056 14.5323457,21.3081944 14.6317284,21.6526389 C14.7293827,21.9927778 14.5323457,22.3518611 14.1935802,22.4526111 M12.3355556,21.3323056 C12.0633333,21.4123889 11.7833333,21.2556667 11.7046914,20.9878611 C11.6251852,20.7174722 11.7781481,20.4376111 12.0495062,20.3575278 C12.3191358,20.2783056 12.6025926,20.4341667 12.682963,20.7019722 C12.7607407,20.9697778 12.6060494,21.2522222 12.3355556,21.3323056 M10.8862963,19.7444167 C10.6676543,19.8029722 10.4377778,19.6815556 10.372963,19.4628333 C10.3081481,19.2466944 10.4351852,19.0185 10.652963,18.9556389 C10.8716049,18.8919167 11.0988889,19.0150556 11.1645679,19.2320556 C11.2328395,19.4490556 11.1032099,19.67725 10.8862963,19.7444167 M18.8982716,21.7103333 C18.7695062,21.2720278 18.3054321,21.0197222 17.8620988,21.1506111 C17.412716,21.2823611 17.167284,21.7421944 17.2960494,22.1856667 C17.4239506,22.6256944 17.8880247,22.8805833 18.3339506,22.7522778 C18.7790123,22.6213889 19.0330864,22.1563889 18.8982716,21.7103333 M11.8274074,7.00169444 C12.2024691,6.64863889 12.7944444,6.66758333 13.1453086,7.04044444 C13.497037,7.41588889 13.4840741,8.00402778 13.1055556,8.35622222 C12.7296296,8.70841667 12.1376543,8.68947222 11.7859259,8.31488889 C11.4333333,7.94547222 11.4497531,7.35561111 11.8274074,7.00169444 M14.5444444,6.31194444 C14.8814815,5.99505556 15.4034568,6.01055556 15.7171605,6.34294444 C16.0325926,6.67447222 16.0187654,7.19975 15.684321,7.51233333 C15.3507407,7.8275 14.822716,7.80855556 14.5081481,7.47875 C14.1944444,7.14722222 14.21,6.62022222 14.5444444,6.31194444 M17.4239506,6.51861111 C17.6875309,6.27061111 18.1006173,6.28697222 18.3477778,6.54702778 C18.5949383,6.80622222 18.5854321,7.21955556 18.3218519,7.46583333 C18.0565432,7.71297222 17.6434568,7.70005556 17.3954321,7.43741667 C17.15,7.17822222 17.1620988,6.76488889 17.4239506,6.51861111 M20.1064198,7.53386111 C20.3216049,7.33408333 20.6569136,7.34441667 20.855679,7.55711111 C21.0561728,7.76636111 21.0466667,8.09961111 20.8323457,8.30111111 C20.6206173,8.50088889 20.2853086,8.49141667 20.085679,8.27958333 C19.884321,8.06688889 19.8946914,7.73277778 20.1064198,7.53386111 M9.17518519,10.76475 C9.52864198,11.1384722 9.51049383,11.7300556 9.1362963,12.0805278 C8.75950617,12.4370278 8.17012346,12.4111944 7.81839506,12.0400556 C7.46407407,11.6689167 7.47703704,11.0807778 7.85382716,10.7251389 C8.23234568,10.3746667 8.82432099,10.3936111 9.17518519,10.76475 M8.17098765,13.4247222 C8.48641975,13.7553889 8.4708642,14.2806667 8.13641975,14.5975556 C7.80197531,14.9118611 7.2782716,14.8920556 6.96111111,14.5613889 C6.6491358,14.2307222 6.66382716,13.7037222 6.99740741,13.3911389 C7.33271605,13.0759722 7.85728395,13.0931944 8.17098765,13.4247222 M7.96185185,16.2930833 C8.20901235,16.554 8.19432099,16.9690556 7.93419753,17.2144722 C7.66802469,17.4633333 7.25407407,17.4495556 7.00950617,17.1860556 C6.76580247,16.9225556 6.77271605,16.51525 7.0362963,16.26725 C7.29814815,16.01925 7.71382716,16.03475 7.96185185,16.2930833 M8.64283951,19.0185 C8.83987654,19.2303333 8.83209877,19.5635833 8.61864198,19.7633611 C8.40604938,19.9648611 8.07246914,19.9519444 7.87197531,19.7435556 C7.66888889,19.5325833 7.68012346,19.1993333 7.89530864,18.9978333 C8.10617284,18.7997778 8.44061728,18.8083889 8.64283951,19.0185 M10.9675309,8.49572222 C11.3745679,8.92713889 11.3538272,9.60138889 10.9225926,10.0095556 C10.4879012,10.416 9.80950617,10.3936111 9.40419753,9.96477778 C8.99888889,9.52991667 9.01790123,8.85997222 9.4508642,8.45094444 C9.88209877,8.04536111 10.5622222,8.06430556 10.9675309,8.49572222 M22.3645679,9.87005556 C22.2159259,9.71247222 22.2237037,9.46275 22.3818519,9.31377778 C22.5417284,9.16738889 22.7897531,9.17341667 22.9383951,9.33444444 C23.0887654,9.49030556 23.082716,9.73916667 22.9211111,9.88641667 C22.7664198,10.0371111 22.5132099,10.0293611 22.3645679,9.87005556 M23.2875309,20.4866944 C22.9340741,20.1129722 22.9504938,19.5239722 23.3281481,19.1717778 C23.7040741,18.8178611 24.2951852,18.8393889 24.6469136,19.2113889 C25.0020988,19.5868333 24.9848148,20.1715278 24.6062963,20.5271667 C24.2346914,20.8793611 23.642716,20.8595556 23.2875309,20.4866944 M24.2925926,17.8275833 C23.9771605,17.4951944 23.9935802,16.9716389 24.3288889,16.6590556 C24.6616049,16.3430278 25.1879012,16.3619722 25.5016049,16.6943611 C25.8179012,17.0241667 25.8006173,17.5494444 25.4661728,17.8628889 C25.1317284,18.1754722 24.6062963,18.1608333 24.2925926,17.8275833 M24.5008642,14.9583611 C24.2554321,14.6965833 24.2701235,14.2849722 24.5311111,14.0395556 C24.797284,13.7906944 25.2069136,13.8053333 25.4549383,14.0671111 C25.7020988,14.3280278 25.6925926,14.7387778 25.4264198,14.9867778 C25.1654321,15.2321944 24.7497531,15.2192778 24.5008642,14.9583611 M23.8224691,12.2338056 C23.6219753,12.0228333 23.6314815,11.6878611 23.8440741,11.4863611 C24.0592593,11.2865833 24.3945679,11.2977778 24.5950617,11.5113333 C24.7938272,11.7223056 24.7851852,12.0564167 24.5725926,12.2579167 C24.3574074,12.4559722 24.022963,12.4465 23.8224691,12.2338056 M10.0825926,21.9376667 C9.92098765,22.0849167 9.67296296,22.0780278 9.52518519,21.9213056 C9.37395062,21.7628611 9.3817284,21.5148611 9.53987654,21.3658889 C9.70148148,21.2151944 9.95037037,21.2229444 10.097284,21.3813889 C10.2476543,21.5406944 10.2407407,21.7878333 10.0825926,21.9376667 M20.6404938,24.2506111 C20.2593827,24.6071111 19.6734568,24.5855833 19.32,24.2127222 C18.9665432,23.839 18.9820988,23.2525833 19.3571605,22.8969444 C19.7322222,22.54475 20.3267901,22.5628333 20.6785185,22.9356944 C21.0311111,23.3085556 21.0155556,23.8992778 20.6404938,24.2506111 M17.9182716,24.9446667 C17.5838272,25.2581111 17.0601235,25.2400278 16.7446914,24.9110833 C16.4318519,24.5778333 16.4465432,24.0542778 16.7818519,23.7408333 C17.1154321,23.4265278 17.6417284,23.4428889 17.9537037,23.7744167 C18.2682716,24.1093889 18.2501235,24.6303611 17.9182716,24.9446667 M15.0404938,24.7354167 C14.7751852,24.9816944 14.362963,24.9670556 14.1166667,24.707 C13.8695062,24.4443611 13.8807407,24.0344722 14.1451852,23.78475 C14.4053086,23.5401944 14.8209877,23.5531111 15.0690123,23.8148889 C15.3144444,24.0749444 15.3023457,24.4891389 15.0404938,24.7354167 M12.3571605,23.7184444 C12.1428395,23.9173611 11.8075309,23.9078889 11.6079012,23.6969167 C11.4082716,23.4842222 11.4177778,23.1544167 11.6295062,22.9520556 C11.8438272,22.7531389 12.1782716,22.7626111 12.3787654,22.9744444 C12.5792593,23.1845556 12.5680247,23.5195278 12.3571605,23.7184444 M23.0585185,21.2866667 C22.6532099,20.8604167 21.9722222,20.8380278 21.5409877,21.2453333 C21.1071605,21.6526389 21.0907407,22.3286111 21.498642,22.7574444 C21.9039506,23.1871389 22.5814815,23.2095278 23.0153086,22.8039444 C23.445679,22.3975 23.4664198,21.7215278 23.0585185,21.2866667" id="Shape" fill="#F57A14"></path>
                    </g>
                </g>
            </g>
        </g>
    </g>
</svg>