<?xml version="1.0" encoding="UTF-8" standalone="no"?>
<svg width="139px" height="46px" viewBox="0 0 139 46" version="1.1" xmlns="http://www.w3.org/2000/svg" xmlns:xlink="http://www.w3.org/1999/xlink" xmlns:sketch="http://www.bohemiancoding.com/sketch/ns">
    <!-- Generator: Sketch 3.4 (15588) - http://www.bohemiancoding.com/sketch -->
    <title>Slice 1</title>
    <desc>Created with Sketch.</desc>
    <defs></defs>
    <g id="Page-1" stroke="none" stroke-width="1" fill="none" fill-rule="evenodd" sketch:type="MSPage">
        <g id="t-mobile_hover" sketch:type="MSLayerGroup">
            <path d="M0,0 L139,0 L139,46 L0,46 L0,0 L0,0 Z" id="Shape" fill="#FFFFFF" sketch:type="MSShapeGroup"></path>
            <path d="M5.49293509,13.9426481 C5.5312579,13.5587805 5.53924182,13.1733101 5.55121769,12.7878397 C11.1671051,12.7894425 16.7829925,12.7894425 22.39888,12.7878397 C22.4060655,13.0691289 22.4124526,13.3496167 22.4244285,13.6309059 C22.5114532,14.5597213 22.453969,15.4973519 22.5050661,16.4293728 C22.6000747,17.3533798 22.51305,18.2910105 22.6016715,19.2174216 C22.6296152,19.5475958 22.6216312,19.8801742 22.62722,20.2111498 C22.2431936,20.2720557 21.8599655,20.3369686 21.4751407,20.394669 C21.355382,18.6324042 20.8843308,16.7803833 19.6492188,15.4612892 C18.6440437,14.3521603 17.1294945,13.8464808 15.6636473,13.8160279 C15.6612522,19.1477003 15.6628489,24.4785714 15.6636473,29.8102439 C15.658857,30.4080836 15.6836071,31.0315679 15.9542619,31.5773171 C16.1506663,31.9675958 16.529104,32.2416725 16.9434693,32.3602787 C17.6660138,32.5758537 18.4292763,32.5822648 19.1781677,32.5894774 C19.1773693,32.9845645 19.1773693,33.3796516 19.1781677,33.7747387 C15.7035669,33.7803484 12.2281677,33.7819512 8.75356692,33.7739373 C8.75436531,33.3788502 8.75436531,32.9837631 8.75436531,32.5894774 C9.58389431,32.5750523 10.4477542,32.5902787 11.2301781,32.2761324 C11.7259793,32.0902091 12.0557151,31.6165854 12.1674899,31.1101045 C12.3223779,30.4217073 12.3319586,29.7084669 12.3255715,29.0056446 C12.3255715,23.9440418 12.3247731,18.882439 12.3255715,13.8208362 C10.8445549,13.830453 9.31084434,14.339338 8.29289489,15.4564808 C7.06417002,16.7803833 6.58832855,18.6308014 6.47974727,20.3954704 C6.09492246,20.3361672 5.71169443,20.2728571 5.32686962,20.2119512 C5.33325675,19.0851916 5.42107984,17.9608362 5.40910396,16.8324739 C5.48016083,15.8716028 5.47217691,14.9059233 5.49293509,13.9426481 L5.49293509,13.9426481 Z" id="Shape" fill="#E20074" sketch:type="MSShapeGroup"></path>
            <path d="M106.456755,13.5595819 C107.94815,13.4802439 109.440345,13.4121254 110.932539,13.3424042 C110.930144,18.9120906 110.93174,24.4825784 110.93174,30.0522648 C110.93174,30.695784 110.909385,31.3497213 111.065072,31.9796167 C111.136927,32.2873519 111.323751,32.5894774 111.627938,32.7096864 C112.053481,32.8875958 112.526927,32.8218815 112.976422,32.8347038 C112.976422,33.1488502 112.97722,33.4637979 112.97722,33.7779443 C110.751304,33.7787456 108.526186,33.7787456 106.30027,33.7779443 C106.299472,33.4637979 106.299472,33.1488502 106.301068,32.8347038 C106.856749,32.8154704 107.544963,32.9396864 107.960126,32.4724739 C108.336967,31.9996516 108.30104,31.3497213 108.340161,30.7791289 C108.348145,26.3434146 108.341758,21.9085017 108.344153,17.4735889 C108.340959,16.8332753 108.364113,16.1873519 108.252338,15.5550523 C108.184474,15.2272822 108.062321,14.8602439 107.746956,14.6951568 C107.354147,14.4811847 106.891878,14.538885 106.463142,14.5324739 C106.455158,14.2079094 106.455956,13.8841463 106.456755,13.5595819 L106.456755,13.5595819 Z" id="Shape" fill="#6A6A6A" sketch:type="MSShapeGroup"></path>
            <path d="M84.0946008,13.5587805 C85.542085,13.4810453 86.9903676,13.4145296 88.4386502,13.3424042 C88.4442389,16.0855749 88.4354566,18.829547 88.4434406,21.5727178 C88.6071109,21.4829617 88.6813613,21.3034495 88.7803619,21.1543902 C89.3208731,20.2960976 90.258185,19.7214983 91.2577714,19.5884669 C91.6777254,19.5107317 92.1072602,19.5115331 92.532803,19.5371777 C93.4134291,19.6277352 94.2788857,19.9178397 94.9950431,20.447561 C96.3395348,21.4148432 97.0996037,23.0144251 97.3886215,24.6148084 C97.5722516,25.5099652 97.5490982,26.4267596 97.52834,27.3347387 C97.4189604,29.0873868 96.876054,30.864878 95.740741,32.2272474 C94.8800747,33.2939024 93.5755026,33.9967247 92.2062608,34.0808711 C91.3599655,34.1329617 90.4697588,34.04 89.7272545,33.5984321 C89.1915336,33.2963066 88.7172889,32.9020209 88.2334635,32.5253659 C88.0378576,32.3690941 87.7360655,32.2953659 87.5356692,32.4820906 C87.1444572,32.8475261 86.8881735,33.3307666 86.5991557,33.7763415 C86.2606376,33.779547 85.9221195,33.779547 85.5843998,33.7771429 C85.8079495,32.9829617 85.8758128,32.1559233 85.870224,31.3336934 C85.8718208,26.4163415 85.8718208,21.4989895 85.8694256,16.5816376 C85.8494658,16.0302787 85.8534578,15.4284321 85.5508673,14.945993 C85.2187364,14.4932056 84.6023779,14.5236585 84.1025847,14.5316725 C84.093004,14.2079094 84.0938024,13.8833449 84.0946008,13.5587805 L84.0946008,13.5587805 Z" id="Shape" fill="#6A6A6A" sketch:type="MSShapeGroup"></path>
            <path d="M101.104337,13.5139024 C101.671195,13.3039373 102.352223,13.4001045 102.808105,13.8096167 C103.416479,14.316899 103.555399,15.2721603 103.154607,15.9485366 C102.920678,16.3588502 102.495933,16.6497561 102.033665,16.7322997 C101.17699,16.9326481 100.230896,16.3211847 100.051258,15.4572822 C99.8396841,14.6639024 100.33309,13.7743554 101.104337,13.5139024 L101.104337,13.5139024 Z" id="Shape" fill="#6A6A6A" sketch:type="MSShapeGroup"></path>
            <path d="M50.0384032,13.5627875 C52.0152211,13.543554 53.9920391,13.5531707 55.968857,13.5579791 C57.3796152,18.3847735 58.7975589,23.2107666 60.216301,28.0351568 C60.2586157,28.1625784 60.3089144,28.2883972 60.3536244,28.4158188 C60.3839632,28.2202787 60.4246812,28.0271429 60.4829638,27.8380139 C61.5703733,24.2934495 62.6106778,20.7344599 63.6837163,17.1850871 C64.0405974,15.9813937 64.4310109,14.7873171 64.747174,13.5724042 C66.7351694,13.5275261 68.7263584,13.565993 70.7151522,13.5531707 C70.7159506,13.8841463 70.7159506,14.2143206 70.7119586,14.5444948 C70.0389144,14.5412892 69.2940149,14.5533101 68.7335439,14.9780488 C68.2377427,15.4492683 68.2968237,16.2025784 68.2481218,16.8308711 C68.2385411,21.2641812 68.2481218,25.6974913 68.2433314,30.1308014 C68.246525,30.6140418 68.2585009,31.1012892 68.3407352,31.5781185 C68.4022114,31.947561 68.5778576,32.3338328 68.9267547,32.5109408 C69.4744515,32.7962369 70.1107697,32.8218815 70.7151522,32.8058537 L70.7151522,33.7779443 C68.1579035,33.7763415 65.6006548,33.783554 63.0434061,33.7747387 C63.0434061,33.4533798 63.0434061,33.1328223 63.0426077,32.8114634 C63.6789259,32.8114634 64.3839058,32.7858188 64.9116427,32.3827178 C65.3978633,31.9387456 65.348363,31.2126829 65.4066456,30.6116376 C65.4098392,26.0965854 65.407444,21.5823345 65.4082424,17.0672822 C65.4050488,16.5543902 65.4178231,16.0406969 65.3954681,15.5270035 C64.3958817,19.0058537 63.3467949,22.4702787 62.3352326,25.9459233 C61.5871396,28.5576655 60.7711832,31.1509756 60.0462435,33.7691289 C59.7165078,33.7811498 59.3875704,33.779547 59.058633,33.7779443 C58.1157323,30.5988153 57.2071626,27.4084669 56.2610684,24.2301394 C55.4035956,21.3290941 54.5860425,18.4168293 53.7022229,15.5245993 C53.6982309,19.6990592 53.7014245,23.8743206 53.7006261,28.0487805 C53.7054164,29.0088502 53.6662952,29.9761324 53.8147961,30.9281882 C53.9273693,31.589338 54.2922343,32.2456794 54.9038024,32.558223 C55.3437163,32.8010453 55.8578805,32.8258885 56.348093,32.8058537 C56.3488914,33.1296167 56.3488914,33.4541812 56.3488914,33.7779443 C54.2451292,33.7755401 52.141367,33.7859582 50.0376048,33.7723345 C50.0567662,33.4501742 50.0759276,33.1280139 50.0775244,32.8058537 C50.600471,32.8395122 51.15695,32.79223 51.5904767,32.4660627 C51.9473578,32.2296516 52.1996496,31.8545993 52.3130213,31.4426829 C52.5333774,30.6525087 52.5070304,29.8238676 52.5166111,29.0120557 C52.514216,24.8183624 52.5206031,20.6238676 52.5134176,16.4301742 C52.5006433,15.8379443 52.4671109,15.0854355 51.890672,14.7544599 C51.3286043,14.4819861 50.681907,14.5637282 50.0775244,14.5452962 C50.0799196,14.2175261 50.0711373,13.8889547 50.0384032,13.5627875 L50.0384032,13.5627875 Z" id="Shape" fill="#6A6A6A" sketch:type="MSShapeGroup"></path>
            <path d="M134.317433,18.8022997 C135.209236,18.4745296 136.298242,19.1396864 136.370896,20.0997561 C136.504227,20.982892 135.736973,21.8636237 134.847565,21.8419861 C133.918237,21.9060976 133.083119,20.9684669 133.257967,20.0484669 C133.327427,19.470662 133.772131,18.9778049 134.317433,18.8022997 L134.317433,18.8022997 Z" id="Shape" fill="#6A6A6A" sketch:type="MSShapeGroup"></path>
            <path d="M134.506651,19.0619512 C135.149357,18.8928571 135.8727,19.3055749 136.037967,19.9555052 C136.274291,20.7032056 135.62919,21.5582927 134.84996,21.5342509 C134.187295,21.5959582 133.573331,21.0085366 133.542993,20.3537979 C133.500678,19.7655749 133.949374,19.2086063 134.506651,19.0619512 L134.506651,19.0619512 Z" id="Shape" fill="#FFFFFF" sketch:type="MSShapeGroup"></path>
            <path d="M76.3007007,19.4650523 C77.4719414,19.3432404 78.7030615,19.4145645 79.7745032,19.9498955 C81.0926479,20.5589547 82.0906376,21.7289895 82.662286,23.0520906 C83.4710569,24.93777 83.5644687,27.0847038 83.1501034,29.0793728 C82.8778518,30.3055052 82.3269615,31.487561 81.471884,32.4139721 C80.6136129,33.3516028 79.4184204,33.9550523 78.1665422,34.1385714 C76.9186559,34.3124739 75.6037048,34.1738328 74.4707869,33.5960279 C73.2803848,33.0078049 72.3470649,31.9611847 71.7977714,30.7582927 C71.0568639,29.1739373 70.893992,27.3748084 71.0576623,25.6494077 C71.2333084,23.972892 71.8209248,22.2659233 73.0424641,21.0646341 C73.9071223,20.1766899 75.0839518,19.6405575 76.3007007,19.4650523 L76.3007007,19.4650523 Z" id="Shape" fill="#6A6A6A" sketch:type="MSShapeGroup"></path>
            <path d="M118.407881,19.5139373 C119.905663,19.2158188 121.563923,19.5532056 122.723188,20.5837979 C123.602217,21.3339024 124.197817,22.3644948 124.568271,23.4511847 C124.930741,24.5034146 125.092814,25.6165505 125.131137,26.7264808 C122.341557,26.7336934 119.551177,26.7280836 116.760798,26.728885 C116.754411,27.7474564 116.830258,28.7676307 117.01309,29.7701742 C117.164785,30.5347038 117.401907,31.3072474 117.87695,31.9363415 C118.213871,32.3899303 118.696898,32.7321254 119.239805,32.8875958 C119.638202,33.0190244 120.062947,32.9989895 120.477312,32.9965854 C121.244566,32.9973868 121.986272,32.6487805 122.532372,32.1182578 C123.173481,31.4947735 123.624572,30.7045993 123.995026,29.8967944 C124.323963,30.0354355 124.631344,30.2173519 124.949104,30.3816376 C124.36548,31.5540767 123.612596,32.7024739 122.506824,33.4389547 C121.328397,34.225122 119.819437,34.3565505 118.458978,34.0752613 C117.228656,33.8124042 116.112504,33.0727178 115.380379,32.0461324 C114.332889,30.6244599 113.966427,28.8245296 113.900959,27.0895122 C113.862636,25.2062369 114.216324,23.234007 115.317306,21.6696864 C116.041447,20.6102439 117.140833,19.7751916 118.407881,19.5139373 L118.407881,19.5139373 Z" id="Shape" fill="#6A6A6A" sketch:type="MSShapeGroup"></path>
            <path d="M134.251166,19.4386063 C134.566531,19.4634495 134.921017,19.3568641 135.206841,19.5355749 C135.358535,19.6173171 135.38089,19.8040418 135.439173,19.9506969 C135.40564,20.0340418 135.373705,20.1181882 135.344963,20.2023345 C135.264325,20.2696516 135.186083,20.33777 135.110235,20.4066899 C135.293866,20.6278746 135.455141,20.8674913 135.595658,21.1199303 C135.504641,21.1215331 135.321809,21.1247387 135.229994,21.1263415 C135.082292,20.9067596 134.935388,20.6871777 134.789282,20.4683972 C134.748564,20.465993 134.667926,20.4611847 134.627209,20.4595819 C134.624813,20.6791638 134.623217,20.899547 134.624015,21.1191289 C134.498667,21.1215331 134.374917,21.1239373 134.251964,21.1263415 C134.249569,20.5637631 134.251166,20.0011847 134.251166,19.4386063 L134.251166,19.4386063 Z" id="Shape" fill="#6A6A6A" sketch:type="MSShapeGroup"></path>
            <path d="M100.03529,19.7583624 C100.434486,19.7487456 100.836077,19.7543554 101.233676,19.7054704 C101.88676,19.6525784 102.545434,19.6942509 103.196123,19.5996864 C103.208099,23.004007 103.19772,26.4083275 103.200913,29.8134495 C103.2073,30.5258885 103.1578,31.2503484 103.324664,31.9499652 C103.402906,32.2609059 103.578553,32.5790592 103.889127,32.7056794 C104.318662,32.8891986 104.799294,32.8210801 105.253578,32.8347038 C105.253578,33.1488502 105.253578,33.4629965 105.254377,33.7779443 C103.025267,33.7771429 100.796956,33.7811498 98.5686445,33.7763415 C98.5686445,33.4621951 98.5686445,33.1488502 98.5694428,32.8355052 C99.1131476,32.8178746 99.7534578,32.9268641 100.192573,32.5237631 C100.577398,32.0958188 100.562229,31.4755401 100.618116,30.9362021 C100.625302,28.6105575 100.618914,26.2849129 100.62131,23.9592683 C100.614124,23.2155749 100.661229,22.4622648 100.508736,21.7289895 C100.435284,21.4452962 100.320316,21.1303484 100.047266,20.9836934 C99.6464733,20.7560976 99.169035,20.7969686 98.726726,20.7913589 C98.7259276,20.4708014 98.7259276,20.1494425 98.7259276,19.828885 C99.1634463,19.8401045 99.5977714,19.7655749 100.03529,19.7583624 L100.03529,19.7583624 Z" id="Shape" fill="#6A6A6A" sketch:type="MSShapeGroup"></path>
            <path id="Shape" fill="#FFFFFF" sketch:type="MSShapeGroup" d="M134.625612,19.7327178 C134.766927,19.7407317 134.910638,19.749547 135.055146,19.7615679 C135.045566,19.8849826 135.042372,20.0091986 135.045566,20.1334146 C134.905049,20.1486411 134.764532,20.1614634 134.627209,20.1734843 C134.624015,20.0268293 134.624015,19.8793728 134.625612,19.7327178 L134.625612,19.7327178 Z"></path>
            <path d="M75.0951292,21.5174216 C75.5661804,20.9139721 76.2599828,20.4323345 77.0432051,20.4002787 C77.9102585,20.3465854 78.7517634,20.8009756 79.2675244,21.4869686 C79.9006491,22.3388502 80.1433601,23.4087108 80.2782883,24.4441115 C80.4411603,25.8545645 80.4459506,27.2802439 80.3237967,28.6939024 C80.2176106,29.7196864 80.0379724,30.763101 79.5645261,31.6895122 C79.2571453,32.2873519 78.7757151,32.8274913 78.1322114,33.0606969 C77.2340207,33.3908711 76.125853,33.248223 75.4312522,32.5558188 C74.7598047,31.890662 74.4332625,30.9554355 74.2656002,30.0434495 L74.2312694,29.9849477 C74.1418495,29.3133798 74.0180988,28.6434146 74.0324698,27.9630314 L73.9869615,27.9021254 C73.961413,26.604669 73.9670017,25.3032056 74.1618093,24.01777 C74.3198909,23.1410453 74.5434406,22.2362718 75.0951292,21.5174216 L75.0951292,21.5174216 Z" id="Shape" fill="#FFFFFF" sketch:type="MSShapeGroup"></path>
            <path d="M118.046209,21.1984669 C118.490115,20.6991986 119.175135,20.4058885 119.843389,20.4996516 C120.384698,20.5629617 120.881298,20.8706969 121.215026,21.2986411 C121.574302,21.7466202 121.79386,22.2891638 121.951143,22.8381185 C122.197048,23.7557143 122.281677,24.7125784 122.258524,25.6606272 L118.242613,25.6606272 C117.750006,25.6437979 117.253406,25.703101 116.766387,25.6173519 C116.839041,24.8840767 116.845428,24.1419861 117.017881,23.4215331 C117.197519,22.6217422 117.48973,21.8155401 118.046209,21.1984669 L118.046209,21.1984669 Z" id="Shape" fill="#FFFFFF" sketch:type="MSShapeGroup"></path>
            <path d="M91.2146582,20.6479094 C91.872533,20.5293031 92.5958759,20.6903833 93.0964675,21.1503833 C93.7463584,21.7305923 94.0609248,22.5864808 94.2613211,23.4143206 C94.6142102,25.0042857 94.6317748,26.6511498 94.5152096,28.2691638 C94.4225962,29.3766899 94.2477484,30.5058537 93.7511488,31.5116028 C93.4102355,32.2 92.8170304,32.8218815 92.0393969,32.9709408 C91.5204423,33.0246341 90.9719472,33.0310453 90.4897186,32.8058537 C89.7168754,32.4804878 89.1899368,31.7616376 88.8713785,31.0083275 C88.4370534,29.944878 88.2733831,28.7900697 88.2390523,27.6472822 C88.1336646,26.7841812 88.2310684,25.9170732 88.2893509,25.0547735 C88.4131017,23.8166202 88.7699828,22.5416028 89.6146812,21.597561 C90.0362321,21.129547 90.5911143,20.7665157 91.2146582,20.6479094 L91.2146582,20.6479094 Z" id="Shape" fill="#FFFFFF" sketch:type="MSShapeGroup"></path>
            <path d="M5.3284664,22.4742857 C6.75758759,22.4742857 8.18670879,22.4726829 9.61503159,22.4750871 C9.61662837,23.8927526 9.61503159,25.3104181 9.61582998,26.7280836 C8.18670879,26.7312892 6.75758759,26.728885 5.32766801,26.728885 C5.32766801,25.3112195 5.32686962,23.8927526 5.3284664,22.4742857 L5.3284664,22.4742857 Z" id="Shape" fill="#696A6C" sketch:type="MSShapeGroup"></path>
            <path d="M18.3047272,22.4726829 C19.7266628,22.4742857 21.1478001,22.4742857 22.5689374,22.4734843 C22.5745261,23.8919512 22.5705342,25.3104181 22.5713326,26.7296864 C21.1478001,26.728885 19.7250661,26.7296864 18.302332,26.728885 C18.3039288,25.3104181 18.2991384,23.8919512 18.3047272,22.4726829 L18.3047272,22.4726829 Z" id="Shape" fill="#696A6C" sketch:type="MSShapeGroup"></path>
            <path d="M31.1205112,22.4742857 C32.548834,22.4734843 33.9771568,22.4734843 35.4054796,22.4742857 C35.4078748,23.8927526 35.406278,25.3104181 35.406278,26.728885 C33.9771568,26.7304878 32.548834,26.7296864 31.1197128,26.728885 C31.1197128,25.3112195 31.1189144,23.8927526 31.1205112,22.4742857 L31.1205112,22.4742857 Z" id="Shape" fill="#696A6C" sketch:type="MSShapeGroup"></path>
            <path d="M43.941884,22.4734843 C45.3789891,22.4766899 46.8160942,22.468676 48.2531993,22.4774913 C48.2539977,23.893554 48.2524009,25.3096167 48.2539977,26.7264808 C46.8160942,26.7336934 45.3781907,26.7272822 43.9402872,26.7296864 C43.9402872,25.3104181 43.937892,23.8919512 43.941884,22.4734843 L43.941884,22.4734843 Z" id="Shape" fill="#696A6C" sketch:type="MSShapeGroup"></path>
            <path d="M128.743061,22.4766899 C130.176175,22.4734843 131.610086,22.4710801 133.043199,22.4774913 C133.043199,23.893554 133.042401,25.3096167 133.043998,26.7264808 C131.610086,26.7320906 130.176175,26.7304878 128.742263,26.7264808 C128.743061,25.3096167 128.741465,23.893554 128.743061,22.4766899 L128.743061,22.4766899 Z" id="Shape" fill="#6A6A6A" sketch:type="MSShapeGroup"></path>
        </g>
    </g>
</svg>