<?xml version="1.0" encoding="UTF-8" standalone="no"?>
<svg width="141px" height="46px" viewBox="0 0 141 46" version="1.1" xmlns="http://www.w3.org/2000/svg" xmlns:xlink="http://www.w3.org/1999/xlink" xmlns:sketch="http://www.bohemiancoding.com/sketch/ns">
    <!-- Generator: Sketch 3.4 (15588) - http://www.bohemiancoding.com/sketch -->
    <title>Slice 1</title>
    <desc>Created with Sketch.</desc>
    <defs></defs>
    <g id="Page-1" stroke="none" stroke-width="1" fill="none" fill-rule="evenodd" sketch:type="MSPage">
        <g id="t-mobile_default" sketch:type="MSLayerGroup">
            <path d="M0,0 L141,0 L141,46 L0,46 L0,0 L0,0 Z" id="Shape" fill="#FFFFFF" sketch:type="MSShapeGroup"></path>
            <path d="M5.48612292,16.9110105 C5.57035037,15.5374216 5.5379552,14.1606272 5.63352096,12.7878397 C11.3277829,12.7878397 17.0220448,12.7862369 22.7154968,12.7886411 C22.8321195,14.0372125 22.76166,15.2921951 22.855606,16.5415679 C22.8912407,17.3309408 22.8588455,18.1235192 22.9187766,18.912892 C22.9511717,19.3440418 22.9511717,19.7767944 22.9519816,20.209547 C22.5656692,20.2768641 22.1785468,20.3393728 21.7898047,20.3954704 C21.6553647,18.6684669 21.2042619,16.8629268 20.00888,15.5438328 C18.9754739,14.3826132 17.3889202,13.8256446 15.8501493,13.8272474 C15.8517691,18.5955401 15.8501493,23.3638328 15.8509592,28.1321254 C15.8574383,29.0881882 15.8080356,30.0554704 15.9853992,31.0003136 C16.0850144,31.5420557 16.4178748,32.0637631 16.9515853,32.2721254 C17.7428374,32.5854704 18.6142677,32.5710453 19.4524928,32.5894774 C19.4557323,32.9853659 19.4557323,33.380453 19.4524928,33.7763415 C15.9287076,33.7827526 12.4041126,33.7851568 8.8803274,33.7747387 C8.87708788,33.380453 8.87789776,32.9853659 8.88113728,32.5902787 C9.72341183,32.5702439 10.5988914,32.588676 11.394193,32.2737282 C11.8898392,32.0862021 12.2235095,31.6213937 12.3385123,31.1205226 C12.5304538,30.2958885 12.4996783,29.4432056 12.4996783,28.6033449 C12.4988685,23.6755749 12.5029179,18.7478049 12.4980586,13.8192334 C11.0167892,13.8392683 9.48368754,14.3265157 8.45271109,15.4180139 C7.17391155,16.7419164 6.69527283,18.6139721 6.56731189,20.394669 C6.17856979,20.3401742 5.79144744,20.2784669 5.4043251,20.2119512 C5.40675474,19.1116376 5.49341183,18.0121254 5.48612292,16.9110105 L5.48612292,16.9110105 Z" id="Shape" fill="#D3D1D1" sketch:type="MSShapeGroup"></path>
            <path d="M85.3013555,13.5571777 C86.7745261,13.4794425 88.2485066,13.411324 89.7224871,13.3391986 C89.7888972,15.0109059 89.7208673,16.6818118 89.736255,18.3535192 C89.7265365,19.4498258 89.7443538,20.5461324 89.7338254,21.6432404 C90.0480586,21.1407666 90.3841585,20.6334843 90.8717059,20.2776655 C91.8192648,19.5612195 93.0907754,19.4057491 94.241614,19.5884669 C95.2750201,19.7359233 96.2420161,20.2383972 96.9830557,20.9612544 C98.4060138,22.3973519 98.9737392,24.4761672 98.9470132,26.4467944 C98.995606,28.3108362 98.5542217,30.2301742 97.471413,31.7768641 C96.8785813,32.6343554 96.0516944,33.3427875 95.0725503,33.7322648 C94.1282309,34.115331 93.0672889,34.1826481 92.0695175,33.9975261 C91.1114302,33.8091986 90.3379954,33.1785017 89.5937163,32.5942857 C89.3782883,32.4147735 89.0365192,32.2633101 88.7959851,32.486899 C88.3910454,32.8483275 88.1456519,33.3419861 87.8378978,33.779547 C87.4985583,33.7803484 87.1592188,33.7819512 86.8206893,33.7827526 C87.0903791,32.8026481 87.1227743,31.7840767 87.1049569,30.7743206 C87.1033372,26.0444948 87.1057668,21.314669 87.1033372,16.5848432 C87.0798507,16.0310801 87.0855198,15.4276307 86.775336,14.9435889 C86.4392361,14.4964111 85.8140092,14.5308711 85.311884,14.5276655 C85.3029753,14.2047038 85.2997358,13.8809408 85.3013555,13.5571777 L85.3013555,13.5571777 Z" id="Shape" fill="#D3D1D1" sketch:type="MSShapeGroup"></path>
            <path d="M102.962395,13.4169338 C103.900235,13.264669 104.848604,14.0380139 104.866422,14.9796516 C104.94093,15.7586063 104.387783,16.5311498 103.618397,16.7114634 C102.665979,17.0007666 101.574262,16.2883275 101.458449,15.31223 C101.302952,14.4034495 102.039943,13.4930662 102.962395,13.4169338 L102.962395,13.4169338 Z" id="Shape" fill="#D3D1D1" sketch:type="MSShapeGroup"></path>
            <path d="M107.985267,13.5579791 C109.498932,13.4794425 111.013406,13.4081185 112.527071,13.3416028 C112.53193,19.1260627 112.527071,24.9097213 112.5295,30.6941812 C112.558656,31.2872125 112.53193,31.9483624 112.893946,32.4556446 C113.314273,32.9372822 114.029397,32.814669 114.602791,32.8355052 C114.603601,33.150453 114.602791,33.4654007 114.599552,33.7803484 C112.343228,33.779547 110.086094,33.7819512 107.82977,33.779547 C107.827341,33.4654007 107.826531,33.1520557 107.82815,32.8387108 C108.393446,32.8130662 109.089943,32.9340767 109.514319,32.4684669 C109.889294,31.9940418 109.862567,31.3489199 109.897392,30.7783275 C109.904681,26.5020906 109.898202,22.2250523 109.900632,17.9488153 C109.888484,17.1762718 109.942746,16.3965157 109.820454,15.6295819 C109.758093,15.27777 109.635801,14.8834843 109.299701,14.6991638 C108.901241,14.4883972 108.43313,14.5380836 107.999035,14.5316725 C107.986887,14.207108 107.982837,13.8825436 107.985267,13.5579791 L107.985267,13.5579791 Z" id="Shape" fill="#D3D1D1" sketch:type="MSShapeGroup"></path>
            <path d="M50.7632395,13.5571777 C52.7644515,13.5443554 54.7664733,13.5491638 56.7684951,13.5547735 C57.7954222,16.9558885 58.7931936,20.3658188 59.8120218,23.769338 C60.2906605,25.2887805 60.6939805,26.8322648 61.1993452,28.342892 C62.1849684,25.145331 63.1519644,21.9429617 64.12139,18.7405923 C64.6510511,17.0143902 65.1839518,15.2889895 65.6982252,13.5587805 C67.7099655,13.5411498 69.7225158,13.5531707 71.7350661,13.5523693 C71.7366858,13.8817422 71.7358759,14.2119164 71.7310167,14.5412892 C71.0337105,14.5573171 70.2424584,14.5501045 69.6804021,15.0205226 C69.210672,15.5262021 69.2738426,16.2755052 69.230919,16.9134146 C69.2268696,21.4260627 69.2260597,25.9395122 69.2317289,30.4529617 C69.2746525,31.102892 69.2139115,31.8810453 69.7257553,32.3763066 C70.2926709,32.8050523 71.0515279,32.8074564 71.7342562,32.8074564 C71.7358759,33.1312195 71.7358759,33.455784 71.7334463,33.779547 C69.1385928,33.7779443 66.5437392,33.7883624 63.9496956,33.7739373 C63.9480758,33.4549826 63.9480758,33.1360279 63.9480758,32.8170732 C64.5449569,32.8002439 65.1799024,32.7866202 65.7095635,32.4780836 C65.9905916,32.3178049 66.1517576,32.0156794 66.2197875,31.7111498 C66.316973,31.2719861 66.3356002,30.82 66.3469385,30.3720209 C66.3461287,25.6437979 66.3461287,20.9147735 66.3469385,16.1865505 C66.3445089,16.0006272 66.33722,15.8155052 66.3283113,15.6311847 C65.8634406,17.0616725 65.4706491,18.5154007 65.0284549,19.9547038 C64.0015279,23.3261672 63.019954,26.7112544 61.9970764,30.0843206 C61.630201,31.3128571 61.2536071,32.5389895 60.9037392,33.7731359 C60.5724986,33.7803484 60.2412579,33.7827526 59.9100172,33.7811498 C58.9746065,30.7029965 58.0885985,27.6112195 57.158857,24.5314634 C56.5733142,22.592892 56.0120678,20.647108 55.4346238,18.7061324 C55.1147214,17.7003833 54.8677082,16.6705923 54.4967835,15.6816725 C54.4465709,17.585784 54.4886847,19.493101 54.4749167,21.3980139 C54.4741068,23.8542857 54.4765365,26.3105575 54.4741068,28.7676307 C54.4643883,29.3542509 54.4967835,29.9408711 54.5388972,30.5258885 C54.5866801,31.2848084 54.9033429,32.094216 55.5909305,32.4981185 C56.0566111,32.79223 56.6243366,32.818676 57.1604767,32.8090592 C57.1661459,33.1352265 57.1620965,33.4613937 57.1483285,33.7883624 C55.0199655,33.7667247 52.8916025,33.7931707 50.7632395,33.7747387 C50.7591901,33.451777 50.7648593,33.1296167 50.7810569,32.8082578 C51.2953303,32.8234843 51.8452384,32.8034495 52.2809535,32.4981185 C52.6713153,32.2593031 52.949104,31.864216 53.0673464,31.4274564 C53.2852039,30.6420906 53.2633372,29.8190592 53.2706261,29.0120557 C53.271436,24.8712544 53.271436,20.7296516 53.2706261,16.5888502 C53.2633372,16.0855749 53.2600976,15.5478397 52.9985066,15.0982578 C52.8195233,14.7977352 52.4728949,14.6510801 52.1367949,14.6029965 C51.6921712,14.5340767 51.2402585,14.5493031 50.7915853,14.546899 C50.7656692,14.2175261 50.7575704,13.8873519 50.7632395,13.5571777 L50.7632395,13.5571777 Z" id="Shape" fill="#D3D1D1" sketch:type="MSShapeGroup"></path>
            <path d="M136.253297,18.7982927 C137.162791,18.4737282 138.271516,19.1452962 138.334687,20.111777 C138.463458,20.9933101 137.687593,21.8628223 136.788627,21.845993 C135.89776,21.9012892 135.086261,21.0742509 135.151051,20.1967247 C135.178587,19.5620209 135.645078,18.9874216 136.253297,18.7982927 L136.253297,18.7982927 Z" id="Shape" fill="#D3D1D1" sketch:type="MSShapeGroup"></path>
            <path d="M136.326186,19.1020209 C136.996766,18.8503833 137.818794,19.2679094 137.992108,19.9587108 C138.230213,20.7056098 137.57745,21.5526829 136.790247,21.5350523 C136.092941,21.5911498 135.450706,20.9612544 135.465284,20.2776655 C135.462855,19.7559582 135.842688,19.2823345 136.326186,19.1020209 L136.326186,19.1020209 Z" id="Shape" fill="#FFFFFF" sketch:type="MSShapeGroup"></path>
            <path d="M77.4633429,19.4570383 C78.6684434,19.3344251 79.9310454,19.4329965 81.021143,19.9931707 C82.088564,20.5100697 82.9518955,21.385993 83.5285296,22.4069686 C84.2436531,23.6571429 84.5505974,25.100453 84.5902814,26.5261324 C84.6178173,27.9197561 84.4193969,29.3406272 83.8338541,30.6180488 C83.3349684,31.7231707 82.5420965,32.7225087 81.4892533,33.3548084 C80.5206376,33.9494425 79.3730385,34.2291289 78.2375876,34.2082927 C76.7271626,34.221115 75.19973,33.6617422 74.1266399,32.5974913 C73.0827053,31.5917422 72.4712464,30.2189547 72.2015566,28.8189199 C71.9456347,27.4549477 71.956973,26.0396864 72.2299024,24.6797213 C72.507691,23.3221603 73.1102412,21.9934495 74.1306893,21.0245645 C75.0215566,20.1470383 76.2217978,19.6109059 77.4633429,19.4570383 L77.4633429,19.4570383 Z" id="Shape" fill="#D3D1D1" sketch:type="MSShapeGroup"></path>
            <path d="M118.480494,20.1927178 C119.285514,19.6549826 120.262229,19.3785017 121.233274,19.4153659 C122.490207,19.395331 123.751189,19.8705575 124.659874,20.7328571 C125.708667,21.6897213 126.309598,23.0296516 126.63436,24.3832056 C126.811723,25.1533449 126.912148,25.9403136 126.929156,26.7296864 C124.101057,26.7352962 121.272148,26.7280836 118.444049,26.732892 C118.433521,27.5855749 118.502361,28.4382578 118.614124,29.2829268 C118.759902,30.2149477 118.993957,31.1750174 119.5795,31.9403484 C119.992539,32.4885017 120.627484,32.8643554 121.312642,32.9637282 C122.120902,33.0598955 122.991522,33.0110105 123.698547,32.5694425 C124.695508,31.9595819 125.28753,30.9073519 125.786416,29.8927875 C126.113607,30.0442509 126.434319,30.209338 126.749362,30.3856446 C126.133854,31.5925436 125.345032,32.7834146 124.162608,33.5102787 C123.082229,34.1794425 121.747547,34.3180836 120.506812,34.1425784 C119.24502,33.9534495 118.056117,33.3027178 117.252717,32.3178049 C116.247657,31.1229268 115.767398,29.5794425 115.608662,28.0527875 C115.429678,26.4387805 115.565738,24.7702787 116.136703,23.2404181 C116.600764,22.0335192 117.380678,20.9115679 118.480494,20.1927178 L118.480494,20.1927178 Z" id="Shape" fill="#D3D1D1" sketch:type="MSShapeGroup"></path>
            <path d="M136.182837,19.4354007 C136.463866,19.4362021 136.751373,19.4065505 137.028352,19.4738676 C137.24054,19.5323693 137.37174,19.7455401 137.380649,19.9563066 C137.344204,20.1438328 137.191947,20.2776655 137.083423,20.4243206 C137.251068,20.655122 137.414664,20.8899303 137.571781,21.1287456 C137.433291,21.1255401 137.300471,21.1231359 137.166031,21.1207317 C137.008914,20.8514634 136.823452,20.5990244 136.586967,20.3954704 C136.56915,20.6366899 136.560241,20.8787108 136.555382,21.1207317 C136.429851,21.1231359 136.305939,21.1247387 136.183647,21.1271429 C136.178788,20.5629617 136.179598,19.9995819 136.182837,19.4354007 L136.182837,19.4354007 Z" id="Shape" fill="#D3D1D1" sketch:type="MSShapeGroup"></path>
            <path d="M100.144825,19.8360976 C101.65444,19.7279094 103.169724,19.7150871 104.679339,19.598885 C104.698777,22.9759582 104.681769,26.3530314 104.687438,29.7293031 C104.696347,30.4497561 104.641275,31.1814286 104.800011,31.890662 C104.871281,32.2152265 105.042975,32.554216 105.365307,32.6952613 C105.806692,32.8835889 106.299908,32.8234843 106.768828,32.8355052 C106.770448,33.1496516 106.769638,33.4637979 106.768828,33.7787456 C104.508455,33.7811498 102.247272,33.783554 99.9868983,33.7771429 C99.9852786,33.4629965 99.9852786,33.1496516 99.9877082,32.8363066 C100.535997,32.8178746 101.18228,32.920453 101.626904,32.5245645 C102.035893,32.0773868 102.014026,31.4242509 102.061809,30.8592683 C102.073148,28.5873171 102.062619,26.3145645 102.065859,24.0418118 C102.05938,23.2700697 102.110402,22.4887108 101.947616,21.7281882 C101.883636,21.4404878 101.755675,21.1343554 101.482746,20.9844948 C101.076996,20.7609059 100.593498,20.8009756 100.146445,20.7873519 C100.144015,20.4708014 100.144015,20.1534495 100.144825,19.8360976 L100.144825,19.8360976 Z" id="Shape" fill="#D3D1D1" sketch:type="MSShapeGroup"></path>
            <path id="Shape" fill="#FFFFFF" sketch:type="MSShapeGroup" d="M136.563481,19.7319164 C136.70197,19.7415331 136.842079,19.7519512 136.982998,19.7631707 C136.991907,19.8729617 137.001626,19.983554 137.013774,20.0941463 C136.864756,20.1286063 136.714928,20.1590592 136.56753,20.187108 C136.564291,20.0348432 136.563481,19.8833798 136.563481,19.7319164 L136.563481,19.7319164 Z"></path>
            <path d="M77.6917289,20.4716028 C78.429529,20.2800697 79.2385985,20.4748084 79.8403389,20.9283972 C80.5368352,21.4493031 80.9263871,22.2627178 81.1612522,23.0745296 C81.5062608,24.2998606 81.5459449,25.5812892 81.5686215,26.8458885 C81.5370362,28.2707666 81.4690063,29.7277003 80.9765997,31.0820557 C80.6947616,31.8401742 80.2315106,32.5966899 79.4742734,32.9645296 C78.597174,33.3820557 77.4673923,33.3131359 76.6939575,32.7072822 C76.1108443,32.244878 75.7658357,31.558885 75.5414991,30.8672822 C75.2750488,30.0170035 75.1543768,29.1282578 75.1017346,28.2419164 C75.0175072,27.2145296 75.0191269,26.1791289 75.1074038,25.1517422 C75.1754337,24.194878 75.3236416,23.2275958 75.7002355,22.3380488 C76.0573923,21.4805575 76.7700862,20.7232404 77.6917289,20.4716028 L77.6917289,20.4716028 Z" id="Shape" fill="#FFFFFF" sketch:type="MSShapeGroup"></path>
            <path d="M119.598937,21.3715679 C119.938277,20.9324042 120.433923,20.5990244 120.99193,20.5124739 C121.613107,20.4034843 122.272349,20.6182578 122.724262,21.0510105 C123.234486,21.5358537 123.521183,22.2010105 123.709075,22.8645645 C123.955279,23.7725436 124.037076,24.7181882 124.016829,25.6558188 C122.630316,25.6606272 121.244612,25.6574216 119.858909,25.6574216 C119.401327,25.6486063 118.939696,25.6958885 118.486973,25.6197561 C118.461057,24.9850523 118.541235,24.3471429 118.644899,23.7212544 C118.802016,22.8886063 119.066847,22.0487456 119.598937,21.3715679 L119.598937,21.3715679 Z" id="Shape" fill="#FFFFFF" sketch:type="MSShapeGroup"></path>
            <path d="M92.6769271,20.6270732 C93.3604652,20.5437282 94.0836875,20.7697213 94.5615164,21.2689895 C95.2013211,21.9237282 95.4953073,22.8244948 95.67834,23.6980139 C95.9496496,25.0764111 95.9755658,26.4924739 95.9010569,27.8917073 C95.8346468,28.9479443 95.6969673,30.0154007 95.3203733,31.0115331 C95.0587823,31.6919164 94.6457438,32.3618815 93.992981,32.7337282 C93.4819472,33.0390592 92.8551005,33.0398606 92.2833257,32.9557143 C91.3932682,32.7914286 90.6951522,32.1086411 90.3056002,31.3280836 C89.7070994,30.1404181 89.5556519,28.794878 89.494911,27.4862021 C89.4171626,26.710453 89.5021999,25.9322997 89.5532223,25.1581533 C89.6568868,24.0666551 89.924147,22.9575261 90.555853,22.0407317 C91.0401608,21.3250871 91.7933487,20.7360627 92.6769271,20.6270732 L92.6769271,20.6270732 Z" id="Shape" fill="#FFFFFF" sketch:type="MSShapeGroup"></path>
            <path d="M18.5672947,22.4718815 C20.0096898,22.4726829 21.452085,22.4710801 22.8952901,22.4726829 C22.9033889,23.8919512 22.8928604,25.3120209 22.9098679,26.7320906 C21.4609937,26.7312892 20.0129294,26.732892 18.564865,26.7312892 C18.5624354,25.3112195 18.5575761,23.8919512 18.5672947,22.4718815 L18.5672947,22.4718815 Z" id="Shape" fill="#D3D1D1" sketch:type="MSShapeGroup"></path>
            <path d="M31.5618093,22.4822997 C33.0123033,22.4590592 34.464417,22.4766899 35.9157209,22.4734843 C35.9205801,23.8919512 35.9189604,25.3112195 35.9165307,26.7296864 C34.4676565,26.7344948 33.0187823,26.7304878 31.570718,26.7312892 C31.5577599,25.3152265 31.5747674,23.8991638 31.5618093,22.4822997 L31.5618093,22.4822997 Z" id="Shape" fill="#D3D1D1" sketch:type="MSShapeGroup"></path>
            <path d="M44.5733314,22.4726829 C46.0311143,22.4750871 47.4897071,22.464669 48.9482998,22.4782927 C48.9499196,23.893554 48.9482998,25.3096167 48.9491097,26.7256794 C47.4897071,26.7385017 46.0303044,26.7296864 44.5717117,26.7304878 C44.569282,25.3112195 44.5660425,23.8919512 44.5733314,22.4726829 L44.5733314,22.4726829 Z" id="Shape" fill="#D3D1D1" sketch:type="MSShapeGroup"></path>
            <path d="M5.40594486,22.4742857 C6.85481907,22.4710801 8.30450316,22.4702787 9.75337737,22.4742857 C9.75823665,23.8919512 9.75499713,25.3096167 9.75499713,26.7272822 C8.30369328,26.7320906 6.85238943,26.7409059 5.40108558,26.7232753 C5.4083745,25.3064111 5.39865594,23.8903484 5.40594486,22.4742857 L5.40594486,22.4742857 Z" id="Shape" fill="#D3D1D1" sketch:type="MSShapeGroup"></path>
            <path d="M130.59467,22.4758885 C132.049213,22.4702787 133.502947,22.4678746 134.95749,22.4766899 C134.960729,23.893554 134.95992,25.3104181 134.9583,26.7272822 C133.503756,26.7352962 132.049213,26.7336934 130.59467,26.7280836 C130.59224,25.3104181 130.59143,23.8927526 130.59467,22.4758885 L130.59467,22.4758885 Z" id="Shape" fill="#D3D1D1" sketch:type="MSShapeGroup"></path>
        </g>
    </g>
</svg>