<?xml version="1.0" encoding="UTF-8" standalone="no"?>
<svg width="140px" height="105px" viewBox="0 0 140 105" version="1.1" xmlns="http://www.w3.org/2000/svg" xmlns:xlink="http://www.w3.org/1999/xlink" xmlns:sketch="http://www.bohemiancoding.com/sketch/ns">
    <!-- Generator: Sketch 3.1.1 (8761) - http://www.bohemiancoding.com/sketch -->
    <title>todayshow_default</title>
    <desc>Created with Sketch.</desc>
    <defs></defs>
    <g id="Clients" stroke="none" stroke-width="1" fill="none" fill-rule="evenodd" sketch:type="MSPage">
        <g sketch:type="MSArtboardGroup" transform="translate(-1065.000000, -972.000000)" id="Group" fill="#F3F1EF">
            <g sketch:type="MSLayerGroup" transform="translate(235.000000, 972.000000)">
                <g id="Today-Show" transform="translate(830.000000, 0.000000)" sketch:type="MSShapeGroup">
                    <g id="todayshow_default">
                        <path d="M25.0379394,81.76875 L16.3231515,81.76875 L16.3231515,104.387782 L8.71393939,104.387782 L8.71393939,81.76875 L0,81.76875 L0,75.2358871 L25.0379394,75.2358871 L25.0379394,81.76875" id="Fill-1"></path>
                        <path d="M40.8723636,98.4679839 C45.7825455,98.4679839 47.6644848,94.1392742 47.6644848,89.8114113 C47.6644848,85.4835484 45.7825455,81.1556855 40.8723636,81.1556855 C35.9638788,81.1556855 34.0810909,85.4835484 34.0810909,89.8114113 C34.0810909,94.1392742 35.9638788,98.4679839 40.8723636,98.4679839 L40.8723636,98.4679839 Z M40.8723636,74.6228226 C50.0784242,74.6228226 55.273697,81.3606048 55.273697,89.8114113 C55.273697,98.2630645 50.0784242,105 40.8723636,105 C31.668,105 26.4727273,98.2630645 26.4727273,89.8114113 C26.4727273,81.3606048 31.668,74.6228226 40.8723636,74.6228226 L40.8723636,74.6228226 Z" id="Fill-4"></path>
                        <path d="M66.2004848,97.8549194 L69.8014545,97.8549194 C75.5694545,97.7312903 77.8612121,95.4873387 77.8612121,89.6488306 C77.8612121,84.3404032 74.9967273,81.76875 69.8014545,81.76875 L66.2004848,81.76875 L66.2004848,97.8549194 L66.2004848,97.8549194 Z M58.5912727,75.2358871 L71.1513939,75.2358871 C80.109697,75.2358871 85.4695758,80.6654032 85.4695758,89.688629 C85.4695758,99.2427823 80.0290909,104.387782 71.1513939,104.387782 L58.5912727,104.387782 L58.5912727,75.2358871 L58.5912727,75.2358871 Z" id="Fill-5"></path>
                        <path d="M97.2558788,93.5279032 L103.883394,93.5279032 L100.651515,83.3200403 L100.570061,83.3200403 L97.2558788,93.5279032 L97.2558788,93.5279032 Z M96.7646061,75.2358871 L104.497697,75.2358871 L115.420242,104.387782 L107.483515,104.387782 L105.683879,99.1623387 L95.4969697,99.1623387 L93.6557576,104.387782 L85.8420606,104.387782 L96.7646061,75.2358871 L96.7646061,75.2358871 Z" id="Fill-6"></path>
                        <path d="M128.639636,93.5279032 L128.639636,104.387782 L121.028727,104.387782 L121.028727,93.5279032 L110.392121,75.2358871 L119.024606,75.2358871 L124.834182,87.0754839 L130.642909,75.2358871 L139.275394,75.2358871 L128.639636,93.5279032" id="Fill-7"></path>
                        <path d="M69.6130909,48.3872177 C57.9167273,48.3872177 48.4009697,57.8837903 48.4009697,69.5565726 L61.9767273,69.5565726 C61.9767273,65.3540323 65.4029091,61.9356048 69.6130909,61.9356048 C73.8241212,61.9356048 77.2494545,65.3540323 77.2494545,69.5565726 L90.8252121,69.5565726 C90.8252121,57.8837903 81.310303,48.3872177 69.6130909,48.3872177" id="Fill-8"></path>
                        <path d="M69.6130909,32.2985081 C49.028,32.2985081 32.2797576,49.0121371 32.2797576,69.5565726 L45.8555152,69.5565726 C45.8555152,56.4832258 56.5133333,45.8468952 69.6130909,45.8468952 C82.713697,45.8468952 93.3706667,56.4832258 93.3706667,69.5565726 L106.946424,69.5565726 C106.946424,49.0121371 90.1990303,32.2985081 69.6130909,32.2985081" id="Fill-9"></path>
                        <path d="M69.6130909,16.2097984 C40.1384242,16.2097984 16.1585455,40.1413306 16.1585455,69.5565726 L29.734303,69.5565726 C29.734303,47.6115726 47.6237576,29.7581855 69.6130909,29.7581855 C91.6024242,29.7581855 109.491879,47.6115726 109.491879,69.5565726 L123.067636,69.5565726 C123.067636,40.1413306 99.0886061,16.2097984 69.6130909,16.2097984" id="Fill-10"></path>
                        <path d="M69.6130909,0.12108871 C31.249697,0.12108871 0.0373333333,31.2696774 0.0373333333,69.5565726 L13.6130909,69.5565726 C13.6130909,38.7399194 38.7350303,13.6694758 69.6130909,13.6694758 C100.492,13.6694758 125.613091,38.7399194 125.613091,69.5565726 L139.188848,69.5565726 C139.188848,31.2696774 107.977333,0.12108871 69.6130909,0.12108871" id="Fill-12"></path>
                    </g>
                </g>
            </g>
        </g>
    </g>
</svg>