<?xml version="1.0" encoding="UTF-8" standalone="no"?>
<svg width="141px" height="46px" viewBox="0 0 141 46" version="1.1" xmlns="http://www.w3.org/2000/svg" xmlns:xlink="http://www.w3.org/1999/xlink" xmlns:sketch="http://www.bohemiancoding.com/sketch/ns">
    <!-- Generator: Sketch 3.1.1 (8761) - http://www.bohemiancoding.com/sketch -->
    <title>tropicana_hover</title>
    <desc>Created with Sketch.</desc>
    <defs>
        <linearGradient x1="50.0000571%" y1="-2.50173675e-06%" x2="50.0000571%" y2="100.000151%" id="linearGradient-1">
            <stop stop-color="#028C63" offset="0%"></stop>
            <stop stop-color="#055039" offset="100%"></stop>
        </linearGradient>
        <linearGradient x1="49.9954973%" y1="-0.00178371243%" x2="49.9954973%" y2="100.000232%" id="linearGradient-2">
            <stop stop-color="#028C63" offset="0%"></stop>
            <stop stop-color="#055039" offset="100%"></stop>
        </linearGradient>
        <linearGradient x1="49.9986105%" y1="-0.000675553954%" x2="49.9986105%" y2="100.000901%" id="linearGradient-3">
            <stop stop-color="#028C63" offset="0%"></stop>
            <stop stop-color="#055039" offset="100%"></stop>
        </linearGradient>
        <linearGradient x1="49.9994449%" y1="-0.00101712345%" x2="49.9994449%" y2="99.9994076%" id="linearGradient-4">
            <stop stop-color="#028C63" offset="0%"></stop>
            <stop stop-color="#055039" offset="100%"></stop>
        </linearGradient>
        <linearGradient x1="49.9994407%" y1="0.000468724367%" x2="49.9994407%" y2="100.002578%" id="linearGradient-5">
            <stop stop-color="#028C63" offset="0%"></stop>
            <stop stop-color="#055039" offset="100%"></stop>
        </linearGradient>
        <linearGradient x1="100.100132%" y1="-2.15997955%" x2="6.58228525%" y2="86.5905165%" id="linearGradient-6">
            <stop stop-color="#028C63" offset="0%"></stop>
            <stop stop-color="#055039" offset="100%"></stop>
        </linearGradient>
        <linearGradient x1="50.0004388%" y1="-0.000680596202%" x2="50.0004388%" y2="100.000681%" id="linearGradient-7">
            <stop stop-color="#028C63" offset="0%"></stop>
            <stop stop-color="#055039" offset="100%"></stop>
        </linearGradient>
        <linearGradient x1="50.0034837%" y1="-0.000896184683%" x2="50.0034837%" y2="100.001021%" id="linearGradient-8">
            <stop stop-color="#028C63" offset="0%"></stop>
            <stop stop-color="#055039" offset="100%"></stop>
        </linearGradient>
        <linearGradient x1="50.0003982%" y1="0.00092333972%" x2="50.0003982%" y2="100.002539%" id="linearGradient-9">
            <stop stop-color="#028C63" offset="0%"></stop>
            <stop stop-color="#055039" offset="100%"></stop>
        </linearGradient>
        <linearGradient x1="50.0033019%" y1="-0.000896184683%" x2="50.0033019%" y2="100.001021%" id="linearGradient-10">
            <stop stop-color="#028C63" offset="0%"></stop>
            <stop stop-color="#055039" offset="100%"></stop>
        </linearGradient>
    </defs>
    <g id="Clients" stroke="none" stroke-width="1" fill="none" fill-rule="evenodd" sketch:type="MSPage">
        <g sketch:type="MSArtboardGroup" transform="translate(-442.000000, -1014.000000)" id="Group">
            <g sketch:type="MSLayerGroup" transform="translate(235.000000, 972.000000)">
                <g id="Tropicana_Products" transform="translate(207.000000, 43.000000)" sketch:type="MSShapeGroup">
                    <g id="tropicana_hover">
                        <path d="M19.1234167,38.0501579 C19.1234167,38.0501579 16.9936667,20.9295263 18.0541667,7.70173684 C22.23375,8.41210526 25.8696667,9.96715789 27.6033333,10.7417895 L28.9636667,1.87 C14.50575,-2.03847368 3.98183333,0.517578947 1.86141667,1.49484211 C0.0455,6.23121053 0.273,13.0720526 0.273,13.0720526 C4.221,9.83573684 7.48416667,8.45726316 10.8914167,7.70694737 C10.5880833,9.35926316 8.673,23.5411579 10.4900833,38.0501579 L19.1234167,38.0501579" id="Shape" fill="url(#linearGradient-1)"></path>
                        <path d="M27.5263333,26.2043158 C27.6733333,30.3391579 28.2000833,35.0836316 28.7163333,38.0501579 L21.2350833,38.0501579 C20.9125,32.3405789 20.43825,22.7427895 21.4993333,13.3470526 L27.3303333,13.3470526 C27.3303333,13.3470526 27.3705833,13.3777368 27.33325,14.8268421 C28.1044167,14.2646842 28.63525,13.6174211 29.8468333,13.2932105 C31.073,12.9672632 32.6765833,13.0726316 33.9669167,13.2932105 L32.7821667,19.1851579 C30.3076667,19.1122105 27.2475,18.5355789 27.5263333,26.2043158" id="Shape" fill="url(#linearGradient-2)"></path>
                        <path d="M41.0999167,33.209 C42.19075,33.209 43.0750833,30.9088421 43.0750833,25.4812105 C43.0750833,20.0524211 42.19075,17.7528421 41.0999167,17.7528421 C40.0125833,17.7528421 39.1305833,20.0518421 39.1305833,25.4812105 C39.1305833,30.9094211 40.0125833,33.209 41.0999167,33.209 L41.0999167,33.209 Z M32.788,25.6658947 C32.788,16.4832105 36.5475833,12.8167368 41.1815833,12.8167368 C45.8185,12.8167368 49.581,16.4832105 49.581,25.6658947 C49.581,34.9435263 45.8179167,38.5266316 41.1815833,38.5266316 C36.5475833,38.5266316 32.788,34.9435263 32.788,25.6658947 L32.788,25.6658947 Z" id="Shape" fill="url(#linearGradient-3)"></path>
                        <path d="M56.8405833,29.9188421 C56.6760833,26.3675789 56.5979167,20.8774211 56.8405833,17.8118947 C58.7095833,17.4089474 60.256,19.2662105 60.256,23.3784737 C60.2565833,27.5017368 59.2806667,30.4022632 56.8405833,29.9188421 L56.8405833,29.9188421 Z M57.3265,35.2428421 C61.3940833,35.2428421 66.3524167,34.1150526 66.3524167,24.2688947 C66.3524167,14.5043684 62.0865,13.2503684 57.2465833,13.0512105 C55.2959167,12.9695789 51.3111667,13.3470526 51.3111667,13.3470526 C50.6298333,16.7298421 50.0091667,33.0764211 51.1478333,43.4077368 C51.1478333,43.4077368 56.602,43.4141053 58.4185,43.3990526 C58.4185,43.3990526 57.5090833,37.6616842 57.3265,35.2428421 L57.3265,35.2428421 Z" id="Shape" fill="url(#linearGradient-4)"></path>
                        <path d="M67.802,13.3464737 C67.7238333,14.9999474 66.4953333,26.3212632 67.5593333,38.0495789 L74.59725,38.0495789 C74.59725,38.0495789 73.4055,26.2969474 74.1189167,13.3464737 L67.802,13.3464737" id="Shape" fill="url(#linearGradient-5)"></path>
                        <path d="M78.8316667,2.97463158 C78.8316667,3.39205263 77.9298333,3.74115789 76.7124167,5.84215789 C76.60975,6.01584211 75.8875833,7.40068421 75.768,7.66642105 C75.6484167,7.93447368 75.3666667,8.51573684 75.1846667,8.84515789 C74.9904167,9.19078947 74.6019167,9.70373684 74.6019167,9.70373684 C73.9095,10.6468421 72.6535833,11.3108947 71.2133333,11.3826842 C70.4719167,11.4156842 69.6336667,11.4602632 69.4983333,11.0573158 C69.32625,10.5449474 71.9401667,6.43615789 76.9603333,3.74984211 C73.30925,4.48221053 70.8901667,6.952 69.70775,8.59736842 C69.0666667,9.49126316 68.789,10.3741579 68.6554167,10.417 C68.2675,10.5316316 67.65675,9.50515789 67.6468333,8.71836842 C67.6229167,7.17605263 68.7691667,5.434 70.9374167,4.279 C73.6061667,2.85710526 78.8316667,2.52942105 78.8316667,2.97463158" id="Shape" fill="url(#linearGradient-6)"></path>
                        <path d="M84.0180833,18.0573684 C86.0515833,17.5687368 87.2905833,18.337 88.1025833,18.9807895 L88.1025833,13.9381579 C87.2095,13.3754211 86.1326667,12.8167368 83.202,12.8167368 C78.5668333,12.8167368 74.81075,16.3882632 74.81075,25.5726842 C74.81075,34.7611579 78.56625,38.3361579 83.2066667,38.3361579 C86.13325,38.3315263 87.2095,37.7763158 88.1031667,37.2124211 L88.1031667,32.1663158 C87.2911667,32.8153158 86.0521667,33.5783684 84.0186667,33.0932105 C82.9593333,32.8448421 81.4934167,31.0049474 81.4934167,25.5732632 C81.4928333,20.1479474 82.95875,18.3080526 84.0180833,18.0573684" id="Shape" fill="url(#linearGradient-7)"></path>
                        <path d="M98.42875,30.7351579 C98.42875,32.1281053 97.6896667,32.6115263 96.8543333,32.6115263 C96.0236667,32.6115263 94.8873333,32.4505789 94.8873333,30.3594211 C94.8873333,27.2771053 97.5251667,26.3693158 98.42875,25.0186316 C98.42875,25.0192105 98.42875,30.2349474 98.42875,30.7351579 L98.42875,30.7351579 Z M95.7885833,17.6503684 C98.2304167,17.4882632 98.476,19.5869474 96.8479167,20.4756316 C90.4073333,23.9904211 88.6935,26.5198421 88.6935,30.7241579 C88.6935,38.0495789 94.5064167,38.3552632 96.7790833,38.4038947 C100.534583,38.4739474 103.606417,38.0223684 103.606417,38.0223684 C103.606417,38.0223684 104.640083,33.1922105 104.264417,21.9027368 C103.922583,11.836 97.17225,12.0015789 90.3408333,14.1176316 C90.45575,16.0918421 90.3408333,19.3194737 90.3408333,19.3194737 C92.94775,18.0278421 94.6411667,17.7256316 95.7885833,17.6503684 L95.7885833,17.6503684 Z" id="Shape" fill="url(#linearGradient-8)"></path>
                        <path d="M116.689417,12.969 C115.170417,12.969 113.519,13.2926316 112.34475,15.0867895 L112.357,15.0792632 L112.3955,13.3302632 L106.0675,13.3302632 C105.995167,14.9837368 105.008167,26.3206842 106.0675,38.0495789 L112.786333,38.0495789 C112.786333,38.0495789 111.4855,30.3212105 112.22225,21.4494211 C112.519167,17.9004737 115.46325,18.6270526 115.689,21.3562105 C116.447917,30.5626316 115.5525,38.0495789 115.5525,38.0495789 L122.302833,38.0495789 C122.299333,28.8883158 124.709083,12.969 116.689417,12.969" id="Shape" fill="url(#linearGradient-9)"></path>
                        <path d="M133.170917,30.7351579 C133.170917,32.1281053 132.43125,32.6115263 131.5965,32.6115263 C130.762917,32.6115263 129.626583,32.4505789 129.626583,30.3594211 C129.626583,27.2771053 132.26325,26.3693158 133.170917,25.0186316 C133.170917,25.0192105 133.170917,30.2349474 133.170917,30.7351579 L133.170917,30.7351579 Z M130.5325,17.6503684 C132.972583,17.4882632 133.218167,19.5869474 131.590083,20.4756316 C125.144833,23.9904211 123.435667,26.5198421 123.435667,30.7241579 C123.435667,38.0495789 129.24625,38.3552632 131.518917,38.4038947 C135.274417,38.4739474 138.34625,38.0223684 138.34625,38.0223684 C138.34625,38.0223684 139.384,33.1922105 138.999583,21.9027368 C138.662417,11.836 131.912083,12.0015789 125.082417,14.1176316 C125.197917,16.0918421 125.082417,19.3194737 125.082417,19.3194737 C127.687,18.0278421 129.383333,17.7256316 130.5325,17.6503684 L130.5325,17.6503684 Z" id="Shape" fill="url(#linearGradient-10)"></path>
                        <path d="M138.47925,42.2029474 C138.742333,42.2029474 138.975083,42.1861579 138.975083,41.8764211 C138.975083,41.6263158 138.746417,41.5817368 138.532917,41.5817368 L138.114083,41.5817368 L138.114083,42.2029474 L138.47925,42.2029474 L138.47925,42.2029474 Z M138.114083,43.3353684 L137.804333,43.3353684 L137.804333,41.3235263 L138.580167,41.3235263 C139.056167,41.3235263 139.297667,41.4995263 139.297667,41.8978421 C139.297667,42.2562105 139.066667,42.4154211 138.76975,42.4513158 L139.346667,43.3347895 L139.000167,43.3347895 L138.466417,42.4657895 L138.114083,42.4657895 L138.114083,43.3353684 L138.114083,43.3353684 Z M138.483333,43.7828947 C139.280167,43.7828947 139.910167,43.1657368 139.910167,42.3239474 C139.910167,41.4989474 139.280167,40.8754211 138.483333,40.8754211 C137.680083,40.8754211 137.0565,41.4989474 137.0565,42.3239474 C137.0565,43.1657368 137.680083,43.7828947 138.483333,43.7828947 L138.483333,43.7828947 Z M136.701833,42.3239474 C136.701833,41.3229474 137.517917,40.5830526 138.483917,40.5830526 C139.444667,40.5830526 140.265417,41.3229474 140.265417,42.3239474 C140.265417,43.3347895 139.44525,44.077 138.483917,44.077 C137.517917,44.0775789 136.701833,43.3353684 136.701833,42.3239474 L136.701833,42.3239474 Z" id="Shape" fill="#055039"></path>
                    </g>
                </g>
            </g>
        </g>
    </g>
</svg>