<?xml version="1.0" encoding="UTF-8" standalone="no"?>
<svg width="140px" height="140px" viewBox="0 0 140 140" version="1.1" xmlns="http://www.w3.org/2000/svg" xmlns:xlink="http://www.w3.org/1999/xlink" xmlns:sketch="http://www.bohemiancoding.com/sketch/ns">
    <!-- Generator: Sketch 3.4 (15588) - http://www.bohemiancoding.com/sketch -->
    <title>Slice 1</title>
    <desc>Created with Sketch.</desc>
    <defs></defs>
    <g id="Page-1" stroke="none" stroke-width="1" fill="none" fill-rule="evenodd" sketch:type="MSPage">
        <g id="uniqlo_default" sketch:type="MSLayerGroup">
            <path d="M0,0 L139.751545,0 C139.826919,1.91675025 139.761316,3.83911735 139.783649,5.75867603 C139.783649,50.5053159 139.785045,95.2533601 139.783649,140 L0,140 L0,0 L0,0 Z" id="Shape" fill="#7B7B7B" sketch:type="MSShapeGroup"></path>
            <path id="Shape" fill="#FFFFFF" sketch:type="MSShapeGroup" d="M139.751545,0 L140,0 L140,140 L139.783649,140 C139.785045,95.2533601 139.783649,50.5053159 139.783649,5.75867603 C139.761316,3.83911735 139.826919,1.91675025 139.751545,0 L139.751545,0 Z"></path>
            <path d="M17.7686939,19.1281846 C20.6691924,19.1281846 23.5696909,19.1267803 26.4701894,19.1295888 C26.4701894,28.996991 26.4715852,38.8643932 26.4701894,48.7317954 C26.4911266,49.9843531 26.8889332,51.2312939 27.620339,52.2465396 C28.6671984,53.7336008 30.4287139,54.6884654 32.2418744,54.7277834 C33.5595214,54.7755266 34.8911266,54.3669007 35.9477567,53.5707121 C37.494317,52.4375125 38.4336989,50.5137412 38.3639083,48.5885657 C38.3569292,38.7787362 38.3764706,28.9675025 38.3541376,19.1590772 C41.2239282,19.0888666 44.0993021,19.1464393 46.9704885,19.1295888 C46.9718843,28.950652 46.9718843,38.7731194 46.9704885,48.5941825 C46.9858425,51.7564694 46.0366899,54.9412237 44.1676969,57.4982949 C42.0711864,60.4134403 38.8245264,62.4425276 35.3112662,63.092678 C32.3144566,63.6782347 29.1431705,63.3285858 26.3459621,62.0956871 C23.5850449,60.8782347 21.2247258,58.7592778 19.7186441,56.1305918 C18.4065803,53.8571715 17.7351944,51.2172518 17.7686939,48.5899699 C17.7672981,38.7689067 17.7672981,28.9492477 17.7686939,19.1281846 L17.7686939,19.1281846 Z" id="Shape" fill="#FFFFFF" sketch:type="MSShapeGroup"></path>
            <path d="M58.9298106,19.1267803 C61.9014955,19.130993 64.8717846,19.1141424 67.8420738,19.1352056 C71.667996,27.5731194 75.5525424,35.9843531 79.3672981,44.4278837 C79.4091725,35.9955868 79.3728814,27.5618857 79.3854437,19.1295888 C82.3627119,19.1211635 85.3385842,19.1267803 88.3158524,19.1267803 C88.3102692,33.8752257 88.3270189,48.6250752 88.3074776,63.3735206 C85.3371884,63.3679037 82.3682951,63.3735206 79.3994018,63.3707121 C75.5302094,54.9285858 71.7154536,46.4597793 67.8225324,38.0288867 C67.802991,46.4766299 67.8281157,54.9243731 67.8085743,63.3721163 C64.8508475,63.3707121 61.8945165,63.3721163 58.9367896,63.3707121 C58.9214357,48.6222668 58.933998,33.8752257 58.9298106,19.1267803 L58.9298106,19.1267803 Z" id="Shape" fill="#FFFFFF" sketch:type="MSShapeGroup"></path>
            <path d="M102.91326,19.1295888 C105.894716,19.1295888 108.876171,19.1239719 111.857627,19.1323972 C111.85344,33.8794383 111.860419,48.6264794 111.85344,63.3735206 C108.876171,63.376329 105.897507,63.3735206 102.920239,63.376329 C102.906281,48.6278837 102.917448,33.8780341 102.91326,19.1295888 L102.91326,19.1295888 Z" id="Shape" fill="#FFFFFF" sketch:type="MSShapeGroup"></path>
            <path d="M25.6257228,78.4421264 C30.0867398,76.0900702 35.7579262,76.2529589 40.0514457,78.9195587 C43.3413759,80.9177533 45.7477567,84.3047141 46.5894317,88.0750251 C46.8713858,89.3065196 46.9928215,90.5745236 46.9704885,91.8383149 C46.9690927,96.6112337 46.9704885,101.385557 46.9704885,106.158475 C47.0081755,110.022869 45.4057827,113.795988 42.8947159,116.680241 C44.2500499,121.11334 45.5956132,125.547844 46.9718843,129.972518 C44.1048853,129.97673 41.2378863,129.980943 38.3694915,129.969709 C37.360319,126.901505 36.3316052,123.838917 35.3224327,120.769308 C33.1868395,121.102106 30.9814556,121.131595 28.8751745,120.585356 C24.4616152,119.513942 20.6566301,116.242126 18.9006979,112.032297 C18.1595214,110.27001 17.7491525,108.357472 17.7686939,106.442126 C17.7672981,102.322166 17.7672981,98.2036108 17.7672981,94.083651 C17.8035892,92.4042126 17.6556331,90.709328 17.9487537,89.045336 C18.64666,84.5504514 21.5988036,80.5007021 25.6257228,78.4421264 L25.6257228,78.4421264 Z" id="Shape" fill="#FFFFFF" sketch:type="MSShapeGroup"></path>
            <path d="M58.9395813,76.7767302 C61.8945165,76.7795386 64.8508475,76.775326 67.8071785,76.7781344 C67.8281157,88.5215647 67.8099701,100.266399 67.8155533,112.011234 C74.64666,112.029488 81.4763709,112.016851 88.3060818,112.018255 C88.3284148,115.014845 88.3102692,118.012839 88.3158524,121.010832 C78.5200399,121.010832 68.7256231,121.012237 58.9312064,121.010832 C58.933998,106.265196 58.9172483,91.5209629 58.9395813,76.7767302 L58.9395813,76.7767302 Z" id="Shape" fill="#FFFFFF" sketch:type="MSShapeGroup"></path>
            <path d="M105.986839,76.8595787 C110.563709,76.3765296 115.330409,78.241324 118.331406,81.7644935 C119.967298,83.6419258 121.102094,85.9532598 121.600399,88.397994 C121.878166,89.7109328 121.933998,91.0561685 121.908873,92.3957874 C121.907478,97.0718154 121.910269,101.749248 121.907478,106.42668 C121.899103,108.993581 121.215155,111.556269 119.921236,113.770712 C118.438883,116.330592 116.170688,118.424273 113.496311,119.667001 C109.948156,121.333801 105.725823,121.457372 102.078564,120.030692 C98.7034895,118.727583 95.8685942,116.091876 94.2983051,112.818656 C93.3198405,110.845737 92.8494516,108.648144 92.8061815,106.451956 C92.7922233,102.515948 92.8047856,98.5785356 92.8005982,94.6425276 C92.8103689,92.9069208 92.7433699,91.1656971 92.9457627,89.4385155 C93.2821535,86.9235707 94.2662014,84.4956871 95.8057827,82.4834504 C98.2191426,79.284654 102.005982,77.1797392 105.986839,76.8595787 L105.986839,76.8595787 Z" id="Shape" fill="#FFFFFF" sketch:type="MSShapeGroup"></path>
            <path d="M30.9158524,85.6260782 C32.5866401,85.1837513 34.4458624,85.5053159 35.8584247,86.5135406 C37.427318,87.5975928 38.4169492,89.4988967 38.3625125,91.4184554 C38.3569292,96.5213641 38.3708873,101.625677 38.3555334,106.728586 C38.1866401,109.666199 35.3964108,112.050552 32.5196411,112.019659 C29.8787637,112.119358 27.2965105,110.21665 26.6334995,107.637111 C26.4757727,107.065597 26.4506481,106.471615 26.4673978,105.88325 C26.4701894,101.575125 26.4673978,97.267001 26.4687936,92.9588766 C26.4813559,91.8958877 26.3850449,90.8104313 26.6949153,89.7769308 C27.2378863,87.7689067 28.908674,86.1287864 30.9158524,85.6260782 L30.9158524,85.6260782 Z" id="Shape" fill="#7B7B7B" sketch:type="MSShapeGroup"></path>
            <path d="M105.989631,85.5923771 C107.465005,85.2385155 109.070189,85.4772317 110.379462,86.2509529 C112.124227,87.2647944 113.334397,89.2222668 113.316251,91.2682046 C113.317647,95.998997 113.316251,100.731194 113.316251,105.46339 C113.305085,106.119157 113.363709,106.786158 113.226919,107.433501 C112.859821,109.096088 111.69013,110.522768 110.203589,111.31334 C108.696112,112.136209 106.832702,112.252758 105.231705,111.637713 C103.112861,110.845737 101.415553,108.766098 101.397408,106.442126 C101.398804,101.346239 101.389033,96.2503511 101.402991,91.1544634 C101.457428,88.5384152 103.456231,86.1484453 105.989631,85.5923771 L105.989631,85.5923771 Z" id="Shape" fill="#7B7B7B" sketch:type="MSShapeGroup"></path>
        </g>
    </g>
</svg>