<?xml version="1.0" encoding="UTF-8" standalone="no"?>
<svg width="141px" height="140px" viewBox="0 0 141 140" version="1.1" xmlns="http://www.w3.org/2000/svg" xmlns:xlink="http://www.w3.org/1999/xlink" xmlns:sketch="http://www.bohemiancoding.com/sketch/ns">
    <!-- Generator: Sketch 3.4 (15588) - http://www.bohemiancoding.com/sketch -->
    <title>Slice 1</title>
    <desc>Created with Sketch.</desc>
    <defs></defs>
    <g id="Page-1" stroke="none" stroke-width="1" fill="none" fill-rule="evenodd" sketch:type="MSPage">
        <g id="uniqlo_hover" sketch:type="MSLayerGroup">
            <path d="M0,0 L139.783649,0 L139.783649,140 L0,140 L0,0 L0,0 Z" id="Shape" fill="#ED1D24" sketch:type="MSShapeGroup"></path>
            <path id="Shape" fill="#FFFFFF" sketch:type="MSShapeGroup" d="M139.783649,0 L140,0 L140,140 L139.783649,140 L139.783649,0 L139.783649,0 Z"></path>
            <path d="M17.7617149,19.1239719 C20.6664008,19.1239719 23.5724826,19.1225677 26.4771685,19.1239719 C26.4757727,28.9927783 26.4785643,38.8601805 26.4757727,48.7275827 C26.4967099,50.6471414 27.4514457,52.5484453 29.0301097,53.6437312 C30.5599202,54.7488465 32.6285145,55.0268806 34.4011964,54.3907723 C36.6861416,53.6128385 38.3429711,51.3029087 38.3597208,48.8764293 C38.3653041,38.9626881 38.3611167,29.0489468 38.3611167,19.1338014 C41.2309073,19.1099298 44.1020937,19.1281846 46.9732802,19.1253761 C46.9704885,29.0377131 46.9774676,38.9500502 46.9690927,48.8623872 C46.9439681,52.2998997 45.7407777,55.7458375 43.4977069,58.3548646 C41.3676969,60.8908726 38.3080758,62.596991 35.0572283,63.1446339 C32.2404786,63.647342 29.2827517,63.3257773 26.6362911,62.2262788 C23.8767697,61.0832497 21.4927218,59.0471414 19.9252243,56.4914744 C18.4735793,54.1366098 17.7282154,51.3548646 17.7631107,48.5871615 C17.760319,38.7660983 17.7631107,28.9450351 17.7617149,19.1239719 L17.7617149,19.1239719 Z" id="Shape" fill="#FFFFFF" sketch:type="MSShapeGroup"></path>
            <path d="M58.9256231,19.1211635 C61.9000997,19.1267803 64.8731805,19.1085256 67.847657,19.1295888 C70.372682,24.7071214 72.9326022,30.2678034 75.4673978,35.8411234 C76.7599202,38.7001003 78.1012961,41.5394183 79.3589232,44.4152457 C79.4189432,35.9857573 79.3672981,27.5534604 79.3840479,19.1239719 C82.3627119,19.1169509 85.3413759,19.1225677 88.3186441,19.1211635 C88.3172483,33.8724173 88.3242273,48.6250752 88.3158524,63.376329 C85.3413759,63.3735206 82.3682951,63.3749248 79.3952144,63.3749248 C75.5316052,54.9145436 71.6763709,46.4485456 67.8169492,37.9867603 C67.8099701,46.4485456 67.8239282,54.9117352 67.8099701,63.3749248 C64.8508475,63.3749248 61.890329,63.3735206 58.9298106,63.376329 C58.9186441,48.6250752 58.9270189,33.8724173 58.9256231,19.1211635 L58.9256231,19.1211635 Z" id="Shape" fill="#FFFFFF" sketch:type="MSShapeGroup"></path>
            <path d="M102.910469,19.1239719 C105.89332,19.1225677 108.874776,19.1225677 111.857627,19.1239719 C111.856231,33.8752257 111.860419,48.6264794 111.854835,63.376329 C108.874776,63.3791374 105.896112,63.3749248 102.916052,63.3791374 C102.90349,48.6278837 102.914656,33.8752257 102.910469,19.1239719 L102.910469,19.1239719 Z" id="Shape" fill="#FFFFFF" sketch:type="MSShapeGroup"></path>
            <path d="M25.0953141,78.7229689 C29.4334995,76.2038114 35.0558325,76.1293882 39.4470588,78.5614845 C41.9497507,79.9277834 44.0239282,82.064995 45.3318046,84.6108325 C46.4344965,86.7410231 46.997009,89.1478435 46.9690927,91.5490471 C46.9704885,95.9035105 46.9690927,100.25657 46.9704885,104.611033 C46.9607178,105.876229 47.026321,107.14985 46.8169492,108.405216 C46.3507478,111.466399 44.9284148,114.356269 42.9002991,116.676028 C44.2542373,121.109127 45.597009,125.546439 46.9802592,129.968305 C44.1090728,129.994985 41.2364905,129.979539 38.3653041,129.97673 C37.3617149,126.905717 36.3246261,123.845938 35.3224327,120.774925 C33.1924227,121.106319 30.9912263,121.135807 28.8919242,120.593781 C24.3192423,119.495687 20.403988,116.025878 18.7248255,111.611033 C18.0911266,109.968104 17.7449651,108.205817 17.7631107,106.442126 C17.7645065,101.291474 17.7547358,96.1394183 17.7672981,90.9873621 C17.8398804,85.9771314 20.7585244,81.1634905 25.0953141,78.7229689 L25.0953141,78.7229689 Z" id="Shape" fill="#FFFFFF" sketch:type="MSShapeGroup"></path>
            <path d="M106.444666,76.8132397 C110.912662,76.4930792 115.493719,78.3817452 118.395613,81.8290873 C120.102692,83.8160481 121.258425,86.2790371 121.692522,88.8712136 C121.994018,90.4972919 121.901894,92.1570712 121.914457,93.8028084 C121.914457,98.0140421 121.915852,102.22668 121.914457,106.439318 C121.904686,109.346038 121.015553,112.245737 119.379661,114.644132 C117.812164,116.954062 115.581655,118.811836 113.011964,119.887462 C108.985045,121.600602 104.186241,121.364694 100.358923,119.231695 C96.7172483,117.246138 94.02333,113.610632 93.1537388,109.538415 C92.7363908,107.691876 92.7978066,105.787763 92.7964108,103.908927 C92.7964108,99.974323 92.7978066,96.0411234 92.7964108,92.1065196 C92.7810568,90.0184554 93.0504487,87.909328 93.8404786,85.9658977 C94.9347956,83.1658977 96.9210369,80.730993 99.4362911,79.1049147 C101.523031,77.7470411 103.964307,76.9578736 106.444666,76.8132397 L106.444666,76.8132397 Z" id="Shape" fill="#FFFFFF" sketch:type="MSShapeGroup"></path>
            <path d="M58.9326022,76.7711133 C61.8917248,76.7725176 64.8494516,76.7739218 67.8085743,76.7697091 C67.8267198,88.5159478 67.8099701,100.260782 67.8155533,112.005617 C74.6480558,112.02668 81.4791625,112.011234 88.311665,112.014042 C88.3284148,115.01344 88.3144566,118.014243 88.3186441,121.015045 L58.9256231,121.015045 C58.9298106,106.2666 58.9144566,91.5181545 58.9326022,76.7711133 L58.9326022,76.7711133 Z" id="Shape" fill="#FFFFFF" sketch:type="MSShapeGroup"></path>
            <path d="M31.5411765,85.4996991 C33.070987,85.2792377 34.6859422,85.6513541 35.9351944,86.575326 C37.4552343,87.6663992 38.4057827,89.5283852 38.3611167,91.4128385 C38.3541376,96.5171515 38.3708873,101.621464 38.3527418,106.725777 C38.1768694,109.711133 35.3084746,112.112337 32.3856431,112.016851 C29.4362911,112.070211 26.6055833,109.587563 26.4771685,106.578335 C26.4687936,101.52317 26.4785643,96.468004 26.4729811,91.4128385 C26.4757727,89.7881645 27.151346,88.1705115 28.3377866,87.0611836 C29.2143569,86.2270812 30.3505484,85.6822467 31.5411765,85.4996991 L31.5411765,85.4996991 Z" id="Shape" fill="#ED1D24" sketch:type="MSShapeGroup"></path>
            <path d="M105.981256,85.6008024 C107.386839,85.2637914 108.911067,85.4561685 110.182652,86.1484453 C112.032104,87.1285858 113.326022,89.150652 113.314855,91.2696088 C113.317647,96.375326 113.321834,101.482447 113.31346,106.58676 C113.218544,109.574925 110.389232,112.016851 107.483151,112.015446 C104.860419,112.11655 102.285145,110.267202 101.581655,107.715747 C101.408574,107.168104 101.394616,106.589569 101.402991,106.020863 C101.408574,101.065396 101.396012,96.1085256 101.408574,91.1544634 C101.461615,88.5426279 103.456231,86.1582748 105.981256,85.6008024 L105.981256,85.6008024 Z" id="Shape" fill="#ED1D24" sketch:type="MSShapeGroup"></path>
        </g>
    </g>
</svg>