<?xml version="1.0" encoding="UTF-8" standalone="no"?>
<svg width="138px" height="136px" viewBox="0 0 138 136" version="1.1" xmlns="http://www.w3.org/2000/svg" xmlns:xlink="http://www.w3.org/1999/xlink" xmlns:sketch="http://www.bohemiancoding.com/sketch/ns">
    <!-- Generator: Sketch 3.4 (15588) - http://www.bohemiancoding.com/sketch -->
    <title>Slice 1</title>
    <desc>Created with Sketch.</desc>
    <defs></defs>
    <g id="Page-1" stroke="none" stroke-width="1" fill="none" fill-rule="evenodd" sketch:type="MSPage">
        <g id="utz_default" sketch:type="MSLayerGroup">
            <path d="M0,0 L39.5290672,0 C38.4095011,0.805790646 36.9890889,0.945601336 35.8186334,1.65668151 C34.5434056,2.39933185 33.2547072,3.17806236 32.2429067,4.27399777 C31.5139913,5.04521158 30.7162256,5.75328508 30.0187419,6.55606904 C29.1910412,7.59337416 28.5938395,8.79905345 28.1253579,10.0363029 C27.4263774,9.97917595 26.7558351,9.73864143 26.0553579,9.70707127 C25.0240998,9.75066815 24.256269,10.7263363 23.1950759,10.6211024 C22.6442733,10.6541759 22.2296746,10.2467706 21.797115,9.97316258 C20.0728633,8.90879733 17.957961,8.5389755 15.9717787,8.90128062 C14.6755965,9.18390869 13.6922343,10.1505568 12.8869848,11.1517817 C11.9889371,12.3604677 11.712039,13.8878619 11.4830369,15.3430958 C11.435141,16.4570713 11.3318655,17.6146437 11.7135358,18.6835189 C11.9874403,19.4938196 12.0697614,20.3597439 12.4035358,21.1520045 C12.6460087,21.798441 12.9767896,22.411804 13.1848373,23.0717706 C13.3345119,23.5528396 13.2686551,24.0850223 12.9932538,24.507461 C12.3361822,25.588363 11.7883731,26.7278953 11.234577,27.8644209 C10.6209111,29.1332405 10.2856399,30.5103007 9.95785249,31.8738307 C9.70639913,32.9637528 9.28132321,34.0356347 9.35167028,35.175167 C9.41453362,36.8393653 9.19600868,38.5306236 9.57468547,40.1707684 C9.70789588,41.0622494 9.87553145,41.9507238 10.1539262,42.8091314 C10.921757,45.2069599 11.7928633,47.6017817 13.1474187,49.7365256 C13.6667896,50.6580735 14.2624946,51.5315145 14.86718,52.3989421 C15.1889805,52.8364143 15.3371584,53.3640869 15.4269631,53.8932628 C14.4151627,53.929343 13.386898,53.8000557 12.3870716,54.0030067 C10.9726464,54.3487751 9.57169197,54.7907572 8.28149675,55.4747773 C7.10655098,56.0685969 5.88071584,56.6308463 4.93177874,57.5704343 C4.23130152,58.2709911 3.51436009,58.9565145 2.84980477,59.6916481 C2.01013015,60.6327394 1.46681128,61.8038419 1.21086768,63.035078 C1.5581128,63.0516147 1.90535792,63.0666481 2.25409978,63.0831849 C1.95624729,64.6752227 1.23032538,66.1424833 0.887570499,67.7224944 C0.700477223,68.5508352 0.381670282,69.3415924 0,70.0992762 L0,0 L0,0 Z" id="Shape" fill="#FDFDFD" sketch:type="MSShapeGroup"></path>
            <path d="M39.5290672,0 L40.9764208,0 C40.8417137,0.13830735 40.7114967,0.279621381 40.5812798,0.420935412 C42.1513666,2.23246102 43.0194794,4.53257238 43.5448373,6.84771715 C43.6810412,7.56330735 43.6196746,8.29693764 43.6286551,9.02004454 C43.6301518,11.0179844 43.6106941,13.0144209 43.6421258,15.0108575 C45.16282,15.6587973 46.4575054,16.7156459 47.7776356,17.6898107 C48.9615618,18.7120824 50.0796312,19.8320713 50.9821692,21.1174276 C52.0852711,22.5185412 52.7722777,24.1812361 53.5625597,25.7672606 C54.0609761,27.0586303 54.592321,28.3650334 54.7494794,29.7526169 C54.9350759,31.0605234 55.4020607,32.3353563 55.3077657,33.674833 C55.2134707,35.6276726 55.5307809,37.6256125 55.0129067,39.5378619 C54.2959653,42.8061247 52.841128,45.8729399 50.9806725,48.6345768 C50.1544685,49.8898664 49.0184382,50.8820713 47.9767028,51.9449332 C47.0562039,52.8755011 46.1252278,53.7940423 45.2152061,54.7336303 C44.5356833,55.4567372 43.7394143,56.1272272 42.7665293,56.3918151 C42.1468764,56.5000557 41.512256,56.4444321 40.8866161,56.4504454 C41.199436,55.9513363 41.8056182,55.4612472 41.6035575,54.802784 C41.4239479,53.99549 41.2862473,53.1581292 41.4254447,52.3327951 C41.5766161,51.9103563 41.9223644,51.5976615 42.2232104,51.2789532 C42.7261171,50.7963808 43.2305206,50.2596882 43.9085466,50.0341871 C44.5716052,49.9048998 45.2047289,50.2987751 45.8662907,50.2521715 C46.1910846,50.1213808 46.3662039,49.7756125 46.5727549,49.5095212 C46.8661171,49.0389755 47.2418004,48.5744432 47.3316052,48.0152004 C47.214859,47.783686 47.0621909,47.5747216 46.9125163,47.3657572 C46.2060521,48.0978842 45.4307375,49.0389755 44.3036876,48.9487751 C43.163167,49.0179287 42.3264859,48.0933742 41.6439696,47.3041203 C40.9854013,46.57049 40.9599566,45.4865813 41.1889588,44.5785635 C41.5781128,43.663029 42.3594143,42.8662584 43.3038612,42.5385301 C44.1375488,42.4002227 45.0640347,42.3566258 45.8243818,42.7956013 C46.2868764,43.0436526 46.7733189,43.2405902 47.2612581,43.4330178 C47.9362907,43.7096325 48.2745553,44.4026726 48.6637093,44.9739421 C49.3626898,44.0358575 49.7428633,42.9008352 49.8221909,41.7357461 C48.4167462,41.7597996 46.9110195,41.5974388 45.7660087,40.698441 C46.3108243,40.0264477 46.7658351,39.2582405 46.8406725,38.3757795 C45.6732104,38.4389198 44.5566377,38.8267817 43.4041432,38.9861359 C42.5300434,39.0312361 41.612538,39.1079065 40.7803471,38.7786748 C40.0529284,38.5050668 39.3449675,38.1803452 38.6714317,37.7924833 C39.4647072,37.0092428 40.2385249,36.1989421 40.8566811,35.2653675 C40.5857701,35.1030067 40.3432972,34.7512249 39.9945553,34.8324053 C39.1878091,35.0113029 38.4289588,35.439755 37.5818004,35.4036748 C36.06859,35.3675947 34.5344252,35.5344655 33.0466594,35.1856904 C32.0812581,35.0804566 31.1053796,35.0323497 30.1684165,34.7527283 C30.1399783,36.1508352 30.1669197,37.5504454 30.159436,38.9485523 C30.1759002,39.7949332 29.7942299,40.5691537 29.6250976,41.3809577 C29.4484816,42.2453786 29.2913232,43.1173163 29.0009544,43.9531737 C28.8378091,44.4613029 28.6177874,44.955902 28.5249892,45.4865813 C28.4621258,45.7601893 28.6402386,46.0052339 28.8288286,46.1811247 C29.563731,46.8636414 30.4737527,47.4093541 30.9721692,48.3068486 C31.1218438,48.9547884 31.1248373,49.6628619 30.9721692,50.3108018 C30.5246421,51.0579621 29.8436226,51.6412584 29.1670933,52.173441 C28.4501518,52.7326837 27.4353579,52.6259465 26.7109328,52.1403675 C26.1272017,51.8562361 25.6003471,51.2714365 24.9013666,51.361637 C24.3340998,51.5450445 23.8716052,52.0216036 23.6291323,52.5613029 C23.4225813,53.1731626 23.8925597,53.7128619 24.2098698,54.1849109 C25.2545987,55.6461581 26.4340347,57.0247216 27.8230152,58.1672606 C28.6866377,58.7189866 29.6026464,59.2256125 30.5800217,59.541314 C31.6052928,59.6871381 32.6515184,59.6104677 33.6842733,59.5954343 C35.2453796,59.39549 36.5714967,58.4243318 38.0951844,58.0830735 C37.5339046,58.9655345 36.5026464,59.2797327 35.6150759,59.7126949 C34.9101085,60.0599666 34.092885,60.202784 33.4807158,60.7184298 C33.3295445,61.0732183 33.5360954,61.4024499 33.8444252,61.5768374 C34.9535141,62.3089644 35.8036659,63.3432628 36.7511063,64.261804 C37.4740347,64.9804009 38.2538395,65.6704343 38.752256,66.5769488 C39.418308,66.555902 39.9945553,66.211637 40.5947505,65.9711024 C41.7218004,65.6358575 42.6587636,66.8490535 43.7932972,66.4882517 C44.3515835,66.220657 44.7332538,65.7065145 45.1747939,65.2900891 C45.6866811,65.6103007 46.1641432,66.013196 46.7433839,66.2041203 C47.5186985,66.2371938 48.2715618,65.7425947 49.0543601,65.9726058 C49.6575488,66.3003341 50.1110629,66.8881403 50.7905857,67.0805679 C51.4042516,67.1858018 52.0313883,67.1211581 52.652538,67.1346882 C52.3606725,69.4302895 51.6871367,71.6537305 51.4207158,73.9508352 C51.37282,75.6601336 51.4416703,77.3709354 51.4072451,79.0802339 C51.449154,79.513196 51.077961,80.0243318 50.6079826,79.9025612 C50.2367896,79.8379176 50.0736443,79.4199889 50.087115,79.0817372 C50.0496963,77.8204343 50.1095662,76.5591314 50.0886117,75.2978285 C50.1005857,74.8693764 49.9119957,74.4800111 49.7413666,74.0996659 C49.1606291,74.4153675 48.5843818,74.7521158 47.9557484,74.9595768 C47.3765076,75.1444878 46.7703254,75.2422049 46.2150325,75.4947661 C45.6118438,75.8044543 45.263102,76.4358575 44.6883514,76.7831292 C44.272256,76.9154232 43.8262256,76.8567929 43.3966594,76.9033964 C42.2037527,76.9785635 41.3416269,78.0955457 40.126269,78.0744989 C39.6937093,78.097049 39.2506725,78.0504454 38.8255965,78.1511693 C38.1969631,78.4383073 37.7763774,79.0817372 37.0878742,79.2561247 C35.9009544,79.4275056 34.6781128,79.107294 33.509154,79.438029 C32.7158785,79.6334633 31.8148373,79.7507238 31.0814317,79.305735 C30.7686117,79.1749443 30.4123861,78.899833 30.0666377,79.0892539 C29.2149892,79.4786192 28.4516486,80.3520601 27.4338612,80.1445991 C25.9790239,79.782294 24.4373753,79.7672606 22.9810412,80.1250557 C22.3419306,80.2738864 21.8045987,79.7928174 21.2537961,79.5552895 C20.682039,79.8138641 20.128243,80.2573497 19.4651844,80.1821826 C18.836551,80.0919822 18.2932321,79.711637 17.6645987,79.6139198 C16.8204338,79.5011693 15.958308,79.5763363 15.1395879,79.8063474 C14.1741866,80.126559 13.3854013,79.1569042 12.4185033,79.2711581 C11.7659219,79.2050111 11.3872451,79.8108575 11.0504772,80.2663697 C10.7765727,80.6797884 10.3963991,81.00451 9.97880694,81.2630846 C9.69592191,80.721882 9.34119306,80.1716592 9.365141,79.5357461 C9.31125813,79.0216036 9.48488069,78.3435969 8.9894577,77.9963252 C8.42368764,77.6084633 7.71872017,77.5483296 7.06015184,77.4521158 C5.65470716,77.2401448 4.26872017,76.9229399 2.8962039,76.5576281 C1.80956616,76.2674833 0.986355748,75.4526726 0,74.9565702 L0,70.0992762 C0.381670282,69.3415924 0.700477223,68.5508352 0.887570499,67.7224944 C1.23032538,66.1424833 1.95624729,64.6752227 2.25409978,63.0831849 C1.90535792,63.0666481 1.5581128,63.0516147 1.21086768,63.035078 C1.46681128,61.8038419 2.01013015,60.6327394 2.84980477,59.6916481 C3.51436009,58.9565145 4.23130152,58.2709911 4.93177874,57.5704343 C5.88071584,56.6308463 7.10655098,56.0685969 8.28149675,55.4747773 C9.57169197,54.7907572 10.9726464,54.3487751 12.3870716,54.0030067 C13.386898,53.8000557 14.4151627,53.929343 15.4269631,53.8932628 C15.3371584,53.3640869 15.1889805,52.8364143 14.86718,52.3989421 C14.2624946,51.5315145 13.6667896,50.6580735 13.1474187,49.7365256 C11.7928633,47.6017817 10.921757,45.2069599 10.1539262,42.8091314 C9.87553145,41.9507238 9.70789588,41.0622494 9.57468547,40.1707684 C9.19600868,38.5306236 9.41453362,36.8393653 9.35167028,35.175167 C9.28132321,34.0356347 9.70639913,32.9637528 9.95785249,31.8738307 C10.2856399,30.5103007 10.6209111,29.1332405 11.234577,27.8644209 C11.7883731,26.7278953 12.3361822,25.588363 12.9932538,24.507461 C13.2686551,24.0850223 13.3345119,23.5528396 13.1848373,23.0717706 C12.9767896,22.411804 12.6460087,21.798441 12.4035358,21.1520045 C12.0697614,20.3597439 11.9874403,19.4938196 11.7135358,18.6835189 C11.3318655,17.6146437 11.435141,16.4570713 11.4830369,15.3430958 C11.712039,13.8878619 11.9889371,12.3604677 12.8869848,11.1517817 C13.6922343,10.1505568 14.6755965,9.18390869 15.9717787,8.90128062 C17.957961,8.5389755 20.0728633,8.90879733 21.797115,9.97316258 C22.2296746,10.2467706 22.6442733,10.6541759 23.1950759,10.6211024 C24.256269,10.7263363 25.0240998,9.75066815 26.0553579,9.70707127 C26.7558351,9.73864143 27.4263774,9.97917595 28.1253579,10.0363029 C28.5938395,8.79905345 29.1910412,7.59337416 30.0187419,6.55606904 C30.7162256,5.75328508 31.5139913,5.04521158 32.2429067,4.27399777 C33.2547072,3.17806236 34.5434056,2.39933185 35.8186334,1.65668151 C36.9890889,0.945601336 38.4095011,0.805790646 39.5290672,0 L39.5290672,0 Z" id="Shape" fill="#838383" sketch:type="MSShapeGroup"></path>
            <path d="M40.9764208,0 L138,0 L138,129.843541 C137.251627,129.360969 136.796616,128.561192 136.096139,128.027506 C135.365727,127.510356 134.466182,127.068374 133.553167,127.305902 C132.233037,127.711804 131.110477,128.707016 130.549197,129.975835 C130.164534,130.697439 130.200456,131.59794 130.597093,132.307517 C131.088026,133.436526 132.161193,134.111526 132.955965,135 L0,135 L0,74.9565702 C0.986355748,75.4526726 1.80956616,76.2674833 2.8962039,76.5576281 C4.26872017,76.9229399 5.65470716,77.2401448 7.06015184,77.4521158 C7.71872017,77.5483296 8.42368764,77.6084633 8.9894577,77.9963252 C9.48488069,78.3435969 9.31125813,79.0216036 9.365141,79.5357461 C9.34119306,80.1716592 9.69592191,80.721882 9.97880694,81.2630846 C10.3963991,81.00451 10.7765727,80.6797884 11.0504772,80.2663697 C11.3872451,79.8108575 11.7659219,79.2050111 12.4185033,79.2711581 C13.3854013,79.1569042 14.1741866,80.126559 15.1395879,79.8063474 C15.958308,79.5763363 16.8204338,79.5011693 17.6645987,79.6139198 C18.2932321,79.711637 18.836551,80.0919822 19.4651844,80.1821826 C20.128243,80.2573497 20.682039,79.8138641 21.2537961,79.5552895 C21.8045987,79.7928174 22.3419306,80.2738864 22.9810412,80.1250557 C24.4373753,79.7672606 25.9790239,79.782294 27.4338612,80.1445991 C28.4516486,80.3520601 29.2149892,79.4786192 30.0666377,79.0892539 C30.4123861,78.899833 30.7686117,79.1749443 31.0814317,79.305735 C31.8148373,79.7507238 32.7158785,79.6334633 33.509154,79.438029 C34.6781128,79.107294 35.9009544,79.4275056 37.0878742,79.2561247 C37.7763774,79.0817372 38.1969631,78.4383073 38.8255965,78.1511693 C39.2506725,78.0504454 39.6937093,78.097049 40.126269,78.0744989 C41.3416269,78.0955457 42.2037527,76.9785635 43.3966594,76.9033964 C43.8262256,76.8567929 44.272256,76.9154232 44.6883514,76.7831292 C45.263102,76.4358575 45.6118438,75.8044543 46.2150325,75.4947661 C46.7703254,75.2422049 47.3765076,75.1444878 47.9557484,74.9595768 C48.5843818,74.7521158 49.1606291,74.4153675 49.7413666,74.0996659 C49.9119957,74.4800111 50.1005857,74.8693764 50.0886117,75.2978285 C50.1095662,76.5591314 50.0496963,77.8204343 50.087115,79.0817372 C50.0736443,79.4199889 50.2367896,79.8379176 50.6079826,79.9025612 C51.077961,80.0243318 51.449154,79.513196 51.4072451,79.0802339 C51.4416703,77.3709354 51.37282,75.6601336 51.4207158,73.9508352 C51.6871367,71.6537305 52.3606725,69.4302895 52.652538,67.1346882 C52.0313883,67.1211581 51.4042516,67.1858018 50.7905857,67.0805679 C50.1110629,66.8881403 49.6575488,66.3003341 49.0543601,65.9726058 C48.2715618,65.7425947 47.5186985,66.2371938 46.7433839,66.2041203 C46.1641432,66.013196 45.6866811,65.6103007 45.1747939,65.2900891 C44.7332538,65.7065145 44.3515835,66.220657 43.7932972,66.4882517 C42.6587636,66.8490535 41.7218004,65.6358575 40.5947505,65.9711024 C39.9945553,66.211637 39.418308,66.555902 38.752256,66.5769488 C38.2538395,65.6704343 37.4740347,64.9804009 36.7511063,64.261804 C35.8036659,63.3432628 34.9535141,62.3089644 33.8444252,61.5768374 C33.5360954,61.4024499 33.3295445,61.0732183 33.4807158,60.7184298 C34.092885,60.202784 34.9101085,60.0599666 35.6150759,59.7126949 C36.5026464,59.2797327 37.5339046,58.9655345 38.0951844,58.0830735 C36.5714967,58.4243318 35.2453796,59.39549 33.6842733,59.5954343 C32.6515184,59.6104677 31.6052928,59.6871381 30.5800217,59.541314 C29.6026464,59.2256125 28.6866377,58.7189866 27.8230152,58.1672606 C26.4340347,57.0247216 25.2545987,55.6461581 24.2098698,54.1849109 C23.8925597,53.7128619 23.4225813,53.1731626 23.6291323,52.5613029 C23.8716052,52.0216036 24.3340998,51.5450445 24.9013666,51.361637 C25.6003471,51.2714365 26.1272017,51.8562361 26.7109328,52.1403675 C27.4353579,52.6259465 28.4501518,52.7326837 29.1670933,52.173441 C29.8436226,51.6412584 30.5246421,51.0579621 30.9721692,50.3108018 C31.1248373,49.6628619 31.1218438,48.9547884 30.9721692,48.3068486 C30.4737527,47.4093541 29.563731,46.8636414 28.8288286,46.1811247 C28.6402386,46.0052339 28.4621258,45.7601893 28.5249892,45.4865813 C28.6177874,44.955902 28.8378091,44.4613029 29.0009544,43.9531737 C29.2913232,43.1173163 29.4484816,42.2453786 29.6250976,41.3809577 C29.7942299,40.5691537 30.1759002,39.7949332 30.159436,38.9485523 C30.1669197,37.5504454 30.1399783,36.1508352 30.1684165,34.7527283 C31.1053796,35.0323497 32.0812581,35.0804566 33.0466594,35.1856904 C34.5344252,35.5344655 36.06859,35.3675947 37.5818004,35.4036748 C38.4289588,35.439755 39.1878091,35.0113029 39.9945553,34.8324053 C40.3432972,34.7512249 40.5857701,35.1030067 40.8566811,35.2653675 C40.2385249,36.1989421 39.4647072,37.0092428 38.6714317,37.7924833 C39.3449675,38.1803452 40.0529284,38.5050668 40.7803471,38.7786748 C41.612538,39.1079065 42.5300434,39.0312361 43.4041432,38.9861359 C44.5566377,38.8267817 45.6732104,38.4389198 46.8406725,38.3757795 C46.7658351,39.2582405 46.3108243,40.0264477 45.7660087,40.698441 C46.9110195,41.5974388 48.4167462,41.7597996 49.8221909,41.7357461 C49.7428633,42.9008352 49.3626898,44.0358575 48.6637093,44.9739421 C48.2745553,44.4026726 47.9362907,43.7096325 47.2612581,43.4330178 C46.7733189,43.2405902 46.2868764,43.0436526 45.8243818,42.7956013 C45.0640347,42.3566258 44.1375488,42.4002227 43.3038612,42.5385301 C42.3594143,42.8662584 41.5781128,43.663029 41.1889588,44.5785635 C40.9599566,45.4865813 40.9854013,46.57049 41.6439696,47.3041203 C42.3264859,48.0933742 43.163167,49.0179287 44.3036876,48.9487751 C45.4307375,49.0389755 46.2060521,48.0978842 46.9125163,47.3657572 C47.0621909,47.5747216 47.214859,47.783686 47.3316052,48.0152004 C47.2418004,48.5744432 46.8661171,49.0389755 46.5727549,49.5095212 C46.3662039,49.7756125 46.1910846,50.1213808 45.8662907,50.2521715 C45.2047289,50.2987751 44.5716052,49.9048998 43.9085466,50.0341871 C43.2305206,50.2596882 42.7261171,50.7963808 42.2232104,51.2789532 C41.9223644,51.5976615 41.5766161,51.9103563 41.4254447,52.3327951 C41.2862473,53.1581292 41.4239479,53.99549 41.6035575,54.802784 C41.8056182,55.4612472 41.199436,55.9513363 40.8866161,56.4504454 C41.512256,56.4444321 42.1468764,56.5000557 42.7665293,56.3918151 C43.7394143,56.1272272 44.5356833,55.4567372 45.2152061,54.7336303 C46.1252278,53.7940423 47.0562039,52.8755011 47.9767028,51.9449332 C49.0184382,50.8820713 50.1544685,49.8898664 50.9806725,48.6345768 C52.841128,45.8729399 54.2959653,42.8061247 55.0129067,39.5378619 C55.5307809,37.6256125 55.2134707,35.6276726 55.3077657,33.674833 C55.4020607,32.3353563 54.9350759,31.0605234 54.7494794,29.7526169 C54.592321,28.3650334 54.0609761,27.0586303 53.5625597,25.7672606 C52.7722777,24.1812361 52.0852711,22.5185412 50.9821692,21.1174276 C50.0796312,19.8320713 48.9615618,18.7120824 47.7776356,17.6898107 C46.4575054,16.7156459 45.16282,15.6587973 43.6421258,15.0108575 C43.6106941,13.0144209 43.6301518,11.0179844 43.6286551,9.02004454 C43.6196746,8.29693764 43.6810412,7.56330735 43.5448373,6.84771715 C43.0194794,4.53257238 42.1513666,2.23246102 40.5812798,0.420935412 C40.7114967,0.279621381 40.8417137,0.13830735 40.9764208,0 L40.9764208,0 Z" id="Shape" fill="#FDFDFD" sketch:type="MSShapeGroup"></path>
            <path d="M33.5944685,38.8778953 C33.9491974,39.1890869 34.2695011,39.5784521 34.7290022,39.7332962 C35.1944902,39.8009465 35.673449,39.7227728 36.1344469,39.8280067 C36.8259436,40.027951 37.3737527,40.5360802 37.8646855,41.042706 C38.3032321,41.5132517 38.7268113,42.0589644 38.8255965,42.7144209 C38.8809761,43.3894209 38.9019306,44.1215479 38.5172668,44.7123608 C37.9919089,45.5467149 37.1986334,46.3254454 36.2003037,46.508853 C35.3381779,46.5193764 34.387744,46.6862472 33.6124295,46.2066815 C32.9089588,45.8278396 32.424013,45.1423163 32.1545987,44.4011693 C31.9660087,43.8674833 31.734013,43.3082405 31.8178308,42.7294543 C31.934577,42.1972717 32.2578742,41.7342428 32.3746204,41.2005568 C32.2683514,40.7871381 32.0094143,40.4398664 31.7624512,40.1001114 C32.1635792,40.2865256 32.5976356,40.4173163 33.031692,40.2474388 C32.9284165,39.9828508 32.8146638,39.7242762 32.7024078,39.4657016 C33.0840781,39.6912027 33.509154,39.8310134 33.9387202,39.6385857 C33.8264642,39.3830178 33.7112148,39.1304566 33.5944685,38.8778953 L33.5944685,38.8778953 Z" id="Shape" fill="#838383" sketch:type="MSShapeGroup"></path>
            <path d="M36.7900217,41.5869154 C36.959154,41.4801782 37.1282863,41.3719376 37.2959219,41.2636971 C37.8407375,42.0770045 38.2942516,43.0737194 37.9485033,44.0644209 C37.7120174,44.7213808 37.3213666,45.5752784 36.5295879,45.6324053 C36.3469848,45.6519488 36.1643818,45.6684855 35.9817787,45.6805122 C35.9069414,45.5482183 35.8306074,45.4174276 35.7542733,45.286637 C36.1374403,44.8356347 36.4457701,44.3184855 36.6149024,43.747216 C36.8603688,43.0541759 36.7720607,42.3085189 36.7900217,41.5869154 L36.7900217,41.5869154 Z" id="Shape" fill="#FDFDFD" sketch:type="MSShapeGroup"></path>
            <path d="M45.451692,44.3455457 C45.4127766,44.077951 45.5699349,43.8539532 45.8154013,43.7622494 C46.6206508,44.276392 46.4709761,45.3407572 46.4515184,46.1615813 C46.4320607,47.0861359 45.5594577,47.589755 44.9188503,48.0963808 C44.7991106,48.0242205 44.5581345,47.8783964 44.4383948,47.8047327 C44.7122993,47.1958797 45.032603,46.6095768 45.2915401,45.9947105 C45.522039,45.4745546 45.4112798,44.894265 45.451692,44.3455457 L45.451692,44.3455457 Z" id="Shape" fill="#FDFDFD" sketch:type="MSShapeGroup"></path>
            <path d="M34.2829718,48.5759465 C35.1855098,49.3712138 36.1194794,50.1995546 37.277961,50.5874165 C38.1400868,50.885078 39.0067028,51.2218263 39.931692,51.238363 C39.6697614,52.0035635 39.2746204,52.725167 38.6594577,53.2618597 C37.9095879,53.9564031 37.2091106,54.9952116 36.0700868,54.9591314 C35.5088069,55.0508352 35.0986985,54.6148664 34.7469631,54.2495546 C34.3622993,53.8331292 33.9746421,53.3520601 33.916269,52.7687639 C33.8713666,51.3601336 33.815987,49.9274499 34.2829718,48.5759465 L34.2829718,48.5759465 Z" id="Shape" fill="#838383" sketch:type="MSShapeGroup"></path>
            <path d="M34.9654881,50.827951 C34.9565076,50.5363029 35.2603471,50.4070156 35.4309761,50.2221047 C36.2062907,51.0729955 37.271974,51.6773385 38.439436,51.705902 C38.3301735,52.6530067 37.560846,53.31598 36.7660738,53.7278953 C36.3395011,53.938363 35.8500651,53.8616927 35.3935575,53.872216 C34.7783948,52.9732183 34.9565076,51.8532294 34.9654881,50.827951 L34.9654881,50.827951 Z" id="Shape" fill="#FDFDFD" sketch:type="MSShapeGroup"></path>
            <path d="M21.7432321,53.7474388 C22.0096529,53.5865813 22.3554013,53.5384744 22.6472668,53.6437082 C23.3806725,54.463029 23.8925597,55.4642539 24.6963124,56.2249443 C25.5689154,57.0668151 26.3517137,58.0229399 27.3859653,58.6753898 C28.2121692,59.2150891 29.0039479,59.8239421 29.9304338,60.1847439 C29.8181779,60.3907016 29.7223861,60.608686 29.5712148,60.7890869 C28.496551,60.8432071 27.4144035,60.825167 26.338243,60.7951002 C25.0600217,60.5695991 23.9209978,59.8885857 22.7834707,59.2947661 C21.76718,58.6558463 20.717961,58.0289532 19.9007375,57.1329621 C19.4936226,56.7 19.031128,56.3181514 18.6614317,55.8521158 C18.6734056,55.5709911 18.7632104,55.3018931 18.81859,55.0282851 C19.9022343,54.9050111 20.8137527,54.2630846 21.7432321,53.7474388 L21.7432321,53.7474388 Z" id="Shape" fill="#FDFDFD" sketch:type="MSShapeGroup"></path>
            <path d="M40.1412364,56.9495546 C40.0574187,56.5496659 40.6306725,56.4113586 40.8701518,56.1858575 C40.9315184,56.5977728 40.6321692,57.2592428 40.1412364,56.9495546 L40.1412364,56.9495546 Z" id="Shape" fill="#838383" sketch:type="MSShapeGroup"></path>
            <path id="Shape" fill="#838383" sketch:type="MSShapeGroup" d="M39.7296312,56.9330178 C39.9541432,56.827784 40.0484382,57.2487194 39.8388937,57.304343 C39.5799566,57.4170935 39.4736876,56.9946548 39.7296312,56.9330178 L39.7296312,56.9330178 Z"></path>
            <path id="Shape" fill="#838383" sketch:type="MSShapeGroup" d="M38.8001518,57.5403675 C39.0366377,57.4426503 39.1563774,57.8440423 38.922885,57.9146993 C38.6834056,58.0094098 38.5666594,57.6140312 38.8001518,57.5403675 L38.8001518,57.5403675 Z"></path>
            <path id="Shape" fill="#838383" sketch:type="MSShapeGroup" d="M38.2119306,57.8229955 C38.445423,57.7403118 38.5711497,58.1402004 38.3481345,58.2243875 C38.1281128,58.2890312 37.9963991,57.9056793 38.2119306,57.8229955 L38.2119306,57.8229955 Z"></path>
            <path d="M4.28668113,63.3898664 C5.29698482,63.374833 6.31177874,63.308686 7.31908894,63.4003898 C8.57785249,63.6770045 9.70789588,64.3339644 10.8349458,64.9353007 C11.435141,65.3321826 12.1341215,65.6569042 12.5577007,66.2612472 C12.8001735,67.0565145 12.7163557,68.1434298 11.8542299,68.5297884 C10.9801302,68.774833 10.0461605,68.5162584 9.15559653,68.6756125 C8.75446855,68.8635301 8.09140998,69.4768931 8.64969631,69.860245 C9.42650759,69.798608 10.1224946,69.3325724 10.9142733,69.3731626 C11.7659219,69.3851893 12.6220607,69.331069 13.4707158,69.4122494 C16.3863774,69.9143653 19.1493709,71.0238307 22.0066594,71.7559577 C23.6500868,71.8446548 25.3009978,71.7153675 26.9444252,71.810078 C27.7377007,71.9619154 28.5219957,72.1768931 29.2913232,72.4249443 C29.9962907,72.6459354 30.6383948,73.0894209 31.0365293,73.7208241 C31.7295228,74.8378062 32.1710629,76.0855791 32.7667679,77.2521715 C32.9089588,77.5573497 32.9478742,77.8971047 33.013731,78.224833 C32.217462,78.3466036 31.4645987,78.0459354 30.6907809,77.9497216 C29.6864642,78.088029 29.0518438,79.1899777 27.9936443,79.1614143 C27.1614534,79.2501114 26.4669631,78.7239421 25.7395445,78.4157572 C25.8458134,78.1406459 25.9670499,77.8655345 26.0029718,77.5723831 C25.6452495,76.9650334 25.0944469,76.5065145 24.5960304,76.0209354 C24.1125813,75.5413697 23.4300651,75.392539 22.8089154,75.1775612 C22.3583948,75.0227171 21.8884165,74.9234967 21.4109544,74.9400334 C20.4814751,74.9550668 19.5295445,74.858853 18.6225163,75.1174276 C17.8067896,75.2812918 16.9985466,75.5233296 16.1603688,75.5518931 C15.4509111,75.5744432 14.778872,75.8555679 14.0664208,75.8540646 C13.3569631,75.8615813 12.6924078,76.1817929 11.9799566,76.1532294 C10.0805857,76.1457127 8.179718,76.142706 6.28034707,76.1532294 C5.27453362,76.1878062 4.35403471,75.7142539 3.41707158,75.4180958 C2.56093275,75.1535078 1.89039046,74.3943207 1.74221258,73.5073497 C1.69132321,72.8052895 1.69581345,72.0987194 1.7362256,71.3966592 C2.20470716,68.6275056 2.96655098,65.8778953 4.28668113,63.3898664 L4.28668113,63.3898664 Z" id="Shape" fill="#FDFDFD" sketch:type="MSShapeGroup"></path>
            <path d="M43.6915184,67.2624722 C44.3785249,66.9963808 45.0340998,66.5438753 45.8109111,66.6611359 C46.3931453,66.5949889 46.825705,67.023441 47.3166377,67.2474388 C47.8898915,67.3286192 48.4556616,67.1346882 49.0199349,67.0550111 C49.6051627,67.773608 50.3595228,68.3433742 51.2366161,68.6530624 C51.2770282,69.5189866 51.2695445,70.3849109 51.2306291,71.2508352 C50.859436,71.3139755 50.4493275,71.3124722 50.1409978,71.5605234 C49.4480043,72.0776726 49.1755965,72.9826837 48.4691323,73.4817929 C47.9332972,73.7659243 47.2747289,73.6907572 46.7493709,74.0079621 C45.9920174,74.4033408 45.4486985,75.118931 44.6659002,75.4707127 C44.1076139,75.6150334 43.5223861,75.4752227 42.9551193,75.5458797 C42.5405206,75.8224944 42.3055315,76.28402 42.0735358,76.7124722 C41.3670716,76.7455457 40.6411497,76.822216 39.9541432,76.6072383 C39.6398265,76.544098 39.3030586,76.3712138 38.9887419,76.5260579 C38.2463557,76.7816258 37.837744,77.5107461 37.1941432,77.9136414 C36.7151844,77.8835746 36.2646638,77.6701002 35.7827115,77.6565702 C35.0133839,77.6265033 34.2440564,77.6535635 33.4747289,77.6520601 C33.5106508,76.7169822 33.2217787,75.8134744 32.8236443,74.9776169 C32.4539479,74.2199332 32.135141,73.4111359 31.557397,72.7812361 C31.2146421,72.4054009 30.837462,72.0641425 30.460282,71.7243875 C30.5755315,71.5665367 30.6892842,71.4071826 30.8030369,71.2478285 C31.6382213,71.2793987 32.2054881,70.6464922 32.7009111,70.0616927 C33.4373102,70.1353563 34.3398482,70.5788419 34.9595011,69.9805122 C35.6524946,69.4002227 36.2062907,68.6139755 37.0549458,68.245657 C37.6925597,68.0547327 38.3690889,68.2170935 38.9618004,68.4831849 C39.6488069,68.1599666 40.2250542,67.6337973 40.9315184,67.3481626 C41.8385466,67.1452116 42.7770065,67.3812361 43.6915184,67.2624722 L43.6915184,67.2624722 Z" id="Shape" fill="#FDFDFD" sketch:type="MSShapeGroup"></path>
            <path d="M59.646833,71.6356904 C65.4826464,71.6386971 71.3199566,71.6386971 77.1557701,71.6356904 C77.1467896,75.5473831 77.1662473,79.4590757 77.1452928,83.3707684 C78.8440998,83.3512249 80.5429067,83.3707684 82.2417137,83.3617483 C82.2417137,86.947216 82.2432104,90.5326837 82.2447072,94.1181514 C82.3075705,94.5150334 81.991757,94.9510022 81.5741649,94.9254454 C80.0983731,94.9464922 78.6225813,94.9314588 77.1467896,94.9254454 C77.1647505,107.885746 77.1482863,120.846047 77.1542733,133.804844 C77.2321041,134.27088 76.8070282,134.700835 76.3415401,134.622661 C70.7766377,134.621158 65.2117354,134.618151 59.646833,134.622661 C59.6573102,121.390256 59.6378525,108.157851 59.6558134,94.9254454 C58.0797397,94.9329621 56.5036659,94.9434855 54.9275922,94.9269488 C54.5055098,94.9570156 54.1926898,94.5165367 54.2585466,94.1181514 C54.2570499,90.7551782 54.2675271,87.3937082 54.2615401,84.030735 C54.2061605,83.6022829 54.6881128,83.3151448 55.0727766,83.3632517 C56.5994577,83.360245 58.1291323,83.3587416 59.6573102,83.3707684 C59.6363557,79.4590757 59.6558134,75.5473831 59.646833,71.6356904 L59.646833,71.6356904 Z" id="Shape" fill="#838383" sketch:type="MSShapeGroup"></path>
            <path d="M12.821128,77.3589087 C14.6666161,76.9364699 16.5330586,76.6027283 18.4009978,76.3065702 C19.9052278,76.3306236 21.4603471,76.1081292 22.9121909,76.6072383 C23.8311931,76.8402561 24.633449,77.3814588 25.3204555,78.021882 C24.5241866,78.3225501 23.7713232,78.833686 22.8987202,78.8607461 C22.1338829,78.9163697 21.5860738,78.1496659 20.818243,78.2398664 C20.0788503,78.30902 19.4681779,78.8757795 18.7108243,78.8607461 C18.1360738,78.8727728 17.6720824,78.4804009 17.149718,78.3030067 C16.2681345,78.1045657 15.3775705,78.3315702 14.5139479,78.5014477 C13.9736226,78.4924276 13.5021475,78.158686 13.0231887,77.9407016 C12.23141,78.4217706 11.3243818,78.6577951 10.3993926,78.5405345 C10.4008894,78.3030067 10.4023861,78.0654788 10.4023861,77.8294543 C11.2390672,77.8670379 12.0353362,77.6099666 12.821128,77.3589087 L12.821128,77.3589087 Z" id="Shape" fill="#FDFDFD" sketch:type="MSShapeGroup"></path>
            <path d="M9.7572885,83.3978285 C10.3425163,83.3151448 10.9367245,83.3858018 11.5249458,83.3782851 C15.8146204,83.3827951 20.1057918,83.3812918 24.3954664,83.3722717 C24.8849024,83.3782851 25.3788286,83.3316815 25.8652711,83.4023385 C26.1286985,83.5767261 26.2933406,83.8563474 26.2514317,84.1795657 C26.2499349,96.5640869 26.2529284,108.948608 26.2499349,121.333129 C26.2185033,122.194543 26.7588286,123.021381 27.5206725,123.400223 C27.9936443,123.643764 28.4755965,123.948942 29.0234056,123.960969 C29.7792625,123.985022 30.5336226,123.965479 31.2894794,123.971492 C32.1156833,124.001559 32.9059653,123.687361 33.6438612,123.347606 C34.5149675,122.950724 34.7080477,121.887862 34.8023427,121.032461 C34.8038395,108.476559 34.800846,95.9191537 34.8038395,83.3617483 C40.2160738,83.3842984 45.628308,83.3797884 51.0405423,83.3722717 C51.3803037,83.355735 51.7604772,83.6699332 51.7080911,84.0322383 C51.7080911,96.9158686 51.7125813,109.799499 51.7080911,122.681626 C51.5943384,123.971492 51.1288503,125.205735 50.6289371,126.391871 C50.3834707,127.078898 50.1005857,127.758408 49.691974,128.367261 C49.084295,129.255735 48.5649241,130.223886 47.7596746,130.95451 C46.7403905,131.894098 45.8827549,133.02912 44.6808677,133.750724 C43.8950759,134.2348 43.0090022,134.657238 42.0660521,134.625668 C34.1781996,134.613641 26.2888503,134.624165 18.3995011,134.621158 C17.9474837,134.633185 17.5493492,134.39716 17.1601952,134.201726 C16.1932972,133.692094 15.2024512,133.174944 14.4331236,132.378174 C13.7610846,131.686637 13.0142082,131.050724 12.502321,130.222383 C11.7060521,128.98363 10.845423,127.762918 10.3155748,126.378341 C9.94737527,125.46882 9.34867679,124.601392 9.35616052,123.58363 C9.36065076,110.448942 9.35765727,97.3142539 9.35765727,84.1795657 C9.31275488,83.8488307 9.49835141,83.5782294 9.7572885,83.3978285 L9.7572885,83.3978285 Z" id="Shape" fill="#838383" sketch:type="MSShapeGroup"></path>
            <path d="M84.4958134,83.3617483 C97.5160087,83.364755 110.534707,83.364755 123.554902,83.3617483 C123.553406,86.947216 123.548915,90.5341871 123.557896,94.1196548 C123.559393,94.4263363 123.541432,94.7510579 123.337874,95.0021158 C121.951887,97.0211024 120.619783,99.0776726 119.259241,101.114699 C118.403102,102.290312 117.760998,103.601225 116.921323,104.787361 C115.301844,107.218263 113.694338,109.658185 112.070369,112.08608 C111.375879,113.066258 110.852017,114.154677 110.15603,115.133352 C108.892777,117.020045 107.645987,118.918764 106.385727,120.80696 C105.872343,121.58569 105.168872,122.350891 105.255683,123.356626 C111.354924,123.346102 117.454165,123.356626 123.554902,123.350612 C123.551909,127.108964 123.550412,130.865813 123.554902,134.622661 C110.534707,134.619655 97.5130152,134.619655 84.49282,134.622661 C84.4988069,131.187528 84.49282,127.750891 84.4943167,124.315757 C84.4509111,123.894822 84.7158351,123.55657 84.9388503,123.231849 C85.6513015,122.2652 86.2724512,121.238419 86.8741432,120.201114 C89.0085033,116.985468 91.1398698,113.766815 93.2802169,110.555679 C93.7142733,109.922773 94.034577,109.214699 94.5150325,108.61186 C95.0119523,107.99549 95.3412364,107.269376 95.7827766,106.616927 C97.3139479,104.336359 98.8196746,102.039254 100.347852,99.7556793 C100.80436,99.1017261 101.212972,98.4146993 101.615597,97.7261693 C102.079588,97.0376392 102.654338,96.4107461 102.950694,95.6214922 C103.079414,95.3839644 102.847419,95.1509465 102.789046,94.9254454 C96.9607158,94.9419822 91.1338829,94.9284521 85.3070499,94.9329621 C84.9104121,94.9961024 84.4733623,94.6804009 84.5003037,94.2609688 C84.5032972,90.6288976 84.4883297,86.9953229 84.4958134,83.3617483 L84.4958134,83.3617483 Z" id="Shape" fill="#838383" sketch:type="MSShapeGroup"></path>
            <path d="M130.549197,129.975835 C131.110477,128.707016 132.233037,127.711804 133.553167,127.305902 C134.466182,127.068374 135.365727,127.510356 136.096139,128.027506 C136.796616,128.561192 137.251627,129.360969 138,129.843541 L138,132.593151 C137.143861,133.218541 136.405965,133.994265 135.510911,134.568541 C135.648612,134.709855 135.778829,134.857183 135.922516,135 L132.955965,135 C132.161193,134.111526 131.088026,133.436526 130.597093,132.307517 C130.200456,131.59794 130.164534,130.697439 130.549197,129.975835 L130.549197,129.975835 Z" id="Shape" fill="#838383" sketch:type="MSShapeGroup"></path>
            <path d="M132.851193,129.027227 C132.665597,128.666425 132.973926,128.266537 133.360087,128.314644 C134.142885,128.32216 135.087332,128.104176 135.698004,128.737082 C136.266768,129.278285 136.893905,129.933742 136.886421,130.777116 C136.875944,131.331849 136.980716,131.948218 136.676876,132.447327 C136.458351,132.772049 136.004837,132.659298 135.675553,132.761526 C135.460022,132.411247 135.123254,132.059465 135.201085,131.612973 C135.238503,131.041704 135.769848,130.635802 135.828221,130.078062 C135.650108,129.544376 135.148698,129.046771 134.55898,129.067817 C133.98872,129.046771 133.416963,129.097884 132.851193,129.027227 L132.851193,129.027227 Z" id="Shape" fill="#FDFDFD" sketch:type="MSShapeGroup"></path>
            <path d="M131.739111,129.422606 C131.867831,129.218151 132.011518,129.02422 132.153709,128.828786 C132.342299,129.070824 132.679067,129.260245 132.680564,129.603007 C132.741931,130.640312 132.622191,131.682127 132.720976,132.717929 C132.891605,132.950947 133.167007,133.068207 133.404989,133.226058 C133.42744,132.705902 133.433427,132.185746 133.449892,131.667094 C133.629501,131.542316 133.810607,131.416036 133.990217,131.289755 C134.289566,132.324053 135.139718,132.996047 135.754881,133.827394 C134.804447,133.880011 133.85102,133.895045 132.899089,133.870991 C132.044447,133.892038 131.593926,132.96598 131.375401,132.26392 C131.334989,131.318318 131.137419,130.240423 131.739111,129.422606 L131.739111,129.422606 Z" id="Shape" fill="#FDFDFD" sketch:type="MSShapeGroup"></path>
            <path d="M133.437918,129.808964 C133.883948,129.810468 134.329978,129.810468 134.777505,129.808964 C134.777505,130.061526 134.777505,130.317094 134.779002,130.572661 L133.437918,130.572661 C133.436421,130.31559 133.436421,130.061526 133.437918,129.808964 L133.437918,129.808964 Z" id="Shape" fill="#FDFDFD" sketch:type="MSShapeGroup"></path>
            <path d="M135.510911,134.568541 C136.405965,133.994265 137.143861,133.218541 138,132.593151 L138,135 L135.922516,135 C135.778829,134.857183 135.648612,134.709855 135.510911,134.568541 L135.510911,134.568541 Z" id="Shape" fill="#FDFDFD" sketch:type="MSShapeGroup"></path>
        </g>
    </g>
</svg>