<?xml version="1.0" encoding="UTF-8" ?>
<!DOCTYPE svg PUBLIC "-//W3C//DTD SVG 1.1//EN" "http://www.w3.org/Graphics/SVG/1.1/DTD/svg11.dtd">
<svg width="141pt" height="31pt" viewBox="0 0 141 31" version="1.1" xmlns="http://www.w3.org/2000/svg">
<path fill="#ffffff" d=" M 0.00 0.00 L 29.94 0.00 C 29.08 0.72 28.23 1.46 27.39 2.20 C 30.96 8.06 26.90 15.51 21.74 18.91 C 20.10 20.27 18.26 19.00 16.59 18.49 C 19.53 14.57 23.12 10.82 24.44 5.98 C 25.19 4.48 23.80 2.17 22.07 2.98 C 14.99 4.85 12.24 12.78 11.41 19.30 C 10.19 19.39 8.96 19.50 7.73 19.42 C 5.99 17.16 6.64 14.17 7.63 11.75 C 9.16 8.03 11.68 4.86 14.19 1.77 C 10.80 2.52 7.35 2.27 3.91 2.13 C 1.95 1.86 1.05 3.97 0.00 5.22 L 0.00 0.00 Z" />
<path fill="#e31936" d=" M 29.94 0.00 L 31.66 0.00 C 35.02 6.22 30.59 12.95 26.65 17.70 C 23.49 21.92 17.45 24.73 12.64 21.43 C 9.90 22.81 5.73 24.38 3.85 20.90 C 1.90 15.37 5.67 10.24 8.52 5.83 C 5.68 5.94 2.83 5.96 0.00 6.20 L 0.00 5.22 C 1.05 3.97 1.95 1.86 3.91 2.13 C 7.35 2.27 10.80 2.52 14.19 1.77 C 11.68 4.86 9.16 8.03 7.63 11.75 C 6.64 14.17 5.99 17.16 7.73 19.42 C 8.96 19.50 10.19 19.39 11.41 19.30 C 12.24 12.78 14.99 4.85 22.07 2.98 C 23.80 2.17 25.19 4.48 24.44 5.98 C 23.12 10.82 19.53 14.57 16.59 18.49 C 18.26 19.00 20.10 20.27 21.74 18.91 C 26.90 15.51 30.96 8.06 27.39 2.20 C 28.23 1.46 29.08 0.72 29.94 0.00 Z" />
<path fill="#ffffff" d=" M 31.66 0.00 L 141.00 0.00 L 141.00 18.24 C 138.60 18.41 136.20 18.46 133.80 18.32 C 134.81 14.47 135.36 10.51 135.57 6.54 C 130.03 10.17 126.75 17.30 119.81 18.62 C 118.30 14.74 122.94 12.07 124.73 9.18 C 119.89 9.13 117.33 14.28 113.55 16.58 C 114.94 13.96 116.48 11.38 117.19 8.47 C 111.85 11.98 107.76 17.41 101.54 19.52 C 100.52 20.06 99.44 19.47 98.43 19.28 C 102.23 17.17 107.84 15.30 108.01 10.10 C 105.42 8.12 101.96 10.11 99.73 11.77 C 96.44 14.10 95.21 19.09 90.84 19.79 C 89.10 20.11 87.33 19.82 85.59 19.68 C 88.91 17.56 93.06 15.91 94.65 11.99 C 95.18 9.13 91.60 9.02 89.70 9.69 C 85.22 11.06 82.47 15.18 80.83 19.32 C 79.43 19.32 78.03 19.27 76.63 19.16 C 75.94 15.31 80.04 13.09 81.89 10.26 C 79.82 10.48 77.76 10.85 75.71 11.25 C 75.87 10.50 76.19 8.99 76.35 8.24 C 74.63 9.52 73.03 11.01 72.20 13.02 C 70.66 16.33 67.90 18.79 65.84 21.73 C 69.39 19.56 71.95 16.18 75.39 13.86 C 74.20 16.38 72.90 18.85 71.74 21.38 C 74.53 23.59 77.79 22.34 80.71 21.18 C 84.58 24.10 89.39 22.48 93.48 21.01 C 99.06 25.30 105.22 19.77 109.82 16.66 C 108.57 18.71 107.29 20.75 106.12 22.85 C 110.19 21.88 113.35 19.12 116.50 16.55 C 115.82 17.96 115.14 19.36 114.46 20.76 C 115.82 21.63 117.21 23.08 118.94 22.15 C 123.76 20.36 127.01 16.09 131.19 13.28 C 130.74 14.70 130.93 16.44 129.99 17.67 C 128.03 19.00 125.81 20.03 124.37 22.00 C 128.93 21.77 133.49 21.66 138.04 22.03 C 139.05 20.92 140.05 19.81 141.00 18.65 L 141.00 31.00 L 53.93 31.00 C 62.09 28.46 65.79 19.92 68.91 12.72 C 69.37 12.19 70.29 11.11 70.75 10.57 C 68.07 10.09 65.20 9.35 62.62 10.64 C 58.45 12.23 56.53 16.65 52.97 19.05 C 51.55 20.21 49.81 19.29 48.29 18.91 C 52.99 14.59 58.23 10.20 60.23 3.89 C 58.16 2.61 55.72 3.68 53.96 4.98 C 49.31 8.49 46.26 13.70 44.35 19.12 C 42.47 19.31 39.89 20.58 39.14 17.99 C 40.30 14.98 43.01 13.01 44.97 10.55 C 39.21 8.73 32.47 11.23 29.41 16.47 C 28.43 18.32 26.93 20.71 28.40 22.70 C 31.45 23.45 33.94 21.01 36.14 19.30 C 36.65 20.54 36.16 22.98 38.05 23.10 C 40.46 23.31 42.63 21.94 44.81 21.11 C 45.88 21.75 46.93 22.44 48.08 22.94 C 50.13 22.96 51.78 21.53 53.50 20.60 C 54.37 21.28 54.98 22.51 56.15 22.67 C 57.99 22.24 59.65 21.27 61.36 20.50 C 59.82 23.62 58.23 26.87 55.32 28.97 C 55.31 27.96 55.30 25.93 55.29 24.92 C 53.35 26.53 51.88 28.56 51.17 31.00 L 0.00 31.00 L 0.00 6.20 C 2.83 5.96 5.68 5.94 8.52 5.83 C 5.67 10.24 1.90 15.37 3.85 20.90 C 5.73 24.38 9.90 22.81 12.64 21.43 C 17.45 24.73 23.49 21.92 26.65 17.70 C 30.59 12.95 35.02 6.22 31.66 0.00 Z" />
<path fill="#e31936" d=" M 53.96 4.98 C 55.72 3.68 58.16 2.61 60.23 3.89 C 58.23 10.20 52.99 14.59 48.29 18.91 C 49.81 19.29 51.55 20.21 52.97 19.05 C 56.53 16.65 58.45 12.23 62.62 10.64 C 65.20 9.35 68.07 10.09 70.75 10.57 C 70.29 11.11 69.37 12.19 68.91 12.72 C 65.79 19.92 62.09 28.46 53.93 31.00 L 51.17 31.00 C 51.88 28.56 53.35 26.53 55.29 24.92 C 55.30 25.93 55.31 27.96 55.32 28.97 C 58.23 26.87 59.82 23.62 61.36 20.50 C 59.65 21.27 57.99 22.24 56.15 22.67 C 54.98 22.51 54.37 21.28 53.50 20.60 C 51.78 21.53 50.13 22.96 48.08 22.94 C 46.93 22.44 45.88 21.75 44.81 21.11 C 42.63 21.94 40.46 23.31 38.05 23.10 C 36.16 22.98 36.65 20.54 36.14 19.30 C 33.94 21.01 31.45 23.45 28.40 22.70 C 26.93 20.71 28.43 18.32 29.41 16.47 C 32.47 11.23 39.21 8.73 44.97 10.55 C 43.01 13.01 40.30 14.98 39.14 17.99 C 39.89 20.58 42.47 19.31 44.35 19.12 C 46.26 13.70 49.31 8.49 53.96 4.98 Z" />
<path fill="#ffffff" d=" M 14.68 16.04 C 16.08 12.40 17.26 7.99 21.13 6.22 C 20.15 10.12 17.84 13.57 14.68 16.04 Z" />
<path fill="#ffffff" d=" M 47.83 16.71 C 50.02 12.66 52.33 7.95 56.82 6.07 C 54.81 10.31 51.81 14.17 47.83 16.71 Z" />
<path fill="#e31936" d=" M 119.81 18.62 C 126.75 17.30 130.03 10.17 135.57 6.54 C 135.36 10.51 134.81 14.47 133.80 18.32 C 136.20 18.46 138.60 18.41 141.00 18.24 L 141.00 18.65 C 140.05 19.81 139.05 20.92 138.04 22.03 C 133.49 21.66 128.93 21.77 124.37 22.00 C 125.81 20.03 128.03 19.00 129.99 17.67 C 130.93 16.44 130.74 14.70 131.19 13.28 C 127.01 16.09 123.76 20.36 118.94 22.15 C 117.21 23.08 115.82 21.63 114.46 20.76 C 115.14 19.36 115.82 17.96 116.50 16.55 C 113.35 19.12 110.19 21.88 106.12 22.85 C 107.29 20.75 108.57 18.71 109.82 16.66 C 105.22 19.77 99.06 25.30 93.48 21.01 C 89.39 22.48 84.58 24.10 80.71 21.18 C 77.79 22.34 74.53 23.59 71.74 21.38 C 72.90 18.85 74.20 16.38 75.39 13.86 C 71.95 16.18 69.39 19.56 65.84 21.73 C 67.90 18.79 70.66 16.33 72.20 13.02 C 73.03 11.01 74.63 9.52 76.35 8.24 C 76.19 8.99 75.87 10.50 75.71 11.25 C 77.76 10.85 79.82 10.48 81.89 10.26 C 80.04 13.09 75.94 15.31 76.63 19.16 C 78.03 19.27 79.43 19.32 80.83 19.32 C 82.47 15.18 85.22 11.06 89.70 9.69 C 91.60 9.02 95.18 9.13 94.65 11.99 C 93.06 15.91 88.91 17.56 85.59 19.68 C 87.33 19.82 89.10 20.11 90.84 19.79 C 95.21 19.09 96.44 14.10 99.73 11.77 C 101.96 10.11 105.42 8.12 108.01 10.10 C 107.84 15.30 102.23 17.17 98.43 19.28 C 99.44 19.47 100.52 20.06 101.54 19.52 C 107.76 17.41 111.85 11.98 117.19 8.47 C 116.48 11.38 114.94 13.96 113.55 16.58 C 117.33 14.28 119.89 9.13 124.73 9.18 C 122.94 12.07 118.30 14.74 119.81 18.62 Z" />
<path fill="#ffffff" d=" M 98.57 17.01 C 99.87 14.08 102.11 11.59 105.28 10.70 C 104.54 13.99 101.57 15.98 98.57 17.01 Z" />
<path fill="#ffffff" d=" M 85.17 17.50 C 86.36 14.54 88.51 11.61 91.99 11.39 C 90.67 14.32 88.01 16.21 85.17 17.50 Z" />
<path fill="#ffffff" d=" M 31.35 18.79 C 30.59 14.34 36.13 11.65 39.94 12.92 C 38.29 15.96 35.08 19.33 31.35 18.79 Z" />
<path fill="#ffffff" d=" M 57.81 19.13 C 56.52 15.01 62.11 11.92 65.75 12.82 C 64.08 15.74 61.47 19.05 57.81 19.13 Z" />
</svg>
