<?xml version="1.0" encoding="UTF-8" ?>
<!DOCTYPE svg PUBLIC "-//W3C//DTD SVG 1.1//EN" "http://www.w3.org/Graphics/SVG/1.1/DTD/svg11.dtd">
<svg width="141pt" height="31pt" viewBox="0 0 141 31" version="1.1" xmlns="http://www.w3.org/2000/svg">
<path fill="#ffffff" d=" M 0.00 0.00 L 29.85 0.00 C 29.09 0.66 28.35 1.34 27.62 2.04 C 30.47 7.93 27.35 14.81 22.43 18.49 C 20.81 19.95 18.59 19.27 16.67 19.08 C 19.45 13.74 25.46 9.19 24.32 2.55 C 21.17 3.13 17.94 4.25 16.03 6.99 C 12.94 10.33 12.78 15.09 10.99 19.05 C 9.78 19.41 8.55 19.65 7.33 19.92 C 5.04 13.14 9.90 7.18 13.82 2.19 C 9.23 3.11 3.03 0.16 0.00 4.92 L 0.00 0.00 Z" />
<path fill="#d9d9d9" d=" M 29.85 0.00 L 32.93 0.00 C 32.67 3.77 33.05 7.78 31.08 11.19 C 28.70 15.54 25.65 19.97 21.05 22.16 C 17.63 23.98 13.93 21.12 10.40 22.32 C 8.22 22.90 5.15 23.63 3.96 21.03 C 1.74 15.70 5.66 10.61 8.11 6.14 C 5.41 6.03 2.70 5.92 0.00 5.80 L 0.00 4.92 C 3.03 0.16 9.23 3.11 13.82 2.19 C 9.90 7.18 5.04 13.14 7.33 19.92 C 8.55 19.65 9.78 19.41 10.99 19.05 C 12.78 15.09 12.94 10.33 16.03 6.99 C 17.94 4.25 21.17 3.13 24.32 2.55 C 25.46 9.19 19.45 13.74 16.67 19.08 C 18.59 19.27 20.81 19.95 22.43 18.49 C 27.35 14.81 30.47 7.93 27.62 2.04 C 28.35 1.34 29.09 0.66 29.85 0.00 Z" />
<path fill="#ffffff" d=" M 32.93 0.00 L 141.00 0.00 L 141.00 18.36 C 138.67 18.39 136.35 18.39 134.03 18.35 C 134.67 14.50 135.26 10.64 135.54 6.74 C 129.63 10.21 126.42 18.25 118.82 18.47 C 120.12 14.84 122.46 11.76 124.51 8.55 C 120.39 10.22 117.25 13.44 113.89 16.24 C 115.11 13.75 116.26 11.23 117.22 8.62 C 110.97 12.46 106.31 19.36 98.47 20.06 C 102.22 16.98 107.50 15.02 108.53 9.71 C 106.45 9.53 104.20 9.03 102.28 10.16 C 98.18 11.94 96.37 16.36 93.01 19.03 C 90.83 20.07 88.31 19.89 85.97 20.18 C 88.93 17.21 93.74 15.58 94.81 11.14 C 93.38 8.38 89.83 9.34 87.67 10.57 C 84.21 12.25 82.82 16.03 80.54 18.86 C 79.14 19.26 77.71 19.51 76.25 19.62 C 76.60 15.86 79.21 13.09 81.75 10.57 C 79.33 10.71 76.74 10.97 74.80 9.16 C 72.14 13.26 69.37 17.31 66.55 21.31 C 69.39 18.93 72.17 16.48 75.06 14.16 C 74.31 16.75 70.87 20.00 73.48 22.50 C 76.58 23.07 79.72 20.89 82.83 22.14 C 85.74 23.26 88.74 22.34 91.65 21.73 C 94.34 21.13 96.92 22.88 99.60 22.49 C 103.21 21.53 106.18 19.12 109.20 17.03 C 108.30 19.00 107.42 20.98 106.59 22.98 C 109.92 21.57 113.00 19.62 115.58 17.08 C 115.59 18.76 114.72 20.72 115.91 22.17 C 117.95 23.08 120.08 21.82 121.78 20.76 C 124.99 18.52 127.81 15.78 131.00 13.52 C 130.83 14.83 130.68 16.13 130.55 17.45 C 128.31 18.57 126.22 19.99 124.45 21.78 C 128.64 21.82 132.84 22.05 137.03 21.79 C 138.74 21.65 139.81 20.06 141.00 19.01 L 141.00 31.00 L 54.31 31.00 C 63.10 27.59 66.60 18.04 70.15 10.10 C 66.72 9.94 62.82 9.59 60.10 12.14 C 56.58 14.72 54.40 20.25 49.30 19.69 C 49.28 19.34 49.26 18.65 49.24 18.30 C 53.39 13.63 59.22 9.63 60.12 2.95 C 52.36 3.41 48.02 10.83 45.08 17.12 C 44.38 19.53 41.70 19.53 39.71 20.13 C 38.86 15.92 42.83 13.32 44.71 10.07 C 41.32 10.02 37.67 9.77 34.61 11.55 C 30.85 13.60 27.70 17.59 27.85 22.04 C 30.16 24.02 33.12 21.28 35.40 20.40 C 36.25 21.32 37.13 22.22 38.05 23.08 C 40.36 22.91 42.55 22.11 44.76 21.45 C 47.60 23.22 50.76 22.71 53.40 20.81 C 54.30 21.44 55.15 22.14 56.05 22.77 C 57.73 22.16 59.42 21.52 61.11 20.92 C 59.77 23.67 58.16 26.27 56.31 28.71 C 55.78 27.95 54.72 26.45 54.19 25.70 C 53.02 27.48 51.85 29.27 50.61 31.00 L 0.00 31.00 L 0.00 5.80 C 2.70 5.92 5.41 6.03 8.11 6.14 C 5.66 10.61 1.74 15.70 3.96 21.03 C 5.15 23.63 8.22 22.90 10.40 22.32 C 13.93 21.12 17.63 23.98 21.05 22.16 C 25.65 19.97 28.70 15.54 31.08 11.19 C 33.05 7.78 32.67 3.77 32.93 0.00 Z" />
<path fill="#d9d9d9" d=" M 45.08 17.12 C 48.02 10.83 52.36 3.41 60.12 2.95 C 59.22 9.63 53.39 13.63 49.24 18.30 C 49.26 18.65 49.28 19.34 49.30 19.69 C 54.40 20.25 56.58 14.72 60.10 12.14 C 62.82 9.59 66.72 9.94 70.15 10.10 C 66.60 18.04 63.10 27.59 54.31 31.00 L 50.61 31.00 C 51.85 29.27 53.02 27.48 54.19 25.70 C 54.72 26.45 55.78 27.95 56.31 28.71 C 58.16 26.27 59.77 23.67 61.11 20.92 C 59.42 21.52 57.73 22.16 56.05 22.77 C 55.15 22.14 54.30 21.44 53.40 20.81 C 50.76 22.71 47.60 23.22 44.76 21.45 C 42.55 22.11 40.36 22.91 38.05 23.08 C 37.13 22.22 36.25 21.32 35.40 20.40 C 33.12 21.28 30.16 24.02 27.85 22.04 C 27.70 17.59 30.85 13.60 34.61 11.55 C 37.67 9.77 41.32 10.02 44.71 10.07 C 42.83 13.32 38.86 15.92 39.71 20.13 C 41.70 19.53 44.38 19.53 45.08 17.12 Z" />
<path fill="#ffffff" d=" M 48.00 16.29 C 49.96 12.29 52.65 8.63 56.15 5.84 C 55.41 10.38 51.91 14.11 48.00 16.29 Z" />
<path fill="#ffffff" d=" M 14.96 15.52 C 15.94 11.97 17.69 8.64 20.34 6.05 C 21.19 9.89 17.78 13.34 14.96 15.52 Z" />
<path fill="#d9d9d9" d=" M 118.82 18.47 C 126.42 18.25 129.63 10.21 135.54 6.74 C 135.26 10.64 134.67 14.50 134.03 18.35 C 136.35 18.39 138.67 18.39 141.00 18.36 L 141.00 19.01 C 139.81 20.06 138.74 21.65 137.03 21.79 C 132.84 22.05 128.64 21.82 124.45 21.78 C 126.22 19.99 128.31 18.57 130.55 17.45 C 130.68 16.13 130.83 14.83 131.00 13.52 C 127.81 15.78 124.99 18.52 121.78 20.76 C 120.08 21.82 117.95 23.08 115.91 22.17 C 114.72 20.72 115.59 18.76 115.58 17.08 C 113.00 19.62 109.92 21.57 106.59 22.98 C 107.42 20.98 108.30 19.00 109.20 17.03 C 106.18 19.12 103.21 21.53 99.60 22.49 C 96.92 22.88 94.34 21.13 91.65 21.73 C 88.74 22.34 85.74 23.26 82.83 22.14 C 79.72 20.89 76.58 23.07 73.48 22.50 C 70.87 20.00 74.31 16.75 75.06 14.16 C 72.17 16.48 69.39 18.93 66.55 21.31 C 69.37 17.31 72.14 13.26 74.80 9.16 C 76.74 10.97 79.33 10.71 81.75 10.57 C 79.21 13.09 76.60 15.86 76.25 19.62 C 77.71 19.51 79.14 19.26 80.54 18.86 C 82.82 16.03 84.21 12.25 87.67 10.57 C 89.83 9.34 93.38 8.38 94.81 11.14 C 93.74 15.58 88.93 17.21 85.97 20.18 C 88.31 19.89 90.83 20.07 93.01 19.03 C 96.37 16.36 98.18 11.94 102.28 10.16 C 104.20 9.03 106.45 9.53 108.53 9.71 C 107.50 15.02 102.22 16.98 98.47 20.06 C 106.31 19.36 110.97 12.46 117.22 8.62 C 116.26 11.23 115.11 13.75 113.89 16.24 C 117.25 13.44 120.39 10.22 124.51 8.55 C 122.46 11.76 120.12 14.84 118.82 18.47 Z" />
<path fill="#ffffff" d=" M 98.76 17.05 C 99.80 14.00 102.12 11.65 105.25 10.77 C 104.54 14.04 101.57 15.78 98.76 17.05 Z" />
<path fill="#ffffff" d=" M 85.45 17.40 C 86.33 14.45 88.49 11.75 91.74 11.36 C 90.91 14.43 88.01 15.98 85.45 17.40 Z" />
<path fill="#ffffff" d=" M 30.94 19.07 C 31.01 14.60 36.03 10.88 40.08 13.64 C 37.63 16.29 34.81 19.09 30.94 19.07 Z" />
<path fill="#ffffff" d=" M 60.03 14.08 C 61.64 12.54 63.96 12.42 65.83 13.59 C 63.57 15.77 61.49 18.95 58.05 19.16 C 56.35 17.33 58.66 15.27 60.03 14.08 Z" />
</svg>
