<?xml version="1.0" encoding="UTF-8" standalone="no"?>
<svg width="141px" height="48px" viewBox="0 0 141 48" version="1.1" xmlns="http://www.w3.org/2000/svg" xmlns:xlink="http://www.w3.org/1999/xlink" xmlns:sketch="http://www.bohemiancoding.com/sketch/ns">
    <!-- Generator: Sketch 3.4 (15588) - http://www.bohemiancoding.com/sketch -->
    <title>Slice 1</title>
    <desc>Created with Sketch.</desc>
    <defs></defs>
    <g id="Page-1" stroke="none" stroke-width="1" fill="none" fill-rule="evenodd" sketch:type="MSPage">
        <g id="xfinity_hover" sketch:type="MSLayerGroup">
            <path d="M0,0 L141,0 L141,48 L0,48 L0,0 L0,0 Z" id="Shape" fill="#FFFFFF" sketch:type="MSShapeGroup"></path>
            <path d="M33.34,2.815 C35.875,0.425 39.745,0.87 42.835,1.715 C42.825,3.245 42.82,4.77 42.83,6.295 C41.215,6.07 39.45,5.52 37.905,6.305 C36.425,7.555 37.295,9.74 37.02,11.41 C35.585,14.465 33.335,17.025 31.275,19.67 C31.275,18.305 31.275,16.935 31.28,15.57 C29.355,15.565 27.43,15.57 25.51,15.555 C26.485,14.06 27.525,12.605 28.535,11.135 C29.44,11.115 30.345,11.105 31.255,11.1 C31.2,8.25 31.135,4.97 33.34,2.815 L33.34,2.815 Z" id="Shape" fill="#D41117" sketch:type="MSShapeGroup"></path>
            <path d="M99.775,4.49 C101.67,3.59 103.525,2.615 105.38,1.635 C105.52,4.8 105.185,7.99 105.605,11.14 C107.19,11.105 108.775,11.095 110.36,11.14 C110.9,12.615 111.46,14.08 111.98,15.565 C109.785,15.57 107.595,15.55 105.405,15.595 C105.6,21.065 104.985,26.59 105.805,32.015 C104.575,33.47 103.52,35.055 102.565,36.695 C100.885,35.275 99.79,33.205 99.775,30.985 C99.725,25.85 99.77,20.71 99.765,15.575 C98.385,15.565 97.01,15.565 95.635,15.565 C95.63,14.08 95.63,12.595 95.625,11.11 C96.995,11.115 98.37,11.11 99.745,11.115 C99.765,8.905 99.75,6.7 99.775,4.49 L99.775,4.49 Z" id="Shape" fill="#B80E13" sketch:type="MSShapeGroup"></path>
            <path d="M63.925,13.065 C66.93,10.58 71.475,9.61 74.96,11.61 L74.935,11.88 C73.565,12.925 72.685,14.42 72.07,16 C70.605,15.545 69.02,15.1 67.51,15.64 C65.225,16.28 64.06,18.765 64.11,20.995 C64.075,26.4 64.105,31.81 64.1,37.215 C62.165,37.245 60.225,37.24 58.29,37.235 C58.295,28.53 58.3,19.82 58.29,11.115 C60.165,11.11 62.045,11.11 63.925,11.11 L63.925,13.065 L63.925,13.065 Z" id="Shape" fill="#D41117" sketch:type="MSShapeGroup"></path>
            <path d="M1.635,11.13 C3.84,11.08 6.05,11.1 8.255,11.115 C9.065,12.3 9.875,13.49 10.69,14.675 C9.57,16.185 8.47,17.71 7.39,19.25 C5.485,16.535 3.57,13.825 1.635,11.13 L1.635,11.13 Z" id="Shape" fill="#920609" sketch:type="MSShapeGroup"></path>
            <path d="M19.155,11.115 C21.355,11.1 23.56,11.1 25.765,11.135 C22.9,15.15 20.03,19.165 17.235,23.23 C16.695,23.88 17.63,24.54 17.83,25.115 C17.16,26.9 16.125,28.51 14.895,29.955 C14.47,29.435 14.045,28.915 13.615,28.395 C11.645,31.365 9.61,34.295 7.595,37.235 C5.395,37.235 3.19,37.25 0.99,37.22 C4.23,32.735 7.33,28.15 10.58,23.675 C11.835,22.29 13.14,20.835 13.465,18.925 C13.905,19.01 14.025,18.465 14.275,18.24 C15.91,15.87 17.51,13.475 19.155,11.115 L19.155,11.115 Z" id="Shape" fill="#BC0E14" sketch:type="MSShapeGroup"></path>
            <path d="M46.545,11.11 L52.265,11.11 C52.26,19.82 52.26,28.53 52.265,37.235 C50.355,37.24 48.45,37.24 46.54,37.235 C46.555,28.525 46.555,19.82 46.545,11.11 L46.545,11.11 Z" id="Shape" fill="#DD1118" sketch:type="MSShapeGroup"></path>
            <path d="M85.79,11.115 C87.725,11.105 89.665,11.09 91.605,11.16 C91.455,19.855 91.825,28.56 91.42,37.245 C89.54,37.235 87.665,37.24 85.785,37.235 C85.795,28.53 85.795,19.82 85.79,11.115 L85.79,11.115 Z" id="Shape" fill="#C00E14" sketch:type="MSShapeGroup"></path>
            <path d="M112.665,11.175 C114.665,11.085 116.665,11.1 118.665,11.115 C119.17,12.455 119.67,13.8 120.24,15.115 L120.15,15.205 C118.675,16.695 117.335,18.315 116.245,20.115 C114.935,17.18 113.985,14.105 112.665,11.175 L112.665,11.175 Z" id="Shape" fill="#AE0C11" sketch:type="MSShapeGroup"></path>
            <path d="M37.02,11.41 L37.18,11.085 C39.06,11.12 40.945,11.11 42.83,11.11 C42.83,12.595 42.83,14.085 42.815,15.57 C40.89,15.565 38.96,15.565 37.03,15.57 C37.04,22.79 37.035,30.01 37.035,37.235 C35.115,37.24 33.19,37.24 31.27,37.235 C31.275,31.38 31.265,25.525 31.275,19.67 C33.335,17.025 35.585,14.465 37.02,11.41 L37.02,11.41 Z" id="Shape" fill="#E61319" sketch:type="MSShapeGroup"></path>
            <path d="M133.955,11.12 C136.03,11.11 138.11,11.1 140.19,11.125 C133.695,22.855 127.245,34.605 120.82,46.375 C118.775,46.42 116.73,46.4 114.69,46.39 C116.965,42.24 119.19,38.065 121.455,33.91 C120.89,32.28 120.255,30.675 119.625,29.075 C120.82,27.335 122.125,25.675 123.55,24.12 C123.98,25.315 124.445,26.495 124.92,27.675 C127.87,22.12 130.96,16.65 133.955,11.12 L133.955,11.12 Z" id="Shape" fill="#880406" sketch:type="MSShapeGroup"></path>
            <path d="M72.07,16 C72.685,14.42 73.565,12.925 74.935,11.88 L75.36,11.81 C78.395,13.14 79.655,16.845 79.89,19.975 C80.215,25.72 79.955,31.48 80.04,37.235 C78.12,37.24 76.195,37.24 74.275,37.235 C74.26,31.98 74.31,26.725 74.26,21.47 C74.245,19.445 73.65,17.365 72.07,16 L72.07,16 Z" id="Shape" fill="#C70F15" sketch:type="MSShapeGroup"></path>
            <path d="M7.39,19.25 C8.47,17.71 9.57,16.185 10.69,14.675 C11.645,16.075 12.655,17.435 13.465,18.925 C13.14,20.835 11.835,22.29 10.58,23.675 C9.47,22.235 8.43,20.74 7.39,19.25 L7.39,19.25 Z" id="Shape" fill="#AE0C11" sketch:type="MSShapeGroup"></path>
            <path d="M116.245,20.115 C117.335,18.315 118.675,16.695 120.15,15.205 C121.36,18.145 122.425,21.145 123.55,24.12 C122.125,25.675 120.82,27.335 119.625,29.075 C118.455,26.135 117.435,23.14 116.16,20.25 L116.245,20.115 L116.245,20.115 Z" id="Shape" fill="#9E090D" sketch:type="MSShapeGroup"></path>
            <path d="M17.83,25.115 C19.22,27.03 20.555,28.99 21.91,30.935 C20.885,32.515 19.875,34.11 18.88,35.71 C17.555,33.79 16.175,31.905 14.895,29.955 C16.125,28.51 17.16,26.9 17.83,25.115 L17.83,25.115 Z" id="Shape" fill="#D31117" sketch:type="MSShapeGroup"></path>
            <path d="M21.91,30.935 C25.53,36.07 29.075,41.265 32.73,46.38 C30.64,46.365 28.545,46.48 26.455,46.35 C23.765,42.94 21.445,39.225 18.88,35.71 C19.875,34.11 20.885,32.515 21.91,30.935 L21.91,30.935 Z" id="Shape" fill="#E61219" sketch:type="MSShapeGroup"></path>
            <path d="M102.565,36.695 C103.52,35.055 104.575,33.47 105.805,32.015 C107.385,33.35 109.515,32.865 111.385,32.74 C111.14,34.245 110.895,35.75 110.69,37.265 C108.01,37.93 105.055,38.06 102.565,36.695 L102.565,36.695 Z" id="Shape" fill="#A50A0E" sketch:type="MSShapeGroup"></path>
            <path d="M131.215,33.84 C132.25,33.86 133.285,33.89 134.325,33.96 C132.55,34.365 133.295,36.265 133.01,37.52 C131.81,36.51 133.02,34.43 131.215,33.84 L131.215,33.84 Z" id="Shape" fill="#8F3131" sketch:type="MSShapeGroup"></path>
            <path d="M137.4,33.825 C137.645,33.815 138.125,33.79 138.37,33.78 C138.49,35.07 138.755,36.455 138.03,37.63 C137.75,36.985 137.48,36.335 137.23,35.675 C137.555,36.74 136.035,38.13 135.965,36.365 L135.84,35.68 C135.56,36.335 135.265,36.985 134.955,37.63 C134.37,36.41 134.27,34.945 134.835,33.7 C136.055,33.665 136,35.205 136.55,35.935 C136.83,35.23 137.11,34.525 137.4,33.825 L137.4,33.825 Z" id="Shape" fill="#A25B5B" sketch:type="MSShapeGroup"></path>
        </g>
    </g>
</svg>