<?xml version="1.0" encoding="UTF-8" standalone="no"?>
<svg width="141px" height="48px" viewBox="0 0 141 48" version="1.1" xmlns="http://www.w3.org/2000/svg" xmlns:xlink="http://www.w3.org/1999/xlink" xmlns:sketch="http://www.bohemiancoding.com/sketch/ns">
    <!-- Generator: Sketch 3.4 (15588) - http://www.bohemiancoding.com/sketch -->
    <title>Slice 1</title>
    <desc>Created with Sketch.</desc>
    <defs></defs>
    <g id="Page-1" stroke="none" stroke-width="1" fill="none" fill-rule="evenodd" sketch:type="MSPage">
        <g id="xfinity_default" sketch:type="MSLayerGroup">
            <path d="M0,0 L141,0 L141,48 L0,48 L0,0 L0,0 Z" id="Shape" fill="#FFFFFF" sketch:type="MSShapeGroup"></path>
            <path d="M33.6,2.585 C36.17,0.42 39.815,0.97 42.835,1.675 C42.83,3.2 42.825,4.725 42.835,6.25 C41.07,6.15 38.65,5.21 37.35,6.89 C36.855,8.235 37.08,9.71 37.015,11.11 L42.835,11.11 C42.835,12.595 42.82,14.085 42.82,15.575 C40.89,15.565 38.96,15.565 37.03,15.565 C37.035,22.79 37.03,30.01 37.035,37.235 C35.115,37.24 33.195,37.24 31.275,37.235 C31.275,30.015 31.27,22.79 31.275,15.57 C29.345,15.57 27.415,15.57 25.49,15.56 C26.495,14.07 27.525,12.6 28.555,11.13 C29.455,11.12 30.35,11.115 31.25,11.1 C31.205,8.155 31.16,4.685 33.6,2.585 L33.6,2.585 Z" id="Shape" fill="#F3F1EF" sketch:type="MSShapeGroup"></path>
            <path d="M99.77,4.5 C101.66,3.575 103.525,2.61 105.395,1.645 C105.415,4.8 105.365,7.96 105.46,11.12 C107.09,11.11 108.725,11.115 110.36,11.135 C110.9,12.61 111.45,14.085 111.985,15.57 C109.79,15.565 107.595,15.56 105.405,15.59 C105.42,20.055 105.38,24.52 105.405,28.985 C105.525,30.175 105.395,31.72 106.515,32.485 C107.99,33.385 109.78,32.92 111.38,32.725 C111.13,34.245 110.9,35.77 110.675,37.295 C108.185,37.745 105.41,38.2 103.085,36.9 C100.805,35.68 99.735,33.005 99.76,30.515 C99.735,25.535 99.77,20.555 99.76,15.57 C98.385,15.575 97.01,15.56 95.635,15.565 C95.63,14.08 95.62,12.595 95.62,11.11 L99.75,11.11 C99.76,8.91 99.755,6.705 99.77,4.5 L99.77,4.5 Z" id="Shape" fill="#F3F1EF" sketch:type="MSShapeGroup"></path>
            <path d="M64.045,13.16 C67.305,9.97 72.935,9.65 76.525,12.445 C79.155,14.635 79.92,18.23 79.985,21.495 C80.105,26.74 80,31.985 80.035,37.235 C78.115,37.24 76.195,37.24 74.275,37.235 C74.28,32.495 74.27,27.75 74.29,23.005 C74.27,21.075 74.255,18.995 73.205,17.3 C71.885,15.245 68.925,14.96 66.845,15.895 C64.945,16.81 64.1,19 64.11,21.005 C64.06,26.41 64.11,31.815 64.1,37.215 C62.16,37.24 60.225,37.24 58.29,37.24 C58.295,28.53 58.295,19.82 58.29,11.11 C60.235,11.105 62.18,11.11 64.125,11.145 C64.105,11.645 64.065,12.655 64.045,13.16 L64.045,13.16 Z" id="Shape" fill="#F3F1EF" sketch:type="MSShapeGroup"></path>
            <path d="M1.65,11.12 C3.855,11.11 6.055,11.11 8.26,11.115 C10.06,13.755 11.875,16.39 13.66,19.04 C15.57,16.45 17.315,13.75 19.155,11.115 C21.36,11.11 23.56,11.11 25.76,11.125 C22.97,15.055 20.17,18.985 17.415,22.94 C16.655,23.64 17.485,24.475 17.855,25.145 C22.835,32.205 27.73,39.325 32.72,46.385 C30.585,46.395 28.45,46.4 26.32,46.375 C22.12,40.36 18,34.285 13.65,28.38 C11.645,31.34 9.62,34.29 7.595,37.235 C5.395,37.24 3.195,37.245 0.995,37.22 C4.175,32.705 7.41,28.23 10.51,23.655 C7.54,19.49 4.62,15.29 1.65,11.12 L1.65,11.12 Z" id="Shape" fill="#F3F1EF" sketch:type="MSShapeGroup"></path>
            <path d="M46.545,11.11 L52.265,11.11 C52.26,19.82 52.26,28.53 52.265,37.24 C50.355,37.24 48.45,37.24 46.54,37.235 C46.555,28.525 46.55,19.82 46.545,11.11 L46.545,11.11 Z" id="Shape" fill="#F3F1EF" sketch:type="MSShapeGroup"></path>
            <path d="M85.78,11.125 C87.72,11.105 89.66,11.105 91.6,11.15 C91.58,19.84 91.595,28.53 91.595,37.215 C89.66,37.24 87.72,37.24 85.785,37.24 C85.785,28.535 85.805,19.83 85.78,11.125 L85.78,11.125 Z" id="Shape" fill="#F3F1EF" sketch:type="MSShapeGroup"></path>
            <path d="M112.685,11.13 C114.675,11.11 116.67,11.11 118.66,11.105 C120.765,16.61 122.765,22.155 124.91,27.645 C127.9,22.12 130.945,16.625 133.96,11.11 C136.035,11.11 138.11,11.11 140.19,11.125 C133.68,22.855 127.25,34.625 120.795,46.38 C118.755,46.395 116.72,46.395 114.685,46.395 C116.965,42.245 119.18,38.065 121.455,33.915 C118.59,26.295 115.66,18.705 112.685,11.13 L112.685,11.13 Z" id="Shape" fill="#F3F1EF" sketch:type="MSShapeGroup"></path>
            <path d="M131.04,33.895 C132.21,33.88 133.385,33.885 134.56,33.9 C134.195,34.11 133.475,34.53 133.115,34.735 C133.115,35.555 133.125,36.37 133.135,37.19 L132.385,37.22 C132.39,36.4 132.395,35.585 132.4,34.765 C132.06,34.55 131.38,34.11 131.04,33.895 L131.04,33.895 Z" id="Shape" fill="#F3F1EF" sketch:type="MSShapeGroup"></path>
            <path d="M134.58,33.52 C135.585,33.905 136.08,34.81 136.51,35.735 C136.945,34.82 137.48,33.94 138.435,33.495 C138.54,34.91 138.39,36.32 138.14,37.71 C137.87,37.08 137.605,36.45 137.35,35.82 C137.145,36.205 136.74,36.975 136.535,37.365 C136.33,36.965 135.915,36.17 135.71,35.775 C135.43,36.425 135.145,37.075 134.855,37.72 C134.615,36.33 134.47,34.93 134.58,33.52 L134.58,33.52 Z" id="Shape" fill="#F3F1EF" sketch:type="MSShapeGroup"></path>
        </g>
    </g>
</svg>
