<?xml version="1.0" encoding="UTF-8" standalone="no"?>
<svg width="16px" height="16px" viewBox="0 0 16 16" version="1.1" xmlns="http://www.w3.org/2000/svg" xmlns:xlink="http://www.w3.org/1999/xlink" xmlns:sketch="http://www.bohemiancoding.com/sketch/ns">
    <!-- Generator: Sketch 3.1.1 (8761) - http://www.bohemiancoding.com/sketch -->
    <title>facebook</title>
    <desc>Created with Sketch.</desc>
    <defs></defs>
    <g id="Page-1" stroke="none" stroke-width="1" fill="none" fill-rule="evenodd" sketch:type="MSPage">
        <g id="Home" sketch:type="MSArtboardGroup" transform="translate(-1189.000000, -2269.000000)" fill="#817974">
            <g id="facebook" sketch:type="MSLayerGroup" transform="translate(1189.000000, 2269.000000)">
                <path d="M16,2.66684444 C16,1.2656 14.7349333,0 13.3333333,0 L2.66666667,0 C1.26506667,0 0,1.2656 0,2.66684444 L0,13.3331556 C0,14.7344 1.26506667,16 2.66684444,16 L8,16 L8,9.95555556 L6.04444444,9.95555556 L6.04444444,7.28888889 L8,7.28888889 L8,6.24995556 C8,4.45813333 9.3456,2.84444444 11,2.84444444 L13.1555556,2.84444444 L13.1555556,5.51111111 L11,5.51111111 C10.7640889,5.51111111 10.4888889,5.79751111 10.4888889,6.22648889 L10.4888889,7.28888889 L13.1555556,7.28888889 L13.1555556,9.95555556 L10.4888889,9.95555556 L10.4888889,16 L13.3333333,16 C14.7349333,16 16,14.7344 16,13.3331556 L16,2.66684444 L16,2.66684444 Z" id="Facebook__x28_alt_x29_" sketch:type="MSShapeGroup"></path>
            </g>
        </g>
    </g>
</svg>