<?xml version="1.0" encoding="UTF-8" standalone="no"?>
<svg width="16px" height="18px" viewBox="0 0 16 18" version="1.1" xmlns="http://www.w3.org/2000/svg" xmlns:xlink="http://www.w3.org/1999/xlink" xmlns:sketch="http://www.bohemiancoding.com/sketch/ns">
    <!-- Generator: Sketch 3.1.1 (8761) - http://www.bohemiancoding.com/sketch -->
    <title>instagram</title>
    <desc>Created with Sketch.</desc>
    <defs></defs>
    <g id="Page-1" stroke="none" stroke-width="1" fill="none" fill-rule="evenodd" sketch:type="MSPage">
        <g id="Home" sketch:type="MSArtboardGroup" transform="translate(-1115.000000, -2268.000000)" fill="#817974">
            <g id="instagram" sketch:type="MSLayerGroup" transform="translate(1115.000000, 2269.000000)">
                <path d="M12.93248,-0.0551836735 L3.2,-0.0551836735 C1.50944,-0.0551836735 0.13408,1.34791837 0.13408,3.07297959 L0.13408,6.37746939 L0.13408,13.0044082 C0.13408,14.7294694 1.50944,16.1325714 3.2,16.1325714 L12.9328,16.1325714 C14.62336,16.1325714 15.9984,14.7294694 15.9984,13.0044082 L15.9984,6.37714286 L15.9984,3.07265306 C15.99808,1.34759184 14.62304,-0.0551836735 12.93248,-0.0551836735 L12.93248,-0.0551836735 Z M13.81184,1.81028571 L14.16256,1.80897959 L14.16256,2.16522449 L14.16256,4.55281633 L11.48256,4.56163265 L11.47328,1.81812245 L13.81184,1.81028571 L13.81184,1.81028571 Z M5.80192,6.37714286 C6.31008,5.6597551 7.1344,5.18922449 8.06624,5.18922449 C8.99808,5.18922449 9.8224,5.6597551 10.32992,6.37714286 C10.66048,6.84538776 10.85856,7.41812245 10.85856,8.03853061 C10.85856,9.60946939 9.6048,10.8875102 8.06592,10.8875102 C6.52608,10.8875102 5.2736,9.60946939 5.2736,8.03853061 C5.27392,7.41812245 5.47136,6.84538776 5.80192,6.37714286 L5.80192,6.37714286 Z M14.45248,13.0040816 C14.45248,13.8599184 13.77056,14.555102 12.93248,14.555102 L3.2,14.555102 C2.3616,14.555102 1.67968,13.8599184 1.67968,13.0040816 L1.67968,6.37714286 L4.04768,6.37714286 C3.8432,6.89044898 3.72832,7.45110204 3.72832,8.03853061 C3.72832,10.4786939 5.67392,12.4653061 8.06624,12.4653061 C10.45824,12.4653061 12.40384,10.4786939 12.40384,8.03853061 C12.40384,7.45110204 12.28832,6.89044898 12.08384,6.37714286 L14.45248,6.37714286 L14.45248,13.0040816 L14.45248,13.0040816 Z" id="Shape" sketch:type="MSShapeGroup"></path>
            </g>
        </g>
    </g>
</svg>