<?xml version="1.0" encoding="UTF-8" standalone="no"?>
<svg width="10px" height="16px" viewBox="0 0 10 16" version="1.1" xmlns="http://www.w3.org/2000/svg" xmlns:xlink="http://www.w3.org/1999/xlink" xmlns:sketch="http://www.bohemiancoding.com/sketch/ns">
    <!-- Generator: Sketch 3.1.1 (8761) - http://www.bohemiancoding.com/sketch -->
    <title>tumblr</title>
    <desc>Created with Sketch.</desc>
    <defs></defs>
    <g id="Page-1" stroke="none" stroke-width="1" fill="none" fill-rule="evenodd" sketch:type="MSPage">
        <g id="Home" sketch:type="MSArtboardGroup" transform="translate(-1047.000000, -2269.000000)" fill="#817974">
            <path d="M1053.55417,2284.9664 C1050.02417,2284.9664 1048.68333,2282.4672 1048.68333,2280.7016 L1048.68333,2275.484 L1047,2275.484 L1047,2273.4216 C1049.5225,2272.5488 1050.13,2270.364 1050.2725,2269.1192 C1050.28167,2269.0336 1050.35167,2269 1050.39167,2269 L1052.82833,2269 L1052.82833,2273.0672 L1056.15583,2273.0672 L1056.15583,2275.484 L1052.81583,2275.484 L1052.81583,2280.4544 C1052.8275,2281.1192 1053.07583,2282.0296 1054.34583,2282.0296 C1054.36917,2282.0296 1054.39333,2282.0296 1054.41667,2282.0288 C1054.85833,2282.0176 1055.45,2281.8944 1055.75917,2281.7528 L1056.55917,2284.0304 C1056.25833,2284.4536 1054.90083,2284.9456 1053.67917,2284.9656 C1053.63667,2284.9664 1053.59583,2284.9664 1053.55417,2284.9664" id="tumblr" sketch:type="MSShapeGroup"></path>
        </g>
    </g>
</svg>