<?xml version="1.0" encoding="UTF-8" standalone="no"?>
<svg width="20px" height="16px" viewBox="0 0 20 16" version="1.1" xmlns="http://www.w3.org/2000/svg" xmlns:xlink="http://www.w3.org/1999/xlink" xmlns:sketch="http://www.bohemiancoding.com/sketch/ns">
    <!-- Generator: Sketch 3.1.1 (8761) - http://www.bohemiancoding.com/sketch -->
    <title>twitter</title>
    <desc>Created with Sketch.</desc>
    <defs>
        <path id="path-1" d="M0.00437956204,0 L19.9554745,0 L19.9554745,16 L0.00437956204,16"></path>
    </defs>
    <g id="Page-1" stroke="none" stroke-width="1" fill="none" fill-rule="evenodd" sketch:type="MSPage">
        <g id="Home" sketch:type="MSArtboardGroup" transform="translate(-898.000000, -2269.000000)">
            <g id="twitter" sketch:type="MSLayerGroup" transform="translate(898.000000, 2269.000000)">
                <mask id="mask-2" sketch:name="Clip 2" fill="white">
                    <use xlink:href="#path-1"></use>
                </mask>
                <g id="Clip-2"></g>
                <path d="M6.27591241,16 C3.96386861,16 1.81182482,15.3313469 0,14.1853109 C0.320291971,14.2226143 0.64620438,14.2416981 0.976642336,14.2416981 C2.89474453,14.2416981 4.66007299,13.5959456 6.06124088,12.512634 C4.26970803,12.4800115 2.75773723,11.3122271 2.23678832,9.70745978 C2.48671533,9.75462917 2.74321168,9.7799062 3.0070073,9.7799062 C3.38043796,9.7799062 3.74211679,9.73057638 4.08569343,9.63825401 C2.21270073,9.26723618 0.801532847,7.6346713 0.801532847,5.67760984 C0.801532847,5.66061446 0.801532847,5.64369109 0.801824818,5.62683974 C1.35386861,5.92937195 1.98510949,6.1110641 2.65627737,6.13202027 C1.55773723,5.40770013 0.834890511,4.1713581 0.834890511,2.77003124 C0.834890511,2.02979593 1.03678832,1.33593785 1.38919708,0.739371135 C3.40846715,3.18310544 6.42518248,4.79118545 9.82781022,4.95962697 C9.7580292,4.66400814 9.72175182,4.35571479 9.72175182,4.03913979 C9.72175182,1.80849589 11.5548905,0 13.8159854,0 C14.9935036,0 16.0575182,0.490561622 16.8043796,1.27558984 C17.7369343,1.09440179 18.6131387,0.75823889 19.4041606,0.295402785 C19.0984672,1.23857448 18.4493431,2.030156 17.6040146,2.53007949 C18.4321898,2.43242805 19.2212409,2.21530485 19.9554745,1.89404892 C19.4065693,2.70406611 18.7124088,3.41549568 17.9125547,3.98498501 C17.920438,4.15817948 17.9243796,4.33238214 17.9243796,4.507521 C17.9243796,9.84515119 13.8064234,16 6.27591241,16" id="Fill-1" fill="#817974" sketch:type="MSShapeGroup" mask="url(#mask-2)"></path>
            </g>
        </g>
    </g>
</svg>