<?xml version="1.0" encoding="UTF-8" standalone="no"?>
<svg width="20px" height="16px" viewBox="0 0 20 16" version="1.1" xmlns="http://www.w3.org/2000/svg" xmlns:xlink="http://www.w3.org/1999/xlink" xmlns:sketch="http://www.bohemiancoding.com/sketch/ns">
    <!-- Generator: Sketch 3.1.1 (8761) - http://www.bohemiancoding.com/sketch -->
    <title>vimeo</title>
    <desc>Created with Sketch.</desc>
    <defs></defs>
    <g id="Page-1" stroke="none" stroke-width="1" fill="none" fill-rule="evenodd" sketch:type="MSPage">
        <g id="Home" sketch:type="MSArtboardGroup" transform="translate(-972.000000, -2269.000000)" fill="#817974">
            <g id="vimeo" sketch:type="MSLayerGroup" transform="translate(972.000000, 2269.000000)">
                <path d="M16.9628571,8.3593263e-16 C18.8838095,0.0498823529 19.8447619,1.12752941 19.8542857,3.23576471 C19.8542857,3.37411765 19.8495238,3.51811765 19.8419048,3.66588235 C19.7571429,5.45317647 18.4114286,7.888 15.7990476,10.9694118 C13.1047619,14.1976471 10.8190476,15.8136471 8.94190476,15.8221176 C7.77428571,15.8221176 6.8047619,14.8338824 6.02666667,12.8564706 L5.20952381,10.1458824 L4.40190476,7.43905882 C3.80666667,5.47764706 3.17047619,4.49882353 2.49142857,4.49882353 C2.34285714,4.49882353 1.82761905,4.78494118 0.942857143,5.35529412 L0,4.25317647 L1.46285714,3.05223529 L2.90190476,1.86352941 C4.19047619,0.843294118 5.17047619,0.291764706 5.84285714,0.209882353 C5.93238095,0.200470588 6.02190476,0.197647059 6.11333333,0.197647059 C7.49333333,0.197647059 8.3552381,1.17741176 8.69333333,3.13788235 C8.88190476,4.256 9.03809524,5.16517647 9.1647619,5.86352941 C9.28761905,6.56376471 9.39047619,7.05129412 9.47238095,7.32894118 C9.92857143,9.18305882 10.42,10.1148235 10.9485714,10.1223529 C11.3542857,10.1223529 11.9790476,9.51811765 12.8228571,8.30964706 C13.647619,7.06823529 14.0914286,6.14870588 14.1485714,5.55011765 C14.1666667,5.42870588 14.1733333,5.31482353 14.1733333,5.20941176 C14.1733333,4.39905882 13.7219048,3.99529412 12.8228571,3.99529412 C12.3666667,3.99529412 11.88,4.09129412 11.3590476,4.27670588 C12.292381,1.43341176 14.0866667,0.00941176471 16.74,0 C16.8142857,8.3593263e-16 16.887619,8.3593263e-16 16.9628571,8.3593263e-16 L16.9628571,8.3593263e-16 Z" id="Shape" sketch:type="MSShapeGroup"></path>
            </g>
        </g>
    </g>
</svg>